M48
; DRILL file {KiCad 7.0.10-7.0.10~ubuntu23.10.1} date Sun 11 Feb 2024 21:25:18 CET
; FORMAT={-:-/ absolute / metric / decimal}
; #@! TF.CreationDate,2024-02-11T21:25:18+01:00
; #@! TF.GenerationSoftware,Kicad,Pcbnew,7.0.10-7.0.10~ubuntu23.10.1
; #@! TF.FileFunction,Plated,1,4,PTH
FMAT,2
METRIC
; #@! TA.AperFunction,Plated,PTH,ViaDrill
T1C0.300
; #@! TA.AperFunction,Plated,PTH,ViaDrill
T2C0.400
; #@! TA.AperFunction,Plated,PTH,ComponentDrill
T3C0.650
; #@! TA.AperFunction,Plated,PTH,ComponentDrill
T4C0.800
; #@! TA.AperFunction,Plated,PTH,ComponentDrill
T5C0.950
; #@! TA.AperFunction,Plated,PTH,ComponentDrill
T6C1.000
; #@! TA.AperFunction,Plated,PTH,ComponentDrill
T7C1.010
; #@! TA.AperFunction,Plated,PTH,ComponentDrill
T8C1.320
; #@! TA.AperFunction,Plated,PTH,ComponentDrill
T9C2.200
; #@! TA.AperFunction,Plated,PTH,ComponentDrill
T10C3.200
%
G90
G05
T1
X144.424Y-122.834
X144.424Y-123.8
X144.932Y-121.818
X144.983Y-124.714
X145.491Y-122.834
X145.491Y-123.8
X150.368Y-106.172
X150.368Y-107.442
X150.368Y-108.966
X150.368Y-110.49
X150.368Y-111.76
X151.638Y-106.172
X151.638Y-107.442
X151.638Y-108.966
X151.638Y-110.49
X151.638Y-111.76
T2
X121.666Y-122.174
X122.174Y-56.642
X122.174Y-61.722
X122.428Y-139.446
X122.682Y-113.03
X127.349Y-139.446
X127.508Y-121.666
X127.508Y-122.682
X130.817Y-62.205
X130.853Y-84.963
X131.275Y-82.212
X131.638Y-123.698
X131.826Y-118.364
X131.826Y-119.38
X132.27Y-139.446
X132.518Y-84.48
X132.588Y-89.916
X132.588Y-123.698
X133.299Y-97.79
X133.858Y-81.153
X133.865Y-87.097
X134.01Y-125.222
X134.119Y-57.125
X135.001Y-81.153
X135.262Y-100.076
X135.382Y-93.98
X135.382Y-122.174
X135.897Y-59.665
X136.21Y-100.076
X136.398Y-66.548
X136.398Y-68.961
X136.398Y-71.12
X136.652Y-93.98
X137.16Y-100.076
X137.192Y-139.446
X137.668Y-118.364
X137.668Y-119.38
X137.929Y-63.983
X138.43Y-92.202
X138.481Y-100.127
X138.684Y-93.98
X138.684Y-107.188
X138.684Y-108.458
X138.684Y-109.728
X138.945Y-76.175
X138.945Y-78.207
X139.199Y-57.125
X139.446Y-105.918
X139.548Y-100.076
X139.903Y-112.319
X139.954Y-93.98
X139.961Y-72.619
X140.462Y-100.076
X140.462Y-105.918
X140.503Y-84.687
X141.057Y-123.997
X141.224Y-90.424
X141.224Y-92.202
X141.515Y-124.935
X141.591Y-125.934
X141.63Y-122.95
X142.113Y-70.358
X142.113Y-73.66
X142.113Y-139.446
X142.392Y-112.42
X142.392Y-113.386
X142.392Y-114.336
X142.9Y-94.183
X142.977Y-92.227
X143.192Y-119.531
X143.205Y-116.637
X143.256Y-126.492
X144.145Y-70.104
X144.22Y-119.785
X144.272Y-90.17
X144.399Y-84.303
X144.474Y-64.296
X145.095Y-70.104
X145.542Y-81.534
X145.803Y-60.427
X146.057Y-54.839
X146.057Y-56.109
X146.057Y-57.125
X146.057Y-58.395
X146.057Y-67.793
X146.498Y-117.723
X146.609Y-120.432
X146.685Y-86.106
X146.812Y-90.17
X146.912Y-118.578
X147.034Y-139.446
X147.295Y-111.75
X147.32Y-109.042
X147.549Y-61.951
X147.625Y-116.18
X147.726Y-132.994
X148.158Y-121.084
X148.246Y-76.503
X148.5Y-122.08
X148.59Y-81.28
X148.597Y-61.951
X148.959Y-77.953
X149.696Y-77.228
X150.22Y-79.553
X150.368Y-90.678
X150.724Y-115.214
X150.919Y-124.835
X150.952Y-80.289
X151.336Y-99.873
X151.384Y-94.082
X151.645Y-55.855
X151.645Y-63.729
X151.65Y-68.814
X151.674Y-115.214
X151.677Y-81.026
X151.74Y-92.304
X151.892Y-87.884
X151.899Y-54.839
X151.899Y-59.919
X151.899Y-62.459
X151.899Y-66.269
X151.899Y-67.539
X151.956Y-139.446
X152.225Y-72.565
X152.286Y-99.873
X152.624Y-115.214
X152.645Y-63.729
X152.652Y-61.217
X152.705Y-94.031
X153.174Y-58.654
X153.236Y-99.873
X153.416Y-83.058
X153.656Y-121.97
X153.67Y-70.46
X153.677Y-55.929
X153.873Y-92.354
X154.483Y-94.031
X154.598Y-67.597
X154.618Y-68.597
X154.75Y-61.14
X154.75Y-62.558
X154.75Y-63.976
X154.788Y-99.873
X154.889Y-135.585
X155.067Y-71.12
X155.343Y-74.549
X155.768Y-99.873
X155.793Y-94.031
X155.956Y-69.22
X155.963Y-59.708
X156.041Y-64.985
X156.068Y-71.12
X156.718Y-99.873
X156.877Y-139.446
X156.972Y-55.372
X157.226Y-134.112
X157.381Y-59.708
X157.459Y-64.985
X158.14Y-74.879
X158.799Y-59.708
X158.877Y-64.985
X158.902Y-106.238
X158.902Y-107.188
X158.902Y-108.204
X158.902Y-109.154
X158.902Y-110.338
X158.902Y-111.288
X158.902Y-112.238
X158.902Y-113.188
X159.385Y-67.342
X160.027Y-61.189
X160.027Y-62.607
X160.027Y-64.026
X160.118Y-117.094
X160.184Y-74.143
X160.274Y-55.372
X160.868Y-67.341
X161.003Y-118.27
X161.798Y-139.446
X161.803Y-117.089
X162.105Y-69.92
X162.83Y-67.606
X163.322Y-55.372
X164.28Y-68.655
X164.592Y-122.682
X165.098Y-65.009
X165.869Y-54.839
X165.869Y-56.109
X165.869Y-63.729
X168.148Y-134.112
T3
X148.336Y-134.366
X148.336Y-135.636
X149.606Y-134.366
X149.606Y-135.636
X150.876Y-134.366
X150.876Y-135.636
X152.146Y-134.366
X152.146Y-135.636
X153.416Y-134.366
X153.416Y-135.636
T4
X145.034Y-133.37
X145.034Y-135.91
T5
X123.451Y-126.841
X123.451Y-129.341
X123.451Y-131.841
X123.451Y-134.341
X131.833Y-126.841
X131.833Y-129.341
X131.833Y-131.841
X131.833Y-134.341
X139.199Y-129.291
X139.199Y-131.791
X139.199Y-134.291
T6
X125.892Y-66.633
X125.892Y-69.406
X125.892Y-72.178
X125.892Y-74.951
X125.892Y-100.115
X125.892Y-102.888
X125.892Y-105.66
X125.892Y-108.433
X128.732Y-65.247
X128.732Y-68.02
X128.732Y-70.792
X128.732Y-73.565
X128.732Y-76.337
X128.732Y-98.729
X128.732Y-101.502
X128.732Y-104.274
X128.732Y-107.047
X128.732Y-109.819
X164.443Y-81.763
X164.443Y-84.303
X164.443Y-86.843
X164.443Y-89.383
X164.443Y-91.923
X164.443Y-94.463
X164.443Y-97.003
X164.443Y-99.543
X164.443Y-102.083
X164.443Y-104.623
X164.443Y-107.163
X164.443Y-109.703
X164.443Y-112.243
X164.443Y-114.783
X164.443Y-117.323
X164.443Y-119.863
X166.983Y-81.763
X166.983Y-84.303
X166.983Y-86.843
X166.983Y-89.383
X166.983Y-91.923
X166.983Y-94.463
X166.983Y-97.003
X166.983Y-99.543
X166.983Y-102.083
X166.983Y-104.623
X166.983Y-107.163
X166.983Y-109.703
X166.983Y-112.243
X166.983Y-114.783
X166.983Y-117.323
X166.983Y-119.863
T7
X133.096Y-111.252
X134.296Y-106.172
T8
X162.306Y-126.746
X162.306Y-131.746
T9
X124.968Y-50.546
X166.624Y-137.922
T10
X127.312Y-58.297
X127.312Y-83.287
X127.312Y-91.779
X127.312Y-116.769
M30
