M48
; DRILL file {KiCad 7.0.10-7.0.10~ubuntu23.10.1} date Sun 11 Feb 2024 17:41:43 CET
; FORMAT={-:-/ absolute / inch / decimal}
; #@! TF.CreationDate,2024-02-11T17:41:43+01:00
; #@! TF.GenerationSoftware,Kicad,Pcbnew,7.0.10-7.0.10~ubuntu23.10.1
; #@! TF.FileFunction,Plated,1,4,PTH
FMAT,2
INCH
; #@! TA.AperFunction,Plated,PTH,ViaDrill
T1C0.0118
; #@! TA.AperFunction,Plated,PTH,ViaDrill
T2C0.0157
; #@! TA.AperFunction,Plated,PTH,ComponentDrill
T3C0.0256
; #@! TA.AperFunction,Plated,PTH,ComponentDrill
T4C0.0315
; #@! TA.AperFunction,Plated,PTH,ComponentDrill
T5C0.0374
; #@! TA.AperFunction,Plated,PTH,ComponentDrill
T6C0.0394
; #@! TA.AperFunction,Plated,PTH,ComponentDrill
T7C0.0398
; #@! TA.AperFunction,Plated,PTH,ComponentDrill
T8C0.0520
; #@! TA.AperFunction,Plated,PTH,ComponentDrill
T9C0.0866
; #@! TA.AperFunction,Plated,PTH,ComponentDrill
T10C0.1260
%
G90
G05
T1
X5.686Y-4.836
X5.686Y-4.874
X5.706Y-4.796
X5.708Y-4.91
X5.728Y-4.836
X5.728Y-4.874
X5.92Y-4.18
X5.92Y-4.23
X5.92Y-4.29
X5.92Y-4.35
X5.92Y-4.4
X5.97Y-4.18
X5.97Y-4.23
X5.97Y-4.29
X5.97Y-4.35
X5.97Y-4.4
T2
X4.79Y-4.81
X4.81Y-2.23
X4.81Y-2.43
X4.82Y-5.49
X4.83Y-4.45
X5.0137Y-5.49
X5.02Y-4.79
X5.02Y-4.83
X5.1503Y-2.449
X5.1517Y-3.345
X5.1683Y-3.2367
X5.1826Y-4.87
X5.19Y-4.66
X5.19Y-4.7
X5.2075Y-5.49
X5.2173Y-3.326
X5.22Y-3.54
X5.22Y-4.87
X5.248Y-3.85
X5.27Y-3.195
X5.2703Y-3.429
X5.276Y-4.93
X5.2803Y-2.249
X5.315Y-3.195
X5.3253Y-3.94
X5.33Y-3.7
X5.33Y-4.81
X5.3503Y-2.349
X5.3626Y-3.94
X5.37Y-2.62
X5.37Y-2.715
X5.37Y-2.8
X5.38Y-3.7
X5.4Y-3.94
X5.4013Y-5.49
X5.42Y-4.66
X5.42Y-4.7
X5.4303Y-2.519
X5.45Y-3.63
X5.452Y-3.942
X5.46Y-3.7
X5.46Y-4.22
X5.46Y-4.27
X5.46Y-4.32
X5.4703Y-2.999
X5.4703Y-3.079
X5.4803Y-2.249
X5.49Y-4.17
X5.494Y-3.94
X5.508Y-4.422
X5.51Y-3.7
X5.5103Y-2.859
X5.53Y-3.94
X5.53Y-4.17
X5.5316Y-3.3341
X5.5534Y-4.8818
X5.56Y-3.56
X5.56Y-3.63
X5.5715Y-4.9187
X5.5745Y-4.958
X5.576Y-4.8405
X5.595Y-2.77
X5.595Y-2.9
X5.595Y-5.49
X5.606Y-4.426
X5.606Y-4.464
X5.606Y-4.5014
X5.626Y-3.708
X5.629Y-3.631
X5.6375Y-4.706
X5.638Y-4.592
X5.64Y-4.98
X5.675Y-2.76
X5.6779Y-4.716
X5.68Y-3.55
X5.685Y-3.319
X5.688Y-2.5314
X5.7124Y-2.76
X5.73Y-3.21
X5.7403Y-2.379
X5.7503Y-2.159
X5.7503Y-2.209
X5.7503Y-2.249
X5.7503Y-2.299
X5.7503Y-2.669
X5.7676Y-4.6348
X5.772Y-4.7414
X5.775Y-3.39
X5.78Y-3.55
X5.7839Y-4.6684
X5.7888Y-5.49
X5.799Y-4.3996
X5.8Y-4.293
X5.809Y-2.439
X5.812Y-4.574
X5.816Y-5.236
X5.833Y-4.7671
X5.8365Y-3.0119
X5.8465Y-4.8063
X5.85Y-3.2
X5.8503Y-2.439
X5.8645Y-3.069
X5.8935Y-3.0405
X5.9142Y-3.132
X5.92Y-3.57
X5.934Y-4.536
X5.9417Y-4.9148
X5.943Y-3.161
X5.9581Y-3.932
X5.96Y-3.704
X5.9703Y-2.199
X5.9703Y-2.509
X5.9705Y-2.7092
X5.9714Y-4.536
X5.9715Y-3.19
X5.974Y-3.634
X5.98Y-3.46
X5.9803Y-2.159
X5.9803Y-2.359
X5.9803Y-2.459
X5.9803Y-2.609
X5.9803Y-2.659
X5.9825Y-5.49
X5.9931Y-2.8569
X5.9955Y-3.932
X6.0088Y-4.536
X6.0097Y-2.509
X6.0099Y-2.4101
X6.012Y-3.702
X6.0305Y-2.3092
X6.0329Y-3.932
X6.04Y-3.27
X6.0495Y-4.802
X6.05Y-2.774
X6.0503Y-2.2019
X6.058Y-3.636
X6.082Y-3.702
X6.0865Y-2.6613
X6.0873Y-2.7007
X6.0925Y-2.4071
X6.0925Y-2.4629
X6.0925Y-2.5187
X6.094Y-3.932
X6.098Y-5.338
X6.105Y-2.8
X6.1159Y-2.935
X6.1326Y-3.932
X6.1336Y-3.702
X6.14Y-2.7252
X6.1403Y-2.3507
X6.1433Y-2.5585
X6.1444Y-2.8
X6.17Y-3.932
X6.1762Y-5.49
X6.18Y-2.18
X6.19Y-5.28
X6.1961Y-2.3507
X6.1992Y-2.5585
X6.2519Y-2.3507
X6.255Y-2.5585
X6.256Y-4.1826
X6.256Y-4.22
X6.256Y-4.26
X6.256Y-4.2974
X6.256Y-4.344
X6.256Y-4.3814
X6.256Y-4.4188
X6.256Y-4.4562
X6.275Y-2.6513
X6.3003Y-2.409
X6.3003Y-2.4649
X6.3003Y-2.5207
X6.3039Y-4.61
X6.3065Y-2.919
X6.31Y-2.18
X6.3334Y-2.6512
X6.3387Y-4.6563
X6.37Y-5.49
X6.3702Y-4.6098
X6.3821Y-2.7528
X6.4106Y-2.6617
X6.43Y-2.18
X6.4677Y-2.703
X6.48Y-4.83
X6.4999Y-2.5594
X6.5303Y-2.159
X6.5303Y-2.209
X6.5303Y-2.509
X6.62Y-5.28
T3
X5.84Y-5.29
X5.84Y-5.34
X5.89Y-5.29
X5.89Y-5.34
X5.94Y-5.29
X5.94Y-5.34
X5.99Y-5.29
X5.99Y-5.34
X6.04Y-5.29
X6.04Y-5.34
T4
X5.71Y-5.2508
X5.71Y-5.3508
T5
X4.8603Y-4.9938
X4.8603Y-5.0922
X4.8603Y-5.1906
X4.8603Y-5.289
X5.1903Y-4.9938
X5.1903Y-5.0922
X5.1903Y-5.1906
X5.1903Y-5.289
X5.4803Y-5.0902
X5.4803Y-5.1886
X5.4803Y-5.2871
T6
X4.9564Y-2.6234
X4.9564Y-2.7325
X4.9564Y-2.8417
X4.9564Y-2.9508
X4.9564Y-3.9415
X4.9564Y-4.0507
X4.9564Y-4.1599
X4.9564Y-4.269
X5.0682Y-2.5688
X5.0682Y-2.678
X5.0682Y-2.7871
X5.0682Y-2.8963
X5.0682Y-3.0054
X5.0682Y-3.887
X5.0682Y-3.9962
X5.0682Y-4.1053
X5.0682Y-4.2145
X5.0682Y-4.3236
X6.4741Y-3.219
X6.4741Y-3.319
X6.4741Y-3.419
X6.4741Y-3.519
X6.4741Y-3.619
X6.4741Y-3.719
X6.4741Y-3.819
X6.4741Y-3.919
X6.4741Y-4.019
X6.4741Y-4.119
X6.4741Y-4.219
X6.4741Y-4.319
X6.4741Y-4.419
X6.4741Y-4.519
X6.4741Y-4.619
X6.4741Y-4.719
X6.5741Y-3.219
X6.5741Y-3.319
X6.5741Y-3.419
X6.5741Y-3.519
X6.5741Y-3.619
X6.5741Y-3.719
X6.5741Y-3.819
X6.5741Y-3.919
X6.5741Y-4.019
X6.5741Y-4.119
X6.5741Y-4.219
X6.5741Y-4.319
X6.5741Y-4.419
X6.5741Y-4.519
X6.5741Y-4.619
X6.5741Y-4.719
T7
X5.24Y-4.38
X5.2872Y-4.18
T8
X6.39Y-4.99
X6.39Y-5.1869
T9
X4.92Y-1.99
X6.56Y-5.43
T10
X5.0123Y-2.2952
X5.0123Y-3.279
X5.0123Y-3.6134
X5.0123Y-4.5972
M30
