%TF.GenerationSoftware,KiCad,Pcbnew,7.0.10-7.0.10~ubuntu23.10.1*%
%TF.CreationDate,2024-02-11T21:25:20+01:00*%
%TF.ProjectId,mainBoard,6d61696e-426f-4617-9264-2e6b69636164,rev?*%
%TF.SameCoordinates,Original*%
%TF.FileFunction,Drillmap*%
%TF.FilePolarity,Positive*%
%FSLAX45Y45*%
G04 Gerber Fmt 4.5, Leading zero omitted, Abs format (unit mm)*
G04 Created by KiCad (PCBNEW 7.0.10-7.0.10~ubuntu23.10.1) date 2024-02-11 21:25:20*
%MOMM*%
%LPD*%
G01*
G04 APERTURE LIST*
%ADD10C,0.100000*%
%ADD11C,0.200000*%
%ADD12C,0.120000*%
G04 APERTURE END LIST*
D10*
X14899720Y-5332535D02*
X16967200Y-5332535D01*
X14899720Y-4699000D02*
X14899720Y-5332535D01*
X16978720Y-14122400D02*
X11978720Y-14122400D01*
X11978720Y-4697535D02*
X14899720Y-4699000D01*
X16978720Y-5332535D02*
X16978720Y-14122400D01*
X11978720Y-14122400D02*
X11978720Y-4697535D01*
D11*
D12*
X12485120Y-13534135D02*
X12605120Y-13654135D01*
X12605120Y-13534135D02*
X12485120Y-13654135D01*
X13323320Y-13534135D02*
X13443320Y-13654135D01*
X13443320Y-13534135D02*
X13323320Y-13654135D01*
D11*
X12234497Y-14438884D02*
X12234497Y-14238884D01*
X12234497Y-14238884D02*
X12282116Y-14238884D01*
X12282116Y-14238884D02*
X12310687Y-14248408D01*
X12310687Y-14248408D02*
X12329735Y-14267455D01*
X12329735Y-14267455D02*
X12339259Y-14286503D01*
X12339259Y-14286503D02*
X12348782Y-14324598D01*
X12348782Y-14324598D02*
X12348782Y-14353169D01*
X12348782Y-14353169D02*
X12339259Y-14391265D01*
X12339259Y-14391265D02*
X12329735Y-14410312D01*
X12329735Y-14410312D02*
X12310687Y-14429360D01*
X12310687Y-14429360D02*
X12282116Y-14438884D01*
X12282116Y-14438884D02*
X12234497Y-14438884D01*
X12434497Y-14438884D02*
X12434497Y-14305550D01*
X12434497Y-14343646D02*
X12444021Y-14324598D01*
X12444021Y-14324598D02*
X12453544Y-14315074D01*
X12453544Y-14315074D02*
X12472592Y-14305550D01*
X12472592Y-14305550D02*
X12491640Y-14305550D01*
X12558306Y-14438884D02*
X12558306Y-14305550D01*
X12558306Y-14238884D02*
X12548782Y-14248408D01*
X12548782Y-14248408D02*
X12558306Y-14257931D01*
X12558306Y-14257931D02*
X12567830Y-14248408D01*
X12567830Y-14248408D02*
X12558306Y-14238884D01*
X12558306Y-14238884D02*
X12558306Y-14257931D01*
X12682116Y-14438884D02*
X12663068Y-14429360D01*
X12663068Y-14429360D02*
X12653544Y-14410312D01*
X12653544Y-14410312D02*
X12653544Y-14238884D01*
X12786878Y-14438884D02*
X12767830Y-14429360D01*
X12767830Y-14429360D02*
X12758306Y-14410312D01*
X12758306Y-14410312D02*
X12758306Y-14238884D01*
X13015449Y-14438884D02*
X13015449Y-14238884D01*
X13015449Y-14238884D02*
X13082116Y-14381741D01*
X13082116Y-14381741D02*
X13148782Y-14238884D01*
X13148782Y-14238884D02*
X13148782Y-14438884D01*
X13329735Y-14438884D02*
X13329735Y-14334122D01*
X13329735Y-14334122D02*
X13320211Y-14315074D01*
X13320211Y-14315074D02*
X13301163Y-14305550D01*
X13301163Y-14305550D02*
X13263068Y-14305550D01*
X13263068Y-14305550D02*
X13244021Y-14315074D01*
X13329735Y-14429360D02*
X13310687Y-14438884D01*
X13310687Y-14438884D02*
X13263068Y-14438884D01*
X13263068Y-14438884D02*
X13244021Y-14429360D01*
X13244021Y-14429360D02*
X13234497Y-14410312D01*
X13234497Y-14410312D02*
X13234497Y-14391265D01*
X13234497Y-14391265D02*
X13244021Y-14372217D01*
X13244021Y-14372217D02*
X13263068Y-14362693D01*
X13263068Y-14362693D02*
X13310687Y-14362693D01*
X13310687Y-14362693D02*
X13329735Y-14353169D01*
X13424973Y-14305550D02*
X13424973Y-14505550D01*
X13424973Y-14315074D02*
X13444021Y-14305550D01*
X13444021Y-14305550D02*
X13482116Y-14305550D01*
X13482116Y-14305550D02*
X13501163Y-14315074D01*
X13501163Y-14315074D02*
X13510687Y-14324598D01*
X13510687Y-14324598D02*
X13520211Y-14343646D01*
X13520211Y-14343646D02*
X13520211Y-14400788D01*
X13520211Y-14400788D02*
X13510687Y-14419836D01*
X13510687Y-14419836D02*
X13501163Y-14429360D01*
X13501163Y-14429360D02*
X13482116Y-14438884D01*
X13482116Y-14438884D02*
X13444021Y-14438884D01*
X13444021Y-14438884D02*
X13424973Y-14429360D01*
X13605925Y-14419836D02*
X13615449Y-14429360D01*
X13615449Y-14429360D02*
X13605925Y-14438884D01*
X13605925Y-14438884D02*
X13596402Y-14429360D01*
X13596402Y-14429360D02*
X13605925Y-14419836D01*
X13605925Y-14419836D02*
X13605925Y-14438884D01*
X13605925Y-14315074D02*
X13615449Y-14324598D01*
X13615449Y-14324598D02*
X13605925Y-14334122D01*
X13605925Y-14334122D02*
X13596402Y-14324598D01*
X13596402Y-14324598D02*
X13605925Y-14315074D01*
X13605925Y-14315074D02*
X13605925Y-14334122D01*
D12*
X11853720Y-14707400D02*
X11973720Y-14827400D01*
X11973720Y-14707400D02*
X11853720Y-14827400D01*
D11*
X12339259Y-14858884D02*
X12224973Y-14858884D01*
X12282116Y-14858884D02*
X12282116Y-14658884D01*
X12282116Y-14658884D02*
X12263068Y-14687455D01*
X12263068Y-14687455D02*
X12244021Y-14706503D01*
X12244021Y-14706503D02*
X12224973Y-14716027D01*
X12424973Y-14839836D02*
X12434497Y-14849360D01*
X12434497Y-14849360D02*
X12424973Y-14858884D01*
X12424973Y-14858884D02*
X12415449Y-14849360D01*
X12415449Y-14849360D02*
X12424973Y-14839836D01*
X12424973Y-14839836D02*
X12424973Y-14858884D01*
X12510687Y-14677931D02*
X12520211Y-14668408D01*
X12520211Y-14668408D02*
X12539259Y-14658884D01*
X12539259Y-14658884D02*
X12586878Y-14658884D01*
X12586878Y-14658884D02*
X12605925Y-14668408D01*
X12605925Y-14668408D02*
X12615449Y-14677931D01*
X12615449Y-14677931D02*
X12624973Y-14696979D01*
X12624973Y-14696979D02*
X12624973Y-14716027D01*
X12624973Y-14716027D02*
X12615449Y-14744598D01*
X12615449Y-14744598D02*
X12501163Y-14858884D01*
X12501163Y-14858884D02*
X12624973Y-14858884D01*
X12748782Y-14658884D02*
X12767830Y-14658884D01*
X12767830Y-14658884D02*
X12786878Y-14668408D01*
X12786878Y-14668408D02*
X12796402Y-14677931D01*
X12796402Y-14677931D02*
X12805925Y-14696979D01*
X12805925Y-14696979D02*
X12815449Y-14735074D01*
X12815449Y-14735074D02*
X12815449Y-14782693D01*
X12815449Y-14782693D02*
X12805925Y-14820788D01*
X12805925Y-14820788D02*
X12796402Y-14839836D01*
X12796402Y-14839836D02*
X12786878Y-14849360D01*
X12786878Y-14849360D02*
X12767830Y-14858884D01*
X12767830Y-14858884D02*
X12748782Y-14858884D01*
X12748782Y-14858884D02*
X12729735Y-14849360D01*
X12729735Y-14849360D02*
X12720211Y-14839836D01*
X12720211Y-14839836D02*
X12710687Y-14820788D01*
X12710687Y-14820788D02*
X12701163Y-14782693D01*
X12701163Y-14782693D02*
X12701163Y-14735074D01*
X12701163Y-14735074D02*
X12710687Y-14696979D01*
X12710687Y-14696979D02*
X12720211Y-14677931D01*
X12720211Y-14677931D02*
X12729735Y-14668408D01*
X12729735Y-14668408D02*
X12748782Y-14658884D01*
X12939259Y-14658884D02*
X12958306Y-14658884D01*
X12958306Y-14658884D02*
X12977354Y-14668408D01*
X12977354Y-14668408D02*
X12986878Y-14677931D01*
X12986878Y-14677931D02*
X12996402Y-14696979D01*
X12996402Y-14696979D02*
X13005925Y-14735074D01*
X13005925Y-14735074D02*
X13005925Y-14782693D01*
X13005925Y-14782693D02*
X12996402Y-14820788D01*
X12996402Y-14820788D02*
X12986878Y-14839836D01*
X12986878Y-14839836D02*
X12977354Y-14849360D01*
X12977354Y-14849360D02*
X12958306Y-14858884D01*
X12958306Y-14858884D02*
X12939259Y-14858884D01*
X12939259Y-14858884D02*
X12920211Y-14849360D01*
X12920211Y-14849360D02*
X12910687Y-14839836D01*
X12910687Y-14839836D02*
X12901163Y-14820788D01*
X12901163Y-14820788D02*
X12891640Y-14782693D01*
X12891640Y-14782693D02*
X12891640Y-14735074D01*
X12891640Y-14735074D02*
X12901163Y-14696979D01*
X12901163Y-14696979D02*
X12910687Y-14677931D01*
X12910687Y-14677931D02*
X12920211Y-14668408D01*
X12920211Y-14668408D02*
X12939259Y-14658884D01*
X13091640Y-14858884D02*
X13091640Y-14725550D01*
X13091640Y-14744598D02*
X13101163Y-14735074D01*
X13101163Y-14735074D02*
X13120211Y-14725550D01*
X13120211Y-14725550D02*
X13148783Y-14725550D01*
X13148783Y-14725550D02*
X13167830Y-14735074D01*
X13167830Y-14735074D02*
X13177354Y-14754122D01*
X13177354Y-14754122D02*
X13177354Y-14858884D01*
X13177354Y-14754122D02*
X13186878Y-14735074D01*
X13186878Y-14735074D02*
X13205925Y-14725550D01*
X13205925Y-14725550D02*
X13234497Y-14725550D01*
X13234497Y-14725550D02*
X13253544Y-14735074D01*
X13253544Y-14735074D02*
X13263068Y-14754122D01*
X13263068Y-14754122D02*
X13263068Y-14858884D01*
X13358306Y-14858884D02*
X13358306Y-14725550D01*
X13358306Y-14744598D02*
X13367830Y-14735074D01*
X13367830Y-14735074D02*
X13386878Y-14725550D01*
X13386878Y-14725550D02*
X13415449Y-14725550D01*
X13415449Y-14725550D02*
X13434497Y-14735074D01*
X13434497Y-14735074D02*
X13444021Y-14754122D01*
X13444021Y-14754122D02*
X13444021Y-14858884D01*
X13444021Y-14754122D02*
X13453544Y-14735074D01*
X13453544Y-14735074D02*
X13472592Y-14725550D01*
X13472592Y-14725550D02*
X13501163Y-14725550D01*
X13501163Y-14725550D02*
X13520211Y-14735074D01*
X13520211Y-14735074D02*
X13529735Y-14754122D01*
X13529735Y-14754122D02*
X13529735Y-14858884D01*
X13920211Y-14649360D02*
X13748783Y-14906503D01*
X14177354Y-14658884D02*
X14196402Y-14658884D01*
X14196402Y-14658884D02*
X14215449Y-14668408D01*
X14215449Y-14668408D02*
X14224973Y-14677931D01*
X14224973Y-14677931D02*
X14234497Y-14696979D01*
X14234497Y-14696979D02*
X14244021Y-14735074D01*
X14244021Y-14735074D02*
X14244021Y-14782693D01*
X14244021Y-14782693D02*
X14234497Y-14820788D01*
X14234497Y-14820788D02*
X14224973Y-14839836D01*
X14224973Y-14839836D02*
X14215449Y-14849360D01*
X14215449Y-14849360D02*
X14196402Y-14858884D01*
X14196402Y-14858884D02*
X14177354Y-14858884D01*
X14177354Y-14858884D02*
X14158306Y-14849360D01*
X14158306Y-14849360D02*
X14148783Y-14839836D01*
X14148783Y-14839836D02*
X14139259Y-14820788D01*
X14139259Y-14820788D02*
X14129735Y-14782693D01*
X14129735Y-14782693D02*
X14129735Y-14735074D01*
X14129735Y-14735074D02*
X14139259Y-14696979D01*
X14139259Y-14696979D02*
X14148783Y-14677931D01*
X14148783Y-14677931D02*
X14158306Y-14668408D01*
X14158306Y-14668408D02*
X14177354Y-14658884D01*
X14329735Y-14839836D02*
X14339259Y-14849360D01*
X14339259Y-14849360D02*
X14329735Y-14858884D01*
X14329735Y-14858884D02*
X14320211Y-14849360D01*
X14320211Y-14849360D02*
X14329735Y-14839836D01*
X14329735Y-14839836D02*
X14329735Y-14858884D01*
X14463068Y-14658884D02*
X14482116Y-14658884D01*
X14482116Y-14658884D02*
X14501164Y-14668408D01*
X14501164Y-14668408D02*
X14510687Y-14677931D01*
X14510687Y-14677931D02*
X14520211Y-14696979D01*
X14520211Y-14696979D02*
X14529735Y-14735074D01*
X14529735Y-14735074D02*
X14529735Y-14782693D01*
X14529735Y-14782693D02*
X14520211Y-14820788D01*
X14520211Y-14820788D02*
X14510687Y-14839836D01*
X14510687Y-14839836D02*
X14501164Y-14849360D01*
X14501164Y-14849360D02*
X14482116Y-14858884D01*
X14482116Y-14858884D02*
X14463068Y-14858884D01*
X14463068Y-14858884D02*
X14444021Y-14849360D01*
X14444021Y-14849360D02*
X14434497Y-14839836D01*
X14434497Y-14839836D02*
X14424973Y-14820788D01*
X14424973Y-14820788D02*
X14415449Y-14782693D01*
X14415449Y-14782693D02*
X14415449Y-14735074D01*
X14415449Y-14735074D02*
X14424973Y-14696979D01*
X14424973Y-14696979D02*
X14434497Y-14677931D01*
X14434497Y-14677931D02*
X14444021Y-14668408D01*
X14444021Y-14668408D02*
X14463068Y-14658884D01*
X14701164Y-14725550D02*
X14701164Y-14858884D01*
X14653545Y-14649360D02*
X14605926Y-14792217D01*
X14605926Y-14792217D02*
X14729735Y-14792217D01*
X14786878Y-14658884D02*
X14920211Y-14658884D01*
X14920211Y-14658884D02*
X14834497Y-14858884D01*
X14986878Y-14677931D02*
X14996402Y-14668408D01*
X14996402Y-14668408D02*
X15015449Y-14658884D01*
X15015449Y-14658884D02*
X15063068Y-14658884D01*
X15063068Y-14658884D02*
X15082116Y-14668408D01*
X15082116Y-14668408D02*
X15091640Y-14677931D01*
X15091640Y-14677931D02*
X15101164Y-14696979D01*
X15101164Y-14696979D02*
X15101164Y-14716027D01*
X15101164Y-14716027D02*
X15091640Y-14744598D01*
X15091640Y-14744598D02*
X14977354Y-14858884D01*
X14977354Y-14858884D02*
X15101164Y-14858884D01*
X15177354Y-14658884D02*
X15177354Y-14696979D01*
X15253545Y-14658884D02*
X15253545Y-14696979D01*
X15548783Y-14935074D02*
X15539259Y-14925550D01*
X15539259Y-14925550D02*
X15520211Y-14896979D01*
X15520211Y-14896979D02*
X15510688Y-14877931D01*
X15510688Y-14877931D02*
X15501164Y-14849360D01*
X15501164Y-14849360D02*
X15491640Y-14801741D01*
X15491640Y-14801741D02*
X15491640Y-14763646D01*
X15491640Y-14763646D02*
X15501164Y-14716027D01*
X15501164Y-14716027D02*
X15510688Y-14687455D01*
X15510688Y-14687455D02*
X15520211Y-14668408D01*
X15520211Y-14668408D02*
X15539259Y-14639836D01*
X15539259Y-14639836D02*
X15548783Y-14630312D01*
X15615449Y-14677931D02*
X15624973Y-14668408D01*
X15624973Y-14668408D02*
X15644021Y-14658884D01*
X15644021Y-14658884D02*
X15691640Y-14658884D01*
X15691640Y-14658884D02*
X15710688Y-14668408D01*
X15710688Y-14668408D02*
X15720211Y-14677931D01*
X15720211Y-14677931D02*
X15729735Y-14696979D01*
X15729735Y-14696979D02*
X15729735Y-14716027D01*
X15729735Y-14716027D02*
X15720211Y-14744598D01*
X15720211Y-14744598D02*
X15605926Y-14858884D01*
X15605926Y-14858884D02*
X15729735Y-14858884D01*
X15967830Y-14858884D02*
X15967830Y-14658884D01*
X16053545Y-14858884D02*
X16053545Y-14754122D01*
X16053545Y-14754122D02*
X16044021Y-14735074D01*
X16044021Y-14735074D02*
X16024973Y-14725550D01*
X16024973Y-14725550D02*
X15996402Y-14725550D01*
X15996402Y-14725550D02*
X15977354Y-14735074D01*
X15977354Y-14735074D02*
X15967830Y-14744598D01*
X16177354Y-14858884D02*
X16158307Y-14849360D01*
X16158307Y-14849360D02*
X16148783Y-14839836D01*
X16148783Y-14839836D02*
X16139259Y-14820788D01*
X16139259Y-14820788D02*
X16139259Y-14763646D01*
X16139259Y-14763646D02*
X16148783Y-14744598D01*
X16148783Y-14744598D02*
X16158307Y-14735074D01*
X16158307Y-14735074D02*
X16177354Y-14725550D01*
X16177354Y-14725550D02*
X16205926Y-14725550D01*
X16205926Y-14725550D02*
X16224973Y-14735074D01*
X16224973Y-14735074D02*
X16234497Y-14744598D01*
X16234497Y-14744598D02*
X16244021Y-14763646D01*
X16244021Y-14763646D02*
X16244021Y-14820788D01*
X16244021Y-14820788D02*
X16234497Y-14839836D01*
X16234497Y-14839836D02*
X16224973Y-14849360D01*
X16224973Y-14849360D02*
X16205926Y-14858884D01*
X16205926Y-14858884D02*
X16177354Y-14858884D01*
X16358307Y-14858884D02*
X16339259Y-14849360D01*
X16339259Y-14849360D02*
X16329735Y-14830312D01*
X16329735Y-14830312D02*
X16329735Y-14658884D01*
X16510688Y-14849360D02*
X16491640Y-14858884D01*
X16491640Y-14858884D02*
X16453545Y-14858884D01*
X16453545Y-14858884D02*
X16434497Y-14849360D01*
X16434497Y-14849360D02*
X16424973Y-14830312D01*
X16424973Y-14830312D02*
X16424973Y-14754122D01*
X16424973Y-14754122D02*
X16434497Y-14735074D01*
X16434497Y-14735074D02*
X16453545Y-14725550D01*
X16453545Y-14725550D02*
X16491640Y-14725550D01*
X16491640Y-14725550D02*
X16510688Y-14735074D01*
X16510688Y-14735074D02*
X16520211Y-14754122D01*
X16520211Y-14754122D02*
X16520211Y-14773169D01*
X16520211Y-14773169D02*
X16424973Y-14792217D01*
X16596402Y-14849360D02*
X16615450Y-14858884D01*
X16615450Y-14858884D02*
X16653545Y-14858884D01*
X16653545Y-14858884D02*
X16672592Y-14849360D01*
X16672592Y-14849360D02*
X16682116Y-14830312D01*
X16682116Y-14830312D02*
X16682116Y-14820788D01*
X16682116Y-14820788D02*
X16672592Y-14801741D01*
X16672592Y-14801741D02*
X16653545Y-14792217D01*
X16653545Y-14792217D02*
X16624973Y-14792217D01*
X16624973Y-14792217D02*
X16605926Y-14782693D01*
X16605926Y-14782693D02*
X16596402Y-14763646D01*
X16596402Y-14763646D02*
X16596402Y-14754122D01*
X16596402Y-14754122D02*
X16605926Y-14735074D01*
X16605926Y-14735074D02*
X16624973Y-14725550D01*
X16624973Y-14725550D02*
X16653545Y-14725550D01*
X16653545Y-14725550D02*
X16672592Y-14735074D01*
X16748783Y-14935074D02*
X16758307Y-14925550D01*
X16758307Y-14925550D02*
X16777354Y-14896979D01*
X16777354Y-14896979D02*
X16786878Y-14877931D01*
X16786878Y-14877931D02*
X16796402Y-14849360D01*
X16796402Y-14849360D02*
X16805926Y-14801741D01*
X16805926Y-14801741D02*
X16805926Y-14763646D01*
X16805926Y-14763646D02*
X16796402Y-14716027D01*
X16796402Y-14716027D02*
X16786878Y-14687455D01*
X16786878Y-14687455D02*
X16777354Y-14668408D01*
X16777354Y-14668408D02*
X16758307Y-14639836D01*
X16758307Y-14639836D02*
X16748783Y-14630312D01*
X17110688Y-14935074D02*
X17101164Y-14925550D01*
X17101164Y-14925550D02*
X17082116Y-14896979D01*
X17082116Y-14896979D02*
X17072593Y-14877931D01*
X17072593Y-14877931D02*
X17063069Y-14849360D01*
X17063069Y-14849360D02*
X17053545Y-14801741D01*
X17053545Y-14801741D02*
X17053545Y-14763646D01*
X17053545Y-14763646D02*
X17063069Y-14716027D01*
X17063069Y-14716027D02*
X17072593Y-14687455D01*
X17072593Y-14687455D02*
X17082116Y-14668408D01*
X17082116Y-14668408D02*
X17101164Y-14639836D01*
X17101164Y-14639836D02*
X17110688Y-14630312D01*
X17186878Y-14725550D02*
X17186878Y-14858884D01*
X17186878Y-14744598D02*
X17196402Y-14735074D01*
X17196402Y-14735074D02*
X17215450Y-14725550D01*
X17215450Y-14725550D02*
X17244021Y-14725550D01*
X17244021Y-14725550D02*
X17263069Y-14735074D01*
X17263069Y-14735074D02*
X17272593Y-14754122D01*
X17272593Y-14754122D02*
X17272593Y-14858884D01*
X17396402Y-14858884D02*
X17377354Y-14849360D01*
X17377354Y-14849360D02*
X17367831Y-14839836D01*
X17367831Y-14839836D02*
X17358307Y-14820788D01*
X17358307Y-14820788D02*
X17358307Y-14763646D01*
X17358307Y-14763646D02*
X17367831Y-14744598D01*
X17367831Y-14744598D02*
X17377354Y-14735074D01*
X17377354Y-14735074D02*
X17396402Y-14725550D01*
X17396402Y-14725550D02*
X17424974Y-14725550D01*
X17424974Y-14725550D02*
X17444021Y-14735074D01*
X17444021Y-14735074D02*
X17453545Y-14744598D01*
X17453545Y-14744598D02*
X17463069Y-14763646D01*
X17463069Y-14763646D02*
X17463069Y-14820788D01*
X17463069Y-14820788D02*
X17453545Y-14839836D01*
X17453545Y-14839836D02*
X17444021Y-14849360D01*
X17444021Y-14849360D02*
X17424974Y-14858884D01*
X17424974Y-14858884D02*
X17396402Y-14858884D01*
X17520212Y-14725550D02*
X17596402Y-14725550D01*
X17548783Y-14658884D02*
X17548783Y-14830312D01*
X17548783Y-14830312D02*
X17558307Y-14849360D01*
X17558307Y-14849360D02*
X17577354Y-14858884D01*
X17577354Y-14858884D02*
X17596402Y-14858884D01*
X17815450Y-14725550D02*
X17815450Y-14925550D01*
X17815450Y-14735074D02*
X17834497Y-14725550D01*
X17834497Y-14725550D02*
X17872593Y-14725550D01*
X17872593Y-14725550D02*
X17891640Y-14735074D01*
X17891640Y-14735074D02*
X17901164Y-14744598D01*
X17901164Y-14744598D02*
X17910688Y-14763646D01*
X17910688Y-14763646D02*
X17910688Y-14820788D01*
X17910688Y-14820788D02*
X17901164Y-14839836D01*
X17901164Y-14839836D02*
X17891640Y-14849360D01*
X17891640Y-14849360D02*
X17872593Y-14858884D01*
X17872593Y-14858884D02*
X17834497Y-14858884D01*
X17834497Y-14858884D02*
X17815450Y-14849360D01*
X18024974Y-14858884D02*
X18005926Y-14849360D01*
X18005926Y-14849360D02*
X17996402Y-14830312D01*
X17996402Y-14830312D02*
X17996402Y-14658884D01*
X18186878Y-14858884D02*
X18186878Y-14754122D01*
X18186878Y-14754122D02*
X18177355Y-14735074D01*
X18177355Y-14735074D02*
X18158307Y-14725550D01*
X18158307Y-14725550D02*
X18120212Y-14725550D01*
X18120212Y-14725550D02*
X18101164Y-14735074D01*
X18186878Y-14849360D02*
X18167831Y-14858884D01*
X18167831Y-14858884D02*
X18120212Y-14858884D01*
X18120212Y-14858884D02*
X18101164Y-14849360D01*
X18101164Y-14849360D02*
X18091640Y-14830312D01*
X18091640Y-14830312D02*
X18091640Y-14811265D01*
X18091640Y-14811265D02*
X18101164Y-14792217D01*
X18101164Y-14792217D02*
X18120212Y-14782693D01*
X18120212Y-14782693D02*
X18167831Y-14782693D01*
X18167831Y-14782693D02*
X18186878Y-14773169D01*
X18253545Y-14725550D02*
X18329735Y-14725550D01*
X18282116Y-14658884D02*
X18282116Y-14830312D01*
X18282116Y-14830312D02*
X18291640Y-14849360D01*
X18291640Y-14849360D02*
X18310688Y-14858884D01*
X18310688Y-14858884D02*
X18329735Y-14858884D01*
X18472593Y-14849360D02*
X18453545Y-14858884D01*
X18453545Y-14858884D02*
X18415450Y-14858884D01*
X18415450Y-14858884D02*
X18396402Y-14849360D01*
X18396402Y-14849360D02*
X18386878Y-14830312D01*
X18386878Y-14830312D02*
X18386878Y-14754122D01*
X18386878Y-14754122D02*
X18396402Y-14735074D01*
X18396402Y-14735074D02*
X18415450Y-14725550D01*
X18415450Y-14725550D02*
X18453545Y-14725550D01*
X18453545Y-14725550D02*
X18472593Y-14735074D01*
X18472593Y-14735074D02*
X18482116Y-14754122D01*
X18482116Y-14754122D02*
X18482116Y-14773169D01*
X18482116Y-14773169D02*
X18386878Y-14792217D01*
X18653545Y-14858884D02*
X18653545Y-14658884D01*
X18653545Y-14849360D02*
X18634497Y-14858884D01*
X18634497Y-14858884D02*
X18596402Y-14858884D01*
X18596402Y-14858884D02*
X18577355Y-14849360D01*
X18577355Y-14849360D02*
X18567831Y-14839836D01*
X18567831Y-14839836D02*
X18558307Y-14820788D01*
X18558307Y-14820788D02*
X18558307Y-14763646D01*
X18558307Y-14763646D02*
X18567831Y-14744598D01*
X18567831Y-14744598D02*
X18577355Y-14735074D01*
X18577355Y-14735074D02*
X18596402Y-14725550D01*
X18596402Y-14725550D02*
X18634497Y-14725550D01*
X18634497Y-14725550D02*
X18653545Y-14735074D01*
X18729736Y-14935074D02*
X18739259Y-14925550D01*
X18739259Y-14925550D02*
X18758307Y-14896979D01*
X18758307Y-14896979D02*
X18767831Y-14877931D01*
X18767831Y-14877931D02*
X18777355Y-14849360D01*
X18777355Y-14849360D02*
X18786878Y-14801741D01*
X18786878Y-14801741D02*
X18786878Y-14763646D01*
X18786878Y-14763646D02*
X18777355Y-14716027D01*
X18777355Y-14716027D02*
X18767831Y-14687455D01*
X18767831Y-14687455D02*
X18758307Y-14668408D01*
X18758307Y-14668408D02*
X18739259Y-14639836D01*
X18739259Y-14639836D02*
X18729736Y-14630312D01*
M02*
