%TF.GenerationSoftware,KiCad,Pcbnew,7.0.10-7.0.10~ubuntu23.10.1*%
%TF.CreationDate,2024-02-11T17:41:28+01:00*%
%TF.ProjectId,mainBoard,6d61696e-426f-4617-9264-2e6b69636164,rev?*%
%TF.SameCoordinates,Original*%
%TF.FileFunction,Paste,Top*%
%TF.FilePolarity,Positive*%
%FSLAX46Y46*%
G04 Gerber Fmt 4.6, Leading zero omitted, Abs format (unit mm)*
G04 Created by KiCad (PCBNEW 7.0.10-7.0.10~ubuntu23.10.1) date 2024-02-11 17:41:28*
%MOMM*%
%LPD*%
G01*
G04 APERTURE LIST*
G04 Aperture macros list*
%AMRoundRect*
0 Rectangle with rounded corners*
0 $1 Rounding radius*
0 $2 $3 $4 $5 $6 $7 $8 $9 X,Y pos of 4 corners*
0 Add a 4 corners polygon primitive as box body*
4,1,4,$2,$3,$4,$5,$6,$7,$8,$9,$2,$3,0*
0 Add four circle primitives for the rounded corners*
1,1,$1+$1,$2,$3*
1,1,$1+$1,$4,$5*
1,1,$1+$1,$6,$7*
1,1,$1+$1,$8,$9*
0 Add four rect primitives between the rounded corners*
20,1,$1+$1,$2,$3,$4,$5,0*
20,1,$1+$1,$4,$5,$6,$7,0*
20,1,$1+$1,$6,$7,$8,$9,0*
20,1,$1+$1,$8,$9,$2,$3,0*%
G04 Aperture macros list end*
%ADD10R,0.910001X0.509999*%
%ADD11RoundRect,0.250000X0.475000X-0.337500X0.475000X0.337500X-0.475000X0.337500X-0.475000X-0.337500X0*%
%ADD12RoundRect,0.250000X-1.100000X0.412500X-1.100000X-0.412500X1.100000X-0.412500X1.100000X0.412500X0*%
%ADD13R,8.200000X2.600000*%
%ADD14RoundRect,0.250000X0.412500X0.650000X-0.412500X0.650000X-0.412500X-0.650000X0.412500X-0.650000X0*%
%ADD15RoundRect,0.250000X0.412500X1.100000X-0.412500X1.100000X-0.412500X-1.100000X0.412500X-1.100000X0*%
%ADD16RoundRect,0.250000X-0.350000X-0.450000X0.350000X-0.450000X0.350000X0.450000X-0.350000X0.450000X0*%
%ADD17RoundRect,0.250000X0.350000X0.450000X-0.350000X0.450000X-0.350000X-0.450000X0.350000X-0.450000X0*%
%ADD18RoundRect,0.250000X-0.650000X0.412500X-0.650000X-0.412500X0.650000X-0.412500X0.650000X0.412500X0*%
%ADD19R,0.900000X1.700000*%
%ADD20RoundRect,0.250000X-0.412500X-0.650000X0.412500X-0.650000X0.412500X0.650000X-0.412500X0.650000X0*%
%ADD21RoundRect,0.250000X-0.337500X-0.475000X0.337500X-0.475000X0.337500X0.475000X-0.337500X0.475000X0*%
%ADD22R,0.254000X0.812800*%
%ADD23R,0.812800X0.254000*%
%ADD24R,2.209800X4.191000*%
%ADD25RoundRect,0.250000X-0.450000X0.350000X-0.450000X-0.350000X0.450000X-0.350000X0.450000X0.350000X0*%
%ADD26RoundRect,0.250000X0.450000X-0.350000X0.450000X0.350000X-0.450000X0.350000X-0.450000X-0.350000X0*%
%ADD27R,0.977900X0.558800*%
%ADD28R,1.473200X0.889000*%
%ADD29R,1.473200X3.149600*%
%ADD30R,1.500000X0.900000*%
%ADD31R,0.900000X1.500000*%
%ADD32R,0.900000X0.900000*%
%ADD33R,1.500000X0.650000*%
%ADD34RoundRect,0.250000X-1.775000X0.350000X-1.775000X-0.350000X1.775000X-0.350000X1.775000X0.350000X0*%
%ADD35RoundRect,0.250000X0.312500X1.450000X-0.312500X1.450000X-0.312500X-1.450000X0.312500X-1.450000X0*%
G04 APERTURE END LIST*
%TO.C,Q2*%
G36*
X143193953Y-106957162D02*
G01*
X143203333Y-106960007D01*
X143211977Y-106964630D01*
X143219554Y-106970848D01*
X143225771Y-106978425D01*
X143230392Y-106987068D01*
X143233237Y-106996449D01*
X143234197Y-107006202D01*
X143234197Y-108156202D01*
X143233237Y-108165956D01*
X143230392Y-108175336D01*
X143225771Y-108183980D01*
X143219554Y-108191557D01*
X143211977Y-108197775D01*
X143203333Y-108202397D01*
X143193953Y-108205242D01*
X143184197Y-108206202D01*
X141704200Y-108206202D01*
X141694444Y-108205242D01*
X141685063Y-108202397D01*
X141676420Y-108197775D01*
X141668843Y-108191557D01*
X141662625Y-108183980D01*
X141658005Y-108175336D01*
X141655160Y-108165956D01*
X141654197Y-108156202D01*
X141654197Y-107006202D01*
X141655160Y-106996449D01*
X141658005Y-106987068D01*
X141662625Y-106978425D01*
X141668843Y-106970848D01*
X141676420Y-106964630D01*
X141685063Y-106960007D01*
X141694444Y-106957162D01*
X141704200Y-106956202D01*
X143184197Y-106956202D01*
X143193953Y-106957162D01*
G37*
G36*
X143193953Y-108407162D02*
G01*
X143203333Y-108410007D01*
X143211977Y-108414630D01*
X143219554Y-108420848D01*
X143225771Y-108428424D01*
X143230392Y-108437068D01*
X143233237Y-108446448D01*
X143234197Y-108456202D01*
X143234197Y-109606202D01*
X143233237Y-109615956D01*
X143230392Y-109625336D01*
X143225771Y-109633980D01*
X143219554Y-109641556D01*
X143211977Y-109647774D01*
X143203333Y-109652397D01*
X143193953Y-109655242D01*
X143184197Y-109656202D01*
X141704200Y-109656202D01*
X141694444Y-109655242D01*
X141685063Y-109652397D01*
X141676420Y-109647774D01*
X141668843Y-109641556D01*
X141662625Y-109633980D01*
X141658005Y-109625336D01*
X141655160Y-109615956D01*
X141654197Y-109606202D01*
X141654197Y-108456202D01*
X141655160Y-108446448D01*
X141658005Y-108437068D01*
X141662625Y-108428424D01*
X141668843Y-108420848D01*
X141676420Y-108414630D01*
X141685063Y-108410007D01*
X141694444Y-108407162D01*
X141704200Y-108406202D01*
X143184197Y-108406202D01*
X143193953Y-108407162D01*
G37*
G36*
X143193953Y-109857162D02*
G01*
X143203333Y-109860007D01*
X143211977Y-109864629D01*
X143219554Y-109870847D01*
X143225771Y-109878424D01*
X143230392Y-109887068D01*
X143233237Y-109896448D01*
X143234197Y-109906202D01*
X143234197Y-111056202D01*
X143233237Y-111065955D01*
X143230392Y-111075336D01*
X143225771Y-111083979D01*
X143219554Y-111091556D01*
X143211977Y-111097774D01*
X143203333Y-111102397D01*
X143193953Y-111105242D01*
X143184197Y-111106202D01*
X141704200Y-111106202D01*
X141694444Y-111105242D01*
X141685063Y-111102397D01*
X141676420Y-111097774D01*
X141668843Y-111091556D01*
X141662625Y-111083979D01*
X141658005Y-111075336D01*
X141655160Y-111065955D01*
X141654197Y-111056202D01*
X141654197Y-109906202D01*
X141655160Y-109896448D01*
X141658005Y-109887068D01*
X141662625Y-109878424D01*
X141668843Y-109870847D01*
X141676420Y-109864629D01*
X141685063Y-109860007D01*
X141694444Y-109857162D01*
X141704200Y-109856202D01*
X143184197Y-109856202D01*
X143193953Y-109857162D01*
G37*
G36*
X144973954Y-106957162D02*
G01*
X144983335Y-106960007D01*
X144991978Y-106964630D01*
X144999555Y-106970848D01*
X145005773Y-106978425D01*
X145010393Y-106987068D01*
X145013238Y-106996449D01*
X145014201Y-107006202D01*
X145014201Y-108156202D01*
X145013238Y-108165956D01*
X145010393Y-108175336D01*
X145005773Y-108183980D01*
X144999555Y-108191557D01*
X144991978Y-108197775D01*
X144983335Y-108202397D01*
X144973954Y-108205242D01*
X144964198Y-108206202D01*
X143484201Y-108206202D01*
X143474445Y-108205242D01*
X143465065Y-108202397D01*
X143456421Y-108197775D01*
X143448844Y-108191557D01*
X143442626Y-108183980D01*
X143438006Y-108175336D01*
X143435161Y-108165956D01*
X143434201Y-108156202D01*
X143434201Y-107006202D01*
X143435161Y-106996449D01*
X143438006Y-106987068D01*
X143442626Y-106978425D01*
X143448844Y-106970848D01*
X143456421Y-106964630D01*
X143465065Y-106960007D01*
X143474445Y-106957162D01*
X143484201Y-106956202D01*
X144964198Y-106956202D01*
X144973954Y-106957162D01*
G37*
G36*
X144973954Y-108407162D02*
G01*
X144983335Y-108410007D01*
X144991978Y-108414630D01*
X144999555Y-108420848D01*
X145005773Y-108428424D01*
X145010393Y-108437068D01*
X145013238Y-108446448D01*
X145014201Y-108456202D01*
X145014201Y-109606202D01*
X145013238Y-109615956D01*
X145010393Y-109625336D01*
X145005773Y-109633980D01*
X144999555Y-109641556D01*
X144991978Y-109647774D01*
X144983335Y-109652397D01*
X144973954Y-109655242D01*
X144964198Y-109656202D01*
X143484201Y-109656202D01*
X143474445Y-109655242D01*
X143465065Y-109652397D01*
X143456421Y-109647774D01*
X143448844Y-109641556D01*
X143442626Y-109633980D01*
X143438006Y-109625336D01*
X143435161Y-109615956D01*
X143434201Y-109606202D01*
X143434201Y-108456202D01*
X143435161Y-108446448D01*
X143438006Y-108437068D01*
X143442626Y-108428424D01*
X143448844Y-108420848D01*
X143456421Y-108414630D01*
X143465065Y-108410007D01*
X143474445Y-108407162D01*
X143484201Y-108406202D01*
X144964198Y-108406202D01*
X144973954Y-108407162D01*
G37*
G36*
X144973954Y-109857162D02*
G01*
X144983335Y-109860007D01*
X144991978Y-109864629D01*
X144999555Y-109870847D01*
X145005773Y-109878424D01*
X145010393Y-109887068D01*
X145013238Y-109896448D01*
X145014201Y-109906202D01*
X145014201Y-111056202D01*
X145013238Y-111065955D01*
X145010393Y-111075336D01*
X145005773Y-111083979D01*
X144999555Y-111091556D01*
X144991978Y-111097774D01*
X144983335Y-111102397D01*
X144973954Y-111105242D01*
X144964198Y-111106202D01*
X143484201Y-111106202D01*
X143474445Y-111105242D01*
X143465065Y-111102397D01*
X143456421Y-111097774D01*
X143448844Y-111091556D01*
X143442626Y-111083979D01*
X143438006Y-111075336D01*
X143435161Y-111065955D01*
X143434201Y-111056202D01*
X143434201Y-109906202D01*
X143435161Y-109896448D01*
X143438006Y-109887068D01*
X143442626Y-109878424D01*
X143448844Y-109870847D01*
X143456421Y-109864629D01*
X143465065Y-109860007D01*
X143474445Y-109857162D01*
X143484201Y-109856202D01*
X144964198Y-109856202D01*
X144973954Y-109857162D01*
G37*
%TO.C,Q1*%
G36*
X150458353Y-106968160D02*
G01*
X150467733Y-106971005D01*
X150476377Y-106975628D01*
X150483954Y-106981846D01*
X150490171Y-106989423D01*
X150494792Y-106998066D01*
X150497637Y-107007447D01*
X150498597Y-107017200D01*
X150498597Y-108167200D01*
X150497637Y-108176954D01*
X150494792Y-108186334D01*
X150490171Y-108194978D01*
X150483954Y-108202555D01*
X150476377Y-108208773D01*
X150467733Y-108213395D01*
X150458353Y-108216240D01*
X150448597Y-108217200D01*
X148968600Y-108217200D01*
X148958844Y-108216240D01*
X148949463Y-108213395D01*
X148940820Y-108208773D01*
X148933243Y-108202555D01*
X148927025Y-108194978D01*
X148922405Y-108186334D01*
X148919560Y-108176954D01*
X148918597Y-108167200D01*
X148918597Y-107017200D01*
X148919560Y-107007447D01*
X148922405Y-106998066D01*
X148927025Y-106989423D01*
X148933243Y-106981846D01*
X148940820Y-106975628D01*
X148949463Y-106971005D01*
X148958844Y-106968160D01*
X148968600Y-106967200D01*
X150448597Y-106967200D01*
X150458353Y-106968160D01*
G37*
G36*
X150458353Y-108418160D02*
G01*
X150467733Y-108421005D01*
X150476377Y-108425628D01*
X150483954Y-108431846D01*
X150490171Y-108439422D01*
X150494792Y-108448066D01*
X150497637Y-108457446D01*
X150498597Y-108467200D01*
X150498597Y-109617200D01*
X150497637Y-109626954D01*
X150494792Y-109636334D01*
X150490171Y-109644978D01*
X150483954Y-109652554D01*
X150476377Y-109658772D01*
X150467733Y-109663395D01*
X150458353Y-109666240D01*
X150448597Y-109667200D01*
X148968600Y-109667200D01*
X148958844Y-109666240D01*
X148949463Y-109663395D01*
X148940820Y-109658772D01*
X148933243Y-109652554D01*
X148927025Y-109644978D01*
X148922405Y-109636334D01*
X148919560Y-109626954D01*
X148918597Y-109617200D01*
X148918597Y-108467200D01*
X148919560Y-108457446D01*
X148922405Y-108448066D01*
X148927025Y-108439422D01*
X148933243Y-108431846D01*
X148940820Y-108425628D01*
X148949463Y-108421005D01*
X148958844Y-108418160D01*
X148968600Y-108417200D01*
X150448597Y-108417200D01*
X150458353Y-108418160D01*
G37*
G36*
X150458353Y-109868160D02*
G01*
X150467733Y-109871005D01*
X150476377Y-109875627D01*
X150483954Y-109881845D01*
X150490171Y-109889422D01*
X150494792Y-109898066D01*
X150497637Y-109907446D01*
X150498597Y-109917200D01*
X150498597Y-111067200D01*
X150497637Y-111076953D01*
X150494792Y-111086334D01*
X150490171Y-111094977D01*
X150483954Y-111102554D01*
X150476377Y-111108772D01*
X150467733Y-111113395D01*
X150458353Y-111116240D01*
X150448597Y-111117200D01*
X148968600Y-111117200D01*
X148958844Y-111116240D01*
X148949463Y-111113395D01*
X148940820Y-111108772D01*
X148933243Y-111102554D01*
X148927025Y-111094977D01*
X148922405Y-111086334D01*
X148919560Y-111076953D01*
X148918597Y-111067200D01*
X148918597Y-109917200D01*
X148919560Y-109907446D01*
X148922405Y-109898066D01*
X148927025Y-109889422D01*
X148933243Y-109881845D01*
X148940820Y-109875627D01*
X148949463Y-109871005D01*
X148958844Y-109868160D01*
X148968600Y-109867200D01*
X150448597Y-109867200D01*
X150458353Y-109868160D01*
G37*
G36*
X152238354Y-106968160D02*
G01*
X152247735Y-106971005D01*
X152256378Y-106975628D01*
X152263955Y-106981846D01*
X152270173Y-106989423D01*
X152274793Y-106998066D01*
X152277638Y-107007447D01*
X152278601Y-107017200D01*
X152278601Y-108167200D01*
X152277638Y-108176954D01*
X152274793Y-108186334D01*
X152270173Y-108194978D01*
X152263955Y-108202555D01*
X152256378Y-108208773D01*
X152247735Y-108213395D01*
X152238354Y-108216240D01*
X152228598Y-108217200D01*
X150748601Y-108217200D01*
X150738845Y-108216240D01*
X150729465Y-108213395D01*
X150720821Y-108208773D01*
X150713244Y-108202555D01*
X150707026Y-108194978D01*
X150702406Y-108186334D01*
X150699561Y-108176954D01*
X150698601Y-108167200D01*
X150698601Y-107017200D01*
X150699561Y-107007447D01*
X150702406Y-106998066D01*
X150707026Y-106989423D01*
X150713244Y-106981846D01*
X150720821Y-106975628D01*
X150729465Y-106971005D01*
X150738845Y-106968160D01*
X150748601Y-106967200D01*
X152228598Y-106967200D01*
X152238354Y-106968160D01*
G37*
G36*
X152238354Y-108418160D02*
G01*
X152247735Y-108421005D01*
X152256378Y-108425628D01*
X152263955Y-108431846D01*
X152270173Y-108439422D01*
X152274793Y-108448066D01*
X152277638Y-108457446D01*
X152278601Y-108467200D01*
X152278601Y-109617200D01*
X152277638Y-109626954D01*
X152274793Y-109636334D01*
X152270173Y-109644978D01*
X152263955Y-109652554D01*
X152256378Y-109658772D01*
X152247735Y-109663395D01*
X152238354Y-109666240D01*
X152228598Y-109667200D01*
X150748601Y-109667200D01*
X150738845Y-109666240D01*
X150729465Y-109663395D01*
X150720821Y-109658772D01*
X150713244Y-109652554D01*
X150707026Y-109644978D01*
X150702406Y-109636334D01*
X150699561Y-109626954D01*
X150698601Y-109617200D01*
X150698601Y-108467200D01*
X150699561Y-108457446D01*
X150702406Y-108448066D01*
X150707026Y-108439422D01*
X150713244Y-108431846D01*
X150720821Y-108425628D01*
X150729465Y-108421005D01*
X150738845Y-108418160D01*
X150748601Y-108417200D01*
X152228598Y-108417200D01*
X152238354Y-108418160D01*
G37*
G36*
X152238354Y-109868160D02*
G01*
X152247735Y-109871005D01*
X152256378Y-109875627D01*
X152263955Y-109881845D01*
X152270173Y-109889422D01*
X152274793Y-109898066D01*
X152277638Y-109907446D01*
X152278601Y-109917200D01*
X152278601Y-111067200D01*
X152277638Y-111076953D01*
X152274793Y-111086334D01*
X152270173Y-111094977D01*
X152263955Y-111102554D01*
X152256378Y-111108772D01*
X152247735Y-111113395D01*
X152238354Y-111116240D01*
X152228598Y-111117200D01*
X150748601Y-111117200D01*
X150738845Y-111116240D01*
X150729465Y-111113395D01*
X150720821Y-111108772D01*
X150713244Y-111102554D01*
X150707026Y-111094977D01*
X150702406Y-111086334D01*
X150699561Y-111076953D01*
X150698601Y-111067200D01*
X150698601Y-109917200D01*
X150699561Y-109907446D01*
X150702406Y-109898066D01*
X150707026Y-109889422D01*
X150713244Y-109881845D01*
X150720821Y-109875627D01*
X150729465Y-109871005D01*
X150738845Y-109868160D01*
X150748601Y-109867200D01*
X152228598Y-109867200D01*
X152238354Y-109868160D01*
G37*
%TO.C,U4*%
G36*
X145974549Y-125306431D02*
G01*
X143964749Y-125306431D01*
X143964749Y-124109431D01*
X145974549Y-124109431D01*
X145974549Y-125306431D01*
G37*
G36*
X145974549Y-123909431D02*
G01*
X143964749Y-123909431D01*
X143964749Y-122712431D01*
X145974549Y-122712431D01*
X145974549Y-123909431D01*
G37*
G36*
X145974549Y-122512431D02*
G01*
X143964749Y-122512431D01*
X143964749Y-121315431D01*
X145974549Y-121315431D01*
X145974549Y-122512431D01*
G37*
%TD*%
D10*
%TO.C,Q2*%
X140029199Y-107126202D03*
X140029199Y-108396202D03*
X140029199Y-109666202D03*
X140029199Y-110936202D03*
X145619201Y-110936202D03*
X145619201Y-109666202D03*
X145619201Y-108396202D03*
X145619201Y-107126202D03*
%TD*%
%TO.C,Q1*%
X147293599Y-107137200D03*
X147293599Y-108407200D03*
X147293599Y-109677200D03*
X147293599Y-110947200D03*
X152883601Y-110947200D03*
X152883601Y-109677200D03*
X152883601Y-108407200D03*
X152883601Y-107137200D03*
%TD*%
D11*
%TO.C,C21*%
X145528449Y-118689231D03*
X145528449Y-116614231D03*
%TD*%
D12*
%TO.C,C17*%
X152400000Y-95465500D03*
X152400000Y-98590500D03*
%TD*%
D13*
%TO.C,L1*%
X145796000Y-98038000D03*
X145796000Y-103638000D03*
%TD*%
D14*
%TO.C,C3*%
X147581200Y-57887347D03*
X144456200Y-57887347D03*
%TD*%
D12*
%TO.C,C16*%
X155702000Y-95465500D03*
X155702000Y-98590500D03*
%TD*%
D11*
%TO.C,C22*%
X141376400Y-121281100D03*
X141376400Y-119206100D03*
%TD*%
D15*
%TO.C,C15*%
X144361300Y-113385600D03*
X141236300Y-113385600D03*
%TD*%
D14*
%TO.C,C20*%
X132118500Y-122174000D03*
X128993500Y-122174000D03*
%TD*%
%TO.C,C5*%
X147581200Y-60427347D03*
X144456200Y-60427347D03*
%TD*%
%TO.C,C19*%
X136436500Y-118872000D03*
X133311500Y-118872000D03*
%TD*%
D16*
%TO.C,R2*%
X145549200Y-65507347D03*
X147549200Y-65507347D03*
%TD*%
D17*
%TO.C,R8*%
X153945249Y-123717331D03*
X151945249Y-123717331D03*
%TD*%
D18*
%TO.C,C7*%
X145034000Y-83019500D03*
X145034000Y-86144500D03*
%TD*%
D19*
%TO.C,BOOT*%
X132537200Y-57125347D03*
X135937200Y-57125347D03*
%TD*%
D17*
%TO.C,R9*%
X151811649Y-125678131D03*
X149811649Y-125678131D03*
%TD*%
D11*
%TO.C,C24*%
X148424049Y-119654431D03*
X148424049Y-117579431D03*
%TD*%
D20*
%TO.C,C1*%
X132595200Y-62205347D03*
X135720200Y-62205347D03*
%TD*%
D19*
%TO.C,RST*%
X137617200Y-57125347D03*
X141017200Y-57125347D03*
%TD*%
D18*
%TO.C,C8*%
X142113000Y-68922500D03*
X142113000Y-72047500D03*
%TD*%
D21*
%TO.C,C27*%
X151704549Y-129742131D03*
X153779549Y-129742131D03*
%TD*%
D22*
%TO.C,U4*%
X145719650Y-126028731D03*
D23*
X146671449Y-125560932D03*
X146671449Y-125060930D03*
X146671449Y-124560931D03*
X146671449Y-124060932D03*
X146671449Y-123560931D03*
X146671449Y-123060931D03*
X146671449Y-122560930D03*
X146671449Y-122060931D03*
X146671449Y-121560932D03*
X146671449Y-121060930D03*
D22*
X145719650Y-120593131D03*
X144219648Y-120593131D03*
D23*
X143267849Y-121060930D03*
X143267849Y-121560932D03*
X143267849Y-122060931D03*
X143267849Y-122560930D03*
X143267849Y-123060931D03*
X143267849Y-123560931D03*
X143267849Y-124060932D03*
X143267849Y-124560931D03*
X143267849Y-125060930D03*
X143267849Y-125560932D03*
D22*
X144219648Y-126028731D03*
D24*
X144969649Y-123310931D03*
%TD*%
D18*
%TO.C,C6*%
X134366000Y-82384500D03*
X134366000Y-85509500D03*
%TD*%
D12*
%TO.C,C11*%
X136144000Y-95465500D03*
X136144000Y-98590500D03*
%TD*%
D21*
%TO.C,C12*%
X155553500Y-108712000D03*
X157628500Y-108712000D03*
%TD*%
D25*
%TO.C,Rt1*%
X147738249Y-127776931D03*
X147738249Y-129776931D03*
%TD*%
D12*
%TO.C,C26*%
X151638000Y-113245500D03*
X151638000Y-116370500D03*
%TD*%
%TO.C,C10*%
X139378000Y-95465500D03*
X139378000Y-98590500D03*
%TD*%
D21*
%TO.C,C14*%
X155553500Y-106680000D03*
X157628500Y-106680000D03*
%TD*%
D26*
%TO.C,R7*%
X149897249Y-123802931D03*
X149897249Y-121802931D03*
%TD*%
D21*
%TO.C,C13*%
X155553500Y-110744000D03*
X157628500Y-110744000D03*
%TD*%
D27*
%TO.C,U3*%
X134016750Y-120969999D03*
X134016750Y-121920000D03*
X134016750Y-122870001D03*
X136747250Y-122870001D03*
X136747250Y-121920000D03*
X136747250Y-120969999D03*
%TD*%
D21*
%TO.C,C25*%
X151704549Y-127724131D03*
X153779549Y-127724131D03*
%TD*%
D26*
%TO.C,R6*%
X140050000Y-125000000D03*
X140050000Y-123000000D03*
%TD*%
D28*
%TO.C,U2*%
X139661900Y-71261000D03*
X139661900Y-68961000D03*
X139661900Y-66661000D03*
D29*
X133134100Y-68961000D03*
%TD*%
D30*
%TO.C,U1*%
X150147200Y-54839347D03*
X150147200Y-56109347D03*
X150147200Y-57379347D03*
X150147200Y-58649347D03*
X150147200Y-59919347D03*
X150147200Y-61189347D03*
X150147200Y-62459347D03*
X150147200Y-63729347D03*
X150147200Y-64999347D03*
X150147200Y-66269347D03*
X150147200Y-67539347D03*
X150147200Y-68809347D03*
X150147200Y-70079347D03*
X150147200Y-71349347D03*
D31*
X153177200Y-72599347D03*
X154447200Y-72599347D03*
X155717200Y-72599347D03*
X156987200Y-72599347D03*
X158257200Y-72599347D03*
X159527200Y-72599347D03*
X160797200Y-72599347D03*
X162067200Y-72599347D03*
X163337200Y-72599347D03*
X164607200Y-72599347D03*
D30*
X167647200Y-71349347D03*
X167647200Y-70079347D03*
X167647200Y-68809347D03*
X167647200Y-67539347D03*
X167647200Y-66269347D03*
X167647200Y-64999347D03*
X167647200Y-63729347D03*
X167647200Y-62459347D03*
X167647200Y-61189347D03*
X167647200Y-59919347D03*
X167647200Y-58649347D03*
X167647200Y-57379347D03*
X167647200Y-56109347D03*
X167647200Y-54839347D03*
D32*
X155997200Y-61159347D03*
X155997200Y-61159347D03*
X155997200Y-62559347D03*
X155997200Y-63959347D03*
X155997200Y-63959347D03*
X157397200Y-61159347D03*
X157397200Y-62559347D03*
X157397200Y-63959347D03*
X157397200Y-63959347D03*
X158797200Y-61159347D03*
X158797200Y-62559347D03*
X158797200Y-63959347D03*
%TD*%
D26*
%TO.C,R4*%
X145782449Y-129776931D03*
X145782449Y-127776931D03*
%TD*%
D14*
%TO.C,C4*%
X147581200Y-55289347D03*
X144456200Y-55289347D03*
%TD*%
D25*
%TO.C,R5*%
X149694049Y-127776931D03*
X149694049Y-129776931D03*
%TD*%
D20*
%TO.C,C9*%
X144456200Y-68047347D03*
X147581200Y-68047347D03*
%TD*%
%TO.C,C2*%
X137892200Y-62205347D03*
X141017200Y-62205347D03*
%TD*%
D33*
%TO.C,IC1*%
X142407200Y-85954347D03*
X142407200Y-84684347D03*
X142407200Y-83414347D03*
X142407200Y-82144347D03*
X137007200Y-82144347D03*
X137007200Y-83414347D03*
X137007200Y-84684347D03*
X137007200Y-85954347D03*
%TD*%
D34*
%TO.C,R3*%
X145796000Y-92193000D03*
X145796000Y-94243000D03*
%TD*%
D16*
%TO.C,R1*%
X145549200Y-63221347D03*
X147549200Y-63221347D03*
%TD*%
D21*
%TO.C,C18*%
X155553500Y-112776000D03*
X157628500Y-112776000D03*
%TD*%
%TO.C,C23*%
X150840949Y-119937731D03*
X152915949Y-119937731D03*
%TD*%
D35*
%TO.C,F1*%
X136764700Y-77191347D03*
X132489700Y-77191347D03*
%TD*%
M02*
