%TF.GenerationSoftware,KiCad,Pcbnew,7.0.10-7.0.10~ubuntu23.10.1*%
%TF.CreationDate,2024-02-11T17:41:29+01:00*%
%TF.ProjectId,mainBoard,6d61696e-426f-4617-9264-2e6b69636164,rev?*%
%TF.SameCoordinates,Original*%
%TF.FileFunction,Soldermask,Top*%
%TF.FilePolarity,Negative*%
%FSLAX46Y46*%
G04 Gerber Fmt 4.6, Leading zero omitted, Abs format (unit mm)*
G04 Created by KiCad (PCBNEW 7.0.10-7.0.10~ubuntu23.10.1) date 2024-02-11 17:41:29*
%MOMM*%
%LPD*%
G01*
G04 APERTURE LIST*
G04 Aperture macros list*
%AMRoundRect*
0 Rectangle with rounded corners*
0 $1 Rounding radius*
0 $2 $3 $4 $5 $6 $7 $8 $9 X,Y pos of 4 corners*
0 Add a 4 corners polygon primitive as box body*
4,1,4,$2,$3,$4,$5,$6,$7,$8,$9,$2,$3,0*
0 Add four circle primitives for the rounded corners*
1,1,$1+$1,$2,$3*
1,1,$1+$1,$4,$5*
1,1,$1+$1,$6,$7*
1,1,$1+$1,$8,$9*
0 Add four rect primitives between the rounded corners*
20,1,$1+$1,$2,$3,$4,$5,0*
20,1,$1+$1,$4,$5,$6,$7,0*
20,1,$1+$1,$6,$7,$8,$9,0*
20,1,$1+$1,$8,$9,$2,$3,0*%
%AMFreePoly0*
4,1,19,0.000000,0.744911,0.071157,0.744911,0.207708,0.704816,0.327430,0.627875,0.420627,0.520320,0.479746,0.390866,0.500000,0.250000,0.500000,-0.250000,0.479746,-0.390866,0.420627,-0.520320,0.327430,-0.627875,0.207708,-0.704816,0.071157,-0.744911,0.000000,-0.744911,0.000000,-0.750000,-0.500000,-0.750000,-0.500000,0.750000,0.000000,0.750000,0.000000,0.744911,0.000000,0.744911,
$1*%
%AMFreePoly1*
4,1,19,0.500000,-0.750000,0.000000,-0.750000,0.000000,-0.744911,-0.071157,-0.744911,-0.207708,-0.704816,-0.327430,-0.627875,-0.420627,-0.520320,-0.479746,-0.390866,-0.500000,-0.250000,-0.500000,0.250000,-0.479746,0.390866,-0.420627,0.520320,-0.327430,0.627875,-0.207708,0.704816,-0.071157,0.744911,0.000000,0.744911,0.000000,0.750000,0.500000,0.750000,0.500000,-0.750000,0.500000,-0.750000,
$1*%
G04 Aperture macros list end*
%ADD10FreePoly0,0.000000*%
%ADD11FreePoly1,0.000000*%
%ADD12R,0.910001X0.509999*%
%ADD13RoundRect,0.250000X0.475000X-0.337500X0.475000X0.337500X-0.475000X0.337500X-0.475000X-0.337500X0*%
%ADD14RoundRect,0.250000X-1.100000X0.412500X-1.100000X-0.412500X1.100000X-0.412500X1.100000X0.412500X0*%
%ADD15R,8.200000X2.600000*%
%ADD16RoundRect,0.250000X0.412500X0.650000X-0.412500X0.650000X-0.412500X-0.650000X0.412500X-0.650000X0*%
%ADD17RoundRect,0.250000X0.412500X1.100000X-0.412500X1.100000X-0.412500X-1.100000X0.412500X-1.100000X0*%
%ADD18R,1.700000X1.700000*%
%ADD19O,1.700000X1.700000*%
%ADD20RoundRect,0.250000X-0.350000X-0.450000X0.350000X-0.450000X0.350000X0.450000X-0.350000X0.450000X0*%
%ADD21RoundRect,0.250000X0.350000X0.450000X-0.350000X0.450000X-0.350000X-0.450000X0.350000X-0.450000X0*%
%ADD22RoundRect,0.250000X-0.650000X0.412500X-0.650000X-0.412500X0.650000X-0.412500X0.650000X0.412500X0*%
%ADD23RoundRect,0.250000X0.725000X-0.600000X0.725000X0.600000X-0.725000X0.600000X-0.725000X-0.600000X0*%
%ADD24O,1.950000X1.700000*%
%ADD25C,1.400000*%
%ADD26R,0.900000X1.700000*%
%ADD27RoundRect,0.250000X-0.412500X-0.650000X0.412500X-0.650000X0.412500X0.650000X-0.412500X0.650000X0*%
%ADD28R,1.500000X1.500000*%
%ADD29C,1.500000*%
%ADD30C,4.800000*%
%ADD31C,1.200000*%
%ADD32RoundRect,0.250000X-0.337500X-0.475000X0.337500X-0.475000X0.337500X0.475000X-0.337500X0.475000X0*%
%ADD33R,0.254000X0.812800*%
%ADD34R,0.812800X0.254000*%
%ADD35R,2.209800X4.191000*%
%ADD36RoundRect,0.250000X-0.450000X0.350000X-0.450000X-0.350000X0.450000X-0.350000X0.450000X0.350000X0*%
%ADD37RoundRect,0.250000X0.450000X-0.350000X0.450000X0.350000X-0.450000X0.350000X-0.450000X-0.350000X0*%
%ADD38C,1.515000*%
%ADD39R,0.977900X0.558800*%
%ADD40C,4.400000*%
%ADD41R,1.473200X0.889000*%
%ADD42R,1.473200X3.149600*%
%ADD43R,1.500000X0.900000*%
%ADD44R,0.900000X1.500000*%
%ADD45R,0.900000X0.900000*%
%ADD46R,3.960000X1.980000*%
%ADD47O,3.960000X1.980000*%
%ADD48R,1.000000X1.000000*%
%ADD49O,1.000000X1.000000*%
%ADD50R,1.500000X0.650000*%
%ADD51RoundRect,0.250000X-1.775000X0.350000X-1.775000X-0.350000X1.775000X-0.350000X1.775000X0.350000X0*%
%ADD52RoundRect,0.250000X0.312500X1.450000X-0.312500X1.450000X-0.312500X-1.450000X0.312500X-1.450000X0*%
G04 APERTURE END LIST*
%TO.C,Q2*%
G36*
X145299201Y-107331200D02*
G01*
X145074201Y-107331200D01*
X145074201Y-106921201D01*
X145299201Y-106921201D01*
X145299201Y-107331200D01*
G37*
G36*
X145299201Y-108601203D02*
G01*
X145074201Y-108601203D01*
X145074201Y-108191204D01*
X145299201Y-108191204D01*
X145299201Y-108601203D01*
G37*
G36*
X145299201Y-109871198D02*
G01*
X145074201Y-109871198D01*
X145074201Y-109461199D01*
X145299201Y-109461199D01*
X145299201Y-109871198D01*
G37*
G36*
X145299201Y-111141200D02*
G01*
X145074201Y-111141200D01*
X145074201Y-110731201D01*
X145299201Y-110731201D01*
X145299201Y-111141200D01*
G37*
G36*
X145072186Y-106797203D02*
G01*
X145081978Y-106800175D01*
X145091003Y-106804999D01*
X145098912Y-106811491D01*
X145105404Y-106819400D01*
X145110228Y-106828425D01*
X145113200Y-106838217D01*
X145114203Y-106848402D01*
X145114203Y-111214002D01*
X145113200Y-111224187D01*
X145110228Y-111233979D01*
X145105404Y-111243004D01*
X145098912Y-111250913D01*
X145091003Y-111257405D01*
X145081978Y-111262229D01*
X145072186Y-111265201D01*
X145062001Y-111266201D01*
X141686402Y-111266201D01*
X141676217Y-111265201D01*
X141666425Y-111262229D01*
X141657400Y-111257405D01*
X141649491Y-111250913D01*
X141642998Y-111243004D01*
X141638175Y-111233979D01*
X141635203Y-111224187D01*
X141634202Y-111214002D01*
X141634202Y-106848402D01*
X141635203Y-106838217D01*
X141638175Y-106828425D01*
X141642998Y-106819400D01*
X141649491Y-106811491D01*
X141657400Y-106804999D01*
X141666425Y-106800175D01*
X141676217Y-106797203D01*
X141686402Y-106796203D01*
X145062001Y-106796203D01*
X145072186Y-106797203D01*
G37*
%TO.C,Q1*%
G36*
X152563601Y-107342198D02*
G01*
X152338601Y-107342198D01*
X152338601Y-106932199D01*
X152563601Y-106932199D01*
X152563601Y-107342198D01*
G37*
G36*
X152563601Y-108612201D02*
G01*
X152338601Y-108612201D01*
X152338601Y-108202202D01*
X152563601Y-108202202D01*
X152563601Y-108612201D01*
G37*
G36*
X152563601Y-109882196D02*
G01*
X152338601Y-109882196D01*
X152338601Y-109472197D01*
X152563601Y-109472197D01*
X152563601Y-109882196D01*
G37*
G36*
X152563601Y-111152198D02*
G01*
X152338601Y-111152198D01*
X152338601Y-110742199D01*
X152563601Y-110742199D01*
X152563601Y-111152198D01*
G37*
G36*
X152336586Y-106808201D02*
G01*
X152346378Y-106811173D01*
X152355403Y-106815997D01*
X152363312Y-106822489D01*
X152369804Y-106830398D01*
X152374628Y-106839423D01*
X152377600Y-106849215D01*
X152378603Y-106859400D01*
X152378603Y-111225000D01*
X152377600Y-111235185D01*
X152374628Y-111244977D01*
X152369804Y-111254002D01*
X152363312Y-111261911D01*
X152355403Y-111268403D01*
X152346378Y-111273227D01*
X152336586Y-111276199D01*
X152326401Y-111277199D01*
X148950802Y-111277199D01*
X148940617Y-111276199D01*
X148930825Y-111273227D01*
X148921800Y-111268403D01*
X148913891Y-111261911D01*
X148907398Y-111254002D01*
X148902575Y-111244977D01*
X148899603Y-111235185D01*
X148898602Y-111225000D01*
X148898602Y-106859400D01*
X148899603Y-106849215D01*
X148902575Y-106839423D01*
X148907398Y-106830398D01*
X148913891Y-106822489D01*
X148921800Y-106815997D01*
X148930825Y-106811173D01*
X148940617Y-106808201D01*
X148950802Y-106807201D01*
X152326401Y-106807201D01*
X152336586Y-106808201D01*
G37*
%TD*%
D10*
%TO.C,SJ1*%
X142890000Y-66649600D03*
D11*
X141590000Y-66649600D03*
%TD*%
D12*
%TO.C,Q2*%
X140029199Y-107126202D03*
X140029199Y-108396202D03*
X140029199Y-109666202D03*
X140029199Y-110936202D03*
X145619201Y-110936202D03*
X145619201Y-109666202D03*
X145619201Y-108396202D03*
X145619201Y-107126202D03*
%TD*%
%TO.C,Q1*%
X147293599Y-107137200D03*
X147293599Y-108407200D03*
X147293599Y-109677200D03*
X147293599Y-110947200D03*
X152883601Y-110947200D03*
X152883601Y-109677200D03*
X152883601Y-108407200D03*
X152883601Y-107137200D03*
%TD*%
D13*
%TO.C,C21*%
X145528449Y-118689231D03*
X145528449Y-116614231D03*
%TD*%
D14*
%TO.C,C17*%
X152400000Y-95465500D03*
X152400000Y-98590500D03*
%TD*%
D15*
%TO.C,L1*%
X145796000Y-98038000D03*
X145796000Y-103638000D03*
%TD*%
D16*
%TO.C,C3*%
X147581200Y-57887347D03*
X144456200Y-57887347D03*
%TD*%
D14*
%TO.C,C16*%
X155702000Y-95465500D03*
X155702000Y-98590500D03*
%TD*%
D13*
%TO.C,C22*%
X141376400Y-121281100D03*
X141376400Y-119206100D03*
%TD*%
D17*
%TO.C,C15*%
X144361300Y-113385600D03*
X141236300Y-113385600D03*
%TD*%
D16*
%TO.C,C20*%
X132118500Y-122174000D03*
X128993500Y-122174000D03*
%TD*%
%TO.C,C5*%
X147581200Y-60427347D03*
X144456200Y-60427347D03*
%TD*%
%TO.C,C19*%
X136436500Y-118872000D03*
X133311500Y-118872000D03*
%TD*%
D18*
%TO.C,J8*%
X166983200Y-119863347D03*
D19*
X164443200Y-119863347D03*
X166983200Y-117323347D03*
X164443200Y-117323347D03*
X166983200Y-114783347D03*
X164443200Y-114783347D03*
X166983200Y-112243347D03*
X164443200Y-112243347D03*
X166983200Y-109703347D03*
X164443200Y-109703347D03*
X166983200Y-107163347D03*
X164443200Y-107163347D03*
X166983200Y-104623347D03*
X164443200Y-104623347D03*
X166983200Y-102083347D03*
X164443200Y-102083347D03*
X166983200Y-99543347D03*
X164443200Y-99543347D03*
X166983200Y-97003347D03*
X164443200Y-97003347D03*
X166983200Y-94463347D03*
X164443200Y-94463347D03*
X166983200Y-91923347D03*
X164443200Y-91923347D03*
X166983200Y-89383347D03*
X164443200Y-89383347D03*
X166983200Y-86843347D03*
X164443200Y-86843347D03*
X166983200Y-84303347D03*
X164443200Y-84303347D03*
X166983200Y-81763347D03*
X164443200Y-81763347D03*
%TD*%
D20*
%TO.C,R2*%
X145549200Y-65507347D03*
X147549200Y-65507347D03*
%TD*%
D21*
%TO.C,R8*%
X153945249Y-123717331D03*
X151945249Y-123717331D03*
%TD*%
D22*
%TO.C,C7*%
X145034000Y-83019500D03*
X145034000Y-86144500D03*
%TD*%
D23*
%TO.C,J4*%
X139199200Y-134291347D03*
D24*
X139199200Y-131791347D03*
X139199200Y-129291347D03*
%TD*%
D25*
%TO.C,JP1*%
X145034000Y-133370000D03*
X145034000Y-135910000D03*
%TD*%
D26*
%TO.C,BOOT*%
X132537200Y-57125347D03*
X135937200Y-57125347D03*
%TD*%
D21*
%TO.C,R9*%
X151811649Y-125678131D03*
X149811649Y-125678131D03*
%TD*%
D13*
%TO.C,C24*%
X148424049Y-119654431D03*
X148424049Y-117579431D03*
%TD*%
D27*
%TO.C,C1*%
X132595200Y-62205347D03*
X135720200Y-62205347D03*
%TD*%
D28*
%TO.C,J2*%
X128732200Y-109819347D03*
D29*
X128732200Y-107047347D03*
X128732200Y-104274347D03*
X128732200Y-101502347D03*
X128732200Y-98729347D03*
X125892200Y-108433347D03*
X125892200Y-105660347D03*
X125892200Y-102888347D03*
X125892200Y-100115347D03*
D30*
X127312200Y-116769347D03*
X127312200Y-91779347D03*
%TD*%
D26*
%TO.C,RST*%
X137617200Y-57125347D03*
X141017200Y-57125347D03*
%TD*%
D31*
%TO.C,J5*%
X133833200Y-135941347D03*
D23*
X131833200Y-134341347D03*
D24*
X131833200Y-131841347D03*
X131833200Y-129341347D03*
X131833200Y-126841347D03*
%TD*%
D22*
%TO.C,C8*%
X142113000Y-68922500D03*
X142113000Y-72047500D03*
%TD*%
D32*
%TO.C,C27*%
X151704549Y-129742131D03*
X153779549Y-129742131D03*
%TD*%
D33*
%TO.C,U4*%
X145719650Y-126028731D03*
D34*
X146671449Y-125560932D03*
X146671449Y-125060930D03*
X146671449Y-124560931D03*
X146671449Y-124060932D03*
X146671449Y-123560931D03*
X146671449Y-123060931D03*
X146671449Y-122560930D03*
X146671449Y-122060931D03*
X146671449Y-121560932D03*
X146671449Y-121060930D03*
D33*
X145719650Y-120593131D03*
X144219648Y-120593131D03*
D34*
X143267849Y-121060930D03*
X143267849Y-121560932D03*
X143267849Y-122060931D03*
X143267849Y-122560930D03*
X143267849Y-123060931D03*
X143267849Y-123560931D03*
X143267849Y-124060932D03*
X143267849Y-124560931D03*
X143267849Y-125060930D03*
X143267849Y-125560932D03*
D33*
X144219648Y-126028731D03*
D35*
X144969649Y-123310931D03*
%TD*%
D22*
%TO.C,C6*%
X134366000Y-82384500D03*
X134366000Y-85509500D03*
%TD*%
D14*
%TO.C,C11*%
X136144000Y-95465500D03*
X136144000Y-98590500D03*
%TD*%
D32*
%TO.C,C12*%
X155553500Y-108712000D03*
X157628500Y-108712000D03*
%TD*%
D36*
%TO.C,Rt1*%
X147738249Y-127776931D03*
X147738249Y-129776931D03*
%TD*%
D14*
%TO.C,C26*%
X151638000Y-113245500D03*
X151638000Y-116370500D03*
%TD*%
D28*
%TO.C,J1*%
X128732200Y-76337347D03*
D29*
X128732200Y-73565347D03*
X128732200Y-70792347D03*
X128732200Y-68020347D03*
X128732200Y-65247347D03*
X125892200Y-74951347D03*
X125892200Y-72178347D03*
X125892200Y-69406347D03*
X125892200Y-66633347D03*
D30*
X127312200Y-83287347D03*
X127312200Y-58297347D03*
%TD*%
D14*
%TO.C,C10*%
X139378000Y-95465500D03*
X139378000Y-98590500D03*
%TD*%
D32*
%TO.C,C14*%
X155553500Y-106680000D03*
X157628500Y-106680000D03*
%TD*%
D37*
%TO.C,R7*%
X149897249Y-123802931D03*
X149897249Y-121802931D03*
%TD*%
D38*
%TO.C,F2*%
X133096000Y-111252000D03*
X134296000Y-106172000D03*
%TD*%
D32*
%TO.C,C13*%
X155553500Y-110744000D03*
X157628500Y-110744000D03*
%TD*%
D39*
%TO.C,U3*%
X134016750Y-120969999D03*
X134016750Y-121920000D03*
X134016750Y-122870001D03*
X136747250Y-122870001D03*
X136747250Y-121920000D03*
X136747250Y-120969999D03*
%TD*%
D40*
%TO.C,REF\u002A\u002A*%
X166624000Y-137922000D03*
%TD*%
D24*
%TO.C,J3*%
X123451200Y-126841347D03*
X123451200Y-129341347D03*
X123451200Y-131841347D03*
D23*
X123451200Y-134341347D03*
D31*
X125451200Y-135941347D03*
%TD*%
D32*
%TO.C,C25*%
X151704549Y-127724131D03*
X153779549Y-127724131D03*
%TD*%
D37*
%TO.C,R6*%
X140050000Y-125000000D03*
X140050000Y-123000000D03*
%TD*%
D41*
%TO.C,U2*%
X139661900Y-71261000D03*
X139661900Y-68961000D03*
X139661900Y-66661000D03*
D42*
X133134100Y-68961000D03*
%TD*%
D43*
%TO.C,U1*%
X150147200Y-54839347D03*
X150147200Y-56109347D03*
X150147200Y-57379347D03*
X150147200Y-58649347D03*
X150147200Y-59919347D03*
X150147200Y-61189347D03*
X150147200Y-62459347D03*
X150147200Y-63729347D03*
X150147200Y-64999347D03*
X150147200Y-66269347D03*
X150147200Y-67539347D03*
X150147200Y-68809347D03*
X150147200Y-70079347D03*
X150147200Y-71349347D03*
D44*
X153177200Y-72599347D03*
X154447200Y-72599347D03*
X155717200Y-72599347D03*
X156987200Y-72599347D03*
X158257200Y-72599347D03*
X159527200Y-72599347D03*
X160797200Y-72599347D03*
X162067200Y-72599347D03*
X163337200Y-72599347D03*
X164607200Y-72599347D03*
D43*
X167647200Y-71349347D03*
X167647200Y-70079347D03*
X167647200Y-68809347D03*
X167647200Y-67539347D03*
X167647200Y-66269347D03*
X167647200Y-64999347D03*
X167647200Y-63729347D03*
X167647200Y-62459347D03*
X167647200Y-61189347D03*
X167647200Y-59919347D03*
X167647200Y-58649347D03*
X167647200Y-57379347D03*
X167647200Y-56109347D03*
X167647200Y-54839347D03*
D45*
X155997200Y-61159347D03*
X155997200Y-61159347D03*
X155997200Y-62559347D03*
X155997200Y-63959347D03*
X155997200Y-63959347D03*
X157397200Y-61159347D03*
X157397200Y-62559347D03*
X157397200Y-63959347D03*
X157397200Y-63959347D03*
X158797200Y-61159347D03*
X158797200Y-62559347D03*
X158797200Y-63959347D03*
%TD*%
D37*
%TO.C,R4*%
X145782449Y-129776931D03*
X145782449Y-127776931D03*
%TD*%
D16*
%TO.C,C4*%
X147581200Y-55289347D03*
X144456200Y-55289347D03*
%TD*%
D46*
%TO.C,J7*%
X162306000Y-126746000D03*
D47*
X162306000Y-131746000D03*
%TD*%
D40*
%TO.C,REF\u002A\u002A*%
X124968000Y-50546000D03*
%TD*%
D36*
%TO.C,R5*%
X149694049Y-127776931D03*
X149694049Y-129776931D03*
%TD*%
D48*
%TO.C,J6*%
X148336000Y-135636000D03*
D49*
X148336000Y-134366000D03*
X149606000Y-135636000D03*
X149606000Y-134366000D03*
X150876000Y-135636000D03*
X150876000Y-134366000D03*
X152146000Y-135636000D03*
X152146000Y-134366000D03*
X153416000Y-135636000D03*
X153416000Y-134366000D03*
%TD*%
D27*
%TO.C,C9*%
X144456200Y-68047347D03*
X147581200Y-68047347D03*
%TD*%
%TO.C,C2*%
X137892200Y-62205347D03*
X141017200Y-62205347D03*
%TD*%
D50*
%TO.C,IC1*%
X142407200Y-85954347D03*
X142407200Y-84684347D03*
X142407200Y-83414347D03*
X142407200Y-82144347D03*
X137007200Y-82144347D03*
X137007200Y-83414347D03*
X137007200Y-84684347D03*
X137007200Y-85954347D03*
%TD*%
D51*
%TO.C,R3*%
X145796000Y-92193000D03*
X145796000Y-94243000D03*
%TD*%
D20*
%TO.C,R1*%
X145549200Y-63221347D03*
X147549200Y-63221347D03*
%TD*%
D32*
%TO.C,C18*%
X155553500Y-112776000D03*
X157628500Y-112776000D03*
%TD*%
%TO.C,C23*%
X150840949Y-119937731D03*
X152915949Y-119937731D03*
%TD*%
D52*
%TO.C,F1*%
X136764700Y-77191347D03*
X132489700Y-77191347D03*
%TD*%
M02*
