%TF.GenerationSoftware,KiCad,Pcbnew,7.0.10-7.0.10~ubuntu23.10.1*%
%TF.CreationDate,2024-02-11T17:41:28+01:00*%
%TF.ProjectId,mainBoard,6d61696e-426f-4617-9264-2e6b69636164,rev?*%
%TF.SameCoordinates,Original*%
%TF.FileFunction,Legend,Top*%
%TF.FilePolarity,Positive*%
%FSLAX46Y46*%
G04 Gerber Fmt 4.6, Leading zero omitted, Abs format (unit mm)*
G04 Created by KiCad (PCBNEW 7.0.10-7.0.10~ubuntu23.10.1) date 2024-02-11 17:41:28*
%MOMM*%
%LPD*%
G01*
G04 APERTURE LIST*
%ADD10C,0.150000*%
%ADD11C,0.010000*%
%ADD12C,0.120000*%
%ADD13C,0.200000*%
%ADD14C,0.100000*%
%ADD15C,0.152400*%
G04 APERTURE END LIST*
D10*
X161779198Y-83935943D02*
X162150626Y-83935943D01*
X162150626Y-83935943D02*
X161950626Y-84164514D01*
X161950626Y-84164514D02*
X162036341Y-84164514D01*
X162036341Y-84164514D02*
X162093484Y-84193086D01*
X162093484Y-84193086D02*
X162122055Y-84221657D01*
X162122055Y-84221657D02*
X162150626Y-84278800D01*
X162150626Y-84278800D02*
X162150626Y-84421657D01*
X162150626Y-84421657D02*
X162122055Y-84478800D01*
X162122055Y-84478800D02*
X162093484Y-84507372D01*
X162093484Y-84507372D02*
X162036341Y-84535943D01*
X162036341Y-84535943D02*
X161864912Y-84535943D01*
X161864912Y-84535943D02*
X161807769Y-84507372D01*
X161807769Y-84507372D02*
X161779198Y-84478800D01*
X162522055Y-83935943D02*
X162579198Y-83935943D01*
X162579198Y-83935943D02*
X162636341Y-83964514D01*
X162636341Y-83964514D02*
X162664913Y-83993086D01*
X162664913Y-83993086D02*
X162693484Y-84050229D01*
X162693484Y-84050229D02*
X162722055Y-84164514D01*
X162722055Y-84164514D02*
X162722055Y-84307372D01*
X162722055Y-84307372D02*
X162693484Y-84421657D01*
X162693484Y-84421657D02*
X162664913Y-84478800D01*
X162664913Y-84478800D02*
X162636341Y-84507372D01*
X162636341Y-84507372D02*
X162579198Y-84535943D01*
X162579198Y-84535943D02*
X162522055Y-84535943D01*
X162522055Y-84535943D02*
X162464913Y-84507372D01*
X162464913Y-84507372D02*
X162436341Y-84478800D01*
X162436341Y-84478800D02*
X162407770Y-84421657D01*
X162407770Y-84421657D02*
X162379198Y-84307372D01*
X162379198Y-84307372D02*
X162379198Y-84164514D01*
X162379198Y-84164514D02*
X162407770Y-84050229D01*
X162407770Y-84050229D02*
X162436341Y-83993086D01*
X162436341Y-83993086D02*
X162464913Y-83964514D01*
X162464913Y-83964514D02*
X162522055Y-83935943D01*
X161807769Y-94231238D02*
X161836341Y-94202666D01*
X161836341Y-94202666D02*
X161893484Y-94174095D01*
X161893484Y-94174095D02*
X162036341Y-94174095D01*
X162036341Y-94174095D02*
X162093484Y-94202666D01*
X162093484Y-94202666D02*
X162122055Y-94231238D01*
X162122055Y-94231238D02*
X162150626Y-94288381D01*
X162150626Y-94288381D02*
X162150626Y-94345524D01*
X162150626Y-94345524D02*
X162122055Y-94431238D01*
X162122055Y-94431238D02*
X161779198Y-94774095D01*
X161779198Y-94774095D02*
X162150626Y-94774095D01*
X162379198Y-94231238D02*
X162407770Y-94202666D01*
X162407770Y-94202666D02*
X162464913Y-94174095D01*
X162464913Y-94174095D02*
X162607770Y-94174095D01*
X162607770Y-94174095D02*
X162664913Y-94202666D01*
X162664913Y-94202666D02*
X162693484Y-94231238D01*
X162693484Y-94231238D02*
X162722055Y-94288381D01*
X162722055Y-94288381D02*
X162722055Y-94345524D01*
X162722055Y-94345524D02*
X162693484Y-94431238D01*
X162693484Y-94431238D02*
X162350627Y-94774095D01*
X162350627Y-94774095D02*
X162722055Y-94774095D01*
X162480855Y-112281570D02*
X162423712Y-112252998D01*
X162423712Y-112252998D02*
X162395141Y-112224427D01*
X162395141Y-112224427D02*
X162366569Y-112167284D01*
X162366569Y-112167284D02*
X162366569Y-112138713D01*
X162366569Y-112138713D02*
X162395141Y-112081570D01*
X162395141Y-112081570D02*
X162423712Y-112052998D01*
X162423712Y-112052998D02*
X162480855Y-112024427D01*
X162480855Y-112024427D02*
X162595141Y-112024427D01*
X162595141Y-112024427D02*
X162652284Y-112052998D01*
X162652284Y-112052998D02*
X162680855Y-112081570D01*
X162680855Y-112081570D02*
X162709426Y-112138713D01*
X162709426Y-112138713D02*
X162709426Y-112167284D01*
X162709426Y-112167284D02*
X162680855Y-112224427D01*
X162680855Y-112224427D02*
X162652284Y-112252998D01*
X162652284Y-112252998D02*
X162595141Y-112281570D01*
X162595141Y-112281570D02*
X162480855Y-112281570D01*
X162480855Y-112281570D02*
X162423712Y-112310141D01*
X162423712Y-112310141D02*
X162395141Y-112338713D01*
X162395141Y-112338713D02*
X162366569Y-112395856D01*
X162366569Y-112395856D02*
X162366569Y-112510141D01*
X162366569Y-112510141D02*
X162395141Y-112567284D01*
X162395141Y-112567284D02*
X162423712Y-112595856D01*
X162423712Y-112595856D02*
X162480855Y-112624427D01*
X162480855Y-112624427D02*
X162595141Y-112624427D01*
X162595141Y-112624427D02*
X162652284Y-112595856D01*
X162652284Y-112595856D02*
X162680855Y-112567284D01*
X162680855Y-112567284D02*
X162709426Y-112510141D01*
X162709426Y-112510141D02*
X162709426Y-112395856D01*
X162709426Y-112395856D02*
X162680855Y-112338713D01*
X162680855Y-112338713D02*
X162652284Y-112310141D01*
X162652284Y-112310141D02*
X162595141Y-112281570D01*
X162150626Y-99893171D02*
X161807769Y-99893171D01*
X161979198Y-99893171D02*
X161979198Y-99293171D01*
X161979198Y-99293171D02*
X161922055Y-99378885D01*
X161922055Y-99378885D02*
X161864912Y-99436028D01*
X161864912Y-99436028D02*
X161807769Y-99464600D01*
X162493484Y-99550314D02*
X162436341Y-99521742D01*
X162436341Y-99521742D02*
X162407770Y-99493171D01*
X162407770Y-99493171D02*
X162379198Y-99436028D01*
X162379198Y-99436028D02*
X162379198Y-99407457D01*
X162379198Y-99407457D02*
X162407770Y-99350314D01*
X162407770Y-99350314D02*
X162436341Y-99321742D01*
X162436341Y-99321742D02*
X162493484Y-99293171D01*
X162493484Y-99293171D02*
X162607770Y-99293171D01*
X162607770Y-99293171D02*
X162664913Y-99321742D01*
X162664913Y-99321742D02*
X162693484Y-99350314D01*
X162693484Y-99350314D02*
X162722055Y-99407457D01*
X162722055Y-99407457D02*
X162722055Y-99436028D01*
X162722055Y-99436028D02*
X162693484Y-99493171D01*
X162693484Y-99493171D02*
X162664913Y-99521742D01*
X162664913Y-99521742D02*
X162607770Y-99550314D01*
X162607770Y-99550314D02*
X162493484Y-99550314D01*
X162493484Y-99550314D02*
X162436341Y-99578885D01*
X162436341Y-99578885D02*
X162407770Y-99607457D01*
X162407770Y-99607457D02*
X162379198Y-99664600D01*
X162379198Y-99664600D02*
X162379198Y-99778885D01*
X162379198Y-99778885D02*
X162407770Y-99836028D01*
X162407770Y-99836028D02*
X162436341Y-99864600D01*
X162436341Y-99864600D02*
X162493484Y-99893171D01*
X162493484Y-99893171D02*
X162607770Y-99893171D01*
X162607770Y-99893171D02*
X162664913Y-99864600D01*
X162664913Y-99864600D02*
X162693484Y-99836028D01*
X162693484Y-99836028D02*
X162722055Y-99778885D01*
X162722055Y-99778885D02*
X162722055Y-99664600D01*
X162722055Y-99664600D02*
X162693484Y-99607457D01*
X162693484Y-99607457D02*
X162664913Y-99578885D01*
X162664913Y-99578885D02*
X162607770Y-99550314D01*
X161807769Y-86552624D02*
X161836341Y-86524052D01*
X161836341Y-86524052D02*
X161893484Y-86495481D01*
X161893484Y-86495481D02*
X162036341Y-86495481D01*
X162036341Y-86495481D02*
X162093484Y-86524052D01*
X162093484Y-86524052D02*
X162122055Y-86552624D01*
X162122055Y-86552624D02*
X162150626Y-86609767D01*
X162150626Y-86609767D02*
X162150626Y-86666910D01*
X162150626Y-86666910D02*
X162122055Y-86752624D01*
X162122055Y-86752624D02*
X161779198Y-87095481D01*
X161779198Y-87095481D02*
X162150626Y-87095481D01*
X162493484Y-86752624D02*
X162436341Y-86724052D01*
X162436341Y-86724052D02*
X162407770Y-86695481D01*
X162407770Y-86695481D02*
X162379198Y-86638338D01*
X162379198Y-86638338D02*
X162379198Y-86609767D01*
X162379198Y-86609767D02*
X162407770Y-86552624D01*
X162407770Y-86552624D02*
X162436341Y-86524052D01*
X162436341Y-86524052D02*
X162493484Y-86495481D01*
X162493484Y-86495481D02*
X162607770Y-86495481D01*
X162607770Y-86495481D02*
X162664913Y-86524052D01*
X162664913Y-86524052D02*
X162693484Y-86552624D01*
X162693484Y-86552624D02*
X162722055Y-86609767D01*
X162722055Y-86609767D02*
X162722055Y-86638338D01*
X162722055Y-86638338D02*
X162693484Y-86695481D01*
X162693484Y-86695481D02*
X162664913Y-86724052D01*
X162664913Y-86724052D02*
X162607770Y-86752624D01*
X162607770Y-86752624D02*
X162493484Y-86752624D01*
X162493484Y-86752624D02*
X162436341Y-86781195D01*
X162436341Y-86781195D02*
X162407770Y-86809767D01*
X162407770Y-86809767D02*
X162379198Y-86866910D01*
X162379198Y-86866910D02*
X162379198Y-86981195D01*
X162379198Y-86981195D02*
X162407770Y-87038338D01*
X162407770Y-87038338D02*
X162436341Y-87066910D01*
X162436341Y-87066910D02*
X162493484Y-87095481D01*
X162493484Y-87095481D02*
X162607770Y-87095481D01*
X162607770Y-87095481D02*
X162664913Y-87066910D01*
X162664913Y-87066910D02*
X162693484Y-87038338D01*
X162693484Y-87038338D02*
X162722055Y-86981195D01*
X162722055Y-86981195D02*
X162722055Y-86866910D01*
X162722055Y-86866910D02*
X162693484Y-86809767D01*
X162693484Y-86809767D02*
X162664913Y-86781195D01*
X162664913Y-86781195D02*
X162607770Y-86752624D01*
X161807769Y-91671700D02*
X161836341Y-91643128D01*
X161836341Y-91643128D02*
X161893484Y-91614557D01*
X161893484Y-91614557D02*
X162036341Y-91614557D01*
X162036341Y-91614557D02*
X162093484Y-91643128D01*
X162093484Y-91643128D02*
X162122055Y-91671700D01*
X162122055Y-91671700D02*
X162150626Y-91728843D01*
X162150626Y-91728843D02*
X162150626Y-91785986D01*
X162150626Y-91785986D02*
X162122055Y-91871700D01*
X162122055Y-91871700D02*
X161779198Y-92214557D01*
X161779198Y-92214557D02*
X162150626Y-92214557D01*
X162664913Y-91814557D02*
X162664913Y-92214557D01*
X162522055Y-91585986D02*
X162379198Y-92014557D01*
X162379198Y-92014557D02*
X162750627Y-92014557D01*
X161779198Y-81376405D02*
X162150626Y-81376405D01*
X162150626Y-81376405D02*
X161950626Y-81604976D01*
X161950626Y-81604976D02*
X162036341Y-81604976D01*
X162036341Y-81604976D02*
X162093484Y-81633548D01*
X162093484Y-81633548D02*
X162122055Y-81662119D01*
X162122055Y-81662119D02*
X162150626Y-81719262D01*
X162150626Y-81719262D02*
X162150626Y-81862119D01*
X162150626Y-81862119D02*
X162122055Y-81919262D01*
X162122055Y-81919262D02*
X162093484Y-81947834D01*
X162093484Y-81947834D02*
X162036341Y-81976405D01*
X162036341Y-81976405D02*
X161864912Y-81976405D01*
X161864912Y-81976405D02*
X161807769Y-81947834D01*
X161807769Y-81947834D02*
X161779198Y-81919262D01*
X162379198Y-81433548D02*
X162407770Y-81404976D01*
X162407770Y-81404976D02*
X162464913Y-81376405D01*
X162464913Y-81376405D02*
X162607770Y-81376405D01*
X162607770Y-81376405D02*
X162664913Y-81404976D01*
X162664913Y-81404976D02*
X162693484Y-81433548D01*
X162693484Y-81433548D02*
X162722055Y-81490691D01*
X162722055Y-81490691D02*
X162722055Y-81547834D01*
X162722055Y-81547834D02*
X162693484Y-81633548D01*
X162693484Y-81633548D02*
X162350627Y-81976405D01*
X162350627Y-81976405D02*
X162722055Y-81976405D01*
X161807769Y-96790776D02*
X161836341Y-96762204D01*
X161836341Y-96762204D02*
X161893484Y-96733633D01*
X161893484Y-96733633D02*
X162036341Y-96733633D01*
X162036341Y-96733633D02*
X162093484Y-96762204D01*
X162093484Y-96762204D02*
X162122055Y-96790776D01*
X162122055Y-96790776D02*
X162150626Y-96847919D01*
X162150626Y-96847919D02*
X162150626Y-96905062D01*
X162150626Y-96905062D02*
X162122055Y-96990776D01*
X162122055Y-96990776D02*
X161779198Y-97333633D01*
X161779198Y-97333633D02*
X162150626Y-97333633D01*
X162522055Y-96733633D02*
X162579198Y-96733633D01*
X162579198Y-96733633D02*
X162636341Y-96762204D01*
X162636341Y-96762204D02*
X162664913Y-96790776D01*
X162664913Y-96790776D02*
X162693484Y-96847919D01*
X162693484Y-96847919D02*
X162722055Y-96962204D01*
X162722055Y-96962204D02*
X162722055Y-97105062D01*
X162722055Y-97105062D02*
X162693484Y-97219347D01*
X162693484Y-97219347D02*
X162664913Y-97276490D01*
X162664913Y-97276490D02*
X162636341Y-97305062D01*
X162636341Y-97305062D02*
X162579198Y-97333633D01*
X162579198Y-97333633D02*
X162522055Y-97333633D01*
X162522055Y-97333633D02*
X162464913Y-97305062D01*
X162464913Y-97305062D02*
X162436341Y-97276490D01*
X162436341Y-97276490D02*
X162407770Y-97219347D01*
X162407770Y-97219347D02*
X162379198Y-97105062D01*
X162379198Y-97105062D02*
X162379198Y-96962204D01*
X162379198Y-96962204D02*
X162407770Y-96847919D01*
X162407770Y-96847919D02*
X162436341Y-96790776D01*
X162436341Y-96790776D02*
X162464913Y-96762204D01*
X162464913Y-96762204D02*
X162522055Y-96733633D01*
X162150626Y-102452709D02*
X161807769Y-102452709D01*
X161979198Y-102452709D02*
X161979198Y-101852709D01*
X161979198Y-101852709D02*
X161922055Y-101938423D01*
X161922055Y-101938423D02*
X161864912Y-101995566D01*
X161864912Y-101995566D02*
X161807769Y-102024138D01*
X162664913Y-101852709D02*
X162550627Y-101852709D01*
X162550627Y-101852709D02*
X162493484Y-101881280D01*
X162493484Y-101881280D02*
X162464913Y-101909852D01*
X162464913Y-101909852D02*
X162407770Y-101995566D01*
X162407770Y-101995566D02*
X162379198Y-102109852D01*
X162379198Y-102109852D02*
X162379198Y-102338423D01*
X162379198Y-102338423D02*
X162407770Y-102395566D01*
X162407770Y-102395566D02*
X162436341Y-102424138D01*
X162436341Y-102424138D02*
X162493484Y-102452709D01*
X162493484Y-102452709D02*
X162607770Y-102452709D01*
X162607770Y-102452709D02*
X162664913Y-102424138D01*
X162664913Y-102424138D02*
X162693484Y-102395566D01*
X162693484Y-102395566D02*
X162722055Y-102338423D01*
X162722055Y-102338423D02*
X162722055Y-102195566D01*
X162722055Y-102195566D02*
X162693484Y-102138423D01*
X162693484Y-102138423D02*
X162664913Y-102109852D01*
X162664913Y-102109852D02*
X162607770Y-102081280D01*
X162607770Y-102081280D02*
X162493484Y-102081280D01*
X162493484Y-102081280D02*
X162436341Y-102109852D01*
X162436341Y-102109852D02*
X162407770Y-102138423D01*
X162407770Y-102138423D02*
X162379198Y-102195566D01*
X162150626Y-105012247D02*
X161807769Y-105012247D01*
X161979198Y-105012247D02*
X161979198Y-104412247D01*
X161979198Y-104412247D02*
X161922055Y-104497961D01*
X161922055Y-104497961D02*
X161864912Y-104555104D01*
X161864912Y-104555104D02*
X161807769Y-104583676D01*
X162664913Y-104612247D02*
X162664913Y-105012247D01*
X162522055Y-104383676D02*
X162379198Y-104812247D01*
X162379198Y-104812247D02*
X162750627Y-104812247D01*
X161807769Y-89112162D02*
X161836341Y-89083590D01*
X161836341Y-89083590D02*
X161893484Y-89055019D01*
X161893484Y-89055019D02*
X162036341Y-89055019D01*
X162036341Y-89055019D02*
X162093484Y-89083590D01*
X162093484Y-89083590D02*
X162122055Y-89112162D01*
X162122055Y-89112162D02*
X162150626Y-89169305D01*
X162150626Y-89169305D02*
X162150626Y-89226448D01*
X162150626Y-89226448D02*
X162122055Y-89312162D01*
X162122055Y-89312162D02*
X161779198Y-89655019D01*
X161779198Y-89655019D02*
X162150626Y-89655019D01*
X162664913Y-89055019D02*
X162550627Y-89055019D01*
X162550627Y-89055019D02*
X162493484Y-89083590D01*
X162493484Y-89083590D02*
X162464913Y-89112162D01*
X162464913Y-89112162D02*
X162407770Y-89197876D01*
X162407770Y-89197876D02*
X162379198Y-89312162D01*
X162379198Y-89312162D02*
X162379198Y-89540733D01*
X162379198Y-89540733D02*
X162407770Y-89597876D01*
X162407770Y-89597876D02*
X162436341Y-89626448D01*
X162436341Y-89626448D02*
X162493484Y-89655019D01*
X162493484Y-89655019D02*
X162607770Y-89655019D01*
X162607770Y-89655019D02*
X162664913Y-89626448D01*
X162664913Y-89626448D02*
X162693484Y-89597876D01*
X162693484Y-89597876D02*
X162722055Y-89540733D01*
X162722055Y-89540733D02*
X162722055Y-89397876D01*
X162722055Y-89397876D02*
X162693484Y-89340733D01*
X162693484Y-89340733D02*
X162664913Y-89312162D01*
X162664913Y-89312162D02*
X162607770Y-89283590D01*
X162607770Y-89283590D02*
X162493484Y-89283590D01*
X162493484Y-89283590D02*
X162436341Y-89312162D01*
X162436341Y-89312162D02*
X162407770Y-89340733D01*
X162407770Y-89340733D02*
X162379198Y-89397876D01*
X162150626Y-107571785D02*
X161807769Y-107571785D01*
X161979198Y-107571785D02*
X161979198Y-106971785D01*
X161979198Y-106971785D02*
X161922055Y-107057499D01*
X161922055Y-107057499D02*
X161864912Y-107114642D01*
X161864912Y-107114642D02*
X161807769Y-107143214D01*
X162379198Y-107028928D02*
X162407770Y-107000356D01*
X162407770Y-107000356D02*
X162464913Y-106971785D01*
X162464913Y-106971785D02*
X162607770Y-106971785D01*
X162607770Y-106971785D02*
X162664913Y-107000356D01*
X162664913Y-107000356D02*
X162693484Y-107028928D01*
X162693484Y-107028928D02*
X162722055Y-107086071D01*
X162722055Y-107086071D02*
X162722055Y-107143214D01*
X162722055Y-107143214D02*
X162693484Y-107228928D01*
X162693484Y-107228928D02*
X162350627Y-107571785D01*
X162350627Y-107571785D02*
X162722055Y-107571785D01*
X162652284Y-114583971D02*
X162537998Y-114583971D01*
X162537998Y-114583971D02*
X162480855Y-114612542D01*
X162480855Y-114612542D02*
X162452284Y-114641114D01*
X162452284Y-114641114D02*
X162395141Y-114726828D01*
X162395141Y-114726828D02*
X162366569Y-114841114D01*
X162366569Y-114841114D02*
X162366569Y-115069685D01*
X162366569Y-115069685D02*
X162395141Y-115126828D01*
X162395141Y-115126828D02*
X162423712Y-115155400D01*
X162423712Y-115155400D02*
X162480855Y-115183971D01*
X162480855Y-115183971D02*
X162595141Y-115183971D01*
X162595141Y-115183971D02*
X162652284Y-115155400D01*
X162652284Y-115155400D02*
X162680855Y-115126828D01*
X162680855Y-115126828D02*
X162709426Y-115069685D01*
X162709426Y-115069685D02*
X162709426Y-114926828D01*
X162709426Y-114926828D02*
X162680855Y-114869685D01*
X162680855Y-114869685D02*
X162652284Y-114841114D01*
X162652284Y-114841114D02*
X162595141Y-114812542D01*
X162595141Y-114812542D02*
X162480855Y-114812542D01*
X162480855Y-114812542D02*
X162423712Y-114841114D01*
X162423712Y-114841114D02*
X162395141Y-114869685D01*
X162395141Y-114869685D02*
X162366569Y-114926828D01*
X162150626Y-110131323D02*
X161807769Y-110131323D01*
X161979198Y-110131323D02*
X161979198Y-109531323D01*
X161979198Y-109531323D02*
X161922055Y-109617037D01*
X161922055Y-109617037D02*
X161864912Y-109674180D01*
X161864912Y-109674180D02*
X161807769Y-109702752D01*
X162522055Y-109531323D02*
X162579198Y-109531323D01*
X162579198Y-109531323D02*
X162636341Y-109559894D01*
X162636341Y-109559894D02*
X162664913Y-109588466D01*
X162664913Y-109588466D02*
X162693484Y-109645609D01*
X162693484Y-109645609D02*
X162722055Y-109759894D01*
X162722055Y-109759894D02*
X162722055Y-109902752D01*
X162722055Y-109902752D02*
X162693484Y-110017037D01*
X162693484Y-110017037D02*
X162664913Y-110074180D01*
X162664913Y-110074180D02*
X162636341Y-110102752D01*
X162636341Y-110102752D02*
X162579198Y-110131323D01*
X162579198Y-110131323D02*
X162522055Y-110131323D01*
X162522055Y-110131323D02*
X162464913Y-110102752D01*
X162464913Y-110102752D02*
X162436341Y-110074180D01*
X162436341Y-110074180D02*
X162407770Y-110017037D01*
X162407770Y-110017037D02*
X162379198Y-109902752D01*
X162379198Y-109902752D02*
X162379198Y-109759894D01*
X162379198Y-109759894D02*
X162407770Y-109645609D01*
X162407770Y-109645609D02*
X162436341Y-109588466D01*
X162436341Y-109588466D02*
X162464913Y-109559894D01*
X162464913Y-109559894D02*
X162522055Y-109531323D01*
X168878455Y-114685571D02*
X168592741Y-114685571D01*
X168592741Y-114685571D02*
X168564169Y-114971285D01*
X168564169Y-114971285D02*
X168592741Y-114942714D01*
X168592741Y-114942714D02*
X168649884Y-114914142D01*
X168649884Y-114914142D02*
X168792741Y-114914142D01*
X168792741Y-114914142D02*
X168849884Y-114942714D01*
X168849884Y-114942714D02*
X168878455Y-114971285D01*
X168878455Y-114971285D02*
X168907026Y-115028428D01*
X168907026Y-115028428D02*
X168907026Y-115171285D01*
X168907026Y-115171285D02*
X168878455Y-115228428D01*
X168878455Y-115228428D02*
X168849884Y-115257000D01*
X168849884Y-115257000D02*
X168792741Y-115285571D01*
X168792741Y-115285571D02*
X168649884Y-115285571D01*
X168649884Y-115285571D02*
X168592741Y-115257000D01*
X168592741Y-115257000D02*
X168564169Y-115228428D01*
X168535598Y-112126027D02*
X168935598Y-112126027D01*
X168935598Y-112126027D02*
X168678455Y-112726027D01*
X168621312Y-110166489D02*
X168735598Y-110166489D01*
X168735598Y-110166489D02*
X168792741Y-110137918D01*
X168792741Y-110137918D02*
X168821312Y-110109346D01*
X168821312Y-110109346D02*
X168878455Y-110023632D01*
X168878455Y-110023632D02*
X168907026Y-109909346D01*
X168907026Y-109909346D02*
X168907026Y-109680775D01*
X168907026Y-109680775D02*
X168878455Y-109623632D01*
X168878455Y-109623632D02*
X168849884Y-109595060D01*
X168849884Y-109595060D02*
X168792741Y-109566489D01*
X168792741Y-109566489D02*
X168678455Y-109566489D01*
X168678455Y-109566489D02*
X168621312Y-109595060D01*
X168621312Y-109595060D02*
X168592741Y-109623632D01*
X168592741Y-109623632D02*
X168564169Y-109680775D01*
X168564169Y-109680775D02*
X168564169Y-109823632D01*
X168564169Y-109823632D02*
X168592741Y-109880775D01*
X168592741Y-109880775D02*
X168621312Y-109909346D01*
X168621312Y-109909346D02*
X168678455Y-109937918D01*
X168678455Y-109937918D02*
X168792741Y-109937918D01*
X168792741Y-109937918D02*
X168849884Y-109909346D01*
X168849884Y-109909346D02*
X168878455Y-109880775D01*
X168878455Y-109880775D02*
X168907026Y-109823632D01*
X168907026Y-107606951D02*
X168564169Y-107606951D01*
X168735598Y-107606951D02*
X168735598Y-107006951D01*
X168735598Y-107006951D02*
X168678455Y-107092665D01*
X168678455Y-107092665D02*
X168621312Y-107149808D01*
X168621312Y-107149808D02*
X168564169Y-107178380D01*
X169478455Y-107606951D02*
X169135598Y-107606951D01*
X169307027Y-107606951D02*
X169307027Y-107006951D01*
X169307027Y-107006951D02*
X169249884Y-107092665D01*
X169249884Y-107092665D02*
X169192741Y-107149808D01*
X169192741Y-107149808D02*
X169135598Y-107178380D01*
X168907026Y-105047413D02*
X168564169Y-105047413D01*
X168735598Y-105047413D02*
X168735598Y-104447413D01*
X168735598Y-104447413D02*
X168678455Y-104533127D01*
X168678455Y-104533127D02*
X168621312Y-104590270D01*
X168621312Y-104590270D02*
X168564169Y-104618842D01*
X169107027Y-104447413D02*
X169478455Y-104447413D01*
X169478455Y-104447413D02*
X169278455Y-104675984D01*
X169278455Y-104675984D02*
X169364170Y-104675984D01*
X169364170Y-104675984D02*
X169421313Y-104704556D01*
X169421313Y-104704556D02*
X169449884Y-104733127D01*
X169449884Y-104733127D02*
X169478455Y-104790270D01*
X169478455Y-104790270D02*
X169478455Y-104933127D01*
X169478455Y-104933127D02*
X169449884Y-104990270D01*
X169449884Y-104990270D02*
X169421313Y-105018842D01*
X169421313Y-105018842D02*
X169364170Y-105047413D01*
X169364170Y-105047413D02*
X169192741Y-105047413D01*
X169192741Y-105047413D02*
X169135598Y-105018842D01*
X169135598Y-105018842D02*
X169107027Y-104990270D01*
X168907026Y-102487875D02*
X168564169Y-102487875D01*
X168735598Y-102487875D02*
X168735598Y-101887875D01*
X168735598Y-101887875D02*
X168678455Y-101973589D01*
X168678455Y-101973589D02*
X168621312Y-102030732D01*
X168621312Y-102030732D02*
X168564169Y-102059304D01*
X169449884Y-101887875D02*
X169164170Y-101887875D01*
X169164170Y-101887875D02*
X169135598Y-102173589D01*
X169135598Y-102173589D02*
X169164170Y-102145018D01*
X169164170Y-102145018D02*
X169221313Y-102116446D01*
X169221313Y-102116446D02*
X169364170Y-102116446D01*
X169364170Y-102116446D02*
X169421313Y-102145018D01*
X169421313Y-102145018D02*
X169449884Y-102173589D01*
X169449884Y-102173589D02*
X169478455Y-102230732D01*
X169478455Y-102230732D02*
X169478455Y-102373589D01*
X169478455Y-102373589D02*
X169449884Y-102430732D01*
X169449884Y-102430732D02*
X169421313Y-102459304D01*
X169421313Y-102459304D02*
X169364170Y-102487875D01*
X169364170Y-102487875D02*
X169221313Y-102487875D01*
X169221313Y-102487875D02*
X169164170Y-102459304D01*
X169164170Y-102459304D02*
X169135598Y-102430732D01*
X168907026Y-99928337D02*
X168564169Y-99928337D01*
X168735598Y-99928337D02*
X168735598Y-99328337D01*
X168735598Y-99328337D02*
X168678455Y-99414051D01*
X168678455Y-99414051D02*
X168621312Y-99471194D01*
X168621312Y-99471194D02*
X168564169Y-99499766D01*
X169107027Y-99328337D02*
X169507027Y-99328337D01*
X169507027Y-99328337D02*
X169249884Y-99928337D01*
X168907026Y-97368799D02*
X168564169Y-97368799D01*
X168735598Y-97368799D02*
X168735598Y-96768799D01*
X168735598Y-96768799D02*
X168678455Y-96854513D01*
X168678455Y-96854513D02*
X168621312Y-96911656D01*
X168621312Y-96911656D02*
X168564169Y-96940228D01*
X169192741Y-97368799D02*
X169307027Y-97368799D01*
X169307027Y-97368799D02*
X169364170Y-97340228D01*
X169364170Y-97340228D02*
X169392741Y-97311656D01*
X169392741Y-97311656D02*
X169449884Y-97225942D01*
X169449884Y-97225942D02*
X169478455Y-97111656D01*
X169478455Y-97111656D02*
X169478455Y-96883085D01*
X169478455Y-96883085D02*
X169449884Y-96825942D01*
X169449884Y-96825942D02*
X169421313Y-96797370D01*
X169421313Y-96797370D02*
X169364170Y-96768799D01*
X169364170Y-96768799D02*
X169249884Y-96768799D01*
X169249884Y-96768799D02*
X169192741Y-96797370D01*
X169192741Y-96797370D02*
X169164170Y-96825942D01*
X169164170Y-96825942D02*
X169135598Y-96883085D01*
X169135598Y-96883085D02*
X169135598Y-97025942D01*
X169135598Y-97025942D02*
X169164170Y-97083085D01*
X169164170Y-97083085D02*
X169192741Y-97111656D01*
X169192741Y-97111656D02*
X169249884Y-97140228D01*
X169249884Y-97140228D02*
X169364170Y-97140228D01*
X169364170Y-97140228D02*
X169421313Y-97111656D01*
X169421313Y-97111656D02*
X169449884Y-97083085D01*
X169449884Y-97083085D02*
X169478455Y-97025942D01*
X168564169Y-94266404D02*
X168592741Y-94237832D01*
X168592741Y-94237832D02*
X168649884Y-94209261D01*
X168649884Y-94209261D02*
X168792741Y-94209261D01*
X168792741Y-94209261D02*
X168849884Y-94237832D01*
X168849884Y-94237832D02*
X168878455Y-94266404D01*
X168878455Y-94266404D02*
X168907026Y-94323547D01*
X168907026Y-94323547D02*
X168907026Y-94380690D01*
X168907026Y-94380690D02*
X168878455Y-94466404D01*
X168878455Y-94466404D02*
X168535598Y-94809261D01*
X168535598Y-94809261D02*
X168907026Y-94809261D01*
X169478455Y-94809261D02*
X169135598Y-94809261D01*
X169307027Y-94809261D02*
X169307027Y-94209261D01*
X169307027Y-94209261D02*
X169249884Y-94294975D01*
X169249884Y-94294975D02*
X169192741Y-94352118D01*
X169192741Y-94352118D02*
X169135598Y-94380690D01*
X168564169Y-91706866D02*
X168592741Y-91678294D01*
X168592741Y-91678294D02*
X168649884Y-91649723D01*
X168649884Y-91649723D02*
X168792741Y-91649723D01*
X168792741Y-91649723D02*
X168849884Y-91678294D01*
X168849884Y-91678294D02*
X168878455Y-91706866D01*
X168878455Y-91706866D02*
X168907026Y-91764009D01*
X168907026Y-91764009D02*
X168907026Y-91821152D01*
X168907026Y-91821152D02*
X168878455Y-91906866D01*
X168878455Y-91906866D02*
X168535598Y-92249723D01*
X168535598Y-92249723D02*
X168907026Y-92249723D01*
X169107027Y-91649723D02*
X169478455Y-91649723D01*
X169478455Y-91649723D02*
X169278455Y-91878294D01*
X169278455Y-91878294D02*
X169364170Y-91878294D01*
X169364170Y-91878294D02*
X169421313Y-91906866D01*
X169421313Y-91906866D02*
X169449884Y-91935437D01*
X169449884Y-91935437D02*
X169478455Y-91992580D01*
X169478455Y-91992580D02*
X169478455Y-92135437D01*
X169478455Y-92135437D02*
X169449884Y-92192580D01*
X169449884Y-92192580D02*
X169421313Y-92221152D01*
X169421313Y-92221152D02*
X169364170Y-92249723D01*
X169364170Y-92249723D02*
X169192741Y-92249723D01*
X169192741Y-92249723D02*
X169135598Y-92221152D01*
X169135598Y-92221152D02*
X169107027Y-92192580D01*
X168564169Y-89147328D02*
X168592741Y-89118756D01*
X168592741Y-89118756D02*
X168649884Y-89090185D01*
X168649884Y-89090185D02*
X168792741Y-89090185D01*
X168792741Y-89090185D02*
X168849884Y-89118756D01*
X168849884Y-89118756D02*
X168878455Y-89147328D01*
X168878455Y-89147328D02*
X168907026Y-89204471D01*
X168907026Y-89204471D02*
X168907026Y-89261614D01*
X168907026Y-89261614D02*
X168878455Y-89347328D01*
X168878455Y-89347328D02*
X168535598Y-89690185D01*
X168535598Y-89690185D02*
X168907026Y-89690185D01*
X169449884Y-89090185D02*
X169164170Y-89090185D01*
X169164170Y-89090185D02*
X169135598Y-89375899D01*
X169135598Y-89375899D02*
X169164170Y-89347328D01*
X169164170Y-89347328D02*
X169221313Y-89318756D01*
X169221313Y-89318756D02*
X169364170Y-89318756D01*
X169364170Y-89318756D02*
X169421313Y-89347328D01*
X169421313Y-89347328D02*
X169449884Y-89375899D01*
X169449884Y-89375899D02*
X169478455Y-89433042D01*
X169478455Y-89433042D02*
X169478455Y-89575899D01*
X169478455Y-89575899D02*
X169449884Y-89633042D01*
X169449884Y-89633042D02*
X169421313Y-89661614D01*
X169421313Y-89661614D02*
X169364170Y-89690185D01*
X169364170Y-89690185D02*
X169221313Y-89690185D01*
X169221313Y-89690185D02*
X169164170Y-89661614D01*
X169164170Y-89661614D02*
X169135598Y-89633042D01*
X168564169Y-86587790D02*
X168592741Y-86559218D01*
X168592741Y-86559218D02*
X168649884Y-86530647D01*
X168649884Y-86530647D02*
X168792741Y-86530647D01*
X168792741Y-86530647D02*
X168849884Y-86559218D01*
X168849884Y-86559218D02*
X168878455Y-86587790D01*
X168878455Y-86587790D02*
X168907026Y-86644933D01*
X168907026Y-86644933D02*
X168907026Y-86702076D01*
X168907026Y-86702076D02*
X168878455Y-86787790D01*
X168878455Y-86787790D02*
X168535598Y-87130647D01*
X168535598Y-87130647D02*
X168907026Y-87130647D01*
X169107027Y-86530647D02*
X169507027Y-86530647D01*
X169507027Y-86530647D02*
X169249884Y-87130647D01*
X168564169Y-84028252D02*
X168592741Y-83999680D01*
X168592741Y-83999680D02*
X168649884Y-83971109D01*
X168649884Y-83971109D02*
X168792741Y-83971109D01*
X168792741Y-83971109D02*
X168849884Y-83999680D01*
X168849884Y-83999680D02*
X168878455Y-84028252D01*
X168878455Y-84028252D02*
X168907026Y-84085395D01*
X168907026Y-84085395D02*
X168907026Y-84142538D01*
X168907026Y-84142538D02*
X168878455Y-84228252D01*
X168878455Y-84228252D02*
X168535598Y-84571109D01*
X168535598Y-84571109D02*
X168907026Y-84571109D01*
X169192741Y-84571109D02*
X169307027Y-84571109D01*
X169307027Y-84571109D02*
X169364170Y-84542538D01*
X169364170Y-84542538D02*
X169392741Y-84513966D01*
X169392741Y-84513966D02*
X169449884Y-84428252D01*
X169449884Y-84428252D02*
X169478455Y-84313966D01*
X169478455Y-84313966D02*
X169478455Y-84085395D01*
X169478455Y-84085395D02*
X169449884Y-84028252D01*
X169449884Y-84028252D02*
X169421313Y-83999680D01*
X169421313Y-83999680D02*
X169364170Y-83971109D01*
X169364170Y-83971109D02*
X169249884Y-83971109D01*
X169249884Y-83971109D02*
X169192741Y-83999680D01*
X169192741Y-83999680D02*
X169164170Y-84028252D01*
X169164170Y-84028252D02*
X169135598Y-84085395D01*
X169135598Y-84085395D02*
X169135598Y-84228252D01*
X169135598Y-84228252D02*
X169164170Y-84285395D01*
X169164170Y-84285395D02*
X169192741Y-84313966D01*
X169192741Y-84313966D02*
X169249884Y-84342538D01*
X169249884Y-84342538D02*
X169364170Y-84342538D01*
X169364170Y-84342538D02*
X169421313Y-84313966D01*
X169421313Y-84313966D02*
X169449884Y-84285395D01*
X169449884Y-84285395D02*
X169478455Y-84228252D01*
X168535598Y-81411571D02*
X168907026Y-81411571D01*
X168907026Y-81411571D02*
X168707026Y-81640142D01*
X168707026Y-81640142D02*
X168792741Y-81640142D01*
X168792741Y-81640142D02*
X168849884Y-81668714D01*
X168849884Y-81668714D02*
X168878455Y-81697285D01*
X168878455Y-81697285D02*
X168907026Y-81754428D01*
X168907026Y-81754428D02*
X168907026Y-81897285D01*
X168907026Y-81897285D02*
X168878455Y-81954428D01*
X168878455Y-81954428D02*
X168849884Y-81983000D01*
X168849884Y-81983000D02*
X168792741Y-82011571D01*
X168792741Y-82011571D02*
X168621312Y-82011571D01*
X168621312Y-82011571D02*
X168564169Y-81983000D01*
X168564169Y-81983000D02*
X168535598Y-81954428D01*
X169478455Y-82011571D02*
X169135598Y-82011571D01*
X169307027Y-82011571D02*
X169307027Y-81411571D01*
X169307027Y-81411571D02*
X169249884Y-81497285D01*
X169249884Y-81497285D02*
X169192741Y-81554428D01*
X169192741Y-81554428D02*
X169135598Y-81583000D01*
X161137600Y-116078000D02*
X168300400Y-116078000D01*
X161137600Y-110947200D02*
X168300400Y-110947200D01*
X161086800Y-105918000D02*
X168249600Y-105918000D01*
X161137600Y-100838000D02*
X168300400Y-100838000D01*
X161036000Y-95758000D02*
X168198800Y-95758000D01*
X161036000Y-90627200D02*
X168198800Y-90627200D01*
X161188400Y-85598000D02*
X168351200Y-85598000D01*
X168300400Y-79400400D02*
X168313200Y-80433347D01*
X166065200Y-79400400D02*
X168300400Y-79400400D01*
X166065200Y-80365600D02*
X166065200Y-79400400D01*
X166468588Y-78216238D02*
X166373350Y-78168619D01*
X166373350Y-78168619D02*
X166230493Y-78168619D01*
X166230493Y-78168619D02*
X166087636Y-78216238D01*
X166087636Y-78216238D02*
X165992398Y-78311476D01*
X165992398Y-78311476D02*
X165944779Y-78406714D01*
X165944779Y-78406714D02*
X165897160Y-78597190D01*
X165897160Y-78597190D02*
X165897160Y-78740047D01*
X165897160Y-78740047D02*
X165944779Y-78930523D01*
X165944779Y-78930523D02*
X165992398Y-79025761D01*
X165992398Y-79025761D02*
X166087636Y-79121000D01*
X166087636Y-79121000D02*
X166230493Y-79168619D01*
X166230493Y-79168619D02*
X166325731Y-79168619D01*
X166325731Y-79168619D02*
X166468588Y-79121000D01*
X166468588Y-79121000D02*
X166516207Y-79073380D01*
X166516207Y-79073380D02*
X166516207Y-78740047D01*
X166516207Y-78740047D02*
X166325731Y-78740047D01*
X166944779Y-79168619D02*
X166944779Y-78168619D01*
X166944779Y-78168619D02*
X167516207Y-79168619D01*
X167516207Y-79168619D02*
X167516207Y-78168619D01*
X167992398Y-79168619D02*
X167992398Y-78168619D01*
X167992398Y-78168619D02*
X168230493Y-78168619D01*
X168230493Y-78168619D02*
X168373350Y-78216238D01*
X168373350Y-78216238D02*
X168468588Y-78311476D01*
X168468588Y-78311476D02*
X168516207Y-78406714D01*
X168516207Y-78406714D02*
X168563826Y-78597190D01*
X168563826Y-78597190D02*
X168563826Y-78740047D01*
X168563826Y-78740047D02*
X168516207Y-78930523D01*
X168516207Y-78930523D02*
X168468588Y-79025761D01*
X168468588Y-79025761D02*
X168373350Y-79121000D01*
X168373350Y-79121000D02*
X168230493Y-79168619D01*
X168230493Y-79168619D02*
X167992398Y-79168619D01*
X160677388Y-116925838D02*
X160582150Y-116878219D01*
X160582150Y-116878219D02*
X160439293Y-116878219D01*
X160439293Y-116878219D02*
X160296436Y-116925838D01*
X160296436Y-116925838D02*
X160201198Y-117021076D01*
X160201198Y-117021076D02*
X160153579Y-117116314D01*
X160153579Y-117116314D02*
X160105960Y-117306790D01*
X160105960Y-117306790D02*
X160105960Y-117449647D01*
X160105960Y-117449647D02*
X160153579Y-117640123D01*
X160153579Y-117640123D02*
X160201198Y-117735361D01*
X160201198Y-117735361D02*
X160296436Y-117830600D01*
X160296436Y-117830600D02*
X160439293Y-117878219D01*
X160439293Y-117878219D02*
X160534531Y-117878219D01*
X160534531Y-117878219D02*
X160677388Y-117830600D01*
X160677388Y-117830600D02*
X160725007Y-117782980D01*
X160725007Y-117782980D02*
X160725007Y-117449647D01*
X160725007Y-117449647D02*
X160534531Y-117449647D01*
X161153579Y-117878219D02*
X161153579Y-116878219D01*
X161153579Y-116878219D02*
X161725007Y-117878219D01*
X161725007Y-117878219D02*
X161725007Y-116878219D01*
X162201198Y-117878219D02*
X162201198Y-116878219D01*
X162201198Y-116878219D02*
X162439293Y-116878219D01*
X162439293Y-116878219D02*
X162582150Y-116925838D01*
X162582150Y-116925838D02*
X162677388Y-117021076D01*
X162677388Y-117021076D02*
X162725007Y-117116314D01*
X162725007Y-117116314D02*
X162772626Y-117306790D01*
X162772626Y-117306790D02*
X162772626Y-117449647D01*
X162772626Y-117449647D02*
X162725007Y-117640123D01*
X162725007Y-117640123D02*
X162677388Y-117735361D01*
X162677388Y-117735361D02*
X162582150Y-117830600D01*
X162582150Y-117830600D02*
X162439293Y-117878219D01*
X162439293Y-117878219D02*
X162201198Y-117878219D01*
X160159941Y-119469019D02*
X160778988Y-119469019D01*
X160778988Y-119469019D02*
X160445655Y-119849971D01*
X160445655Y-119849971D02*
X160588512Y-119849971D01*
X160588512Y-119849971D02*
X160683750Y-119897590D01*
X160683750Y-119897590D02*
X160731369Y-119945209D01*
X160731369Y-119945209D02*
X160778988Y-120040447D01*
X160778988Y-120040447D02*
X160778988Y-120278542D01*
X160778988Y-120278542D02*
X160731369Y-120373780D01*
X160731369Y-120373780D02*
X160683750Y-120421400D01*
X160683750Y-120421400D02*
X160588512Y-120469019D01*
X160588512Y-120469019D02*
X160302798Y-120469019D01*
X160302798Y-120469019D02*
X160207560Y-120421400D01*
X160207560Y-120421400D02*
X160159941Y-120373780D01*
X161064703Y-119469019D02*
X161398036Y-120469019D01*
X161398036Y-120469019D02*
X161731369Y-119469019D01*
X161969465Y-119469019D02*
X162588512Y-119469019D01*
X162588512Y-119469019D02*
X162255179Y-119849971D01*
X162255179Y-119849971D02*
X162398036Y-119849971D01*
X162398036Y-119849971D02*
X162493274Y-119897590D01*
X162493274Y-119897590D02*
X162540893Y-119945209D01*
X162540893Y-119945209D02*
X162588512Y-120040447D01*
X162588512Y-120040447D02*
X162588512Y-120278542D01*
X162588512Y-120278542D02*
X162540893Y-120373780D01*
X162540893Y-120373780D02*
X162493274Y-120421400D01*
X162493274Y-120421400D02*
X162398036Y-120469019D01*
X162398036Y-120469019D02*
X162112322Y-120469019D01*
X162112322Y-120469019D02*
X162017084Y-120421400D01*
X162017084Y-120421400D02*
X161969465Y-120373780D01*
X121596379Y-138604619D02*
X121596379Y-137604619D01*
X121596379Y-137604619D02*
X121834474Y-137604619D01*
X121834474Y-137604619D02*
X121977331Y-137652238D01*
X121977331Y-137652238D02*
X122072569Y-137747476D01*
X122072569Y-137747476D02*
X122120188Y-137842714D01*
X122120188Y-137842714D02*
X122167807Y-138033190D01*
X122167807Y-138033190D02*
X122167807Y-138176047D01*
X122167807Y-138176047D02*
X122120188Y-138366523D01*
X122120188Y-138366523D02*
X122072569Y-138461761D01*
X122072569Y-138461761D02*
X121977331Y-138557000D01*
X121977331Y-138557000D02*
X121834474Y-138604619D01*
X121834474Y-138604619D02*
X121596379Y-138604619D01*
X122596379Y-138604619D02*
X122596379Y-137937952D01*
X122596379Y-137604619D02*
X122548760Y-137652238D01*
X122548760Y-137652238D02*
X122596379Y-137699857D01*
X122596379Y-137699857D02*
X122643998Y-137652238D01*
X122643998Y-137652238D02*
X122596379Y-137604619D01*
X122596379Y-137604619D02*
X122596379Y-137699857D01*
X123024950Y-138557000D02*
X123120188Y-138604619D01*
X123120188Y-138604619D02*
X123310664Y-138604619D01*
X123310664Y-138604619D02*
X123405902Y-138557000D01*
X123405902Y-138557000D02*
X123453521Y-138461761D01*
X123453521Y-138461761D02*
X123453521Y-138414142D01*
X123453521Y-138414142D02*
X123405902Y-138318904D01*
X123405902Y-138318904D02*
X123310664Y-138271285D01*
X123310664Y-138271285D02*
X123167807Y-138271285D01*
X123167807Y-138271285D02*
X123072569Y-138223666D01*
X123072569Y-138223666D02*
X123024950Y-138128428D01*
X123024950Y-138128428D02*
X123024950Y-138080809D01*
X123024950Y-138080809D02*
X123072569Y-137985571D01*
X123072569Y-137985571D02*
X123167807Y-137937952D01*
X123167807Y-137937952D02*
X123310664Y-137937952D01*
X123310664Y-137937952D02*
X123405902Y-137985571D01*
X123882093Y-137937952D02*
X123882093Y-138937952D01*
X123882093Y-137985571D02*
X123977331Y-137937952D01*
X123977331Y-137937952D02*
X124167807Y-137937952D01*
X124167807Y-137937952D02*
X124263045Y-137985571D01*
X124263045Y-137985571D02*
X124310664Y-138033190D01*
X124310664Y-138033190D02*
X124358283Y-138128428D01*
X124358283Y-138128428D02*
X124358283Y-138414142D01*
X124358283Y-138414142D02*
X124310664Y-138509380D01*
X124310664Y-138509380D02*
X124263045Y-138557000D01*
X124263045Y-138557000D02*
X124167807Y-138604619D01*
X124167807Y-138604619D02*
X123977331Y-138604619D01*
X123977331Y-138604619D02*
X123882093Y-138557000D01*
X124929712Y-138604619D02*
X124834474Y-138557000D01*
X124834474Y-138557000D02*
X124786855Y-138461761D01*
X124786855Y-138461761D02*
X124786855Y-137604619D01*
X125739236Y-138604619D02*
X125739236Y-138080809D01*
X125739236Y-138080809D02*
X125691617Y-137985571D01*
X125691617Y-137985571D02*
X125596379Y-137937952D01*
X125596379Y-137937952D02*
X125405903Y-137937952D01*
X125405903Y-137937952D02*
X125310665Y-137985571D01*
X125739236Y-138557000D02*
X125643998Y-138604619D01*
X125643998Y-138604619D02*
X125405903Y-138604619D01*
X125405903Y-138604619D02*
X125310665Y-138557000D01*
X125310665Y-138557000D02*
X125263046Y-138461761D01*
X125263046Y-138461761D02*
X125263046Y-138366523D01*
X125263046Y-138366523D02*
X125310665Y-138271285D01*
X125310665Y-138271285D02*
X125405903Y-138223666D01*
X125405903Y-138223666D02*
X125643998Y-138223666D01*
X125643998Y-138223666D02*
X125739236Y-138176047D01*
X126120189Y-137937952D02*
X126358284Y-138604619D01*
X126596379Y-137937952D02*
X126358284Y-138604619D01*
X126358284Y-138604619D02*
X126263046Y-138842714D01*
X126263046Y-138842714D02*
X126215427Y-138890333D01*
X126215427Y-138890333D02*
X126120189Y-138937952D01*
X130702207Y-138604619D02*
X130368874Y-138128428D01*
X130130779Y-138604619D02*
X130130779Y-137604619D01*
X130130779Y-137604619D02*
X130511731Y-137604619D01*
X130511731Y-137604619D02*
X130606969Y-137652238D01*
X130606969Y-137652238D02*
X130654588Y-137699857D01*
X130654588Y-137699857D02*
X130702207Y-137795095D01*
X130702207Y-137795095D02*
X130702207Y-137937952D01*
X130702207Y-137937952D02*
X130654588Y-138033190D01*
X130654588Y-138033190D02*
X130606969Y-138080809D01*
X130606969Y-138080809D02*
X130511731Y-138128428D01*
X130511731Y-138128428D02*
X130130779Y-138128428D01*
X131511731Y-138557000D02*
X131416493Y-138604619D01*
X131416493Y-138604619D02*
X131226017Y-138604619D01*
X131226017Y-138604619D02*
X131130779Y-138557000D01*
X131130779Y-138557000D02*
X131083160Y-138461761D01*
X131083160Y-138461761D02*
X131083160Y-138080809D01*
X131083160Y-138080809D02*
X131130779Y-137985571D01*
X131130779Y-137985571D02*
X131226017Y-137937952D01*
X131226017Y-137937952D02*
X131416493Y-137937952D01*
X131416493Y-137937952D02*
X131511731Y-137985571D01*
X131511731Y-137985571D02*
X131559350Y-138080809D01*
X131559350Y-138080809D02*
X131559350Y-138176047D01*
X131559350Y-138176047D02*
X131083160Y-138271285D01*
X132130779Y-138604619D02*
X132035541Y-138557000D01*
X132035541Y-138557000D02*
X131987922Y-138461761D01*
X131987922Y-138461761D02*
X131987922Y-137604619D01*
X132940303Y-138604619D02*
X132940303Y-138080809D01*
X132940303Y-138080809D02*
X132892684Y-137985571D01*
X132892684Y-137985571D02*
X132797446Y-137937952D01*
X132797446Y-137937952D02*
X132606970Y-137937952D01*
X132606970Y-137937952D02*
X132511732Y-137985571D01*
X132940303Y-138557000D02*
X132845065Y-138604619D01*
X132845065Y-138604619D02*
X132606970Y-138604619D01*
X132606970Y-138604619D02*
X132511732Y-138557000D01*
X132511732Y-138557000D02*
X132464113Y-138461761D01*
X132464113Y-138461761D02*
X132464113Y-138366523D01*
X132464113Y-138366523D02*
X132511732Y-138271285D01*
X132511732Y-138271285D02*
X132606970Y-138223666D01*
X132606970Y-138223666D02*
X132845065Y-138223666D01*
X132845065Y-138223666D02*
X132940303Y-138176047D01*
X133321256Y-137937952D02*
X133559351Y-138604619D01*
X133797446Y-137937952D02*
X133559351Y-138604619D01*
X133559351Y-138604619D02*
X133464113Y-138842714D01*
X133464113Y-138842714D02*
X133416494Y-138890333D01*
X133416494Y-138890333D02*
X133321256Y-138937952D01*
X134130780Y-138557000D02*
X134226018Y-138604619D01*
X134226018Y-138604619D02*
X134416494Y-138604619D01*
X134416494Y-138604619D02*
X134511732Y-138557000D01*
X134511732Y-138557000D02*
X134559351Y-138461761D01*
X134559351Y-138461761D02*
X134559351Y-138414142D01*
X134559351Y-138414142D02*
X134511732Y-138318904D01*
X134511732Y-138318904D02*
X134416494Y-138271285D01*
X134416494Y-138271285D02*
X134273637Y-138271285D01*
X134273637Y-138271285D02*
X134178399Y-138223666D01*
X134178399Y-138223666D02*
X134130780Y-138128428D01*
X134130780Y-138128428D02*
X134130780Y-138080809D01*
X134130780Y-138080809D02*
X134178399Y-137985571D01*
X134178399Y-137985571D02*
X134273637Y-137937952D01*
X134273637Y-137937952D02*
X134416494Y-137937952D01*
X134416494Y-137937952D02*
X134511732Y-137985571D01*
X149771293Y-137401419D02*
X149771293Y-138115704D01*
X149771293Y-138115704D02*
X149723674Y-138258561D01*
X149723674Y-138258561D02*
X149628436Y-138353800D01*
X149628436Y-138353800D02*
X149485579Y-138401419D01*
X149485579Y-138401419D02*
X149390341Y-138401419D01*
X150104627Y-137401419D02*
X150676055Y-137401419D01*
X150390341Y-138401419D02*
X150390341Y-137401419D01*
X150961770Y-138115704D02*
X151437960Y-138115704D01*
X150866532Y-138401419D02*
X151199865Y-137401419D01*
X151199865Y-137401419D02*
X151533198Y-138401419D01*
X152390341Y-137449038D02*
X152295103Y-137401419D01*
X152295103Y-137401419D02*
X152152246Y-137401419D01*
X152152246Y-137401419D02*
X152009389Y-137449038D01*
X152009389Y-137449038D02*
X151914151Y-137544276D01*
X151914151Y-137544276D02*
X151866532Y-137639514D01*
X151866532Y-137639514D02*
X151818913Y-137829990D01*
X151818913Y-137829990D02*
X151818913Y-137972847D01*
X151818913Y-137972847D02*
X151866532Y-138163323D01*
X151866532Y-138163323D02*
X151914151Y-138258561D01*
X151914151Y-138258561D02*
X152009389Y-138353800D01*
X152009389Y-138353800D02*
X152152246Y-138401419D01*
X152152246Y-138401419D02*
X152247484Y-138401419D01*
X152247484Y-138401419D02*
X152390341Y-138353800D01*
X152390341Y-138353800D02*
X152437960Y-138306180D01*
X152437960Y-138306180D02*
X152437960Y-137972847D01*
X152437960Y-137972847D02*
X152247484Y-137972847D01*
X143138608Y-138001533D02*
X143748132Y-138001533D01*
X143443370Y-138306295D02*
X143443370Y-137696771D01*
X144052893Y-137506295D02*
X144548131Y-137506295D01*
X144548131Y-137506295D02*
X144281465Y-137811057D01*
X144281465Y-137811057D02*
X144395750Y-137811057D01*
X144395750Y-137811057D02*
X144471941Y-137849152D01*
X144471941Y-137849152D02*
X144510036Y-137887247D01*
X144510036Y-137887247D02*
X144548131Y-137963438D01*
X144548131Y-137963438D02*
X144548131Y-138153914D01*
X144548131Y-138153914D02*
X144510036Y-138230104D01*
X144510036Y-138230104D02*
X144471941Y-138268200D01*
X144471941Y-138268200D02*
X144395750Y-138306295D01*
X144395750Y-138306295D02*
X144167179Y-138306295D01*
X144167179Y-138306295D02*
X144090988Y-138268200D01*
X144090988Y-138268200D02*
X144052893Y-138230104D01*
X144776703Y-137506295D02*
X145043370Y-138306295D01*
X145043370Y-138306295D02*
X145310036Y-137506295D01*
X145500512Y-137506295D02*
X145995750Y-137506295D01*
X145995750Y-137506295D02*
X145729084Y-137811057D01*
X145729084Y-137811057D02*
X145843369Y-137811057D01*
X145843369Y-137811057D02*
X145919560Y-137849152D01*
X145919560Y-137849152D02*
X145957655Y-137887247D01*
X145957655Y-137887247D02*
X145995750Y-137963438D01*
X145995750Y-137963438D02*
X145995750Y-138153914D01*
X145995750Y-138153914D02*
X145957655Y-138230104D01*
X145957655Y-138230104D02*
X145919560Y-138268200D01*
X145919560Y-138268200D02*
X145843369Y-138306295D01*
X145843369Y-138306295D02*
X145614798Y-138306295D01*
X145614798Y-138306295D02*
X145538607Y-138268200D01*
X145538607Y-138268200D02*
X145500512Y-138230104D01*
X141805274Y-139060961D02*
X142110036Y-139060961D01*
X141919560Y-139594295D02*
X141919560Y-138908580D01*
X141919560Y-138908580D02*
X141957655Y-138832390D01*
X141957655Y-138832390D02*
X142033845Y-138794295D01*
X142033845Y-138794295D02*
X142110036Y-138794295D01*
X142376703Y-139594295D02*
X142376703Y-139060961D01*
X142376703Y-139213342D02*
X142414798Y-139137152D01*
X142414798Y-139137152D02*
X142452893Y-139099057D01*
X142452893Y-139099057D02*
X142529084Y-139060961D01*
X142529084Y-139060961D02*
X142605274Y-139060961D01*
X142986226Y-139594295D02*
X142910036Y-139556200D01*
X142910036Y-139556200D02*
X142871941Y-139518104D01*
X142871941Y-139518104D02*
X142833845Y-139441914D01*
X142833845Y-139441914D02*
X142833845Y-139213342D01*
X142833845Y-139213342D02*
X142871941Y-139137152D01*
X142871941Y-139137152D02*
X142910036Y-139099057D01*
X142910036Y-139099057D02*
X142986226Y-139060961D01*
X142986226Y-139060961D02*
X143100512Y-139060961D01*
X143100512Y-139060961D02*
X143176703Y-139099057D01*
X143176703Y-139099057D02*
X143214798Y-139137152D01*
X143214798Y-139137152D02*
X143252893Y-139213342D01*
X143252893Y-139213342D02*
X143252893Y-139441914D01*
X143252893Y-139441914D02*
X143214798Y-139518104D01*
X143214798Y-139518104D02*
X143176703Y-139556200D01*
X143176703Y-139556200D02*
X143100512Y-139594295D01*
X143100512Y-139594295D02*
X142986226Y-139594295D01*
X143595751Y-139594295D02*
X143595751Y-139060961D01*
X143595751Y-139137152D02*
X143633846Y-139099057D01*
X143633846Y-139099057D02*
X143710036Y-139060961D01*
X143710036Y-139060961D02*
X143824322Y-139060961D01*
X143824322Y-139060961D02*
X143900513Y-139099057D01*
X143900513Y-139099057D02*
X143938608Y-139175247D01*
X143938608Y-139175247D02*
X143938608Y-139594295D01*
X143938608Y-139175247D02*
X143976703Y-139099057D01*
X143976703Y-139099057D02*
X144052894Y-139060961D01*
X144052894Y-139060961D02*
X144167179Y-139060961D01*
X144167179Y-139060961D02*
X144243370Y-139099057D01*
X144243370Y-139099057D02*
X144281465Y-139175247D01*
X144281465Y-139175247D02*
X144281465Y-139594295D01*
X145271942Y-139594295D02*
X145271942Y-138794295D01*
X145271942Y-139099057D02*
X145348132Y-139060961D01*
X145348132Y-139060961D02*
X145500513Y-139060961D01*
X145500513Y-139060961D02*
X145576704Y-139099057D01*
X145576704Y-139099057D02*
X145614799Y-139137152D01*
X145614799Y-139137152D02*
X145652894Y-139213342D01*
X145652894Y-139213342D02*
X145652894Y-139441914D01*
X145652894Y-139441914D02*
X145614799Y-139518104D01*
X145614799Y-139518104D02*
X145576704Y-139556200D01*
X145576704Y-139556200D02*
X145500513Y-139594295D01*
X145500513Y-139594295D02*
X145348132Y-139594295D01*
X145348132Y-139594295D02*
X145271942Y-139556200D01*
X146110037Y-139594295D02*
X146033847Y-139556200D01*
X146033847Y-139556200D02*
X145995752Y-139518104D01*
X145995752Y-139518104D02*
X145957656Y-139441914D01*
X145957656Y-139441914D02*
X145957656Y-139213342D01*
X145957656Y-139213342D02*
X145995752Y-139137152D01*
X145995752Y-139137152D02*
X146033847Y-139099057D01*
X146033847Y-139099057D02*
X146110037Y-139060961D01*
X146110037Y-139060961D02*
X146224323Y-139060961D01*
X146224323Y-139060961D02*
X146300514Y-139099057D01*
X146300514Y-139099057D02*
X146338609Y-139137152D01*
X146338609Y-139137152D02*
X146376704Y-139213342D01*
X146376704Y-139213342D02*
X146376704Y-139441914D01*
X146376704Y-139441914D02*
X146338609Y-139518104D01*
X146338609Y-139518104D02*
X146300514Y-139556200D01*
X146300514Y-139556200D02*
X146224323Y-139594295D01*
X146224323Y-139594295D02*
X146110037Y-139594295D01*
X147062419Y-139594295D02*
X147062419Y-139175247D01*
X147062419Y-139175247D02*
X147024324Y-139099057D01*
X147024324Y-139099057D02*
X146948133Y-139060961D01*
X146948133Y-139060961D02*
X146795752Y-139060961D01*
X146795752Y-139060961D02*
X146719562Y-139099057D01*
X147062419Y-139556200D02*
X146986228Y-139594295D01*
X146986228Y-139594295D02*
X146795752Y-139594295D01*
X146795752Y-139594295D02*
X146719562Y-139556200D01*
X146719562Y-139556200D02*
X146681466Y-139480009D01*
X146681466Y-139480009D02*
X146681466Y-139403819D01*
X146681466Y-139403819D02*
X146719562Y-139327628D01*
X146719562Y-139327628D02*
X146795752Y-139289533D01*
X146795752Y-139289533D02*
X146986228Y-139289533D01*
X146986228Y-139289533D02*
X147062419Y-139251438D01*
X147443372Y-139594295D02*
X147443372Y-139060961D01*
X147443372Y-139213342D02*
X147481467Y-139137152D01*
X147481467Y-139137152D02*
X147519562Y-139099057D01*
X147519562Y-139099057D02*
X147595753Y-139060961D01*
X147595753Y-139060961D02*
X147671943Y-139060961D01*
X148281467Y-139594295D02*
X148281467Y-138794295D01*
X148281467Y-139556200D02*
X148205276Y-139594295D01*
X148205276Y-139594295D02*
X148052895Y-139594295D01*
X148052895Y-139594295D02*
X147976705Y-139556200D01*
X147976705Y-139556200D02*
X147938610Y-139518104D01*
X147938610Y-139518104D02*
X147900514Y-139441914D01*
X147900514Y-139441914D02*
X147900514Y-139213342D01*
X147900514Y-139213342D02*
X147938610Y-139137152D01*
X147938610Y-139137152D02*
X147976705Y-139099057D01*
X147976705Y-139099057D02*
X148052895Y-139060961D01*
X148052895Y-139060961D02*
X148205276Y-139060961D01*
X148205276Y-139060961D02*
X148281467Y-139099057D01*
X138853942Y-138671019D02*
X138377752Y-138671019D01*
X138377752Y-138671019D02*
X138377752Y-137671019D01*
X139187276Y-138147209D02*
X139520609Y-138147209D01*
X139663466Y-138671019D02*
X139187276Y-138671019D01*
X139187276Y-138671019D02*
X139187276Y-137671019D01*
X139187276Y-137671019D02*
X139663466Y-137671019D01*
X140092038Y-138671019D02*
X140092038Y-137671019D01*
X140092038Y-137671019D02*
X140330133Y-137671019D01*
X140330133Y-137671019D02*
X140472990Y-137718638D01*
X140472990Y-137718638D02*
X140568228Y-137813876D01*
X140568228Y-137813876D02*
X140615847Y-137909114D01*
X140615847Y-137909114D02*
X140663466Y-138099590D01*
X140663466Y-138099590D02*
X140663466Y-138242447D01*
X140663466Y-138242447D02*
X140615847Y-138432923D01*
X140615847Y-138432923D02*
X140568228Y-138528161D01*
X140568228Y-138528161D02*
X140472990Y-138623400D01*
X140472990Y-138623400D02*
X140330133Y-138671019D01*
X140330133Y-138671019D02*
X140092038Y-138671019D01*
X137996800Y-140233400D02*
X138092038Y-140281019D01*
X138092038Y-140281019D02*
X138282514Y-140281019D01*
X138282514Y-140281019D02*
X138377752Y-140233400D01*
X138377752Y-140233400D02*
X138425371Y-140138161D01*
X138425371Y-140138161D02*
X138425371Y-140090542D01*
X138425371Y-140090542D02*
X138377752Y-139995304D01*
X138377752Y-139995304D02*
X138282514Y-139947685D01*
X138282514Y-139947685D02*
X138139657Y-139947685D01*
X138139657Y-139947685D02*
X138044419Y-139900066D01*
X138044419Y-139900066D02*
X137996800Y-139804828D01*
X137996800Y-139804828D02*
X137996800Y-139757209D01*
X137996800Y-139757209D02*
X138044419Y-139661971D01*
X138044419Y-139661971D02*
X138139657Y-139614352D01*
X138139657Y-139614352D02*
X138282514Y-139614352D01*
X138282514Y-139614352D02*
X138377752Y-139661971D01*
X138711086Y-139614352D02*
X139092038Y-139614352D01*
X138853943Y-139281019D02*
X138853943Y-140138161D01*
X138853943Y-140138161D02*
X138901562Y-140233400D01*
X138901562Y-140233400D02*
X138996800Y-140281019D01*
X138996800Y-140281019D02*
X139092038Y-140281019D01*
X139425372Y-140281019D02*
X139425372Y-139614352D01*
X139425372Y-139804828D02*
X139472991Y-139709590D01*
X139472991Y-139709590D02*
X139520610Y-139661971D01*
X139520610Y-139661971D02*
X139615848Y-139614352D01*
X139615848Y-139614352D02*
X139711086Y-139614352D01*
X140044420Y-140281019D02*
X140044420Y-139614352D01*
X140044420Y-139281019D02*
X139996801Y-139328638D01*
X139996801Y-139328638D02*
X140044420Y-139376257D01*
X140044420Y-139376257D02*
X140092039Y-139328638D01*
X140092039Y-139328638D02*
X140044420Y-139281019D01*
X140044420Y-139281019D02*
X140044420Y-139376257D01*
X140520610Y-139614352D02*
X140520610Y-140614352D01*
X140520610Y-139661971D02*
X140615848Y-139614352D01*
X140615848Y-139614352D02*
X140806324Y-139614352D01*
X140806324Y-139614352D02*
X140901562Y-139661971D01*
X140901562Y-139661971D02*
X140949181Y-139709590D01*
X140949181Y-139709590D02*
X140996800Y-139804828D01*
X140996800Y-139804828D02*
X140996800Y-140090542D01*
X140996800Y-140090542D02*
X140949181Y-140185780D01*
X140949181Y-140185780D02*
X140901562Y-140233400D01*
X140901562Y-140233400D02*
X140806324Y-140281019D01*
X140806324Y-140281019D02*
X140615848Y-140281019D01*
X140615848Y-140281019D02*
X140520610Y-140233400D01*
X159340657Y-113452039D02*
X159293038Y-113404420D01*
X159293038Y-113404420D02*
X159245419Y-113309182D01*
X159245419Y-113309182D02*
X159245419Y-113071087D01*
X159245419Y-113071087D02*
X159293038Y-112975849D01*
X159293038Y-112975849D02*
X159340657Y-112928230D01*
X159340657Y-112928230D02*
X159435895Y-112880611D01*
X159435895Y-112880611D02*
X159531133Y-112880611D01*
X159531133Y-112880611D02*
X159673990Y-112928230D01*
X159673990Y-112928230D02*
X160245419Y-113499658D01*
X160245419Y-113499658D02*
X160245419Y-112880611D01*
X159245419Y-112261563D02*
X159245419Y-112166325D01*
X159245419Y-112166325D02*
X159293038Y-112071087D01*
X159293038Y-112071087D02*
X159340657Y-112023468D01*
X159340657Y-112023468D02*
X159435895Y-111975849D01*
X159435895Y-111975849D02*
X159626371Y-111928230D01*
X159626371Y-111928230D02*
X159864466Y-111928230D01*
X159864466Y-111928230D02*
X160054942Y-111975849D01*
X160054942Y-111975849D02*
X160150180Y-112023468D01*
X160150180Y-112023468D02*
X160197800Y-112071087D01*
X160197800Y-112071087D02*
X160245419Y-112166325D01*
X160245419Y-112166325D02*
X160245419Y-112261563D01*
X160245419Y-112261563D02*
X160197800Y-112356801D01*
X160197800Y-112356801D02*
X160150180Y-112404420D01*
X160150180Y-112404420D02*
X160054942Y-112452039D01*
X160054942Y-112452039D02*
X159864466Y-112499658D01*
X159864466Y-112499658D02*
X159626371Y-112499658D01*
X159626371Y-112499658D02*
X159435895Y-112452039D01*
X159435895Y-112452039D02*
X159340657Y-112404420D01*
X159340657Y-112404420D02*
X159293038Y-112356801D01*
X159293038Y-112356801D02*
X159245419Y-112261563D01*
X159340657Y-111547277D02*
X159293038Y-111499658D01*
X159293038Y-111499658D02*
X159245419Y-111404420D01*
X159245419Y-111404420D02*
X159245419Y-111166325D01*
X159245419Y-111166325D02*
X159293038Y-111071087D01*
X159293038Y-111071087D02*
X159340657Y-111023468D01*
X159340657Y-111023468D02*
X159435895Y-110975849D01*
X159435895Y-110975849D02*
X159531133Y-110975849D01*
X159531133Y-110975849D02*
X159673990Y-111023468D01*
X159673990Y-111023468D02*
X160245419Y-111594896D01*
X160245419Y-111594896D02*
X160245419Y-110975849D01*
X159578752Y-110118706D02*
X160245419Y-110118706D01*
X159197800Y-110356801D02*
X159912085Y-110594896D01*
X159912085Y-110594896D02*
X159912085Y-109975849D01*
X159245419Y-108547277D02*
X159959704Y-108547277D01*
X159959704Y-108547277D02*
X160102561Y-108594896D01*
X160102561Y-108594896D02*
X160197800Y-108690134D01*
X160197800Y-108690134D02*
X160245419Y-108832991D01*
X160245419Y-108832991D02*
X160245419Y-108928229D01*
X160245419Y-107642515D02*
X159721609Y-107642515D01*
X159721609Y-107642515D02*
X159626371Y-107690134D01*
X159626371Y-107690134D02*
X159578752Y-107785372D01*
X159578752Y-107785372D02*
X159578752Y-107975848D01*
X159578752Y-107975848D02*
X159626371Y-108071086D01*
X160197800Y-107642515D02*
X160245419Y-107737753D01*
X160245419Y-107737753D02*
X160245419Y-107975848D01*
X160245419Y-107975848D02*
X160197800Y-108071086D01*
X160197800Y-108071086D02*
X160102561Y-108118705D01*
X160102561Y-108118705D02*
X160007323Y-108118705D01*
X160007323Y-108118705D02*
X159912085Y-108071086D01*
X159912085Y-108071086D02*
X159864466Y-107975848D01*
X159864466Y-107975848D02*
X159864466Y-107737753D01*
X159864466Y-107737753D02*
X159816847Y-107642515D01*
X160245419Y-107166324D02*
X159245419Y-107166324D01*
X159864466Y-107071086D02*
X160245419Y-106785372D01*
X159578752Y-106785372D02*
X159959704Y-107166324D01*
X159578752Y-105928229D02*
X160245419Y-105928229D01*
X159578752Y-106356800D02*
X160102561Y-106356800D01*
X160102561Y-106356800D02*
X160197800Y-106309181D01*
X160197800Y-106309181D02*
X160245419Y-106213943D01*
X160245419Y-106213943D02*
X160245419Y-106071086D01*
X160245419Y-106071086D02*
X160197800Y-105975848D01*
X160197800Y-105975848D02*
X160150180Y-105928229D01*
X160245419Y-105452038D02*
X159245419Y-105452038D01*
X159626371Y-105452038D02*
X159578752Y-105356800D01*
X159578752Y-105356800D02*
X159578752Y-105166324D01*
X159578752Y-105166324D02*
X159626371Y-105071086D01*
X159626371Y-105071086D02*
X159673990Y-105023467D01*
X159673990Y-105023467D02*
X159769228Y-104975848D01*
X159769228Y-104975848D02*
X160054942Y-104975848D01*
X160054942Y-104975848D02*
X160150180Y-105023467D01*
X160150180Y-105023467D02*
X160197800Y-105071086D01*
X160197800Y-105071086D02*
X160245419Y-105166324D01*
X160245419Y-105166324D02*
X160245419Y-105356800D01*
X160245419Y-105356800D02*
X160197800Y-105452038D01*
X160150180Y-103213943D02*
X160197800Y-103261562D01*
X160197800Y-103261562D02*
X160245419Y-103404419D01*
X160245419Y-103404419D02*
X160245419Y-103499657D01*
X160245419Y-103499657D02*
X160197800Y-103642514D01*
X160197800Y-103642514D02*
X160102561Y-103737752D01*
X160102561Y-103737752D02*
X160007323Y-103785371D01*
X160007323Y-103785371D02*
X159816847Y-103832990D01*
X159816847Y-103832990D02*
X159673990Y-103832990D01*
X159673990Y-103832990D02*
X159483514Y-103785371D01*
X159483514Y-103785371D02*
X159388276Y-103737752D01*
X159388276Y-103737752D02*
X159293038Y-103642514D01*
X159293038Y-103642514D02*
X159245419Y-103499657D01*
X159245419Y-103499657D02*
X159245419Y-103404419D01*
X159245419Y-103404419D02*
X159293038Y-103261562D01*
X159293038Y-103261562D02*
X159340657Y-103213943D01*
X160245419Y-102785371D02*
X159245419Y-102785371D01*
X160245419Y-102356800D02*
X159721609Y-102356800D01*
X159721609Y-102356800D02*
X159626371Y-102404419D01*
X159626371Y-102404419D02*
X159578752Y-102499657D01*
X159578752Y-102499657D02*
X159578752Y-102642514D01*
X159578752Y-102642514D02*
X159626371Y-102737752D01*
X159626371Y-102737752D02*
X159673990Y-102785371D01*
X160245419Y-101452038D02*
X159721609Y-101452038D01*
X159721609Y-101452038D02*
X159626371Y-101499657D01*
X159626371Y-101499657D02*
X159578752Y-101594895D01*
X159578752Y-101594895D02*
X159578752Y-101785371D01*
X159578752Y-101785371D02*
X159626371Y-101880609D01*
X160197800Y-101452038D02*
X160245419Y-101547276D01*
X160245419Y-101547276D02*
X160245419Y-101785371D01*
X160245419Y-101785371D02*
X160197800Y-101880609D01*
X160197800Y-101880609D02*
X160102561Y-101928228D01*
X160102561Y-101928228D02*
X160007323Y-101928228D01*
X160007323Y-101928228D02*
X159912085Y-101880609D01*
X159912085Y-101880609D02*
X159864466Y-101785371D01*
X159864466Y-101785371D02*
X159864466Y-101547276D01*
X159864466Y-101547276D02*
X159816847Y-101452038D01*
X160245419Y-100975847D02*
X159578752Y-100975847D01*
X159769228Y-100975847D02*
X159673990Y-100928228D01*
X159673990Y-100928228D02*
X159626371Y-100880609D01*
X159626371Y-100880609D02*
X159578752Y-100785371D01*
X159578752Y-100785371D02*
X159578752Y-100690133D01*
X159578752Y-100452037D02*
X160245419Y-100213942D01*
X160245419Y-100213942D02*
X159578752Y-99975847D01*
X160245419Y-99452037D02*
X160197800Y-99547275D01*
X160197800Y-99547275D02*
X160150180Y-99594894D01*
X160150180Y-99594894D02*
X160054942Y-99642513D01*
X160054942Y-99642513D02*
X159769228Y-99642513D01*
X159769228Y-99642513D02*
X159673990Y-99594894D01*
X159673990Y-99594894D02*
X159626371Y-99547275D01*
X159626371Y-99547275D02*
X159578752Y-99452037D01*
X159578752Y-99452037D02*
X159578752Y-99309180D01*
X159578752Y-99309180D02*
X159626371Y-99213942D01*
X159626371Y-99213942D02*
X159673990Y-99166323D01*
X159673990Y-99166323D02*
X159769228Y-99118704D01*
X159769228Y-99118704D02*
X160054942Y-99118704D01*
X160054942Y-99118704D02*
X160150180Y-99166323D01*
X160150180Y-99166323D02*
X160197800Y-99213942D01*
X160197800Y-99213942D02*
X160245419Y-99309180D01*
X160245419Y-99309180D02*
X160245419Y-99452037D01*
X159578752Y-98832989D02*
X159578752Y-98452037D01*
X159245419Y-98690132D02*
X160102561Y-98690132D01*
X160102561Y-98690132D02*
X160197800Y-98642513D01*
X160197800Y-98642513D02*
X160245419Y-98547275D01*
X160245419Y-98547275D02*
X160245419Y-98452037D01*
X160197800Y-98071084D02*
X160245419Y-98071084D01*
X160245419Y-98071084D02*
X160340657Y-98118703D01*
X160340657Y-98118703D02*
X160388276Y-98166322D01*
X159721609Y-96547275D02*
X159721609Y-96880608D01*
X160245419Y-96880608D02*
X159245419Y-96880608D01*
X159245419Y-96880608D02*
X159245419Y-96404418D01*
X159721609Y-96023465D02*
X159721609Y-95690132D01*
X160245419Y-95547275D02*
X160245419Y-96023465D01*
X160245419Y-96023465D02*
X159245419Y-96023465D01*
X159245419Y-96023465D02*
X159245419Y-95547275D01*
X160245419Y-95118703D02*
X159245419Y-95118703D01*
X160245419Y-94547275D02*
X159673990Y-94975846D01*
X159245419Y-94547275D02*
X159816847Y-95118703D01*
X159245419Y-94261560D02*
X159245419Y-93690132D01*
X160245419Y-93975846D02*
X159245419Y-93975846D01*
X159245419Y-92737750D02*
X160245419Y-92404417D01*
X160245419Y-92404417D02*
X159245419Y-92071084D01*
X159245419Y-91737750D02*
X160054942Y-91737750D01*
X160054942Y-91737750D02*
X160150180Y-91690131D01*
X160150180Y-91690131D02*
X160197800Y-91642512D01*
X160197800Y-91642512D02*
X160245419Y-91547274D01*
X160245419Y-91547274D02*
X160245419Y-91356798D01*
X160245419Y-91356798D02*
X160197800Y-91261560D01*
X160197800Y-91261560D02*
X160150180Y-91213941D01*
X160150180Y-91213941D02*
X160054942Y-91166322D01*
X160054942Y-91166322D02*
X159245419Y-91166322D01*
X159245419Y-90832988D02*
X159245419Y-90261560D01*
X160245419Y-90547274D02*
X159245419Y-90547274D01*
X132061179Y-52244619D02*
X132061179Y-51244619D01*
X132061179Y-51244619D02*
X132394512Y-51958904D01*
X132394512Y-51958904D02*
X132727845Y-51244619D01*
X132727845Y-51244619D02*
X132727845Y-52244619D01*
X133156417Y-51958904D02*
X133632607Y-51958904D01*
X133061179Y-52244619D02*
X133394512Y-51244619D01*
X133394512Y-51244619D02*
X133727845Y-52244619D01*
X134061179Y-52244619D02*
X134061179Y-51244619D01*
X134537369Y-52244619D02*
X134537369Y-51244619D01*
X134537369Y-51244619D02*
X135108797Y-52244619D01*
X135108797Y-52244619D02*
X135108797Y-51244619D01*
X136346893Y-52244619D02*
X136346893Y-51244619D01*
X136346893Y-51244619D02*
X136727845Y-51244619D01*
X136727845Y-51244619D02*
X136823083Y-51292238D01*
X136823083Y-51292238D02*
X136870702Y-51339857D01*
X136870702Y-51339857D02*
X136918321Y-51435095D01*
X136918321Y-51435095D02*
X136918321Y-51577952D01*
X136918321Y-51577952D02*
X136870702Y-51673190D01*
X136870702Y-51673190D02*
X136823083Y-51720809D01*
X136823083Y-51720809D02*
X136727845Y-51768428D01*
X136727845Y-51768428D02*
X136346893Y-51768428D01*
X137918321Y-52149380D02*
X137870702Y-52197000D01*
X137870702Y-52197000D02*
X137727845Y-52244619D01*
X137727845Y-52244619D02*
X137632607Y-52244619D01*
X137632607Y-52244619D02*
X137489750Y-52197000D01*
X137489750Y-52197000D02*
X137394512Y-52101761D01*
X137394512Y-52101761D02*
X137346893Y-52006523D01*
X137346893Y-52006523D02*
X137299274Y-51816047D01*
X137299274Y-51816047D02*
X137299274Y-51673190D01*
X137299274Y-51673190D02*
X137346893Y-51482714D01*
X137346893Y-51482714D02*
X137394512Y-51387476D01*
X137394512Y-51387476D02*
X137489750Y-51292238D01*
X137489750Y-51292238D02*
X137632607Y-51244619D01*
X137632607Y-51244619D02*
X137727845Y-51244619D01*
X137727845Y-51244619D02*
X137870702Y-51292238D01*
X137870702Y-51292238D02*
X137918321Y-51339857D01*
X138680226Y-51720809D02*
X138823083Y-51768428D01*
X138823083Y-51768428D02*
X138870702Y-51816047D01*
X138870702Y-51816047D02*
X138918321Y-51911285D01*
X138918321Y-51911285D02*
X138918321Y-52054142D01*
X138918321Y-52054142D02*
X138870702Y-52149380D01*
X138870702Y-52149380D02*
X138823083Y-52197000D01*
X138823083Y-52197000D02*
X138727845Y-52244619D01*
X138727845Y-52244619D02*
X138346893Y-52244619D01*
X138346893Y-52244619D02*
X138346893Y-51244619D01*
X138346893Y-51244619D02*
X138680226Y-51244619D01*
X138680226Y-51244619D02*
X138775464Y-51292238D01*
X138775464Y-51292238D02*
X138823083Y-51339857D01*
X138823083Y-51339857D02*
X138870702Y-51435095D01*
X138870702Y-51435095D02*
X138870702Y-51530333D01*
X138870702Y-51530333D02*
X138823083Y-51625571D01*
X138823083Y-51625571D02*
X138775464Y-51673190D01*
X138775464Y-51673190D02*
X138680226Y-51720809D01*
X138680226Y-51720809D02*
X138346893Y-51720809D01*
X140108798Y-51863666D02*
X140870703Y-51863666D01*
X142013560Y-51577952D02*
X142251655Y-52244619D01*
X142251655Y-52244619D02*
X142489750Y-51577952D01*
X143394512Y-52244619D02*
X142823084Y-52244619D01*
X143108798Y-52244619D02*
X143108798Y-51244619D01*
X143108798Y-51244619D02*
X143013560Y-51387476D01*
X143013560Y-51387476D02*
X142918322Y-51482714D01*
X142918322Y-51482714D02*
X142823084Y-51530333D01*
X143823084Y-52149380D02*
X143870703Y-52197000D01*
X143870703Y-52197000D02*
X143823084Y-52244619D01*
X143823084Y-52244619D02*
X143775465Y-52197000D01*
X143775465Y-52197000D02*
X143823084Y-52149380D01*
X143823084Y-52149380D02*
X143823084Y-52244619D01*
X144489750Y-51244619D02*
X144584988Y-51244619D01*
X144584988Y-51244619D02*
X144680226Y-51292238D01*
X144680226Y-51292238D02*
X144727845Y-51339857D01*
X144727845Y-51339857D02*
X144775464Y-51435095D01*
X144775464Y-51435095D02*
X144823083Y-51625571D01*
X144823083Y-51625571D02*
X144823083Y-51863666D01*
X144823083Y-51863666D02*
X144775464Y-52054142D01*
X144775464Y-52054142D02*
X144727845Y-52149380D01*
X144727845Y-52149380D02*
X144680226Y-52197000D01*
X144680226Y-52197000D02*
X144584988Y-52244619D01*
X144584988Y-52244619D02*
X144489750Y-52244619D01*
X144489750Y-52244619D02*
X144394512Y-52197000D01*
X144394512Y-52197000D02*
X144346893Y-52149380D01*
X144346893Y-52149380D02*
X144299274Y-52054142D01*
X144299274Y-52054142D02*
X144251655Y-51863666D01*
X144251655Y-51863666D02*
X144251655Y-51625571D01*
X144251655Y-51625571D02*
X144299274Y-51435095D01*
X144299274Y-51435095D02*
X144346893Y-51339857D01*
X144346893Y-51339857D02*
X144394512Y-51292238D01*
X144394512Y-51292238D02*
X144489750Y-51244619D01*
X129156036Y-49569609D02*
X130108417Y-49569609D01*
X128965560Y-50141038D02*
X129632226Y-48141038D01*
X129632226Y-48141038D02*
X130298893Y-50141038D01*
X131822703Y-48807704D02*
X131822703Y-50807704D01*
X131822703Y-50045800D02*
X131632227Y-50141038D01*
X131632227Y-50141038D02*
X131251274Y-50141038D01*
X131251274Y-50141038D02*
X131060798Y-50045800D01*
X131060798Y-50045800D02*
X130965560Y-49950561D01*
X130965560Y-49950561D02*
X130870322Y-49760085D01*
X130870322Y-49760085D02*
X130870322Y-49188657D01*
X130870322Y-49188657D02*
X130965560Y-48998180D01*
X130965560Y-48998180D02*
X131060798Y-48902942D01*
X131060798Y-48902942D02*
X131251274Y-48807704D01*
X131251274Y-48807704D02*
X131632227Y-48807704D01*
X131632227Y-48807704D02*
X131822703Y-48902942D01*
X133632227Y-48807704D02*
X133632227Y-50141038D01*
X132775084Y-48807704D02*
X132775084Y-49855323D01*
X132775084Y-49855323D02*
X132870322Y-50045800D01*
X132870322Y-50045800D02*
X133060798Y-50141038D01*
X133060798Y-50141038D02*
X133346513Y-50141038D01*
X133346513Y-50141038D02*
X133536989Y-50045800D01*
X133536989Y-50045800D02*
X133632227Y-49950561D01*
X135441751Y-50141038D02*
X135441751Y-49093419D01*
X135441751Y-49093419D02*
X135346513Y-48902942D01*
X135346513Y-48902942D02*
X135156037Y-48807704D01*
X135156037Y-48807704D02*
X134775084Y-48807704D01*
X134775084Y-48807704D02*
X134584608Y-48902942D01*
X135441751Y-50045800D02*
X135251275Y-50141038D01*
X135251275Y-50141038D02*
X134775084Y-50141038D01*
X134775084Y-50141038D02*
X134584608Y-50045800D01*
X134584608Y-50045800D02*
X134489370Y-49855323D01*
X134489370Y-49855323D02*
X134489370Y-49664847D01*
X134489370Y-49664847D02*
X134584608Y-49474371D01*
X134584608Y-49474371D02*
X134775084Y-49379133D01*
X134775084Y-49379133D02*
X135251275Y-49379133D01*
X135251275Y-49379133D02*
X135441751Y-49283895D01*
X139060799Y-49950561D02*
X138965561Y-50045800D01*
X138965561Y-50045800D02*
X138679847Y-50141038D01*
X138679847Y-50141038D02*
X138489371Y-50141038D01*
X138489371Y-50141038D02*
X138203656Y-50045800D01*
X138203656Y-50045800D02*
X138013180Y-49855323D01*
X138013180Y-49855323D02*
X137917942Y-49664847D01*
X137917942Y-49664847D02*
X137822704Y-49283895D01*
X137822704Y-49283895D02*
X137822704Y-48998180D01*
X137822704Y-48998180D02*
X137917942Y-48617228D01*
X137917942Y-48617228D02*
X138013180Y-48426752D01*
X138013180Y-48426752D02*
X138203656Y-48236276D01*
X138203656Y-48236276D02*
X138489371Y-48141038D01*
X138489371Y-48141038D02*
X138679847Y-48141038D01*
X138679847Y-48141038D02*
X138965561Y-48236276D01*
X138965561Y-48236276D02*
X139060799Y-48331514D01*
X140203656Y-50141038D02*
X140013180Y-50045800D01*
X140013180Y-50045800D02*
X139917942Y-49950561D01*
X139917942Y-49950561D02*
X139822704Y-49760085D01*
X139822704Y-49760085D02*
X139822704Y-49188657D01*
X139822704Y-49188657D02*
X139917942Y-48998180D01*
X139917942Y-48998180D02*
X140013180Y-48902942D01*
X140013180Y-48902942D02*
X140203656Y-48807704D01*
X140203656Y-48807704D02*
X140489371Y-48807704D01*
X140489371Y-48807704D02*
X140679847Y-48902942D01*
X140679847Y-48902942D02*
X140775085Y-48998180D01*
X140775085Y-48998180D02*
X140870323Y-49188657D01*
X140870323Y-49188657D02*
X140870323Y-49760085D01*
X140870323Y-49760085D02*
X140775085Y-49950561D01*
X140775085Y-49950561D02*
X140679847Y-50045800D01*
X140679847Y-50045800D02*
X140489371Y-50141038D01*
X140489371Y-50141038D02*
X140203656Y-50141038D01*
X141727466Y-48807704D02*
X141727466Y-50141038D01*
X141727466Y-48998180D02*
X141822704Y-48902942D01*
X141822704Y-48902942D02*
X142013180Y-48807704D01*
X142013180Y-48807704D02*
X142298895Y-48807704D01*
X142298895Y-48807704D02*
X142489371Y-48902942D01*
X142489371Y-48902942D02*
X142584609Y-49093419D01*
X142584609Y-49093419D02*
X142584609Y-50141038D01*
X143251276Y-48807704D02*
X144013180Y-48807704D01*
X143536990Y-48141038D02*
X143536990Y-49855323D01*
X143536990Y-49855323D02*
X143632228Y-50045800D01*
X143632228Y-50045800D02*
X143822704Y-50141038D01*
X143822704Y-50141038D02*
X144013180Y-50141038D01*
X144679847Y-50141038D02*
X144679847Y-48807704D01*
X144679847Y-49188657D02*
X144775085Y-48998180D01*
X144775085Y-48998180D02*
X144870323Y-48902942D01*
X144870323Y-48902942D02*
X145060799Y-48807704D01*
X145060799Y-48807704D02*
X145251276Y-48807704D01*
X146203656Y-50141038D02*
X146013180Y-50045800D01*
X146013180Y-50045800D02*
X145917942Y-49950561D01*
X145917942Y-49950561D02*
X145822704Y-49760085D01*
X145822704Y-49760085D02*
X145822704Y-49188657D01*
X145822704Y-49188657D02*
X145917942Y-48998180D01*
X145917942Y-48998180D02*
X146013180Y-48902942D01*
X146013180Y-48902942D02*
X146203656Y-48807704D01*
X146203656Y-48807704D02*
X146489371Y-48807704D01*
X146489371Y-48807704D02*
X146679847Y-48902942D01*
X146679847Y-48902942D02*
X146775085Y-48998180D01*
X146775085Y-48998180D02*
X146870323Y-49188657D01*
X146870323Y-49188657D02*
X146870323Y-49760085D01*
X146870323Y-49760085D02*
X146775085Y-49950561D01*
X146775085Y-49950561D02*
X146679847Y-50045800D01*
X146679847Y-50045800D02*
X146489371Y-50141038D01*
X146489371Y-50141038D02*
X146203656Y-50141038D01*
X148013180Y-50141038D02*
X147822704Y-50045800D01*
X147822704Y-50045800D02*
X147727466Y-49855323D01*
X147727466Y-49855323D02*
X147727466Y-48141038D01*
X154135294Y-50518451D02*
X154611484Y-50518451D01*
X154040056Y-50804166D02*
X154373389Y-49804166D01*
X154373389Y-49804166D02*
X154706722Y-50804166D01*
X155040056Y-50137499D02*
X155040056Y-50804166D01*
X155040056Y-50232737D02*
X155087675Y-50185118D01*
X155087675Y-50185118D02*
X155182913Y-50137499D01*
X155182913Y-50137499D02*
X155325770Y-50137499D01*
X155325770Y-50137499D02*
X155421008Y-50185118D01*
X155421008Y-50185118D02*
X155468627Y-50280356D01*
X155468627Y-50280356D02*
X155468627Y-50804166D01*
X155801961Y-50137499D02*
X156182913Y-50137499D01*
X155944818Y-49804166D02*
X155944818Y-50661308D01*
X155944818Y-50661308D02*
X155992437Y-50756547D01*
X155992437Y-50756547D02*
X156087675Y-50804166D01*
X156087675Y-50804166D02*
X156182913Y-50804166D01*
X156897199Y-50756547D02*
X156801961Y-50804166D01*
X156801961Y-50804166D02*
X156611485Y-50804166D01*
X156611485Y-50804166D02*
X156516247Y-50756547D01*
X156516247Y-50756547D02*
X156468628Y-50661308D01*
X156468628Y-50661308D02*
X156468628Y-50280356D01*
X156468628Y-50280356D02*
X156516247Y-50185118D01*
X156516247Y-50185118D02*
X156611485Y-50137499D01*
X156611485Y-50137499D02*
X156801961Y-50137499D01*
X156801961Y-50137499D02*
X156897199Y-50185118D01*
X156897199Y-50185118D02*
X156944818Y-50280356D01*
X156944818Y-50280356D02*
X156944818Y-50375594D01*
X156944818Y-50375594D02*
X156468628Y-50470832D01*
X157373390Y-50137499D02*
X157373390Y-50804166D01*
X157373390Y-50232737D02*
X157421009Y-50185118D01*
X157421009Y-50185118D02*
X157516247Y-50137499D01*
X157516247Y-50137499D02*
X157659104Y-50137499D01*
X157659104Y-50137499D02*
X157754342Y-50185118D01*
X157754342Y-50185118D02*
X157801961Y-50280356D01*
X157801961Y-50280356D02*
X157801961Y-50804166D01*
X158278152Y-50137499D02*
X158278152Y-50804166D01*
X158278152Y-50232737D02*
X158325771Y-50185118D01*
X158325771Y-50185118D02*
X158421009Y-50137499D01*
X158421009Y-50137499D02*
X158563866Y-50137499D01*
X158563866Y-50137499D02*
X158659104Y-50185118D01*
X158659104Y-50185118D02*
X158706723Y-50280356D01*
X158706723Y-50280356D02*
X158706723Y-50804166D01*
X159611485Y-50804166D02*
X159611485Y-50280356D01*
X159611485Y-50280356D02*
X159563866Y-50185118D01*
X159563866Y-50185118D02*
X159468628Y-50137499D01*
X159468628Y-50137499D02*
X159278152Y-50137499D01*
X159278152Y-50137499D02*
X159182914Y-50185118D01*
X159611485Y-50756547D02*
X159516247Y-50804166D01*
X159516247Y-50804166D02*
X159278152Y-50804166D01*
X159278152Y-50804166D02*
X159182914Y-50756547D01*
X159182914Y-50756547D02*
X159135295Y-50661308D01*
X159135295Y-50661308D02*
X159135295Y-50566070D01*
X159135295Y-50566070D02*
X159182914Y-50470832D01*
X159182914Y-50470832D02*
X159278152Y-50423213D01*
X159278152Y-50423213D02*
X159516247Y-50423213D01*
X159516247Y-50423213D02*
X159611485Y-50375594D01*
X160801962Y-50518451D02*
X161278152Y-50518451D01*
X160706724Y-50804166D02*
X161040057Y-49804166D01*
X161040057Y-49804166D02*
X161373390Y-50804166D01*
X161706724Y-50804166D02*
X161706724Y-50137499D01*
X161706724Y-50327975D02*
X161754343Y-50232737D01*
X161754343Y-50232737D02*
X161801962Y-50185118D01*
X161801962Y-50185118D02*
X161897200Y-50137499D01*
X161897200Y-50137499D02*
X161992438Y-50137499D01*
X162706724Y-50756547D02*
X162611486Y-50804166D01*
X162611486Y-50804166D02*
X162421010Y-50804166D01*
X162421010Y-50804166D02*
X162325772Y-50756547D01*
X162325772Y-50756547D02*
X162278153Y-50661308D01*
X162278153Y-50661308D02*
X162278153Y-50280356D01*
X162278153Y-50280356D02*
X162325772Y-50185118D01*
X162325772Y-50185118D02*
X162421010Y-50137499D01*
X162421010Y-50137499D02*
X162611486Y-50137499D01*
X162611486Y-50137499D02*
X162706724Y-50185118D01*
X162706724Y-50185118D02*
X162754343Y-50280356D01*
X162754343Y-50280356D02*
X162754343Y-50375594D01*
X162754343Y-50375594D02*
X162278153Y-50470832D01*
X163611486Y-50804166D02*
X163611486Y-50280356D01*
X163611486Y-50280356D02*
X163563867Y-50185118D01*
X163563867Y-50185118D02*
X163468629Y-50137499D01*
X163468629Y-50137499D02*
X163278153Y-50137499D01*
X163278153Y-50137499D02*
X163182915Y-50185118D01*
X163611486Y-50756547D02*
X163516248Y-50804166D01*
X163516248Y-50804166D02*
X163278153Y-50804166D01*
X163278153Y-50804166D02*
X163182915Y-50756547D01*
X163182915Y-50756547D02*
X163135296Y-50661308D01*
X163135296Y-50661308D02*
X163135296Y-50566070D01*
X163135296Y-50566070D02*
X163182915Y-50470832D01*
X163182915Y-50470832D02*
X163278153Y-50423213D01*
X163278153Y-50423213D02*
X163516248Y-50423213D01*
X163516248Y-50423213D02*
X163611486Y-50375594D01*
%TO.C,REF\u002A\u002A*%
D11*
X155907033Y-104625463D02*
X155909248Y-104663650D01*
X155910984Y-104721686D01*
X155912099Y-104794980D01*
X155912457Y-104871855D01*
X155912457Y-105131996D01*
X155866526Y-105177927D01*
X155834875Y-105206229D01*
X155807090Y-105217693D01*
X155769115Y-105216968D01*
X155754040Y-105215121D01*
X155706926Y-105209748D01*
X155667956Y-105206669D01*
X155658457Y-105206385D01*
X155626433Y-105208245D01*
X155580632Y-105212914D01*
X155562874Y-105215121D01*
X155519257Y-105218535D01*
X155489945Y-105211120D01*
X155460880Y-105188227D01*
X155450388Y-105177927D01*
X155404457Y-105131996D01*
X155404457Y-104645402D01*
X155441426Y-104628558D01*
X155473259Y-104616082D01*
X155491883Y-104611714D01*
X155496658Y-104625518D01*
X155501121Y-104664086D01*
X155504975Y-104723156D01*
X155507922Y-104798463D01*
X155509343Y-104862086D01*
X155513314Y-105112457D01*
X155547959Y-105117356D01*
X155579468Y-105113931D01*
X155594908Y-105102841D01*
X155599223Y-105082108D01*
X155602908Y-105037945D01*
X155605669Y-104975946D01*
X155607212Y-104901709D01*
X155607435Y-104863506D01*
X155607657Y-104643583D01*
X155653366Y-104627649D01*
X155685718Y-104616815D01*
X155703315Y-104611762D01*
X155703823Y-104611714D01*
X155705588Y-104625448D01*
X155707529Y-104663530D01*
X155709482Y-104721282D01*
X155711284Y-104794027D01*
X155712543Y-104862086D01*
X155716514Y-105112457D01*
X155803600Y-105112457D01*
X155807596Y-104884040D01*
X155811592Y-104655622D01*
X155854047Y-104633668D01*
X155885392Y-104618593D01*
X155903944Y-104611751D01*
X155904479Y-104611714D01*
X155907033Y-104625463D01*
G36*
X155907033Y-104625463D02*
G01*
X155909248Y-104663650D01*
X155910984Y-104721686D01*
X155912099Y-104794980D01*
X155912457Y-104871855D01*
X155912457Y-105131996D01*
X155866526Y-105177927D01*
X155834875Y-105206229D01*
X155807090Y-105217693D01*
X155769115Y-105216968D01*
X155754040Y-105215121D01*
X155706926Y-105209748D01*
X155667956Y-105206669D01*
X155658457Y-105206385D01*
X155626433Y-105208245D01*
X155580632Y-105212914D01*
X155562874Y-105215121D01*
X155519257Y-105218535D01*
X155489945Y-105211120D01*
X155460880Y-105188227D01*
X155450388Y-105177927D01*
X155404457Y-105131996D01*
X155404457Y-104645402D01*
X155441426Y-104628558D01*
X155473259Y-104616082D01*
X155491883Y-104611714D01*
X155496658Y-104625518D01*
X155501121Y-104664086D01*
X155504975Y-104723156D01*
X155507922Y-104798463D01*
X155509343Y-104862086D01*
X155513314Y-105112457D01*
X155547959Y-105117356D01*
X155579468Y-105113931D01*
X155594908Y-105102841D01*
X155599223Y-105082108D01*
X155602908Y-105037945D01*
X155605669Y-104975946D01*
X155607212Y-104901709D01*
X155607435Y-104863506D01*
X155607657Y-104643583D01*
X155653366Y-104627649D01*
X155685718Y-104616815D01*
X155703315Y-104611762D01*
X155703823Y-104611714D01*
X155705588Y-104625448D01*
X155707529Y-104663530D01*
X155709482Y-104721282D01*
X155711284Y-104794027D01*
X155712543Y-104862086D01*
X155716514Y-105112457D01*
X155803600Y-105112457D01*
X155807596Y-104884040D01*
X155811592Y-104655622D01*
X155854047Y-104633668D01*
X155885392Y-104618593D01*
X155903944Y-104611751D01*
X155904479Y-104611714D01*
X155907033Y-104625463D01*
G37*
X151168315Y-104588762D02*
X151236345Y-104624533D01*
X151286551Y-104682101D01*
X151304385Y-104719112D01*
X151318263Y-104774682D01*
X151325367Y-104844896D01*
X151326040Y-104921527D01*
X151320627Y-104996352D01*
X151309470Y-105061142D01*
X151292914Y-105107673D01*
X151287826Y-105115687D01*
X151227555Y-105175507D01*
X151155969Y-105211335D01*
X151078292Y-105221820D01*
X150999748Y-105205610D01*
X150977889Y-105195892D01*
X150935322Y-105165943D01*
X150897963Y-105126233D01*
X150894432Y-105121197D01*
X150880081Y-105096924D01*
X150870594Y-105070978D01*
X150864990Y-105036822D01*
X150862286Y-104987919D01*
X150861499Y-104917735D01*
X150861486Y-104902000D01*
X150861522Y-104896992D01*
X151006629Y-104896992D01*
X151007473Y-104963230D01*
X151010796Y-105007186D01*
X151017783Y-105035579D01*
X151029616Y-105055125D01*
X151035657Y-105061657D01*
X151070386Y-105086480D01*
X151104103Y-105085348D01*
X151138195Y-105063816D01*
X151158529Y-105040829D01*
X151170571Y-105007278D01*
X151177334Y-104954369D01*
X151177798Y-104948199D01*
X151178952Y-104852313D01*
X151166888Y-104781099D01*
X151141770Y-104734994D01*
X151103760Y-104714435D01*
X151090192Y-104713314D01*
X151054564Y-104718952D01*
X151030194Y-104738486D01*
X151015293Y-104775842D01*
X151008075Y-104834950D01*
X151006629Y-104896992D01*
X150861522Y-104896992D01*
X150862026Y-104827213D01*
X150864296Y-104774959D01*
X150869268Y-104738749D01*
X150877913Y-104712099D01*
X150891205Y-104688522D01*
X150894143Y-104684138D01*
X150943513Y-104625049D01*
X150997309Y-104590747D01*
X151062802Y-104577131D01*
X151085042Y-104576465D01*
X151168315Y-104588762D01*
G36*
X151168315Y-104588762D02*
G01*
X151236345Y-104624533D01*
X151286551Y-104682101D01*
X151304385Y-104719112D01*
X151318263Y-104774682D01*
X151325367Y-104844896D01*
X151326040Y-104921527D01*
X151320627Y-104996352D01*
X151309470Y-105061142D01*
X151292914Y-105107673D01*
X151287826Y-105115687D01*
X151227555Y-105175507D01*
X151155969Y-105211335D01*
X151078292Y-105221820D01*
X150999748Y-105205610D01*
X150977889Y-105195892D01*
X150935322Y-105165943D01*
X150897963Y-105126233D01*
X150894432Y-105121197D01*
X150880081Y-105096924D01*
X150870594Y-105070978D01*
X150864990Y-105036822D01*
X150862286Y-104987919D01*
X150861499Y-104917735D01*
X150861486Y-104902000D01*
X150861522Y-104896992D01*
X151006629Y-104896992D01*
X151007473Y-104963230D01*
X151010796Y-105007186D01*
X151017783Y-105035579D01*
X151029616Y-105055125D01*
X151035657Y-105061657D01*
X151070386Y-105086480D01*
X151104103Y-105085348D01*
X151138195Y-105063816D01*
X151158529Y-105040829D01*
X151170571Y-105007278D01*
X151177334Y-104954369D01*
X151177798Y-104948199D01*
X151178952Y-104852313D01*
X151166888Y-104781099D01*
X151141770Y-104734994D01*
X151103760Y-104714435D01*
X151090192Y-104713314D01*
X151054564Y-104718952D01*
X151030194Y-104738486D01*
X151015293Y-104775842D01*
X151008075Y-104834950D01*
X151006629Y-104896992D01*
X150861522Y-104896992D01*
X150862026Y-104827213D01*
X150864296Y-104774959D01*
X150869268Y-104738749D01*
X150877913Y-104712099D01*
X150891205Y-104688522D01*
X150894143Y-104684138D01*
X150943513Y-104625049D01*
X150997309Y-104590747D01*
X151062802Y-104577131D01*
X151085042Y-104576465D01*
X151168315Y-104588762D01*
G37*
X157280795Y-104633766D02*
X157338221Y-104671297D01*
X157365919Y-104704896D01*
X157387862Y-104765864D01*
X157389605Y-104814108D01*
X157385657Y-104878616D01*
X157236886Y-104943734D01*
X157164549Y-104977002D01*
X157117284Y-105003764D01*
X157092707Y-105026944D01*
X157088437Y-105049467D01*
X157102089Y-105074255D01*
X157117143Y-105090686D01*
X157160946Y-105117035D01*
X157208589Y-105118881D01*
X157252345Y-105098346D01*
X157284489Y-105057552D01*
X157290238Y-105043147D01*
X157317776Y-104998156D01*
X157349458Y-104978982D01*
X157392914Y-104962579D01*
X157392914Y-105024766D01*
X157389072Y-105067083D01*
X157374023Y-105102769D01*
X157342480Y-105143743D01*
X157337792Y-105149067D01*
X157302706Y-105185520D01*
X157272547Y-105205083D01*
X157234815Y-105214083D01*
X157203535Y-105217030D01*
X157147585Y-105217765D01*
X157107755Y-105208460D01*
X157082908Y-105194646D01*
X157043856Y-105164267D01*
X157016825Y-105131413D01*
X156999717Y-105090094D01*
X156990438Y-105034321D01*
X156986893Y-104958105D01*
X156986610Y-104919422D01*
X156987572Y-104873047D01*
X157075207Y-104873047D01*
X157076223Y-104897926D01*
X157078756Y-104902000D01*
X157095474Y-104896465D01*
X157131449Y-104881817D01*
X157179531Y-104860990D01*
X157189586Y-104856514D01*
X157250352Y-104825614D01*
X157283832Y-104798457D01*
X157291190Y-104773020D01*
X157273591Y-104747281D01*
X157259056Y-104735909D01*
X157206610Y-104713164D01*
X157157522Y-104716922D01*
X157116427Y-104744684D01*
X157087958Y-104793952D01*
X157078831Y-104833057D01*
X157075207Y-104873047D01*
X156987572Y-104873047D01*
X156988485Y-104829049D01*
X156995396Y-104762184D01*
X157009084Y-104713495D01*
X157031296Y-104677649D01*
X157063774Y-104649313D01*
X157077933Y-104640155D01*
X157142253Y-104616307D01*
X157212673Y-104614806D01*
X157280795Y-104633766D01*
G36*
X157280795Y-104633766D02*
G01*
X157338221Y-104671297D01*
X157365919Y-104704896D01*
X157387862Y-104765864D01*
X157389605Y-104814108D01*
X157385657Y-104878616D01*
X157236886Y-104943734D01*
X157164549Y-104977002D01*
X157117284Y-105003764D01*
X157092707Y-105026944D01*
X157088437Y-105049467D01*
X157102089Y-105074255D01*
X157117143Y-105090686D01*
X157160946Y-105117035D01*
X157208589Y-105118881D01*
X157252345Y-105098346D01*
X157284489Y-105057552D01*
X157290238Y-105043147D01*
X157317776Y-104998156D01*
X157349458Y-104978982D01*
X157392914Y-104962579D01*
X157392914Y-105024766D01*
X157389072Y-105067083D01*
X157374023Y-105102769D01*
X157342480Y-105143743D01*
X157337792Y-105149067D01*
X157302706Y-105185520D01*
X157272547Y-105205083D01*
X157234815Y-105214083D01*
X157203535Y-105217030D01*
X157147585Y-105217765D01*
X157107755Y-105208460D01*
X157082908Y-105194646D01*
X157043856Y-105164267D01*
X157016825Y-105131413D01*
X156999717Y-105090094D01*
X156990438Y-105034321D01*
X156986893Y-104958105D01*
X156986610Y-104919422D01*
X156987572Y-104873047D01*
X157075207Y-104873047D01*
X157076223Y-104897926D01*
X157078756Y-104902000D01*
X157095474Y-104896465D01*
X157131449Y-104881817D01*
X157179531Y-104860990D01*
X157189586Y-104856514D01*
X157250352Y-104825614D01*
X157283832Y-104798457D01*
X157291190Y-104773020D01*
X157273591Y-104747281D01*
X157259056Y-104735909D01*
X157206610Y-104713164D01*
X157157522Y-104716922D01*
X157116427Y-104744684D01*
X157087958Y-104793952D01*
X157078831Y-104833057D01*
X157075207Y-104873047D01*
X156987572Y-104873047D01*
X156988485Y-104829049D01*
X156995396Y-104762184D01*
X157009084Y-104713495D01*
X157031296Y-104677649D01*
X157063774Y-104649313D01*
X157077933Y-104640155D01*
X157142253Y-104616307D01*
X157212673Y-104614806D01*
X157280795Y-104633766D01*
G37*
X152843293Y-104594580D02*
X152889872Y-104621523D01*
X152922257Y-104648266D01*
X152945942Y-104676284D01*
X152962259Y-104710548D01*
X152972539Y-104756027D01*
X152978114Y-104817692D01*
X152980316Y-104900511D01*
X152980571Y-104960046D01*
X152980571Y-105179191D01*
X152918886Y-105206844D01*
X152857200Y-105234497D01*
X152849943Y-104994470D01*
X152846944Y-104904828D01*
X152843798Y-104839762D01*
X152839901Y-104794826D01*
X152834647Y-104765570D01*
X152827431Y-104747548D01*
X152817650Y-104736311D01*
X152814512Y-104733879D01*
X152766961Y-104714883D01*
X152718897Y-104722400D01*
X152690286Y-104742343D01*
X152678647Y-104756475D01*
X152670591Y-104775020D01*
X152665471Y-104803134D01*
X152662641Y-104845973D01*
X152661456Y-104908695D01*
X152661257Y-104974061D01*
X152661218Y-105056068D01*
X152659814Y-105114116D01*
X152655114Y-105153265D01*
X152645187Y-105178580D01*
X152628103Y-105195123D01*
X152601932Y-105207956D01*
X152566975Y-105221291D01*
X152528796Y-105235807D01*
X152533341Y-104978189D01*
X152535171Y-104885319D01*
X152537312Y-104816689D01*
X152540381Y-104767511D01*
X152544994Y-104732998D01*
X152551768Y-104708362D01*
X152561319Y-104688816D01*
X152572834Y-104671570D01*
X152628390Y-104616480D01*
X152696180Y-104584622D01*
X152769913Y-104576991D01*
X152843293Y-104594580D01*
G36*
X152843293Y-104594580D02*
G01*
X152889872Y-104621523D01*
X152922257Y-104648266D01*
X152945942Y-104676284D01*
X152962259Y-104710548D01*
X152972539Y-104756027D01*
X152978114Y-104817692D01*
X152980316Y-104900511D01*
X152980571Y-104960046D01*
X152980571Y-105179191D01*
X152918886Y-105206844D01*
X152857200Y-105234497D01*
X152849943Y-104994470D01*
X152846944Y-104904828D01*
X152843798Y-104839762D01*
X152839901Y-104794826D01*
X152834647Y-104765570D01*
X152827431Y-104747548D01*
X152817650Y-104736311D01*
X152814512Y-104733879D01*
X152766961Y-104714883D01*
X152718897Y-104722400D01*
X152690286Y-104742343D01*
X152678647Y-104756475D01*
X152670591Y-104775020D01*
X152665471Y-104803134D01*
X152662641Y-104845973D01*
X152661456Y-104908695D01*
X152661257Y-104974061D01*
X152661218Y-105056068D01*
X152659814Y-105114116D01*
X152655114Y-105153265D01*
X152645187Y-105178580D01*
X152628103Y-105195123D01*
X152601932Y-105207956D01*
X152566975Y-105221291D01*
X152528796Y-105235807D01*
X152533341Y-104978189D01*
X152535171Y-104885319D01*
X152537312Y-104816689D01*
X152540381Y-104767511D01*
X152544994Y-104732998D01*
X152551768Y-104708362D01*
X152561319Y-104688816D01*
X152572834Y-104671570D01*
X152628390Y-104616480D01*
X152696180Y-104584622D01*
X152769913Y-104576991D01*
X152843293Y-104594580D01*
G37*
X156779800Y-104625552D02*
X156797148Y-104633134D01*
X156838556Y-104665928D01*
X156873965Y-104713347D01*
X156895864Y-104763951D01*
X156899429Y-104788898D01*
X156887479Y-104823727D01*
X156861267Y-104842157D01*
X156833164Y-104853316D01*
X156820295Y-104855372D01*
X156814029Y-104840449D01*
X156801656Y-104807975D01*
X156796228Y-104793302D01*
X156765790Y-104742544D01*
X156721720Y-104717227D01*
X156665210Y-104718006D01*
X156661025Y-104719003D01*
X156630855Y-104733307D01*
X156608676Y-104761193D01*
X156593527Y-104806087D01*
X156584450Y-104871415D01*
X156580486Y-104960604D01*
X156580114Y-105008061D01*
X156579930Y-105082871D01*
X156578722Y-105133869D01*
X156575509Y-105166271D01*
X156569309Y-105185295D01*
X156559140Y-105196156D01*
X156544019Y-105204072D01*
X156543146Y-105204470D01*
X156514028Y-105216781D01*
X156499603Y-105221314D01*
X156497386Y-105207609D01*
X156495489Y-105169725D01*
X156494047Y-105112515D01*
X156493198Y-105040827D01*
X156493029Y-104988365D01*
X156493892Y-104886847D01*
X156497270Y-104809832D01*
X156504342Y-104752823D01*
X156516288Y-104711326D01*
X156534290Y-104680843D01*
X156559527Y-104656880D01*
X156584447Y-104640155D01*
X156644371Y-104617897D01*
X156714111Y-104612876D01*
X156779800Y-104625552D01*
G36*
X156779800Y-104625552D02*
G01*
X156797148Y-104633134D01*
X156838556Y-104665928D01*
X156873965Y-104713347D01*
X156895864Y-104763951D01*
X156899429Y-104788898D01*
X156887479Y-104823727D01*
X156861267Y-104842157D01*
X156833164Y-104853316D01*
X156820295Y-104855372D01*
X156814029Y-104840449D01*
X156801656Y-104807975D01*
X156796228Y-104793302D01*
X156765790Y-104742544D01*
X156721720Y-104717227D01*
X156665210Y-104718006D01*
X156661025Y-104719003D01*
X156630855Y-104733307D01*
X156608676Y-104761193D01*
X156593527Y-104806087D01*
X156584450Y-104871415D01*
X156580486Y-104960604D01*
X156580114Y-105008061D01*
X156579930Y-105082871D01*
X156578722Y-105133869D01*
X156575509Y-105166271D01*
X156569309Y-105185295D01*
X156559140Y-105196156D01*
X156544019Y-105204072D01*
X156543146Y-105204470D01*
X156514028Y-105216781D01*
X156499603Y-105221314D01*
X156497386Y-105207609D01*
X156495489Y-105169725D01*
X156494047Y-105112515D01*
X156493198Y-105040827D01*
X156493029Y-104988365D01*
X156493892Y-104886847D01*
X156497270Y-104809832D01*
X156504342Y-104752823D01*
X156516288Y-104711326D01*
X156534290Y-104680843D01*
X156559527Y-104656880D01*
X156584447Y-104640155D01*
X156644371Y-104617897D01*
X156714111Y-104612876D01*
X156779800Y-104625552D01*
G37*
X155317317Y-104732158D02*
X155317133Y-104840637D01*
X155316419Y-104924087D01*
X155314875Y-104986504D01*
X155312201Y-105031885D01*
X155308094Y-105064229D01*
X155302255Y-105087533D01*
X155294382Y-105105795D01*
X155288421Y-105116218D01*
X155239055Y-105172745D01*
X155176464Y-105208177D01*
X155107213Y-105220890D01*
X155037868Y-105209263D01*
X154996575Y-105188368D01*
X154953225Y-105152222D01*
X154923681Y-105108076D01*
X154905855Y-105050262D01*
X154897663Y-104973113D01*
X154896502Y-104916514D01*
X154896658Y-104912447D01*
X154998057Y-104912447D01*
X154998676Y-104977350D01*
X155001514Y-105020314D01*
X155008040Y-105048422D01*
X155019723Y-105068753D01*
X155033683Y-105084088D01*
X155080565Y-105113690D01*
X155130901Y-105116219D01*
X155178476Y-105091505D01*
X155182179Y-105088156D01*
X155197983Y-105070735D01*
X155207893Y-105050009D01*
X155213258Y-105019162D01*
X155215428Y-104971377D01*
X155215771Y-104918548D01*
X155215027Y-104852181D01*
X155211948Y-104807906D01*
X155205261Y-104778809D01*
X155193696Y-104757973D01*
X155184213Y-104746907D01*
X155140160Y-104718998D01*
X155089424Y-104715643D01*
X155040996Y-104736959D01*
X155031650Y-104744873D01*
X155015740Y-104762447D01*
X155005810Y-104783387D01*
X155000478Y-104814582D01*
X154998363Y-104862922D01*
X154998057Y-104912447D01*
X154896658Y-104912447D01*
X154900010Y-104825368D01*
X154911926Y-104756886D01*
X154934335Y-104705400D01*
X154969324Y-104665243D01*
X154996575Y-104644661D01*
X155046107Y-104622425D01*
X155103516Y-104612104D01*
X155156882Y-104614867D01*
X155186743Y-104626012D01*
X155198461Y-104629183D01*
X155206237Y-104617357D01*
X155211665Y-104585666D01*
X155215771Y-104537393D01*
X155220267Y-104483629D01*
X155226513Y-104451282D01*
X155237876Y-104432785D01*
X155257728Y-104420570D01*
X155270200Y-104415162D01*
X155317371Y-104395401D01*
X155317317Y-104732158D01*
G36*
X155317317Y-104732158D02*
G01*
X155317133Y-104840637D01*
X155316419Y-104924087D01*
X155314875Y-104986504D01*
X155312201Y-105031885D01*
X155308094Y-105064229D01*
X155302255Y-105087533D01*
X155294382Y-105105795D01*
X155288421Y-105116218D01*
X155239055Y-105172745D01*
X155176464Y-105208177D01*
X155107213Y-105220890D01*
X155037868Y-105209263D01*
X154996575Y-105188368D01*
X154953225Y-105152222D01*
X154923681Y-105108076D01*
X154905855Y-105050262D01*
X154897663Y-104973113D01*
X154896502Y-104916514D01*
X154896658Y-104912447D01*
X154998057Y-104912447D01*
X154998676Y-104977350D01*
X155001514Y-105020314D01*
X155008040Y-105048422D01*
X155019723Y-105068753D01*
X155033683Y-105084088D01*
X155080565Y-105113690D01*
X155130901Y-105116219D01*
X155178476Y-105091505D01*
X155182179Y-105088156D01*
X155197983Y-105070735D01*
X155207893Y-105050009D01*
X155213258Y-105019162D01*
X155215428Y-104971377D01*
X155215771Y-104918548D01*
X155215027Y-104852181D01*
X155211948Y-104807906D01*
X155205261Y-104778809D01*
X155193696Y-104757973D01*
X155184213Y-104746907D01*
X155140160Y-104718998D01*
X155089424Y-104715643D01*
X155040996Y-104736959D01*
X155031650Y-104744873D01*
X155015740Y-104762447D01*
X155005810Y-104783387D01*
X155000478Y-104814582D01*
X154998363Y-104862922D01*
X154998057Y-104912447D01*
X154896658Y-104912447D01*
X154900010Y-104825368D01*
X154911926Y-104756886D01*
X154934335Y-104705400D01*
X154969324Y-104665243D01*
X154996575Y-104644661D01*
X155046107Y-104622425D01*
X155103516Y-104612104D01*
X155156882Y-104614867D01*
X155186743Y-104626012D01*
X155198461Y-104629183D01*
X155206237Y-104617357D01*
X155211665Y-104585666D01*
X155215771Y-104537393D01*
X155220267Y-104483629D01*
X155226513Y-104451282D01*
X155237876Y-104432785D01*
X155257728Y-104420570D01*
X155270200Y-104415162D01*
X155317371Y-104395401D01*
X155317317Y-104732158D01*
G37*
X153503086Y-104518089D02*
X153507339Y-104577413D01*
X153512225Y-104612372D01*
X153518995Y-104627620D01*
X153528902Y-104627815D01*
X153532114Y-104625995D01*
X153574844Y-104612815D01*
X153630427Y-104613585D01*
X153686937Y-104627133D01*
X153722282Y-104644661D01*
X153758521Y-104672661D01*
X153785013Y-104704349D01*
X153803199Y-104744613D01*
X153814522Y-104798343D01*
X153820422Y-104870426D01*
X153822343Y-104965751D01*
X153822377Y-104984037D01*
X153822400Y-105189446D01*
X153776691Y-105205380D01*
X153744227Y-105216220D01*
X153726415Y-105221268D01*
X153725891Y-105221314D01*
X153724137Y-105207628D01*
X153722644Y-105169876D01*
X153721526Y-105113024D01*
X153720897Y-105042034D01*
X153720800Y-104998873D01*
X153720598Y-104913773D01*
X153719558Y-104852781D01*
X153717031Y-104810977D01*
X153712364Y-104783442D01*
X153704907Y-104765256D01*
X153694011Y-104751498D01*
X153687207Y-104744873D01*
X153640472Y-104718175D01*
X153589472Y-104716175D01*
X153543201Y-104738755D01*
X153534644Y-104746907D01*
X153522093Y-104762236D01*
X153513388Y-104780418D01*
X153507831Y-104806709D01*
X153504726Y-104846362D01*
X153503376Y-104904632D01*
X153503086Y-104984973D01*
X153503086Y-105189446D01*
X153457377Y-105205380D01*
X153424913Y-105216220D01*
X153407101Y-105221268D01*
X153406577Y-105221314D01*
X153405237Y-105207423D01*
X153404028Y-105168239D01*
X153403001Y-105107500D01*
X153402202Y-105028941D01*
X153401681Y-104936298D01*
X153401486Y-104833309D01*
X153401486Y-104436142D01*
X153448657Y-104416244D01*
X153495829Y-104396347D01*
X153503086Y-104518089D01*
G36*
X153503086Y-104518089D02*
G01*
X153507339Y-104577413D01*
X153512225Y-104612372D01*
X153518995Y-104627620D01*
X153528902Y-104627815D01*
X153532114Y-104625995D01*
X153574844Y-104612815D01*
X153630427Y-104613585D01*
X153686937Y-104627133D01*
X153722282Y-104644661D01*
X153758521Y-104672661D01*
X153785013Y-104704349D01*
X153803199Y-104744613D01*
X153814522Y-104798343D01*
X153820422Y-104870426D01*
X153822343Y-104965751D01*
X153822377Y-104984037D01*
X153822400Y-105189446D01*
X153776691Y-105205380D01*
X153744227Y-105216220D01*
X153726415Y-105221268D01*
X153725891Y-105221314D01*
X153724137Y-105207628D01*
X153722644Y-105169876D01*
X153721526Y-105113024D01*
X153720897Y-105042034D01*
X153720800Y-104998873D01*
X153720598Y-104913773D01*
X153719558Y-104852781D01*
X153717031Y-104810977D01*
X153712364Y-104783442D01*
X153704907Y-104765256D01*
X153694011Y-104751498D01*
X153687207Y-104744873D01*
X153640472Y-104718175D01*
X153589472Y-104716175D01*
X153543201Y-104738755D01*
X153534644Y-104746907D01*
X153522093Y-104762236D01*
X153513388Y-104780418D01*
X153507831Y-104806709D01*
X153504726Y-104846362D01*
X153503376Y-104904632D01*
X153503086Y-104984973D01*
X153503086Y-105189446D01*
X153457377Y-105205380D01*
X153424913Y-105216220D01*
X153407101Y-105221268D01*
X153406577Y-105221314D01*
X153405237Y-105207423D01*
X153404028Y-105168239D01*
X153403001Y-105107500D01*
X153402202Y-105028941D01*
X153401681Y-104936298D01*
X153401486Y-104833309D01*
X153401486Y-104436142D01*
X153448657Y-104416244D01*
X153495829Y-104396347D01*
X153503086Y-104518089D01*
G37*
X154166944Y-104617768D02*
X154223816Y-104638887D01*
X154224467Y-104639293D01*
X154259640Y-104665180D01*
X154285607Y-104695433D01*
X154303870Y-104734858D01*
X154315932Y-104788262D01*
X154323296Y-104860451D01*
X154327464Y-104956232D01*
X154327829Y-104969878D01*
X154333076Y-105175642D01*
X154288916Y-105198478D01*
X154256963Y-105213910D01*
X154237670Y-105221223D01*
X154236778Y-105221314D01*
X154233439Y-105207822D01*
X154230787Y-105171426D01*
X154229156Y-105118252D01*
X154228800Y-105075193D01*
X154228792Y-105005441D01*
X154225603Y-104961637D01*
X154214488Y-104940744D01*
X154190701Y-104939725D01*
X154149496Y-104955541D01*
X154087286Y-104984615D01*
X154041541Y-105008763D01*
X154018013Y-105029713D01*
X154011096Y-105052547D01*
X154011086Y-105053677D01*
X154022499Y-105093012D01*
X154056292Y-105114262D01*
X154108009Y-105117339D01*
X154145261Y-105116806D01*
X154164903Y-105127535D01*
X154177152Y-105153305D01*
X154184202Y-105186137D01*
X154174042Y-105204766D01*
X154170217Y-105207432D01*
X154134201Y-105218140D01*
X154083766Y-105219656D01*
X154031826Y-105212559D01*
X153995022Y-105199588D01*
X153944138Y-105156385D01*
X153915214Y-105096246D01*
X153909486Y-105049262D01*
X153913857Y-105006882D01*
X153929675Y-104972288D01*
X153960997Y-104941563D01*
X154011878Y-104910790D01*
X154086376Y-104876052D01*
X154090914Y-104874088D01*
X154158021Y-104843087D01*
X154199432Y-104817662D01*
X154217181Y-104794814D01*
X154213307Y-104771545D01*
X154189843Y-104744856D01*
X154182827Y-104738714D01*
X154135830Y-104714900D01*
X154087133Y-104715903D01*
X154044722Y-104739251D01*
X154016584Y-104782475D01*
X154013969Y-104790960D01*
X153988508Y-104832108D01*
X153956201Y-104851928D01*
X153909486Y-104871570D01*
X153909486Y-104820750D01*
X153923696Y-104746882D01*
X153965875Y-104679127D01*
X153987824Y-104656461D01*
X154037717Y-104627369D01*
X154101167Y-104614200D01*
X154166944Y-104617768D01*
G36*
X154166944Y-104617768D02*
G01*
X154223816Y-104638887D01*
X154224467Y-104639293D01*
X154259640Y-104665180D01*
X154285607Y-104695433D01*
X154303870Y-104734858D01*
X154315932Y-104788262D01*
X154323296Y-104860451D01*
X154327464Y-104956232D01*
X154327829Y-104969878D01*
X154333076Y-105175642D01*
X154288916Y-105198478D01*
X154256963Y-105213910D01*
X154237670Y-105221223D01*
X154236778Y-105221314D01*
X154233439Y-105207822D01*
X154230787Y-105171426D01*
X154229156Y-105118252D01*
X154228800Y-105075193D01*
X154228792Y-105005441D01*
X154225603Y-104961637D01*
X154214488Y-104940744D01*
X154190701Y-104939725D01*
X154149496Y-104955541D01*
X154087286Y-104984615D01*
X154041541Y-105008763D01*
X154018013Y-105029713D01*
X154011096Y-105052547D01*
X154011086Y-105053677D01*
X154022499Y-105093012D01*
X154056292Y-105114262D01*
X154108009Y-105117339D01*
X154145261Y-105116806D01*
X154164903Y-105127535D01*
X154177152Y-105153305D01*
X154184202Y-105186137D01*
X154174042Y-105204766D01*
X154170217Y-105207432D01*
X154134201Y-105218140D01*
X154083766Y-105219656D01*
X154031826Y-105212559D01*
X153995022Y-105199588D01*
X153944138Y-105156385D01*
X153915214Y-105096246D01*
X153909486Y-105049262D01*
X153913857Y-105006882D01*
X153929675Y-104972288D01*
X153960997Y-104941563D01*
X154011878Y-104910790D01*
X154086376Y-104876052D01*
X154090914Y-104874088D01*
X154158021Y-104843087D01*
X154199432Y-104817662D01*
X154217181Y-104794814D01*
X154213307Y-104771545D01*
X154189843Y-104744856D01*
X154182827Y-104738714D01*
X154135830Y-104714900D01*
X154087133Y-104715903D01*
X154044722Y-104739251D01*
X154016584Y-104782475D01*
X154013969Y-104790960D01*
X153988508Y-104832108D01*
X153956201Y-104851928D01*
X153909486Y-104871570D01*
X153909486Y-104820750D01*
X153923696Y-104746882D01*
X153965875Y-104679127D01*
X153987824Y-104656461D01*
X154037717Y-104627369D01*
X154101167Y-104614200D01*
X154166944Y-104617768D01*
G37*
X154231110Y-99909148D02*
X154309654Y-99909578D01*
X154366498Y-99910742D01*
X154405305Y-99913007D01*
X154429738Y-99916740D01*
X154443462Y-99922306D01*
X154450140Y-99930073D01*
X154453436Y-99940405D01*
X154453756Y-99941743D01*
X154458762Y-99965879D01*
X154468029Y-100013501D01*
X154480592Y-100079541D01*
X154495487Y-100158928D01*
X154511751Y-100246596D01*
X154512319Y-100249675D01*
X154528610Y-100335589D01*
X154543852Y-100411496D01*
X154557061Y-100472845D01*
X154567254Y-100515082D01*
X154573448Y-100533655D01*
X154573743Y-100533984D01*
X154591988Y-100543053D01*
X154629605Y-100558167D01*
X154678471Y-100576062D01*
X154678743Y-100576158D01*
X154740293Y-100599293D01*
X154812857Y-100628765D01*
X154881257Y-100658397D01*
X154884494Y-100659862D01*
X154995902Y-100710426D01*
X155242599Y-100541960D01*
X155318277Y-100490603D01*
X155386831Y-100444689D01*
X155444288Y-100406830D01*
X155486676Y-100379637D01*
X155510025Y-100365721D01*
X155512242Y-100364689D01*
X155529210Y-100369284D01*
X155560901Y-100391455D01*
X155608552Y-100432247D01*
X155673398Y-100492705D01*
X155739597Y-100557027D01*
X155803414Y-100620412D01*
X155860529Y-100678251D01*
X155907505Y-100726975D01*
X155940903Y-100763010D01*
X155957285Y-100782784D01*
X155957894Y-100783802D01*
X155959705Y-100797372D01*
X155952883Y-100819533D01*
X155935740Y-100853278D01*
X155906593Y-100901600D01*
X155863755Y-100967492D01*
X155806648Y-101052317D01*
X155755966Y-101126977D01*
X155710661Y-101193940D01*
X155673350Y-101249316D01*
X155646652Y-101289220D01*
X155633185Y-101309762D01*
X155632337Y-101311156D01*
X155633981Y-101330838D01*
X155646445Y-101369093D01*
X155667248Y-101418689D01*
X155674662Y-101434528D01*
X155707014Y-101505090D01*
X155741528Y-101585153D01*
X155769565Y-101654429D01*
X155789768Y-101705845D01*
X155805815Y-101744919D01*
X155815088Y-101765341D01*
X155816241Y-101766914D01*
X155833296Y-101769521D01*
X155873498Y-101776663D01*
X155931502Y-101787323D01*
X156001963Y-101800485D01*
X156079535Y-101815133D01*
X156158872Y-101830249D01*
X156234631Y-101844818D01*
X156301464Y-101857822D01*
X156354028Y-101868245D01*
X156386976Y-101875070D01*
X156395057Y-101876999D01*
X156403405Y-101881762D01*
X156409706Y-101892518D01*
X156414245Y-101912898D01*
X156417304Y-101946534D01*
X156419167Y-101997055D01*
X156420118Y-102068092D01*
X156420440Y-102163276D01*
X156420457Y-102202292D01*
X156420457Y-102519599D01*
X156344257Y-102534639D01*
X156301863Y-102542795D01*
X156238600Y-102554699D01*
X156162162Y-102568916D01*
X156080243Y-102584010D01*
X156057600Y-102588155D01*
X155982006Y-102602853D01*
X155916153Y-102617305D01*
X155865566Y-102630175D01*
X155835774Y-102640122D01*
X155830812Y-102643087D01*
X155818626Y-102664083D01*
X155801153Y-102704767D01*
X155781777Y-102757122D01*
X155777934Y-102768400D01*
X155752539Y-102838323D01*
X155721017Y-102917218D01*
X155690169Y-102988066D01*
X155690017Y-102988395D01*
X155638647Y-103099533D01*
X155807599Y-103348053D01*
X155976552Y-103596572D01*
X155759629Y-103813858D01*
X155694019Y-103878526D01*
X155634179Y-103935533D01*
X155583467Y-103981833D01*
X155545246Y-104014384D01*
X155522875Y-104030143D01*
X155519666Y-104031143D01*
X155500826Y-104023269D01*
X155462380Y-104001378D01*
X155408530Y-103968067D01*
X155343476Y-103925931D01*
X155273140Y-103878743D01*
X155201755Y-103830610D01*
X155138108Y-103788728D01*
X155086241Y-103755671D01*
X155050195Y-103734018D01*
X155034067Y-103726343D01*
X155014389Y-103732837D01*
X154977075Y-103749950D01*
X154929821Y-103774126D01*
X154924812Y-103776813D01*
X154861177Y-103808727D01*
X154817541Y-103824379D01*
X154790402Y-103824545D01*
X154776257Y-103810004D01*
X154776175Y-103809800D01*
X154769105Y-103792579D01*
X154752242Y-103751699D01*
X154726895Y-103690325D01*
X154694371Y-103611619D01*
X154655978Y-103518747D01*
X154613022Y-103414872D01*
X154571422Y-103314302D01*
X154525704Y-103203316D01*
X154483726Y-103100503D01*
X154446748Y-103009015D01*
X154416027Y-102932001D01*
X154392822Y-102872615D01*
X154378390Y-102834009D01*
X154373943Y-102819600D01*
X154385096Y-102803072D01*
X154414269Y-102776730D01*
X154453171Y-102747687D01*
X154563957Y-102655839D01*
X154650551Y-102550559D01*
X154711916Y-102434066D01*
X154747015Y-102308576D01*
X154754808Y-102176307D01*
X154749143Y-102115257D01*
X154718278Y-101988595D01*
X154665120Y-101876741D01*
X154592967Y-101780801D01*
X154505117Y-101701876D01*
X154404865Y-101641070D01*
X154295510Y-101599487D01*
X154180347Y-101578228D01*
X154062675Y-101578399D01*
X153945790Y-101601101D01*
X153832989Y-101647438D01*
X153727569Y-101718513D01*
X153683568Y-101758711D01*
X153599179Y-101861929D01*
X153540422Y-101974725D01*
X153506904Y-102093810D01*
X153498235Y-102215895D01*
X153514023Y-102337693D01*
X153553878Y-102455916D01*
X153617407Y-102567275D01*
X153704221Y-102668484D01*
X153801229Y-102747687D01*
X153841637Y-102777962D01*
X153870182Y-102804019D01*
X153880457Y-102819625D01*
X153875077Y-102836643D01*
X153859775Y-102877300D01*
X153835812Y-102938442D01*
X153804444Y-103016919D01*
X153766932Y-103109580D01*
X153724533Y-103213272D01*
X153682863Y-103314326D01*
X153636890Y-103425407D01*
X153594307Y-103528341D01*
X153556421Y-103619965D01*
X153524540Y-103697116D01*
X153499971Y-103756631D01*
X153484020Y-103795344D01*
X153478110Y-103809800D01*
X153464148Y-103824485D01*
X153437140Y-103824442D01*
X153393613Y-103808899D01*
X153330090Y-103777084D01*
X153329588Y-103776813D01*
X153281760Y-103752123D01*
X153243097Y-103734138D01*
X153221295Y-103726414D01*
X153220333Y-103726343D01*
X153203921Y-103734178D01*
X153167687Y-103755965D01*
X153115674Y-103789128D01*
X153051925Y-103831091D01*
X152981260Y-103878743D01*
X152909316Y-103926991D01*
X152844474Y-103968951D01*
X152790935Y-104002027D01*
X152752897Y-104023621D01*
X152734733Y-104031143D01*
X152718008Y-104021257D01*
X152684380Y-103993626D01*
X152637210Y-103951295D01*
X152579858Y-103897305D01*
X152515684Y-103834699D01*
X152494697Y-103813783D01*
X152277699Y-103596423D01*
X152442868Y-103354020D01*
X152493064Y-103279581D01*
X152537119Y-103212772D01*
X152572562Y-103157465D01*
X152596919Y-103117529D01*
X152607722Y-103096836D01*
X152608038Y-103095363D01*
X152602343Y-103075858D01*
X152587026Y-103036622D01*
X152564737Y-102984230D01*
X152549093Y-102949155D01*
X152519841Y-102882001D01*
X152492294Y-102814158D01*
X152470937Y-102756834D01*
X152465135Y-102739372D01*
X152448652Y-102692738D01*
X152432540Y-102656705D01*
X152423690Y-102643087D01*
X152404160Y-102634752D01*
X152361534Y-102622937D01*
X152301345Y-102608981D01*
X152229122Y-102594222D01*
X152196800Y-102588155D01*
X152114722Y-102573073D01*
X152035995Y-102558469D01*
X151968309Y-102545780D01*
X151919360Y-102536442D01*
X151910143Y-102534639D01*
X151833943Y-102519599D01*
X151833943Y-102202292D01*
X151834114Y-102097954D01*
X151834816Y-102019013D01*
X151836334Y-101961838D01*
X151838949Y-101922799D01*
X151842946Y-101898265D01*
X151848609Y-101884605D01*
X151856220Y-101878189D01*
X151859343Y-101876999D01*
X151878178Y-101872780D01*
X151919788Y-101864362D01*
X151978830Y-101852761D01*
X152049957Y-101838995D01*
X152127825Y-101824080D01*
X152207087Y-101809032D01*
X152282398Y-101794869D01*
X152348413Y-101782606D01*
X152399787Y-101773261D01*
X152431175Y-101767850D01*
X152438159Y-101766914D01*
X152444485Y-101754396D01*
X152458490Y-101721046D01*
X152477555Y-101673177D01*
X152484834Y-101654429D01*
X152514196Y-101581995D01*
X152548771Y-101501970D01*
X152579737Y-101434528D01*
X152602523Y-101382959D01*
X152617682Y-101340585D01*
X152622742Y-101314634D01*
X152621936Y-101311156D01*
X152611241Y-101294736D01*
X152586820Y-101258217D01*
X152551295Y-101205487D01*
X152507287Y-101140435D01*
X152457417Y-101066951D01*
X152447556Y-101052445D01*
X152389692Y-100966504D01*
X152347156Y-100901061D01*
X152318254Y-100853104D01*
X152301290Y-100819620D01*
X152294567Y-100797595D01*
X152296390Y-100784017D01*
X152296436Y-100783931D01*
X152310786Y-100766097D01*
X152342523Y-100731617D01*
X152388210Y-100684068D01*
X152444404Y-100627022D01*
X152507668Y-100564055D01*
X152514802Y-100557027D01*
X152594530Y-100479820D01*
X152656057Y-100423130D01*
X152700621Y-100385910D01*
X152729457Y-100367115D01*
X152742158Y-100364689D01*
X152760694Y-100375271D01*
X152799161Y-100399716D01*
X152853586Y-100435412D01*
X152919998Y-100479747D01*
X152994425Y-100530111D01*
X153011801Y-100541960D01*
X153258497Y-100710426D01*
X153369906Y-100659862D01*
X153437657Y-100630395D01*
X153510383Y-100600759D01*
X153572903Y-100577130D01*
X153575657Y-100576158D01*
X153624560Y-100558257D01*
X153662257Y-100543120D01*
X153680625Y-100534010D01*
X153680656Y-100533984D01*
X153686485Y-100517517D01*
X153696392Y-100477019D01*
X153709395Y-100417042D01*
X153724509Y-100342140D01*
X153740752Y-100256864D01*
X153742081Y-100249675D01*
X153758375Y-100161814D01*
X153773333Y-100082060D01*
X153785991Y-100015481D01*
X153795386Y-99967147D01*
X153800554Y-99942125D01*
X153800644Y-99941743D01*
X153803789Y-99931099D01*
X153809904Y-99923062D01*
X153822653Y-99917267D01*
X153845700Y-99913347D01*
X153882709Y-99910935D01*
X153937344Y-99909665D01*
X154013267Y-99909171D01*
X154114144Y-99909086D01*
X154127200Y-99909086D01*
X154231110Y-99909148D01*
G36*
X154231110Y-99909148D02*
G01*
X154309654Y-99909578D01*
X154366498Y-99910742D01*
X154405305Y-99913007D01*
X154429738Y-99916740D01*
X154443462Y-99922306D01*
X154450140Y-99930073D01*
X154453436Y-99940405D01*
X154453756Y-99941743D01*
X154458762Y-99965879D01*
X154468029Y-100013501D01*
X154480592Y-100079541D01*
X154495487Y-100158928D01*
X154511751Y-100246596D01*
X154512319Y-100249675D01*
X154528610Y-100335589D01*
X154543852Y-100411496D01*
X154557061Y-100472845D01*
X154567254Y-100515082D01*
X154573448Y-100533655D01*
X154573743Y-100533984D01*
X154591988Y-100543053D01*
X154629605Y-100558167D01*
X154678471Y-100576062D01*
X154678743Y-100576158D01*
X154740293Y-100599293D01*
X154812857Y-100628765D01*
X154881257Y-100658397D01*
X154884494Y-100659862D01*
X154995902Y-100710426D01*
X155242599Y-100541960D01*
X155318277Y-100490603D01*
X155386831Y-100444689D01*
X155444288Y-100406830D01*
X155486676Y-100379637D01*
X155510025Y-100365721D01*
X155512242Y-100364689D01*
X155529210Y-100369284D01*
X155560901Y-100391455D01*
X155608552Y-100432247D01*
X155673398Y-100492705D01*
X155739597Y-100557027D01*
X155803414Y-100620412D01*
X155860529Y-100678251D01*
X155907505Y-100726975D01*
X155940903Y-100763010D01*
X155957285Y-100782784D01*
X155957894Y-100783802D01*
X155959705Y-100797372D01*
X155952883Y-100819533D01*
X155935740Y-100853278D01*
X155906593Y-100901600D01*
X155863755Y-100967492D01*
X155806648Y-101052317D01*
X155755966Y-101126977D01*
X155710661Y-101193940D01*
X155673350Y-101249316D01*
X155646652Y-101289220D01*
X155633185Y-101309762D01*
X155632337Y-101311156D01*
X155633981Y-101330838D01*
X155646445Y-101369093D01*
X155667248Y-101418689D01*
X155674662Y-101434528D01*
X155707014Y-101505090D01*
X155741528Y-101585153D01*
X155769565Y-101654429D01*
X155789768Y-101705845D01*
X155805815Y-101744919D01*
X155815088Y-101765341D01*
X155816241Y-101766914D01*
X155833296Y-101769521D01*
X155873498Y-101776663D01*
X155931502Y-101787323D01*
X156001963Y-101800485D01*
X156079535Y-101815133D01*
X156158872Y-101830249D01*
X156234631Y-101844818D01*
X156301464Y-101857822D01*
X156354028Y-101868245D01*
X156386976Y-101875070D01*
X156395057Y-101876999D01*
X156403405Y-101881762D01*
X156409706Y-101892518D01*
X156414245Y-101912898D01*
X156417304Y-101946534D01*
X156419167Y-101997055D01*
X156420118Y-102068092D01*
X156420440Y-102163276D01*
X156420457Y-102202292D01*
X156420457Y-102519599D01*
X156344257Y-102534639D01*
X156301863Y-102542795D01*
X156238600Y-102554699D01*
X156162162Y-102568916D01*
X156080243Y-102584010D01*
X156057600Y-102588155D01*
X155982006Y-102602853D01*
X155916153Y-102617305D01*
X155865566Y-102630175D01*
X155835774Y-102640122D01*
X155830812Y-102643087D01*
X155818626Y-102664083D01*
X155801153Y-102704767D01*
X155781777Y-102757122D01*
X155777934Y-102768400D01*
X155752539Y-102838323D01*
X155721017Y-102917218D01*
X155690169Y-102988066D01*
X155690017Y-102988395D01*
X155638647Y-103099533D01*
X155807599Y-103348053D01*
X155976552Y-103596572D01*
X155759629Y-103813858D01*
X155694019Y-103878526D01*
X155634179Y-103935533D01*
X155583467Y-103981833D01*
X155545246Y-104014384D01*
X155522875Y-104030143D01*
X155519666Y-104031143D01*
X155500826Y-104023269D01*
X155462380Y-104001378D01*
X155408530Y-103968067D01*
X155343476Y-103925931D01*
X155273140Y-103878743D01*
X155201755Y-103830610D01*
X155138108Y-103788728D01*
X155086241Y-103755671D01*
X155050195Y-103734018D01*
X155034067Y-103726343D01*
X155014389Y-103732837D01*
X154977075Y-103749950D01*
X154929821Y-103774126D01*
X154924812Y-103776813D01*
X154861177Y-103808727D01*
X154817541Y-103824379D01*
X154790402Y-103824545D01*
X154776257Y-103810004D01*
X154776175Y-103809800D01*
X154769105Y-103792579D01*
X154752242Y-103751699D01*
X154726895Y-103690325D01*
X154694371Y-103611619D01*
X154655978Y-103518747D01*
X154613022Y-103414872D01*
X154571422Y-103314302D01*
X154525704Y-103203316D01*
X154483726Y-103100503D01*
X154446748Y-103009015D01*
X154416027Y-102932001D01*
X154392822Y-102872615D01*
X154378390Y-102834009D01*
X154373943Y-102819600D01*
X154385096Y-102803072D01*
X154414269Y-102776730D01*
X154453171Y-102747687D01*
X154563957Y-102655839D01*
X154650551Y-102550559D01*
X154711916Y-102434066D01*
X154747015Y-102308576D01*
X154754808Y-102176307D01*
X154749143Y-102115257D01*
X154718278Y-101988595D01*
X154665120Y-101876741D01*
X154592967Y-101780801D01*
X154505117Y-101701876D01*
X154404865Y-101641070D01*
X154295510Y-101599487D01*
X154180347Y-101578228D01*
X154062675Y-101578399D01*
X153945790Y-101601101D01*
X153832989Y-101647438D01*
X153727569Y-101718513D01*
X153683568Y-101758711D01*
X153599179Y-101861929D01*
X153540422Y-101974725D01*
X153506904Y-102093810D01*
X153498235Y-102215895D01*
X153514023Y-102337693D01*
X153553878Y-102455916D01*
X153617407Y-102567275D01*
X153704221Y-102668484D01*
X153801229Y-102747687D01*
X153841637Y-102777962D01*
X153870182Y-102804019D01*
X153880457Y-102819625D01*
X153875077Y-102836643D01*
X153859775Y-102877300D01*
X153835812Y-102938442D01*
X153804444Y-103016919D01*
X153766932Y-103109580D01*
X153724533Y-103213272D01*
X153682863Y-103314326D01*
X153636890Y-103425407D01*
X153594307Y-103528341D01*
X153556421Y-103619965D01*
X153524540Y-103697116D01*
X153499971Y-103756631D01*
X153484020Y-103795344D01*
X153478110Y-103809800D01*
X153464148Y-103824485D01*
X153437140Y-103824442D01*
X153393613Y-103808899D01*
X153330090Y-103777084D01*
X153329588Y-103776813D01*
X153281760Y-103752123D01*
X153243097Y-103734138D01*
X153221295Y-103726414D01*
X153220333Y-103726343D01*
X153203921Y-103734178D01*
X153167687Y-103755965D01*
X153115674Y-103789128D01*
X153051925Y-103831091D01*
X152981260Y-103878743D01*
X152909316Y-103926991D01*
X152844474Y-103968951D01*
X152790935Y-104002027D01*
X152752897Y-104023621D01*
X152734733Y-104031143D01*
X152718008Y-104021257D01*
X152684380Y-103993626D01*
X152637210Y-103951295D01*
X152579858Y-103897305D01*
X152515684Y-103834699D01*
X152494697Y-103813783D01*
X152277699Y-103596423D01*
X152442868Y-103354020D01*
X152493064Y-103279581D01*
X152537119Y-103212772D01*
X152572562Y-103157465D01*
X152596919Y-103117529D01*
X152607722Y-103096836D01*
X152608038Y-103095363D01*
X152602343Y-103075858D01*
X152587026Y-103036622D01*
X152564737Y-102984230D01*
X152549093Y-102949155D01*
X152519841Y-102882001D01*
X152492294Y-102814158D01*
X152470937Y-102756834D01*
X152465135Y-102739372D01*
X152448652Y-102692738D01*
X152432540Y-102656705D01*
X152423690Y-102643087D01*
X152404160Y-102634752D01*
X152361534Y-102622937D01*
X152301345Y-102608981D01*
X152229122Y-102594222D01*
X152196800Y-102588155D01*
X152114722Y-102573073D01*
X152035995Y-102558469D01*
X151968309Y-102545780D01*
X151919360Y-102536442D01*
X151910143Y-102534639D01*
X151833943Y-102519599D01*
X151833943Y-102202292D01*
X151834114Y-102097954D01*
X151834816Y-102019013D01*
X151836334Y-101961838D01*
X151838949Y-101922799D01*
X151842946Y-101898265D01*
X151848609Y-101884605D01*
X151856220Y-101878189D01*
X151859343Y-101876999D01*
X151878178Y-101872780D01*
X151919788Y-101864362D01*
X151978830Y-101852761D01*
X152049957Y-101838995D01*
X152127825Y-101824080D01*
X152207087Y-101809032D01*
X152282398Y-101794869D01*
X152348413Y-101782606D01*
X152399787Y-101773261D01*
X152431175Y-101767850D01*
X152438159Y-101766914D01*
X152444485Y-101754396D01*
X152458490Y-101721046D01*
X152477555Y-101673177D01*
X152484834Y-101654429D01*
X152514196Y-101581995D01*
X152548771Y-101501970D01*
X152579737Y-101434528D01*
X152602523Y-101382959D01*
X152617682Y-101340585D01*
X152622742Y-101314634D01*
X152621936Y-101311156D01*
X152611241Y-101294736D01*
X152586820Y-101258217D01*
X152551295Y-101205487D01*
X152507287Y-101140435D01*
X152457417Y-101066951D01*
X152447556Y-101052445D01*
X152389692Y-100966504D01*
X152347156Y-100901061D01*
X152318254Y-100853104D01*
X152301290Y-100819620D01*
X152294567Y-100797595D01*
X152296390Y-100784017D01*
X152296436Y-100783931D01*
X152310786Y-100766097D01*
X152342523Y-100731617D01*
X152388210Y-100684068D01*
X152444404Y-100627022D01*
X152507668Y-100564055D01*
X152514802Y-100557027D01*
X152594530Y-100479820D01*
X152656057Y-100423130D01*
X152700621Y-100385910D01*
X152729457Y-100367115D01*
X152742158Y-100364689D01*
X152760694Y-100375271D01*
X152799161Y-100399716D01*
X152853586Y-100435412D01*
X152919998Y-100479747D01*
X152994425Y-100530111D01*
X153011801Y-100541960D01*
X153258497Y-100710426D01*
X153369906Y-100659862D01*
X153437657Y-100630395D01*
X153510383Y-100600759D01*
X153572903Y-100577130D01*
X153575657Y-100576158D01*
X153624560Y-100558257D01*
X153662257Y-100543120D01*
X153680625Y-100534010D01*
X153680656Y-100533984D01*
X153686485Y-100517517D01*
X153696392Y-100477019D01*
X153709395Y-100417042D01*
X153724509Y-100342140D01*
X153740752Y-100256864D01*
X153742081Y-100249675D01*
X153758375Y-100161814D01*
X153773333Y-100082060D01*
X153785991Y-100015481D01*
X153795386Y-99967147D01*
X153800554Y-99942125D01*
X153800644Y-99941743D01*
X153803789Y-99931099D01*
X153809904Y-99923062D01*
X153822653Y-99917267D01*
X153845700Y-99913347D01*
X153882709Y-99910935D01*
X153937344Y-99909665D01*
X154013267Y-99909171D01*
X154114144Y-99909086D01*
X154127200Y-99909086D01*
X154231110Y-99909148D01*
G37*
X156272076Y-104623135D02*
X156313867Y-104642144D01*
X156346669Y-104665178D01*
X156370703Y-104690933D01*
X156387297Y-104724158D01*
X156397777Y-104769600D01*
X156403471Y-104832007D01*
X156405707Y-104916127D01*
X156405943Y-104971521D01*
X156405943Y-105187626D01*
X156368974Y-105204470D01*
X156339856Y-105216781D01*
X156325431Y-105221314D01*
X156322672Y-105207825D01*
X156320482Y-105171453D01*
X156319142Y-105118342D01*
X156318857Y-105076172D01*
X156317634Y-105015247D01*
X156314336Y-104966915D01*
X156309521Y-104937318D01*
X156305696Y-104931029D01*
X156279983Y-104937452D01*
X156239618Y-104953925D01*
X156192879Y-104976258D01*
X156148045Y-105000257D01*
X156113393Y-105021730D01*
X156097202Y-105036485D01*
X156097138Y-105036645D01*
X156098530Y-105063952D01*
X156111018Y-105090019D01*
X156132943Y-105111192D01*
X156164943Y-105118274D01*
X156192292Y-105117449D01*
X156231026Y-105116842D01*
X156251358Y-105125916D01*
X156263569Y-105149892D01*
X156265109Y-105154413D01*
X156270403Y-105188606D01*
X156256247Y-105209368D01*
X156219348Y-105219262D01*
X156179489Y-105221092D01*
X156107762Y-105207527D01*
X156070632Y-105188155D01*
X156024776Y-105142645D01*
X156000456Y-105086783D01*
X155998273Y-105027757D01*
X156018829Y-104972753D01*
X156049749Y-104938286D01*
X156080620Y-104918989D01*
X156129142Y-104894559D01*
X156185685Y-104869785D01*
X156195110Y-104865999D01*
X156257219Y-104838591D01*
X156293022Y-104814434D01*
X156304537Y-104790419D01*
X156293780Y-104763435D01*
X156275314Y-104742343D01*
X156231669Y-104716372D01*
X156183646Y-104714424D01*
X156139606Y-104734437D01*
X156107909Y-104774351D01*
X156103749Y-104784648D01*
X156079527Y-104822524D01*
X156044165Y-104850642D01*
X155999543Y-104873717D01*
X155999543Y-104808285D01*
X156002169Y-104768306D01*
X156013430Y-104736797D01*
X156038399Y-104703178D01*
X156062369Y-104677284D01*
X156099641Y-104640617D01*
X156128601Y-104620921D01*
X156159705Y-104613020D01*
X156194913Y-104611714D01*
X156272076Y-104623135D01*
G36*
X156272076Y-104623135D02*
G01*
X156313867Y-104642144D01*
X156346669Y-104665178D01*
X156370703Y-104690933D01*
X156387297Y-104724158D01*
X156397777Y-104769600D01*
X156403471Y-104832007D01*
X156405707Y-104916127D01*
X156405943Y-104971521D01*
X156405943Y-105187626D01*
X156368974Y-105204470D01*
X156339856Y-105216781D01*
X156325431Y-105221314D01*
X156322672Y-105207825D01*
X156320482Y-105171453D01*
X156319142Y-105118342D01*
X156318857Y-105076172D01*
X156317634Y-105015247D01*
X156314336Y-104966915D01*
X156309521Y-104937318D01*
X156305696Y-104931029D01*
X156279983Y-104937452D01*
X156239618Y-104953925D01*
X156192879Y-104976258D01*
X156148045Y-105000257D01*
X156113393Y-105021730D01*
X156097202Y-105036485D01*
X156097138Y-105036645D01*
X156098530Y-105063952D01*
X156111018Y-105090019D01*
X156132943Y-105111192D01*
X156164943Y-105118274D01*
X156192292Y-105117449D01*
X156231026Y-105116842D01*
X156251358Y-105125916D01*
X156263569Y-105149892D01*
X156265109Y-105154413D01*
X156270403Y-105188606D01*
X156256247Y-105209368D01*
X156219348Y-105219262D01*
X156179489Y-105221092D01*
X156107762Y-105207527D01*
X156070632Y-105188155D01*
X156024776Y-105142645D01*
X156000456Y-105086783D01*
X155998273Y-105027757D01*
X156018829Y-104972753D01*
X156049749Y-104938286D01*
X156080620Y-104918989D01*
X156129142Y-104894559D01*
X156185685Y-104869785D01*
X156195110Y-104865999D01*
X156257219Y-104838591D01*
X156293022Y-104814434D01*
X156304537Y-104790419D01*
X156293780Y-104763435D01*
X156275314Y-104742343D01*
X156231669Y-104716372D01*
X156183646Y-104714424D01*
X156139606Y-104734437D01*
X156107909Y-104774351D01*
X156103749Y-104784648D01*
X156079527Y-104822524D01*
X156044165Y-104850642D01*
X155999543Y-104873717D01*
X155999543Y-104808285D01*
X156002169Y-104768306D01*
X156013430Y-104736797D01*
X156038399Y-104703178D01*
X156062369Y-104677284D01*
X156099641Y-104640617D01*
X156128601Y-104620921D01*
X156159705Y-104613020D01*
X156194913Y-104611714D01*
X156272076Y-104623135D01*
G37*
X152295503Y-104598039D02*
X152352727Y-104636535D01*
X152396949Y-104692135D01*
X152423367Y-104762886D01*
X152428710Y-104814962D01*
X152428103Y-104836693D01*
X152423022Y-104853331D01*
X152409055Y-104868237D01*
X152381789Y-104884773D01*
X152336812Y-104906298D01*
X152269711Y-104936174D01*
X152269371Y-104936324D01*
X152207607Y-104964613D01*
X152156959Y-104989733D01*
X152122604Y-105008979D01*
X152109718Y-105019648D01*
X152109714Y-105019734D01*
X152121072Y-105042966D01*
X152147631Y-105068574D01*
X152178123Y-105087021D01*
X152193570Y-105090686D01*
X152235715Y-105078012D01*
X152272008Y-105046271D01*
X152289717Y-105011372D01*
X152306752Y-104985645D01*
X152340122Y-104956346D01*
X152379349Y-104931035D01*
X152413956Y-104917271D01*
X152421193Y-104916514D01*
X152429339Y-104928960D01*
X152429830Y-104960772D01*
X152423843Y-105003666D01*
X152412557Y-105049358D01*
X152397150Y-105089561D01*
X152396371Y-105091122D01*
X152350004Y-105155862D01*
X152289911Y-105199897D01*
X152221665Y-105221511D01*
X152150838Y-105218985D01*
X152083004Y-105190604D01*
X152079988Y-105188608D01*
X152026627Y-105140248D01*
X151991540Y-105077152D01*
X151972122Y-104994187D01*
X151969516Y-104970878D01*
X151964901Y-104860855D01*
X151970433Y-104809548D01*
X152109714Y-104809548D01*
X152111524Y-104841553D01*
X152121422Y-104850893D01*
X152146098Y-104843905D01*
X152184995Y-104827387D01*
X152228475Y-104806681D01*
X152229556Y-104806133D01*
X152266409Y-104786749D01*
X152281200Y-104773813D01*
X152277553Y-104760251D01*
X152262195Y-104742432D01*
X152223123Y-104716645D01*
X152181046Y-104714750D01*
X152143303Y-104733517D01*
X152117234Y-104769715D01*
X152109714Y-104809548D01*
X151970433Y-104809548D01*
X151974394Y-104772827D01*
X151998750Y-104703012D01*
X152032656Y-104654102D01*
X152093853Y-104604678D01*
X152161263Y-104580159D01*
X152230080Y-104578597D01*
X152295503Y-104598039D01*
G36*
X152295503Y-104598039D02*
G01*
X152352727Y-104636535D01*
X152396949Y-104692135D01*
X152423367Y-104762886D01*
X152428710Y-104814962D01*
X152428103Y-104836693D01*
X152423022Y-104853331D01*
X152409055Y-104868237D01*
X152381789Y-104884773D01*
X152336812Y-104906298D01*
X152269711Y-104936174D01*
X152269371Y-104936324D01*
X152207607Y-104964613D01*
X152156959Y-104989733D01*
X152122604Y-105008979D01*
X152109718Y-105019648D01*
X152109714Y-105019734D01*
X152121072Y-105042966D01*
X152147631Y-105068574D01*
X152178123Y-105087021D01*
X152193570Y-105090686D01*
X152235715Y-105078012D01*
X152272008Y-105046271D01*
X152289717Y-105011372D01*
X152306752Y-104985645D01*
X152340122Y-104956346D01*
X152379349Y-104931035D01*
X152413956Y-104917271D01*
X152421193Y-104916514D01*
X152429339Y-104928960D01*
X152429830Y-104960772D01*
X152423843Y-105003666D01*
X152412557Y-105049358D01*
X152397150Y-105089561D01*
X152396371Y-105091122D01*
X152350004Y-105155862D01*
X152289911Y-105199897D01*
X152221665Y-105221511D01*
X152150838Y-105218985D01*
X152083004Y-105190604D01*
X152079988Y-105188608D01*
X152026627Y-105140248D01*
X151991540Y-105077152D01*
X151972122Y-104994187D01*
X151969516Y-104970878D01*
X151964901Y-104860855D01*
X151970433Y-104809548D01*
X152109714Y-104809548D01*
X152111524Y-104841553D01*
X152121422Y-104850893D01*
X152146098Y-104843905D01*
X152184995Y-104827387D01*
X152228475Y-104806681D01*
X152229556Y-104806133D01*
X152266409Y-104786749D01*
X152281200Y-104773813D01*
X152277553Y-104760251D01*
X152262195Y-104742432D01*
X152223123Y-104716645D01*
X152181046Y-104714750D01*
X152143303Y-104733517D01*
X152117234Y-104769715D01*
X152109714Y-104809548D01*
X151970433Y-104809548D01*
X151974394Y-104772827D01*
X151998750Y-104703012D01*
X152032656Y-104654102D01*
X152093853Y-104604678D01*
X152161263Y-104580159D01*
X152230080Y-104578597D01*
X152295503Y-104598039D01*
G37*
X154657126Y-104616555D02*
X154723058Y-104640884D01*
X154776473Y-104683917D01*
X154797364Y-104714209D01*
X154820139Y-104769794D01*
X154819666Y-104809986D01*
X154795762Y-104837017D01*
X154786917Y-104841613D01*
X154748730Y-104855944D01*
X154729228Y-104852272D01*
X154722622Y-104828207D01*
X154722286Y-104814914D01*
X154710192Y-104766010D01*
X154678671Y-104731799D01*
X154634859Y-104715276D01*
X154585895Y-104719434D01*
X154546094Y-104741027D01*
X154532650Y-104753344D01*
X154523121Y-104768287D01*
X154516685Y-104790875D01*
X154512517Y-104826128D01*
X154509797Y-104879066D01*
X154507702Y-104954707D01*
X154507160Y-104978657D01*
X154505181Y-105060590D01*
X154502931Y-105118255D01*
X154499557Y-105156408D01*
X154494206Y-105179804D01*
X154486024Y-105193198D01*
X154474159Y-105201345D01*
X154466562Y-105204944D01*
X154434302Y-105217252D01*
X154415311Y-105221314D01*
X154409036Y-105207748D01*
X154405206Y-105166734D01*
X154403800Y-105097799D01*
X154404798Y-105000469D01*
X154405108Y-104985457D01*
X154407301Y-104896659D01*
X154409893Y-104831819D01*
X154413582Y-104785867D01*
X154419064Y-104753735D01*
X154427035Y-104730353D01*
X154438193Y-104710652D01*
X154444030Y-104702210D01*
X154477496Y-104664857D01*
X154514927Y-104635803D01*
X154519509Y-104633267D01*
X154586626Y-104613243D01*
X154657126Y-104616555D01*
G36*
X154657126Y-104616555D02*
G01*
X154723058Y-104640884D01*
X154776473Y-104683917D01*
X154797364Y-104714209D01*
X154820139Y-104769794D01*
X154819666Y-104809986D01*
X154795762Y-104837017D01*
X154786917Y-104841613D01*
X154748730Y-104855944D01*
X154729228Y-104852272D01*
X154722622Y-104828207D01*
X154722286Y-104814914D01*
X154710192Y-104766010D01*
X154678671Y-104731799D01*
X154634859Y-104715276D01*
X154585895Y-104719434D01*
X154546094Y-104741027D01*
X154532650Y-104753344D01*
X154523121Y-104768287D01*
X154516685Y-104790875D01*
X154512517Y-104826128D01*
X154509797Y-104879066D01*
X154507702Y-104954707D01*
X154507160Y-104978657D01*
X154505181Y-105060590D01*
X154502931Y-105118255D01*
X154499557Y-105156408D01*
X154494206Y-105179804D01*
X154486024Y-105193198D01*
X154474159Y-105201345D01*
X154466562Y-105204944D01*
X154434302Y-105217252D01*
X154415311Y-105221314D01*
X154409036Y-105207748D01*
X154405206Y-105166734D01*
X154403800Y-105097799D01*
X154404798Y-105000469D01*
X154405108Y-104985457D01*
X154407301Y-104896659D01*
X154409893Y-104831819D01*
X154413582Y-104785867D01*
X154419064Y-104753735D01*
X154427035Y-104730353D01*
X154438193Y-104710652D01*
X154444030Y-104702210D01*
X154477496Y-104664857D01*
X154514927Y-104635803D01*
X154519509Y-104633267D01*
X154586626Y-104613243D01*
X154657126Y-104616555D01*
G37*
X151726944Y-104586718D02*
X151782401Y-104614368D01*
X151831348Y-104665280D01*
X151844829Y-104684138D01*
X151859514Y-104708815D01*
X151869042Y-104735616D01*
X151874493Y-104771387D01*
X151876947Y-104822969D01*
X151877486Y-104891067D01*
X151875052Y-104984388D01*
X151866594Y-105054457D01*
X151850374Y-105106731D01*
X151824654Y-105146669D01*
X151787697Y-105179729D01*
X151784982Y-105181686D01*
X151748560Y-105201708D01*
X151704702Y-105211615D01*
X151648924Y-105214057D01*
X151558248Y-105214057D01*
X151558210Y-105302083D01*
X151557366Y-105351108D01*
X151552224Y-105379865D01*
X151538787Y-105397111D01*
X151513058Y-105411608D01*
X151506879Y-105414569D01*
X151477964Y-105428448D01*
X151455576Y-105437214D01*
X151438929Y-105437971D01*
X151427236Y-105427823D01*
X151419710Y-105403873D01*
X151415566Y-105363226D01*
X151414015Y-105302986D01*
X151414271Y-105220255D01*
X151415549Y-105112139D01*
X151415948Y-105079800D01*
X151417385Y-104968324D01*
X151418672Y-104895403D01*
X151558171Y-104895403D01*
X151558955Y-104957299D01*
X151562440Y-104997797D01*
X151570324Y-105024508D01*
X151584305Y-105045044D01*
X151593797Y-105055060D01*
X151632604Y-105084367D01*
X151666963Y-105086752D01*
X151702416Y-105062550D01*
X151703314Y-105061657D01*
X151717739Y-105042953D01*
X151726513Y-105017532D01*
X151730939Y-104978384D01*
X151732318Y-104918497D01*
X151732343Y-104905230D01*
X151729012Y-104822701D01*
X151718169Y-104765491D01*
X151698540Y-104730566D01*
X151668850Y-104714894D01*
X151651691Y-104713314D01*
X151610966Y-104720726D01*
X151583032Y-104745130D01*
X151566217Y-104789780D01*
X151558850Y-104857930D01*
X151558171Y-104895403D01*
X151418672Y-104895403D01*
X151418908Y-104882045D01*
X151420877Y-104817133D01*
X151423650Y-104769758D01*
X151427588Y-104736090D01*
X151433049Y-104712298D01*
X151440392Y-104694553D01*
X151449977Y-104679024D01*
X151454087Y-104673181D01*
X151508605Y-104617985D01*
X151577536Y-104586690D01*
X151657272Y-104577965D01*
X151726944Y-104586718D01*
G36*
X151726944Y-104586718D02*
G01*
X151782401Y-104614368D01*
X151831348Y-104665280D01*
X151844829Y-104684138D01*
X151859514Y-104708815D01*
X151869042Y-104735616D01*
X151874493Y-104771387D01*
X151876947Y-104822969D01*
X151877486Y-104891067D01*
X151875052Y-104984388D01*
X151866594Y-105054457D01*
X151850374Y-105106731D01*
X151824654Y-105146669D01*
X151787697Y-105179729D01*
X151784982Y-105181686D01*
X151748560Y-105201708D01*
X151704702Y-105211615D01*
X151648924Y-105214057D01*
X151558248Y-105214057D01*
X151558210Y-105302083D01*
X151557366Y-105351108D01*
X151552224Y-105379865D01*
X151538787Y-105397111D01*
X151513058Y-105411608D01*
X151506879Y-105414569D01*
X151477964Y-105428448D01*
X151455576Y-105437214D01*
X151438929Y-105437971D01*
X151427236Y-105427823D01*
X151419710Y-105403873D01*
X151415566Y-105363226D01*
X151414015Y-105302986D01*
X151414271Y-105220255D01*
X151415549Y-105112139D01*
X151415948Y-105079800D01*
X151417385Y-104968324D01*
X151418672Y-104895403D01*
X151558171Y-104895403D01*
X151558955Y-104957299D01*
X151562440Y-104997797D01*
X151570324Y-105024508D01*
X151584305Y-105045044D01*
X151593797Y-105055060D01*
X151632604Y-105084367D01*
X151666963Y-105086752D01*
X151702416Y-105062550D01*
X151703314Y-105061657D01*
X151717739Y-105042953D01*
X151726513Y-105017532D01*
X151730939Y-104978384D01*
X151732318Y-104918497D01*
X151732343Y-104905230D01*
X151729012Y-104822701D01*
X151718169Y-104765491D01*
X151698540Y-104730566D01*
X151668850Y-104714894D01*
X151651691Y-104713314D01*
X151610966Y-104720726D01*
X151583032Y-104745130D01*
X151566217Y-104789780D01*
X151558850Y-104857930D01*
X151558171Y-104895403D01*
X151418672Y-104895403D01*
X151418908Y-104882045D01*
X151420877Y-104817133D01*
X151423650Y-104769758D01*
X151427588Y-104736090D01*
X151433049Y-104712298D01*
X151440392Y-104694553D01*
X151449977Y-104679024D01*
X151454087Y-104673181D01*
X151508605Y-104617985D01*
X151577536Y-104586690D01*
X151657272Y-104577965D01*
X151726944Y-104586718D01*
G37*
X138289243Y-87205035D02*
X138312265Y-87242445D01*
X138347734Y-87301714D01*
X138394196Y-87380318D01*
X138450196Y-87475738D01*
X138514281Y-87585450D01*
X138584996Y-87706934D01*
X138660887Y-87837668D01*
X138740499Y-87975130D01*
X138822378Y-88116798D01*
X138905070Y-88260151D01*
X138987121Y-88402667D01*
X139067076Y-88541824D01*
X139143481Y-88675101D01*
X139214882Y-88799976D01*
X139279824Y-88913927D01*
X139336853Y-89014433D01*
X139384515Y-89098972D01*
X139421355Y-89165022D01*
X139445920Y-89210062D01*
X139456754Y-89231570D01*
X139457151Y-89232914D01*
X139443701Y-89251165D01*
X139406314Y-89279082D01*
X139349435Y-89313925D01*
X139277512Y-89352954D01*
X139202215Y-89390043D01*
X139099760Y-89435017D01*
X138992017Y-89475426D01*
X138875273Y-89512169D01*
X138745818Y-89546142D01*
X138599940Y-89578244D01*
X138433926Y-89609373D01*
X138244066Y-89640427D01*
X138047669Y-89669345D01*
X137877034Y-89695000D01*
X137733745Y-89720398D01*
X137614208Y-89746802D01*
X137514830Y-89775473D01*
X137432018Y-89807673D01*
X137362178Y-89844665D01*
X137301718Y-89887712D01*
X137247045Y-89938075D01*
X137229414Y-89956783D01*
X137191200Y-90000339D01*
X137162932Y-90035882D01*
X137149818Y-90056783D01*
X137149468Y-90058497D01*
X137144880Y-90069006D01*
X137128958Y-90069124D01*
X137098466Y-90057454D01*
X137050168Y-90032596D01*
X136980827Y-89993152D01*
X136932639Y-89964787D01*
X136860783Y-89920447D01*
X136804942Y-89882479D01*
X136768867Y-89853616D01*
X136756313Y-89836588D01*
X136756321Y-89836464D01*
X136764106Y-89820237D01*
X136786092Y-89779600D01*
X136821003Y-89716767D01*
X136867563Y-89633952D01*
X136924495Y-89533372D01*
X136990523Y-89417240D01*
X137064372Y-89287771D01*
X137144764Y-89147180D01*
X137230424Y-88997682D01*
X137320076Y-88841492D01*
X137412443Y-88680824D01*
X137506249Y-88517893D01*
X137600218Y-88354913D01*
X137693074Y-88194100D01*
X137783540Y-88037668D01*
X137870341Y-87887833D01*
X137952200Y-87746808D01*
X138027841Y-87616809D01*
X138095987Y-87500049D01*
X138155363Y-87398745D01*
X138204693Y-87315111D01*
X138242700Y-87251362D01*
X138268107Y-87209711D01*
X138279640Y-87192375D01*
X138280123Y-87192005D01*
X138289243Y-87205035D01*
G36*
X138289243Y-87205035D02*
G01*
X138312265Y-87242445D01*
X138347734Y-87301714D01*
X138394196Y-87380318D01*
X138450196Y-87475738D01*
X138514281Y-87585450D01*
X138584996Y-87706934D01*
X138660887Y-87837668D01*
X138740499Y-87975130D01*
X138822378Y-88116798D01*
X138905070Y-88260151D01*
X138987121Y-88402667D01*
X139067076Y-88541824D01*
X139143481Y-88675101D01*
X139214882Y-88799976D01*
X139279824Y-88913927D01*
X139336853Y-89014433D01*
X139384515Y-89098972D01*
X139421355Y-89165022D01*
X139445920Y-89210062D01*
X139456754Y-89231570D01*
X139457151Y-89232914D01*
X139443701Y-89251165D01*
X139406314Y-89279082D01*
X139349435Y-89313925D01*
X139277512Y-89352954D01*
X139202215Y-89390043D01*
X139099760Y-89435017D01*
X138992017Y-89475426D01*
X138875273Y-89512169D01*
X138745818Y-89546142D01*
X138599940Y-89578244D01*
X138433926Y-89609373D01*
X138244066Y-89640427D01*
X138047669Y-89669345D01*
X137877034Y-89695000D01*
X137733745Y-89720398D01*
X137614208Y-89746802D01*
X137514830Y-89775473D01*
X137432018Y-89807673D01*
X137362178Y-89844665D01*
X137301718Y-89887712D01*
X137247045Y-89938075D01*
X137229414Y-89956783D01*
X137191200Y-90000339D01*
X137162932Y-90035882D01*
X137149818Y-90056783D01*
X137149468Y-90058497D01*
X137144880Y-90069006D01*
X137128958Y-90069124D01*
X137098466Y-90057454D01*
X137050168Y-90032596D01*
X136980827Y-89993152D01*
X136932639Y-89964787D01*
X136860783Y-89920447D01*
X136804942Y-89882479D01*
X136768867Y-89853616D01*
X136756313Y-89836588D01*
X136756321Y-89836464D01*
X136764106Y-89820237D01*
X136786092Y-89779600D01*
X136821003Y-89716767D01*
X136867563Y-89633952D01*
X136924495Y-89533372D01*
X136990523Y-89417240D01*
X137064372Y-89287771D01*
X137144764Y-89147180D01*
X137230424Y-88997682D01*
X137320076Y-88841492D01*
X137412443Y-88680824D01*
X137506249Y-88517893D01*
X137600218Y-88354913D01*
X137693074Y-88194100D01*
X137783540Y-88037668D01*
X137870341Y-87887833D01*
X137952200Y-87746808D01*
X138027841Y-87616809D01*
X138095987Y-87500049D01*
X138155363Y-87398745D01*
X138204693Y-87315111D01*
X138242700Y-87251362D01*
X138268107Y-87209711D01*
X138279640Y-87192375D01*
X138280123Y-87192005D01*
X138289243Y-87205035D01*
G37*
X140112728Y-90353819D02*
X140124108Y-90372893D01*
X140149688Y-90416621D01*
X140188202Y-90482819D01*
X140238386Y-90569302D01*
X140298975Y-90673885D01*
X140368703Y-90794383D01*
X140446307Y-90928612D01*
X140530520Y-91074387D01*
X140620079Y-91229523D01*
X140712198Y-91389200D01*
X140806276Y-91552317D01*
X140896602Y-91708909D01*
X140981865Y-91856706D01*
X141060757Y-91993440D01*
X141131969Y-92116842D01*
X141194191Y-92224644D01*
X141246113Y-92314577D01*
X141286428Y-92384373D01*
X141313824Y-92431764D01*
X141326707Y-92453986D01*
X141347707Y-92491530D01*
X141359125Y-92515031D01*
X141359751Y-92519120D01*
X141345836Y-92511442D01*
X141307141Y-92489403D01*
X141245687Y-92454171D01*
X141163498Y-92406911D01*
X141062596Y-92348789D01*
X140945005Y-92280971D01*
X140812746Y-92204624D01*
X140667842Y-92120914D01*
X140512317Y-92031006D01*
X140348192Y-91936067D01*
X140285749Y-91899932D01*
X140118687Y-91803283D01*
X139959274Y-91711138D01*
X139809555Y-91624675D01*
X139671576Y-91545071D01*
X139547385Y-91473505D01*
X139439027Y-91411155D01*
X139348548Y-91359198D01*
X139277996Y-91318813D01*
X139229415Y-91291178D01*
X139204854Y-91277472D01*
X139202285Y-91276174D01*
X139209769Y-91264420D01*
X139235814Y-91232995D01*
X139277759Y-91184794D01*
X139332946Y-91122710D01*
X139398717Y-91049639D01*
X139472412Y-90968476D01*
X139551373Y-90882116D01*
X139632940Y-90793453D01*
X139714454Y-90705382D01*
X139793257Y-90620799D01*
X139866690Y-90542597D01*
X139932093Y-90473672D01*
X139986808Y-90416919D01*
X140028177Y-90375232D01*
X140042364Y-90361563D01*
X140089380Y-90317401D01*
X140112728Y-90353819D01*
G36*
X140112728Y-90353819D02*
G01*
X140124108Y-90372893D01*
X140149688Y-90416621D01*
X140188202Y-90482819D01*
X140238386Y-90569302D01*
X140298975Y-90673885D01*
X140368703Y-90794383D01*
X140446307Y-90928612D01*
X140530520Y-91074387D01*
X140620079Y-91229523D01*
X140712198Y-91389200D01*
X140806276Y-91552317D01*
X140896602Y-91708909D01*
X140981865Y-91856706D01*
X141060757Y-91993440D01*
X141131969Y-92116842D01*
X141194191Y-92224644D01*
X141246113Y-92314577D01*
X141286428Y-92384373D01*
X141313824Y-92431764D01*
X141326707Y-92453986D01*
X141347707Y-92491530D01*
X141359125Y-92515031D01*
X141359751Y-92519120D01*
X141345836Y-92511442D01*
X141307141Y-92489403D01*
X141245687Y-92454171D01*
X141163498Y-92406911D01*
X141062596Y-92348789D01*
X140945005Y-92280971D01*
X140812746Y-92204624D01*
X140667842Y-92120914D01*
X140512317Y-92031006D01*
X140348192Y-91936067D01*
X140285749Y-91899932D01*
X140118687Y-91803283D01*
X139959274Y-91711138D01*
X139809555Y-91624675D01*
X139671576Y-91545071D01*
X139547385Y-91473505D01*
X139439027Y-91411155D01*
X139348548Y-91359198D01*
X139277996Y-91318813D01*
X139229415Y-91291178D01*
X139204854Y-91277472D01*
X139202285Y-91276174D01*
X139209769Y-91264420D01*
X139235814Y-91232995D01*
X139277759Y-91184794D01*
X139332946Y-91122710D01*
X139398717Y-91049639D01*
X139472412Y-90968476D01*
X139551373Y-90882116D01*
X139632940Y-90793453D01*
X139714454Y-90705382D01*
X139793257Y-90620799D01*
X139866690Y-90542597D01*
X139932093Y-90473672D01*
X139986808Y-90416919D01*
X140028177Y-90375232D01*
X140042364Y-90361563D01*
X140089380Y-90317401D01*
X140112728Y-90353819D01*
G37*
X136447294Y-90410358D02*
X136479819Y-90422936D01*
X136529393Y-90447912D01*
X136600574Y-90487076D01*
X136606116Y-90490188D01*
X136671674Y-90527676D01*
X136726998Y-90560519D01*
X136766655Y-90585405D01*
X136785212Y-90599020D01*
X136785731Y-90599687D01*
X136781248Y-90618590D01*
X136760686Y-90660805D01*
X136725383Y-90724032D01*
X136676680Y-90805972D01*
X136615918Y-90904322D01*
X136544436Y-91016785D01*
X136526645Y-91044365D01*
X136480293Y-91120899D01*
X136446542Y-91186756D01*
X136428353Y-91235982D01*
X136426486Y-91245707D01*
X136427315Y-91288512D01*
X136436594Y-91356409D01*
X136453168Y-91445043D01*
X136475880Y-91550059D01*
X136503573Y-91667102D01*
X136535090Y-91791816D01*
X136569275Y-91919845D01*
X136604971Y-92046834D01*
X136641021Y-92168428D01*
X136676268Y-92280272D01*
X136709556Y-92378010D01*
X136739728Y-92457287D01*
X136760761Y-92504322D01*
X136785537Y-92554425D01*
X136808930Y-92602368D01*
X136810197Y-92604993D01*
X136848899Y-92653420D01*
X136905384Y-92686028D01*
X136971139Y-92701654D01*
X137037651Y-92699137D01*
X137096405Y-92677314D01*
X137129458Y-92648582D01*
X137177059Y-92569783D01*
X137211939Y-92471578D01*
X137231077Y-92363979D01*
X137233788Y-92302980D01*
X137222870Y-92189135D01*
X137190824Y-92094860D01*
X137135926Y-92015579D01*
X137118807Y-91997933D01*
X137067861Y-91948435D01*
X137064363Y-91598562D01*
X137060864Y-91248689D01*
X137150018Y-91113731D01*
X137191854Y-91052645D01*
X137232145Y-90997693D01*
X137265143Y-90956536D01*
X137279326Y-90941392D01*
X137319481Y-90904010D01*
X137373865Y-90933298D01*
X137408239Y-90954284D01*
X137427046Y-90970578D01*
X137428249Y-90973507D01*
X137441103Y-90985928D01*
X137463096Y-90995177D01*
X137484350Y-91003513D01*
X137516894Y-91019349D01*
X137563522Y-91044233D01*
X137627029Y-91079709D01*
X137710208Y-91127323D01*
X137815853Y-91188622D01*
X137873262Y-91222132D01*
X137940794Y-91262271D01*
X137985085Y-91290859D01*
X138010055Y-91311239D01*
X138019623Y-91326753D01*
X138017708Y-91340746D01*
X138016111Y-91343996D01*
X138000576Y-91364466D01*
X137967336Y-91402865D01*
X137920262Y-91454896D01*
X137863228Y-91516266D01*
X137813900Y-91568290D01*
X137700230Y-91691767D01*
X137611305Y-91798791D01*
X137546334Y-91890440D01*
X137504521Y-91967788D01*
X137490417Y-92007066D01*
X137484592Y-92041449D01*
X137478575Y-92100099D01*
X137472896Y-92176317D01*
X137468084Y-92263402D01*
X137465819Y-92318468D01*
X137462659Y-92413664D01*
X137461269Y-92483262D01*
X137462058Y-92532609D01*
X137465435Y-92567054D01*
X137471808Y-92591943D01*
X137481587Y-92612625D01*
X137489267Y-92625253D01*
X137533621Y-92673926D01*
X137590774Y-92707845D01*
X137650908Y-92722638D01*
X137695973Y-92717286D01*
X137736776Y-92694130D01*
X137787924Y-92652662D01*
X137842242Y-92600112D01*
X137892557Y-92543716D01*
X137931694Y-92490705D01*
X137946105Y-92465089D01*
X137967691Y-92430014D01*
X138006953Y-92376589D01*
X138060302Y-92308989D01*
X138124152Y-92231390D01*
X138194915Y-92147968D01*
X138269004Y-92062898D01*
X138342832Y-91980355D01*
X138412811Y-91904516D01*
X138475355Y-91839556D01*
X138524460Y-91791869D01*
X138578979Y-91744232D01*
X138624842Y-91709108D01*
X138657011Y-91690149D01*
X138667689Y-91688064D01*
X138684053Y-91696474D01*
X138724871Y-91719046D01*
X138787786Y-91754424D01*
X138870444Y-91801254D01*
X138970489Y-91858181D01*
X139085566Y-91923849D01*
X139213319Y-91996903D01*
X139351394Y-92075988D01*
X139497434Y-92159748D01*
X139649084Y-92246829D01*
X139803990Y-92335876D01*
X139959795Y-92425532D01*
X140114144Y-92514443D01*
X140264682Y-92601254D01*
X140409054Y-92684609D01*
X140544904Y-92763154D01*
X140669877Y-92835533D01*
X140781617Y-92900390D01*
X140877770Y-92956371D01*
X140955979Y-93002120D01*
X141013889Y-93036283D01*
X141049146Y-93057504D01*
X141059365Y-93064163D01*
X141045602Y-93065480D01*
X141002304Y-93066759D01*
X140930914Y-93067996D01*
X140832873Y-93069183D01*
X140709622Y-93070315D01*
X140562603Y-93071386D01*
X140393257Y-93072389D01*
X140203026Y-93073319D01*
X139993351Y-93074168D01*
X139765673Y-93074932D01*
X139521435Y-93075603D01*
X139262077Y-93076176D01*
X138989041Y-93076644D01*
X138703768Y-93077002D01*
X138407700Y-93077242D01*
X138102279Y-93077359D01*
X137974124Y-93077371D01*
X134874170Y-93077371D01*
X135095253Y-92694047D01*
X135142056Y-92612880D01*
X135202302Y-92508366D01*
X135273978Y-92384001D01*
X135355069Y-92243282D01*
X135443562Y-92089703D01*
X135537440Y-91926762D01*
X135634691Y-91757954D01*
X135733300Y-91586775D01*
X135831253Y-91416721D01*
X135856025Y-91373712D01*
X135946352Y-91217057D01*
X136032489Y-91068003D01*
X136113142Y-90928768D01*
X136187016Y-90801571D01*
X136252817Y-90688632D01*
X136309250Y-90592168D01*
X136355021Y-90514400D01*
X136388835Y-90457546D01*
X136409398Y-90423825D01*
X136415153Y-90415240D01*
X136427258Y-90408389D01*
X136447294Y-90410358D01*
G36*
X136447294Y-90410358D02*
G01*
X136479819Y-90422936D01*
X136529393Y-90447912D01*
X136600574Y-90487076D01*
X136606116Y-90490188D01*
X136671674Y-90527676D01*
X136726998Y-90560519D01*
X136766655Y-90585405D01*
X136785212Y-90599020D01*
X136785731Y-90599687D01*
X136781248Y-90618590D01*
X136760686Y-90660805D01*
X136725383Y-90724032D01*
X136676680Y-90805972D01*
X136615918Y-90904322D01*
X136544436Y-91016785D01*
X136526645Y-91044365D01*
X136480293Y-91120899D01*
X136446542Y-91186756D01*
X136428353Y-91235982D01*
X136426486Y-91245707D01*
X136427315Y-91288512D01*
X136436594Y-91356409D01*
X136453168Y-91445043D01*
X136475880Y-91550059D01*
X136503573Y-91667102D01*
X136535090Y-91791816D01*
X136569275Y-91919845D01*
X136604971Y-92046834D01*
X136641021Y-92168428D01*
X136676268Y-92280272D01*
X136709556Y-92378010D01*
X136739728Y-92457287D01*
X136760761Y-92504322D01*
X136785537Y-92554425D01*
X136808930Y-92602368D01*
X136810197Y-92604993D01*
X136848899Y-92653420D01*
X136905384Y-92686028D01*
X136971139Y-92701654D01*
X137037651Y-92699137D01*
X137096405Y-92677314D01*
X137129458Y-92648582D01*
X137177059Y-92569783D01*
X137211939Y-92471578D01*
X137231077Y-92363979D01*
X137233788Y-92302980D01*
X137222870Y-92189135D01*
X137190824Y-92094860D01*
X137135926Y-92015579D01*
X137118807Y-91997933D01*
X137067861Y-91948435D01*
X137064363Y-91598562D01*
X137060864Y-91248689D01*
X137150018Y-91113731D01*
X137191854Y-91052645D01*
X137232145Y-90997693D01*
X137265143Y-90956536D01*
X137279326Y-90941392D01*
X137319481Y-90904010D01*
X137373865Y-90933298D01*
X137408239Y-90954284D01*
X137427046Y-90970578D01*
X137428249Y-90973507D01*
X137441103Y-90985928D01*
X137463096Y-90995177D01*
X137484350Y-91003513D01*
X137516894Y-91019349D01*
X137563522Y-91044233D01*
X137627029Y-91079709D01*
X137710208Y-91127323D01*
X137815853Y-91188622D01*
X137873262Y-91222132D01*
X137940794Y-91262271D01*
X137985085Y-91290859D01*
X138010055Y-91311239D01*
X138019623Y-91326753D01*
X138017708Y-91340746D01*
X138016111Y-91343996D01*
X138000576Y-91364466D01*
X137967336Y-91402865D01*
X137920262Y-91454896D01*
X137863228Y-91516266D01*
X137813900Y-91568290D01*
X137700230Y-91691767D01*
X137611305Y-91798791D01*
X137546334Y-91890440D01*
X137504521Y-91967788D01*
X137490417Y-92007066D01*
X137484592Y-92041449D01*
X137478575Y-92100099D01*
X137472896Y-92176317D01*
X137468084Y-92263402D01*
X137465819Y-92318468D01*
X137462659Y-92413664D01*
X137461269Y-92483262D01*
X137462058Y-92532609D01*
X137465435Y-92567054D01*
X137471808Y-92591943D01*
X137481587Y-92612625D01*
X137489267Y-92625253D01*
X137533621Y-92673926D01*
X137590774Y-92707845D01*
X137650908Y-92722638D01*
X137695973Y-92717286D01*
X137736776Y-92694130D01*
X137787924Y-92652662D01*
X137842242Y-92600112D01*
X137892557Y-92543716D01*
X137931694Y-92490705D01*
X137946105Y-92465089D01*
X137967691Y-92430014D01*
X138006953Y-92376589D01*
X138060302Y-92308989D01*
X138124152Y-92231390D01*
X138194915Y-92147968D01*
X138269004Y-92062898D01*
X138342832Y-91980355D01*
X138412811Y-91904516D01*
X138475355Y-91839556D01*
X138524460Y-91791869D01*
X138578979Y-91744232D01*
X138624842Y-91709108D01*
X138657011Y-91690149D01*
X138667689Y-91688064D01*
X138684053Y-91696474D01*
X138724871Y-91719046D01*
X138787786Y-91754424D01*
X138870444Y-91801254D01*
X138970489Y-91858181D01*
X139085566Y-91923849D01*
X139213319Y-91996903D01*
X139351394Y-92075988D01*
X139497434Y-92159748D01*
X139649084Y-92246829D01*
X139803990Y-92335876D01*
X139959795Y-92425532D01*
X140114144Y-92514443D01*
X140264682Y-92601254D01*
X140409054Y-92684609D01*
X140544904Y-92763154D01*
X140669877Y-92835533D01*
X140781617Y-92900390D01*
X140877770Y-92956371D01*
X140955979Y-93002120D01*
X141013889Y-93036283D01*
X141049146Y-93057504D01*
X141059365Y-93064163D01*
X141045602Y-93065480D01*
X141002304Y-93066759D01*
X140930914Y-93067996D01*
X140832873Y-93069183D01*
X140709622Y-93070315D01*
X140562603Y-93071386D01*
X140393257Y-93072389D01*
X140203026Y-93073319D01*
X139993351Y-93074168D01*
X139765673Y-93074932D01*
X139521435Y-93075603D01*
X139262077Y-93076176D01*
X138989041Y-93076644D01*
X138703768Y-93077002D01*
X138407700Y-93077242D01*
X138102279Y-93077359D01*
X137974124Y-93077371D01*
X134874170Y-93077371D01*
X135095253Y-92694047D01*
X135142056Y-92612880D01*
X135202302Y-92508366D01*
X135273978Y-92384001D01*
X135355069Y-92243282D01*
X135443562Y-92089703D01*
X135537440Y-91926762D01*
X135634691Y-91757954D01*
X135733300Y-91586775D01*
X135831253Y-91416721D01*
X135856025Y-91373712D01*
X135946352Y-91217057D01*
X136032489Y-91068003D01*
X136113142Y-90928768D01*
X136187016Y-90801571D01*
X136252817Y-90688632D01*
X136309250Y-90592168D01*
X136355021Y-90514400D01*
X136388835Y-90457546D01*
X136409398Y-90423825D01*
X136415153Y-90415240D01*
X136427258Y-90408389D01*
X136447294Y-90410358D01*
G37*
D12*
%TO.C,SJ1*%
X142940000Y-67649600D02*
G75*
G03*
X143640000Y-66949600I0J700000D01*
G01*
X140840000Y-66949600D02*
G75*
G03*
X141540000Y-67649600I699999J-1D01*
G01*
X141540000Y-65649600D02*
G75*
G03*
X140840000Y-66349600I-1J-699999D01*
G01*
X143640000Y-66349600D02*
G75*
G03*
X142940000Y-65649600I-700000J0D01*
G01*
X140840000Y-66949600D02*
X140840000Y-66349600D01*
X143640000Y-66349600D02*
X143640000Y-66949600D01*
X142940000Y-67649600D02*
X141540000Y-67649600D01*
X141540000Y-65649600D02*
X142940000Y-65649600D01*
D13*
%TO.C,Q2*%
X139824201Y-106431202D02*
X140824199Y-106431202D01*
X139824201Y-111631202D02*
X140024201Y-111631202D01*
X145624199Y-106431202D02*
X145824199Y-106431202D01*
X145624199Y-111631202D02*
X145824199Y-111631202D01*
%TO.C,Q1*%
X147088601Y-106442200D02*
X148088599Y-106442200D01*
X147088601Y-111642200D02*
X147288601Y-111642200D01*
X152888599Y-106442200D02*
X153088599Y-106442200D01*
X152888599Y-111642200D02*
X153088599Y-111642200D01*
D12*
%TO.C,C21*%
X144793449Y-117912983D02*
X144793449Y-117390479D01*
X146263449Y-117912983D02*
X146263449Y-117390479D01*
%TO.C,C17*%
X153760000Y-96316748D02*
X153760000Y-97739252D01*
X151040000Y-96316748D02*
X151040000Y-97739252D01*
%TO.C,L1*%
X141596000Y-99588000D02*
X141596000Y-102088000D01*
X149996000Y-102088000D02*
X149996000Y-99588000D01*
%TO.C,C3*%
X146729952Y-58797347D02*
X145307448Y-58797347D01*
X146729952Y-56977347D02*
X145307448Y-56977347D01*
%TO.C,C16*%
X157062000Y-96316748D02*
X157062000Y-97739252D01*
X154342000Y-96316748D02*
X154342000Y-97739252D01*
%TO.C,C22*%
X140641400Y-120504852D02*
X140641400Y-119982348D01*
X142111400Y-120504852D02*
X142111400Y-119982348D01*
%TO.C,C15*%
X143510052Y-114745600D02*
X142087548Y-114745600D01*
X143510052Y-112025600D02*
X142087548Y-112025600D01*
%TO.C,C20*%
X131267252Y-123084000D02*
X129844748Y-123084000D01*
X131267252Y-121264000D02*
X129844748Y-121264000D01*
%TO.C,C5*%
X146729952Y-61337347D02*
X145307448Y-61337347D01*
X146729952Y-59517347D02*
X145307448Y-59517347D01*
%TO.C,C19*%
X135585252Y-119782000D02*
X134162748Y-119782000D01*
X135585252Y-117962000D02*
X134162748Y-117962000D01*
%TO.C,J8*%
X168313200Y-121193347D02*
X166983200Y-121193347D01*
X168313200Y-119863347D02*
X168313200Y-121193347D01*
X168313200Y-118593347D02*
X168313200Y-80433347D01*
X168313200Y-118593347D02*
X165713200Y-118593347D01*
X168313200Y-80433347D02*
X163113200Y-80433347D01*
X165713200Y-121193347D02*
X163113200Y-121193347D01*
X165713200Y-118593347D02*
X165713200Y-121193347D01*
X163113200Y-121193347D02*
X163113200Y-80433347D01*
%TO.C,R2*%
X146322136Y-64772347D02*
X146776264Y-64772347D01*
X146322136Y-66242347D02*
X146776264Y-66242347D01*
%TO.C,R8*%
X153172313Y-124452331D02*
X152718185Y-124452331D01*
X153172313Y-122982331D02*
X152718185Y-122982331D01*
%TO.C,C7*%
X145944000Y-83870748D02*
X145944000Y-85293252D01*
X144124000Y-83870748D02*
X144124000Y-85293252D01*
%TO.C,J4*%
X139309200Y-137201347D02*
X141809200Y-137201347D01*
X141809200Y-137201347D02*
X141809200Y-134701347D01*
X137489200Y-136901347D02*
X141509200Y-136901347D01*
X139199200Y-136901347D02*
X139199200Y-136401347D01*
X140009200Y-136901347D02*
X140009200Y-135901347D01*
X141509200Y-136901347D02*
X141509200Y-126681347D01*
X137989200Y-136401347D02*
X137989200Y-127181347D01*
X139199200Y-136401347D02*
X137989200Y-136401347D01*
X140009200Y-135901347D02*
X141509200Y-135901347D01*
X140009200Y-127681347D02*
X141509200Y-127681347D01*
X137989200Y-127181347D02*
X139199200Y-127181347D01*
X139199200Y-127181347D02*
X139199200Y-126681347D01*
X137489200Y-126681347D02*
X137489200Y-136901347D01*
X140009200Y-126681347D02*
X140009200Y-127681347D01*
X141509200Y-126681347D02*
X137489200Y-126681347D01*
D10*
%TO.C,JP1*%
X145434000Y-132340000D02*
X145934000Y-132840000D01*
X144634000Y-132340000D02*
X145434000Y-132340000D01*
X145934000Y-132840000D02*
X145934000Y-136440000D01*
X144134000Y-132840000D02*
X144634000Y-132340000D01*
X145934000Y-136440000D02*
X145434000Y-136940000D01*
X144134000Y-136440000D02*
X144134000Y-132840000D01*
X145434000Y-136940000D02*
X144634000Y-136940000D01*
X144634000Y-136940000D02*
X144134000Y-136440000D01*
D12*
%TO.C,BOOT*%
X132587200Y-55725347D02*
X135887200Y-55725347D01*
X132587200Y-56025347D02*
X132587200Y-55725347D01*
X132587200Y-58225347D02*
X132587200Y-58525347D01*
X132587200Y-58525347D02*
X135887200Y-58525347D01*
X135887200Y-55725347D02*
X135887200Y-56025347D01*
X135887200Y-58525347D02*
X135887200Y-58225347D01*
%TO.C,R9*%
X151038713Y-126413131D02*
X150584585Y-126413131D01*
X151038713Y-124943131D02*
X150584585Y-124943131D01*
%TO.C,C24*%
X147689049Y-118878183D02*
X147689049Y-118355679D01*
X149159049Y-118878183D02*
X149159049Y-118355679D01*
%TO.C,C1*%
X133446448Y-61295347D02*
X134868952Y-61295347D01*
X133446448Y-63115347D02*
X134868952Y-63115347D01*
D13*
%TO.C,J2*%
X123702200Y-88854347D02*
X117812200Y-88854347D01*
X117812200Y-88854347D02*
X117812200Y-119694347D01*
X111902200Y-95957347D02*
X117802200Y-95957347D01*
D14*
X130232200Y-109819347D02*
X130232200Y-109819347D01*
X130132200Y-109819347D02*
X130132200Y-109819347D01*
D13*
X117812200Y-112591347D02*
X111902200Y-112591347D01*
X111902200Y-112591347D02*
X111902200Y-95957347D01*
X117812200Y-119694347D02*
X123702200Y-119694347D01*
D14*
X130132200Y-109819347D02*
G75*
G03*
X130232200Y-109819347I50000J0D01*
G01*
X130232200Y-109819347D02*
G75*
G03*
X130132200Y-109819347I-50000J0D01*
G01*
D12*
%TO.C,RST*%
X137667200Y-55725347D02*
X140967200Y-55725347D01*
X137667200Y-56025347D02*
X137667200Y-55725347D01*
X137667200Y-58225347D02*
X137667200Y-58525347D01*
X137667200Y-58525347D02*
X140967200Y-58525347D01*
X140967200Y-55725347D02*
X140967200Y-56025347D01*
X140967200Y-58525347D02*
X140967200Y-58225347D01*
%TO.C,J5*%
X129083200Y-137191347D02*
X130333200Y-137191347D01*
X129373200Y-136901347D02*
X135343200Y-136901347D01*
X135343200Y-136901347D02*
X135343200Y-124281347D01*
X129383200Y-136891347D02*
X130133200Y-136891347D01*
X130133200Y-136891347D02*
X130133200Y-135091347D01*
X131633200Y-136891347D02*
X131633200Y-136141347D01*
X131633200Y-136141347D02*
X132973200Y-136141347D01*
X129083200Y-135941347D02*
X129083200Y-137191347D01*
X129383200Y-135091347D02*
X129383200Y-136891347D01*
X130133200Y-135091347D02*
X129383200Y-135091347D01*
X129383200Y-133591347D02*
X130133200Y-133591347D01*
X130133200Y-133591347D02*
X130133200Y-127591347D01*
X134583200Y-130591347D02*
X134583200Y-135081347D01*
X129383200Y-127591347D02*
X129383200Y-133591347D01*
X130133200Y-127591347D02*
X129383200Y-127591347D01*
X129383200Y-126091347D02*
X130133200Y-126091347D01*
X130133200Y-126091347D02*
X130133200Y-124291347D01*
X131633200Y-125041347D02*
X134583200Y-125041347D01*
X134583200Y-125041347D02*
X134583200Y-130591347D01*
X129383200Y-124291347D02*
X129383200Y-126091347D01*
X130133200Y-124291347D02*
X129383200Y-124291347D01*
X131633200Y-124291347D02*
X131633200Y-125041347D01*
X129373200Y-124281347D02*
X129373200Y-136901347D01*
X135343200Y-124281347D02*
X129373200Y-124281347D01*
%TO.C,C8*%
X143023000Y-69773748D02*
X143023000Y-71196252D01*
X141203000Y-69773748D02*
X141203000Y-71196252D01*
%TO.C,C27*%
X152480797Y-129007131D02*
X153003301Y-129007131D01*
X152480797Y-130477131D02*
X153003301Y-130477131D01*
D15*
%TO.C,U4*%
X146900049Y-120389931D02*
X146179390Y-120389931D01*
X146179390Y-126231931D02*
X146900049Y-126231931D01*
X145259910Y-120389931D02*
X144679388Y-120389931D01*
X144679388Y-126231931D02*
X145259910Y-126231931D01*
X143759908Y-120389931D02*
X143039249Y-120389931D01*
X143039249Y-126231931D02*
X143759908Y-126231931D01*
G36*
X147585849Y-121751432D02*
G01*
X147331849Y-121751432D01*
X147331849Y-121370432D01*
X147585849Y-121370432D01*
X147585849Y-121751432D01*
G37*
G36*
X142607449Y-124251432D02*
G01*
X142353449Y-124251432D01*
X142353449Y-123870432D01*
X142607449Y-123870432D01*
X142607449Y-124251432D01*
G37*
D12*
%TO.C,C6*%
X135276000Y-83235748D02*
X135276000Y-84658252D01*
X133456000Y-83235748D02*
X133456000Y-84658252D01*
%TO.C,C11*%
X137504000Y-96316748D02*
X137504000Y-97739252D01*
X134784000Y-96316748D02*
X134784000Y-97739252D01*
%TO.C,C12*%
X156329748Y-107977000D02*
X156852252Y-107977000D01*
X156329748Y-109447000D02*
X156852252Y-109447000D01*
%TO.C,Rt1*%
X148473249Y-128549867D02*
X148473249Y-129003995D01*
X147003249Y-128549867D02*
X147003249Y-129003995D01*
%TO.C,C26*%
X152998000Y-114096748D02*
X152998000Y-115519252D01*
X150278000Y-114096748D02*
X150278000Y-115519252D01*
D13*
%TO.C,J1*%
X123702200Y-55372347D02*
X117812200Y-55372347D01*
X117812200Y-55372347D02*
X117812200Y-86212347D01*
X111902200Y-62475347D02*
X117802200Y-62475347D01*
D14*
X130232200Y-76337347D02*
X130232200Y-76337347D01*
X130132200Y-76337347D02*
X130132200Y-76337347D01*
D13*
X117812200Y-79109347D02*
X111902200Y-79109347D01*
X111902200Y-79109347D02*
X111902200Y-62475347D01*
X117812200Y-86212347D02*
X123702200Y-86212347D01*
D14*
X130132200Y-76337347D02*
G75*
G03*
X130232200Y-76337347I50000J0D01*
G01*
X130232200Y-76337347D02*
G75*
G03*
X130132200Y-76337347I-50000J0D01*
G01*
D12*
%TO.C,C10*%
X140738000Y-96316748D02*
X140738000Y-97739252D01*
X138018000Y-96316748D02*
X138018000Y-97739252D01*
%TO.C,C14*%
X156329748Y-105945000D02*
X156852252Y-105945000D01*
X156329748Y-107415000D02*
X156852252Y-107415000D01*
%TO.C,R7*%
X149162249Y-123029995D02*
X149162249Y-122575867D01*
X150632249Y-123029995D02*
X150632249Y-122575867D01*
D14*
%TO.C,F2*%
X132196000Y-115712000D02*
X132196000Y-101712000D01*
X135196000Y-115712000D02*
X132196000Y-115712000D01*
X132196000Y-101712000D02*
X135196000Y-101712000D01*
X135196000Y-101712000D02*
X135196000Y-115712000D01*
D12*
%TO.C,C13*%
X156329748Y-110009000D02*
X156852252Y-110009000D01*
X156329748Y-111479000D02*
X156852252Y-111479000D01*
D15*
%TO.C,U3*%
X134378700Y-123571000D02*
X136385300Y-123571000D01*
X136385300Y-120269000D02*
X134378700Y-120269000D01*
D12*
%TO.C,J3*%
X126961200Y-124281347D02*
X120991200Y-124281347D01*
X120991200Y-124281347D02*
X120991200Y-136901347D01*
X123251200Y-124291347D02*
X123251200Y-125041347D01*
X121751200Y-124291347D02*
X121001200Y-124291347D01*
X121001200Y-124291347D02*
X121001200Y-126091347D01*
X126201200Y-125041347D02*
X126201200Y-130591347D01*
X123251200Y-125041347D02*
X126201200Y-125041347D01*
X121751200Y-126091347D02*
X121751200Y-124291347D01*
X121001200Y-126091347D02*
X121751200Y-126091347D01*
X121751200Y-127591347D02*
X121001200Y-127591347D01*
X121001200Y-127591347D02*
X121001200Y-133591347D01*
X126201200Y-130591347D02*
X126201200Y-135081347D01*
X121751200Y-133591347D02*
X121751200Y-127591347D01*
X121001200Y-133591347D02*
X121751200Y-133591347D01*
X121751200Y-135091347D02*
X121001200Y-135091347D01*
X121001200Y-135091347D02*
X121001200Y-136891347D01*
X120701200Y-135941347D02*
X120701200Y-137191347D01*
X123251200Y-136141347D02*
X124591200Y-136141347D01*
X123251200Y-136891347D02*
X123251200Y-136141347D01*
X121751200Y-136891347D02*
X121751200Y-135091347D01*
X121001200Y-136891347D02*
X121751200Y-136891347D01*
X126961200Y-136901347D02*
X126961200Y-124281347D01*
X120991200Y-136901347D02*
X126961200Y-136901347D01*
X120701200Y-137191347D02*
X121951200Y-137191347D01*
%TO.C,C25*%
X152480797Y-126989131D02*
X153003301Y-126989131D01*
X152480797Y-128459131D02*
X153003301Y-128459131D01*
%TO.C,R6*%
X139315000Y-124227064D02*
X139315000Y-123772936D01*
X140785000Y-124227064D02*
X140785000Y-123772936D01*
D15*
%TO.C,U2*%
X134416800Y-72440800D02*
X138379200Y-72440800D01*
X138379200Y-72440800D02*
X138379200Y-65481200D01*
X134416800Y-65481200D02*
X134416800Y-72440800D01*
X138379200Y-65481200D02*
X134416800Y-65481200D01*
X140169900Y-73583800D02*
G75*
G03*
X139915900Y-73583800I-127000J0D01*
G01*
X139915900Y-73583800D02*
G75*
G03*
X140169900Y-73583800I127000J0D01*
G01*
D12*
%TO.C,U1*%
X149897200Y-47349347D02*
X149897200Y-54099347D01*
X149897200Y-47349347D02*
X167897200Y-47349347D01*
X149897200Y-72099347D02*
X149897200Y-72849347D01*
X149897200Y-72849347D02*
X150647200Y-72849347D01*
X150647200Y-72849347D02*
X152397200Y-72849347D01*
X167147200Y-72849347D02*
X165397200Y-72849347D01*
X167897200Y-47349347D02*
X167897200Y-54099347D01*
X167897200Y-53289347D02*
X149897200Y-53289347D01*
X167897200Y-72099347D02*
X167897200Y-72849347D01*
X167897200Y-72849347D02*
X167147200Y-72849347D01*
%TO.C,R4*%
X145047449Y-129003995D02*
X145047449Y-128549867D01*
X146517449Y-129003995D02*
X146517449Y-128549867D01*
%TO.C,C4*%
X146729952Y-56199347D02*
X145307448Y-56199347D01*
X146729952Y-54379347D02*
X145307448Y-54379347D01*
%TO.C,J7*%
X168606000Y-124096000D02*
X156006000Y-124096000D01*
X156006000Y-124096000D02*
X156006000Y-134446000D01*
X163806000Y-134446000D02*
X163506000Y-134946000D01*
X158406000Y-134446000D02*
X163806000Y-134446000D01*
X156956000Y-134446000D02*
X156706000Y-134946000D01*
X156006000Y-134446000D02*
X156956000Y-134446000D01*
X168606000Y-134946000D02*
X168606000Y-124096000D01*
X163506000Y-134946000D02*
X168606000Y-134946000D01*
X158656000Y-134946000D02*
X158406000Y-134446000D01*
X158606000Y-134946000D02*
X158656000Y-134946000D01*
X156706000Y-134946000D02*
X158606000Y-134946000D01*
%TO.C,R5*%
X150429049Y-128549867D02*
X150429049Y-129003995D01*
X148959049Y-128549867D02*
X148959049Y-129003995D01*
%TO.C,J6*%
X147576000Y-136766000D02*
X147576000Y-135636000D01*
X148336000Y-136766000D02*
X147576000Y-136766000D01*
X149096000Y-136766000D02*
X154111000Y-136766000D01*
X149096000Y-136766000D02*
X149096000Y-136199471D01*
X154111000Y-136766000D02*
X154111000Y-135943530D01*
X154111000Y-135328470D02*
X154111000Y-134673530D01*
X149096000Y-135072529D02*
X149096000Y-134929471D01*
X147641000Y-134876000D02*
X147641000Y-134673530D01*
X147772529Y-134876000D02*
X147641000Y-134876000D01*
X149042529Y-134876000D02*
X148899471Y-134876000D01*
X147641000Y-134058470D02*
X147641000Y-133236000D01*
X154111000Y-134058470D02*
X154111000Y-133236000D01*
X147641000Y-133236000D02*
X154111000Y-133236000D01*
%TO.C,C9*%
X145307448Y-67137347D02*
X146729952Y-67137347D01*
X145307448Y-68957347D02*
X146729952Y-68957347D01*
%TO.C,C2*%
X138743448Y-61295347D02*
X140165952Y-61295347D01*
X138743448Y-63115347D02*
X140165952Y-63115347D01*
D13*
%TO.C,IC1*%
X143157200Y-86629347D02*
X141657200Y-86629347D01*
X141307200Y-86499347D02*
X138107200Y-86499347D01*
X141307200Y-81599347D02*
X141307200Y-86499347D01*
X138107200Y-86499347D02*
X138107200Y-81599347D01*
X138107200Y-81599347D02*
X141307200Y-81599347D01*
D12*
%TO.C,R3*%
X147781000Y-93007758D02*
X147781000Y-93428242D01*
X143811000Y-93007758D02*
X143811000Y-93428242D01*
%TO.C,R1*%
X146322136Y-62486347D02*
X146776264Y-62486347D01*
X146322136Y-63956347D02*
X146776264Y-63956347D01*
%TO.C,C18*%
X156329748Y-112041000D02*
X156852252Y-112041000D01*
X156329748Y-113511000D02*
X156852252Y-113511000D01*
%TO.C,C23*%
X151617197Y-119202731D02*
X152139701Y-119202731D01*
X151617197Y-120672731D02*
X152139701Y-120672731D01*
%TO.C,F1*%
X136013452Y-78901347D02*
X133240948Y-78901347D01*
X136013452Y-75481347D02*
X133240948Y-75481347D01*
%TD*%
M02*
