G04 #@! TF.GenerationSoftware,KiCad,Pcbnew,7.0.10-7.0.10~ubuntu23.10.1*
G04 #@! TF.CreationDate,2024-02-11T21:25:11+01:00*
G04 #@! TF.ProjectId,mainBoard,6d61696e-426f-4617-9264-2e6b69636164,rev?*
G04 #@! TF.SameCoordinates,Original*
G04 #@! TF.FileFunction,AssemblyDrawing,Top*
%FSLAX46Y46*%
G04 Gerber Fmt 4.6, Leading zero omitted, Abs format (unit mm)*
G04 Created by KiCad (PCBNEW 7.0.10-7.0.10~ubuntu23.10.1) date 2024-02-11 21:25:11*
%MOMM*%
%LPD*%
G01*
G04 APERTURE LIST*
%ADD10C,0.150000*%
%ADD11C,0.080000*%
%ADD12C,0.120000*%
%ADD13C,0.254000*%
%ADD14C,0.100000*%
%ADD15C,0.025400*%
%ADD16C,0.200000*%
G04 APERTURE END LIST*
D10*
X158492988Y-135823438D02*
X158397750Y-135775819D01*
X158397750Y-135775819D02*
X158254893Y-135775819D01*
X158254893Y-135775819D02*
X158112036Y-135823438D01*
X158112036Y-135823438D02*
X158016798Y-135918676D01*
X158016798Y-135918676D02*
X157969179Y-136013914D01*
X157969179Y-136013914D02*
X157921560Y-136204390D01*
X157921560Y-136204390D02*
X157921560Y-136347247D01*
X157921560Y-136347247D02*
X157969179Y-136537723D01*
X157969179Y-136537723D02*
X158016798Y-136632961D01*
X158016798Y-136632961D02*
X158112036Y-136728200D01*
X158112036Y-136728200D02*
X158254893Y-136775819D01*
X158254893Y-136775819D02*
X158350131Y-136775819D01*
X158350131Y-136775819D02*
X158492988Y-136728200D01*
X158492988Y-136728200D02*
X158540607Y-136680580D01*
X158540607Y-136680580D02*
X158540607Y-136347247D01*
X158540607Y-136347247D02*
X158350131Y-136347247D01*
X158969179Y-136775819D02*
X158969179Y-135775819D01*
X158969179Y-135775819D02*
X159540607Y-136775819D01*
X159540607Y-136775819D02*
X159540607Y-135775819D01*
X160016798Y-136775819D02*
X160016798Y-135775819D01*
X160016798Y-135775819D02*
X160254893Y-135775819D01*
X160254893Y-135775819D02*
X160397750Y-135823438D01*
X160397750Y-135823438D02*
X160492988Y-135918676D01*
X160492988Y-135918676D02*
X160540607Y-136013914D01*
X160540607Y-136013914D02*
X160588226Y-136204390D01*
X160588226Y-136204390D02*
X160588226Y-136347247D01*
X160588226Y-136347247D02*
X160540607Y-136537723D01*
X160540607Y-136537723D02*
X160492988Y-136632961D01*
X160492988Y-136632961D02*
X160397750Y-136728200D01*
X160397750Y-136728200D02*
X160254893Y-136775819D01*
X160254893Y-136775819D02*
X160016798Y-136775819D01*
X157156379Y-123034466D02*
X157918284Y-123034466D01*
X157537331Y-123415419D02*
X157537331Y-122653514D01*
X158346855Y-122510657D02*
X158394474Y-122463038D01*
X158394474Y-122463038D02*
X158489712Y-122415419D01*
X158489712Y-122415419D02*
X158727807Y-122415419D01*
X158727807Y-122415419D02*
X158823045Y-122463038D01*
X158823045Y-122463038D02*
X158870664Y-122510657D01*
X158870664Y-122510657D02*
X158918283Y-122605895D01*
X158918283Y-122605895D02*
X158918283Y-122701133D01*
X158918283Y-122701133D02*
X158870664Y-122843990D01*
X158870664Y-122843990D02*
X158299236Y-123415419D01*
X158299236Y-123415419D02*
X158918283Y-123415419D01*
X159775426Y-122748752D02*
X159775426Y-123415419D01*
X159537331Y-122367800D02*
X159299236Y-123082085D01*
X159299236Y-123082085D02*
X159918283Y-123082085D01*
X160156379Y-122415419D02*
X160489712Y-123415419D01*
X160489712Y-123415419D02*
X160823045Y-122415419D01*
D11*
X145707979Y-117973159D02*
X145731789Y-117996968D01*
X145731789Y-117996968D02*
X145755598Y-118068397D01*
X145755598Y-118068397D02*
X145755598Y-118116016D01*
X145755598Y-118116016D02*
X145731789Y-118187444D01*
X145731789Y-118187444D02*
X145684169Y-118235063D01*
X145684169Y-118235063D02*
X145636550Y-118258873D01*
X145636550Y-118258873D02*
X145541312Y-118282682D01*
X145541312Y-118282682D02*
X145469884Y-118282682D01*
X145469884Y-118282682D02*
X145374646Y-118258873D01*
X145374646Y-118258873D02*
X145327027Y-118235063D01*
X145327027Y-118235063D02*
X145279408Y-118187444D01*
X145279408Y-118187444D02*
X145255598Y-118116016D01*
X145255598Y-118116016D02*
X145255598Y-118068397D01*
X145255598Y-118068397D02*
X145279408Y-117996968D01*
X145279408Y-117996968D02*
X145303217Y-117973159D01*
X145303217Y-117782682D02*
X145279408Y-117758873D01*
X145279408Y-117758873D02*
X145255598Y-117711254D01*
X145255598Y-117711254D02*
X145255598Y-117592206D01*
X145255598Y-117592206D02*
X145279408Y-117544587D01*
X145279408Y-117544587D02*
X145303217Y-117520778D01*
X145303217Y-117520778D02*
X145350836Y-117496968D01*
X145350836Y-117496968D02*
X145398455Y-117496968D01*
X145398455Y-117496968D02*
X145469884Y-117520778D01*
X145469884Y-117520778D02*
X145755598Y-117806492D01*
X145755598Y-117806492D02*
X145755598Y-117496968D01*
X145755598Y-117020778D02*
X145755598Y-117306492D01*
X145755598Y-117163635D02*
X145255598Y-117163635D01*
X145255598Y-117163635D02*
X145327027Y-117211254D01*
X145327027Y-117211254D02*
X145374646Y-117258873D01*
X145374646Y-117258873D02*
X145398455Y-117306492D01*
D12*
X152687664Y-97542285D02*
X152725760Y-97580381D01*
X152725760Y-97580381D02*
X152763855Y-97694666D01*
X152763855Y-97694666D02*
X152763855Y-97770857D01*
X152763855Y-97770857D02*
X152725760Y-97885143D01*
X152725760Y-97885143D02*
X152649569Y-97961333D01*
X152649569Y-97961333D02*
X152573379Y-97999428D01*
X152573379Y-97999428D02*
X152420998Y-98037524D01*
X152420998Y-98037524D02*
X152306712Y-98037524D01*
X152306712Y-98037524D02*
X152154331Y-97999428D01*
X152154331Y-97999428D02*
X152078140Y-97961333D01*
X152078140Y-97961333D02*
X152001950Y-97885143D01*
X152001950Y-97885143D02*
X151963855Y-97770857D01*
X151963855Y-97770857D02*
X151963855Y-97694666D01*
X151963855Y-97694666D02*
X152001950Y-97580381D01*
X152001950Y-97580381D02*
X152040045Y-97542285D01*
X152763855Y-96780381D02*
X152763855Y-97237524D01*
X152763855Y-97008952D02*
X151963855Y-97008952D01*
X151963855Y-97008952D02*
X152078140Y-97085143D01*
X152078140Y-97085143D02*
X152154331Y-97161333D01*
X152154331Y-97161333D02*
X152192426Y-97237524D01*
X151963855Y-96513714D02*
X151963855Y-95980380D01*
X151963855Y-95980380D02*
X152763855Y-96323238D01*
D10*
X146250819Y-101131666D02*
X146250819Y-101607856D01*
X146250819Y-101607856D02*
X145250819Y-101607856D01*
X146250819Y-100274523D02*
X146250819Y-100845951D01*
X146250819Y-100560237D02*
X145250819Y-100560237D01*
X145250819Y-100560237D02*
X145393676Y-100655475D01*
X145393676Y-100655475D02*
X145488914Y-100750713D01*
X145488914Y-100750713D02*
X145536533Y-100845951D01*
D12*
X145885367Y-58175011D02*
X145847271Y-58213107D01*
X145847271Y-58213107D02*
X145732986Y-58251202D01*
X145732986Y-58251202D02*
X145656795Y-58251202D01*
X145656795Y-58251202D02*
X145542509Y-58213107D01*
X145542509Y-58213107D02*
X145466319Y-58136916D01*
X145466319Y-58136916D02*
X145428224Y-58060726D01*
X145428224Y-58060726D02*
X145390128Y-57908345D01*
X145390128Y-57908345D02*
X145390128Y-57794059D01*
X145390128Y-57794059D02*
X145428224Y-57641678D01*
X145428224Y-57641678D02*
X145466319Y-57565487D01*
X145466319Y-57565487D02*
X145542509Y-57489297D01*
X145542509Y-57489297D02*
X145656795Y-57451202D01*
X145656795Y-57451202D02*
X145732986Y-57451202D01*
X145732986Y-57451202D02*
X145847271Y-57489297D01*
X145847271Y-57489297D02*
X145885367Y-57527392D01*
X146152033Y-57451202D02*
X146647271Y-57451202D01*
X146647271Y-57451202D02*
X146380605Y-57755964D01*
X146380605Y-57755964D02*
X146494890Y-57755964D01*
X146494890Y-57755964D02*
X146571081Y-57794059D01*
X146571081Y-57794059D02*
X146609176Y-57832154D01*
X146609176Y-57832154D02*
X146647271Y-57908345D01*
X146647271Y-57908345D02*
X146647271Y-58098821D01*
X146647271Y-58098821D02*
X146609176Y-58175011D01*
X146609176Y-58175011D02*
X146571081Y-58213107D01*
X146571081Y-58213107D02*
X146494890Y-58251202D01*
X146494890Y-58251202D02*
X146266319Y-58251202D01*
X146266319Y-58251202D02*
X146190128Y-58213107D01*
X146190128Y-58213107D02*
X146152033Y-58175011D01*
X155989664Y-97542285D02*
X156027760Y-97580381D01*
X156027760Y-97580381D02*
X156065855Y-97694666D01*
X156065855Y-97694666D02*
X156065855Y-97770857D01*
X156065855Y-97770857D02*
X156027760Y-97885143D01*
X156027760Y-97885143D02*
X155951569Y-97961333D01*
X155951569Y-97961333D02*
X155875379Y-97999428D01*
X155875379Y-97999428D02*
X155722998Y-98037524D01*
X155722998Y-98037524D02*
X155608712Y-98037524D01*
X155608712Y-98037524D02*
X155456331Y-97999428D01*
X155456331Y-97999428D02*
X155380140Y-97961333D01*
X155380140Y-97961333D02*
X155303950Y-97885143D01*
X155303950Y-97885143D02*
X155265855Y-97770857D01*
X155265855Y-97770857D02*
X155265855Y-97694666D01*
X155265855Y-97694666D02*
X155303950Y-97580381D01*
X155303950Y-97580381D02*
X155342045Y-97542285D01*
X156065855Y-96780381D02*
X156065855Y-97237524D01*
X156065855Y-97008952D02*
X155265855Y-97008952D01*
X155265855Y-97008952D02*
X155380140Y-97085143D01*
X155380140Y-97085143D02*
X155456331Y-97161333D01*
X155456331Y-97161333D02*
X155494426Y-97237524D01*
X155265855Y-96094666D02*
X155265855Y-96247047D01*
X155265855Y-96247047D02*
X155303950Y-96323238D01*
X155303950Y-96323238D02*
X155342045Y-96361333D01*
X155342045Y-96361333D02*
X155456331Y-96437523D01*
X155456331Y-96437523D02*
X155608712Y-96475619D01*
X155608712Y-96475619D02*
X155913474Y-96475619D01*
X155913474Y-96475619D02*
X155989664Y-96437523D01*
X155989664Y-96437523D02*
X156027760Y-96399428D01*
X156027760Y-96399428D02*
X156065855Y-96323238D01*
X156065855Y-96323238D02*
X156065855Y-96170857D01*
X156065855Y-96170857D02*
X156027760Y-96094666D01*
X156027760Y-96094666D02*
X155989664Y-96056571D01*
X155989664Y-96056571D02*
X155913474Y-96018476D01*
X155913474Y-96018476D02*
X155722998Y-96018476D01*
X155722998Y-96018476D02*
X155646807Y-96056571D01*
X155646807Y-96056571D02*
X155608712Y-96094666D01*
X155608712Y-96094666D02*
X155570617Y-96170857D01*
X155570617Y-96170857D02*
X155570617Y-96323238D01*
X155570617Y-96323238D02*
X155608712Y-96399428D01*
X155608712Y-96399428D02*
X155646807Y-96437523D01*
X155646807Y-96437523D02*
X155722998Y-96475619D01*
D11*
X141555930Y-120565028D02*
X141579740Y-120588837D01*
X141579740Y-120588837D02*
X141603549Y-120660266D01*
X141603549Y-120660266D02*
X141603549Y-120707885D01*
X141603549Y-120707885D02*
X141579740Y-120779313D01*
X141579740Y-120779313D02*
X141532120Y-120826932D01*
X141532120Y-120826932D02*
X141484501Y-120850742D01*
X141484501Y-120850742D02*
X141389263Y-120874551D01*
X141389263Y-120874551D02*
X141317835Y-120874551D01*
X141317835Y-120874551D02*
X141222597Y-120850742D01*
X141222597Y-120850742D02*
X141174978Y-120826932D01*
X141174978Y-120826932D02*
X141127359Y-120779313D01*
X141127359Y-120779313D02*
X141103549Y-120707885D01*
X141103549Y-120707885D02*
X141103549Y-120660266D01*
X141103549Y-120660266D02*
X141127359Y-120588837D01*
X141127359Y-120588837D02*
X141151168Y-120565028D01*
X141151168Y-120374551D02*
X141127359Y-120350742D01*
X141127359Y-120350742D02*
X141103549Y-120303123D01*
X141103549Y-120303123D02*
X141103549Y-120184075D01*
X141103549Y-120184075D02*
X141127359Y-120136456D01*
X141127359Y-120136456D02*
X141151168Y-120112647D01*
X141151168Y-120112647D02*
X141198787Y-120088837D01*
X141198787Y-120088837D02*
X141246406Y-120088837D01*
X141246406Y-120088837D02*
X141317835Y-120112647D01*
X141317835Y-120112647D02*
X141603549Y-120398361D01*
X141603549Y-120398361D02*
X141603549Y-120088837D01*
X141151168Y-119898361D02*
X141127359Y-119874552D01*
X141127359Y-119874552D02*
X141103549Y-119826933D01*
X141103549Y-119826933D02*
X141103549Y-119707885D01*
X141103549Y-119707885D02*
X141127359Y-119660266D01*
X141127359Y-119660266D02*
X141151168Y-119636457D01*
X141151168Y-119636457D02*
X141198787Y-119612647D01*
X141198787Y-119612647D02*
X141246406Y-119612647D01*
X141246406Y-119612647D02*
X141317835Y-119636457D01*
X141317835Y-119636457D02*
X141603549Y-119922171D01*
X141603549Y-119922171D02*
X141603549Y-119612647D01*
D12*
X142284514Y-113673264D02*
X142246418Y-113711360D01*
X142246418Y-113711360D02*
X142132133Y-113749455D01*
X142132133Y-113749455D02*
X142055942Y-113749455D01*
X142055942Y-113749455D02*
X141941656Y-113711360D01*
X141941656Y-113711360D02*
X141865466Y-113635169D01*
X141865466Y-113635169D02*
X141827371Y-113558979D01*
X141827371Y-113558979D02*
X141789275Y-113406598D01*
X141789275Y-113406598D02*
X141789275Y-113292312D01*
X141789275Y-113292312D02*
X141827371Y-113139931D01*
X141827371Y-113139931D02*
X141865466Y-113063740D01*
X141865466Y-113063740D02*
X141941656Y-112987550D01*
X141941656Y-112987550D02*
X142055942Y-112949455D01*
X142055942Y-112949455D02*
X142132133Y-112949455D01*
X142132133Y-112949455D02*
X142246418Y-112987550D01*
X142246418Y-112987550D02*
X142284514Y-113025645D01*
X143046418Y-113749455D02*
X142589275Y-113749455D01*
X142817847Y-113749455D02*
X142817847Y-112949455D01*
X142817847Y-112949455D02*
X142741656Y-113063740D01*
X142741656Y-113063740D02*
X142665466Y-113139931D01*
X142665466Y-113139931D02*
X142589275Y-113178026D01*
X143770228Y-112949455D02*
X143389276Y-112949455D01*
X143389276Y-112949455D02*
X143351180Y-113330407D01*
X143351180Y-113330407D02*
X143389276Y-113292312D01*
X143389276Y-113292312D02*
X143465466Y-113254217D01*
X143465466Y-113254217D02*
X143655942Y-113254217D01*
X143655942Y-113254217D02*
X143732133Y-113292312D01*
X143732133Y-113292312D02*
X143770228Y-113330407D01*
X143770228Y-113330407D02*
X143808323Y-113406598D01*
X143808323Y-113406598D02*
X143808323Y-113597074D01*
X143808323Y-113597074D02*
X143770228Y-113673264D01*
X143770228Y-113673264D02*
X143732133Y-113711360D01*
X143732133Y-113711360D02*
X143655942Y-113749455D01*
X143655942Y-113749455D02*
X143465466Y-113749455D01*
X143465466Y-113749455D02*
X143389276Y-113711360D01*
X143389276Y-113711360D02*
X143351180Y-113673264D01*
X130041714Y-122461664D02*
X130003618Y-122499760D01*
X130003618Y-122499760D02*
X129889333Y-122537855D01*
X129889333Y-122537855D02*
X129813142Y-122537855D01*
X129813142Y-122537855D02*
X129698856Y-122499760D01*
X129698856Y-122499760D02*
X129622666Y-122423569D01*
X129622666Y-122423569D02*
X129584571Y-122347379D01*
X129584571Y-122347379D02*
X129546475Y-122194998D01*
X129546475Y-122194998D02*
X129546475Y-122080712D01*
X129546475Y-122080712D02*
X129584571Y-121928331D01*
X129584571Y-121928331D02*
X129622666Y-121852140D01*
X129622666Y-121852140D02*
X129698856Y-121775950D01*
X129698856Y-121775950D02*
X129813142Y-121737855D01*
X129813142Y-121737855D02*
X129889333Y-121737855D01*
X129889333Y-121737855D02*
X130003618Y-121775950D01*
X130003618Y-121775950D02*
X130041714Y-121814045D01*
X130346475Y-121814045D02*
X130384571Y-121775950D01*
X130384571Y-121775950D02*
X130460761Y-121737855D01*
X130460761Y-121737855D02*
X130651237Y-121737855D01*
X130651237Y-121737855D02*
X130727428Y-121775950D01*
X130727428Y-121775950D02*
X130765523Y-121814045D01*
X130765523Y-121814045D02*
X130803618Y-121890236D01*
X130803618Y-121890236D02*
X130803618Y-121966426D01*
X130803618Y-121966426D02*
X130765523Y-122080712D01*
X130765523Y-122080712D02*
X130308380Y-122537855D01*
X130308380Y-122537855D02*
X130803618Y-122537855D01*
X131298857Y-121737855D02*
X131375047Y-121737855D01*
X131375047Y-121737855D02*
X131451238Y-121775950D01*
X131451238Y-121775950D02*
X131489333Y-121814045D01*
X131489333Y-121814045D02*
X131527428Y-121890236D01*
X131527428Y-121890236D02*
X131565523Y-122042617D01*
X131565523Y-122042617D02*
X131565523Y-122233093D01*
X131565523Y-122233093D02*
X131527428Y-122385474D01*
X131527428Y-122385474D02*
X131489333Y-122461664D01*
X131489333Y-122461664D02*
X131451238Y-122499760D01*
X131451238Y-122499760D02*
X131375047Y-122537855D01*
X131375047Y-122537855D02*
X131298857Y-122537855D01*
X131298857Y-122537855D02*
X131222666Y-122499760D01*
X131222666Y-122499760D02*
X131184571Y-122461664D01*
X131184571Y-122461664D02*
X131146476Y-122385474D01*
X131146476Y-122385474D02*
X131108380Y-122233093D01*
X131108380Y-122233093D02*
X131108380Y-122042617D01*
X131108380Y-122042617D02*
X131146476Y-121890236D01*
X131146476Y-121890236D02*
X131184571Y-121814045D01*
X131184571Y-121814045D02*
X131222666Y-121775950D01*
X131222666Y-121775950D02*
X131298857Y-121737855D01*
X145885367Y-60715011D02*
X145847271Y-60753107D01*
X145847271Y-60753107D02*
X145732986Y-60791202D01*
X145732986Y-60791202D02*
X145656795Y-60791202D01*
X145656795Y-60791202D02*
X145542509Y-60753107D01*
X145542509Y-60753107D02*
X145466319Y-60676916D01*
X145466319Y-60676916D02*
X145428224Y-60600726D01*
X145428224Y-60600726D02*
X145390128Y-60448345D01*
X145390128Y-60448345D02*
X145390128Y-60334059D01*
X145390128Y-60334059D02*
X145428224Y-60181678D01*
X145428224Y-60181678D02*
X145466319Y-60105487D01*
X145466319Y-60105487D02*
X145542509Y-60029297D01*
X145542509Y-60029297D02*
X145656795Y-59991202D01*
X145656795Y-59991202D02*
X145732986Y-59991202D01*
X145732986Y-59991202D02*
X145847271Y-60029297D01*
X145847271Y-60029297D02*
X145885367Y-60067392D01*
X146609176Y-59991202D02*
X146228224Y-59991202D01*
X146228224Y-59991202D02*
X146190128Y-60372154D01*
X146190128Y-60372154D02*
X146228224Y-60334059D01*
X146228224Y-60334059D02*
X146304414Y-60295964D01*
X146304414Y-60295964D02*
X146494890Y-60295964D01*
X146494890Y-60295964D02*
X146571081Y-60334059D01*
X146571081Y-60334059D02*
X146609176Y-60372154D01*
X146609176Y-60372154D02*
X146647271Y-60448345D01*
X146647271Y-60448345D02*
X146647271Y-60638821D01*
X146647271Y-60638821D02*
X146609176Y-60715011D01*
X146609176Y-60715011D02*
X146571081Y-60753107D01*
X146571081Y-60753107D02*
X146494890Y-60791202D01*
X146494890Y-60791202D02*
X146304414Y-60791202D01*
X146304414Y-60791202D02*
X146228224Y-60753107D01*
X146228224Y-60753107D02*
X146190128Y-60715011D01*
X134359714Y-119159664D02*
X134321618Y-119197760D01*
X134321618Y-119197760D02*
X134207333Y-119235855D01*
X134207333Y-119235855D02*
X134131142Y-119235855D01*
X134131142Y-119235855D02*
X134016856Y-119197760D01*
X134016856Y-119197760D02*
X133940666Y-119121569D01*
X133940666Y-119121569D02*
X133902571Y-119045379D01*
X133902571Y-119045379D02*
X133864475Y-118892998D01*
X133864475Y-118892998D02*
X133864475Y-118778712D01*
X133864475Y-118778712D02*
X133902571Y-118626331D01*
X133902571Y-118626331D02*
X133940666Y-118550140D01*
X133940666Y-118550140D02*
X134016856Y-118473950D01*
X134016856Y-118473950D02*
X134131142Y-118435855D01*
X134131142Y-118435855D02*
X134207333Y-118435855D01*
X134207333Y-118435855D02*
X134321618Y-118473950D01*
X134321618Y-118473950D02*
X134359714Y-118512045D01*
X135121618Y-119235855D02*
X134664475Y-119235855D01*
X134893047Y-119235855D02*
X134893047Y-118435855D01*
X134893047Y-118435855D02*
X134816856Y-118550140D01*
X134816856Y-118550140D02*
X134740666Y-118626331D01*
X134740666Y-118626331D02*
X134664475Y-118664426D01*
X135502571Y-119235855D02*
X135654952Y-119235855D01*
X135654952Y-119235855D02*
X135731142Y-119197760D01*
X135731142Y-119197760D02*
X135769238Y-119159664D01*
X135769238Y-119159664D02*
X135845428Y-119045379D01*
X135845428Y-119045379D02*
X135883523Y-118892998D01*
X135883523Y-118892998D02*
X135883523Y-118588236D01*
X135883523Y-118588236D02*
X135845428Y-118512045D01*
X135845428Y-118512045D02*
X135807333Y-118473950D01*
X135807333Y-118473950D02*
X135731142Y-118435855D01*
X135731142Y-118435855D02*
X135578761Y-118435855D01*
X135578761Y-118435855D02*
X135502571Y-118473950D01*
X135502571Y-118473950D02*
X135464476Y-118512045D01*
X135464476Y-118512045D02*
X135426380Y-118588236D01*
X135426380Y-118588236D02*
X135426380Y-118778712D01*
X135426380Y-118778712D02*
X135464476Y-118854902D01*
X135464476Y-118854902D02*
X135502571Y-118892998D01*
X135502571Y-118892998D02*
X135578761Y-118931093D01*
X135578761Y-118931093D02*
X135731142Y-118931093D01*
X135731142Y-118931093D02*
X135807333Y-118892998D01*
X135807333Y-118892998D02*
X135845428Y-118854902D01*
X135845428Y-118854902D02*
X135883523Y-118778712D01*
D10*
X142728961Y-109581259D02*
X142633723Y-109533640D01*
X142633723Y-109533640D02*
X142538485Y-109438402D01*
X142538485Y-109438402D02*
X142395628Y-109295544D01*
X142395628Y-109295544D02*
X142300390Y-109247925D01*
X142300390Y-109247925D02*
X142205152Y-109247925D01*
X142252771Y-109486021D02*
X142157533Y-109438402D01*
X142157533Y-109438402D02*
X142062295Y-109343163D01*
X142062295Y-109343163D02*
X142014676Y-109152687D01*
X142014676Y-109152687D02*
X142014676Y-108819354D01*
X142014676Y-108819354D02*
X142062295Y-108628878D01*
X142062295Y-108628878D02*
X142157533Y-108533640D01*
X142157533Y-108533640D02*
X142252771Y-108486021D01*
X142252771Y-108486021D02*
X142443247Y-108486021D01*
X142443247Y-108486021D02*
X142538485Y-108533640D01*
X142538485Y-108533640D02*
X142633723Y-108628878D01*
X142633723Y-108628878D02*
X142681342Y-108819354D01*
X142681342Y-108819354D02*
X142681342Y-109152687D01*
X142681342Y-109152687D02*
X142633723Y-109343163D01*
X142633723Y-109343163D02*
X142538485Y-109438402D01*
X142538485Y-109438402D02*
X142443247Y-109486021D01*
X142443247Y-109486021D02*
X142252771Y-109486021D01*
X143062295Y-108581259D02*
X143109914Y-108533640D01*
X143109914Y-108533640D02*
X143205152Y-108486021D01*
X143205152Y-108486021D02*
X143443247Y-108486021D01*
X143443247Y-108486021D02*
X143538485Y-108533640D01*
X143538485Y-108533640D02*
X143586104Y-108581259D01*
X143586104Y-108581259D02*
X143633723Y-108676497D01*
X143633723Y-108676497D02*
X143633723Y-108771735D01*
X143633723Y-108771735D02*
X143586104Y-108914592D01*
X143586104Y-108914592D02*
X143014676Y-109486021D01*
X143014676Y-109486021D02*
X143633723Y-109486021D01*
X165168019Y-101146680D02*
X165882304Y-101146680D01*
X165882304Y-101146680D02*
X166025161Y-101194299D01*
X166025161Y-101194299D02*
X166120400Y-101289537D01*
X166120400Y-101289537D02*
X166168019Y-101432394D01*
X166168019Y-101432394D02*
X166168019Y-101527632D01*
X165596590Y-100527632D02*
X165548971Y-100622870D01*
X165548971Y-100622870D02*
X165501352Y-100670489D01*
X165501352Y-100670489D02*
X165406114Y-100718108D01*
X165406114Y-100718108D02*
X165358495Y-100718108D01*
X165358495Y-100718108D02*
X165263257Y-100670489D01*
X165263257Y-100670489D02*
X165215638Y-100622870D01*
X165215638Y-100622870D02*
X165168019Y-100527632D01*
X165168019Y-100527632D02*
X165168019Y-100337156D01*
X165168019Y-100337156D02*
X165215638Y-100241918D01*
X165215638Y-100241918D02*
X165263257Y-100194299D01*
X165263257Y-100194299D02*
X165358495Y-100146680D01*
X165358495Y-100146680D02*
X165406114Y-100146680D01*
X165406114Y-100146680D02*
X165501352Y-100194299D01*
X165501352Y-100194299D02*
X165548971Y-100241918D01*
X165548971Y-100241918D02*
X165596590Y-100337156D01*
X165596590Y-100337156D02*
X165596590Y-100527632D01*
X165596590Y-100527632D02*
X165644209Y-100622870D01*
X165644209Y-100622870D02*
X165691828Y-100670489D01*
X165691828Y-100670489D02*
X165787066Y-100718108D01*
X165787066Y-100718108D02*
X165977542Y-100718108D01*
X165977542Y-100718108D02*
X166072780Y-100670489D01*
X166072780Y-100670489D02*
X166120400Y-100622870D01*
X166120400Y-100622870D02*
X166168019Y-100527632D01*
X166168019Y-100527632D02*
X166168019Y-100337156D01*
X166168019Y-100337156D02*
X166120400Y-100241918D01*
X166120400Y-100241918D02*
X166072780Y-100194299D01*
X166072780Y-100194299D02*
X165977542Y-100146680D01*
X165977542Y-100146680D02*
X165787066Y-100146680D01*
X165787066Y-100146680D02*
X165691828Y-100194299D01*
X165691828Y-100194299D02*
X165644209Y-100241918D01*
X165644209Y-100241918D02*
X165596590Y-100337156D01*
D11*
X146465866Y-65734496D02*
X146299200Y-65496401D01*
X146180152Y-65734496D02*
X146180152Y-65234496D01*
X146180152Y-65234496D02*
X146370628Y-65234496D01*
X146370628Y-65234496D02*
X146418247Y-65258306D01*
X146418247Y-65258306D02*
X146442057Y-65282115D01*
X146442057Y-65282115D02*
X146465866Y-65329734D01*
X146465866Y-65329734D02*
X146465866Y-65401163D01*
X146465866Y-65401163D02*
X146442057Y-65448782D01*
X146442057Y-65448782D02*
X146418247Y-65472591D01*
X146418247Y-65472591D02*
X146370628Y-65496401D01*
X146370628Y-65496401D02*
X146180152Y-65496401D01*
X146656343Y-65282115D02*
X146680152Y-65258306D01*
X146680152Y-65258306D02*
X146727771Y-65234496D01*
X146727771Y-65234496D02*
X146846819Y-65234496D01*
X146846819Y-65234496D02*
X146894438Y-65258306D01*
X146894438Y-65258306D02*
X146918247Y-65282115D01*
X146918247Y-65282115D02*
X146942057Y-65329734D01*
X146942057Y-65329734D02*
X146942057Y-65377353D01*
X146942057Y-65377353D02*
X146918247Y-65448782D01*
X146918247Y-65448782D02*
X146632533Y-65734496D01*
X146632533Y-65734496D02*
X146942057Y-65734496D01*
X152861915Y-123944480D02*
X152695249Y-123706385D01*
X152576201Y-123944480D02*
X152576201Y-123444480D01*
X152576201Y-123444480D02*
X152766677Y-123444480D01*
X152766677Y-123444480D02*
X152814296Y-123468290D01*
X152814296Y-123468290D02*
X152838106Y-123492099D01*
X152838106Y-123492099D02*
X152861915Y-123539718D01*
X152861915Y-123539718D02*
X152861915Y-123611147D01*
X152861915Y-123611147D02*
X152838106Y-123658766D01*
X152838106Y-123658766D02*
X152814296Y-123682575D01*
X152814296Y-123682575D02*
X152766677Y-123706385D01*
X152766677Y-123706385D02*
X152576201Y-123706385D01*
X153147630Y-123658766D02*
X153100011Y-123634956D01*
X153100011Y-123634956D02*
X153076201Y-123611147D01*
X153076201Y-123611147D02*
X153052392Y-123563528D01*
X153052392Y-123563528D02*
X153052392Y-123539718D01*
X153052392Y-123539718D02*
X153076201Y-123492099D01*
X153076201Y-123492099D02*
X153100011Y-123468290D01*
X153100011Y-123468290D02*
X153147630Y-123444480D01*
X153147630Y-123444480D02*
X153242868Y-123444480D01*
X153242868Y-123444480D02*
X153290487Y-123468290D01*
X153290487Y-123468290D02*
X153314296Y-123492099D01*
X153314296Y-123492099D02*
X153338106Y-123539718D01*
X153338106Y-123539718D02*
X153338106Y-123563528D01*
X153338106Y-123563528D02*
X153314296Y-123611147D01*
X153314296Y-123611147D02*
X153290487Y-123634956D01*
X153290487Y-123634956D02*
X153242868Y-123658766D01*
X153242868Y-123658766D02*
X153147630Y-123658766D01*
X153147630Y-123658766D02*
X153100011Y-123682575D01*
X153100011Y-123682575D02*
X153076201Y-123706385D01*
X153076201Y-123706385D02*
X153052392Y-123754004D01*
X153052392Y-123754004D02*
X153052392Y-123849242D01*
X153052392Y-123849242D02*
X153076201Y-123896861D01*
X153076201Y-123896861D02*
X153100011Y-123920671D01*
X153100011Y-123920671D02*
X153147630Y-123944480D01*
X153147630Y-123944480D02*
X153242868Y-123944480D01*
X153242868Y-123944480D02*
X153290487Y-123920671D01*
X153290487Y-123920671D02*
X153314296Y-123896861D01*
X153314296Y-123896861D02*
X153338106Y-123849242D01*
X153338106Y-123849242D02*
X153338106Y-123754004D01*
X153338106Y-123754004D02*
X153314296Y-123706385D01*
X153314296Y-123706385D02*
X153290487Y-123682575D01*
X153290487Y-123682575D02*
X153242868Y-123658766D01*
D12*
X145321664Y-84715332D02*
X145359760Y-84753428D01*
X145359760Y-84753428D02*
X145397855Y-84867713D01*
X145397855Y-84867713D02*
X145397855Y-84943904D01*
X145397855Y-84943904D02*
X145359760Y-85058190D01*
X145359760Y-85058190D02*
X145283569Y-85134380D01*
X145283569Y-85134380D02*
X145207379Y-85172475D01*
X145207379Y-85172475D02*
X145054998Y-85210571D01*
X145054998Y-85210571D02*
X144940712Y-85210571D01*
X144940712Y-85210571D02*
X144788331Y-85172475D01*
X144788331Y-85172475D02*
X144712140Y-85134380D01*
X144712140Y-85134380D02*
X144635950Y-85058190D01*
X144635950Y-85058190D02*
X144597855Y-84943904D01*
X144597855Y-84943904D02*
X144597855Y-84867713D01*
X144597855Y-84867713D02*
X144635950Y-84753428D01*
X144635950Y-84753428D02*
X144674045Y-84715332D01*
X144597855Y-84448666D02*
X144597855Y-83915332D01*
X144597855Y-83915332D02*
X145397855Y-84258190D01*
D10*
X140154019Y-132134680D02*
X140868304Y-132134680D01*
X140868304Y-132134680D02*
X141011161Y-132182299D01*
X141011161Y-132182299D02*
X141106400Y-132277537D01*
X141106400Y-132277537D02*
X141154019Y-132420394D01*
X141154019Y-132420394D02*
X141154019Y-132515632D01*
X140487352Y-131229918D02*
X141154019Y-131229918D01*
X140106400Y-131468013D02*
X140820685Y-131706108D01*
X140820685Y-131706108D02*
X140820685Y-131087061D01*
X132880057Y-54556356D02*
X133022914Y-54603975D01*
X133022914Y-54603975D02*
X133070533Y-54651594D01*
X133070533Y-54651594D02*
X133118152Y-54746832D01*
X133118152Y-54746832D02*
X133118152Y-54889689D01*
X133118152Y-54889689D02*
X133070533Y-54984927D01*
X133070533Y-54984927D02*
X133022914Y-55032547D01*
X133022914Y-55032547D02*
X132927676Y-55080166D01*
X132927676Y-55080166D02*
X132546724Y-55080166D01*
X132546724Y-55080166D02*
X132546724Y-54080166D01*
X132546724Y-54080166D02*
X132880057Y-54080166D01*
X132880057Y-54080166D02*
X132975295Y-54127785D01*
X132975295Y-54127785D02*
X133022914Y-54175404D01*
X133022914Y-54175404D02*
X133070533Y-54270642D01*
X133070533Y-54270642D02*
X133070533Y-54365880D01*
X133070533Y-54365880D02*
X133022914Y-54461118D01*
X133022914Y-54461118D02*
X132975295Y-54508737D01*
X132975295Y-54508737D02*
X132880057Y-54556356D01*
X132880057Y-54556356D02*
X132546724Y-54556356D01*
X133737200Y-54080166D02*
X133927676Y-54080166D01*
X133927676Y-54080166D02*
X134022914Y-54127785D01*
X134022914Y-54127785D02*
X134118152Y-54223023D01*
X134118152Y-54223023D02*
X134165771Y-54413499D01*
X134165771Y-54413499D02*
X134165771Y-54746832D01*
X134165771Y-54746832D02*
X134118152Y-54937308D01*
X134118152Y-54937308D02*
X134022914Y-55032547D01*
X134022914Y-55032547D02*
X133927676Y-55080166D01*
X133927676Y-55080166D02*
X133737200Y-55080166D01*
X133737200Y-55080166D02*
X133641962Y-55032547D01*
X133641962Y-55032547D02*
X133546724Y-54937308D01*
X133546724Y-54937308D02*
X133499105Y-54746832D01*
X133499105Y-54746832D02*
X133499105Y-54413499D01*
X133499105Y-54413499D02*
X133546724Y-54223023D01*
X133546724Y-54223023D02*
X133641962Y-54127785D01*
X133641962Y-54127785D02*
X133737200Y-54080166D01*
X134784819Y-54080166D02*
X134975295Y-54080166D01*
X134975295Y-54080166D02*
X135070533Y-54127785D01*
X135070533Y-54127785D02*
X135165771Y-54223023D01*
X135165771Y-54223023D02*
X135213390Y-54413499D01*
X135213390Y-54413499D02*
X135213390Y-54746832D01*
X135213390Y-54746832D02*
X135165771Y-54937308D01*
X135165771Y-54937308D02*
X135070533Y-55032547D01*
X135070533Y-55032547D02*
X134975295Y-55080166D01*
X134975295Y-55080166D02*
X134784819Y-55080166D01*
X134784819Y-55080166D02*
X134689581Y-55032547D01*
X134689581Y-55032547D02*
X134594343Y-54937308D01*
X134594343Y-54937308D02*
X134546724Y-54746832D01*
X134546724Y-54746832D02*
X134546724Y-54413499D01*
X134546724Y-54413499D02*
X134594343Y-54223023D01*
X134594343Y-54223023D02*
X134689581Y-54127785D01*
X134689581Y-54127785D02*
X134784819Y-54080166D01*
X135499105Y-54080166D02*
X136070533Y-54080166D01*
X135784819Y-55080166D02*
X135784819Y-54080166D01*
D11*
X150728315Y-125905280D02*
X150561649Y-125667185D01*
X150442601Y-125905280D02*
X150442601Y-125405280D01*
X150442601Y-125405280D02*
X150633077Y-125405280D01*
X150633077Y-125405280D02*
X150680696Y-125429090D01*
X150680696Y-125429090D02*
X150704506Y-125452899D01*
X150704506Y-125452899D02*
X150728315Y-125500518D01*
X150728315Y-125500518D02*
X150728315Y-125571947D01*
X150728315Y-125571947D02*
X150704506Y-125619566D01*
X150704506Y-125619566D02*
X150680696Y-125643375D01*
X150680696Y-125643375D02*
X150633077Y-125667185D01*
X150633077Y-125667185D02*
X150442601Y-125667185D01*
X150966411Y-125905280D02*
X151061649Y-125905280D01*
X151061649Y-125905280D02*
X151109268Y-125881471D01*
X151109268Y-125881471D02*
X151133077Y-125857661D01*
X151133077Y-125857661D02*
X151180696Y-125786232D01*
X151180696Y-125786232D02*
X151204506Y-125690994D01*
X151204506Y-125690994D02*
X151204506Y-125500518D01*
X151204506Y-125500518D02*
X151180696Y-125452899D01*
X151180696Y-125452899D02*
X151156887Y-125429090D01*
X151156887Y-125429090D02*
X151109268Y-125405280D01*
X151109268Y-125405280D02*
X151014030Y-125405280D01*
X151014030Y-125405280D02*
X150966411Y-125429090D01*
X150966411Y-125429090D02*
X150942601Y-125452899D01*
X150942601Y-125452899D02*
X150918792Y-125500518D01*
X150918792Y-125500518D02*
X150918792Y-125619566D01*
X150918792Y-125619566D02*
X150942601Y-125667185D01*
X150942601Y-125667185D02*
X150966411Y-125690994D01*
X150966411Y-125690994D02*
X151014030Y-125714804D01*
X151014030Y-125714804D02*
X151109268Y-125714804D01*
X151109268Y-125714804D02*
X151156887Y-125690994D01*
X151156887Y-125690994D02*
X151180696Y-125667185D01*
X151180696Y-125667185D02*
X151204506Y-125619566D01*
X148603579Y-118938359D02*
X148627389Y-118962168D01*
X148627389Y-118962168D02*
X148651198Y-119033597D01*
X148651198Y-119033597D02*
X148651198Y-119081216D01*
X148651198Y-119081216D02*
X148627389Y-119152644D01*
X148627389Y-119152644D02*
X148579769Y-119200263D01*
X148579769Y-119200263D02*
X148532150Y-119224073D01*
X148532150Y-119224073D02*
X148436912Y-119247882D01*
X148436912Y-119247882D02*
X148365484Y-119247882D01*
X148365484Y-119247882D02*
X148270246Y-119224073D01*
X148270246Y-119224073D02*
X148222627Y-119200263D01*
X148222627Y-119200263D02*
X148175008Y-119152644D01*
X148175008Y-119152644D02*
X148151198Y-119081216D01*
X148151198Y-119081216D02*
X148151198Y-119033597D01*
X148151198Y-119033597D02*
X148175008Y-118962168D01*
X148175008Y-118962168D02*
X148198817Y-118938359D01*
X148198817Y-118747882D02*
X148175008Y-118724073D01*
X148175008Y-118724073D02*
X148151198Y-118676454D01*
X148151198Y-118676454D02*
X148151198Y-118557406D01*
X148151198Y-118557406D02*
X148175008Y-118509787D01*
X148175008Y-118509787D02*
X148198817Y-118485978D01*
X148198817Y-118485978D02*
X148246436Y-118462168D01*
X148246436Y-118462168D02*
X148294055Y-118462168D01*
X148294055Y-118462168D02*
X148365484Y-118485978D01*
X148365484Y-118485978D02*
X148651198Y-118771692D01*
X148651198Y-118771692D02*
X148651198Y-118462168D01*
X148317865Y-118033597D02*
X148651198Y-118033597D01*
X148127389Y-118152645D02*
X148484531Y-118271692D01*
X148484531Y-118271692D02*
X148484531Y-117962169D01*
D12*
X134024367Y-62493011D02*
X133986271Y-62531107D01*
X133986271Y-62531107D02*
X133871986Y-62569202D01*
X133871986Y-62569202D02*
X133795795Y-62569202D01*
X133795795Y-62569202D02*
X133681509Y-62531107D01*
X133681509Y-62531107D02*
X133605319Y-62454916D01*
X133605319Y-62454916D02*
X133567224Y-62378726D01*
X133567224Y-62378726D02*
X133529128Y-62226345D01*
X133529128Y-62226345D02*
X133529128Y-62112059D01*
X133529128Y-62112059D02*
X133567224Y-61959678D01*
X133567224Y-61959678D02*
X133605319Y-61883487D01*
X133605319Y-61883487D02*
X133681509Y-61807297D01*
X133681509Y-61807297D02*
X133795795Y-61769202D01*
X133795795Y-61769202D02*
X133871986Y-61769202D01*
X133871986Y-61769202D02*
X133986271Y-61807297D01*
X133986271Y-61807297D02*
X134024367Y-61845392D01*
X134786271Y-62569202D02*
X134329128Y-62569202D01*
X134557700Y-62569202D02*
X134557700Y-61769202D01*
X134557700Y-61769202D02*
X134481509Y-61883487D01*
X134481509Y-61883487D02*
X134405319Y-61959678D01*
X134405319Y-61959678D02*
X134329128Y-61997773D01*
D13*
X121935518Y-109033732D02*
X122842661Y-109033732D01*
X122842661Y-109033732D02*
X123024089Y-109094209D01*
X123024089Y-109094209D02*
X123145042Y-109215161D01*
X123145042Y-109215161D02*
X123205518Y-109396590D01*
X123205518Y-109396590D02*
X123205518Y-109517542D01*
X122056470Y-108489447D02*
X121995994Y-108428971D01*
X121995994Y-108428971D02*
X121935518Y-108308018D01*
X121935518Y-108308018D02*
X121935518Y-108005637D01*
X121935518Y-108005637D02*
X121995994Y-107884685D01*
X121995994Y-107884685D02*
X122056470Y-107824209D01*
X122056470Y-107824209D02*
X122177422Y-107763732D01*
X122177422Y-107763732D02*
X122298375Y-107763732D01*
X122298375Y-107763732D02*
X122479803Y-107824209D01*
X122479803Y-107824209D02*
X123205518Y-108549923D01*
X123205518Y-108549923D02*
X123205518Y-107763732D01*
D10*
X138769580Y-55080166D02*
X138436247Y-54603975D01*
X138198152Y-55080166D02*
X138198152Y-54080166D01*
X138198152Y-54080166D02*
X138579104Y-54080166D01*
X138579104Y-54080166D02*
X138674342Y-54127785D01*
X138674342Y-54127785D02*
X138721961Y-54175404D01*
X138721961Y-54175404D02*
X138769580Y-54270642D01*
X138769580Y-54270642D02*
X138769580Y-54413499D01*
X138769580Y-54413499D02*
X138721961Y-54508737D01*
X138721961Y-54508737D02*
X138674342Y-54556356D01*
X138674342Y-54556356D02*
X138579104Y-54603975D01*
X138579104Y-54603975D02*
X138198152Y-54603975D01*
X139150533Y-55032547D02*
X139293390Y-55080166D01*
X139293390Y-55080166D02*
X139531485Y-55080166D01*
X139531485Y-55080166D02*
X139626723Y-55032547D01*
X139626723Y-55032547D02*
X139674342Y-54984927D01*
X139674342Y-54984927D02*
X139721961Y-54889689D01*
X139721961Y-54889689D02*
X139721961Y-54794451D01*
X139721961Y-54794451D02*
X139674342Y-54699213D01*
X139674342Y-54699213D02*
X139626723Y-54651594D01*
X139626723Y-54651594D02*
X139531485Y-54603975D01*
X139531485Y-54603975D02*
X139341009Y-54556356D01*
X139341009Y-54556356D02*
X139245771Y-54508737D01*
X139245771Y-54508737D02*
X139198152Y-54461118D01*
X139198152Y-54461118D02*
X139150533Y-54365880D01*
X139150533Y-54365880D02*
X139150533Y-54270642D01*
X139150533Y-54270642D02*
X139198152Y-54175404D01*
X139198152Y-54175404D02*
X139245771Y-54127785D01*
X139245771Y-54127785D02*
X139341009Y-54080166D01*
X139341009Y-54080166D02*
X139579104Y-54080166D01*
X139579104Y-54080166D02*
X139721961Y-54127785D01*
X140007676Y-54080166D02*
X140579104Y-54080166D01*
X140293390Y-55080166D02*
X140293390Y-54080166D01*
X133363619Y-132210133D02*
X134077904Y-132210133D01*
X134077904Y-132210133D02*
X134220761Y-132257752D01*
X134220761Y-132257752D02*
X134316000Y-132352990D01*
X134316000Y-132352990D02*
X134363619Y-132495847D01*
X134363619Y-132495847D02*
X134363619Y-132591085D01*
X133363619Y-131257752D02*
X133363619Y-131733942D01*
X133363619Y-131733942D02*
X133839809Y-131781561D01*
X133839809Y-131781561D02*
X133792190Y-131733942D01*
X133792190Y-131733942D02*
X133744571Y-131638704D01*
X133744571Y-131638704D02*
X133744571Y-131400609D01*
X133744571Y-131400609D02*
X133792190Y-131305371D01*
X133792190Y-131305371D02*
X133839809Y-131257752D01*
X133839809Y-131257752D02*
X133935047Y-131210133D01*
X133935047Y-131210133D02*
X134173142Y-131210133D01*
X134173142Y-131210133D02*
X134268380Y-131257752D01*
X134268380Y-131257752D02*
X134316000Y-131305371D01*
X134316000Y-131305371D02*
X134363619Y-131400609D01*
X134363619Y-131400609D02*
X134363619Y-131638704D01*
X134363619Y-131638704D02*
X134316000Y-131733942D01*
X134316000Y-131733942D02*
X134268380Y-131781561D01*
D12*
X142400664Y-70618332D02*
X142438760Y-70656428D01*
X142438760Y-70656428D02*
X142476855Y-70770713D01*
X142476855Y-70770713D02*
X142476855Y-70846904D01*
X142476855Y-70846904D02*
X142438760Y-70961190D01*
X142438760Y-70961190D02*
X142362569Y-71037380D01*
X142362569Y-71037380D02*
X142286379Y-71075475D01*
X142286379Y-71075475D02*
X142133998Y-71113571D01*
X142133998Y-71113571D02*
X142019712Y-71113571D01*
X142019712Y-71113571D02*
X141867331Y-71075475D01*
X141867331Y-71075475D02*
X141791140Y-71037380D01*
X141791140Y-71037380D02*
X141714950Y-70961190D01*
X141714950Y-70961190D02*
X141676855Y-70846904D01*
X141676855Y-70846904D02*
X141676855Y-70770713D01*
X141676855Y-70770713D02*
X141714950Y-70656428D01*
X141714950Y-70656428D02*
X141753045Y-70618332D01*
X142019712Y-70161190D02*
X141981617Y-70237380D01*
X141981617Y-70237380D02*
X141943521Y-70275475D01*
X141943521Y-70275475D02*
X141867331Y-70313571D01*
X141867331Y-70313571D02*
X141829236Y-70313571D01*
X141829236Y-70313571D02*
X141753045Y-70275475D01*
X141753045Y-70275475D02*
X141714950Y-70237380D01*
X141714950Y-70237380D02*
X141676855Y-70161190D01*
X141676855Y-70161190D02*
X141676855Y-70008809D01*
X141676855Y-70008809D02*
X141714950Y-69932618D01*
X141714950Y-69932618D02*
X141753045Y-69894523D01*
X141753045Y-69894523D02*
X141829236Y-69856428D01*
X141829236Y-69856428D02*
X141867331Y-69856428D01*
X141867331Y-69856428D02*
X141943521Y-69894523D01*
X141943521Y-69894523D02*
X141981617Y-69932618D01*
X141981617Y-69932618D02*
X142019712Y-70008809D01*
X142019712Y-70008809D02*
X142019712Y-70161190D01*
X142019712Y-70161190D02*
X142057807Y-70237380D01*
X142057807Y-70237380D02*
X142095902Y-70275475D01*
X142095902Y-70275475D02*
X142172093Y-70313571D01*
X142172093Y-70313571D02*
X142324474Y-70313571D01*
X142324474Y-70313571D02*
X142400664Y-70275475D01*
X142400664Y-70275475D02*
X142438760Y-70237380D01*
X142438760Y-70237380D02*
X142476855Y-70161190D01*
X142476855Y-70161190D02*
X142476855Y-70008809D01*
X142476855Y-70008809D02*
X142438760Y-69932618D01*
X142438760Y-69932618D02*
X142400664Y-69894523D01*
X142400664Y-69894523D02*
X142324474Y-69856428D01*
X142324474Y-69856428D02*
X142172093Y-69856428D01*
X142172093Y-69856428D02*
X142095902Y-69894523D01*
X142095902Y-69894523D02*
X142057807Y-69932618D01*
X142057807Y-69932618D02*
X142019712Y-70008809D01*
D11*
X152420620Y-129921661D02*
X152396811Y-129945471D01*
X152396811Y-129945471D02*
X152325382Y-129969280D01*
X152325382Y-129969280D02*
X152277763Y-129969280D01*
X152277763Y-129969280D02*
X152206335Y-129945471D01*
X152206335Y-129945471D02*
X152158716Y-129897851D01*
X152158716Y-129897851D02*
X152134906Y-129850232D01*
X152134906Y-129850232D02*
X152111097Y-129754994D01*
X152111097Y-129754994D02*
X152111097Y-129683566D01*
X152111097Y-129683566D02*
X152134906Y-129588328D01*
X152134906Y-129588328D02*
X152158716Y-129540709D01*
X152158716Y-129540709D02*
X152206335Y-129493090D01*
X152206335Y-129493090D02*
X152277763Y-129469280D01*
X152277763Y-129469280D02*
X152325382Y-129469280D01*
X152325382Y-129469280D02*
X152396811Y-129493090D01*
X152396811Y-129493090D02*
X152420620Y-129516899D01*
X152611097Y-129516899D02*
X152634906Y-129493090D01*
X152634906Y-129493090D02*
X152682525Y-129469280D01*
X152682525Y-129469280D02*
X152801573Y-129469280D01*
X152801573Y-129469280D02*
X152849192Y-129493090D01*
X152849192Y-129493090D02*
X152873001Y-129516899D01*
X152873001Y-129516899D02*
X152896811Y-129564518D01*
X152896811Y-129564518D02*
X152896811Y-129612137D01*
X152896811Y-129612137D02*
X152873001Y-129683566D01*
X152873001Y-129683566D02*
X152587287Y-129969280D01*
X152587287Y-129969280D02*
X152896811Y-129969280D01*
X153063477Y-129469280D02*
X153396810Y-129469280D01*
X153396810Y-129469280D02*
X153182525Y-129969280D01*
D12*
X134653664Y-84080332D02*
X134691760Y-84118428D01*
X134691760Y-84118428D02*
X134729855Y-84232713D01*
X134729855Y-84232713D02*
X134729855Y-84308904D01*
X134729855Y-84308904D02*
X134691760Y-84423190D01*
X134691760Y-84423190D02*
X134615569Y-84499380D01*
X134615569Y-84499380D02*
X134539379Y-84537475D01*
X134539379Y-84537475D02*
X134386998Y-84575571D01*
X134386998Y-84575571D02*
X134272712Y-84575571D01*
X134272712Y-84575571D02*
X134120331Y-84537475D01*
X134120331Y-84537475D02*
X134044140Y-84499380D01*
X134044140Y-84499380D02*
X133967950Y-84423190D01*
X133967950Y-84423190D02*
X133929855Y-84308904D01*
X133929855Y-84308904D02*
X133929855Y-84232713D01*
X133929855Y-84232713D02*
X133967950Y-84118428D01*
X133967950Y-84118428D02*
X134006045Y-84080332D01*
X133929855Y-83394618D02*
X133929855Y-83546999D01*
X133929855Y-83546999D02*
X133967950Y-83623190D01*
X133967950Y-83623190D02*
X134006045Y-83661285D01*
X134006045Y-83661285D02*
X134120331Y-83737475D01*
X134120331Y-83737475D02*
X134272712Y-83775571D01*
X134272712Y-83775571D02*
X134577474Y-83775571D01*
X134577474Y-83775571D02*
X134653664Y-83737475D01*
X134653664Y-83737475D02*
X134691760Y-83699380D01*
X134691760Y-83699380D02*
X134729855Y-83623190D01*
X134729855Y-83623190D02*
X134729855Y-83470809D01*
X134729855Y-83470809D02*
X134691760Y-83394618D01*
X134691760Y-83394618D02*
X134653664Y-83356523D01*
X134653664Y-83356523D02*
X134577474Y-83318428D01*
X134577474Y-83318428D02*
X134386998Y-83318428D01*
X134386998Y-83318428D02*
X134310807Y-83356523D01*
X134310807Y-83356523D02*
X134272712Y-83394618D01*
X134272712Y-83394618D02*
X134234617Y-83470809D01*
X134234617Y-83470809D02*
X134234617Y-83623190D01*
X134234617Y-83623190D02*
X134272712Y-83699380D01*
X134272712Y-83699380D02*
X134310807Y-83737475D01*
X134310807Y-83737475D02*
X134386998Y-83775571D01*
X136431664Y-97542285D02*
X136469760Y-97580381D01*
X136469760Y-97580381D02*
X136507855Y-97694666D01*
X136507855Y-97694666D02*
X136507855Y-97770857D01*
X136507855Y-97770857D02*
X136469760Y-97885143D01*
X136469760Y-97885143D02*
X136393569Y-97961333D01*
X136393569Y-97961333D02*
X136317379Y-97999428D01*
X136317379Y-97999428D02*
X136164998Y-98037524D01*
X136164998Y-98037524D02*
X136050712Y-98037524D01*
X136050712Y-98037524D02*
X135898331Y-97999428D01*
X135898331Y-97999428D02*
X135822140Y-97961333D01*
X135822140Y-97961333D02*
X135745950Y-97885143D01*
X135745950Y-97885143D02*
X135707855Y-97770857D01*
X135707855Y-97770857D02*
X135707855Y-97694666D01*
X135707855Y-97694666D02*
X135745950Y-97580381D01*
X135745950Y-97580381D02*
X135784045Y-97542285D01*
X136507855Y-96780381D02*
X136507855Y-97237524D01*
X136507855Y-97008952D02*
X135707855Y-97008952D01*
X135707855Y-97008952D02*
X135822140Y-97085143D01*
X135822140Y-97085143D02*
X135898331Y-97161333D01*
X135898331Y-97161333D02*
X135936426Y-97237524D01*
X136507855Y-96018476D02*
X136507855Y-96475619D01*
X136507855Y-96247047D02*
X135707855Y-96247047D01*
X135707855Y-96247047D02*
X135822140Y-96323238D01*
X135822140Y-96323238D02*
X135898331Y-96399428D01*
X135898331Y-96399428D02*
X135936426Y-96475619D01*
D11*
X156269571Y-108891530D02*
X156245762Y-108915340D01*
X156245762Y-108915340D02*
X156174333Y-108939149D01*
X156174333Y-108939149D02*
X156126714Y-108939149D01*
X156126714Y-108939149D02*
X156055286Y-108915340D01*
X156055286Y-108915340D02*
X156007667Y-108867720D01*
X156007667Y-108867720D02*
X155983857Y-108820101D01*
X155983857Y-108820101D02*
X155960048Y-108724863D01*
X155960048Y-108724863D02*
X155960048Y-108653435D01*
X155960048Y-108653435D02*
X155983857Y-108558197D01*
X155983857Y-108558197D02*
X156007667Y-108510578D01*
X156007667Y-108510578D02*
X156055286Y-108462959D01*
X156055286Y-108462959D02*
X156126714Y-108439149D01*
X156126714Y-108439149D02*
X156174333Y-108439149D01*
X156174333Y-108439149D02*
X156245762Y-108462959D01*
X156245762Y-108462959D02*
X156269571Y-108486768D01*
X156745762Y-108939149D02*
X156460048Y-108939149D01*
X156602905Y-108939149D02*
X156602905Y-108439149D01*
X156602905Y-108439149D02*
X156555286Y-108510578D01*
X156555286Y-108510578D02*
X156507667Y-108558197D01*
X156507667Y-108558197D02*
X156460048Y-108582006D01*
X156936238Y-108486768D02*
X156960047Y-108462959D01*
X156960047Y-108462959D02*
X157007666Y-108439149D01*
X157007666Y-108439149D02*
X157126714Y-108439149D01*
X157126714Y-108439149D02*
X157174333Y-108462959D01*
X157174333Y-108462959D02*
X157198142Y-108486768D01*
X157198142Y-108486768D02*
X157221952Y-108534387D01*
X157221952Y-108534387D02*
X157221952Y-108582006D01*
X157221952Y-108582006D02*
X157198142Y-108653435D01*
X157198142Y-108653435D02*
X156912428Y-108939149D01*
X156912428Y-108939149D02*
X157221952Y-108939149D01*
X147965398Y-129003121D02*
X147727303Y-129169787D01*
X147965398Y-129288835D02*
X147465398Y-129288835D01*
X147465398Y-129288835D02*
X147465398Y-129098359D01*
X147465398Y-129098359D02*
X147489208Y-129050740D01*
X147489208Y-129050740D02*
X147513017Y-129026930D01*
X147513017Y-129026930D02*
X147560636Y-129003121D01*
X147560636Y-129003121D02*
X147632065Y-129003121D01*
X147632065Y-129003121D02*
X147679684Y-129026930D01*
X147679684Y-129026930D02*
X147703493Y-129050740D01*
X147703493Y-129050740D02*
X147727303Y-129098359D01*
X147727303Y-129098359D02*
X147727303Y-129288835D01*
X147632065Y-128860263D02*
X147632065Y-128669787D01*
X147465398Y-128788835D02*
X147893969Y-128788835D01*
X147893969Y-128788835D02*
X147941589Y-128765025D01*
X147941589Y-128765025D02*
X147965398Y-128717406D01*
X147965398Y-128717406D02*
X147965398Y-128669787D01*
X147965398Y-128241216D02*
X147965398Y-128526930D01*
X147965398Y-128384073D02*
X147465398Y-128384073D01*
X147465398Y-128384073D02*
X147536827Y-128431692D01*
X147536827Y-128431692D02*
X147584446Y-128479311D01*
X147584446Y-128479311D02*
X147608255Y-128526930D01*
D12*
X151925664Y-115322285D02*
X151963760Y-115360381D01*
X151963760Y-115360381D02*
X152001855Y-115474666D01*
X152001855Y-115474666D02*
X152001855Y-115550857D01*
X152001855Y-115550857D02*
X151963760Y-115665143D01*
X151963760Y-115665143D02*
X151887569Y-115741333D01*
X151887569Y-115741333D02*
X151811379Y-115779428D01*
X151811379Y-115779428D02*
X151658998Y-115817524D01*
X151658998Y-115817524D02*
X151544712Y-115817524D01*
X151544712Y-115817524D02*
X151392331Y-115779428D01*
X151392331Y-115779428D02*
X151316140Y-115741333D01*
X151316140Y-115741333D02*
X151239950Y-115665143D01*
X151239950Y-115665143D02*
X151201855Y-115550857D01*
X151201855Y-115550857D02*
X151201855Y-115474666D01*
X151201855Y-115474666D02*
X151239950Y-115360381D01*
X151239950Y-115360381D02*
X151278045Y-115322285D01*
X151278045Y-115017524D02*
X151239950Y-114979428D01*
X151239950Y-114979428D02*
X151201855Y-114903238D01*
X151201855Y-114903238D02*
X151201855Y-114712762D01*
X151201855Y-114712762D02*
X151239950Y-114636571D01*
X151239950Y-114636571D02*
X151278045Y-114598476D01*
X151278045Y-114598476D02*
X151354236Y-114560381D01*
X151354236Y-114560381D02*
X151430426Y-114560381D01*
X151430426Y-114560381D02*
X151544712Y-114598476D01*
X151544712Y-114598476D02*
X152001855Y-115055619D01*
X152001855Y-115055619D02*
X152001855Y-114560381D01*
X151201855Y-113874666D02*
X151201855Y-114027047D01*
X151201855Y-114027047D02*
X151239950Y-114103238D01*
X151239950Y-114103238D02*
X151278045Y-114141333D01*
X151278045Y-114141333D02*
X151392331Y-114217523D01*
X151392331Y-114217523D02*
X151544712Y-114255619D01*
X151544712Y-114255619D02*
X151849474Y-114255619D01*
X151849474Y-114255619D02*
X151925664Y-114217523D01*
X151925664Y-114217523D02*
X151963760Y-114179428D01*
X151963760Y-114179428D02*
X152001855Y-114103238D01*
X152001855Y-114103238D02*
X152001855Y-113950857D01*
X152001855Y-113950857D02*
X151963760Y-113874666D01*
X151963760Y-113874666D02*
X151925664Y-113836571D01*
X151925664Y-113836571D02*
X151849474Y-113798476D01*
X151849474Y-113798476D02*
X151658998Y-113798476D01*
X151658998Y-113798476D02*
X151582807Y-113836571D01*
X151582807Y-113836571D02*
X151544712Y-113874666D01*
X151544712Y-113874666D02*
X151506617Y-113950857D01*
X151506617Y-113950857D02*
X151506617Y-114103238D01*
X151506617Y-114103238D02*
X151544712Y-114179428D01*
X151544712Y-114179428D02*
X151582807Y-114217523D01*
X151582807Y-114217523D02*
X151658998Y-114255619D01*
D13*
X121275118Y-71390932D02*
X122182261Y-71390932D01*
X122182261Y-71390932D02*
X122363689Y-71451409D01*
X122363689Y-71451409D02*
X122484642Y-71572361D01*
X122484642Y-71572361D02*
X122545118Y-71753790D01*
X122545118Y-71753790D02*
X122545118Y-71874742D01*
X122545118Y-70120932D02*
X122545118Y-70846647D01*
X122545118Y-70483790D02*
X121275118Y-70483790D01*
X121275118Y-70483790D02*
X121456546Y-70604742D01*
X121456546Y-70604742D02*
X121577499Y-70725694D01*
X121577499Y-70725694D02*
X121637975Y-70846647D01*
D12*
X139665664Y-97542285D02*
X139703760Y-97580381D01*
X139703760Y-97580381D02*
X139741855Y-97694666D01*
X139741855Y-97694666D02*
X139741855Y-97770857D01*
X139741855Y-97770857D02*
X139703760Y-97885143D01*
X139703760Y-97885143D02*
X139627569Y-97961333D01*
X139627569Y-97961333D02*
X139551379Y-97999428D01*
X139551379Y-97999428D02*
X139398998Y-98037524D01*
X139398998Y-98037524D02*
X139284712Y-98037524D01*
X139284712Y-98037524D02*
X139132331Y-97999428D01*
X139132331Y-97999428D02*
X139056140Y-97961333D01*
X139056140Y-97961333D02*
X138979950Y-97885143D01*
X138979950Y-97885143D02*
X138941855Y-97770857D01*
X138941855Y-97770857D02*
X138941855Y-97694666D01*
X138941855Y-97694666D02*
X138979950Y-97580381D01*
X138979950Y-97580381D02*
X139018045Y-97542285D01*
X139741855Y-96780381D02*
X139741855Y-97237524D01*
X139741855Y-97008952D02*
X138941855Y-97008952D01*
X138941855Y-97008952D02*
X139056140Y-97085143D01*
X139056140Y-97085143D02*
X139132331Y-97161333D01*
X139132331Y-97161333D02*
X139170426Y-97237524D01*
X138941855Y-96285142D02*
X138941855Y-96208952D01*
X138941855Y-96208952D02*
X138979950Y-96132761D01*
X138979950Y-96132761D02*
X139018045Y-96094666D01*
X139018045Y-96094666D02*
X139094236Y-96056571D01*
X139094236Y-96056571D02*
X139246617Y-96018476D01*
X139246617Y-96018476D02*
X139437093Y-96018476D01*
X139437093Y-96018476D02*
X139589474Y-96056571D01*
X139589474Y-96056571D02*
X139665664Y-96094666D01*
X139665664Y-96094666D02*
X139703760Y-96132761D01*
X139703760Y-96132761D02*
X139741855Y-96208952D01*
X139741855Y-96208952D02*
X139741855Y-96285142D01*
X139741855Y-96285142D02*
X139703760Y-96361333D01*
X139703760Y-96361333D02*
X139665664Y-96399428D01*
X139665664Y-96399428D02*
X139589474Y-96437523D01*
X139589474Y-96437523D02*
X139437093Y-96475619D01*
X139437093Y-96475619D02*
X139246617Y-96475619D01*
X139246617Y-96475619D02*
X139094236Y-96437523D01*
X139094236Y-96437523D02*
X139018045Y-96399428D01*
X139018045Y-96399428D02*
X138979950Y-96361333D01*
X138979950Y-96361333D02*
X138941855Y-96285142D01*
D11*
X156269571Y-106859530D02*
X156245762Y-106883340D01*
X156245762Y-106883340D02*
X156174333Y-106907149D01*
X156174333Y-106907149D02*
X156126714Y-106907149D01*
X156126714Y-106907149D02*
X156055286Y-106883340D01*
X156055286Y-106883340D02*
X156007667Y-106835720D01*
X156007667Y-106835720D02*
X155983857Y-106788101D01*
X155983857Y-106788101D02*
X155960048Y-106692863D01*
X155960048Y-106692863D02*
X155960048Y-106621435D01*
X155960048Y-106621435D02*
X155983857Y-106526197D01*
X155983857Y-106526197D02*
X156007667Y-106478578D01*
X156007667Y-106478578D02*
X156055286Y-106430959D01*
X156055286Y-106430959D02*
X156126714Y-106407149D01*
X156126714Y-106407149D02*
X156174333Y-106407149D01*
X156174333Y-106407149D02*
X156245762Y-106430959D01*
X156245762Y-106430959D02*
X156269571Y-106454768D01*
X156745762Y-106907149D02*
X156460048Y-106907149D01*
X156602905Y-106907149D02*
X156602905Y-106407149D01*
X156602905Y-106407149D02*
X156555286Y-106478578D01*
X156555286Y-106478578D02*
X156507667Y-106526197D01*
X156507667Y-106526197D02*
X156460048Y-106550006D01*
X157174333Y-106573816D02*
X157174333Y-106907149D01*
X157055285Y-106383340D02*
X156936238Y-106740482D01*
X156936238Y-106740482D02*
X157245761Y-106740482D01*
X150124398Y-122886264D02*
X149886303Y-123052930D01*
X150124398Y-123171978D02*
X149624398Y-123171978D01*
X149624398Y-123171978D02*
X149624398Y-122981502D01*
X149624398Y-122981502D02*
X149648208Y-122933883D01*
X149648208Y-122933883D02*
X149672017Y-122910073D01*
X149672017Y-122910073D02*
X149719636Y-122886264D01*
X149719636Y-122886264D02*
X149791065Y-122886264D01*
X149791065Y-122886264D02*
X149838684Y-122910073D01*
X149838684Y-122910073D02*
X149862493Y-122933883D01*
X149862493Y-122933883D02*
X149886303Y-122981502D01*
X149886303Y-122981502D02*
X149886303Y-123171978D01*
X149624398Y-122719597D02*
X149624398Y-122386264D01*
X149624398Y-122386264D02*
X150124398Y-122600549D01*
D13*
X133605080Y-109135332D02*
X133605080Y-109558666D01*
X134270318Y-109558666D02*
X133000318Y-109558666D01*
X133000318Y-109558666D02*
X133000318Y-108953904D01*
X133121270Y-108530571D02*
X133060794Y-108470095D01*
X133060794Y-108470095D02*
X133000318Y-108349142D01*
X133000318Y-108349142D02*
X133000318Y-108046761D01*
X133000318Y-108046761D02*
X133060794Y-107925809D01*
X133060794Y-107925809D02*
X133121270Y-107865333D01*
X133121270Y-107865333D02*
X133242222Y-107804856D01*
X133242222Y-107804856D02*
X133363175Y-107804856D01*
X133363175Y-107804856D02*
X133544603Y-107865333D01*
X133544603Y-107865333D02*
X134270318Y-108591047D01*
X134270318Y-108591047D02*
X134270318Y-107804856D01*
D11*
X156269571Y-110923530D02*
X156245762Y-110947340D01*
X156245762Y-110947340D02*
X156174333Y-110971149D01*
X156174333Y-110971149D02*
X156126714Y-110971149D01*
X156126714Y-110971149D02*
X156055286Y-110947340D01*
X156055286Y-110947340D02*
X156007667Y-110899720D01*
X156007667Y-110899720D02*
X155983857Y-110852101D01*
X155983857Y-110852101D02*
X155960048Y-110756863D01*
X155960048Y-110756863D02*
X155960048Y-110685435D01*
X155960048Y-110685435D02*
X155983857Y-110590197D01*
X155983857Y-110590197D02*
X156007667Y-110542578D01*
X156007667Y-110542578D02*
X156055286Y-110494959D01*
X156055286Y-110494959D02*
X156126714Y-110471149D01*
X156126714Y-110471149D02*
X156174333Y-110471149D01*
X156174333Y-110471149D02*
X156245762Y-110494959D01*
X156245762Y-110494959D02*
X156269571Y-110518768D01*
X156745762Y-110971149D02*
X156460048Y-110971149D01*
X156602905Y-110971149D02*
X156602905Y-110471149D01*
X156602905Y-110471149D02*
X156555286Y-110542578D01*
X156555286Y-110542578D02*
X156507667Y-110590197D01*
X156507667Y-110590197D02*
X156460048Y-110614006D01*
X156912428Y-110471149D02*
X157221952Y-110471149D01*
X157221952Y-110471149D02*
X157055285Y-110661625D01*
X157055285Y-110661625D02*
X157126714Y-110661625D01*
X157126714Y-110661625D02*
X157174333Y-110685435D01*
X157174333Y-110685435D02*
X157198142Y-110709244D01*
X157198142Y-110709244D02*
X157221952Y-110756863D01*
X157221952Y-110756863D02*
X157221952Y-110875911D01*
X157221952Y-110875911D02*
X157198142Y-110923530D01*
X157198142Y-110923530D02*
X157174333Y-110947340D01*
X157174333Y-110947340D02*
X157126714Y-110971149D01*
X157126714Y-110971149D02*
X156983857Y-110971149D01*
X156983857Y-110971149D02*
X156936238Y-110947340D01*
X156936238Y-110947340D02*
X156912428Y-110923530D01*
D10*
X149993361Y-109592257D02*
X149898123Y-109544638D01*
X149898123Y-109544638D02*
X149802885Y-109449400D01*
X149802885Y-109449400D02*
X149660028Y-109306542D01*
X149660028Y-109306542D02*
X149564790Y-109258923D01*
X149564790Y-109258923D02*
X149469552Y-109258923D01*
X149517171Y-109497019D02*
X149421933Y-109449400D01*
X149421933Y-109449400D02*
X149326695Y-109354161D01*
X149326695Y-109354161D02*
X149279076Y-109163685D01*
X149279076Y-109163685D02*
X149279076Y-108830352D01*
X149279076Y-108830352D02*
X149326695Y-108639876D01*
X149326695Y-108639876D02*
X149421933Y-108544638D01*
X149421933Y-108544638D02*
X149517171Y-108497019D01*
X149517171Y-108497019D02*
X149707647Y-108497019D01*
X149707647Y-108497019D02*
X149802885Y-108544638D01*
X149802885Y-108544638D02*
X149898123Y-108639876D01*
X149898123Y-108639876D02*
X149945742Y-108830352D01*
X149945742Y-108830352D02*
X149945742Y-109163685D01*
X149945742Y-109163685D02*
X149898123Y-109354161D01*
X149898123Y-109354161D02*
X149802885Y-109449400D01*
X149802885Y-109449400D02*
X149707647Y-109497019D01*
X149707647Y-109497019D02*
X149517171Y-109497019D01*
X150898123Y-109497019D02*
X150326695Y-109497019D01*
X150612409Y-109497019D02*
X150612409Y-108497019D01*
X150612409Y-108497019D02*
X150517171Y-108639876D01*
X150517171Y-108639876D02*
X150421933Y-108735114D01*
X150421933Y-108735114D02*
X150326695Y-108782733D01*
X134620095Y-121374819D02*
X134620095Y-122184342D01*
X134620095Y-122184342D02*
X134667714Y-122279580D01*
X134667714Y-122279580D02*
X134715333Y-122327200D01*
X134715333Y-122327200D02*
X134810571Y-122374819D01*
X134810571Y-122374819D02*
X135001047Y-122374819D01*
X135001047Y-122374819D02*
X135096285Y-122327200D01*
X135096285Y-122327200D02*
X135143904Y-122279580D01*
X135143904Y-122279580D02*
X135191523Y-122184342D01*
X135191523Y-122184342D02*
X135191523Y-121374819D01*
X135572476Y-121374819D02*
X136191523Y-121374819D01*
X136191523Y-121374819D02*
X135858190Y-121755771D01*
X135858190Y-121755771D02*
X136001047Y-121755771D01*
X136001047Y-121755771D02*
X136096285Y-121803390D01*
X136096285Y-121803390D02*
X136143904Y-121851009D01*
X136143904Y-121851009D02*
X136191523Y-121946247D01*
X136191523Y-121946247D02*
X136191523Y-122184342D01*
X136191523Y-122184342D02*
X136143904Y-122279580D01*
X136143904Y-122279580D02*
X136096285Y-122327200D01*
X136096285Y-122327200D02*
X136001047Y-122374819D01*
X136001047Y-122374819D02*
X135715333Y-122374819D01*
X135715333Y-122374819D02*
X135620095Y-122327200D01*
X135620095Y-122327200D02*
X135572476Y-122279580D01*
X124829219Y-132057733D02*
X125543504Y-132057733D01*
X125543504Y-132057733D02*
X125686361Y-132105352D01*
X125686361Y-132105352D02*
X125781600Y-132200590D01*
X125781600Y-132200590D02*
X125829219Y-132343447D01*
X125829219Y-132343447D02*
X125829219Y-132438685D01*
X124829219Y-131676780D02*
X124829219Y-131057733D01*
X124829219Y-131057733D02*
X125210171Y-131391066D01*
X125210171Y-131391066D02*
X125210171Y-131248209D01*
X125210171Y-131248209D02*
X125257790Y-131152971D01*
X125257790Y-131152971D02*
X125305409Y-131105352D01*
X125305409Y-131105352D02*
X125400647Y-131057733D01*
X125400647Y-131057733D02*
X125638742Y-131057733D01*
X125638742Y-131057733D02*
X125733980Y-131105352D01*
X125733980Y-131105352D02*
X125781600Y-131152971D01*
X125781600Y-131152971D02*
X125829219Y-131248209D01*
X125829219Y-131248209D02*
X125829219Y-131533923D01*
X125829219Y-131533923D02*
X125781600Y-131629161D01*
X125781600Y-131629161D02*
X125733980Y-131676780D01*
D11*
X152420620Y-127903661D02*
X152396811Y-127927471D01*
X152396811Y-127927471D02*
X152325382Y-127951280D01*
X152325382Y-127951280D02*
X152277763Y-127951280D01*
X152277763Y-127951280D02*
X152206335Y-127927471D01*
X152206335Y-127927471D02*
X152158716Y-127879851D01*
X152158716Y-127879851D02*
X152134906Y-127832232D01*
X152134906Y-127832232D02*
X152111097Y-127736994D01*
X152111097Y-127736994D02*
X152111097Y-127665566D01*
X152111097Y-127665566D02*
X152134906Y-127570328D01*
X152134906Y-127570328D02*
X152158716Y-127522709D01*
X152158716Y-127522709D02*
X152206335Y-127475090D01*
X152206335Y-127475090D02*
X152277763Y-127451280D01*
X152277763Y-127451280D02*
X152325382Y-127451280D01*
X152325382Y-127451280D02*
X152396811Y-127475090D01*
X152396811Y-127475090D02*
X152420620Y-127498899D01*
X152611097Y-127498899D02*
X152634906Y-127475090D01*
X152634906Y-127475090D02*
X152682525Y-127451280D01*
X152682525Y-127451280D02*
X152801573Y-127451280D01*
X152801573Y-127451280D02*
X152849192Y-127475090D01*
X152849192Y-127475090D02*
X152873001Y-127498899D01*
X152873001Y-127498899D02*
X152896811Y-127546518D01*
X152896811Y-127546518D02*
X152896811Y-127594137D01*
X152896811Y-127594137D02*
X152873001Y-127665566D01*
X152873001Y-127665566D02*
X152587287Y-127951280D01*
X152587287Y-127951280D02*
X152896811Y-127951280D01*
X153349191Y-127451280D02*
X153111096Y-127451280D01*
X153111096Y-127451280D02*
X153087287Y-127689375D01*
X153087287Y-127689375D02*
X153111096Y-127665566D01*
X153111096Y-127665566D02*
X153158715Y-127641756D01*
X153158715Y-127641756D02*
X153277763Y-127641756D01*
X153277763Y-127641756D02*
X153325382Y-127665566D01*
X153325382Y-127665566D02*
X153349191Y-127689375D01*
X153349191Y-127689375D02*
X153373001Y-127736994D01*
X153373001Y-127736994D02*
X153373001Y-127856042D01*
X153373001Y-127856042D02*
X153349191Y-127903661D01*
X153349191Y-127903661D02*
X153325382Y-127927471D01*
X153325382Y-127927471D02*
X153277763Y-127951280D01*
X153277763Y-127951280D02*
X153158715Y-127951280D01*
X153158715Y-127951280D02*
X153111096Y-127927471D01*
X153111096Y-127927471D02*
X153087287Y-127903661D01*
X140277149Y-124083333D02*
X140039054Y-124249999D01*
X140277149Y-124369047D02*
X139777149Y-124369047D01*
X139777149Y-124369047D02*
X139777149Y-124178571D01*
X139777149Y-124178571D02*
X139800959Y-124130952D01*
X139800959Y-124130952D02*
X139824768Y-124107142D01*
X139824768Y-124107142D02*
X139872387Y-124083333D01*
X139872387Y-124083333D02*
X139943816Y-124083333D01*
X139943816Y-124083333D02*
X139991435Y-124107142D01*
X139991435Y-124107142D02*
X140015244Y-124130952D01*
X140015244Y-124130952D02*
X140039054Y-124178571D01*
X140039054Y-124178571D02*
X140039054Y-124369047D01*
X139777149Y-123654761D02*
X139777149Y-123749999D01*
X139777149Y-123749999D02*
X139800959Y-123797618D01*
X139800959Y-123797618D02*
X139824768Y-123821428D01*
X139824768Y-123821428D02*
X139896197Y-123869047D01*
X139896197Y-123869047D02*
X139991435Y-123892856D01*
X139991435Y-123892856D02*
X140181911Y-123892856D01*
X140181911Y-123892856D02*
X140229530Y-123869047D01*
X140229530Y-123869047D02*
X140253340Y-123845237D01*
X140253340Y-123845237D02*
X140277149Y-123797618D01*
X140277149Y-123797618D02*
X140277149Y-123702380D01*
X140277149Y-123702380D02*
X140253340Y-123654761D01*
X140253340Y-123654761D02*
X140229530Y-123630952D01*
X140229530Y-123630952D02*
X140181911Y-123607142D01*
X140181911Y-123607142D02*
X140062863Y-123607142D01*
X140062863Y-123607142D02*
X140015244Y-123630952D01*
X140015244Y-123630952D02*
X139991435Y-123654761D01*
X139991435Y-123654761D02*
X139967625Y-123702380D01*
X139967625Y-123702380D02*
X139967625Y-123797618D01*
X139967625Y-123797618D02*
X139991435Y-123845237D01*
X139991435Y-123845237D02*
X140015244Y-123869047D01*
X140015244Y-123869047D02*
X140062863Y-123892856D01*
D10*
X135852819Y-69722904D02*
X136662342Y-69722904D01*
X136662342Y-69722904D02*
X136757580Y-69675285D01*
X136757580Y-69675285D02*
X136805200Y-69627666D01*
X136805200Y-69627666D02*
X136852819Y-69532428D01*
X136852819Y-69532428D02*
X136852819Y-69341952D01*
X136852819Y-69341952D02*
X136805200Y-69246714D01*
X136805200Y-69246714D02*
X136757580Y-69199095D01*
X136757580Y-69199095D02*
X136662342Y-69151476D01*
X136662342Y-69151476D02*
X135852819Y-69151476D01*
X135948057Y-68722904D02*
X135900438Y-68675285D01*
X135900438Y-68675285D02*
X135852819Y-68580047D01*
X135852819Y-68580047D02*
X135852819Y-68341952D01*
X135852819Y-68341952D02*
X135900438Y-68246714D01*
X135900438Y-68246714D02*
X135948057Y-68199095D01*
X135948057Y-68199095D02*
X136043295Y-68151476D01*
X136043295Y-68151476D02*
X136138533Y-68151476D01*
X136138533Y-68151476D02*
X136281390Y-68199095D01*
X136281390Y-68199095D02*
X136852819Y-68770523D01*
X136852819Y-68770523D02*
X136852819Y-68151476D01*
X158135295Y-61304166D02*
X158135295Y-62113689D01*
X158135295Y-62113689D02*
X158182914Y-62208927D01*
X158182914Y-62208927D02*
X158230533Y-62256547D01*
X158230533Y-62256547D02*
X158325771Y-62304166D01*
X158325771Y-62304166D02*
X158516247Y-62304166D01*
X158516247Y-62304166D02*
X158611485Y-62256547D01*
X158611485Y-62256547D02*
X158659104Y-62208927D01*
X158659104Y-62208927D02*
X158706723Y-62113689D01*
X158706723Y-62113689D02*
X158706723Y-61304166D01*
X159706723Y-62304166D02*
X159135295Y-62304166D01*
X159421009Y-62304166D02*
X159421009Y-61304166D01*
X159421009Y-61304166D02*
X159325771Y-61447023D01*
X159325771Y-61447023D02*
X159230533Y-61542261D01*
X159230533Y-61542261D02*
X159135295Y-61589880D01*
D11*
X146009598Y-128860264D02*
X145771503Y-129026930D01*
X146009598Y-129145978D02*
X145509598Y-129145978D01*
X145509598Y-129145978D02*
X145509598Y-128955502D01*
X145509598Y-128955502D02*
X145533408Y-128907883D01*
X145533408Y-128907883D02*
X145557217Y-128884073D01*
X145557217Y-128884073D02*
X145604836Y-128860264D01*
X145604836Y-128860264D02*
X145676265Y-128860264D01*
X145676265Y-128860264D02*
X145723884Y-128884073D01*
X145723884Y-128884073D02*
X145747693Y-128907883D01*
X145747693Y-128907883D02*
X145771503Y-128955502D01*
X145771503Y-128955502D02*
X145771503Y-129145978D01*
X145676265Y-128431692D02*
X146009598Y-128431692D01*
X145485789Y-128550740D02*
X145842931Y-128669787D01*
X145842931Y-128669787D02*
X145842931Y-128360264D01*
D12*
X145885367Y-55577011D02*
X145847271Y-55615107D01*
X145847271Y-55615107D02*
X145732986Y-55653202D01*
X145732986Y-55653202D02*
X145656795Y-55653202D01*
X145656795Y-55653202D02*
X145542509Y-55615107D01*
X145542509Y-55615107D02*
X145466319Y-55538916D01*
X145466319Y-55538916D02*
X145428224Y-55462726D01*
X145428224Y-55462726D02*
X145390128Y-55310345D01*
X145390128Y-55310345D02*
X145390128Y-55196059D01*
X145390128Y-55196059D02*
X145428224Y-55043678D01*
X145428224Y-55043678D02*
X145466319Y-54967487D01*
X145466319Y-54967487D02*
X145542509Y-54891297D01*
X145542509Y-54891297D02*
X145656795Y-54853202D01*
X145656795Y-54853202D02*
X145732986Y-54853202D01*
X145732986Y-54853202D02*
X145847271Y-54891297D01*
X145847271Y-54891297D02*
X145885367Y-54929392D01*
X146571081Y-55119868D02*
X146571081Y-55653202D01*
X146380605Y-54815107D02*
X146190128Y-55386535D01*
X146190128Y-55386535D02*
X146685367Y-55386535D01*
D11*
X149921198Y-128860264D02*
X149683103Y-129026930D01*
X149921198Y-129145978D02*
X149421198Y-129145978D01*
X149421198Y-129145978D02*
X149421198Y-128955502D01*
X149421198Y-128955502D02*
X149445008Y-128907883D01*
X149445008Y-128907883D02*
X149468817Y-128884073D01*
X149468817Y-128884073D02*
X149516436Y-128860264D01*
X149516436Y-128860264D02*
X149587865Y-128860264D01*
X149587865Y-128860264D02*
X149635484Y-128884073D01*
X149635484Y-128884073D02*
X149659293Y-128907883D01*
X149659293Y-128907883D02*
X149683103Y-128955502D01*
X149683103Y-128955502D02*
X149683103Y-129145978D01*
X149421198Y-128407883D02*
X149421198Y-128645978D01*
X149421198Y-128645978D02*
X149659293Y-128669787D01*
X149659293Y-128669787D02*
X149635484Y-128645978D01*
X149635484Y-128645978D02*
X149611674Y-128598359D01*
X149611674Y-128598359D02*
X149611674Y-128479311D01*
X149611674Y-128479311D02*
X149635484Y-128431692D01*
X149635484Y-128431692D02*
X149659293Y-128407883D01*
X149659293Y-128407883D02*
X149706912Y-128384073D01*
X149706912Y-128384073D02*
X149825960Y-128384073D01*
X149825960Y-128384073D02*
X149873579Y-128407883D01*
X149873579Y-128407883D02*
X149897389Y-128431692D01*
X149897389Y-128431692D02*
X149921198Y-128479311D01*
X149921198Y-128479311D02*
X149921198Y-128598359D01*
X149921198Y-128598359D02*
X149897389Y-128645978D01*
X149897389Y-128645978D02*
X149873579Y-128669787D01*
D10*
X150542666Y-134455819D02*
X150542666Y-135170104D01*
X150542666Y-135170104D02*
X150495047Y-135312961D01*
X150495047Y-135312961D02*
X150399809Y-135408200D01*
X150399809Y-135408200D02*
X150256952Y-135455819D01*
X150256952Y-135455819D02*
X150161714Y-135455819D01*
X151447428Y-134455819D02*
X151256952Y-134455819D01*
X151256952Y-134455819D02*
X151161714Y-134503438D01*
X151161714Y-134503438D02*
X151114095Y-134551057D01*
X151114095Y-134551057D02*
X151018857Y-134693914D01*
X151018857Y-134693914D02*
X150971238Y-134884390D01*
X150971238Y-134884390D02*
X150971238Y-135265342D01*
X150971238Y-135265342D02*
X151018857Y-135360580D01*
X151018857Y-135360580D02*
X151066476Y-135408200D01*
X151066476Y-135408200D02*
X151161714Y-135455819D01*
X151161714Y-135455819D02*
X151352190Y-135455819D01*
X151352190Y-135455819D02*
X151447428Y-135408200D01*
X151447428Y-135408200D02*
X151495047Y-135360580D01*
X151495047Y-135360580D02*
X151542666Y-135265342D01*
X151542666Y-135265342D02*
X151542666Y-135027247D01*
X151542666Y-135027247D02*
X151495047Y-134932009D01*
X151495047Y-134932009D02*
X151447428Y-134884390D01*
X151447428Y-134884390D02*
X151352190Y-134836771D01*
X151352190Y-134836771D02*
X151161714Y-134836771D01*
X151161714Y-134836771D02*
X151066476Y-134884390D01*
X151066476Y-134884390D02*
X151018857Y-134932009D01*
X151018857Y-134932009D02*
X150971238Y-135027247D01*
D12*
X145885367Y-68335011D02*
X145847271Y-68373107D01*
X145847271Y-68373107D02*
X145732986Y-68411202D01*
X145732986Y-68411202D02*
X145656795Y-68411202D01*
X145656795Y-68411202D02*
X145542509Y-68373107D01*
X145542509Y-68373107D02*
X145466319Y-68296916D01*
X145466319Y-68296916D02*
X145428224Y-68220726D01*
X145428224Y-68220726D02*
X145390128Y-68068345D01*
X145390128Y-68068345D02*
X145390128Y-67954059D01*
X145390128Y-67954059D02*
X145428224Y-67801678D01*
X145428224Y-67801678D02*
X145466319Y-67725487D01*
X145466319Y-67725487D02*
X145542509Y-67649297D01*
X145542509Y-67649297D02*
X145656795Y-67611202D01*
X145656795Y-67611202D02*
X145732986Y-67611202D01*
X145732986Y-67611202D02*
X145847271Y-67649297D01*
X145847271Y-67649297D02*
X145885367Y-67687392D01*
X146266319Y-68411202D02*
X146418700Y-68411202D01*
X146418700Y-68411202D02*
X146494890Y-68373107D01*
X146494890Y-68373107D02*
X146532986Y-68335011D01*
X146532986Y-68335011D02*
X146609176Y-68220726D01*
X146609176Y-68220726D02*
X146647271Y-68068345D01*
X146647271Y-68068345D02*
X146647271Y-67763583D01*
X146647271Y-67763583D02*
X146609176Y-67687392D01*
X146609176Y-67687392D02*
X146571081Y-67649297D01*
X146571081Y-67649297D02*
X146494890Y-67611202D01*
X146494890Y-67611202D02*
X146342509Y-67611202D01*
X146342509Y-67611202D02*
X146266319Y-67649297D01*
X146266319Y-67649297D02*
X146228224Y-67687392D01*
X146228224Y-67687392D02*
X146190128Y-67763583D01*
X146190128Y-67763583D02*
X146190128Y-67954059D01*
X146190128Y-67954059D02*
X146228224Y-68030249D01*
X146228224Y-68030249D02*
X146266319Y-68068345D01*
X146266319Y-68068345D02*
X146342509Y-68106440D01*
X146342509Y-68106440D02*
X146494890Y-68106440D01*
X146494890Y-68106440D02*
X146571081Y-68068345D01*
X146571081Y-68068345D02*
X146609176Y-68030249D01*
X146609176Y-68030249D02*
X146647271Y-67954059D01*
X139321367Y-62493011D02*
X139283271Y-62531107D01*
X139283271Y-62531107D02*
X139168986Y-62569202D01*
X139168986Y-62569202D02*
X139092795Y-62569202D01*
X139092795Y-62569202D02*
X138978509Y-62531107D01*
X138978509Y-62531107D02*
X138902319Y-62454916D01*
X138902319Y-62454916D02*
X138864224Y-62378726D01*
X138864224Y-62378726D02*
X138826128Y-62226345D01*
X138826128Y-62226345D02*
X138826128Y-62112059D01*
X138826128Y-62112059D02*
X138864224Y-61959678D01*
X138864224Y-61959678D02*
X138902319Y-61883487D01*
X138902319Y-61883487D02*
X138978509Y-61807297D01*
X138978509Y-61807297D02*
X139092795Y-61769202D01*
X139092795Y-61769202D02*
X139168986Y-61769202D01*
X139168986Y-61769202D02*
X139283271Y-61807297D01*
X139283271Y-61807297D02*
X139321367Y-61845392D01*
X139626128Y-61845392D02*
X139664224Y-61807297D01*
X139664224Y-61807297D02*
X139740414Y-61769202D01*
X139740414Y-61769202D02*
X139930890Y-61769202D01*
X139930890Y-61769202D02*
X140007081Y-61807297D01*
X140007081Y-61807297D02*
X140045176Y-61845392D01*
X140045176Y-61845392D02*
X140083271Y-61921583D01*
X140083271Y-61921583D02*
X140083271Y-61997773D01*
X140083271Y-61997773D02*
X140045176Y-62112059D01*
X140045176Y-62112059D02*
X139588033Y-62569202D01*
X139588033Y-62569202D02*
X140083271Y-62569202D01*
D13*
X138467437Y-84623665D02*
X138467437Y-83353665D01*
X139797914Y-84502712D02*
X139737438Y-84563189D01*
X139737438Y-84563189D02*
X139556009Y-84623665D01*
X139556009Y-84623665D02*
X139435057Y-84623665D01*
X139435057Y-84623665D02*
X139253628Y-84563189D01*
X139253628Y-84563189D02*
X139132676Y-84442236D01*
X139132676Y-84442236D02*
X139072199Y-84321284D01*
X139072199Y-84321284D02*
X139011723Y-84079379D01*
X139011723Y-84079379D02*
X139011723Y-83897950D01*
X139011723Y-83897950D02*
X139072199Y-83656046D01*
X139072199Y-83656046D02*
X139132676Y-83535093D01*
X139132676Y-83535093D02*
X139253628Y-83414141D01*
X139253628Y-83414141D02*
X139435057Y-83353665D01*
X139435057Y-83353665D02*
X139556009Y-83353665D01*
X139556009Y-83353665D02*
X139737438Y-83414141D01*
X139737438Y-83414141D02*
X139797914Y-83474617D01*
X141007438Y-84623665D02*
X140281723Y-84623665D01*
X140644580Y-84623665D02*
X140644580Y-83353665D01*
X140644580Y-83353665D02*
X140523628Y-83535093D01*
X140523628Y-83535093D02*
X140402676Y-83656046D01*
X140402676Y-83656046D02*
X140281723Y-83716522D01*
D11*
X146023149Y-93301333D02*
X145785054Y-93467999D01*
X146023149Y-93587047D02*
X145523149Y-93587047D01*
X145523149Y-93587047D02*
X145523149Y-93396571D01*
X145523149Y-93396571D02*
X145546959Y-93348952D01*
X145546959Y-93348952D02*
X145570768Y-93325142D01*
X145570768Y-93325142D02*
X145618387Y-93301333D01*
X145618387Y-93301333D02*
X145689816Y-93301333D01*
X145689816Y-93301333D02*
X145737435Y-93325142D01*
X145737435Y-93325142D02*
X145761244Y-93348952D01*
X145761244Y-93348952D02*
X145785054Y-93396571D01*
X145785054Y-93396571D02*
X145785054Y-93587047D01*
X145523149Y-93134666D02*
X145523149Y-92825142D01*
X145523149Y-92825142D02*
X145713625Y-92991809D01*
X145713625Y-92991809D02*
X145713625Y-92920380D01*
X145713625Y-92920380D02*
X145737435Y-92872761D01*
X145737435Y-92872761D02*
X145761244Y-92848952D01*
X145761244Y-92848952D02*
X145808863Y-92825142D01*
X145808863Y-92825142D02*
X145927911Y-92825142D01*
X145927911Y-92825142D02*
X145975530Y-92848952D01*
X145975530Y-92848952D02*
X145999340Y-92872761D01*
X145999340Y-92872761D02*
X146023149Y-92920380D01*
X146023149Y-92920380D02*
X146023149Y-93063237D01*
X146023149Y-93063237D02*
X145999340Y-93110856D01*
X145999340Y-93110856D02*
X145975530Y-93134666D01*
X146465866Y-63448496D02*
X146299200Y-63210401D01*
X146180152Y-63448496D02*
X146180152Y-62948496D01*
X146180152Y-62948496D02*
X146370628Y-62948496D01*
X146370628Y-62948496D02*
X146418247Y-62972306D01*
X146418247Y-62972306D02*
X146442057Y-62996115D01*
X146442057Y-62996115D02*
X146465866Y-63043734D01*
X146465866Y-63043734D02*
X146465866Y-63115163D01*
X146465866Y-63115163D02*
X146442057Y-63162782D01*
X146442057Y-63162782D02*
X146418247Y-63186591D01*
X146418247Y-63186591D02*
X146370628Y-63210401D01*
X146370628Y-63210401D02*
X146180152Y-63210401D01*
X146942057Y-63448496D02*
X146656343Y-63448496D01*
X146799200Y-63448496D02*
X146799200Y-62948496D01*
X146799200Y-62948496D02*
X146751581Y-63019925D01*
X146751581Y-63019925D02*
X146703962Y-63067544D01*
X146703962Y-63067544D02*
X146656343Y-63091353D01*
X156269571Y-112955530D02*
X156245762Y-112979340D01*
X156245762Y-112979340D02*
X156174333Y-113003149D01*
X156174333Y-113003149D02*
X156126714Y-113003149D01*
X156126714Y-113003149D02*
X156055286Y-112979340D01*
X156055286Y-112979340D02*
X156007667Y-112931720D01*
X156007667Y-112931720D02*
X155983857Y-112884101D01*
X155983857Y-112884101D02*
X155960048Y-112788863D01*
X155960048Y-112788863D02*
X155960048Y-112717435D01*
X155960048Y-112717435D02*
X155983857Y-112622197D01*
X155983857Y-112622197D02*
X156007667Y-112574578D01*
X156007667Y-112574578D02*
X156055286Y-112526959D01*
X156055286Y-112526959D02*
X156126714Y-112503149D01*
X156126714Y-112503149D02*
X156174333Y-112503149D01*
X156174333Y-112503149D02*
X156245762Y-112526959D01*
X156245762Y-112526959D02*
X156269571Y-112550768D01*
X156745762Y-113003149D02*
X156460048Y-113003149D01*
X156602905Y-113003149D02*
X156602905Y-112503149D01*
X156602905Y-112503149D02*
X156555286Y-112574578D01*
X156555286Y-112574578D02*
X156507667Y-112622197D01*
X156507667Y-112622197D02*
X156460048Y-112646006D01*
X157031476Y-112717435D02*
X156983857Y-112693625D01*
X156983857Y-112693625D02*
X156960047Y-112669816D01*
X156960047Y-112669816D02*
X156936238Y-112622197D01*
X156936238Y-112622197D02*
X156936238Y-112598387D01*
X156936238Y-112598387D02*
X156960047Y-112550768D01*
X156960047Y-112550768D02*
X156983857Y-112526959D01*
X156983857Y-112526959D02*
X157031476Y-112503149D01*
X157031476Y-112503149D02*
X157126714Y-112503149D01*
X157126714Y-112503149D02*
X157174333Y-112526959D01*
X157174333Y-112526959D02*
X157198142Y-112550768D01*
X157198142Y-112550768D02*
X157221952Y-112598387D01*
X157221952Y-112598387D02*
X157221952Y-112622197D01*
X157221952Y-112622197D02*
X157198142Y-112669816D01*
X157198142Y-112669816D02*
X157174333Y-112693625D01*
X157174333Y-112693625D02*
X157126714Y-112717435D01*
X157126714Y-112717435D02*
X157031476Y-112717435D01*
X157031476Y-112717435D02*
X156983857Y-112741244D01*
X156983857Y-112741244D02*
X156960047Y-112765054D01*
X156960047Y-112765054D02*
X156936238Y-112812673D01*
X156936238Y-112812673D02*
X156936238Y-112907911D01*
X156936238Y-112907911D02*
X156960047Y-112955530D01*
X156960047Y-112955530D02*
X156983857Y-112979340D01*
X156983857Y-112979340D02*
X157031476Y-113003149D01*
X157031476Y-113003149D02*
X157126714Y-113003149D01*
X157126714Y-113003149D02*
X157174333Y-112979340D01*
X157174333Y-112979340D02*
X157198142Y-112955530D01*
X157198142Y-112955530D02*
X157221952Y-112907911D01*
X157221952Y-112907911D02*
X157221952Y-112812673D01*
X157221952Y-112812673D02*
X157198142Y-112765054D01*
X157198142Y-112765054D02*
X157174333Y-112741244D01*
X157174333Y-112741244D02*
X157126714Y-112717435D01*
X151557020Y-120117261D02*
X151533211Y-120141071D01*
X151533211Y-120141071D02*
X151461782Y-120164880D01*
X151461782Y-120164880D02*
X151414163Y-120164880D01*
X151414163Y-120164880D02*
X151342735Y-120141071D01*
X151342735Y-120141071D02*
X151295116Y-120093451D01*
X151295116Y-120093451D02*
X151271306Y-120045832D01*
X151271306Y-120045832D02*
X151247497Y-119950594D01*
X151247497Y-119950594D02*
X151247497Y-119879166D01*
X151247497Y-119879166D02*
X151271306Y-119783928D01*
X151271306Y-119783928D02*
X151295116Y-119736309D01*
X151295116Y-119736309D02*
X151342735Y-119688690D01*
X151342735Y-119688690D02*
X151414163Y-119664880D01*
X151414163Y-119664880D02*
X151461782Y-119664880D01*
X151461782Y-119664880D02*
X151533211Y-119688690D01*
X151533211Y-119688690D02*
X151557020Y-119712499D01*
X151747497Y-119712499D02*
X151771306Y-119688690D01*
X151771306Y-119688690D02*
X151818925Y-119664880D01*
X151818925Y-119664880D02*
X151937973Y-119664880D01*
X151937973Y-119664880D02*
X151985592Y-119688690D01*
X151985592Y-119688690D02*
X152009401Y-119712499D01*
X152009401Y-119712499D02*
X152033211Y-119760118D01*
X152033211Y-119760118D02*
X152033211Y-119807737D01*
X152033211Y-119807737D02*
X152009401Y-119879166D01*
X152009401Y-119879166D02*
X151723687Y-120164880D01*
X151723687Y-120164880D02*
X152033211Y-120164880D01*
X152199877Y-119664880D02*
X152509401Y-119664880D01*
X152509401Y-119664880D02*
X152342734Y-119855356D01*
X152342734Y-119855356D02*
X152414163Y-119855356D01*
X152414163Y-119855356D02*
X152461782Y-119879166D01*
X152461782Y-119879166D02*
X152485591Y-119902975D01*
X152485591Y-119902975D02*
X152509401Y-119950594D01*
X152509401Y-119950594D02*
X152509401Y-120069642D01*
X152509401Y-120069642D02*
X152485591Y-120117261D01*
X152485591Y-120117261D02*
X152461782Y-120141071D01*
X152461782Y-120141071D02*
X152414163Y-120164880D01*
X152414163Y-120164880D02*
X152271306Y-120164880D01*
X152271306Y-120164880D02*
X152223687Y-120141071D01*
X152223687Y-120141071D02*
X152199877Y-120117261D01*
D10*
X134293866Y-77122356D02*
X133960533Y-77122356D01*
X133960533Y-77646166D02*
X133960533Y-76646166D01*
X133960533Y-76646166D02*
X134436723Y-76646166D01*
X135341485Y-77646166D02*
X134770057Y-77646166D01*
X135055771Y-77646166D02*
X135055771Y-76646166D01*
X135055771Y-76646166D02*
X134960533Y-76789023D01*
X134960533Y-76789023D02*
X134865295Y-76884261D01*
X134865295Y-76884261D02*
X134770057Y-76931880D01*
D14*
X144903449Y-118651731D02*
X144903449Y-116651731D01*
X146153449Y-118651731D02*
X144903449Y-118651731D01*
X144903449Y-116651731D02*
X146153449Y-116651731D01*
X146153449Y-116651731D02*
X146153449Y-118651731D01*
X153650000Y-95428000D02*
X153650000Y-98628000D01*
X151150000Y-95428000D02*
X153650000Y-95428000D01*
X153650000Y-98628000D02*
X151150000Y-98628000D01*
X151150000Y-98628000D02*
X151150000Y-95428000D01*
X147756000Y-96838000D02*
X143836000Y-96838000D01*
X149871000Y-99038000D02*
X149871000Y-102638000D01*
X141721000Y-102638000D02*
X141721000Y-99038000D01*
X147756000Y-104838000D02*
X143836000Y-104838000D01*
X149871000Y-99038000D02*
G75*
G03*
X147760613Y-96839760I-4075000J-1800000D01*
G01*
X143836000Y-96838000D02*
G75*
G03*
X141723402Y-99033686I1960000J-4000000D01*
G01*
X147756000Y-104838000D02*
G75*
G03*
X149870587Y-102637817I-1960001J4000001D01*
G01*
X141721001Y-102638000D02*
G75*
G03*
X143831387Y-104836239I4075001J1800001D01*
G01*
X147618700Y-58687347D02*
X144418700Y-58687347D01*
X147618700Y-57087347D02*
X147618700Y-58687347D01*
X144418700Y-58687347D02*
X144418700Y-57087347D01*
X144418700Y-57087347D02*
X147618700Y-57087347D01*
X156952000Y-95428000D02*
X156952000Y-98628000D01*
X154452000Y-95428000D02*
X156952000Y-95428000D01*
X156952000Y-98628000D02*
X154452000Y-98628000D01*
X154452000Y-98628000D02*
X154452000Y-95428000D01*
X140751400Y-121243600D02*
X140751400Y-119243600D01*
X142001400Y-121243600D02*
X140751400Y-121243600D01*
X140751400Y-119243600D02*
X142001400Y-119243600D01*
X142001400Y-119243600D02*
X142001400Y-121243600D01*
X144398800Y-114635600D02*
X141198800Y-114635600D01*
X144398800Y-112135600D02*
X144398800Y-114635600D01*
X141198800Y-114635600D02*
X141198800Y-112135600D01*
X141198800Y-112135600D02*
X144398800Y-112135600D01*
X132156000Y-122974000D02*
X128956000Y-122974000D01*
X132156000Y-121374000D02*
X132156000Y-122974000D01*
X128956000Y-122974000D02*
X128956000Y-121374000D01*
X128956000Y-121374000D02*
X132156000Y-121374000D01*
X147618700Y-61227347D02*
X144418700Y-61227347D01*
X147618700Y-59627347D02*
X147618700Y-61227347D01*
X144418700Y-61227347D02*
X144418700Y-59627347D01*
X144418700Y-59627347D02*
X147618700Y-59627347D01*
X136474000Y-119672000D02*
X133274000Y-119672000D01*
X136474000Y-118072000D02*
X136474000Y-119672000D01*
X133274000Y-119672000D02*
X133274000Y-118072000D01*
X133274000Y-118072000D02*
X136474000Y-118072000D01*
X139924201Y-106531202D02*
X145724199Y-106531202D01*
X139924201Y-111531202D02*
X139924201Y-106531202D01*
X139924201Y-111531202D02*
X145724199Y-111531202D01*
X145724199Y-111531202D02*
X145724199Y-106531202D01*
X140924199Y-107231203D02*
G75*
G03*
X140324199Y-107231203I-300000J0D01*
G01*
X140324199Y-107231203D02*
G75*
G03*
X140924199Y-107231203I300000J0D01*
G01*
X168253200Y-119863347D02*
X166983200Y-121133347D01*
X168253200Y-80493347D02*
X168253200Y-119863347D01*
X166983200Y-121133347D02*
X163173200Y-121133347D01*
X163173200Y-121133347D02*
X163173200Y-80493347D01*
X163173200Y-80493347D02*
X168253200Y-80493347D01*
X145549200Y-64882347D02*
X147549200Y-64882347D01*
X145549200Y-66132347D02*
X145549200Y-64882347D01*
X147549200Y-64882347D02*
X147549200Y-66132347D01*
X147549200Y-66132347D02*
X145549200Y-66132347D01*
X153945249Y-124342331D02*
X151945249Y-124342331D01*
X153945249Y-123092331D02*
X153945249Y-124342331D01*
X151945249Y-124342331D02*
X151945249Y-123092331D01*
X151945249Y-123092331D02*
X153945249Y-123092331D01*
X145834000Y-82982000D02*
X145834000Y-86182000D01*
X144234000Y-82982000D02*
X145834000Y-82982000D01*
X145834000Y-86182000D02*
X144234000Y-86182000D01*
X144234000Y-86182000D02*
X144234000Y-82982000D01*
X139309200Y-137201347D02*
X141809200Y-137201347D01*
X141809200Y-137201347D02*
X141809200Y-134701347D01*
X137599200Y-136791347D02*
X141399200Y-136791347D01*
X141399200Y-136791347D02*
X141399200Y-126791347D01*
X137599200Y-126791347D02*
X137599200Y-136791347D01*
X141399200Y-126791347D02*
X137599200Y-126791347D01*
X132737200Y-55875347D02*
X135737200Y-55875347D01*
X132737200Y-58375347D02*
X132737200Y-55875347D01*
X135737200Y-55875347D02*
X135737200Y-58375347D01*
X135737200Y-58375347D02*
X132737200Y-58375347D01*
X134987200Y-57125347D02*
G75*
G03*
X133487200Y-57125347I-750000J0D01*
G01*
X133487200Y-57125347D02*
G75*
G03*
X134987200Y-57125347I750000J0D01*
G01*
X151811649Y-126303131D02*
X149811649Y-126303131D01*
X151811649Y-125053131D02*
X151811649Y-126303131D01*
X149811649Y-126303131D02*
X149811649Y-125053131D01*
X149811649Y-125053131D02*
X151811649Y-125053131D01*
X147799049Y-119616931D02*
X147799049Y-117616931D01*
X149049049Y-119616931D02*
X147799049Y-119616931D01*
X147799049Y-117616931D02*
X149049049Y-117616931D01*
X149049049Y-117616931D02*
X149049049Y-119616931D01*
X132557700Y-61405347D02*
X135757700Y-61405347D01*
X132557700Y-63005347D02*
X132557700Y-61405347D01*
X135757700Y-61405347D02*
X135757700Y-63005347D01*
X135757700Y-63005347D02*
X132557700Y-63005347D01*
X129592200Y-88854347D02*
X117812200Y-88854347D01*
X117812200Y-88854347D02*
X117812200Y-119694347D01*
X111902200Y-95957347D02*
X117802200Y-95957347D01*
X117812200Y-112591347D02*
X111902200Y-112591347D01*
X111902200Y-112591347D02*
X111902200Y-95957347D01*
X129592200Y-119694347D02*
X129592200Y-88854347D01*
X117812200Y-119694347D02*
X129592200Y-119694347D01*
X137817200Y-55875347D02*
X140817200Y-55875347D01*
X137817200Y-58375347D02*
X137817200Y-55875347D01*
X140817200Y-55875347D02*
X140817200Y-58375347D01*
X140817200Y-58375347D02*
X137817200Y-58375347D01*
X140067200Y-57125347D02*
G75*
G03*
X138567200Y-57125347I-750000J0D01*
G01*
X138567200Y-57125347D02*
G75*
G03*
X140067200Y-57125347I750000J0D01*
G01*
X129483200Y-136791347D02*
X135233200Y-136791347D01*
X135233200Y-136791347D02*
X135233200Y-124391347D01*
X129483200Y-134966347D02*
X130483200Y-134341347D01*
X130483200Y-134341347D02*
X129483200Y-133716347D01*
X129483200Y-124391347D02*
X129483200Y-136791347D01*
X135233200Y-124391347D02*
X129483200Y-124391347D01*
X142913000Y-68885000D02*
X142913000Y-72085000D01*
X141313000Y-68885000D02*
X142913000Y-68885000D01*
X142913000Y-72085000D02*
X141313000Y-72085000D01*
X141313000Y-72085000D02*
X141313000Y-68885000D01*
X151742049Y-129117131D02*
X153742049Y-129117131D01*
X151742049Y-130367131D02*
X151742049Y-129117131D01*
X153742049Y-129117131D02*
X153742049Y-130367131D01*
X153742049Y-130367131D02*
X151742049Y-130367131D01*
D15*
X146773049Y-126104931D02*
X146773049Y-120516931D01*
X146773049Y-124834931D02*
X145503049Y-126104931D01*
X146773049Y-120516931D02*
X143166249Y-120516931D01*
X143166249Y-126104931D02*
X146773049Y-126104931D01*
X143166249Y-120516931D02*
X143166249Y-126104931D01*
D14*
X135166000Y-82347000D02*
X135166000Y-85547000D01*
X133566000Y-82347000D02*
X135166000Y-82347000D01*
X135166000Y-85547000D02*
X133566000Y-85547000D01*
X133566000Y-85547000D02*
X133566000Y-82347000D01*
X137394000Y-95428000D02*
X137394000Y-98628000D01*
X134894000Y-95428000D02*
X137394000Y-95428000D01*
X137394000Y-98628000D02*
X134894000Y-98628000D01*
X134894000Y-98628000D02*
X134894000Y-95428000D01*
X155591000Y-108087000D02*
X157591000Y-108087000D01*
X155591000Y-109337000D02*
X155591000Y-108087000D01*
X157591000Y-108087000D02*
X157591000Y-109337000D01*
X157591000Y-109337000D02*
X155591000Y-109337000D01*
X148363249Y-127776931D02*
X148363249Y-129776931D01*
X147113249Y-127776931D02*
X148363249Y-127776931D01*
X148363249Y-129776931D02*
X147113249Y-129776931D01*
X147113249Y-129776931D02*
X147113249Y-127776931D01*
X152888000Y-113208000D02*
X152888000Y-116408000D01*
X150388000Y-113208000D02*
X152888000Y-113208000D01*
X152888000Y-116408000D02*
X150388000Y-116408000D01*
X150388000Y-116408000D02*
X150388000Y-113208000D01*
X129592200Y-55372347D02*
X117812200Y-55372347D01*
X117812200Y-55372347D02*
X117812200Y-86212347D01*
X111902200Y-62475347D02*
X117802200Y-62475347D01*
X117812200Y-79109347D02*
X111902200Y-79109347D01*
X111902200Y-79109347D02*
X111902200Y-62475347D01*
X129592200Y-86212347D02*
X129592200Y-55372347D01*
X117812200Y-86212347D02*
X129592200Y-86212347D01*
X140628000Y-95428000D02*
X140628000Y-98628000D01*
X138128000Y-95428000D02*
X140628000Y-95428000D01*
X140628000Y-98628000D02*
X138128000Y-98628000D01*
X138128000Y-98628000D02*
X138128000Y-95428000D01*
X155591000Y-106055000D02*
X157591000Y-106055000D01*
X155591000Y-107305000D02*
X155591000Y-106055000D01*
X157591000Y-106055000D02*
X157591000Y-107305000D01*
X157591000Y-107305000D02*
X155591000Y-107305000D01*
X149272249Y-123802931D02*
X149272249Y-121802931D01*
X150522249Y-123802931D02*
X149272249Y-123802931D01*
X149272249Y-121802931D02*
X150522249Y-121802931D01*
X150522249Y-121802931D02*
X150522249Y-123802931D01*
D16*
X132196000Y-115712000D02*
X132196000Y-101712000D01*
X135196000Y-115712000D02*
X132196000Y-115712000D01*
X132196000Y-101712000D02*
X135196000Y-101712000D01*
X135196000Y-101712000D02*
X135196000Y-115712000D01*
D14*
X155591000Y-110119000D02*
X157591000Y-110119000D01*
X155591000Y-111369000D02*
X155591000Y-110119000D01*
X157591000Y-110119000D02*
X157591000Y-111369000D01*
X157591000Y-111369000D02*
X155591000Y-111369000D01*
X147188601Y-106542200D02*
X152988599Y-106542200D01*
X147188601Y-111542200D02*
X147188601Y-106542200D01*
X147188601Y-111542200D02*
X152988599Y-111542200D01*
X152988599Y-111542200D02*
X152988599Y-106542200D01*
X148188599Y-107242201D02*
G75*
G03*
X147588599Y-107242201I-300000J0D01*
G01*
X147588599Y-107242201D02*
G75*
G03*
X148188599Y-107242201I300000J0D01*
G01*
D15*
X133883400Y-120716000D02*
X133883400Y-121224000D01*
X133883400Y-121224000D02*
X134505700Y-121224000D01*
X133883400Y-121666000D02*
X133883400Y-122174000D01*
X133883400Y-122174000D02*
X134505700Y-122174000D01*
X133883400Y-122616000D02*
X133883400Y-123124000D01*
X133883400Y-123124000D02*
X134505700Y-123124000D01*
X134505700Y-120396000D02*
X134505700Y-123444000D01*
X134505700Y-120716000D02*
X133883400Y-120716000D01*
X134505700Y-121224000D02*
X134505700Y-120716000D01*
X134505700Y-121666000D02*
X133883400Y-121666000D01*
X134505700Y-122174000D02*
X134505700Y-121666000D01*
X134505700Y-122616000D02*
X133883400Y-122616000D01*
X134505700Y-123124000D02*
X134505700Y-122616000D01*
X134505700Y-123444000D02*
X136258300Y-123444000D01*
X136258300Y-120396000D02*
X134505700Y-120396000D01*
X136258300Y-120716000D02*
X136258300Y-121224000D01*
X136258300Y-121224000D02*
X136880600Y-121224000D01*
X136258300Y-121666000D02*
X136258300Y-122174000D01*
X136258300Y-122174000D02*
X136880600Y-122174000D01*
X136258300Y-122616000D02*
X136258300Y-123124000D01*
X136258300Y-123124000D02*
X136880600Y-123124000D01*
X136258300Y-123444000D02*
X136258300Y-120396000D01*
X136880600Y-120716000D02*
X136258300Y-120716000D01*
X136880600Y-121224000D02*
X136880600Y-120716000D01*
X136880600Y-121666000D02*
X136258300Y-121666000D01*
X136880600Y-122174000D02*
X136880600Y-121666000D01*
X136880600Y-122616000D02*
X136258300Y-122616000D01*
X136880600Y-123124000D02*
X136880600Y-122616000D01*
X135077200Y-120396000D02*
G75*
G03*
X135686800Y-120396000I304800J0D01*
G01*
D14*
X121101200Y-136791347D02*
X126851200Y-136791347D01*
X126851200Y-136791347D02*
X126851200Y-124391347D01*
X121101200Y-134966347D02*
X122101200Y-134341347D01*
X122101200Y-134341347D02*
X121101200Y-133716347D01*
X121101200Y-124391347D02*
X121101200Y-136791347D01*
X126851200Y-124391347D02*
X121101200Y-124391347D01*
X151742049Y-127099131D02*
X153742049Y-127099131D01*
X151742049Y-128349131D02*
X151742049Y-127099131D01*
X153742049Y-127099131D02*
X153742049Y-128349131D01*
X153742049Y-128349131D02*
X151742049Y-128349131D01*
X139425000Y-125000000D02*
X139425000Y-123000000D01*
X140675000Y-125000000D02*
X139425000Y-125000000D01*
X139425000Y-123000000D02*
X140675000Y-123000000D01*
X140675000Y-123000000D02*
X140675000Y-125000000D01*
D15*
X134543800Y-72313800D02*
X138252200Y-72313800D01*
X138252200Y-72313800D02*
X138252200Y-65608200D01*
X138252200Y-71680100D02*
X140042900Y-71680100D01*
X140042900Y-71680100D02*
X140042900Y-70841900D01*
X138252200Y-70841900D02*
X138252200Y-71680100D01*
X140042900Y-70841900D02*
X138252200Y-70841900D01*
X132753100Y-70510400D02*
X134543800Y-70510400D01*
X134543800Y-70510400D02*
X134543800Y-67411600D01*
X138252200Y-69380100D02*
X140042900Y-69380100D01*
X140042900Y-69380100D02*
X140042900Y-68541900D01*
X138252200Y-68541900D02*
X138252200Y-69380100D01*
X140042900Y-68541900D02*
X138252200Y-68541900D01*
X132753100Y-67411600D02*
X132753100Y-70510400D01*
X134543800Y-67411600D02*
X132753100Y-67411600D01*
X138252200Y-67080100D02*
X140042900Y-67080100D01*
X140042900Y-67080100D02*
X140042900Y-66241900D01*
X138252200Y-66241900D02*
X138252200Y-67080100D01*
X140042900Y-66241900D02*
X138252200Y-66241900D01*
X134543800Y-65608200D02*
X134543800Y-72313800D01*
X138252200Y-65608200D02*
X134543800Y-65608200D01*
X138125200Y-72059800D02*
G75*
G03*
X137871200Y-72059800I-127000J0D01*
G01*
X137871200Y-72059800D02*
G75*
G03*
X138125200Y-72059800I127000J0D01*
G01*
D14*
X145157449Y-129776931D02*
X145157449Y-127776931D01*
X146407449Y-129776931D02*
X145157449Y-129776931D01*
X145157449Y-127776931D02*
X146407449Y-127776931D01*
X146407449Y-127776931D02*
X146407449Y-129776931D01*
X147618700Y-56089347D02*
X144418700Y-56089347D01*
X147618700Y-54489347D02*
X147618700Y-56089347D01*
X144418700Y-56089347D02*
X144418700Y-54489347D01*
X144418700Y-54489347D02*
X147618700Y-54489347D01*
X165476000Y-124166000D02*
X168526000Y-124166000D01*
X165476000Y-124166000D02*
X165476000Y-134356000D01*
X162946000Y-124166000D02*
X165476000Y-124166000D01*
X162946000Y-124166000D02*
X162946000Y-125106000D01*
X156086000Y-124166000D02*
X162946000Y-124166000D01*
X156086000Y-124166000D02*
X156086000Y-124726000D01*
X165736000Y-124726000D02*
X168276000Y-124726000D01*
X162556000Y-124726000D02*
X157986000Y-124726000D01*
X162556000Y-124726000D02*
X162556000Y-125106000D01*
X157986000Y-124726000D02*
X156086000Y-124726000D01*
X156086000Y-124726000D02*
X156086000Y-128786000D01*
X162946000Y-125106000D02*
X162946000Y-128406000D01*
X161796000Y-125106000D02*
X161796000Y-125486000D01*
X158626000Y-125106000D02*
X161796000Y-125106000D01*
X166756000Y-125126000D02*
X167386000Y-128186000D01*
X166626000Y-125256000D02*
X167256000Y-128306000D01*
X162556000Y-125486000D02*
X162556000Y-128026000D01*
X159766000Y-125486000D02*
X162556000Y-125486000D01*
X159766000Y-125486000D02*
X159766000Y-128026000D01*
X159766000Y-128026000D02*
X162556000Y-128026000D01*
X162946000Y-128406000D02*
X162946000Y-130106000D01*
X162556000Y-128406000D02*
X162556000Y-125106000D01*
X161796000Y-128406000D02*
X161796000Y-128026000D01*
X158626000Y-128406000D02*
X158626000Y-125106000D01*
X158626000Y-128406000D02*
X161796000Y-128406000D01*
X168276000Y-128786000D02*
X168276000Y-124726000D01*
X165736000Y-128786000D02*
X165736000Y-124726000D01*
X165736000Y-128786000D02*
X168276000Y-128786000D01*
X162556000Y-128786000D02*
X162556000Y-128406000D01*
X157986000Y-128786000D02*
X157986000Y-124726000D01*
X157986000Y-128786000D02*
X162556000Y-128786000D01*
X156086000Y-128786000D02*
X157986000Y-128786000D01*
X156086000Y-128786000D02*
X156086000Y-129726000D01*
X168276000Y-129726000D02*
X168276000Y-133796000D01*
X165736000Y-129726000D02*
X168276000Y-129726000D01*
X162556000Y-129726000D02*
X162556000Y-130106000D01*
X157986000Y-129726000D02*
X162556000Y-129726000D01*
X157986000Y-129726000D02*
X157986000Y-133796000D01*
X156086000Y-129726000D02*
X157986000Y-129726000D01*
X156086000Y-129726000D02*
X156086000Y-133796000D01*
X162556000Y-130106000D02*
X162556000Y-133416000D01*
X161796000Y-130106000D02*
X161796000Y-130486000D01*
X158626000Y-130106000D02*
X161796000Y-130106000D01*
X166756000Y-130136000D02*
X167386000Y-133186000D01*
X166626000Y-130266000D02*
X167256000Y-133306000D01*
X162556000Y-130486000D02*
X162556000Y-133026000D01*
X159766000Y-130486000D02*
X162556000Y-130486000D01*
X159766000Y-130486000D02*
X159766000Y-133026000D01*
X159766000Y-133026000D02*
X162556000Y-133026000D01*
X162946000Y-133416000D02*
X162946000Y-130106000D01*
X161796000Y-133416000D02*
X161796000Y-133026000D01*
X158626000Y-133416000D02*
X158626000Y-130106000D01*
X158626000Y-133416000D02*
X161796000Y-133416000D01*
X168276000Y-133796000D02*
X165736000Y-133796000D01*
X165736000Y-133796000D02*
X165736000Y-129726000D01*
X162556000Y-133796000D02*
X162556000Y-133416000D01*
X162556000Y-133796000D02*
X157986000Y-133796000D01*
X157986000Y-133796000D02*
X156086000Y-133796000D01*
X156086000Y-133796000D02*
X156086000Y-134356000D01*
X168526000Y-134356000D02*
X168526000Y-124166000D01*
X168526000Y-134356000D02*
X165476000Y-134356000D01*
X168526000Y-134356000D02*
X168526000Y-134856000D01*
X165476000Y-134356000D02*
X163956000Y-134356000D01*
X163956000Y-134356000D02*
X162946000Y-134356000D01*
X162946000Y-134356000D02*
X162946000Y-133416000D01*
X162946000Y-134356000D02*
X158246000Y-134356000D01*
X158246000Y-134356000D02*
X157096000Y-134356000D01*
X157096000Y-134356000D02*
X156086000Y-134356000D01*
X168526000Y-134856000D02*
X163706000Y-134856000D01*
X163706000Y-134856000D02*
X163956000Y-134356000D01*
X158496000Y-134856000D02*
X158246000Y-134356000D01*
X158496000Y-134856000D02*
X156846000Y-134856000D01*
X156846000Y-134856000D02*
X157096000Y-134356000D01*
X167377534Y-128285976D02*
G75*
G03*
X167306000Y-125126000I-1361533J1549976D01*
G01*
X167364699Y-125183028D02*
G75*
G03*
X166436000Y-125326000I-408699J-432973D01*
G01*
X166392005Y-128231619D02*
G75*
G03*
X167356000Y-128276000I503995J455619D01*
G01*
X166464582Y-125286171D02*
G75*
G03*
X166426000Y-128276000I1911418J-1519829D01*
G01*
X167367686Y-133284239D02*
G75*
G03*
X167306000Y-130136000I-1351686J1548239D01*
G01*
X167364699Y-130183028D02*
G75*
G03*
X166436000Y-130326000I-408699J-432972D01*
G01*
X166474264Y-130293668D02*
G75*
G03*
X166426001Y-133276000I1901736J-1522332D01*
G01*
X166382005Y-133231532D02*
G75*
G03*
X167356000Y-133286000I513995J455532D01*
G01*
X150319049Y-127776931D02*
X150319049Y-129776931D01*
X149069049Y-127776931D02*
X150319049Y-127776931D01*
X150319049Y-129776931D02*
X149069049Y-129776931D01*
X149069049Y-129776931D02*
X149069049Y-127776931D01*
X148553500Y-136706000D02*
X147701000Y-135853500D01*
X154051000Y-136706000D02*
X148553500Y-136706000D01*
X147701000Y-135853500D02*
X147701000Y-133296000D01*
X147701000Y-133296000D02*
X154051000Y-133296000D01*
X154051000Y-133296000D02*
X154051000Y-136706000D01*
X144418700Y-67247347D02*
X147618700Y-67247347D01*
X144418700Y-68847347D02*
X144418700Y-67247347D01*
X147618700Y-67247347D02*
X147618700Y-68847347D01*
X147618700Y-68847347D02*
X144418700Y-68847347D01*
X137854700Y-61405347D02*
X141054700Y-61405347D01*
X137854700Y-63005347D02*
X137854700Y-61405347D01*
X141054700Y-61405347D02*
X141054700Y-63005347D01*
X141054700Y-63005347D02*
X137854700Y-63005347D01*
X141657200Y-86499347D02*
X137757200Y-86499347D01*
X141657200Y-85229347D02*
X140387200Y-86499347D01*
X141657200Y-81599347D02*
X141657200Y-86499347D01*
X137757200Y-86499347D02*
X137757200Y-81599347D01*
X137757200Y-81599347D02*
X141657200Y-81599347D01*
X147671000Y-92218000D02*
X147671000Y-94218000D01*
X143921000Y-92218000D02*
X147671000Y-92218000D01*
X147671000Y-94218000D02*
X143921000Y-94218000D01*
X143921000Y-94218000D02*
X143921000Y-92218000D01*
X145549200Y-62596347D02*
X147549200Y-62596347D01*
X145549200Y-63846347D02*
X145549200Y-62596347D01*
X147549200Y-62596347D02*
X147549200Y-63846347D01*
X147549200Y-63846347D02*
X145549200Y-63846347D01*
X155591000Y-112151000D02*
X157591000Y-112151000D01*
X155591000Y-113401000D02*
X155591000Y-112151000D01*
X157591000Y-112151000D02*
X157591000Y-113401000D01*
X157591000Y-113401000D02*
X155591000Y-113401000D01*
X150878449Y-119312731D02*
X152878449Y-119312731D01*
X150878449Y-120562731D02*
X150878449Y-119312731D01*
X152878449Y-119312731D02*
X152878449Y-120562731D01*
X152878449Y-120562731D02*
X150878449Y-120562731D01*
X136877200Y-78791347D02*
X132377200Y-78791347D01*
X136877200Y-75591347D02*
X136877200Y-78791347D01*
X132377200Y-78791347D02*
X132377200Y-75591347D01*
X132377200Y-75591347D02*
X136877200Y-75591347D01*
M02*
