%TF.GenerationSoftware,KiCad,Pcbnew,7.0.10-7.0.10~ubuntu23.10.1*%
%TF.CreationDate,2024-02-11T17:41:29+01:00*%
%TF.ProjectId,mainBoard,6d61696e-426f-4617-9264-2e6b69636164,rev?*%
%TF.SameCoordinates,Original*%
%TF.FileFunction,Soldermask,Bot*%
%TF.FilePolarity,Negative*%
%FSLAX46Y46*%
G04 Gerber Fmt 4.6, Leading zero omitted, Abs format (unit mm)*
G04 Created by KiCad (PCBNEW 7.0.10-7.0.10~ubuntu23.10.1) date 2024-02-11 17:41:29*
%MOMM*%
%LPD*%
G01*
G04 APERTURE LIST*
G04 Aperture macros list*
%AMRoundRect*
0 Rectangle with rounded corners*
0 $1 Rounding radius*
0 $2 $3 $4 $5 $6 $7 $8 $9 X,Y pos of 4 corners*
0 Add a 4 corners polygon primitive as box body*
4,1,4,$2,$3,$4,$5,$6,$7,$8,$9,$2,$3,0*
0 Add four circle primitives for the rounded corners*
1,1,$1+$1,$2,$3*
1,1,$1+$1,$4,$5*
1,1,$1+$1,$6,$7*
1,1,$1+$1,$8,$9*
0 Add four rect primitives between the rounded corners*
20,1,$1+$1,$2,$3,$4,$5,0*
20,1,$1+$1,$4,$5,$6,$7,0*
20,1,$1+$1,$6,$7,$8,$9,0*
20,1,$1+$1,$8,$9,$2,$3,0*%
G04 Aperture macros list end*
%ADD10R,1.700000X1.700000*%
%ADD11O,1.700000X1.700000*%
%ADD12RoundRect,0.250000X0.725000X-0.600000X0.725000X0.600000X-0.725000X0.600000X-0.725000X-0.600000X0*%
%ADD13O,1.950000X1.700000*%
%ADD14C,1.400000*%
%ADD15R,1.500000X1.500000*%
%ADD16C,1.500000*%
%ADD17C,4.800000*%
%ADD18C,1.200000*%
%ADD19C,1.515000*%
%ADD20C,4.400000*%
%ADD21R,3.960000X1.980000*%
%ADD22O,3.960000X1.980000*%
%ADD23R,1.000000X1.000000*%
%ADD24O,1.000000X1.000000*%
G04 APERTURE END LIST*
D10*
%TO.C,J8*%
X166983200Y-119863347D03*
D11*
X164443200Y-119863347D03*
X166983200Y-117323347D03*
X164443200Y-117323347D03*
X166983200Y-114783347D03*
X164443200Y-114783347D03*
X166983200Y-112243347D03*
X164443200Y-112243347D03*
X166983200Y-109703347D03*
X164443200Y-109703347D03*
X166983200Y-107163347D03*
X164443200Y-107163347D03*
X166983200Y-104623347D03*
X164443200Y-104623347D03*
X166983200Y-102083347D03*
X164443200Y-102083347D03*
X166983200Y-99543347D03*
X164443200Y-99543347D03*
X166983200Y-97003347D03*
X164443200Y-97003347D03*
X166983200Y-94463347D03*
X164443200Y-94463347D03*
X166983200Y-91923347D03*
X164443200Y-91923347D03*
X166983200Y-89383347D03*
X164443200Y-89383347D03*
X166983200Y-86843347D03*
X164443200Y-86843347D03*
X166983200Y-84303347D03*
X164443200Y-84303347D03*
X166983200Y-81763347D03*
X164443200Y-81763347D03*
%TD*%
D12*
%TO.C,J4*%
X139199200Y-134291347D03*
D13*
X139199200Y-131791347D03*
X139199200Y-129291347D03*
%TD*%
D14*
%TO.C,JP1*%
X145034000Y-133370000D03*
X145034000Y-135910000D03*
%TD*%
D15*
%TO.C,J2*%
X128732200Y-109819347D03*
D16*
X128732200Y-107047347D03*
X128732200Y-104274347D03*
X128732200Y-101502347D03*
X128732200Y-98729347D03*
X125892200Y-108433347D03*
X125892200Y-105660347D03*
X125892200Y-102888347D03*
X125892200Y-100115347D03*
D17*
X127312200Y-116769347D03*
X127312200Y-91779347D03*
%TD*%
D18*
%TO.C,J5*%
X133833200Y-135941347D03*
D12*
X131833200Y-134341347D03*
D13*
X131833200Y-131841347D03*
X131833200Y-129341347D03*
X131833200Y-126841347D03*
%TD*%
D15*
%TO.C,J1*%
X128732200Y-76337347D03*
D16*
X128732200Y-73565347D03*
X128732200Y-70792347D03*
X128732200Y-68020347D03*
X128732200Y-65247347D03*
X125892200Y-74951347D03*
X125892200Y-72178347D03*
X125892200Y-69406347D03*
X125892200Y-66633347D03*
D17*
X127312200Y-83287347D03*
X127312200Y-58297347D03*
%TD*%
D19*
%TO.C,F2*%
X133096000Y-111252000D03*
X134296000Y-106172000D03*
%TD*%
D20*
%TO.C,REF\u002A\u002A*%
X166624000Y-137922000D03*
%TD*%
D13*
%TO.C,J3*%
X123451200Y-126841347D03*
X123451200Y-129341347D03*
X123451200Y-131841347D03*
D12*
X123451200Y-134341347D03*
D18*
X125451200Y-135941347D03*
%TD*%
D21*
%TO.C,J7*%
X162306000Y-126746000D03*
D22*
X162306000Y-131746000D03*
%TD*%
D20*
%TO.C,REF\u002A\u002A*%
X124968000Y-50546000D03*
%TD*%
D23*
%TO.C,J6*%
X148336000Y-135636000D03*
D24*
X148336000Y-134366000D03*
X149606000Y-135636000D03*
X149606000Y-134366000D03*
X150876000Y-135636000D03*
X150876000Y-134366000D03*
X152146000Y-135636000D03*
X152146000Y-134366000D03*
X153416000Y-135636000D03*
X153416000Y-134366000D03*
%TD*%
M02*
