%TF.GenerationSoftware,KiCad,Pcbnew,7.0.10-7.0.10~ubuntu23.10.1*%
%TF.CreationDate,2024-03-11T19:26:47+01:00*%
%TF.ProjectId,peripherialModule,70657269-7068-4657-9269-616c4d6f6475,rev?*%
%TF.SameCoordinates,Original*%
%TF.FileFunction,Drillmap*%
%TF.FilePolarity,Positive*%
%FSLAX45Y45*%
G04 Gerber Fmt 4.5, Leading zero omitted, Abs format (unit mm)*
G04 Created by KiCad (PCBNEW 7.0.10-7.0.10~ubuntu23.10.1) date 2024-03-11 19:26:47*
%MOMM*%
%LPD*%
G01*
G04 APERTURE LIST*
%ADD10C,0.100000*%
%ADD11C,0.200000*%
%ADD12C,0.320000*%
G04 APERTURE END LIST*
D10*
X19860300Y-5715000D02*
X23558500Y-5715000D01*
X23558500Y-10715000D01*
X19860300Y-10715000D01*
X19860300Y-5715000D01*
D11*
D10*
X20020600Y-10073960D02*
X20060600Y-10113960D01*
X20060600Y-10073960D02*
X20020600Y-10113960D01*
X20020600Y-10444800D02*
X20060600Y-10484800D01*
X20060600Y-10444800D02*
X20020600Y-10484800D01*
X20681000Y-6832920D02*
X20721000Y-6872920D01*
X20721000Y-6832920D02*
X20681000Y-6872920D01*
X20716560Y-8814120D02*
X20756560Y-8854120D01*
X20756560Y-8814120D02*
X20716560Y-8854120D01*
X20716560Y-8900480D02*
X20756560Y-8940480D01*
X20756560Y-8900480D02*
X20716560Y-8940480D01*
X20813080Y-7376480D02*
X20853080Y-7416480D01*
X20853080Y-7376480D02*
X20813080Y-7416480D01*
X20884200Y-9200200D02*
X20924200Y-9240200D01*
X20924200Y-9200200D02*
X20884200Y-9240200D01*
X20889280Y-7503480D02*
X20929280Y-7543480D01*
X20929280Y-7503480D02*
X20889280Y-7543480D01*
X20935000Y-9530400D02*
X20975000Y-9570400D01*
X20975000Y-9530400D02*
X20935000Y-9570400D01*
X20949384Y-7563584D02*
X20989384Y-7603584D01*
X20989384Y-7563584D02*
X20949384Y-7603584D01*
X21029131Y-8468831D02*
X21069131Y-8508831D01*
X21069131Y-8468831D02*
X21029131Y-8508831D01*
X21099842Y-8539542D02*
X21139842Y-8579542D01*
X21139842Y-8539542D02*
X21099842Y-8579542D01*
X21121690Y-6610800D02*
X21161690Y-6650800D01*
X21161690Y-6610800D02*
X21121690Y-6650800D01*
X21169008Y-8619783D02*
X21209008Y-8659783D01*
X21209008Y-8619783D02*
X21169008Y-8659783D01*
X21227100Y-7765100D02*
X21267100Y-7805100D01*
X21267100Y-7765100D02*
X21227100Y-7805100D01*
X21238418Y-8691766D02*
X21278418Y-8731766D01*
X21278418Y-8691766D02*
X21238418Y-8731766D01*
X21316000Y-8870000D02*
X21356000Y-8910000D01*
X21356000Y-8870000D02*
X21316000Y-8910000D01*
X21407440Y-9261160D02*
X21447440Y-9301160D01*
X21447440Y-9261160D02*
X21407440Y-9301160D01*
X21537500Y-8229400D02*
X21577500Y-8269400D01*
X21577500Y-8229400D02*
X21537500Y-8269400D01*
X21798600Y-6888800D02*
X21838600Y-6928800D01*
X21838600Y-6888800D02*
X21798600Y-6928800D01*
X21798600Y-7117400D02*
X21838600Y-7157400D01*
X21838600Y-7117400D02*
X21798600Y-7157400D01*
X21798600Y-7320600D02*
X21838600Y-7360600D01*
X21838600Y-7320600D02*
X21798600Y-7360600D01*
X21823585Y-8578521D02*
X21863585Y-8618521D01*
X21863585Y-8578521D02*
X21823585Y-8618521D01*
X21823740Y-8378613D02*
X21863740Y-8418613D01*
X21863740Y-8378613D02*
X21823740Y-8418613D01*
X21824055Y-8678520D02*
X21864055Y-8718520D01*
X21864055Y-8678520D02*
X21824055Y-8718520D01*
X21827834Y-8478530D02*
X21867834Y-8518530D01*
X21867834Y-8478530D02*
X21827834Y-8518530D01*
X21839240Y-7808280D02*
X21879240Y-7848280D01*
X21879240Y-7808280D02*
X21839240Y-7848280D01*
X21948400Y-8359400D02*
X21988400Y-8399400D01*
X21988400Y-8359400D02*
X21948400Y-8399400D01*
X22368868Y-8049400D02*
X22408868Y-8089400D01*
X22408868Y-8049400D02*
X22368868Y-8089400D01*
X22382800Y-7686360D02*
X22422800Y-7726360D01*
X22422800Y-7686360D02*
X22382800Y-7726360D01*
X22438680Y-7976900D02*
X22478680Y-8016900D01*
X22478680Y-7976900D02*
X22438680Y-8016900D01*
X22459000Y-8616000D02*
X22499000Y-8656000D01*
X22499000Y-8616000D02*
X22459000Y-8656000D01*
X22484400Y-6126800D02*
X22524400Y-6166800D01*
X22524400Y-6126800D02*
X22484400Y-6166800D01*
X22484400Y-6228400D02*
X22524400Y-6268400D01*
X22524400Y-6228400D02*
X22484400Y-6268400D01*
X22493290Y-7309300D02*
X22533290Y-7349300D01*
X22533290Y-7309300D02*
X22493290Y-7349300D01*
X22509800Y-8158800D02*
X22549800Y-8198800D01*
X22549800Y-8158800D02*
X22509800Y-8198800D01*
X22509800Y-8260400D02*
X22549800Y-8300400D01*
X22549800Y-8260400D02*
X22509800Y-8300400D01*
X22645690Y-7487100D02*
X22685690Y-7527100D01*
X22685690Y-7487100D02*
X22645690Y-7527100D01*
X22687600Y-7371400D02*
X22727600Y-7411400D01*
X22727600Y-7371400D02*
X22687600Y-7411400D01*
X22687600Y-8044500D02*
X22727600Y-8084500D01*
X22727600Y-8044500D02*
X22687600Y-8084500D01*
X22785390Y-7004500D02*
X22825390Y-7044500D01*
X22825390Y-7004500D02*
X22785390Y-7044500D01*
X22977160Y-8631240D02*
X23017160Y-8671240D01*
X23017160Y-8631240D02*
X22977160Y-8671240D01*
X23165120Y-9403400D02*
X23205120Y-9443400D01*
X23205120Y-9403400D02*
X23165120Y-9443400D01*
X23393720Y-10084120D02*
X23433720Y-10124120D01*
X23433720Y-10084120D02*
X23393720Y-10124120D01*
X23393720Y-10485440D02*
X23433720Y-10525440D01*
X23433720Y-10485440D02*
X23393720Y-10525440D01*
X23419120Y-6472240D02*
X23459120Y-6512240D01*
X23459120Y-6472240D02*
X23419120Y-6512240D01*
X23424200Y-6065840D02*
X23464200Y-6105840D01*
X23464200Y-6065840D02*
X23424200Y-6105840D01*
X20116000Y-7000000D02*
G75*
G03*
X20016000Y-7000000I-50000J0D01*
G01*
X20016000Y-7000000D02*
G75*
G03*
X20116000Y-7000000I50000J0D01*
G01*
X20116000Y-7254000D02*
G75*
G03*
X20016000Y-7254000I-50000J0D01*
G01*
X20016000Y-7254000D02*
G75*
G03*
X20116000Y-7254000I50000J0D01*
G01*
X20116000Y-7508000D02*
G75*
G03*
X20016000Y-7508000I-50000J0D01*
G01*
X20016000Y-7508000D02*
G75*
G03*
X20116000Y-7508000I50000J0D01*
G01*
X20116000Y-7762000D02*
G75*
G03*
X20016000Y-7762000I-50000J0D01*
G01*
X20016000Y-7762000D02*
G75*
G03*
X20116000Y-7762000I50000J0D01*
G01*
X20116000Y-8016000D02*
G75*
G03*
X20016000Y-8016000I-50000J0D01*
G01*
X20016000Y-8016000D02*
G75*
G03*
X20116000Y-8016000I50000J0D01*
G01*
X20116000Y-8270000D02*
G75*
G03*
X20016000Y-8270000I-50000J0D01*
G01*
X20016000Y-8270000D02*
G75*
G03*
X20116000Y-8270000I50000J0D01*
G01*
X20116000Y-8524000D02*
G75*
G03*
X20016000Y-8524000I-50000J0D01*
G01*
X20016000Y-8524000D02*
G75*
G03*
X20116000Y-8524000I50000J0D01*
G01*
X20116000Y-8778000D02*
G75*
G03*
X20016000Y-8778000I-50000J0D01*
G01*
X20016000Y-8778000D02*
G75*
G03*
X20116000Y-8778000I50000J0D01*
G01*
X20116000Y-9032000D02*
G75*
G03*
X20016000Y-9032000I-50000J0D01*
G01*
X20016000Y-9032000D02*
G75*
G03*
X20116000Y-9032000I50000J0D01*
G01*
X20116000Y-9286000D02*
G75*
G03*
X20016000Y-9286000I-50000J0D01*
G01*
X20016000Y-9286000D02*
G75*
G03*
X20116000Y-9286000I50000J0D01*
G01*
X20116000Y-9540000D02*
G75*
G03*
X20016000Y-9540000I-50000J0D01*
G01*
X20016000Y-9540000D02*
G75*
G03*
X20116000Y-9540000I50000J0D01*
G01*
X20370000Y-7000000D02*
G75*
G03*
X20270000Y-7000000I-50000J0D01*
G01*
X20270000Y-7000000D02*
G75*
G03*
X20370000Y-7000000I50000J0D01*
G01*
X20370000Y-7254000D02*
G75*
G03*
X20270000Y-7254000I-50000J0D01*
G01*
X20270000Y-7254000D02*
G75*
G03*
X20370000Y-7254000I50000J0D01*
G01*
X20370000Y-7508000D02*
G75*
G03*
X20270000Y-7508000I-50000J0D01*
G01*
X20270000Y-7508000D02*
G75*
G03*
X20370000Y-7508000I50000J0D01*
G01*
X20370000Y-7762000D02*
G75*
G03*
X20270000Y-7762000I-50000J0D01*
G01*
X20270000Y-7762000D02*
G75*
G03*
X20370000Y-7762000I50000J0D01*
G01*
X20370000Y-8016000D02*
G75*
G03*
X20270000Y-8016000I-50000J0D01*
G01*
X20270000Y-8016000D02*
G75*
G03*
X20370000Y-8016000I50000J0D01*
G01*
X20370000Y-8270000D02*
G75*
G03*
X20270000Y-8270000I-50000J0D01*
G01*
X20270000Y-8270000D02*
G75*
G03*
X20370000Y-8270000I50000J0D01*
G01*
X20370000Y-8524000D02*
G75*
G03*
X20270000Y-8524000I-50000J0D01*
G01*
X20270000Y-8524000D02*
G75*
G03*
X20370000Y-8524000I50000J0D01*
G01*
X20370000Y-8778000D02*
G75*
G03*
X20270000Y-8778000I-50000J0D01*
G01*
X20270000Y-8778000D02*
G75*
G03*
X20370000Y-8778000I50000J0D01*
G01*
X20370000Y-9032000D02*
G75*
G03*
X20270000Y-9032000I-50000J0D01*
G01*
X20270000Y-9032000D02*
G75*
G03*
X20370000Y-9032000I50000J0D01*
G01*
X20370000Y-9286000D02*
G75*
G03*
X20270000Y-9286000I-50000J0D01*
G01*
X20270000Y-9286000D02*
G75*
G03*
X20370000Y-9286000I50000J0D01*
G01*
X20370000Y-9540000D02*
G75*
G03*
X20270000Y-9540000I-50000J0D01*
G01*
X20270000Y-9540000D02*
G75*
G03*
X20370000Y-9540000I50000J0D01*
G01*
X21200900Y-6477000D02*
G75*
G03*
X21100900Y-6477000I-50000J0D01*
G01*
X21100900Y-6477000D02*
G75*
G03*
X21200900Y-6477000I50000J0D01*
G01*
X21200900Y-10033000D02*
G75*
G03*
X21100900Y-10033000I-50000J0D01*
G01*
X21100900Y-10033000D02*
G75*
G03*
X21200900Y-10033000I50000J0D01*
G01*
X21339500Y-6193000D02*
G75*
G03*
X21239500Y-6193000I-50000J0D01*
G01*
X21239500Y-6193000D02*
G75*
G03*
X21339500Y-6193000I50000J0D01*
G01*
X21339500Y-10317000D02*
G75*
G03*
X21239500Y-10317000I-50000J0D01*
G01*
X21239500Y-10317000D02*
G75*
G03*
X21339500Y-10317000I50000J0D01*
G01*
X21478100Y-6477000D02*
G75*
G03*
X21378100Y-6477000I-50000J0D01*
G01*
X21378100Y-6477000D02*
G75*
G03*
X21478100Y-6477000I50000J0D01*
G01*
X21478200Y-10033000D02*
G75*
G03*
X21378200Y-10033000I-50000J0D01*
G01*
X21378200Y-10033000D02*
G75*
G03*
X21478200Y-10033000I50000J0D01*
G01*
X21616800Y-6193000D02*
G75*
G03*
X21516800Y-6193000I-50000J0D01*
G01*
X21516800Y-6193000D02*
G75*
G03*
X21616800Y-6193000I50000J0D01*
G01*
X21616800Y-10317000D02*
G75*
G03*
X21516800Y-10317000I-50000J0D01*
G01*
X21516800Y-10317000D02*
G75*
G03*
X21616800Y-10317000I50000J0D01*
G01*
X21755400Y-6477000D02*
G75*
G03*
X21655400Y-6477000I-50000J0D01*
G01*
X21655400Y-6477000D02*
G75*
G03*
X21755400Y-6477000I50000J0D01*
G01*
X21755400Y-10033000D02*
G75*
G03*
X21655400Y-10033000I-50000J0D01*
G01*
X21655400Y-10033000D02*
G75*
G03*
X21755400Y-10033000I50000J0D01*
G01*
X21894000Y-6193000D02*
G75*
G03*
X21794000Y-6193000I-50000J0D01*
G01*
X21794000Y-6193000D02*
G75*
G03*
X21894000Y-6193000I50000J0D01*
G01*
X21894000Y-9029700D02*
G75*
G03*
X21794000Y-9029700I-50000J0D01*
G01*
X21794000Y-9029700D02*
G75*
G03*
X21894000Y-9029700I50000J0D01*
G01*
X21894000Y-9283700D02*
G75*
G03*
X21794000Y-9283700I-50000J0D01*
G01*
X21794000Y-9283700D02*
G75*
G03*
X21894000Y-9283700I50000J0D01*
G01*
X21894000Y-9537700D02*
G75*
G03*
X21794000Y-9537700I-50000J0D01*
G01*
X21794000Y-9537700D02*
G75*
G03*
X21894000Y-9537700I50000J0D01*
G01*
X21894000Y-10317000D02*
G75*
G03*
X21794000Y-10317000I-50000J0D01*
G01*
X21794000Y-10317000D02*
G75*
G03*
X21894000Y-10317000I50000J0D01*
G01*
X22032600Y-6477000D02*
G75*
G03*
X21932600Y-6477000I-50000J0D01*
G01*
X21932600Y-6477000D02*
G75*
G03*
X22032600Y-6477000I50000J0D01*
G01*
X22032700Y-10033000D02*
G75*
G03*
X21932700Y-10033000I-50000J0D01*
G01*
X21932700Y-10033000D02*
G75*
G03*
X22032700Y-10033000I50000J0D01*
G01*
X22171300Y-6193000D02*
G75*
G03*
X22071300Y-6193000I-50000J0D01*
G01*
X22071300Y-6193000D02*
G75*
G03*
X22171300Y-6193000I50000J0D01*
G01*
X22171300Y-10317000D02*
G75*
G03*
X22071300Y-10317000I-50000J0D01*
G01*
X22071300Y-10317000D02*
G75*
G03*
X22171300Y-10317000I50000J0D01*
G01*
X22309900Y-6477000D02*
G75*
G03*
X22209900Y-6477000I-50000J0D01*
G01*
X22209900Y-6477000D02*
G75*
G03*
X22309900Y-6477000I50000J0D01*
G01*
X22309900Y-10033000D02*
G75*
G03*
X22209900Y-10033000I-50000J0D01*
G01*
X22209900Y-10033000D02*
G75*
G03*
X22309900Y-10033000I50000J0D01*
G01*
X22402000Y-9029700D02*
G75*
G03*
X22302000Y-9029700I-50000J0D01*
G01*
X22302000Y-9029700D02*
G75*
G03*
X22402000Y-9029700I50000J0D01*
G01*
X22402000Y-9283700D02*
G75*
G03*
X22302000Y-9283700I-50000J0D01*
G01*
X22302000Y-9283700D02*
G75*
G03*
X22402000Y-9283700I50000J0D01*
G01*
X22402000Y-9537700D02*
G75*
G03*
X22302000Y-9537700I-50000J0D01*
G01*
X22302000Y-9537700D02*
G75*
G03*
X22402000Y-9537700I50000J0D01*
G01*
X23164000Y-7508000D02*
G75*
G03*
X23064000Y-7508000I-50000J0D01*
G01*
X23064000Y-7508000D02*
G75*
G03*
X23164000Y-7508000I50000J0D01*
G01*
X23164000Y-7762000D02*
G75*
G03*
X23064000Y-7762000I-50000J0D01*
G01*
X23064000Y-7762000D02*
G75*
G03*
X23164000Y-7762000I50000J0D01*
G01*
X23164000Y-8016000D02*
G75*
G03*
X23064000Y-8016000I-50000J0D01*
G01*
X23064000Y-8016000D02*
G75*
G03*
X23164000Y-8016000I50000J0D01*
G01*
X23418000Y-7000000D02*
G75*
G03*
X23318000Y-7000000I-50000J0D01*
G01*
X23318000Y-7000000D02*
G75*
G03*
X23418000Y-7000000I50000J0D01*
G01*
X23418000Y-7254000D02*
G75*
G03*
X23318000Y-7254000I-50000J0D01*
G01*
X23318000Y-7254000D02*
G75*
G03*
X23418000Y-7254000I50000J0D01*
G01*
X23418000Y-7508000D02*
G75*
G03*
X23318000Y-7508000I-50000J0D01*
G01*
X23318000Y-7508000D02*
G75*
G03*
X23418000Y-7508000I50000J0D01*
G01*
X23418000Y-7762000D02*
G75*
G03*
X23318000Y-7762000I-50000J0D01*
G01*
X23318000Y-7762000D02*
G75*
G03*
X23418000Y-7762000I50000J0D01*
G01*
X23418000Y-8016000D02*
G75*
G03*
X23318000Y-8016000I-50000J0D01*
G01*
X23318000Y-8016000D02*
G75*
G03*
X23418000Y-8016000I50000J0D01*
G01*
D12*
X20455900Y-6175000D02*
X20455900Y-6495000D01*
X20295900Y-6335000D02*
X20615900Y-6335000D01*
X20455900Y-10015000D02*
X20455900Y-10335000D01*
X20295900Y-10175000D02*
X20615900Y-10175000D01*
X22954900Y-6175000D02*
X22954900Y-6495000D01*
X22794900Y-6335000D02*
X23114900Y-6335000D01*
X22954900Y-10015000D02*
X22954900Y-10335000D01*
X22794900Y-10175000D02*
X23114900Y-10175000D01*
D11*
X20116077Y-11031484D02*
X20116077Y-10831484D01*
X20116077Y-10831484D02*
X20163696Y-10831484D01*
X20163696Y-10831484D02*
X20192267Y-10841008D01*
X20192267Y-10841008D02*
X20211315Y-10860055D01*
X20211315Y-10860055D02*
X20220839Y-10879103D01*
X20220839Y-10879103D02*
X20230363Y-10917198D01*
X20230363Y-10917198D02*
X20230363Y-10945770D01*
X20230363Y-10945770D02*
X20220839Y-10983865D01*
X20220839Y-10983865D02*
X20211315Y-11002912D01*
X20211315Y-11002912D02*
X20192267Y-11021960D01*
X20192267Y-11021960D02*
X20163696Y-11031484D01*
X20163696Y-11031484D02*
X20116077Y-11031484D01*
X20316077Y-11031484D02*
X20316077Y-10898150D01*
X20316077Y-10936246D02*
X20325601Y-10917198D01*
X20325601Y-10917198D02*
X20335124Y-10907674D01*
X20335124Y-10907674D02*
X20354172Y-10898150D01*
X20354172Y-10898150D02*
X20373220Y-10898150D01*
X20439886Y-11031484D02*
X20439886Y-10898150D01*
X20439886Y-10831484D02*
X20430363Y-10841008D01*
X20430363Y-10841008D02*
X20439886Y-10850531D01*
X20439886Y-10850531D02*
X20449410Y-10841008D01*
X20449410Y-10841008D02*
X20439886Y-10831484D01*
X20439886Y-10831484D02*
X20439886Y-10850531D01*
X20563696Y-11031484D02*
X20544648Y-11021960D01*
X20544648Y-11021960D02*
X20535124Y-11002912D01*
X20535124Y-11002912D02*
X20535124Y-10831484D01*
X20668458Y-11031484D02*
X20649410Y-11021960D01*
X20649410Y-11021960D02*
X20639886Y-11002912D01*
X20639886Y-11002912D02*
X20639886Y-10831484D01*
X20897029Y-11031484D02*
X20897029Y-10831484D01*
X20897029Y-10831484D02*
X20963696Y-10974341D01*
X20963696Y-10974341D02*
X21030363Y-10831484D01*
X21030363Y-10831484D02*
X21030363Y-11031484D01*
X21211315Y-11031484D02*
X21211315Y-10926722D01*
X21211315Y-10926722D02*
X21201791Y-10907674D01*
X21201791Y-10907674D02*
X21182744Y-10898150D01*
X21182744Y-10898150D02*
X21144648Y-10898150D01*
X21144648Y-10898150D02*
X21125601Y-10907674D01*
X21211315Y-11021960D02*
X21192267Y-11031484D01*
X21192267Y-11031484D02*
X21144648Y-11031484D01*
X21144648Y-11031484D02*
X21125601Y-11021960D01*
X21125601Y-11021960D02*
X21116077Y-11002912D01*
X21116077Y-11002912D02*
X21116077Y-10983865D01*
X21116077Y-10983865D02*
X21125601Y-10964817D01*
X21125601Y-10964817D02*
X21144648Y-10955293D01*
X21144648Y-10955293D02*
X21192267Y-10955293D01*
X21192267Y-10955293D02*
X21211315Y-10945770D01*
X21306553Y-10898150D02*
X21306553Y-11098150D01*
X21306553Y-10907674D02*
X21325601Y-10898150D01*
X21325601Y-10898150D02*
X21363696Y-10898150D01*
X21363696Y-10898150D02*
X21382744Y-10907674D01*
X21382744Y-10907674D02*
X21392267Y-10917198D01*
X21392267Y-10917198D02*
X21401791Y-10936246D01*
X21401791Y-10936246D02*
X21401791Y-10993389D01*
X21401791Y-10993389D02*
X21392267Y-11012436D01*
X21392267Y-11012436D02*
X21382744Y-11021960D01*
X21382744Y-11021960D02*
X21363696Y-11031484D01*
X21363696Y-11031484D02*
X21325601Y-11031484D01*
X21325601Y-11031484D02*
X21306553Y-11021960D01*
X21487505Y-11012436D02*
X21497029Y-11021960D01*
X21497029Y-11021960D02*
X21487505Y-11031484D01*
X21487505Y-11031484D02*
X21477982Y-11021960D01*
X21477982Y-11021960D02*
X21487505Y-11012436D01*
X21487505Y-11012436D02*
X21487505Y-11031484D01*
X21487505Y-10907674D02*
X21497029Y-10917198D01*
X21497029Y-10917198D02*
X21487505Y-10926722D01*
X21487505Y-10926722D02*
X21477982Y-10917198D01*
X21477982Y-10917198D02*
X21487505Y-10907674D01*
X21487505Y-10907674D02*
X21487505Y-10926722D01*
D10*
X19815300Y-11340000D02*
X19855300Y-11380000D01*
X19855300Y-11340000D02*
X19815300Y-11380000D01*
D11*
X20154172Y-11251484D02*
X20173220Y-11251484D01*
X20173220Y-11251484D02*
X20192267Y-11261008D01*
X20192267Y-11261008D02*
X20201791Y-11270531D01*
X20201791Y-11270531D02*
X20211315Y-11289579D01*
X20211315Y-11289579D02*
X20220839Y-11327674D01*
X20220839Y-11327674D02*
X20220839Y-11375293D01*
X20220839Y-11375293D02*
X20211315Y-11413388D01*
X20211315Y-11413388D02*
X20201791Y-11432436D01*
X20201791Y-11432436D02*
X20192267Y-11441960D01*
X20192267Y-11441960D02*
X20173220Y-11451484D01*
X20173220Y-11451484D02*
X20154172Y-11451484D01*
X20154172Y-11451484D02*
X20135124Y-11441960D01*
X20135124Y-11441960D02*
X20125601Y-11432436D01*
X20125601Y-11432436D02*
X20116077Y-11413388D01*
X20116077Y-11413388D02*
X20106553Y-11375293D01*
X20106553Y-11375293D02*
X20106553Y-11327674D01*
X20106553Y-11327674D02*
X20116077Y-11289579D01*
X20116077Y-11289579D02*
X20125601Y-11270531D01*
X20125601Y-11270531D02*
X20135124Y-11261008D01*
X20135124Y-11261008D02*
X20154172Y-11251484D01*
X20306553Y-11432436D02*
X20316077Y-11441960D01*
X20316077Y-11441960D02*
X20306553Y-11451484D01*
X20306553Y-11451484D02*
X20297029Y-11441960D01*
X20297029Y-11441960D02*
X20306553Y-11432436D01*
X20306553Y-11432436D02*
X20306553Y-11451484D01*
X20487505Y-11318150D02*
X20487505Y-11451484D01*
X20439886Y-11241960D02*
X20392267Y-11384817D01*
X20392267Y-11384817D02*
X20516077Y-11384817D01*
X20630363Y-11251484D02*
X20649410Y-11251484D01*
X20649410Y-11251484D02*
X20668458Y-11261008D01*
X20668458Y-11261008D02*
X20677982Y-11270531D01*
X20677982Y-11270531D02*
X20687505Y-11289579D01*
X20687505Y-11289579D02*
X20697029Y-11327674D01*
X20697029Y-11327674D02*
X20697029Y-11375293D01*
X20697029Y-11375293D02*
X20687505Y-11413388D01*
X20687505Y-11413388D02*
X20677982Y-11432436D01*
X20677982Y-11432436D02*
X20668458Y-11441960D01*
X20668458Y-11441960D02*
X20649410Y-11451484D01*
X20649410Y-11451484D02*
X20630363Y-11451484D01*
X20630363Y-11451484D02*
X20611315Y-11441960D01*
X20611315Y-11441960D02*
X20601791Y-11432436D01*
X20601791Y-11432436D02*
X20592267Y-11413388D01*
X20592267Y-11413388D02*
X20582744Y-11375293D01*
X20582744Y-11375293D02*
X20582744Y-11327674D01*
X20582744Y-11327674D02*
X20592267Y-11289579D01*
X20592267Y-11289579D02*
X20601791Y-11270531D01*
X20601791Y-11270531D02*
X20611315Y-11261008D01*
X20611315Y-11261008D02*
X20630363Y-11251484D01*
X20820839Y-11251484D02*
X20839886Y-11251484D01*
X20839886Y-11251484D02*
X20858934Y-11261008D01*
X20858934Y-11261008D02*
X20868458Y-11270531D01*
X20868458Y-11270531D02*
X20877982Y-11289579D01*
X20877982Y-11289579D02*
X20887505Y-11327674D01*
X20887505Y-11327674D02*
X20887505Y-11375293D01*
X20887505Y-11375293D02*
X20877982Y-11413388D01*
X20877982Y-11413388D02*
X20868458Y-11432436D01*
X20868458Y-11432436D02*
X20858934Y-11441960D01*
X20858934Y-11441960D02*
X20839886Y-11451484D01*
X20839886Y-11451484D02*
X20820839Y-11451484D01*
X20820839Y-11451484D02*
X20801791Y-11441960D01*
X20801791Y-11441960D02*
X20792267Y-11432436D01*
X20792267Y-11432436D02*
X20782744Y-11413388D01*
X20782744Y-11413388D02*
X20773220Y-11375293D01*
X20773220Y-11375293D02*
X20773220Y-11327674D01*
X20773220Y-11327674D02*
X20782744Y-11289579D01*
X20782744Y-11289579D02*
X20792267Y-11270531D01*
X20792267Y-11270531D02*
X20801791Y-11261008D01*
X20801791Y-11261008D02*
X20820839Y-11251484D01*
X20973220Y-11451484D02*
X20973220Y-11318150D01*
X20973220Y-11337198D02*
X20982744Y-11327674D01*
X20982744Y-11327674D02*
X21001791Y-11318150D01*
X21001791Y-11318150D02*
X21030363Y-11318150D01*
X21030363Y-11318150D02*
X21049410Y-11327674D01*
X21049410Y-11327674D02*
X21058934Y-11346722D01*
X21058934Y-11346722D02*
X21058934Y-11451484D01*
X21058934Y-11346722D02*
X21068458Y-11327674D01*
X21068458Y-11327674D02*
X21087505Y-11318150D01*
X21087505Y-11318150D02*
X21116077Y-11318150D01*
X21116077Y-11318150D02*
X21135125Y-11327674D01*
X21135125Y-11327674D02*
X21144648Y-11346722D01*
X21144648Y-11346722D02*
X21144648Y-11451484D01*
X21239886Y-11451484D02*
X21239886Y-11318150D01*
X21239886Y-11337198D02*
X21249410Y-11327674D01*
X21249410Y-11327674D02*
X21268458Y-11318150D01*
X21268458Y-11318150D02*
X21297029Y-11318150D01*
X21297029Y-11318150D02*
X21316077Y-11327674D01*
X21316077Y-11327674D02*
X21325601Y-11346722D01*
X21325601Y-11346722D02*
X21325601Y-11451484D01*
X21325601Y-11346722D02*
X21335125Y-11327674D01*
X21335125Y-11327674D02*
X21354172Y-11318150D01*
X21354172Y-11318150D02*
X21382744Y-11318150D01*
X21382744Y-11318150D02*
X21401791Y-11327674D01*
X21401791Y-11327674D02*
X21411315Y-11346722D01*
X21411315Y-11346722D02*
X21411315Y-11451484D01*
X21801791Y-11241960D02*
X21630363Y-11499103D01*
X22058934Y-11251484D02*
X22077982Y-11251484D01*
X22077982Y-11251484D02*
X22097029Y-11261008D01*
X22097029Y-11261008D02*
X22106553Y-11270531D01*
X22106553Y-11270531D02*
X22116077Y-11289579D01*
X22116077Y-11289579D02*
X22125601Y-11327674D01*
X22125601Y-11327674D02*
X22125601Y-11375293D01*
X22125601Y-11375293D02*
X22116077Y-11413388D01*
X22116077Y-11413388D02*
X22106553Y-11432436D01*
X22106553Y-11432436D02*
X22097029Y-11441960D01*
X22097029Y-11441960D02*
X22077982Y-11451484D01*
X22077982Y-11451484D02*
X22058934Y-11451484D01*
X22058934Y-11451484D02*
X22039887Y-11441960D01*
X22039887Y-11441960D02*
X22030363Y-11432436D01*
X22030363Y-11432436D02*
X22020839Y-11413388D01*
X22020839Y-11413388D02*
X22011315Y-11375293D01*
X22011315Y-11375293D02*
X22011315Y-11327674D01*
X22011315Y-11327674D02*
X22020839Y-11289579D01*
X22020839Y-11289579D02*
X22030363Y-11270531D01*
X22030363Y-11270531D02*
X22039887Y-11261008D01*
X22039887Y-11261008D02*
X22058934Y-11251484D01*
X22211315Y-11432436D02*
X22220839Y-11441960D01*
X22220839Y-11441960D02*
X22211315Y-11451484D01*
X22211315Y-11451484D02*
X22201791Y-11441960D01*
X22201791Y-11441960D02*
X22211315Y-11432436D01*
X22211315Y-11432436D02*
X22211315Y-11451484D01*
X22344648Y-11251484D02*
X22363696Y-11251484D01*
X22363696Y-11251484D02*
X22382744Y-11261008D01*
X22382744Y-11261008D02*
X22392267Y-11270531D01*
X22392267Y-11270531D02*
X22401791Y-11289579D01*
X22401791Y-11289579D02*
X22411315Y-11327674D01*
X22411315Y-11327674D02*
X22411315Y-11375293D01*
X22411315Y-11375293D02*
X22401791Y-11413388D01*
X22401791Y-11413388D02*
X22392267Y-11432436D01*
X22392267Y-11432436D02*
X22382744Y-11441960D01*
X22382744Y-11441960D02*
X22363696Y-11451484D01*
X22363696Y-11451484D02*
X22344648Y-11451484D01*
X22344648Y-11451484D02*
X22325601Y-11441960D01*
X22325601Y-11441960D02*
X22316077Y-11432436D01*
X22316077Y-11432436D02*
X22306553Y-11413388D01*
X22306553Y-11413388D02*
X22297029Y-11375293D01*
X22297029Y-11375293D02*
X22297029Y-11327674D01*
X22297029Y-11327674D02*
X22306553Y-11289579D01*
X22306553Y-11289579D02*
X22316077Y-11270531D01*
X22316077Y-11270531D02*
X22325601Y-11261008D01*
X22325601Y-11261008D02*
X22344648Y-11251484D01*
X22601791Y-11451484D02*
X22487506Y-11451484D01*
X22544648Y-11451484D02*
X22544648Y-11251484D01*
X22544648Y-11251484D02*
X22525601Y-11280055D01*
X22525601Y-11280055D02*
X22506553Y-11299103D01*
X22506553Y-11299103D02*
X22487506Y-11308627D01*
X22782744Y-11251484D02*
X22687506Y-11251484D01*
X22687506Y-11251484D02*
X22677982Y-11346722D01*
X22677982Y-11346722D02*
X22687506Y-11337198D01*
X22687506Y-11337198D02*
X22706553Y-11327674D01*
X22706553Y-11327674D02*
X22754172Y-11327674D01*
X22754172Y-11327674D02*
X22773220Y-11337198D01*
X22773220Y-11337198D02*
X22782744Y-11346722D01*
X22782744Y-11346722D02*
X22792267Y-11365769D01*
X22792267Y-11365769D02*
X22792267Y-11413388D01*
X22792267Y-11413388D02*
X22782744Y-11432436D01*
X22782744Y-11432436D02*
X22773220Y-11441960D01*
X22773220Y-11441960D02*
X22754172Y-11451484D01*
X22754172Y-11451484D02*
X22706553Y-11451484D01*
X22706553Y-11451484D02*
X22687506Y-11441960D01*
X22687506Y-11441960D02*
X22677982Y-11432436D01*
X22858934Y-11251484D02*
X22992267Y-11251484D01*
X22992267Y-11251484D02*
X22906553Y-11451484D01*
X23058934Y-11251484D02*
X23058934Y-11289579D01*
X23135125Y-11251484D02*
X23135125Y-11289579D01*
X23430363Y-11527674D02*
X23420839Y-11518150D01*
X23420839Y-11518150D02*
X23401791Y-11489579D01*
X23401791Y-11489579D02*
X23392268Y-11470531D01*
X23392268Y-11470531D02*
X23382744Y-11441960D01*
X23382744Y-11441960D02*
X23373220Y-11394341D01*
X23373220Y-11394341D02*
X23373220Y-11356246D01*
X23373220Y-11356246D02*
X23382744Y-11308627D01*
X23382744Y-11308627D02*
X23392268Y-11280055D01*
X23392268Y-11280055D02*
X23401791Y-11261008D01*
X23401791Y-11261008D02*
X23420839Y-11232436D01*
X23420839Y-11232436D02*
X23430363Y-11222912D01*
X23592268Y-11318150D02*
X23592268Y-11451484D01*
X23544648Y-11241960D02*
X23497029Y-11384817D01*
X23497029Y-11384817D02*
X23620839Y-11384817D01*
X23677982Y-11251484D02*
X23811315Y-11251484D01*
X23811315Y-11251484D02*
X23725601Y-11451484D01*
X24039887Y-11451484D02*
X24039887Y-11251484D01*
X24125601Y-11451484D02*
X24125601Y-11346722D01*
X24125601Y-11346722D02*
X24116077Y-11327674D01*
X24116077Y-11327674D02*
X24097030Y-11318150D01*
X24097030Y-11318150D02*
X24068458Y-11318150D01*
X24068458Y-11318150D02*
X24049410Y-11327674D01*
X24049410Y-11327674D02*
X24039887Y-11337198D01*
X24249410Y-11451484D02*
X24230363Y-11441960D01*
X24230363Y-11441960D02*
X24220839Y-11432436D01*
X24220839Y-11432436D02*
X24211315Y-11413388D01*
X24211315Y-11413388D02*
X24211315Y-11356246D01*
X24211315Y-11356246D02*
X24220839Y-11337198D01*
X24220839Y-11337198D02*
X24230363Y-11327674D01*
X24230363Y-11327674D02*
X24249410Y-11318150D01*
X24249410Y-11318150D02*
X24277982Y-11318150D01*
X24277982Y-11318150D02*
X24297030Y-11327674D01*
X24297030Y-11327674D02*
X24306553Y-11337198D01*
X24306553Y-11337198D02*
X24316077Y-11356246D01*
X24316077Y-11356246D02*
X24316077Y-11413388D01*
X24316077Y-11413388D02*
X24306553Y-11432436D01*
X24306553Y-11432436D02*
X24297030Y-11441960D01*
X24297030Y-11441960D02*
X24277982Y-11451484D01*
X24277982Y-11451484D02*
X24249410Y-11451484D01*
X24430363Y-11451484D02*
X24411315Y-11441960D01*
X24411315Y-11441960D02*
X24401791Y-11422912D01*
X24401791Y-11422912D02*
X24401791Y-11251484D01*
X24582744Y-11441960D02*
X24563696Y-11451484D01*
X24563696Y-11451484D02*
X24525601Y-11451484D01*
X24525601Y-11451484D02*
X24506553Y-11441960D01*
X24506553Y-11441960D02*
X24497030Y-11422912D01*
X24497030Y-11422912D02*
X24497030Y-11346722D01*
X24497030Y-11346722D02*
X24506553Y-11327674D01*
X24506553Y-11327674D02*
X24525601Y-11318150D01*
X24525601Y-11318150D02*
X24563696Y-11318150D01*
X24563696Y-11318150D02*
X24582744Y-11327674D01*
X24582744Y-11327674D02*
X24592268Y-11346722D01*
X24592268Y-11346722D02*
X24592268Y-11365769D01*
X24592268Y-11365769D02*
X24497030Y-11384817D01*
X24668458Y-11441960D02*
X24687506Y-11451484D01*
X24687506Y-11451484D02*
X24725601Y-11451484D01*
X24725601Y-11451484D02*
X24744649Y-11441960D01*
X24744649Y-11441960D02*
X24754172Y-11422912D01*
X24754172Y-11422912D02*
X24754172Y-11413388D01*
X24754172Y-11413388D02*
X24744649Y-11394341D01*
X24744649Y-11394341D02*
X24725601Y-11384817D01*
X24725601Y-11384817D02*
X24697030Y-11384817D01*
X24697030Y-11384817D02*
X24677982Y-11375293D01*
X24677982Y-11375293D02*
X24668458Y-11356246D01*
X24668458Y-11356246D02*
X24668458Y-11346722D01*
X24668458Y-11346722D02*
X24677982Y-11327674D01*
X24677982Y-11327674D02*
X24697030Y-11318150D01*
X24697030Y-11318150D02*
X24725601Y-11318150D01*
X24725601Y-11318150D02*
X24744649Y-11327674D01*
X24820839Y-11527674D02*
X24830363Y-11518150D01*
X24830363Y-11518150D02*
X24849411Y-11489579D01*
X24849411Y-11489579D02*
X24858934Y-11470531D01*
X24858934Y-11470531D02*
X24868458Y-11441960D01*
X24868458Y-11441960D02*
X24877982Y-11394341D01*
X24877982Y-11394341D02*
X24877982Y-11356246D01*
X24877982Y-11356246D02*
X24868458Y-11308627D01*
X24868458Y-11308627D02*
X24858934Y-11280055D01*
X24858934Y-11280055D02*
X24849411Y-11261008D01*
X24849411Y-11261008D02*
X24830363Y-11232436D01*
X24830363Y-11232436D02*
X24820839Y-11222912D01*
D10*
X19855300Y-11624000D02*
G75*
G03*
X19755300Y-11624000I-50000J0D01*
G01*
X19755300Y-11624000D02*
G75*
G03*
X19855300Y-11624000I50000J0D01*
G01*
D11*
X20220839Y-11715484D02*
X20106553Y-11715484D01*
X20163696Y-11715484D02*
X20163696Y-11515484D01*
X20163696Y-11515484D02*
X20144648Y-11544055D01*
X20144648Y-11544055D02*
X20125601Y-11563103D01*
X20125601Y-11563103D02*
X20106553Y-11572627D01*
X20306553Y-11696436D02*
X20316077Y-11705960D01*
X20316077Y-11705960D02*
X20306553Y-11715484D01*
X20306553Y-11715484D02*
X20297029Y-11705960D01*
X20297029Y-11705960D02*
X20306553Y-11696436D01*
X20306553Y-11696436D02*
X20306553Y-11715484D01*
X20439886Y-11515484D02*
X20458934Y-11515484D01*
X20458934Y-11515484D02*
X20477982Y-11525008D01*
X20477982Y-11525008D02*
X20487505Y-11534531D01*
X20487505Y-11534531D02*
X20497029Y-11553579D01*
X20497029Y-11553579D02*
X20506553Y-11591674D01*
X20506553Y-11591674D02*
X20506553Y-11639293D01*
X20506553Y-11639293D02*
X20497029Y-11677388D01*
X20497029Y-11677388D02*
X20487505Y-11696436D01*
X20487505Y-11696436D02*
X20477982Y-11705960D01*
X20477982Y-11705960D02*
X20458934Y-11715484D01*
X20458934Y-11715484D02*
X20439886Y-11715484D01*
X20439886Y-11715484D02*
X20420839Y-11705960D01*
X20420839Y-11705960D02*
X20411315Y-11696436D01*
X20411315Y-11696436D02*
X20401791Y-11677388D01*
X20401791Y-11677388D02*
X20392267Y-11639293D01*
X20392267Y-11639293D02*
X20392267Y-11591674D01*
X20392267Y-11591674D02*
X20401791Y-11553579D01*
X20401791Y-11553579D02*
X20411315Y-11534531D01*
X20411315Y-11534531D02*
X20420839Y-11525008D01*
X20420839Y-11525008D02*
X20439886Y-11515484D01*
X20630363Y-11515484D02*
X20649410Y-11515484D01*
X20649410Y-11515484D02*
X20668458Y-11525008D01*
X20668458Y-11525008D02*
X20677982Y-11534531D01*
X20677982Y-11534531D02*
X20687505Y-11553579D01*
X20687505Y-11553579D02*
X20697029Y-11591674D01*
X20697029Y-11591674D02*
X20697029Y-11639293D01*
X20697029Y-11639293D02*
X20687505Y-11677388D01*
X20687505Y-11677388D02*
X20677982Y-11696436D01*
X20677982Y-11696436D02*
X20668458Y-11705960D01*
X20668458Y-11705960D02*
X20649410Y-11715484D01*
X20649410Y-11715484D02*
X20630363Y-11715484D01*
X20630363Y-11715484D02*
X20611315Y-11705960D01*
X20611315Y-11705960D02*
X20601791Y-11696436D01*
X20601791Y-11696436D02*
X20592267Y-11677388D01*
X20592267Y-11677388D02*
X20582744Y-11639293D01*
X20582744Y-11639293D02*
X20582744Y-11591674D01*
X20582744Y-11591674D02*
X20592267Y-11553579D01*
X20592267Y-11553579D02*
X20601791Y-11534531D01*
X20601791Y-11534531D02*
X20611315Y-11525008D01*
X20611315Y-11525008D02*
X20630363Y-11515484D01*
X20820839Y-11515484D02*
X20839886Y-11515484D01*
X20839886Y-11515484D02*
X20858934Y-11525008D01*
X20858934Y-11525008D02*
X20868458Y-11534531D01*
X20868458Y-11534531D02*
X20877982Y-11553579D01*
X20877982Y-11553579D02*
X20887505Y-11591674D01*
X20887505Y-11591674D02*
X20887505Y-11639293D01*
X20887505Y-11639293D02*
X20877982Y-11677388D01*
X20877982Y-11677388D02*
X20868458Y-11696436D01*
X20868458Y-11696436D02*
X20858934Y-11705960D01*
X20858934Y-11705960D02*
X20839886Y-11715484D01*
X20839886Y-11715484D02*
X20820839Y-11715484D01*
X20820839Y-11715484D02*
X20801791Y-11705960D01*
X20801791Y-11705960D02*
X20792267Y-11696436D01*
X20792267Y-11696436D02*
X20782744Y-11677388D01*
X20782744Y-11677388D02*
X20773220Y-11639293D01*
X20773220Y-11639293D02*
X20773220Y-11591674D01*
X20773220Y-11591674D02*
X20782744Y-11553579D01*
X20782744Y-11553579D02*
X20792267Y-11534531D01*
X20792267Y-11534531D02*
X20801791Y-11525008D01*
X20801791Y-11525008D02*
X20820839Y-11515484D01*
X20973220Y-11715484D02*
X20973220Y-11582150D01*
X20973220Y-11601198D02*
X20982744Y-11591674D01*
X20982744Y-11591674D02*
X21001791Y-11582150D01*
X21001791Y-11582150D02*
X21030363Y-11582150D01*
X21030363Y-11582150D02*
X21049410Y-11591674D01*
X21049410Y-11591674D02*
X21058934Y-11610722D01*
X21058934Y-11610722D02*
X21058934Y-11715484D01*
X21058934Y-11610722D02*
X21068458Y-11591674D01*
X21068458Y-11591674D02*
X21087505Y-11582150D01*
X21087505Y-11582150D02*
X21116077Y-11582150D01*
X21116077Y-11582150D02*
X21135125Y-11591674D01*
X21135125Y-11591674D02*
X21144648Y-11610722D01*
X21144648Y-11610722D02*
X21144648Y-11715484D01*
X21239886Y-11715484D02*
X21239886Y-11582150D01*
X21239886Y-11601198D02*
X21249410Y-11591674D01*
X21249410Y-11591674D02*
X21268458Y-11582150D01*
X21268458Y-11582150D02*
X21297029Y-11582150D01*
X21297029Y-11582150D02*
X21316077Y-11591674D01*
X21316077Y-11591674D02*
X21325601Y-11610722D01*
X21325601Y-11610722D02*
X21325601Y-11715484D01*
X21325601Y-11610722D02*
X21335125Y-11591674D01*
X21335125Y-11591674D02*
X21354172Y-11582150D01*
X21354172Y-11582150D02*
X21382744Y-11582150D01*
X21382744Y-11582150D02*
X21401791Y-11591674D01*
X21401791Y-11591674D02*
X21411315Y-11610722D01*
X21411315Y-11610722D02*
X21411315Y-11715484D01*
X21801791Y-11505960D02*
X21630363Y-11763103D01*
X22058934Y-11515484D02*
X22077982Y-11515484D01*
X22077982Y-11515484D02*
X22097029Y-11525008D01*
X22097029Y-11525008D02*
X22106553Y-11534531D01*
X22106553Y-11534531D02*
X22116077Y-11553579D01*
X22116077Y-11553579D02*
X22125601Y-11591674D01*
X22125601Y-11591674D02*
X22125601Y-11639293D01*
X22125601Y-11639293D02*
X22116077Y-11677388D01*
X22116077Y-11677388D02*
X22106553Y-11696436D01*
X22106553Y-11696436D02*
X22097029Y-11705960D01*
X22097029Y-11705960D02*
X22077982Y-11715484D01*
X22077982Y-11715484D02*
X22058934Y-11715484D01*
X22058934Y-11715484D02*
X22039887Y-11705960D01*
X22039887Y-11705960D02*
X22030363Y-11696436D01*
X22030363Y-11696436D02*
X22020839Y-11677388D01*
X22020839Y-11677388D02*
X22011315Y-11639293D01*
X22011315Y-11639293D02*
X22011315Y-11591674D01*
X22011315Y-11591674D02*
X22020839Y-11553579D01*
X22020839Y-11553579D02*
X22030363Y-11534531D01*
X22030363Y-11534531D02*
X22039887Y-11525008D01*
X22039887Y-11525008D02*
X22058934Y-11515484D01*
X22211315Y-11696436D02*
X22220839Y-11705960D01*
X22220839Y-11705960D02*
X22211315Y-11715484D01*
X22211315Y-11715484D02*
X22201791Y-11705960D01*
X22201791Y-11705960D02*
X22211315Y-11696436D01*
X22211315Y-11696436D02*
X22211315Y-11715484D01*
X22344648Y-11515484D02*
X22363696Y-11515484D01*
X22363696Y-11515484D02*
X22382744Y-11525008D01*
X22382744Y-11525008D02*
X22392267Y-11534531D01*
X22392267Y-11534531D02*
X22401791Y-11553579D01*
X22401791Y-11553579D02*
X22411315Y-11591674D01*
X22411315Y-11591674D02*
X22411315Y-11639293D01*
X22411315Y-11639293D02*
X22401791Y-11677388D01*
X22401791Y-11677388D02*
X22392267Y-11696436D01*
X22392267Y-11696436D02*
X22382744Y-11705960D01*
X22382744Y-11705960D02*
X22363696Y-11715484D01*
X22363696Y-11715484D02*
X22344648Y-11715484D01*
X22344648Y-11715484D02*
X22325601Y-11705960D01*
X22325601Y-11705960D02*
X22316077Y-11696436D01*
X22316077Y-11696436D02*
X22306553Y-11677388D01*
X22306553Y-11677388D02*
X22297029Y-11639293D01*
X22297029Y-11639293D02*
X22297029Y-11591674D01*
X22297029Y-11591674D02*
X22306553Y-11553579D01*
X22306553Y-11553579D02*
X22316077Y-11534531D01*
X22316077Y-11534531D02*
X22325601Y-11525008D01*
X22325601Y-11525008D02*
X22344648Y-11515484D01*
X22477982Y-11515484D02*
X22601791Y-11515484D01*
X22601791Y-11515484D02*
X22535125Y-11591674D01*
X22535125Y-11591674D02*
X22563696Y-11591674D01*
X22563696Y-11591674D02*
X22582744Y-11601198D01*
X22582744Y-11601198D02*
X22592267Y-11610722D01*
X22592267Y-11610722D02*
X22601791Y-11629769D01*
X22601791Y-11629769D02*
X22601791Y-11677388D01*
X22601791Y-11677388D02*
X22592267Y-11696436D01*
X22592267Y-11696436D02*
X22582744Y-11705960D01*
X22582744Y-11705960D02*
X22563696Y-11715484D01*
X22563696Y-11715484D02*
X22506553Y-11715484D01*
X22506553Y-11715484D02*
X22487506Y-11705960D01*
X22487506Y-11705960D02*
X22477982Y-11696436D01*
X22697029Y-11715484D02*
X22735125Y-11715484D01*
X22735125Y-11715484D02*
X22754172Y-11705960D01*
X22754172Y-11705960D02*
X22763696Y-11696436D01*
X22763696Y-11696436D02*
X22782744Y-11667865D01*
X22782744Y-11667865D02*
X22792267Y-11629769D01*
X22792267Y-11629769D02*
X22792267Y-11553579D01*
X22792267Y-11553579D02*
X22782744Y-11534531D01*
X22782744Y-11534531D02*
X22773220Y-11525008D01*
X22773220Y-11525008D02*
X22754172Y-11515484D01*
X22754172Y-11515484D02*
X22716077Y-11515484D01*
X22716077Y-11515484D02*
X22697029Y-11525008D01*
X22697029Y-11525008D02*
X22687506Y-11534531D01*
X22687506Y-11534531D02*
X22677982Y-11553579D01*
X22677982Y-11553579D02*
X22677982Y-11601198D01*
X22677982Y-11601198D02*
X22687506Y-11620246D01*
X22687506Y-11620246D02*
X22697029Y-11629769D01*
X22697029Y-11629769D02*
X22716077Y-11639293D01*
X22716077Y-11639293D02*
X22754172Y-11639293D01*
X22754172Y-11639293D02*
X22773220Y-11629769D01*
X22773220Y-11629769D02*
X22782744Y-11620246D01*
X22782744Y-11620246D02*
X22792267Y-11601198D01*
X22963696Y-11582150D02*
X22963696Y-11715484D01*
X22916077Y-11505960D02*
X22868458Y-11648817D01*
X22868458Y-11648817D02*
X22992267Y-11648817D01*
X23058934Y-11515484D02*
X23058934Y-11553579D01*
X23135125Y-11515484D02*
X23135125Y-11553579D01*
X23430363Y-11791674D02*
X23420839Y-11782150D01*
X23420839Y-11782150D02*
X23401791Y-11753579D01*
X23401791Y-11753579D02*
X23392268Y-11734531D01*
X23392268Y-11734531D02*
X23382744Y-11705960D01*
X23382744Y-11705960D02*
X23373220Y-11658341D01*
X23373220Y-11658341D02*
X23373220Y-11620246D01*
X23373220Y-11620246D02*
X23382744Y-11572627D01*
X23382744Y-11572627D02*
X23392268Y-11544055D01*
X23392268Y-11544055D02*
X23401791Y-11525008D01*
X23401791Y-11525008D02*
X23420839Y-11496436D01*
X23420839Y-11496436D02*
X23430363Y-11486912D01*
X23601791Y-11515484D02*
X23506553Y-11515484D01*
X23506553Y-11515484D02*
X23497029Y-11610722D01*
X23497029Y-11610722D02*
X23506553Y-11601198D01*
X23506553Y-11601198D02*
X23525601Y-11591674D01*
X23525601Y-11591674D02*
X23573220Y-11591674D01*
X23573220Y-11591674D02*
X23592268Y-11601198D01*
X23592268Y-11601198D02*
X23601791Y-11610722D01*
X23601791Y-11610722D02*
X23611315Y-11629769D01*
X23611315Y-11629769D02*
X23611315Y-11677388D01*
X23611315Y-11677388D02*
X23601791Y-11696436D01*
X23601791Y-11696436D02*
X23592268Y-11705960D01*
X23592268Y-11705960D02*
X23573220Y-11715484D01*
X23573220Y-11715484D02*
X23525601Y-11715484D01*
X23525601Y-11715484D02*
X23506553Y-11705960D01*
X23506553Y-11705960D02*
X23497029Y-11696436D01*
X23782744Y-11582150D02*
X23782744Y-11715484D01*
X23735125Y-11505960D02*
X23687506Y-11648817D01*
X23687506Y-11648817D02*
X23811315Y-11648817D01*
X24039887Y-11715484D02*
X24039887Y-11515484D01*
X24125601Y-11715484D02*
X24125601Y-11610722D01*
X24125601Y-11610722D02*
X24116077Y-11591674D01*
X24116077Y-11591674D02*
X24097030Y-11582150D01*
X24097030Y-11582150D02*
X24068458Y-11582150D01*
X24068458Y-11582150D02*
X24049410Y-11591674D01*
X24049410Y-11591674D02*
X24039887Y-11601198D01*
X24249410Y-11715484D02*
X24230363Y-11705960D01*
X24230363Y-11705960D02*
X24220839Y-11696436D01*
X24220839Y-11696436D02*
X24211315Y-11677388D01*
X24211315Y-11677388D02*
X24211315Y-11620246D01*
X24211315Y-11620246D02*
X24220839Y-11601198D01*
X24220839Y-11601198D02*
X24230363Y-11591674D01*
X24230363Y-11591674D02*
X24249410Y-11582150D01*
X24249410Y-11582150D02*
X24277982Y-11582150D01*
X24277982Y-11582150D02*
X24297030Y-11591674D01*
X24297030Y-11591674D02*
X24306553Y-11601198D01*
X24306553Y-11601198D02*
X24316077Y-11620246D01*
X24316077Y-11620246D02*
X24316077Y-11677388D01*
X24316077Y-11677388D02*
X24306553Y-11696436D01*
X24306553Y-11696436D02*
X24297030Y-11705960D01*
X24297030Y-11705960D02*
X24277982Y-11715484D01*
X24277982Y-11715484D02*
X24249410Y-11715484D01*
X24430363Y-11715484D02*
X24411315Y-11705960D01*
X24411315Y-11705960D02*
X24401791Y-11686912D01*
X24401791Y-11686912D02*
X24401791Y-11515484D01*
X24582744Y-11705960D02*
X24563696Y-11715484D01*
X24563696Y-11715484D02*
X24525601Y-11715484D01*
X24525601Y-11715484D02*
X24506553Y-11705960D01*
X24506553Y-11705960D02*
X24497030Y-11686912D01*
X24497030Y-11686912D02*
X24497030Y-11610722D01*
X24497030Y-11610722D02*
X24506553Y-11591674D01*
X24506553Y-11591674D02*
X24525601Y-11582150D01*
X24525601Y-11582150D02*
X24563696Y-11582150D01*
X24563696Y-11582150D02*
X24582744Y-11591674D01*
X24582744Y-11591674D02*
X24592268Y-11610722D01*
X24592268Y-11610722D02*
X24592268Y-11629769D01*
X24592268Y-11629769D02*
X24497030Y-11648817D01*
X24668458Y-11705960D02*
X24687506Y-11715484D01*
X24687506Y-11715484D02*
X24725601Y-11715484D01*
X24725601Y-11715484D02*
X24744649Y-11705960D01*
X24744649Y-11705960D02*
X24754172Y-11686912D01*
X24754172Y-11686912D02*
X24754172Y-11677388D01*
X24754172Y-11677388D02*
X24744649Y-11658341D01*
X24744649Y-11658341D02*
X24725601Y-11648817D01*
X24725601Y-11648817D02*
X24697030Y-11648817D01*
X24697030Y-11648817D02*
X24677982Y-11639293D01*
X24677982Y-11639293D02*
X24668458Y-11620246D01*
X24668458Y-11620246D02*
X24668458Y-11610722D01*
X24668458Y-11610722D02*
X24677982Y-11591674D01*
X24677982Y-11591674D02*
X24697030Y-11582150D01*
X24697030Y-11582150D02*
X24725601Y-11582150D01*
X24725601Y-11582150D02*
X24744649Y-11591674D01*
X24820839Y-11791674D02*
X24830363Y-11782150D01*
X24830363Y-11782150D02*
X24849411Y-11753579D01*
X24849411Y-11753579D02*
X24858934Y-11734531D01*
X24858934Y-11734531D02*
X24868458Y-11705960D01*
X24868458Y-11705960D02*
X24877982Y-11658341D01*
X24877982Y-11658341D02*
X24877982Y-11620246D01*
X24877982Y-11620246D02*
X24868458Y-11572627D01*
X24868458Y-11572627D02*
X24858934Y-11544055D01*
X24858934Y-11544055D02*
X24849411Y-11525008D01*
X24849411Y-11525008D02*
X24830363Y-11496436D01*
X24830363Y-11496436D02*
X24820839Y-11486912D01*
X19755300Y-11788000D02*
X19755300Y-11988000D01*
X19655300Y-11888000D02*
X19855300Y-11888000D01*
X20097029Y-11779484D02*
X20220839Y-11779484D01*
X20220839Y-11779484D02*
X20154172Y-11855674D01*
X20154172Y-11855674D02*
X20182744Y-11855674D01*
X20182744Y-11855674D02*
X20201791Y-11865198D01*
X20201791Y-11865198D02*
X20211315Y-11874722D01*
X20211315Y-11874722D02*
X20220839Y-11893769D01*
X20220839Y-11893769D02*
X20220839Y-11941388D01*
X20220839Y-11941388D02*
X20211315Y-11960436D01*
X20211315Y-11960436D02*
X20201791Y-11969960D01*
X20201791Y-11969960D02*
X20182744Y-11979484D01*
X20182744Y-11979484D02*
X20125601Y-11979484D01*
X20125601Y-11979484D02*
X20106553Y-11969960D01*
X20106553Y-11969960D02*
X20097029Y-11960436D01*
X20306553Y-11960436D02*
X20316077Y-11969960D01*
X20316077Y-11969960D02*
X20306553Y-11979484D01*
X20306553Y-11979484D02*
X20297029Y-11969960D01*
X20297029Y-11969960D02*
X20306553Y-11960436D01*
X20306553Y-11960436D02*
X20306553Y-11979484D01*
X20392267Y-11798531D02*
X20401791Y-11789008D01*
X20401791Y-11789008D02*
X20420839Y-11779484D01*
X20420839Y-11779484D02*
X20468458Y-11779484D01*
X20468458Y-11779484D02*
X20487505Y-11789008D01*
X20487505Y-11789008D02*
X20497029Y-11798531D01*
X20497029Y-11798531D02*
X20506553Y-11817579D01*
X20506553Y-11817579D02*
X20506553Y-11836627D01*
X20506553Y-11836627D02*
X20497029Y-11865198D01*
X20497029Y-11865198D02*
X20382744Y-11979484D01*
X20382744Y-11979484D02*
X20506553Y-11979484D01*
X20630363Y-11779484D02*
X20649410Y-11779484D01*
X20649410Y-11779484D02*
X20668458Y-11789008D01*
X20668458Y-11789008D02*
X20677982Y-11798531D01*
X20677982Y-11798531D02*
X20687505Y-11817579D01*
X20687505Y-11817579D02*
X20697029Y-11855674D01*
X20697029Y-11855674D02*
X20697029Y-11903293D01*
X20697029Y-11903293D02*
X20687505Y-11941388D01*
X20687505Y-11941388D02*
X20677982Y-11960436D01*
X20677982Y-11960436D02*
X20668458Y-11969960D01*
X20668458Y-11969960D02*
X20649410Y-11979484D01*
X20649410Y-11979484D02*
X20630363Y-11979484D01*
X20630363Y-11979484D02*
X20611315Y-11969960D01*
X20611315Y-11969960D02*
X20601791Y-11960436D01*
X20601791Y-11960436D02*
X20592267Y-11941388D01*
X20592267Y-11941388D02*
X20582744Y-11903293D01*
X20582744Y-11903293D02*
X20582744Y-11855674D01*
X20582744Y-11855674D02*
X20592267Y-11817579D01*
X20592267Y-11817579D02*
X20601791Y-11798531D01*
X20601791Y-11798531D02*
X20611315Y-11789008D01*
X20611315Y-11789008D02*
X20630363Y-11779484D01*
X20820839Y-11779484D02*
X20839886Y-11779484D01*
X20839886Y-11779484D02*
X20858934Y-11789008D01*
X20858934Y-11789008D02*
X20868458Y-11798531D01*
X20868458Y-11798531D02*
X20877982Y-11817579D01*
X20877982Y-11817579D02*
X20887505Y-11855674D01*
X20887505Y-11855674D02*
X20887505Y-11903293D01*
X20887505Y-11903293D02*
X20877982Y-11941388D01*
X20877982Y-11941388D02*
X20868458Y-11960436D01*
X20868458Y-11960436D02*
X20858934Y-11969960D01*
X20858934Y-11969960D02*
X20839886Y-11979484D01*
X20839886Y-11979484D02*
X20820839Y-11979484D01*
X20820839Y-11979484D02*
X20801791Y-11969960D01*
X20801791Y-11969960D02*
X20792267Y-11960436D01*
X20792267Y-11960436D02*
X20782744Y-11941388D01*
X20782744Y-11941388D02*
X20773220Y-11903293D01*
X20773220Y-11903293D02*
X20773220Y-11855674D01*
X20773220Y-11855674D02*
X20782744Y-11817579D01*
X20782744Y-11817579D02*
X20792267Y-11798531D01*
X20792267Y-11798531D02*
X20801791Y-11789008D01*
X20801791Y-11789008D02*
X20820839Y-11779484D01*
X20973220Y-11979484D02*
X20973220Y-11846150D01*
X20973220Y-11865198D02*
X20982744Y-11855674D01*
X20982744Y-11855674D02*
X21001791Y-11846150D01*
X21001791Y-11846150D02*
X21030363Y-11846150D01*
X21030363Y-11846150D02*
X21049410Y-11855674D01*
X21049410Y-11855674D02*
X21058934Y-11874722D01*
X21058934Y-11874722D02*
X21058934Y-11979484D01*
X21058934Y-11874722D02*
X21068458Y-11855674D01*
X21068458Y-11855674D02*
X21087505Y-11846150D01*
X21087505Y-11846150D02*
X21116077Y-11846150D01*
X21116077Y-11846150D02*
X21135125Y-11855674D01*
X21135125Y-11855674D02*
X21144648Y-11874722D01*
X21144648Y-11874722D02*
X21144648Y-11979484D01*
X21239886Y-11979484D02*
X21239886Y-11846150D01*
X21239886Y-11865198D02*
X21249410Y-11855674D01*
X21249410Y-11855674D02*
X21268458Y-11846150D01*
X21268458Y-11846150D02*
X21297029Y-11846150D01*
X21297029Y-11846150D02*
X21316077Y-11855674D01*
X21316077Y-11855674D02*
X21325601Y-11874722D01*
X21325601Y-11874722D02*
X21325601Y-11979484D01*
X21325601Y-11874722D02*
X21335125Y-11855674D01*
X21335125Y-11855674D02*
X21354172Y-11846150D01*
X21354172Y-11846150D02*
X21382744Y-11846150D01*
X21382744Y-11846150D02*
X21401791Y-11855674D01*
X21401791Y-11855674D02*
X21411315Y-11874722D01*
X21411315Y-11874722D02*
X21411315Y-11979484D01*
X21801791Y-11769960D02*
X21630363Y-12027103D01*
X22058934Y-11779484D02*
X22077982Y-11779484D01*
X22077982Y-11779484D02*
X22097029Y-11789008D01*
X22097029Y-11789008D02*
X22106553Y-11798531D01*
X22106553Y-11798531D02*
X22116077Y-11817579D01*
X22116077Y-11817579D02*
X22125601Y-11855674D01*
X22125601Y-11855674D02*
X22125601Y-11903293D01*
X22125601Y-11903293D02*
X22116077Y-11941388D01*
X22116077Y-11941388D02*
X22106553Y-11960436D01*
X22106553Y-11960436D02*
X22097029Y-11969960D01*
X22097029Y-11969960D02*
X22077982Y-11979484D01*
X22077982Y-11979484D02*
X22058934Y-11979484D01*
X22058934Y-11979484D02*
X22039887Y-11969960D01*
X22039887Y-11969960D02*
X22030363Y-11960436D01*
X22030363Y-11960436D02*
X22020839Y-11941388D01*
X22020839Y-11941388D02*
X22011315Y-11903293D01*
X22011315Y-11903293D02*
X22011315Y-11855674D01*
X22011315Y-11855674D02*
X22020839Y-11817579D01*
X22020839Y-11817579D02*
X22030363Y-11798531D01*
X22030363Y-11798531D02*
X22039887Y-11789008D01*
X22039887Y-11789008D02*
X22058934Y-11779484D01*
X22211315Y-11960436D02*
X22220839Y-11969960D01*
X22220839Y-11969960D02*
X22211315Y-11979484D01*
X22211315Y-11979484D02*
X22201791Y-11969960D01*
X22201791Y-11969960D02*
X22211315Y-11960436D01*
X22211315Y-11960436D02*
X22211315Y-11979484D01*
X22411315Y-11979484D02*
X22297029Y-11979484D01*
X22354172Y-11979484D02*
X22354172Y-11779484D01*
X22354172Y-11779484D02*
X22335125Y-11808055D01*
X22335125Y-11808055D02*
X22316077Y-11827103D01*
X22316077Y-11827103D02*
X22297029Y-11836627D01*
X22487506Y-11798531D02*
X22497029Y-11789008D01*
X22497029Y-11789008D02*
X22516077Y-11779484D01*
X22516077Y-11779484D02*
X22563696Y-11779484D01*
X22563696Y-11779484D02*
X22582744Y-11789008D01*
X22582744Y-11789008D02*
X22592267Y-11798531D01*
X22592267Y-11798531D02*
X22601791Y-11817579D01*
X22601791Y-11817579D02*
X22601791Y-11836627D01*
X22601791Y-11836627D02*
X22592267Y-11865198D01*
X22592267Y-11865198D02*
X22477982Y-11979484D01*
X22477982Y-11979484D02*
X22601791Y-11979484D01*
X22773220Y-11779484D02*
X22735125Y-11779484D01*
X22735125Y-11779484D02*
X22716077Y-11789008D01*
X22716077Y-11789008D02*
X22706553Y-11798531D01*
X22706553Y-11798531D02*
X22687506Y-11827103D01*
X22687506Y-11827103D02*
X22677982Y-11865198D01*
X22677982Y-11865198D02*
X22677982Y-11941388D01*
X22677982Y-11941388D02*
X22687506Y-11960436D01*
X22687506Y-11960436D02*
X22697029Y-11969960D01*
X22697029Y-11969960D02*
X22716077Y-11979484D01*
X22716077Y-11979484D02*
X22754172Y-11979484D01*
X22754172Y-11979484D02*
X22773220Y-11969960D01*
X22773220Y-11969960D02*
X22782744Y-11960436D01*
X22782744Y-11960436D02*
X22792267Y-11941388D01*
X22792267Y-11941388D02*
X22792267Y-11893769D01*
X22792267Y-11893769D02*
X22782744Y-11874722D01*
X22782744Y-11874722D02*
X22773220Y-11865198D01*
X22773220Y-11865198D02*
X22754172Y-11855674D01*
X22754172Y-11855674D02*
X22716077Y-11855674D01*
X22716077Y-11855674D02*
X22697029Y-11865198D01*
X22697029Y-11865198D02*
X22687506Y-11874722D01*
X22687506Y-11874722D02*
X22677982Y-11893769D01*
X22916077Y-11779484D02*
X22935125Y-11779484D01*
X22935125Y-11779484D02*
X22954172Y-11789008D01*
X22954172Y-11789008D02*
X22963696Y-11798531D01*
X22963696Y-11798531D02*
X22973220Y-11817579D01*
X22973220Y-11817579D02*
X22982744Y-11855674D01*
X22982744Y-11855674D02*
X22982744Y-11903293D01*
X22982744Y-11903293D02*
X22973220Y-11941388D01*
X22973220Y-11941388D02*
X22963696Y-11960436D01*
X22963696Y-11960436D02*
X22954172Y-11969960D01*
X22954172Y-11969960D02*
X22935125Y-11979484D01*
X22935125Y-11979484D02*
X22916077Y-11979484D01*
X22916077Y-11979484D02*
X22897029Y-11969960D01*
X22897029Y-11969960D02*
X22887506Y-11960436D01*
X22887506Y-11960436D02*
X22877982Y-11941388D01*
X22877982Y-11941388D02*
X22868458Y-11903293D01*
X22868458Y-11903293D02*
X22868458Y-11855674D01*
X22868458Y-11855674D02*
X22877982Y-11817579D01*
X22877982Y-11817579D02*
X22887506Y-11798531D01*
X22887506Y-11798531D02*
X22897029Y-11789008D01*
X22897029Y-11789008D02*
X22916077Y-11779484D01*
X23058934Y-11779484D02*
X23058934Y-11817579D01*
X23135125Y-11779484D02*
X23135125Y-11817579D01*
X23430363Y-12055674D02*
X23420839Y-12046150D01*
X23420839Y-12046150D02*
X23401791Y-12017579D01*
X23401791Y-12017579D02*
X23392268Y-11998531D01*
X23392268Y-11998531D02*
X23382744Y-11969960D01*
X23382744Y-11969960D02*
X23373220Y-11922341D01*
X23373220Y-11922341D02*
X23373220Y-11884246D01*
X23373220Y-11884246D02*
X23382744Y-11836627D01*
X23382744Y-11836627D02*
X23392268Y-11808055D01*
X23392268Y-11808055D02*
X23401791Y-11789008D01*
X23401791Y-11789008D02*
X23420839Y-11760436D01*
X23420839Y-11760436D02*
X23430363Y-11750912D01*
X23592268Y-11846150D02*
X23592268Y-11979484D01*
X23544648Y-11769960D02*
X23497029Y-11912817D01*
X23497029Y-11912817D02*
X23620839Y-11912817D01*
X23849410Y-11979484D02*
X23849410Y-11779484D01*
X23935125Y-11979484D02*
X23935125Y-11874722D01*
X23935125Y-11874722D02*
X23925601Y-11855674D01*
X23925601Y-11855674D02*
X23906553Y-11846150D01*
X23906553Y-11846150D02*
X23877982Y-11846150D01*
X23877982Y-11846150D02*
X23858934Y-11855674D01*
X23858934Y-11855674D02*
X23849410Y-11865198D01*
X24058934Y-11979484D02*
X24039887Y-11969960D01*
X24039887Y-11969960D02*
X24030363Y-11960436D01*
X24030363Y-11960436D02*
X24020839Y-11941388D01*
X24020839Y-11941388D02*
X24020839Y-11884246D01*
X24020839Y-11884246D02*
X24030363Y-11865198D01*
X24030363Y-11865198D02*
X24039887Y-11855674D01*
X24039887Y-11855674D02*
X24058934Y-11846150D01*
X24058934Y-11846150D02*
X24087506Y-11846150D01*
X24087506Y-11846150D02*
X24106553Y-11855674D01*
X24106553Y-11855674D02*
X24116077Y-11865198D01*
X24116077Y-11865198D02*
X24125601Y-11884246D01*
X24125601Y-11884246D02*
X24125601Y-11941388D01*
X24125601Y-11941388D02*
X24116077Y-11960436D01*
X24116077Y-11960436D02*
X24106553Y-11969960D01*
X24106553Y-11969960D02*
X24087506Y-11979484D01*
X24087506Y-11979484D02*
X24058934Y-11979484D01*
X24239887Y-11979484D02*
X24220839Y-11969960D01*
X24220839Y-11969960D02*
X24211315Y-11950912D01*
X24211315Y-11950912D02*
X24211315Y-11779484D01*
X24392268Y-11969960D02*
X24373220Y-11979484D01*
X24373220Y-11979484D02*
X24335125Y-11979484D01*
X24335125Y-11979484D02*
X24316077Y-11969960D01*
X24316077Y-11969960D02*
X24306553Y-11950912D01*
X24306553Y-11950912D02*
X24306553Y-11874722D01*
X24306553Y-11874722D02*
X24316077Y-11855674D01*
X24316077Y-11855674D02*
X24335125Y-11846150D01*
X24335125Y-11846150D02*
X24373220Y-11846150D01*
X24373220Y-11846150D02*
X24392268Y-11855674D01*
X24392268Y-11855674D02*
X24401791Y-11874722D01*
X24401791Y-11874722D02*
X24401791Y-11893769D01*
X24401791Y-11893769D02*
X24306553Y-11912817D01*
X24477982Y-11969960D02*
X24497030Y-11979484D01*
X24497030Y-11979484D02*
X24535125Y-11979484D01*
X24535125Y-11979484D02*
X24554172Y-11969960D01*
X24554172Y-11969960D02*
X24563696Y-11950912D01*
X24563696Y-11950912D02*
X24563696Y-11941388D01*
X24563696Y-11941388D02*
X24554172Y-11922341D01*
X24554172Y-11922341D02*
X24535125Y-11912817D01*
X24535125Y-11912817D02*
X24506553Y-11912817D01*
X24506553Y-11912817D02*
X24487506Y-11903293D01*
X24487506Y-11903293D02*
X24477982Y-11884246D01*
X24477982Y-11884246D02*
X24477982Y-11874722D01*
X24477982Y-11874722D02*
X24487506Y-11855674D01*
X24487506Y-11855674D02*
X24506553Y-11846150D01*
X24506553Y-11846150D02*
X24535125Y-11846150D01*
X24535125Y-11846150D02*
X24554172Y-11855674D01*
X24630363Y-12055674D02*
X24639887Y-12046150D01*
X24639887Y-12046150D02*
X24658934Y-12017579D01*
X24658934Y-12017579D02*
X24668458Y-11998531D01*
X24668458Y-11998531D02*
X24677982Y-11969960D01*
X24677982Y-11969960D02*
X24687506Y-11922341D01*
X24687506Y-11922341D02*
X24687506Y-11884246D01*
X24687506Y-11884246D02*
X24677982Y-11836627D01*
X24677982Y-11836627D02*
X24668458Y-11808055D01*
X24668458Y-11808055D02*
X24658934Y-11789008D01*
X24658934Y-11789008D02*
X24639887Y-11760436D01*
X24639887Y-11760436D02*
X24630363Y-11750912D01*
M02*
