G04 #@! TF.GenerationSoftware,KiCad,Pcbnew,7.0.10-7.0.10~ubuntu23.10.1*
G04 #@! TF.CreationDate,2024-03-11T19:26:55+01:00*
G04 #@! TF.ProjectId,peripherialModule,70657269-7068-4657-9269-616c4d6f6475,rev?*
G04 #@! TF.SameCoordinates,Original*
G04 #@! TF.FileFunction,Copper,L2,Inr*
G04 #@! TF.FilePolarity,Positive*
%FSLAX46Y46*%
G04 Gerber Fmt 4.6, Leading zero omitted, Abs format (unit mm)*
G04 Created by KiCad (PCBNEW 7.0.10-7.0.10~ubuntu23.10.1) date 2024-03-11 19:26:55*
%MOMM*%
%LPD*%
G01*
G04 APERTURE LIST*
G04 #@! TA.AperFunction,ComponentPad*
%ADD10R,1.700000X1.700000*%
G04 #@! TD*
G04 #@! TA.AperFunction,ComponentPad*
%ADD11O,1.700000X1.700000*%
G04 #@! TD*
G04 #@! TA.AperFunction,ComponentPad*
%ADD12R,1.500000X1.500000*%
G04 #@! TD*
G04 #@! TA.AperFunction,ComponentPad*
%ADD13C,1.500000*%
G04 #@! TD*
G04 #@! TA.AperFunction,ComponentPad*
%ADD14C,4.800000*%
G04 #@! TD*
G04 #@! TA.AperFunction,ViaPad*
%ADD15C,0.800000*%
G04 #@! TD*
G04 #@! TA.AperFunction,Conductor*
%ADD16C,0.500000*%
G04 #@! TD*
G04 #@! TA.AperFunction,Conductor*
%ADD17C,0.250000*%
G04 #@! TD*
G04 APERTURE END LIST*
D10*
X203200000Y-70000000D03*
D11*
X200660000Y-70000000D03*
X203200000Y-72540000D03*
X200660000Y-72540000D03*
X203200000Y-75080000D03*
X200660000Y-75080000D03*
X203200000Y-77620000D03*
X200660000Y-77620000D03*
X203200000Y-80160000D03*
X200660000Y-80160000D03*
X203200000Y-82700000D03*
X200660000Y-82700000D03*
X203200000Y-85240000D03*
X200660000Y-85240000D03*
X203200000Y-87780000D03*
X200660000Y-87780000D03*
X203200000Y-90320000D03*
X200660000Y-90320000D03*
X203200000Y-92860000D03*
X200660000Y-92860000D03*
X203200000Y-95400000D03*
X200660000Y-95400000D03*
D12*
X211509000Y-64770000D03*
D13*
X214281000Y-64770000D03*
X217054000Y-64770000D03*
X219826000Y-64770000D03*
X222599000Y-64770000D03*
X212895000Y-61930000D03*
X215668000Y-61930000D03*
X218440000Y-61930000D03*
X221213000Y-61930000D03*
D14*
X204559000Y-63350000D03*
X229549000Y-63350000D03*
D12*
X222599000Y-100330000D03*
D13*
X219827000Y-100330000D03*
X217054000Y-100330000D03*
X214282000Y-100330000D03*
X211509000Y-100330000D03*
X221213000Y-103170000D03*
X218440000Y-103170000D03*
X215668000Y-103170000D03*
X212895000Y-103170000D03*
D14*
X229549000Y-101750000D03*
X204559000Y-101750000D03*
D10*
X233680000Y-70000000D03*
D11*
X233680000Y-72540000D03*
X233680000Y-75080000D03*
X233680000Y-77620000D03*
X233680000Y-80160000D03*
D10*
X218440000Y-90297000D03*
D11*
X218440000Y-92837000D03*
X218440000Y-95377000D03*
D10*
X223520000Y-90297000D03*
D11*
X223520000Y-92837000D03*
X223520000Y-95377000D03*
D10*
X231140000Y-75080000D03*
D11*
X231140000Y-77620000D03*
X231140000Y-80160000D03*
D15*
X211416900Y-66308000D03*
X213360000Y-88900000D03*
X234137200Y-101041200D03*
X209042000Y-92202000D03*
X234442000Y-60858400D03*
X225132900Y-73293000D03*
X234391200Y-64922400D03*
X228053900Y-70245000D03*
X215575000Y-82494000D03*
X231851200Y-94234000D03*
X214274400Y-92811600D03*
X200406000Y-100939600D03*
X200406000Y-104648000D03*
X234137200Y-105054400D03*
X229971600Y-86512400D03*
X227076000Y-80645000D03*
X219684000Y-83794000D03*
X218592400Y-78282800D03*
X207365600Y-88341200D03*
X225044000Y-61468000D03*
X225044000Y-62484000D03*
X207365600Y-89204800D03*
X224790000Y-86360000D03*
X227076000Y-73914000D03*
X209693842Y-75835842D03*
X226656900Y-75071000D03*
X209092800Y-75234800D03*
X225298000Y-81788000D03*
X225298000Y-82804000D03*
X209550000Y-95504000D03*
X207010000Y-68529200D03*
X224028000Y-77063600D03*
X208330800Y-73964800D03*
X212471000Y-77851000D03*
X210491310Y-84888310D03*
X211198419Y-85595419D03*
X211890083Y-86397834D03*
X212584180Y-87117664D03*
X218440552Y-86985203D03*
X218435845Y-85985211D03*
X218478340Y-84985296D03*
X218437396Y-83986132D03*
X223888681Y-80694000D03*
X224586800Y-79969000D03*
X218186000Y-69088000D03*
X218186000Y-73406000D03*
X218186000Y-71374000D03*
D16*
X233680000Y-75080000D02*
X233680000Y-74803000D01*
D17*
X232156000Y-73556000D02*
X232156000Y-73533000D01*
D16*
X233680000Y-74803000D02*
X232433000Y-73556000D01*
X232433000Y-73556000D02*
X232156000Y-73556000D01*
G04 #@! TA.AperFunction,Conductor*
G36*
X202740507Y-69790156D02*
G01*
X202700000Y-69928111D01*
X202700000Y-70071889D01*
X202740507Y-70209844D01*
X202766314Y-70250000D01*
X201093686Y-70250000D01*
X201119493Y-70209844D01*
X201160000Y-70071889D01*
X201160000Y-69928111D01*
X201119493Y-69790156D01*
X201093686Y-69750000D01*
X202766314Y-69750000D01*
X202740507Y-69790156D01*
G37*
G04 #@! TD.AperFunction*
G04 #@! TA.AperFunction,Conductor*
G36*
X223770000Y-94941498D02*
G01*
X223662315Y-94892320D01*
X223555763Y-94877000D01*
X223484237Y-94877000D01*
X223377685Y-94892320D01*
X223270000Y-94941498D01*
X223270000Y-93272501D01*
X223377685Y-93321680D01*
X223484237Y-93337000D01*
X223555763Y-93337000D01*
X223662315Y-93321680D01*
X223770000Y-93272501D01*
X223770000Y-94941498D01*
G37*
G04 #@! TD.AperFunction*
G04 #@! TA.AperFunction,Conductor*
G36*
X223770000Y-92401498D02*
G01*
X223662315Y-92352320D01*
X223555763Y-92337000D01*
X223484237Y-92337000D01*
X223377685Y-92352320D01*
X223270000Y-92401498D01*
X223270000Y-90732501D01*
X223377685Y-90781680D01*
X223484237Y-90797000D01*
X223555763Y-90797000D01*
X223662315Y-90781680D01*
X223770000Y-90732501D01*
X223770000Y-92401498D01*
G37*
G04 #@! TD.AperFunction*
G04 #@! TA.AperFunction,Conductor*
G36*
X235401039Y-57296685D02*
G01*
X235446794Y-57349489D01*
X235458000Y-57401000D01*
X235458000Y-106937000D01*
X235438315Y-107004039D01*
X235385511Y-107049794D01*
X235334000Y-107061000D01*
X198879000Y-107061000D01*
X198811961Y-107041315D01*
X198766206Y-106988511D01*
X198755000Y-106937000D01*
X198755000Y-101750003D01*
X201653584Y-101750003D01*
X201673229Y-102087298D01*
X201673230Y-102087309D01*
X201731896Y-102420017D01*
X201731899Y-102420031D01*
X201828801Y-102743710D01*
X201962621Y-103053939D01*
X201962627Y-103053952D01*
X202131560Y-103346553D01*
X202333318Y-103617561D01*
X202333323Y-103617567D01*
X202453069Y-103744489D01*
X202565183Y-103863323D01*
X202565189Y-103863328D01*
X202565191Y-103863330D01*
X202824001Y-104080499D01*
X202824006Y-104080502D01*
X203106292Y-104266164D01*
X203408224Y-104417800D01*
X203725717Y-104533358D01*
X204054480Y-104611276D01*
X204390065Y-104650500D01*
X204390072Y-104650500D01*
X204727928Y-104650500D01*
X204727935Y-104650500D01*
X205063520Y-104611276D01*
X205392283Y-104533358D01*
X205709776Y-104417800D01*
X206011708Y-104266164D01*
X206293994Y-104080502D01*
X206552817Y-103863323D01*
X206784678Y-103617565D01*
X206986440Y-103346552D01*
X207088372Y-103170000D01*
X211640225Y-103170000D01*
X211659287Y-103387884D01*
X211659289Y-103387894D01*
X211715894Y-103599150D01*
X211715898Y-103599159D01*
X211808333Y-103797387D01*
X211851874Y-103859571D01*
X212411922Y-103299523D01*
X212435507Y-103379844D01*
X212513239Y-103500798D01*
X212621900Y-103594952D01*
X212752685Y-103654680D01*
X212762466Y-103656086D01*
X212205427Y-104213124D01*
X212267612Y-104256666D01*
X212465840Y-104349101D01*
X212465849Y-104349105D01*
X212677105Y-104405710D01*
X212677115Y-104405712D01*
X212894999Y-104424775D01*
X212895001Y-104424775D01*
X213112884Y-104405712D01*
X213112894Y-104405710D01*
X213324150Y-104349105D01*
X213324164Y-104349100D01*
X213522383Y-104256669D01*
X213522385Y-104256668D01*
X213584571Y-104213124D01*
X213027534Y-103656086D01*
X213037315Y-103654680D01*
X213168100Y-103594952D01*
X213276761Y-103500798D01*
X213354493Y-103379844D01*
X213378076Y-103299523D01*
X213938124Y-103859570D01*
X213981668Y-103797385D01*
X213981669Y-103797383D01*
X214074100Y-103599164D01*
X214074105Y-103599150D01*
X214130710Y-103387894D01*
X214130712Y-103387884D01*
X214149775Y-103170000D01*
X214412723Y-103170000D01*
X214431081Y-103379844D01*
X214431793Y-103387975D01*
X214431793Y-103387979D01*
X214488422Y-103599322D01*
X214488424Y-103599326D01*
X214488425Y-103599330D01*
X214496929Y-103617567D01*
X214580897Y-103797638D01*
X214580898Y-103797639D01*
X214706402Y-103976877D01*
X214861123Y-104131598D01*
X215040361Y-104257102D01*
X215238670Y-104349575D01*
X215450023Y-104406207D01*
X215632926Y-104422208D01*
X215667998Y-104425277D01*
X215668000Y-104425277D01*
X215668002Y-104425277D01*
X215696254Y-104422805D01*
X215885977Y-104406207D01*
X216097330Y-104349575D01*
X216295639Y-104257102D01*
X216474877Y-104131598D01*
X216629598Y-103976877D01*
X216755102Y-103797639D01*
X216847575Y-103599330D01*
X216904207Y-103387977D01*
X216923277Y-103170000D01*
X217184723Y-103170000D01*
X217203081Y-103379844D01*
X217203793Y-103387975D01*
X217203793Y-103387979D01*
X217260422Y-103599322D01*
X217260424Y-103599326D01*
X217260425Y-103599330D01*
X217268929Y-103617567D01*
X217352897Y-103797638D01*
X217352898Y-103797639D01*
X217478402Y-103976877D01*
X217633123Y-104131598D01*
X217812361Y-104257102D01*
X218010670Y-104349575D01*
X218222023Y-104406207D01*
X218404926Y-104422208D01*
X218439998Y-104425277D01*
X218440000Y-104425277D01*
X218440002Y-104425277D01*
X218468254Y-104422805D01*
X218657977Y-104406207D01*
X218869330Y-104349575D01*
X219067639Y-104257102D01*
X219246877Y-104131598D01*
X219401598Y-103976877D01*
X219527102Y-103797639D01*
X219619575Y-103599330D01*
X219676207Y-103387977D01*
X219695277Y-103170000D01*
X219958225Y-103170000D01*
X219977287Y-103387884D01*
X219977289Y-103387894D01*
X220033894Y-103599150D01*
X220033898Y-103599159D01*
X220126333Y-103797387D01*
X220169874Y-103859571D01*
X220729922Y-103299523D01*
X220753507Y-103379844D01*
X220831239Y-103500798D01*
X220939900Y-103594952D01*
X221070685Y-103654680D01*
X221080466Y-103656086D01*
X220523427Y-104213124D01*
X220585612Y-104256666D01*
X220783840Y-104349101D01*
X220783849Y-104349105D01*
X220995105Y-104405710D01*
X220995115Y-104405712D01*
X221212999Y-104424775D01*
X221213001Y-104424775D01*
X221430884Y-104405712D01*
X221430894Y-104405710D01*
X221642150Y-104349105D01*
X221642164Y-104349100D01*
X221840383Y-104256669D01*
X221840385Y-104256668D01*
X221902571Y-104213124D01*
X221345534Y-103656086D01*
X221355315Y-103654680D01*
X221486100Y-103594952D01*
X221594761Y-103500798D01*
X221672493Y-103379844D01*
X221696076Y-103299523D01*
X222256124Y-103859570D01*
X222299668Y-103797385D01*
X222299669Y-103797383D01*
X222392100Y-103599164D01*
X222392105Y-103599150D01*
X222448710Y-103387894D01*
X222448712Y-103387884D01*
X222467775Y-103170000D01*
X222467775Y-103169999D01*
X222448712Y-102952115D01*
X222448710Y-102952105D01*
X222392105Y-102740849D01*
X222392101Y-102740840D01*
X222299667Y-102542614D01*
X222299666Y-102542612D01*
X222256124Y-102480428D01*
X222256124Y-102480427D01*
X221696076Y-103040475D01*
X221672493Y-102960156D01*
X221594761Y-102839202D01*
X221486100Y-102745048D01*
X221355315Y-102685320D01*
X221345533Y-102683913D01*
X221902571Y-102126874D01*
X221840387Y-102083333D01*
X221642159Y-101990898D01*
X221642150Y-101990894D01*
X221430894Y-101934289D01*
X221430884Y-101934287D01*
X221213001Y-101915225D01*
X221212999Y-101915225D01*
X220995115Y-101934287D01*
X220995105Y-101934289D01*
X220783849Y-101990894D01*
X220783840Y-101990898D01*
X220585613Y-102083333D01*
X220523428Y-102126874D01*
X221080467Y-102683913D01*
X221070685Y-102685320D01*
X220939900Y-102745048D01*
X220831239Y-102839202D01*
X220753507Y-102960156D01*
X220729923Y-103040476D01*
X220169874Y-102480428D01*
X220126333Y-102542613D01*
X220033898Y-102740840D01*
X220033894Y-102740849D01*
X219977289Y-102952105D01*
X219977287Y-102952115D01*
X219958225Y-103169999D01*
X219958225Y-103170000D01*
X219695277Y-103170000D01*
X219676207Y-102952023D01*
X219619575Y-102740670D01*
X219527102Y-102542362D01*
X219527100Y-102542359D01*
X219527099Y-102542357D01*
X219401599Y-102363124D01*
X219401596Y-102363121D01*
X219246877Y-102208402D01*
X219073923Y-102087298D01*
X219067638Y-102082897D01*
X218968484Y-102036661D01*
X218869330Y-101990425D01*
X218869326Y-101990424D01*
X218869322Y-101990422D01*
X218657977Y-101933793D01*
X218440002Y-101914723D01*
X218439998Y-101914723D01*
X218294682Y-101927436D01*
X218222023Y-101933793D01*
X218222020Y-101933793D01*
X218010677Y-101990422D01*
X218010668Y-101990426D01*
X217812361Y-102082898D01*
X217812357Y-102082900D01*
X217633121Y-102208402D01*
X217478402Y-102363121D01*
X217352900Y-102542357D01*
X217352898Y-102542361D01*
X217260426Y-102740668D01*
X217260422Y-102740677D01*
X217203793Y-102952020D01*
X217203793Y-102952023D01*
X217184723Y-103170000D01*
X216923277Y-103170000D01*
X216904207Y-102952023D01*
X216847575Y-102740670D01*
X216755102Y-102542362D01*
X216755100Y-102542359D01*
X216755099Y-102542357D01*
X216629599Y-102363124D01*
X216629596Y-102363121D01*
X216474877Y-102208402D01*
X216301923Y-102087298D01*
X216295638Y-102082897D01*
X216196484Y-102036661D01*
X216097330Y-101990425D01*
X216097326Y-101990424D01*
X216097322Y-101990422D01*
X215885977Y-101933793D01*
X215668002Y-101914723D01*
X215667998Y-101914723D01*
X215522682Y-101927436D01*
X215450023Y-101933793D01*
X215450020Y-101933793D01*
X215238677Y-101990422D01*
X215238668Y-101990426D01*
X215040361Y-102082898D01*
X215040357Y-102082900D01*
X214861121Y-102208402D01*
X214706402Y-102363121D01*
X214580900Y-102542357D01*
X214580898Y-102542361D01*
X214488426Y-102740668D01*
X214488422Y-102740677D01*
X214431793Y-102952020D01*
X214431793Y-102952023D01*
X214412723Y-103170000D01*
X214149775Y-103170000D01*
X214149775Y-103169999D01*
X214130712Y-102952115D01*
X214130710Y-102952105D01*
X214074105Y-102740849D01*
X214074101Y-102740840D01*
X213981667Y-102542614D01*
X213981666Y-102542612D01*
X213938124Y-102480428D01*
X213938124Y-102480427D01*
X213378076Y-103040475D01*
X213354493Y-102960156D01*
X213276761Y-102839202D01*
X213168100Y-102745048D01*
X213037315Y-102685320D01*
X213027533Y-102683913D01*
X213584571Y-102126874D01*
X213522387Y-102083333D01*
X213324159Y-101990898D01*
X213324150Y-101990894D01*
X213112894Y-101934289D01*
X213112884Y-101934287D01*
X212895001Y-101915225D01*
X212894999Y-101915225D01*
X212677115Y-101934287D01*
X212677105Y-101934289D01*
X212465849Y-101990894D01*
X212465840Y-101990898D01*
X212267613Y-102083333D01*
X212205428Y-102126874D01*
X212762467Y-102683913D01*
X212752685Y-102685320D01*
X212621900Y-102745048D01*
X212513239Y-102839202D01*
X212435507Y-102960156D01*
X212411922Y-103040476D01*
X211851874Y-102480428D01*
X211808333Y-102542613D01*
X211715898Y-102740840D01*
X211715894Y-102740849D01*
X211659289Y-102952105D01*
X211659287Y-102952115D01*
X211640225Y-103169999D01*
X211640225Y-103170000D01*
X207088372Y-103170000D01*
X207155375Y-103053948D01*
X207289198Y-102743711D01*
X207386100Y-102420035D01*
X207444771Y-102087298D01*
X207464416Y-101750003D01*
X226643584Y-101750003D01*
X226663229Y-102087298D01*
X226663230Y-102087309D01*
X226721896Y-102420017D01*
X226721899Y-102420031D01*
X226818801Y-102743710D01*
X226952621Y-103053939D01*
X226952627Y-103053952D01*
X227121560Y-103346553D01*
X227323318Y-103617561D01*
X227323323Y-103617567D01*
X227443069Y-103744489D01*
X227555183Y-103863323D01*
X227555189Y-103863328D01*
X227555191Y-103863330D01*
X227814001Y-104080499D01*
X227814006Y-104080502D01*
X228096292Y-104266164D01*
X228398224Y-104417800D01*
X228715717Y-104533358D01*
X229044480Y-104611276D01*
X229380065Y-104650500D01*
X229380072Y-104650500D01*
X229717928Y-104650500D01*
X229717935Y-104650500D01*
X230053520Y-104611276D01*
X230382283Y-104533358D01*
X230699776Y-104417800D01*
X231001708Y-104266164D01*
X231283994Y-104080502D01*
X231542817Y-103863323D01*
X231774678Y-103617565D01*
X231976440Y-103346552D01*
X232145375Y-103053948D01*
X232279198Y-102743711D01*
X232376100Y-102420035D01*
X232434771Y-102087298D01*
X232454416Y-101750000D01*
X232434771Y-101412702D01*
X232376100Y-101079965D01*
X232279198Y-100756289D01*
X232145375Y-100446052D01*
X231976440Y-100153448D01*
X231976439Y-100153446D01*
X231774681Y-99882438D01*
X231774676Y-99882432D01*
X231605024Y-99702613D01*
X231542817Y-99636677D01*
X231542810Y-99636671D01*
X231542808Y-99636669D01*
X231283998Y-99419500D01*
X231142851Y-99326667D01*
X231001708Y-99233836D01*
X230979757Y-99222812D01*
X230699783Y-99082203D01*
X230699777Y-99082200D01*
X230382284Y-98966642D01*
X230382281Y-98966641D01*
X230155639Y-98912926D01*
X230053520Y-98888724D01*
X229717935Y-98849500D01*
X229380065Y-98849500D01*
X229044480Y-98888724D01*
X228715718Y-98966641D01*
X228715715Y-98966642D01*
X228398222Y-99082200D01*
X228398216Y-99082203D01*
X228096295Y-99233834D01*
X227814001Y-99419500D01*
X227555191Y-99636669D01*
X227555181Y-99636679D01*
X227323323Y-99882432D01*
X227323318Y-99882438D01*
X227121560Y-100153446D01*
X226952627Y-100446047D01*
X226952621Y-100446060D01*
X226818801Y-100756289D01*
X226721899Y-101079968D01*
X226721896Y-101079982D01*
X226663230Y-101412690D01*
X226663229Y-101412701D01*
X226643584Y-101749996D01*
X226643584Y-101750003D01*
X207464416Y-101750003D01*
X207464416Y-101750000D01*
X207444771Y-101412702D01*
X207386100Y-101079965D01*
X207289198Y-100756289D01*
X207155375Y-100446052D01*
X207088372Y-100330000D01*
X210254225Y-100330000D01*
X210273287Y-100547884D01*
X210273289Y-100547894D01*
X210329894Y-100759150D01*
X210329898Y-100759159D01*
X210422333Y-100957387D01*
X210465874Y-101019571D01*
X211025922Y-100459523D01*
X211049507Y-100539844D01*
X211127239Y-100660798D01*
X211235900Y-100754952D01*
X211366685Y-100814680D01*
X211376466Y-100816086D01*
X210819427Y-101373124D01*
X210881612Y-101416666D01*
X211079840Y-101509101D01*
X211079849Y-101509105D01*
X211291105Y-101565710D01*
X211291115Y-101565712D01*
X211508999Y-101584775D01*
X211509001Y-101584775D01*
X211726884Y-101565712D01*
X211726894Y-101565710D01*
X211938150Y-101509105D01*
X211938164Y-101509100D01*
X212136383Y-101416669D01*
X212136385Y-101416668D01*
X212198571Y-101373124D01*
X211641534Y-100816086D01*
X211651315Y-100814680D01*
X211782100Y-100754952D01*
X211890761Y-100660798D01*
X211968493Y-100539844D01*
X211992076Y-100459523D01*
X212552124Y-101019570D01*
X212595668Y-100957385D01*
X212595669Y-100957383D01*
X212688100Y-100759164D01*
X212688105Y-100759150D01*
X212744710Y-100547894D01*
X212744712Y-100547884D01*
X212763775Y-100330000D01*
X213026723Y-100330000D01*
X213045081Y-100539844D01*
X213045793Y-100547975D01*
X213045793Y-100547979D01*
X213102422Y-100759322D01*
X213102424Y-100759326D01*
X213102425Y-100759330D01*
X213128235Y-100814680D01*
X213194897Y-100957638D01*
X213194898Y-100957639D01*
X213320402Y-101136877D01*
X213475123Y-101291598D01*
X213654361Y-101417102D01*
X213852670Y-101509575D01*
X214064023Y-101566207D01*
X214246926Y-101582208D01*
X214281998Y-101585277D01*
X214282000Y-101585277D01*
X214282002Y-101585277D01*
X214310254Y-101582805D01*
X214499977Y-101566207D01*
X214711330Y-101509575D01*
X214909639Y-101417102D01*
X215088877Y-101291598D01*
X215243598Y-101136877D01*
X215369102Y-100957639D01*
X215461575Y-100759330D01*
X215518207Y-100547977D01*
X215537277Y-100330000D01*
X215798723Y-100330000D01*
X215817081Y-100539844D01*
X215817793Y-100547975D01*
X215817793Y-100547979D01*
X215874422Y-100759322D01*
X215874424Y-100759326D01*
X215874425Y-100759330D01*
X215900235Y-100814680D01*
X215966897Y-100957638D01*
X215966898Y-100957639D01*
X216092402Y-101136877D01*
X216247123Y-101291598D01*
X216426361Y-101417102D01*
X216624670Y-101509575D01*
X216836023Y-101566207D01*
X217018926Y-101582208D01*
X217053998Y-101585277D01*
X217054000Y-101585277D01*
X217054002Y-101585277D01*
X217082254Y-101582805D01*
X217271977Y-101566207D01*
X217483330Y-101509575D01*
X217681639Y-101417102D01*
X217860877Y-101291598D01*
X218015598Y-101136877D01*
X218141102Y-100957639D01*
X218233575Y-100759330D01*
X218290207Y-100547977D01*
X218309277Y-100330000D01*
X218571723Y-100330000D01*
X218590081Y-100539844D01*
X218590793Y-100547975D01*
X218590793Y-100547979D01*
X218647422Y-100759322D01*
X218647424Y-100759326D01*
X218647425Y-100759330D01*
X218673235Y-100814680D01*
X218739897Y-100957638D01*
X218739898Y-100957639D01*
X218865402Y-101136877D01*
X219020123Y-101291598D01*
X219199361Y-101417102D01*
X219397670Y-101509575D01*
X219609023Y-101566207D01*
X219791926Y-101582208D01*
X219826998Y-101585277D01*
X219827000Y-101585277D01*
X219827002Y-101585277D01*
X219855254Y-101582805D01*
X220044977Y-101566207D01*
X220256330Y-101509575D01*
X220454639Y-101417102D01*
X220633877Y-101291598D01*
X220788598Y-101136877D01*
X220794923Y-101127844D01*
X221349000Y-101127844D01*
X221355401Y-101187372D01*
X221355403Y-101187379D01*
X221405645Y-101322086D01*
X221405649Y-101322093D01*
X221491809Y-101437187D01*
X221491812Y-101437190D01*
X221606906Y-101523350D01*
X221606913Y-101523354D01*
X221741620Y-101573596D01*
X221741627Y-101573598D01*
X221801155Y-101579999D01*
X221801172Y-101580000D01*
X222349000Y-101580000D01*
X222349000Y-100765501D01*
X222456685Y-100814680D01*
X222563237Y-100830000D01*
X222634763Y-100830000D01*
X222741315Y-100814680D01*
X222849000Y-100765501D01*
X222849000Y-101580000D01*
X223396828Y-101580000D01*
X223396844Y-101579999D01*
X223456372Y-101573598D01*
X223456379Y-101573596D01*
X223591086Y-101523354D01*
X223591093Y-101523350D01*
X223706187Y-101437190D01*
X223706190Y-101437187D01*
X223792350Y-101322093D01*
X223792354Y-101322086D01*
X223842596Y-101187379D01*
X223842598Y-101187372D01*
X223848999Y-101127844D01*
X223849000Y-101127827D01*
X223849000Y-100580000D01*
X223032686Y-100580000D01*
X223058493Y-100539844D01*
X223099000Y-100401889D01*
X223099000Y-100258111D01*
X223058493Y-100120156D01*
X223032686Y-100080000D01*
X223849000Y-100080000D01*
X223849000Y-99532172D01*
X223848999Y-99532155D01*
X223842598Y-99472627D01*
X223842596Y-99472620D01*
X223792354Y-99337913D01*
X223792350Y-99337906D01*
X223706190Y-99222812D01*
X223706187Y-99222809D01*
X223591093Y-99136649D01*
X223591086Y-99136645D01*
X223456379Y-99086403D01*
X223456372Y-99086401D01*
X223396844Y-99080000D01*
X222849000Y-99080000D01*
X222849000Y-99894498D01*
X222741315Y-99845320D01*
X222634763Y-99830000D01*
X222563237Y-99830000D01*
X222456685Y-99845320D01*
X222349000Y-99894498D01*
X222349000Y-99080000D01*
X221801155Y-99080000D01*
X221741627Y-99086401D01*
X221741620Y-99086403D01*
X221606913Y-99136645D01*
X221606906Y-99136649D01*
X221491812Y-99222809D01*
X221491809Y-99222812D01*
X221405649Y-99337906D01*
X221405645Y-99337913D01*
X221355403Y-99472620D01*
X221355401Y-99472627D01*
X221349000Y-99532155D01*
X221349000Y-100080000D01*
X222165314Y-100080000D01*
X222139507Y-100120156D01*
X222099000Y-100258111D01*
X222099000Y-100401889D01*
X222139507Y-100539844D01*
X222165314Y-100580000D01*
X221349000Y-100580000D01*
X221349000Y-101127844D01*
X220794923Y-101127844D01*
X220914102Y-100957639D01*
X221006575Y-100759330D01*
X221063207Y-100547977D01*
X221082277Y-100330000D01*
X221063207Y-100112023D01*
X221006575Y-99900670D01*
X220914102Y-99702362D01*
X220914100Y-99702359D01*
X220914099Y-99702357D01*
X220788599Y-99523124D01*
X220738095Y-99472620D01*
X220633877Y-99368402D01*
X220495978Y-99271844D01*
X220454638Y-99242897D01*
X220355484Y-99196661D01*
X220256330Y-99150425D01*
X220256326Y-99150424D01*
X220256322Y-99150422D01*
X220044977Y-99093793D01*
X219827002Y-99074723D01*
X219826998Y-99074723D01*
X219693516Y-99086401D01*
X219609023Y-99093793D01*
X219609020Y-99093793D01*
X219397677Y-99150422D01*
X219397668Y-99150426D01*
X219199361Y-99242898D01*
X219199357Y-99242900D01*
X219020121Y-99368402D01*
X218865402Y-99523121D01*
X218739900Y-99702357D01*
X218739898Y-99702361D01*
X218647426Y-99900668D01*
X218647422Y-99900677D01*
X218590793Y-100112020D01*
X218590793Y-100112023D01*
X218571723Y-100330000D01*
X218309277Y-100330000D01*
X218290207Y-100112023D01*
X218233575Y-99900670D01*
X218141102Y-99702362D01*
X218141100Y-99702359D01*
X218141099Y-99702357D01*
X218015599Y-99523124D01*
X217965095Y-99472620D01*
X217860877Y-99368402D01*
X217722978Y-99271844D01*
X217681638Y-99242897D01*
X217582484Y-99196661D01*
X217483330Y-99150425D01*
X217483326Y-99150424D01*
X217483322Y-99150422D01*
X217271977Y-99093793D01*
X217054002Y-99074723D01*
X217053998Y-99074723D01*
X216920516Y-99086401D01*
X216836023Y-99093793D01*
X216836020Y-99093793D01*
X216624677Y-99150422D01*
X216624668Y-99150426D01*
X216426361Y-99242898D01*
X216426357Y-99242900D01*
X216247121Y-99368402D01*
X216092402Y-99523121D01*
X215966900Y-99702357D01*
X215966898Y-99702361D01*
X215874426Y-99900668D01*
X215874422Y-99900677D01*
X215817793Y-100112020D01*
X215817793Y-100112023D01*
X215798723Y-100330000D01*
X215537277Y-100330000D01*
X215518207Y-100112023D01*
X215461575Y-99900670D01*
X215369102Y-99702362D01*
X215369100Y-99702359D01*
X215369099Y-99702357D01*
X215243599Y-99523124D01*
X215193095Y-99472620D01*
X215088877Y-99368402D01*
X214950978Y-99271844D01*
X214909638Y-99242897D01*
X214810484Y-99196661D01*
X214711330Y-99150425D01*
X214711326Y-99150424D01*
X214711322Y-99150422D01*
X214499977Y-99093793D01*
X214282002Y-99074723D01*
X214281998Y-99074723D01*
X214148516Y-99086401D01*
X214064023Y-99093793D01*
X214064020Y-99093793D01*
X213852677Y-99150422D01*
X213852668Y-99150426D01*
X213654361Y-99242898D01*
X213654357Y-99242900D01*
X213475121Y-99368402D01*
X213320402Y-99523121D01*
X213194900Y-99702357D01*
X213194898Y-99702361D01*
X213102426Y-99900668D01*
X213102422Y-99900677D01*
X213045793Y-100112020D01*
X213045793Y-100112023D01*
X213026723Y-100330000D01*
X212763775Y-100330000D01*
X212763775Y-100329999D01*
X212744712Y-100112115D01*
X212744710Y-100112105D01*
X212688105Y-99900849D01*
X212688101Y-99900840D01*
X212595667Y-99702614D01*
X212595666Y-99702612D01*
X212552124Y-99640428D01*
X212552124Y-99640427D01*
X211992076Y-100200475D01*
X211968493Y-100120156D01*
X211890761Y-99999202D01*
X211782100Y-99905048D01*
X211651315Y-99845320D01*
X211641533Y-99843913D01*
X212198571Y-99286874D01*
X212136387Y-99243333D01*
X211938159Y-99150898D01*
X211938150Y-99150894D01*
X211726894Y-99094289D01*
X211726884Y-99094287D01*
X211509001Y-99075225D01*
X211508999Y-99075225D01*
X211291115Y-99094287D01*
X211291105Y-99094289D01*
X211079849Y-99150894D01*
X211079840Y-99150898D01*
X210881613Y-99243333D01*
X210819428Y-99286874D01*
X211376467Y-99843913D01*
X211366685Y-99845320D01*
X211235900Y-99905048D01*
X211127239Y-99999202D01*
X211049507Y-100120156D01*
X211025922Y-100200476D01*
X210465874Y-99640428D01*
X210422333Y-99702613D01*
X210329898Y-99900840D01*
X210329894Y-99900849D01*
X210273289Y-100112105D01*
X210273287Y-100112115D01*
X210254225Y-100329999D01*
X210254225Y-100330000D01*
X207088372Y-100330000D01*
X206986440Y-100153448D01*
X206986439Y-100153446D01*
X206784681Y-99882438D01*
X206784676Y-99882432D01*
X206615024Y-99702613D01*
X206552817Y-99636677D01*
X206552810Y-99636671D01*
X206552808Y-99636669D01*
X206293998Y-99419500D01*
X206152851Y-99326667D01*
X206011708Y-99233836D01*
X205989757Y-99222812D01*
X205709783Y-99082203D01*
X205709777Y-99082200D01*
X205392284Y-98966642D01*
X205392281Y-98966641D01*
X205165639Y-98912926D01*
X205063520Y-98888724D01*
X204727935Y-98849500D01*
X204390065Y-98849500D01*
X204054480Y-98888724D01*
X203725718Y-98966641D01*
X203725715Y-98966642D01*
X203408222Y-99082200D01*
X203408216Y-99082203D01*
X203106295Y-99233834D01*
X202824001Y-99419500D01*
X202565191Y-99636669D01*
X202565181Y-99636679D01*
X202333323Y-99882432D01*
X202333318Y-99882438D01*
X202131560Y-100153446D01*
X201962627Y-100446047D01*
X201962621Y-100446060D01*
X201828801Y-100756289D01*
X201731899Y-101079968D01*
X201731896Y-101079982D01*
X201673230Y-101412690D01*
X201673229Y-101412701D01*
X201653584Y-101749996D01*
X201653584Y-101750003D01*
X198755000Y-101750003D01*
X198755000Y-95400000D01*
X199304341Y-95400000D01*
X199324936Y-95635403D01*
X199324938Y-95635413D01*
X199386094Y-95863655D01*
X199386096Y-95863659D01*
X199386097Y-95863663D01*
X199466004Y-96035023D01*
X199485965Y-96077830D01*
X199485967Y-96077834D01*
X199555326Y-96176888D01*
X199621505Y-96271401D01*
X199788599Y-96438495D01*
X199885384Y-96506265D01*
X199982165Y-96574032D01*
X199982167Y-96574033D01*
X199982170Y-96574035D01*
X200196337Y-96673903D01*
X200424592Y-96735063D01*
X200612918Y-96751539D01*
X200659999Y-96755659D01*
X200660000Y-96755659D01*
X200660001Y-96755659D01*
X200699234Y-96752226D01*
X200895408Y-96735063D01*
X201123663Y-96673903D01*
X201337830Y-96574035D01*
X201531401Y-96438495D01*
X201698495Y-96271401D01*
X201828425Y-96085842D01*
X201883002Y-96042217D01*
X201952500Y-96035023D01*
X202014855Y-96066546D01*
X202031575Y-96085842D01*
X202161500Y-96271395D01*
X202161505Y-96271401D01*
X202328599Y-96438495D01*
X202425384Y-96506265D01*
X202522165Y-96574032D01*
X202522167Y-96574033D01*
X202522170Y-96574035D01*
X202736337Y-96673903D01*
X202964592Y-96735063D01*
X203152918Y-96751539D01*
X203199999Y-96755659D01*
X203200000Y-96755659D01*
X203200001Y-96755659D01*
X203239234Y-96752226D01*
X203435408Y-96735063D01*
X203663663Y-96673903D01*
X203877830Y-96574035D01*
X204071401Y-96438495D01*
X204238495Y-96271401D01*
X204374035Y-96077830D01*
X204473903Y-95863663D01*
X204535063Y-95635408D01*
X204546560Y-95504000D01*
X208644540Y-95504000D01*
X208664326Y-95692256D01*
X208664327Y-95692259D01*
X208722818Y-95872277D01*
X208722821Y-95872284D01*
X208817467Y-96036216D01*
X208862151Y-96085842D01*
X208944129Y-96176888D01*
X209097265Y-96288148D01*
X209097270Y-96288151D01*
X209270192Y-96365142D01*
X209270197Y-96365144D01*
X209455354Y-96404500D01*
X209455355Y-96404500D01*
X209644644Y-96404500D01*
X209644646Y-96404500D01*
X209829803Y-96365144D01*
X210002730Y-96288151D01*
X210155871Y-96176888D01*
X210282533Y-96036216D01*
X210377179Y-95872284D01*
X210435674Y-95692256D01*
X210455460Y-95504000D01*
X210442112Y-95377000D01*
X217084341Y-95377000D01*
X217104936Y-95612403D01*
X217104938Y-95612413D01*
X217166094Y-95840655D01*
X217166096Y-95840659D01*
X217166097Y-95840663D01*
X217256729Y-96035023D01*
X217265965Y-96054830D01*
X217265967Y-96054834D01*
X217351431Y-96176888D01*
X217401505Y-96248401D01*
X217568599Y-96415495D01*
X217601451Y-96438498D01*
X217762165Y-96551032D01*
X217762167Y-96551033D01*
X217762170Y-96551035D01*
X217976337Y-96650903D01*
X218204592Y-96712063D01*
X218392918Y-96728539D01*
X218439999Y-96732659D01*
X218440000Y-96732659D01*
X218440001Y-96732659D01*
X218479234Y-96729226D01*
X218675408Y-96712063D01*
X218903663Y-96650903D01*
X219117830Y-96551035D01*
X219311401Y-96415495D01*
X219478495Y-96248401D01*
X219614035Y-96054830D01*
X219713903Y-95840663D01*
X219775063Y-95612408D01*
X219795659Y-95377000D01*
X219775063Y-95141592D01*
X219713903Y-94913337D01*
X219614035Y-94699171D01*
X219574603Y-94642855D01*
X219478494Y-94505597D01*
X219311402Y-94338506D01*
X219311396Y-94338501D01*
X219125842Y-94208575D01*
X219082217Y-94153998D01*
X219075023Y-94084500D01*
X219106546Y-94022145D01*
X219125842Y-94005425D01*
X219278549Y-93898498D01*
X219311401Y-93875495D01*
X219478495Y-93708401D01*
X219614035Y-93514830D01*
X219713903Y-93300663D01*
X219775063Y-93072408D01*
X219795659Y-92837000D01*
X219775063Y-92601592D01*
X219713903Y-92373337D01*
X219614035Y-92159171D01*
X219494598Y-91988597D01*
X219478496Y-91965600D01*
X219478495Y-91965599D01*
X219356567Y-91843671D01*
X219323084Y-91782351D01*
X219328068Y-91712659D01*
X219369939Y-91656725D01*
X219400915Y-91639810D01*
X219532331Y-91590796D01*
X219647546Y-91504546D01*
X219733796Y-91389331D01*
X219784091Y-91254483D01*
X219790500Y-91194873D01*
X219790500Y-91194844D01*
X222170000Y-91194844D01*
X222176401Y-91254372D01*
X222176403Y-91254379D01*
X222226645Y-91389086D01*
X222226649Y-91389093D01*
X222312809Y-91504187D01*
X222312812Y-91504190D01*
X222427906Y-91590350D01*
X222427913Y-91590354D01*
X222559986Y-91639614D01*
X222615920Y-91681485D01*
X222640337Y-91746949D01*
X222625486Y-91815222D01*
X222604335Y-91843477D01*
X222481886Y-91965926D01*
X222346400Y-92159420D01*
X222346399Y-92159422D01*
X222246570Y-92373507D01*
X222246567Y-92373513D01*
X222189364Y-92586999D01*
X222189364Y-92587000D01*
X223086314Y-92587000D01*
X223060507Y-92627156D01*
X223020000Y-92765111D01*
X223020000Y-92908889D01*
X223060507Y-93046844D01*
X223086314Y-93087000D01*
X222189364Y-93087000D01*
X222246567Y-93300486D01*
X222246570Y-93300492D01*
X222346399Y-93514578D01*
X222481894Y-93708082D01*
X222648917Y-93875105D01*
X222835031Y-94005425D01*
X222878656Y-94060003D01*
X222885848Y-94129501D01*
X222854326Y-94191856D01*
X222835031Y-94208575D01*
X222648922Y-94338890D01*
X222648920Y-94338891D01*
X222481891Y-94505920D01*
X222481886Y-94505926D01*
X222346400Y-94699420D01*
X222346399Y-94699422D01*
X222246570Y-94913507D01*
X222246567Y-94913513D01*
X222189364Y-95126999D01*
X222189364Y-95127000D01*
X223086314Y-95127000D01*
X223060507Y-95167156D01*
X223020000Y-95305111D01*
X223020000Y-95448889D01*
X223060507Y-95586844D01*
X223086314Y-95627000D01*
X222189364Y-95627000D01*
X222246567Y-95840486D01*
X222246570Y-95840492D01*
X222346399Y-96054578D01*
X222481894Y-96248082D01*
X222648917Y-96415105D01*
X222842421Y-96550600D01*
X223056507Y-96650429D01*
X223056516Y-96650433D01*
X223270000Y-96707634D01*
X223270000Y-95812501D01*
X223377685Y-95861680D01*
X223484237Y-95877000D01*
X223555763Y-95877000D01*
X223662315Y-95861680D01*
X223770000Y-95812501D01*
X223770000Y-96707633D01*
X223983483Y-96650433D01*
X223983492Y-96650429D01*
X224197578Y-96550600D01*
X224391082Y-96415105D01*
X224558105Y-96248082D01*
X224693600Y-96054578D01*
X224793429Y-95840492D01*
X224793432Y-95840486D01*
X224850636Y-95627000D01*
X223953686Y-95627000D01*
X223979493Y-95586844D01*
X224020000Y-95448889D01*
X224020000Y-95305111D01*
X223979493Y-95167156D01*
X223953686Y-95127000D01*
X224850636Y-95127000D01*
X224850635Y-95126999D01*
X224793432Y-94913513D01*
X224793429Y-94913507D01*
X224693600Y-94699422D01*
X224693599Y-94699420D01*
X224558113Y-94505926D01*
X224558108Y-94505920D01*
X224391082Y-94338894D01*
X224204968Y-94208575D01*
X224161344Y-94153998D01*
X224154151Y-94084499D01*
X224185673Y-94022145D01*
X224204968Y-94005425D01*
X224391082Y-93875105D01*
X224558105Y-93708082D01*
X224693600Y-93514578D01*
X224793429Y-93300492D01*
X224793432Y-93300486D01*
X224850636Y-93087000D01*
X223953686Y-93087000D01*
X223979493Y-93046844D01*
X224020000Y-92908889D01*
X224020000Y-92765111D01*
X223979493Y-92627156D01*
X223953686Y-92587000D01*
X224850636Y-92587000D01*
X224850635Y-92586999D01*
X224793432Y-92373513D01*
X224793429Y-92373507D01*
X224693600Y-92159422D01*
X224693599Y-92159420D01*
X224558113Y-91965926D01*
X224558108Y-91965920D01*
X224435665Y-91843477D01*
X224402180Y-91782154D01*
X224407164Y-91712462D01*
X224449036Y-91656529D01*
X224480013Y-91639614D01*
X224612086Y-91590354D01*
X224612093Y-91590350D01*
X224727187Y-91504190D01*
X224727190Y-91504187D01*
X224813350Y-91389093D01*
X224813354Y-91389086D01*
X224863596Y-91254379D01*
X224863598Y-91254372D01*
X224869999Y-91194844D01*
X224870000Y-91194827D01*
X224870000Y-90547000D01*
X223953686Y-90547000D01*
X223979493Y-90506844D01*
X224020000Y-90368889D01*
X224020000Y-90225111D01*
X223979493Y-90087156D01*
X223953686Y-90047000D01*
X224870000Y-90047000D01*
X224870000Y-89399172D01*
X224869999Y-89399155D01*
X224863598Y-89339627D01*
X224863596Y-89339620D01*
X224813354Y-89204913D01*
X224813350Y-89204906D01*
X224727190Y-89089812D01*
X224727187Y-89089809D01*
X224612093Y-89003649D01*
X224612086Y-89003645D01*
X224477379Y-88953403D01*
X224477372Y-88953401D01*
X224417844Y-88947000D01*
X223770000Y-88947000D01*
X223770000Y-89861498D01*
X223662315Y-89812320D01*
X223555763Y-89797000D01*
X223484237Y-89797000D01*
X223377685Y-89812320D01*
X223270000Y-89861498D01*
X223270000Y-88947000D01*
X222622155Y-88947000D01*
X222562627Y-88953401D01*
X222562620Y-88953403D01*
X222427913Y-89003645D01*
X222427906Y-89003649D01*
X222312812Y-89089809D01*
X222312809Y-89089812D01*
X222226649Y-89204906D01*
X222226645Y-89204913D01*
X222176403Y-89339620D01*
X222176401Y-89339627D01*
X222170000Y-89399155D01*
X222170000Y-90047000D01*
X223086314Y-90047000D01*
X223060507Y-90087156D01*
X223020000Y-90225111D01*
X223020000Y-90368889D01*
X223060507Y-90506844D01*
X223086314Y-90547000D01*
X222170000Y-90547000D01*
X222170000Y-91194844D01*
X219790500Y-91194844D01*
X219790499Y-89399128D01*
X219784091Y-89339517D01*
X219762454Y-89281506D01*
X219733797Y-89204671D01*
X219733793Y-89204664D01*
X219647547Y-89089455D01*
X219647544Y-89089452D01*
X219532335Y-89003206D01*
X219532328Y-89003202D01*
X219397482Y-88952908D01*
X219397483Y-88952908D01*
X219337883Y-88946501D01*
X219337881Y-88946500D01*
X219337873Y-88946500D01*
X219337864Y-88946500D01*
X217542129Y-88946500D01*
X217542123Y-88946501D01*
X217482516Y-88952908D01*
X217347671Y-89003202D01*
X217347664Y-89003206D01*
X217232455Y-89089452D01*
X217232452Y-89089455D01*
X217146206Y-89204664D01*
X217146202Y-89204671D01*
X217095908Y-89339517D01*
X217090152Y-89393059D01*
X217089501Y-89399123D01*
X217089500Y-89399135D01*
X217089500Y-91194870D01*
X217089501Y-91194876D01*
X217095908Y-91254483D01*
X217146202Y-91389328D01*
X217146206Y-91389335D01*
X217232452Y-91504544D01*
X217232455Y-91504547D01*
X217347664Y-91590793D01*
X217347671Y-91590797D01*
X217479081Y-91639810D01*
X217535015Y-91681681D01*
X217559432Y-91747145D01*
X217544580Y-91815418D01*
X217523430Y-91843673D01*
X217401503Y-91965600D01*
X217265965Y-92159169D01*
X217265964Y-92159171D01*
X217166098Y-92373335D01*
X217166094Y-92373344D01*
X217104938Y-92601586D01*
X217104936Y-92601596D01*
X217084341Y-92836999D01*
X217084341Y-92837000D01*
X217104936Y-93072403D01*
X217104938Y-93072413D01*
X217166094Y-93300655D01*
X217166096Y-93300659D01*
X217166097Y-93300663D01*
X217256729Y-93495023D01*
X217265965Y-93514830D01*
X217265967Y-93514834D01*
X217401501Y-93708395D01*
X217401506Y-93708402D01*
X217568597Y-93875493D01*
X217568603Y-93875498D01*
X217754158Y-94005425D01*
X217797783Y-94060002D01*
X217804977Y-94129500D01*
X217773454Y-94191855D01*
X217754158Y-94208575D01*
X217568597Y-94338505D01*
X217401505Y-94505597D01*
X217265965Y-94699169D01*
X217265964Y-94699171D01*
X217166098Y-94913335D01*
X217166094Y-94913344D01*
X217104938Y-95141586D01*
X217104936Y-95141596D01*
X217084341Y-95376999D01*
X217084341Y-95377000D01*
X210442112Y-95377000D01*
X210435674Y-95315744D01*
X210377179Y-95135716D01*
X210282533Y-94971784D01*
X210155871Y-94831112D01*
X210155870Y-94831111D01*
X210002734Y-94719851D01*
X210002729Y-94719848D01*
X209829807Y-94642857D01*
X209829802Y-94642855D01*
X209684001Y-94611865D01*
X209644646Y-94603500D01*
X209455354Y-94603500D01*
X209422897Y-94610398D01*
X209270197Y-94642855D01*
X209270192Y-94642857D01*
X209097270Y-94719848D01*
X209097265Y-94719851D01*
X208944129Y-94831111D01*
X208817466Y-94971785D01*
X208722821Y-95135715D01*
X208722818Y-95135722D01*
X208712605Y-95167156D01*
X208664326Y-95315744D01*
X208644540Y-95504000D01*
X204546560Y-95504000D01*
X204555659Y-95400000D01*
X204535063Y-95164592D01*
X204473903Y-94936337D01*
X204374035Y-94722171D01*
X204372410Y-94719849D01*
X204238494Y-94528597D01*
X204071402Y-94361506D01*
X204071396Y-94361501D01*
X203885842Y-94231575D01*
X203842217Y-94176998D01*
X203835023Y-94107500D01*
X203866546Y-94045145D01*
X203885842Y-94028425D01*
X203918689Y-94005425D01*
X204071401Y-93898495D01*
X204238495Y-93731401D01*
X204374035Y-93537830D01*
X204473903Y-93323663D01*
X204535063Y-93095408D01*
X204555659Y-92860000D01*
X204535063Y-92624592D01*
X204473903Y-92396337D01*
X204374035Y-92182171D01*
X204368425Y-92174158D01*
X204238494Y-91988597D01*
X204071402Y-91821506D01*
X204071396Y-91821501D01*
X203885842Y-91691575D01*
X203842217Y-91636998D01*
X203835023Y-91567500D01*
X203866546Y-91505145D01*
X203885842Y-91488425D01*
X203908026Y-91472891D01*
X204071401Y-91358495D01*
X204238495Y-91191401D01*
X204374035Y-90997830D01*
X204473903Y-90783663D01*
X204535063Y-90555408D01*
X204555659Y-90320000D01*
X204535063Y-90084592D01*
X204473903Y-89856337D01*
X204374035Y-89642171D01*
X204368425Y-89634158D01*
X204238494Y-89448597D01*
X204071402Y-89281506D01*
X204071396Y-89281501D01*
X203961855Y-89204800D01*
X206460140Y-89204800D01*
X206479926Y-89393056D01*
X206479927Y-89393059D01*
X206538418Y-89573077D01*
X206538421Y-89573084D01*
X206633067Y-89737016D01*
X206740511Y-89856344D01*
X206759729Y-89877688D01*
X206912865Y-89988948D01*
X206912870Y-89988951D01*
X207085792Y-90065942D01*
X207085797Y-90065944D01*
X207270954Y-90105300D01*
X207270955Y-90105300D01*
X207460244Y-90105300D01*
X207460246Y-90105300D01*
X207645403Y-90065944D01*
X207818330Y-89988951D01*
X207971471Y-89877688D01*
X208098133Y-89737016D01*
X208192779Y-89573084D01*
X208251274Y-89393056D01*
X208271060Y-89204800D01*
X208251274Y-89016544D01*
X208192779Y-88836516D01*
X208191905Y-88835003D01*
X208191666Y-88834019D01*
X208190138Y-88830586D01*
X208190765Y-88830306D01*
X208175430Y-88767105D01*
X208190554Y-88715599D01*
X208190138Y-88715414D01*
X208191519Y-88712312D01*
X208191905Y-88710997D01*
X208192779Y-88709484D01*
X208251274Y-88529456D01*
X208271060Y-88341200D01*
X208251274Y-88152944D01*
X208192779Y-87972916D01*
X208098133Y-87808984D01*
X207971471Y-87668312D01*
X207957403Y-87658091D01*
X207818334Y-87557051D01*
X207818329Y-87557048D01*
X207645407Y-87480057D01*
X207645402Y-87480055D01*
X207499601Y-87449065D01*
X207460246Y-87440700D01*
X207270954Y-87440700D01*
X207238497Y-87447598D01*
X207085797Y-87480055D01*
X207085792Y-87480057D01*
X206912870Y-87557048D01*
X206912865Y-87557051D01*
X206759729Y-87668311D01*
X206633066Y-87808985D01*
X206538421Y-87972915D01*
X206538418Y-87972922D01*
X206479927Y-88152940D01*
X206479926Y-88152944D01*
X206460140Y-88341200D01*
X206479926Y-88529456D01*
X206479927Y-88529459D01*
X206538421Y-88709485D01*
X206539297Y-88711002D01*
X206539536Y-88711990D01*
X206541064Y-88715421D01*
X206540436Y-88715700D01*
X206555768Y-88778902D01*
X206540648Y-88830394D01*
X206541064Y-88830579D01*
X206539685Y-88833676D01*
X206539297Y-88834998D01*
X206538421Y-88836514D01*
X206484117Y-89003645D01*
X206479926Y-89016544D01*
X206460140Y-89204800D01*
X203961855Y-89204800D01*
X203885842Y-89151575D01*
X203842217Y-89096998D01*
X203835023Y-89027500D01*
X203866546Y-88965145D01*
X203885842Y-88948425D01*
X203908026Y-88932891D01*
X204071401Y-88818495D01*
X204238495Y-88651401D01*
X204374035Y-88457830D01*
X204473903Y-88243663D01*
X204535063Y-88015408D01*
X204555659Y-87780000D01*
X204535063Y-87544592D01*
X204473903Y-87316337D01*
X204374035Y-87102171D01*
X204368425Y-87094158D01*
X204238494Y-86908597D01*
X204071402Y-86741506D01*
X204071396Y-86741501D01*
X203885842Y-86611575D01*
X203842217Y-86556998D01*
X203835023Y-86487500D01*
X203866546Y-86425145D01*
X203885842Y-86408425D01*
X203992827Y-86333513D01*
X204071401Y-86278495D01*
X204238495Y-86111401D01*
X204374035Y-85917830D01*
X204473903Y-85703663D01*
X204535063Y-85475408D01*
X204555659Y-85240000D01*
X204535063Y-85004592D01*
X204503906Y-84888310D01*
X209585850Y-84888310D01*
X209605636Y-85076566D01*
X209605637Y-85076569D01*
X209664128Y-85256587D01*
X209664131Y-85256594D01*
X209758777Y-85420526D01*
X209859553Y-85532449D01*
X209885439Y-85561198D01*
X210038575Y-85672458D01*
X210038580Y-85672461D01*
X210211501Y-85749452D01*
X210211503Y-85749452D01*
X210211507Y-85749454D01*
X210238285Y-85755145D01*
X210299764Y-85788336D01*
X210330434Y-85838117D01*
X210371237Y-85963696D01*
X210371240Y-85963703D01*
X210465886Y-86127635D01*
X210580333Y-86254741D01*
X210592548Y-86268307D01*
X210745684Y-86379567D01*
X210745689Y-86379570D01*
X210924553Y-86459207D01*
X210923841Y-86460805D01*
X210974427Y-86495385D01*
X211001633Y-86559741D01*
X211001763Y-86560925D01*
X211004408Y-86586084D01*
X211004410Y-86586094D01*
X211062901Y-86766111D01*
X211062904Y-86766118D01*
X211157550Y-86930050D01*
X211250146Y-87032888D01*
X211284212Y-87070722D01*
X211437348Y-87181982D01*
X211437353Y-87181985D01*
X211610274Y-87258976D01*
X211610280Y-87258978D01*
X211618640Y-87260755D01*
X211680122Y-87293947D01*
X211710790Y-87343727D01*
X211756998Y-87485941D01*
X211757001Y-87485948D01*
X211851647Y-87649880D01*
X211959222Y-87769354D01*
X211978309Y-87790552D01*
X212131445Y-87901812D01*
X212131450Y-87901815D01*
X212304372Y-87978806D01*
X212304377Y-87978808D01*
X212489534Y-88018164D01*
X212489535Y-88018164D01*
X212678824Y-88018164D01*
X212678826Y-88018164D01*
X212863983Y-87978808D01*
X213036910Y-87901815D01*
X213190051Y-87790552D01*
X213316713Y-87649880D01*
X213411359Y-87485948D01*
X213469854Y-87305920D01*
X213489640Y-87117664D01*
X213469854Y-86929408D01*
X213411359Y-86749380D01*
X213316713Y-86585448D01*
X213190051Y-86444776D01*
X213190050Y-86444775D01*
X213036914Y-86333515D01*
X213036909Y-86333512D01*
X212863987Y-86256521D01*
X212863980Y-86256519D01*
X212855617Y-86254741D01*
X212794137Y-86221546D01*
X212763472Y-86171770D01*
X212763462Y-86171740D01*
X212717262Y-86029550D01*
X212691663Y-85985211D01*
X217530385Y-85985211D01*
X217550171Y-86173467D01*
X217550172Y-86173470D01*
X217608663Y-86353488D01*
X217608666Y-86353495D01*
X217651267Y-86427282D01*
X217667740Y-86495182D01*
X217651268Y-86551281D01*
X217613372Y-86616919D01*
X217564897Y-86766111D01*
X217554878Y-86796947D01*
X217535092Y-86985203D01*
X217554878Y-87173459D01*
X217554879Y-87173462D01*
X217613370Y-87353480D01*
X217613373Y-87353487D01*
X217708019Y-87517419D01*
X217743704Y-87557051D01*
X217834681Y-87658091D01*
X217987817Y-87769351D01*
X217987822Y-87769354D01*
X218160744Y-87846345D01*
X218160749Y-87846347D01*
X218345906Y-87885703D01*
X218345907Y-87885703D01*
X218535196Y-87885703D01*
X218535198Y-87885703D01*
X218720355Y-87846347D01*
X218893282Y-87769354D01*
X219046423Y-87658091D01*
X219173085Y-87517419D01*
X219267731Y-87353487D01*
X219326226Y-87173459D01*
X219346012Y-86985203D01*
X219326226Y-86796947D01*
X219267731Y-86616919D01*
X219225129Y-86543130D01*
X219208656Y-86475229D01*
X219225128Y-86419131D01*
X219259268Y-86360000D01*
X223884540Y-86360000D01*
X223904326Y-86548256D01*
X223904327Y-86548259D01*
X223962818Y-86728277D01*
X223962821Y-86728284D01*
X224057467Y-86892216D01*
X224141193Y-86985203D01*
X224184129Y-87032888D01*
X224337265Y-87144148D01*
X224337270Y-87144151D01*
X224510192Y-87221142D01*
X224510197Y-87221144D01*
X224695354Y-87260500D01*
X224695355Y-87260500D01*
X224884644Y-87260500D01*
X224884646Y-87260500D01*
X225069803Y-87221144D01*
X225242730Y-87144151D01*
X225395871Y-87032888D01*
X225522533Y-86892216D01*
X225617179Y-86728284D01*
X225675674Y-86548256D01*
X225695460Y-86360000D01*
X225675674Y-86171744D01*
X225617179Y-85991716D01*
X225522533Y-85827784D01*
X225395871Y-85687112D01*
X225375706Y-85672461D01*
X225242734Y-85575851D01*
X225242729Y-85575848D01*
X225069807Y-85498857D01*
X225069802Y-85498855D01*
X224924001Y-85467865D01*
X224884646Y-85459500D01*
X224695354Y-85459500D01*
X224662897Y-85466398D01*
X224510197Y-85498855D01*
X224510192Y-85498857D01*
X224337270Y-85575848D01*
X224337265Y-85575851D01*
X224184129Y-85687111D01*
X224057466Y-85827785D01*
X223962825Y-85991709D01*
X223962818Y-85991722D01*
X223904327Y-86171740D01*
X223904326Y-86171744D01*
X223884540Y-86360000D01*
X219259268Y-86360000D01*
X219263024Y-86353495D01*
X219321519Y-86173467D01*
X219341305Y-85985211D01*
X219321519Y-85796955D01*
X219263024Y-85616927D01*
X219244044Y-85584054D01*
X219227572Y-85516155D01*
X219244044Y-85460057D01*
X219305519Y-85353580D01*
X219364014Y-85173552D01*
X219383800Y-84985296D01*
X219364014Y-84797040D01*
X219305519Y-84617012D01*
X219245036Y-84512253D01*
X219228564Y-84444355D01*
X219245036Y-84388256D01*
X219264575Y-84354416D01*
X219323070Y-84174388D01*
X219342856Y-83986132D01*
X219323070Y-83797876D01*
X219264575Y-83617848D01*
X219169929Y-83453916D01*
X219043267Y-83313244D01*
X219043266Y-83313243D01*
X218890130Y-83201983D01*
X218890125Y-83201980D01*
X218717203Y-83124989D01*
X218717198Y-83124987D01*
X218571397Y-83093997D01*
X218532042Y-83085632D01*
X218342750Y-83085632D01*
X218310293Y-83092530D01*
X218157593Y-83124987D01*
X218157588Y-83124989D01*
X217984666Y-83201980D01*
X217984661Y-83201983D01*
X217831525Y-83313243D01*
X217704862Y-83453917D01*
X217610217Y-83617847D01*
X217610214Y-83617854D01*
X217571016Y-83738495D01*
X217551722Y-83797876D01*
X217531936Y-83986132D01*
X217551722Y-84174388D01*
X217551723Y-84174391D01*
X217610214Y-84354409D01*
X217610216Y-84354412D01*
X217610217Y-84354416D01*
X217650598Y-84424359D01*
X217670698Y-84459173D01*
X217687170Y-84527073D01*
X217670698Y-84583170D01*
X217651161Y-84617009D01*
X217592667Y-84797036D01*
X217592666Y-84797040D01*
X217572880Y-84985296D01*
X217592666Y-85173552D01*
X217592667Y-85173555D01*
X217651158Y-85353573D01*
X217651160Y-85353577D01*
X217651161Y-85353580D01*
X217670140Y-85386452D01*
X217686612Y-85454352D01*
X217670140Y-85510450D01*
X217640841Y-85561198D01*
X217610540Y-85613682D01*
X217608665Y-85616929D01*
X217608663Y-85616933D01*
X217554486Y-85783675D01*
X217550171Y-85796955D01*
X217530385Y-85985211D01*
X212691663Y-85985211D01*
X212622616Y-85865618D01*
X212495954Y-85724946D01*
X212495953Y-85724945D01*
X212342817Y-85613685D01*
X212342812Y-85613682D01*
X212163949Y-85534046D01*
X212164659Y-85532449D01*
X212114068Y-85497860D01*
X212086866Y-85433502D01*
X212086758Y-85432527D01*
X212084093Y-85407163D01*
X212025598Y-85227135D01*
X211930952Y-85063203D01*
X211804290Y-84922531D01*
X211757189Y-84888310D01*
X211651153Y-84811270D01*
X211651148Y-84811267D01*
X211478226Y-84734276D01*
X211478221Y-84734274D01*
X211451444Y-84728583D01*
X211389962Y-84695391D01*
X211359294Y-84645611D01*
X211350001Y-84617011D01*
X211318489Y-84520026D01*
X211223843Y-84356094D01*
X211097181Y-84215422D01*
X211097180Y-84215421D01*
X210944044Y-84104161D01*
X210944039Y-84104158D01*
X210771117Y-84027167D01*
X210771112Y-84027165D01*
X210625311Y-83996175D01*
X210585956Y-83987810D01*
X210396664Y-83987810D01*
X210374599Y-83992500D01*
X210211507Y-84027165D01*
X210211502Y-84027167D01*
X210038580Y-84104158D01*
X210038575Y-84104161D01*
X209885439Y-84215421D01*
X209758776Y-84356095D01*
X209664131Y-84520025D01*
X209664128Y-84520032D01*
X209607151Y-84695391D01*
X209605636Y-84700054D01*
X209585850Y-84888310D01*
X204503906Y-84888310D01*
X204473903Y-84776337D01*
X204374035Y-84562171D01*
X204368425Y-84554158D01*
X204238494Y-84368597D01*
X204071402Y-84201506D01*
X204071396Y-84201501D01*
X203885842Y-84071575D01*
X203842217Y-84016998D01*
X203835023Y-83947500D01*
X203866546Y-83885145D01*
X203885842Y-83868425D01*
X203986602Y-83797872D01*
X204071401Y-83738495D01*
X204238495Y-83571401D01*
X204374035Y-83377830D01*
X204473903Y-83163663D01*
X204535063Y-82935408D01*
X204555659Y-82700000D01*
X204535063Y-82464592D01*
X204473903Y-82236337D01*
X204374035Y-82022171D01*
X204368425Y-82014158D01*
X204238494Y-81828597D01*
X204071402Y-81661506D01*
X204071396Y-81661501D01*
X203885842Y-81531575D01*
X203842217Y-81476998D01*
X203835023Y-81407500D01*
X203866546Y-81345145D01*
X203885842Y-81328425D01*
X204031814Y-81226214D01*
X204071401Y-81198495D01*
X204238495Y-81031401D01*
X204374035Y-80837830D01*
X204441104Y-80694000D01*
X222983221Y-80694000D01*
X223003007Y-80882256D01*
X223003008Y-80882259D01*
X223061499Y-81062277D01*
X223061502Y-81062284D01*
X223156148Y-81226216D01*
X223263943Y-81345934D01*
X223282810Y-81366888D01*
X223435946Y-81478148D01*
X223435951Y-81478151D01*
X223608873Y-81555142D01*
X223608878Y-81555144D01*
X223794035Y-81594500D01*
X223794036Y-81594500D01*
X223983325Y-81594500D01*
X223983327Y-81594500D01*
X224168484Y-81555144D01*
X224233011Y-81526414D01*
X224302256Y-81517129D01*
X224365533Y-81546757D01*
X224402748Y-81605891D01*
X224406764Y-81652654D01*
X224392540Y-81788000D01*
X224412326Y-81976256D01*
X224412327Y-81976259D01*
X224470820Y-82156283D01*
X224515690Y-82234001D01*
X224532162Y-82301901D01*
X224515690Y-82357999D01*
X224470820Y-82435716D01*
X224412327Y-82615740D01*
X224412326Y-82615744D01*
X224392540Y-82804000D01*
X224412326Y-82992256D01*
X224412327Y-82992259D01*
X224470818Y-83172277D01*
X224470821Y-83172284D01*
X224565467Y-83336216D01*
X224610151Y-83385842D01*
X224692129Y-83476888D01*
X224845265Y-83588148D01*
X224845270Y-83588151D01*
X225018192Y-83665142D01*
X225018197Y-83665144D01*
X225203354Y-83704500D01*
X225203355Y-83704500D01*
X225392644Y-83704500D01*
X225392646Y-83704500D01*
X225577803Y-83665144D01*
X225750730Y-83588151D01*
X225903871Y-83476888D01*
X226030533Y-83336216D01*
X226125179Y-83172284D01*
X226183674Y-82992256D01*
X226203460Y-82804000D01*
X226183674Y-82615744D01*
X226125179Y-82435716D01*
X226080308Y-82357997D01*
X226063836Y-82290100D01*
X226080309Y-82234001D01*
X226125179Y-82156284D01*
X226183674Y-81976256D01*
X226203460Y-81788000D01*
X226183674Y-81599744D01*
X226129112Y-81431823D01*
X226125181Y-81419722D01*
X226125180Y-81419721D01*
X226125179Y-81419716D01*
X226030533Y-81255784D01*
X225903871Y-81115112D01*
X225903870Y-81115111D01*
X225750734Y-81003851D01*
X225750729Y-81003848D01*
X225577807Y-80926857D01*
X225577802Y-80926855D01*
X225432001Y-80895865D01*
X225392646Y-80887500D01*
X225236248Y-80887500D01*
X225169209Y-80867815D01*
X225123454Y-80815011D01*
X225113510Y-80745853D01*
X225142535Y-80682297D01*
X225163362Y-80663182D01*
X225192671Y-80641888D01*
X225319333Y-80501216D01*
X225413979Y-80337284D01*
X225471582Y-80160000D01*
X229784341Y-80160000D01*
X229804936Y-80395403D01*
X229804938Y-80395413D01*
X229866094Y-80623655D01*
X229866096Y-80623659D01*
X229866097Y-80623663D01*
X229946004Y-80795023D01*
X229965965Y-80837830D01*
X229965967Y-80837834D01*
X230028302Y-80926857D01*
X230101505Y-81031401D01*
X230268599Y-81198495D01*
X230308186Y-81226214D01*
X230462165Y-81334032D01*
X230462167Y-81334033D01*
X230462170Y-81334035D01*
X230676337Y-81433903D01*
X230904592Y-81495063D01*
X231092918Y-81511539D01*
X231139999Y-81515659D01*
X231140000Y-81515659D01*
X231140001Y-81515659D01*
X231179234Y-81512226D01*
X231375408Y-81495063D01*
X231603663Y-81433903D01*
X231817830Y-81334035D01*
X232011401Y-81198495D01*
X232178495Y-81031401D01*
X232308425Y-80845842D01*
X232363002Y-80802217D01*
X232432500Y-80795023D01*
X232494855Y-80826546D01*
X232511575Y-80845842D01*
X232641500Y-81031395D01*
X232641505Y-81031401D01*
X232808599Y-81198495D01*
X232848186Y-81226214D01*
X233002165Y-81334032D01*
X233002167Y-81334033D01*
X233002170Y-81334035D01*
X233216337Y-81433903D01*
X233444592Y-81495063D01*
X233632918Y-81511539D01*
X233679999Y-81515659D01*
X233680000Y-81515659D01*
X233680001Y-81515659D01*
X233719234Y-81512226D01*
X233915408Y-81495063D01*
X234143663Y-81433903D01*
X234357830Y-81334035D01*
X234551401Y-81198495D01*
X234718495Y-81031401D01*
X234854035Y-80837830D01*
X234953903Y-80623663D01*
X235015063Y-80395408D01*
X235035659Y-80160000D01*
X235015063Y-79924592D01*
X234953903Y-79696337D01*
X234854035Y-79482171D01*
X234848425Y-79474158D01*
X234718494Y-79288597D01*
X234551402Y-79121506D01*
X234551396Y-79121501D01*
X234365842Y-78991575D01*
X234322217Y-78936998D01*
X234315023Y-78867500D01*
X234346546Y-78805145D01*
X234365842Y-78788425D01*
X234474785Y-78712142D01*
X234551401Y-78658495D01*
X234718495Y-78491401D01*
X234854035Y-78297830D01*
X234953903Y-78083663D01*
X235015063Y-77855408D01*
X235035659Y-77620000D01*
X235015063Y-77384592D01*
X234953903Y-77156337D01*
X234854035Y-76942171D01*
X234848425Y-76934158D01*
X234718494Y-76748597D01*
X234551402Y-76581506D01*
X234551401Y-76581505D01*
X234365405Y-76451269D01*
X234321781Y-76396692D01*
X234314588Y-76327193D01*
X234346110Y-76264839D01*
X234365405Y-76248119D01*
X234551082Y-76118105D01*
X234718105Y-75951082D01*
X234853600Y-75757578D01*
X234953429Y-75543492D01*
X234953432Y-75543486D01*
X235010636Y-75330000D01*
X234113686Y-75330000D01*
X234139493Y-75289844D01*
X234180000Y-75151889D01*
X234180000Y-75008111D01*
X234139493Y-74870156D01*
X234113686Y-74830000D01*
X235010636Y-74830000D01*
X235010635Y-74829999D01*
X234953432Y-74616513D01*
X234953429Y-74616507D01*
X234853600Y-74402422D01*
X234853599Y-74402420D01*
X234718113Y-74208926D01*
X234718108Y-74208920D01*
X234551078Y-74041890D01*
X234365405Y-73911879D01*
X234321780Y-73857302D01*
X234314588Y-73787804D01*
X234346110Y-73725449D01*
X234365406Y-73708730D01*
X234365842Y-73708425D01*
X234551401Y-73578495D01*
X234718495Y-73411401D01*
X234854035Y-73217830D01*
X234953903Y-73003663D01*
X235015063Y-72775408D01*
X235035659Y-72540000D01*
X235015063Y-72304592D01*
X234953903Y-72076337D01*
X234854035Y-71862171D01*
X234848424Y-71854158D01*
X234718496Y-71668600D01*
X234718493Y-71668597D01*
X234596567Y-71546671D01*
X234563084Y-71485351D01*
X234568068Y-71415659D01*
X234609939Y-71359725D01*
X234640915Y-71342810D01*
X234772331Y-71293796D01*
X234887546Y-71207546D01*
X234973796Y-71092331D01*
X235024091Y-70957483D01*
X235030500Y-70897873D01*
X235030499Y-69102128D01*
X235024091Y-69042517D01*
X235023147Y-69039987D01*
X234973797Y-68907671D01*
X234973793Y-68907664D01*
X234887547Y-68792455D01*
X234887544Y-68792452D01*
X234772335Y-68706206D01*
X234772328Y-68706202D01*
X234637482Y-68655908D01*
X234637483Y-68655908D01*
X234577883Y-68649501D01*
X234577881Y-68649500D01*
X234577873Y-68649500D01*
X234577864Y-68649500D01*
X232782129Y-68649500D01*
X232782123Y-68649501D01*
X232722516Y-68655908D01*
X232587671Y-68706202D01*
X232587664Y-68706206D01*
X232472455Y-68792452D01*
X232472452Y-68792455D01*
X232386206Y-68907664D01*
X232386202Y-68907671D01*
X232335908Y-69042517D01*
X232330167Y-69095920D01*
X232329501Y-69102123D01*
X232329500Y-69102135D01*
X232329500Y-70897870D01*
X232329501Y-70897876D01*
X232335908Y-70957483D01*
X232386202Y-71092328D01*
X232386206Y-71092335D01*
X232472452Y-71207544D01*
X232472455Y-71207547D01*
X232587664Y-71293793D01*
X232587671Y-71293797D01*
X232719081Y-71342810D01*
X232775015Y-71384681D01*
X232799432Y-71450145D01*
X232784580Y-71518418D01*
X232763430Y-71546673D01*
X232641503Y-71668600D01*
X232505965Y-71862169D01*
X232505964Y-71862171D01*
X232406098Y-72076335D01*
X232406094Y-72076344D01*
X232344938Y-72304586D01*
X232344936Y-72304596D01*
X232324341Y-72539999D01*
X232324341Y-72540000D01*
X232344936Y-72775403D01*
X232344938Y-72775413D01*
X232406094Y-73003655D01*
X232406096Y-73003659D01*
X232406097Y-73003663D01*
X232429037Y-73052857D01*
X232505965Y-73217830D01*
X232505967Y-73217834D01*
X232614281Y-73372521D01*
X232641501Y-73411396D01*
X232641506Y-73411402D01*
X232808597Y-73578493D01*
X232808603Y-73578498D01*
X232994594Y-73708730D01*
X233038219Y-73763307D01*
X233045413Y-73832805D01*
X233013890Y-73895160D01*
X232994595Y-73911880D01*
X232808924Y-74041888D01*
X232686865Y-74163947D01*
X232625542Y-74197431D01*
X232555850Y-74192447D01*
X232499917Y-74150575D01*
X232483002Y-74119598D01*
X232433797Y-73987671D01*
X232433793Y-73987664D01*
X232347547Y-73872455D01*
X232347544Y-73872452D01*
X232232335Y-73786206D01*
X232232328Y-73786202D01*
X232097482Y-73735908D01*
X232097483Y-73735908D01*
X232037883Y-73729501D01*
X232037881Y-73729500D01*
X232037873Y-73729500D01*
X232037864Y-73729500D01*
X230242129Y-73729500D01*
X230242123Y-73729501D01*
X230182516Y-73735908D01*
X230047671Y-73786202D01*
X230047664Y-73786206D01*
X229932455Y-73872452D01*
X229932452Y-73872455D01*
X229846206Y-73987664D01*
X229846202Y-73987671D01*
X229795908Y-74122517D01*
X229789501Y-74182116D01*
X229789500Y-74182135D01*
X229789500Y-75977870D01*
X229789501Y-75977876D01*
X229795908Y-76037483D01*
X229846202Y-76172328D01*
X229846206Y-76172335D01*
X229932452Y-76287544D01*
X229932455Y-76287547D01*
X230047664Y-76373793D01*
X230047671Y-76373797D01*
X230179081Y-76422810D01*
X230235015Y-76464681D01*
X230259432Y-76530145D01*
X230244580Y-76598418D01*
X230223430Y-76626673D01*
X230101503Y-76748600D01*
X229965965Y-76942169D01*
X229965964Y-76942171D01*
X229866098Y-77156335D01*
X229866094Y-77156344D01*
X229804938Y-77384586D01*
X229804936Y-77384596D01*
X229784341Y-77619999D01*
X229784341Y-77620000D01*
X229804936Y-77855403D01*
X229804938Y-77855413D01*
X229866094Y-78083655D01*
X229866096Y-78083659D01*
X229866097Y-78083663D01*
X229870000Y-78092032D01*
X229965965Y-78297830D01*
X229965967Y-78297834D01*
X230025753Y-78383216D01*
X230101501Y-78491396D01*
X230101506Y-78491402D01*
X230268597Y-78658493D01*
X230268603Y-78658498D01*
X230454158Y-78788425D01*
X230497783Y-78843002D01*
X230504977Y-78912500D01*
X230473454Y-78974855D01*
X230454158Y-78991575D01*
X230268597Y-79121505D01*
X230101505Y-79288597D01*
X229965965Y-79482169D01*
X229965964Y-79482171D01*
X229866098Y-79696335D01*
X229866094Y-79696344D01*
X229804938Y-79924586D01*
X229804936Y-79924596D01*
X229784341Y-80159999D01*
X229784341Y-80160000D01*
X225471582Y-80160000D01*
X225472474Y-80157256D01*
X225492260Y-79969000D01*
X225472474Y-79780744D01*
X225413979Y-79600716D01*
X225319333Y-79436784D01*
X225192671Y-79296112D01*
X225192670Y-79296111D01*
X225039534Y-79184851D01*
X225039529Y-79184848D01*
X224866607Y-79107857D01*
X224866602Y-79107855D01*
X224720801Y-79076865D01*
X224681446Y-79068500D01*
X224492154Y-79068500D01*
X224459697Y-79075398D01*
X224306997Y-79107855D01*
X224306992Y-79107857D01*
X224134070Y-79184848D01*
X224134065Y-79184851D01*
X223980929Y-79296111D01*
X223854266Y-79436785D01*
X223759621Y-79600715D01*
X223759619Y-79600719D01*
X223711904Y-79747572D01*
X223672466Y-79805247D01*
X223619759Y-79830542D01*
X223608881Y-79832854D01*
X223608875Y-79832856D01*
X223435951Y-79909848D01*
X223435946Y-79909851D01*
X223282810Y-80021111D01*
X223156147Y-80161785D01*
X223061502Y-80325715D01*
X223061499Y-80325722D01*
X223004479Y-80501214D01*
X223003007Y-80505744D01*
X222983221Y-80694000D01*
X204441104Y-80694000D01*
X204473903Y-80623663D01*
X204535063Y-80395408D01*
X204555659Y-80160000D01*
X204535063Y-79924592D01*
X204473903Y-79696337D01*
X204374035Y-79482171D01*
X204368425Y-79474158D01*
X204238494Y-79288597D01*
X204071402Y-79121506D01*
X204071396Y-79121501D01*
X203885842Y-78991575D01*
X203842217Y-78936998D01*
X203835023Y-78867500D01*
X203866546Y-78805145D01*
X203885842Y-78788425D01*
X203994785Y-78712142D01*
X204071401Y-78658495D01*
X204238495Y-78491401D01*
X204374035Y-78297830D01*
X204473903Y-78083663D01*
X204535063Y-77855408D01*
X204535449Y-77851000D01*
X211565540Y-77851000D01*
X211585326Y-78039256D01*
X211585327Y-78039259D01*
X211643818Y-78219277D01*
X211643821Y-78219284D01*
X211738467Y-78383216D01*
X211865129Y-78523888D01*
X212018265Y-78635148D01*
X212018270Y-78635151D01*
X212191192Y-78712142D01*
X212191197Y-78712144D01*
X212376354Y-78751500D01*
X212376355Y-78751500D01*
X212565644Y-78751500D01*
X212565646Y-78751500D01*
X212750803Y-78712144D01*
X212923730Y-78635151D01*
X213076871Y-78523888D01*
X213203533Y-78383216D01*
X213298179Y-78219284D01*
X213356674Y-78039256D01*
X213376460Y-77851000D01*
X213356674Y-77662744D01*
X213298179Y-77482716D01*
X213203533Y-77318784D01*
X213076871Y-77178112D01*
X213046910Y-77156344D01*
X212923734Y-77066851D01*
X212923729Y-77066848D01*
X212916434Y-77063600D01*
X223122540Y-77063600D01*
X223142326Y-77251856D01*
X223142327Y-77251859D01*
X223200818Y-77431877D01*
X223200821Y-77431884D01*
X223295467Y-77595816D01*
X223422129Y-77736488D01*
X223575265Y-77847748D01*
X223575270Y-77847751D01*
X223748192Y-77924742D01*
X223748197Y-77924744D01*
X223933354Y-77964100D01*
X223933355Y-77964100D01*
X224122644Y-77964100D01*
X224122646Y-77964100D01*
X224307803Y-77924744D01*
X224480730Y-77847751D01*
X224633871Y-77736488D01*
X224760533Y-77595816D01*
X224855179Y-77431884D01*
X224913674Y-77251856D01*
X224933460Y-77063600D01*
X224913674Y-76875344D01*
X224855179Y-76695316D01*
X224760533Y-76531384D01*
X224633871Y-76390712D01*
X224633870Y-76390711D01*
X224480734Y-76279451D01*
X224480729Y-76279448D01*
X224307807Y-76202457D01*
X224307802Y-76202455D01*
X224162001Y-76171465D01*
X224122646Y-76163100D01*
X223933354Y-76163100D01*
X223900897Y-76169998D01*
X223748197Y-76202455D01*
X223748192Y-76202457D01*
X223575270Y-76279448D01*
X223575265Y-76279451D01*
X223422129Y-76390711D01*
X223295466Y-76531385D01*
X223200821Y-76695315D01*
X223200818Y-76695322D01*
X223142327Y-76875340D01*
X223142326Y-76875344D01*
X223122540Y-77063600D01*
X212916434Y-77063600D01*
X212750807Y-76989857D01*
X212750802Y-76989855D01*
X212605001Y-76958865D01*
X212565646Y-76950500D01*
X212376354Y-76950500D01*
X212343897Y-76957398D01*
X212191197Y-76989855D01*
X212191192Y-76989857D01*
X212018270Y-77066848D01*
X212018265Y-77066851D01*
X211865129Y-77178111D01*
X211738466Y-77318785D01*
X211643821Y-77482715D01*
X211643818Y-77482722D01*
X211599214Y-77620000D01*
X211585326Y-77662744D01*
X211565540Y-77851000D01*
X204535449Y-77851000D01*
X204555659Y-77620000D01*
X204535063Y-77384592D01*
X204473903Y-77156337D01*
X204374035Y-76942171D01*
X204368425Y-76934158D01*
X204238494Y-76748597D01*
X204071402Y-76581506D01*
X204071396Y-76581501D01*
X203885842Y-76451575D01*
X203842217Y-76396998D01*
X203835023Y-76327500D01*
X203866546Y-76265145D01*
X203885842Y-76248425D01*
X203951494Y-76202455D01*
X204071401Y-76118495D01*
X204238495Y-75951401D01*
X204374035Y-75757830D01*
X204473903Y-75543663D01*
X204535063Y-75315408D01*
X204555659Y-75080000D01*
X204552731Y-75046539D01*
X204538401Y-74882744D01*
X204535063Y-74844592D01*
X204473903Y-74616337D01*
X204374035Y-74402171D01*
X204368425Y-74394158D01*
X204238494Y-74208597D01*
X204071402Y-74041506D01*
X204071396Y-74041501D01*
X203961855Y-73964800D01*
X207425340Y-73964800D01*
X207445126Y-74153056D01*
X207445127Y-74153059D01*
X207503618Y-74333077D01*
X207503621Y-74333084D01*
X207598267Y-74497016D01*
X207705863Y-74616513D01*
X207724929Y-74637688D01*
X207878065Y-74748948D01*
X207878070Y-74748951D01*
X208050991Y-74825942D01*
X208050993Y-74825942D01*
X208050997Y-74825944D01*
X208129383Y-74842605D01*
X208190861Y-74875795D01*
X208224638Y-74936958D01*
X208221530Y-75002211D01*
X208207127Y-75046539D01*
X208207126Y-75046541D01*
X208207126Y-75046544D01*
X208187340Y-75234800D01*
X208207126Y-75423056D01*
X208207127Y-75423059D01*
X208265618Y-75603077D01*
X208265621Y-75603084D01*
X208360267Y-75767016D01*
X208486929Y-75907688D01*
X208640065Y-76018948D01*
X208640066Y-76018948D01*
X208640070Y-76018951D01*
X208784208Y-76083126D01*
X208837445Y-76128376D01*
X208851703Y-76158085D01*
X208866660Y-76204119D01*
X208866663Y-76204126D01*
X208961309Y-76368058D01*
X209048309Y-76464681D01*
X209087971Y-76508730D01*
X209241107Y-76619990D01*
X209241112Y-76619993D01*
X209414034Y-76696984D01*
X209414039Y-76696986D01*
X209599196Y-76736342D01*
X209599197Y-76736342D01*
X209788486Y-76736342D01*
X209788488Y-76736342D01*
X209973645Y-76696986D01*
X210146572Y-76619993D01*
X210299713Y-76508730D01*
X210426375Y-76368058D01*
X210521021Y-76204126D01*
X210579516Y-76024098D01*
X210599302Y-75835842D01*
X210579516Y-75647586D01*
X210521021Y-75467558D01*
X210426375Y-75303626D01*
X210299713Y-75162954D01*
X210299712Y-75162953D01*
X210173150Y-75071000D01*
X225751440Y-75071000D01*
X225771226Y-75259256D01*
X225771227Y-75259259D01*
X225829718Y-75439277D01*
X225829721Y-75439284D01*
X225924367Y-75603216D01*
X226025039Y-75715023D01*
X226051029Y-75743888D01*
X226204165Y-75855148D01*
X226204170Y-75855151D01*
X226377092Y-75932142D01*
X226377097Y-75932144D01*
X226562254Y-75971500D01*
X226562255Y-75971500D01*
X226751544Y-75971500D01*
X226751546Y-75971500D01*
X226936703Y-75932144D01*
X227109630Y-75855151D01*
X227262771Y-75743888D01*
X227389433Y-75603216D01*
X227484079Y-75439284D01*
X227542574Y-75259256D01*
X227562360Y-75071000D01*
X227542574Y-74882744D01*
X227519245Y-74810948D01*
X227517251Y-74741108D01*
X227553331Y-74681275D01*
X227564272Y-74672328D01*
X227681871Y-74586888D01*
X227808533Y-74446216D01*
X227903179Y-74282284D01*
X227961674Y-74102256D01*
X227981460Y-73914000D01*
X227961674Y-73725744D01*
X227903179Y-73545716D01*
X227808533Y-73381784D01*
X227681871Y-73241112D01*
X227660854Y-73225842D01*
X227528734Y-73129851D01*
X227528729Y-73129848D01*
X227355807Y-73052857D01*
X227355802Y-73052855D01*
X227210001Y-73021865D01*
X227170646Y-73013500D01*
X226981354Y-73013500D01*
X226948897Y-73020398D01*
X226796197Y-73052855D01*
X226796192Y-73052857D01*
X226623270Y-73129848D01*
X226623265Y-73129851D01*
X226470129Y-73241111D01*
X226343466Y-73381785D01*
X226248821Y-73545715D01*
X226248818Y-73545722D01*
X226190422Y-73725449D01*
X226190326Y-73725744D01*
X226170795Y-73911575D01*
X226170540Y-73914000D01*
X226190326Y-74102256D01*
X226190328Y-74102262D01*
X226213653Y-74174051D01*
X226215648Y-74243892D01*
X226179567Y-74303724D01*
X226168608Y-74312686D01*
X226051027Y-74398113D01*
X225924366Y-74538785D01*
X225829721Y-74702715D01*
X225829718Y-74702722D01*
X225776497Y-74866522D01*
X225771226Y-74882744D01*
X225751440Y-75071000D01*
X210173150Y-75071000D01*
X210146576Y-75051693D01*
X210146571Y-75051690D01*
X210002433Y-74987515D01*
X209949196Y-74942265D01*
X209934938Y-74912554D01*
X209919981Y-74866522D01*
X209919980Y-74866521D01*
X209919979Y-74866516D01*
X209825333Y-74702584D01*
X209698671Y-74561912D01*
X209698670Y-74561911D01*
X209545534Y-74450651D01*
X209545529Y-74450648D01*
X209372607Y-74373657D01*
X209372602Y-74373655D01*
X209294219Y-74356995D01*
X209232737Y-74323803D01*
X209198961Y-74262640D01*
X209202069Y-74197386D01*
X209216474Y-74153056D01*
X209236260Y-73964800D01*
X209216474Y-73776544D01*
X209157979Y-73596516D01*
X209063333Y-73432584D01*
X209039397Y-73406000D01*
X217280540Y-73406000D01*
X217300326Y-73594256D01*
X217300327Y-73594259D01*
X217358818Y-73774277D01*
X217358821Y-73774284D01*
X217453467Y-73938216D01*
X217546469Y-74041505D01*
X217580129Y-74078888D01*
X217733265Y-74190148D01*
X217733270Y-74190151D01*
X217906192Y-74267142D01*
X217906197Y-74267144D01*
X218091354Y-74306500D01*
X218091355Y-74306500D01*
X218280644Y-74306500D01*
X218280646Y-74306500D01*
X218465803Y-74267144D01*
X218638730Y-74190151D01*
X218791871Y-74078888D01*
X218918533Y-73938216D01*
X219013179Y-73774284D01*
X219071674Y-73594256D01*
X219091460Y-73406000D01*
X219071674Y-73217744D01*
X219013179Y-73037716D01*
X218918533Y-72873784D01*
X218791871Y-72733112D01*
X218791870Y-72733111D01*
X218638734Y-72621851D01*
X218638729Y-72621848D01*
X218465807Y-72544857D01*
X218465802Y-72544855D01*
X218342509Y-72518649D01*
X218307884Y-72511289D01*
X218246403Y-72478098D01*
X218212627Y-72416935D01*
X218217279Y-72347220D01*
X218258883Y-72291088D01*
X218307884Y-72268710D01*
X218465803Y-72235144D01*
X218638730Y-72158151D01*
X218791871Y-72046888D01*
X218918533Y-71906216D01*
X219013179Y-71742284D01*
X219071674Y-71562256D01*
X219091460Y-71374000D01*
X219071674Y-71185744D01*
X219013179Y-71005716D01*
X218918533Y-70841784D01*
X218791871Y-70701112D01*
X218791870Y-70701111D01*
X218638734Y-70589851D01*
X218638729Y-70589848D01*
X218465807Y-70512857D01*
X218465802Y-70512855D01*
X218320001Y-70481865D01*
X218280646Y-70473500D01*
X218091354Y-70473500D01*
X218058897Y-70480398D01*
X217906197Y-70512855D01*
X217906192Y-70512857D01*
X217733270Y-70589848D01*
X217733265Y-70589851D01*
X217580129Y-70701111D01*
X217453466Y-70841785D01*
X217358821Y-71005715D01*
X217358818Y-71005722D01*
X217300782Y-71184341D01*
X217300326Y-71185744D01*
X217280540Y-71374000D01*
X217300326Y-71562256D01*
X217300327Y-71562259D01*
X217358818Y-71742277D01*
X217358821Y-71742284D01*
X217453467Y-71906216D01*
X217580129Y-72046888D01*
X217733265Y-72158148D01*
X217733270Y-72158151D01*
X217906192Y-72235142D01*
X217906197Y-72235144D01*
X218064114Y-72268710D01*
X218125596Y-72301902D01*
X218159372Y-72363065D01*
X218154720Y-72432780D01*
X218113115Y-72488912D01*
X218064114Y-72511290D01*
X217906197Y-72544855D01*
X217906192Y-72544857D01*
X217733270Y-72621848D01*
X217733265Y-72621851D01*
X217580129Y-72733111D01*
X217453466Y-72873785D01*
X217358821Y-73037715D01*
X217358818Y-73037722D01*
X217328884Y-73129851D01*
X217300326Y-73217744D01*
X217280540Y-73406000D01*
X209039397Y-73406000D01*
X208936671Y-73291912D01*
X208866751Y-73241112D01*
X208783534Y-73180651D01*
X208783529Y-73180648D01*
X208610607Y-73103657D01*
X208610602Y-73103655D01*
X208464801Y-73072665D01*
X208425446Y-73064300D01*
X208236154Y-73064300D01*
X208203697Y-73071198D01*
X208050997Y-73103655D01*
X208050992Y-73103657D01*
X207878070Y-73180648D01*
X207878065Y-73180651D01*
X207724929Y-73291911D01*
X207598266Y-73432585D01*
X207503621Y-73596515D01*
X207503618Y-73596522D01*
X207445860Y-73774284D01*
X207445126Y-73776544D01*
X207425340Y-73964800D01*
X203961855Y-73964800D01*
X203885842Y-73911575D01*
X203842217Y-73856998D01*
X203835023Y-73787500D01*
X203866546Y-73725145D01*
X203885842Y-73708425D01*
X203908026Y-73692891D01*
X204071401Y-73578495D01*
X204238495Y-73411401D01*
X204374035Y-73217830D01*
X204473903Y-73003663D01*
X204535063Y-72775408D01*
X204555659Y-72540000D01*
X204535063Y-72304592D01*
X204473903Y-72076337D01*
X204374035Y-71862171D01*
X204368424Y-71854158D01*
X204238496Y-71668600D01*
X204238493Y-71668597D01*
X204116179Y-71546283D01*
X204082696Y-71484963D01*
X204087680Y-71415271D01*
X204129551Y-71359337D01*
X204160529Y-71342422D01*
X204292086Y-71293354D01*
X204292093Y-71293350D01*
X204407187Y-71207190D01*
X204407190Y-71207187D01*
X204493350Y-71092093D01*
X204493354Y-71092086D01*
X204543596Y-70957379D01*
X204543598Y-70957372D01*
X204549999Y-70897844D01*
X204550000Y-70897827D01*
X204550000Y-70250000D01*
X203633686Y-70250000D01*
X203659493Y-70209844D01*
X203700000Y-70071889D01*
X203700000Y-69928111D01*
X203659493Y-69790156D01*
X203633686Y-69750000D01*
X204550000Y-69750000D01*
X204550000Y-69102172D01*
X204549999Y-69102155D01*
X204543598Y-69042627D01*
X204543596Y-69042620D01*
X204493354Y-68907913D01*
X204493350Y-68907906D01*
X204407190Y-68792812D01*
X204407187Y-68792809D01*
X204292093Y-68706649D01*
X204292086Y-68706645D01*
X204157379Y-68656403D01*
X204157372Y-68656401D01*
X204097844Y-68650000D01*
X203450000Y-68650000D01*
X203450000Y-69564498D01*
X203342315Y-69515320D01*
X203235763Y-69500000D01*
X203164237Y-69500000D01*
X203057685Y-69515320D01*
X202950000Y-69564498D01*
X202950000Y-68650000D01*
X202302155Y-68650000D01*
X202242627Y-68656401D01*
X202242620Y-68656403D01*
X202107913Y-68706645D01*
X202107906Y-68706649D01*
X201992812Y-68792809D01*
X201992809Y-68792812D01*
X201906649Y-68907906D01*
X201906646Y-68907911D01*
X201857385Y-69039987D01*
X201815513Y-69095920D01*
X201750049Y-69120337D01*
X201681776Y-69105485D01*
X201653522Y-69084334D01*
X201531082Y-68961894D01*
X201337578Y-68826399D01*
X201123492Y-68726570D01*
X201123486Y-68726567D01*
X200910000Y-68669364D01*
X200910000Y-69564498D01*
X200802315Y-69515320D01*
X200695763Y-69500000D01*
X200624237Y-69500000D01*
X200517685Y-69515320D01*
X200410000Y-69564498D01*
X200410000Y-68669364D01*
X200409999Y-68669364D01*
X200196513Y-68726567D01*
X200196507Y-68726570D01*
X199982422Y-68826399D01*
X199982420Y-68826400D01*
X199788926Y-68961886D01*
X199788920Y-68961891D01*
X199621891Y-69128920D01*
X199621886Y-69128926D01*
X199486400Y-69322420D01*
X199486399Y-69322422D01*
X199386570Y-69536507D01*
X199386567Y-69536513D01*
X199329364Y-69749999D01*
X199329364Y-69750000D01*
X200226314Y-69750000D01*
X200200507Y-69790156D01*
X200160000Y-69928111D01*
X200160000Y-70071889D01*
X200200507Y-70209844D01*
X200226314Y-70250000D01*
X199329364Y-70250000D01*
X199386567Y-70463486D01*
X199386570Y-70463492D01*
X199486399Y-70677578D01*
X199621894Y-70871082D01*
X199788917Y-71038105D01*
X199974595Y-71168119D01*
X200018219Y-71222696D01*
X200025412Y-71292195D01*
X199993890Y-71354549D01*
X199974595Y-71371269D01*
X199788594Y-71501508D01*
X199621505Y-71668597D01*
X199485965Y-71862169D01*
X199485964Y-71862171D01*
X199386098Y-72076335D01*
X199386094Y-72076344D01*
X199324938Y-72304586D01*
X199324936Y-72304596D01*
X199304341Y-72539999D01*
X199304341Y-72540000D01*
X199324936Y-72775403D01*
X199324938Y-72775413D01*
X199386094Y-73003655D01*
X199386096Y-73003659D01*
X199386097Y-73003663D01*
X199409037Y-73052857D01*
X199485965Y-73217830D01*
X199485967Y-73217834D01*
X199594281Y-73372521D01*
X199621501Y-73411396D01*
X199621506Y-73411402D01*
X199788597Y-73578493D01*
X199788603Y-73578498D01*
X199974158Y-73708425D01*
X200017783Y-73763002D01*
X200024977Y-73832500D01*
X199993454Y-73894855D01*
X199974158Y-73911575D01*
X199788597Y-74041505D01*
X199621505Y-74208597D01*
X199485965Y-74402169D01*
X199485964Y-74402171D01*
X199386098Y-74616335D01*
X199386094Y-74616344D01*
X199324938Y-74844586D01*
X199324936Y-74844596D01*
X199304341Y-75079999D01*
X199304341Y-75080000D01*
X199324936Y-75315403D01*
X199324938Y-75315413D01*
X199386094Y-75543655D01*
X199386096Y-75543659D01*
X199386097Y-75543663D01*
X199466004Y-75715023D01*
X199485965Y-75757830D01*
X199485967Y-75757834D01*
X199554108Y-75855148D01*
X199621501Y-75951396D01*
X199621506Y-75951402D01*
X199788597Y-76118493D01*
X199788603Y-76118498D01*
X199974158Y-76248425D01*
X200017783Y-76303002D01*
X200024977Y-76372500D01*
X199993454Y-76434855D01*
X199974158Y-76451575D01*
X199788597Y-76581505D01*
X199621505Y-76748597D01*
X199485965Y-76942169D01*
X199485964Y-76942171D01*
X199386098Y-77156335D01*
X199386094Y-77156344D01*
X199324938Y-77384586D01*
X199324936Y-77384596D01*
X199304341Y-77619999D01*
X199304341Y-77620000D01*
X199324936Y-77855403D01*
X199324938Y-77855413D01*
X199386094Y-78083655D01*
X199386096Y-78083659D01*
X199386097Y-78083663D01*
X199390000Y-78092032D01*
X199485965Y-78297830D01*
X199485967Y-78297834D01*
X199545753Y-78383216D01*
X199621501Y-78491396D01*
X199621506Y-78491402D01*
X199788597Y-78658493D01*
X199788603Y-78658498D01*
X199974158Y-78788425D01*
X200017783Y-78843002D01*
X200024977Y-78912500D01*
X199993454Y-78974855D01*
X199974158Y-78991575D01*
X199788597Y-79121505D01*
X199621505Y-79288597D01*
X199485965Y-79482169D01*
X199485964Y-79482171D01*
X199386098Y-79696335D01*
X199386094Y-79696344D01*
X199324938Y-79924586D01*
X199324936Y-79924596D01*
X199304341Y-80159999D01*
X199304341Y-80160000D01*
X199324936Y-80395403D01*
X199324938Y-80395413D01*
X199386094Y-80623655D01*
X199386096Y-80623659D01*
X199386097Y-80623663D01*
X199466004Y-80795023D01*
X199485965Y-80837830D01*
X199485967Y-80837834D01*
X199548302Y-80926857D01*
X199621501Y-81031396D01*
X199621506Y-81031402D01*
X199788597Y-81198493D01*
X199788603Y-81198498D01*
X199974158Y-81328425D01*
X200017783Y-81383002D01*
X200024977Y-81452500D01*
X199993454Y-81514855D01*
X199974158Y-81531575D01*
X199788597Y-81661505D01*
X199621505Y-81828597D01*
X199485965Y-82022169D01*
X199485964Y-82022171D01*
X199386098Y-82236335D01*
X199386094Y-82236344D01*
X199324938Y-82464586D01*
X199324936Y-82464596D01*
X199304341Y-82699999D01*
X199304341Y-82700000D01*
X199324936Y-82935403D01*
X199324938Y-82935413D01*
X199386094Y-83163655D01*
X199386096Y-83163659D01*
X199386097Y-83163663D01*
X199403965Y-83201980D01*
X199485965Y-83377830D01*
X199485967Y-83377834D01*
X199555326Y-83476888D01*
X199621501Y-83571396D01*
X199621506Y-83571402D01*
X199788597Y-83738493D01*
X199788603Y-83738498D01*
X199974158Y-83868425D01*
X200017783Y-83923002D01*
X200024977Y-83992500D01*
X199993454Y-84054855D01*
X199974158Y-84071575D01*
X199788597Y-84201505D01*
X199621505Y-84368597D01*
X199485965Y-84562169D01*
X199485964Y-84562171D01*
X199386098Y-84776335D01*
X199386094Y-84776344D01*
X199324938Y-85004586D01*
X199324936Y-85004596D01*
X199304341Y-85239999D01*
X199304341Y-85240000D01*
X199324936Y-85475403D01*
X199324938Y-85475413D01*
X199386094Y-85703655D01*
X199386096Y-85703659D01*
X199386097Y-85703663D01*
X199425581Y-85788336D01*
X199485965Y-85917830D01*
X199485967Y-85917834D01*
X199564192Y-86029550D01*
X199621501Y-86111396D01*
X199621506Y-86111402D01*
X199788597Y-86278493D01*
X199788603Y-86278498D01*
X199974158Y-86408425D01*
X200017783Y-86463002D01*
X200024977Y-86532500D01*
X199993454Y-86594855D01*
X199974158Y-86611575D01*
X199788597Y-86741505D01*
X199621505Y-86908597D01*
X199485965Y-87102169D01*
X199485964Y-87102171D01*
X199386098Y-87316335D01*
X199386094Y-87316344D01*
X199324938Y-87544586D01*
X199324936Y-87544596D01*
X199304341Y-87779999D01*
X199304341Y-87780000D01*
X199324936Y-88015403D01*
X199324938Y-88015413D01*
X199386094Y-88243655D01*
X199386096Y-88243659D01*
X199386097Y-88243663D01*
X199466004Y-88415023D01*
X199485965Y-88457830D01*
X199485967Y-88457834D01*
X199536118Y-88529456D01*
X199621501Y-88651396D01*
X199621506Y-88651402D01*
X199788597Y-88818493D01*
X199788603Y-88818498D01*
X199974158Y-88948425D01*
X200017783Y-89003002D01*
X200024977Y-89072500D01*
X199993454Y-89134855D01*
X199974158Y-89151575D01*
X199788597Y-89281505D01*
X199621505Y-89448597D01*
X199485965Y-89642169D01*
X199485964Y-89642171D01*
X199386098Y-89856335D01*
X199386094Y-89856344D01*
X199324938Y-90084586D01*
X199324936Y-90084596D01*
X199304341Y-90319999D01*
X199304341Y-90320000D01*
X199324936Y-90555403D01*
X199324938Y-90555413D01*
X199386094Y-90783655D01*
X199386096Y-90783659D01*
X199386097Y-90783663D01*
X199466004Y-90955023D01*
X199485965Y-90997830D01*
X199485967Y-90997834D01*
X199594281Y-91152521D01*
X199621501Y-91191396D01*
X199621506Y-91191402D01*
X199788597Y-91358493D01*
X199788603Y-91358498D01*
X199974158Y-91488425D01*
X200017783Y-91543002D01*
X200024977Y-91612500D01*
X199993454Y-91674855D01*
X199974158Y-91691575D01*
X199788597Y-91821505D01*
X199621505Y-91988597D01*
X199485965Y-92182169D01*
X199485964Y-92182171D01*
X199386098Y-92396335D01*
X199386094Y-92396344D01*
X199324938Y-92624586D01*
X199324936Y-92624596D01*
X199304341Y-92859999D01*
X199304341Y-92860000D01*
X199324936Y-93095403D01*
X199324938Y-93095413D01*
X199386094Y-93323655D01*
X199386096Y-93323659D01*
X199386097Y-93323663D01*
X199466004Y-93495023D01*
X199485965Y-93537830D01*
X199485967Y-93537834D01*
X199594281Y-93692521D01*
X199621501Y-93731396D01*
X199621506Y-93731402D01*
X199788597Y-93898493D01*
X199788603Y-93898498D01*
X199974158Y-94028425D01*
X200017783Y-94083002D01*
X200024977Y-94152500D01*
X199993454Y-94214855D01*
X199974158Y-94231575D01*
X199788597Y-94361505D01*
X199621505Y-94528597D01*
X199485965Y-94722169D01*
X199485964Y-94722171D01*
X199386098Y-94936335D01*
X199386094Y-94936344D01*
X199324938Y-95164586D01*
X199324936Y-95164596D01*
X199304341Y-95399999D01*
X199304341Y-95400000D01*
X198755000Y-95400000D01*
X198755000Y-68529200D01*
X206104540Y-68529200D01*
X206124326Y-68717456D01*
X206124327Y-68717459D01*
X206182818Y-68897477D01*
X206182821Y-68897484D01*
X206277467Y-69061416D01*
X206404129Y-69202088D01*
X206557265Y-69313348D01*
X206557270Y-69313351D01*
X206730192Y-69390342D01*
X206730197Y-69390344D01*
X206915354Y-69429700D01*
X206915355Y-69429700D01*
X207104644Y-69429700D01*
X207104646Y-69429700D01*
X207289803Y-69390344D01*
X207462730Y-69313351D01*
X207615871Y-69202088D01*
X207718597Y-69088000D01*
X217280540Y-69088000D01*
X217300326Y-69276256D01*
X217300327Y-69276259D01*
X217358818Y-69456277D01*
X217358821Y-69456284D01*
X217453467Y-69620216D01*
X217570325Y-69750000D01*
X217580129Y-69760888D01*
X217733265Y-69872148D01*
X217733270Y-69872151D01*
X217906192Y-69949142D01*
X217906197Y-69949144D01*
X218091354Y-69988500D01*
X218091355Y-69988500D01*
X218280644Y-69988500D01*
X218280646Y-69988500D01*
X218465803Y-69949144D01*
X218638730Y-69872151D01*
X218791871Y-69760888D01*
X218918533Y-69620216D01*
X219013179Y-69456284D01*
X219071674Y-69276256D01*
X219091460Y-69088000D01*
X219071674Y-68899744D01*
X219013179Y-68719716D01*
X218918533Y-68555784D01*
X218791871Y-68415112D01*
X218791870Y-68415111D01*
X218638734Y-68303851D01*
X218638729Y-68303848D01*
X218465807Y-68226857D01*
X218465802Y-68226855D01*
X218320001Y-68195865D01*
X218280646Y-68187500D01*
X218091354Y-68187500D01*
X218058897Y-68194398D01*
X217906197Y-68226855D01*
X217906192Y-68226857D01*
X217733270Y-68303848D01*
X217733265Y-68303851D01*
X217580129Y-68415111D01*
X217453466Y-68555785D01*
X217358821Y-68719715D01*
X217358818Y-68719722D01*
X217301060Y-68897484D01*
X217300326Y-68899744D01*
X217280540Y-69088000D01*
X207718597Y-69088000D01*
X207742533Y-69061416D01*
X207837179Y-68897484D01*
X207895674Y-68717456D01*
X207915460Y-68529200D01*
X207895674Y-68340944D01*
X207837179Y-68160916D01*
X207742533Y-67996984D01*
X207615871Y-67856312D01*
X207615870Y-67856311D01*
X207462734Y-67745051D01*
X207462729Y-67745048D01*
X207289807Y-67668057D01*
X207289802Y-67668055D01*
X207144001Y-67637065D01*
X207104646Y-67628700D01*
X206915354Y-67628700D01*
X206882897Y-67635598D01*
X206730197Y-67668055D01*
X206730192Y-67668057D01*
X206557270Y-67745048D01*
X206557265Y-67745051D01*
X206404129Y-67856311D01*
X206277466Y-67996985D01*
X206182821Y-68160915D01*
X206182818Y-68160922D01*
X206161395Y-68226857D01*
X206124326Y-68340944D01*
X206104540Y-68529200D01*
X198755000Y-68529200D01*
X198755000Y-63350003D01*
X201653584Y-63350003D01*
X201673229Y-63687298D01*
X201673230Y-63687309D01*
X201731896Y-64020017D01*
X201731899Y-64020031D01*
X201828801Y-64343710D01*
X201962621Y-64653939D01*
X201962627Y-64653952D01*
X202131560Y-64946553D01*
X202333318Y-65217561D01*
X202333323Y-65217567D01*
X202453069Y-65344489D01*
X202565183Y-65463323D01*
X202565189Y-65463328D01*
X202565191Y-65463330D01*
X202824001Y-65680499D01*
X202824006Y-65680502D01*
X203106292Y-65866164D01*
X203408224Y-66017800D01*
X203725717Y-66133358D01*
X204054480Y-66211276D01*
X204390065Y-66250500D01*
X204390072Y-66250500D01*
X204727928Y-66250500D01*
X204727935Y-66250500D01*
X205063520Y-66211276D01*
X205392283Y-66133358D01*
X205709776Y-66017800D01*
X206011708Y-65866164D01*
X206293994Y-65680502D01*
X206428254Y-65567844D01*
X210259000Y-65567844D01*
X210265401Y-65627372D01*
X210265403Y-65627379D01*
X210315645Y-65762086D01*
X210315649Y-65762093D01*
X210401809Y-65877187D01*
X210401812Y-65877190D01*
X210516906Y-65963350D01*
X210516913Y-65963354D01*
X210651620Y-66013596D01*
X210651627Y-66013598D01*
X210711155Y-66019999D01*
X210711172Y-66020000D01*
X211259000Y-66020000D01*
X211259000Y-65205501D01*
X211366685Y-65254680D01*
X211473237Y-65270000D01*
X211544763Y-65270000D01*
X211651315Y-65254680D01*
X211759000Y-65205501D01*
X211759000Y-66020000D01*
X212306828Y-66020000D01*
X212306844Y-66019999D01*
X212366372Y-66013598D01*
X212366379Y-66013596D01*
X212501086Y-65963354D01*
X212501093Y-65963350D01*
X212616187Y-65877190D01*
X212616190Y-65877187D01*
X212702350Y-65762093D01*
X212702354Y-65762086D01*
X212752596Y-65627379D01*
X212752598Y-65627372D01*
X212758999Y-65567844D01*
X212759000Y-65567827D01*
X212759000Y-65020000D01*
X211942686Y-65020000D01*
X211968493Y-64979844D01*
X212009000Y-64841889D01*
X212009000Y-64770000D01*
X213025723Y-64770000D01*
X213044081Y-64979844D01*
X213044793Y-64987975D01*
X213044793Y-64987979D01*
X213101422Y-65199322D01*
X213101424Y-65199326D01*
X213101425Y-65199330D01*
X213109929Y-65217567D01*
X213193897Y-65397638D01*
X213193898Y-65397639D01*
X213319402Y-65576877D01*
X213474123Y-65731598D01*
X213653361Y-65857102D01*
X213851670Y-65949575D01*
X214063023Y-66006207D01*
X214245926Y-66022208D01*
X214280998Y-66025277D01*
X214281000Y-66025277D01*
X214281002Y-66025277D01*
X214309254Y-66022805D01*
X214498977Y-66006207D01*
X214710330Y-65949575D01*
X214908639Y-65857102D01*
X215087877Y-65731598D01*
X215242598Y-65576877D01*
X215368102Y-65397639D01*
X215460575Y-65199330D01*
X215517207Y-64987977D01*
X215536277Y-64770000D01*
X215798723Y-64770000D01*
X215817081Y-64979844D01*
X215817793Y-64987975D01*
X215817793Y-64987979D01*
X215874422Y-65199322D01*
X215874424Y-65199326D01*
X215874425Y-65199330D01*
X215882929Y-65217567D01*
X215966897Y-65397638D01*
X215966898Y-65397639D01*
X216092402Y-65576877D01*
X216247123Y-65731598D01*
X216426361Y-65857102D01*
X216624670Y-65949575D01*
X216836023Y-66006207D01*
X217018926Y-66022208D01*
X217053998Y-66025277D01*
X217054000Y-66025277D01*
X217054002Y-66025277D01*
X217082254Y-66022805D01*
X217271977Y-66006207D01*
X217483330Y-65949575D01*
X217681639Y-65857102D01*
X217860877Y-65731598D01*
X218015598Y-65576877D01*
X218141102Y-65397639D01*
X218233575Y-65199330D01*
X218290207Y-64987977D01*
X218309277Y-64770000D01*
X218570723Y-64770000D01*
X218589081Y-64979844D01*
X218589793Y-64987975D01*
X218589793Y-64987979D01*
X218646422Y-65199322D01*
X218646424Y-65199326D01*
X218646425Y-65199330D01*
X218654929Y-65217567D01*
X218738897Y-65397638D01*
X218738898Y-65397639D01*
X218864402Y-65576877D01*
X219019123Y-65731598D01*
X219198361Y-65857102D01*
X219396670Y-65949575D01*
X219608023Y-66006207D01*
X219790926Y-66022208D01*
X219825998Y-66025277D01*
X219826000Y-66025277D01*
X219826002Y-66025277D01*
X219854254Y-66022805D01*
X220043977Y-66006207D01*
X220255330Y-65949575D01*
X220453639Y-65857102D01*
X220632877Y-65731598D01*
X220787598Y-65576877D01*
X220913102Y-65397639D01*
X221005575Y-65199330D01*
X221062207Y-64987977D01*
X221081277Y-64770000D01*
X221344225Y-64770000D01*
X221363287Y-64987884D01*
X221363289Y-64987894D01*
X221419894Y-65199150D01*
X221419898Y-65199159D01*
X221512333Y-65397387D01*
X221555874Y-65459571D01*
X222115922Y-64899523D01*
X222139507Y-64979844D01*
X222217239Y-65100798D01*
X222325900Y-65194952D01*
X222456685Y-65254680D01*
X222466466Y-65256086D01*
X221909427Y-65813124D01*
X221971612Y-65856666D01*
X222169840Y-65949101D01*
X222169849Y-65949105D01*
X222381105Y-66005710D01*
X222381115Y-66005712D01*
X222598999Y-66024775D01*
X222599001Y-66024775D01*
X222816884Y-66005712D01*
X222816894Y-66005710D01*
X223028150Y-65949105D01*
X223028164Y-65949100D01*
X223226383Y-65856669D01*
X223226385Y-65856668D01*
X223288571Y-65813124D01*
X222731534Y-65256086D01*
X222741315Y-65254680D01*
X222872100Y-65194952D01*
X222980761Y-65100798D01*
X223058493Y-64979844D01*
X223082076Y-64899523D01*
X223642124Y-65459570D01*
X223685668Y-65397385D01*
X223685669Y-65397383D01*
X223778100Y-65199164D01*
X223778105Y-65199150D01*
X223834710Y-64987894D01*
X223834712Y-64987884D01*
X223853775Y-64770000D01*
X223853775Y-64769999D01*
X223834712Y-64552115D01*
X223834710Y-64552105D01*
X223778105Y-64340849D01*
X223778101Y-64340840D01*
X223685667Y-64142614D01*
X223685666Y-64142612D01*
X223642124Y-64080428D01*
X223642124Y-64080427D01*
X223082076Y-64640475D01*
X223058493Y-64560156D01*
X222980761Y-64439202D01*
X222872100Y-64345048D01*
X222741315Y-64285320D01*
X222731533Y-64283913D01*
X223288571Y-63726874D01*
X223226387Y-63683333D01*
X223028159Y-63590898D01*
X223028150Y-63590894D01*
X222816894Y-63534289D01*
X222816884Y-63534287D01*
X222599001Y-63515225D01*
X222598999Y-63515225D01*
X222381115Y-63534287D01*
X222381105Y-63534289D01*
X222169849Y-63590894D01*
X222169840Y-63590898D01*
X221971613Y-63683333D01*
X221909428Y-63726874D01*
X222466467Y-64283913D01*
X222456685Y-64285320D01*
X222325900Y-64345048D01*
X222217239Y-64439202D01*
X222139507Y-64560156D01*
X222115922Y-64640476D01*
X221555874Y-64080428D01*
X221512333Y-64142613D01*
X221419898Y-64340840D01*
X221419894Y-64340849D01*
X221363289Y-64552105D01*
X221363287Y-64552115D01*
X221344225Y-64769999D01*
X221344225Y-64770000D01*
X221081277Y-64770000D01*
X221062207Y-64552023D01*
X221005575Y-64340670D01*
X220913102Y-64142362D01*
X220913100Y-64142359D01*
X220913099Y-64142357D01*
X220787599Y-63963124D01*
X220737095Y-63912620D01*
X220632877Y-63808402D01*
X220459923Y-63687298D01*
X220453638Y-63682897D01*
X220354484Y-63636661D01*
X220255330Y-63590425D01*
X220255326Y-63590424D01*
X220255322Y-63590422D01*
X220043977Y-63533793D01*
X219826002Y-63514723D01*
X219825998Y-63514723D01*
X219692516Y-63526401D01*
X219608023Y-63533793D01*
X219608020Y-63533793D01*
X219396677Y-63590422D01*
X219396668Y-63590426D01*
X219198361Y-63682898D01*
X219198357Y-63682900D01*
X219019121Y-63808402D01*
X218864402Y-63963121D01*
X218738900Y-64142357D01*
X218738898Y-64142361D01*
X218646426Y-64340668D01*
X218646422Y-64340677D01*
X218589793Y-64552020D01*
X218589793Y-64552023D01*
X218570723Y-64770000D01*
X218309277Y-64770000D01*
X218290207Y-64552023D01*
X218233575Y-64340670D01*
X218141102Y-64142362D01*
X218141100Y-64142359D01*
X218141099Y-64142357D01*
X218015599Y-63963124D01*
X217965095Y-63912620D01*
X217860877Y-63808402D01*
X217687923Y-63687298D01*
X217681638Y-63682897D01*
X217582484Y-63636661D01*
X217483330Y-63590425D01*
X217483326Y-63590424D01*
X217483322Y-63590422D01*
X217271977Y-63533793D01*
X217054002Y-63514723D01*
X217053998Y-63514723D01*
X216920516Y-63526401D01*
X216836023Y-63533793D01*
X216836020Y-63533793D01*
X216624677Y-63590422D01*
X216624668Y-63590426D01*
X216426361Y-63682898D01*
X216426357Y-63682900D01*
X216247121Y-63808402D01*
X216092402Y-63963121D01*
X215966900Y-64142357D01*
X215966898Y-64142361D01*
X215874426Y-64340668D01*
X215874422Y-64340677D01*
X215817793Y-64552020D01*
X215817793Y-64552023D01*
X215798723Y-64770000D01*
X215536277Y-64770000D01*
X215517207Y-64552023D01*
X215460575Y-64340670D01*
X215368102Y-64142362D01*
X215368100Y-64142359D01*
X215368099Y-64142357D01*
X215242599Y-63963124D01*
X215192095Y-63912620D01*
X215087877Y-63808402D01*
X214914923Y-63687298D01*
X214908638Y-63682897D01*
X214809484Y-63636661D01*
X214710330Y-63590425D01*
X214710326Y-63590424D01*
X214710322Y-63590422D01*
X214498977Y-63533793D01*
X214281002Y-63514723D01*
X214280998Y-63514723D01*
X214147516Y-63526401D01*
X214063023Y-63533793D01*
X214063020Y-63533793D01*
X213851677Y-63590422D01*
X213851668Y-63590426D01*
X213653361Y-63682898D01*
X213653357Y-63682900D01*
X213474121Y-63808402D01*
X213319402Y-63963121D01*
X213193900Y-64142357D01*
X213193898Y-64142361D01*
X213101426Y-64340668D01*
X213101422Y-64340677D01*
X213044793Y-64552020D01*
X213044793Y-64552023D01*
X213025723Y-64770000D01*
X212009000Y-64770000D01*
X212009000Y-64698111D01*
X211968493Y-64560156D01*
X211942686Y-64520000D01*
X212759000Y-64520000D01*
X212759000Y-63972172D01*
X212758999Y-63972155D01*
X212752598Y-63912627D01*
X212752596Y-63912620D01*
X212702354Y-63777913D01*
X212702350Y-63777906D01*
X212616190Y-63662812D01*
X212616187Y-63662809D01*
X212501093Y-63576649D01*
X212501086Y-63576645D01*
X212366379Y-63526403D01*
X212366372Y-63526401D01*
X212306844Y-63520000D01*
X211759000Y-63520000D01*
X211759000Y-64334498D01*
X211651315Y-64285320D01*
X211544763Y-64270000D01*
X211473237Y-64270000D01*
X211366685Y-64285320D01*
X211259000Y-64334498D01*
X211259000Y-63520000D01*
X210711155Y-63520000D01*
X210651627Y-63526401D01*
X210651620Y-63526403D01*
X210516913Y-63576645D01*
X210516906Y-63576649D01*
X210401812Y-63662809D01*
X210401809Y-63662812D01*
X210315649Y-63777906D01*
X210315645Y-63777913D01*
X210265403Y-63912620D01*
X210265401Y-63912627D01*
X210259000Y-63972155D01*
X210259000Y-64520000D01*
X211075314Y-64520000D01*
X211049507Y-64560156D01*
X211009000Y-64698111D01*
X211009000Y-64841889D01*
X211049507Y-64979844D01*
X211075314Y-65020000D01*
X210259000Y-65020000D01*
X210259000Y-65567844D01*
X206428254Y-65567844D01*
X206552817Y-65463323D01*
X206784678Y-65217565D01*
X206986440Y-64946552D01*
X207155375Y-64653948D01*
X207289198Y-64343711D01*
X207386100Y-64020035D01*
X207444771Y-63687298D01*
X207464416Y-63350000D01*
X207444771Y-63012702D01*
X207386100Y-62679965D01*
X207289198Y-62356289D01*
X207155375Y-62046052D01*
X207088372Y-61930000D01*
X211640225Y-61930000D01*
X211659287Y-62147884D01*
X211659289Y-62147894D01*
X211715894Y-62359150D01*
X211715898Y-62359159D01*
X211808333Y-62557387D01*
X211851874Y-62619571D01*
X212411922Y-62059523D01*
X212435507Y-62139844D01*
X212513239Y-62260798D01*
X212621900Y-62354952D01*
X212752685Y-62414680D01*
X212762466Y-62416086D01*
X212205427Y-62973124D01*
X212267612Y-63016666D01*
X212465840Y-63109101D01*
X212465849Y-63109105D01*
X212677105Y-63165710D01*
X212677115Y-63165712D01*
X212894999Y-63184775D01*
X212895001Y-63184775D01*
X213112884Y-63165712D01*
X213112894Y-63165710D01*
X213324150Y-63109105D01*
X213324164Y-63109100D01*
X213522383Y-63016669D01*
X213522385Y-63016668D01*
X213584571Y-62973124D01*
X213027534Y-62416086D01*
X213037315Y-62414680D01*
X213168100Y-62354952D01*
X213276761Y-62260798D01*
X213354493Y-62139844D01*
X213378076Y-62059523D01*
X213938124Y-62619570D01*
X213981668Y-62557385D01*
X213981669Y-62557383D01*
X214074100Y-62359164D01*
X214074105Y-62359150D01*
X214130710Y-62147894D01*
X214130712Y-62147884D01*
X214149775Y-61930000D01*
X214412723Y-61930000D01*
X214431081Y-62139844D01*
X214431793Y-62147975D01*
X214431793Y-62147979D01*
X214488422Y-62359322D01*
X214488424Y-62359326D01*
X214488425Y-62359330D01*
X214514235Y-62414680D01*
X214580897Y-62557638D01*
X214580898Y-62557639D01*
X214706402Y-62736877D01*
X214861123Y-62891598D01*
X215040361Y-63017102D01*
X215238670Y-63109575D01*
X215450023Y-63166207D01*
X215632926Y-63182208D01*
X215667998Y-63185277D01*
X215668000Y-63185277D01*
X215668002Y-63185277D01*
X215696254Y-63182805D01*
X215885977Y-63166207D01*
X216097330Y-63109575D01*
X216295639Y-63017102D01*
X216474877Y-62891598D01*
X216629598Y-62736877D01*
X216755102Y-62557639D01*
X216847575Y-62359330D01*
X216904207Y-62147977D01*
X216923277Y-61930000D01*
X217184723Y-61930000D01*
X217203081Y-62139844D01*
X217203793Y-62147975D01*
X217203793Y-62147979D01*
X217260422Y-62359322D01*
X217260424Y-62359326D01*
X217260425Y-62359330D01*
X217286235Y-62414680D01*
X217352897Y-62557638D01*
X217352898Y-62557639D01*
X217478402Y-62736877D01*
X217633123Y-62891598D01*
X217812361Y-63017102D01*
X218010670Y-63109575D01*
X218222023Y-63166207D01*
X218404926Y-63182208D01*
X218439998Y-63185277D01*
X218440000Y-63185277D01*
X218440002Y-63185277D01*
X218468254Y-63182805D01*
X218657977Y-63166207D01*
X218869330Y-63109575D01*
X219067639Y-63017102D01*
X219246877Y-62891598D01*
X219401598Y-62736877D01*
X219527102Y-62557639D01*
X219619575Y-62359330D01*
X219676207Y-62147977D01*
X219695277Y-61930000D01*
X219958225Y-61930000D01*
X219977287Y-62147884D01*
X219977289Y-62147894D01*
X220033894Y-62359150D01*
X220033898Y-62359159D01*
X220126333Y-62557387D01*
X220169874Y-62619571D01*
X220729922Y-62059523D01*
X220753507Y-62139844D01*
X220831239Y-62260798D01*
X220939900Y-62354952D01*
X221070685Y-62414680D01*
X221080466Y-62416086D01*
X220523427Y-62973124D01*
X220585612Y-63016666D01*
X220783840Y-63109101D01*
X220783849Y-63109105D01*
X220995105Y-63165710D01*
X220995115Y-63165712D01*
X221212999Y-63184775D01*
X221213001Y-63184775D01*
X221430884Y-63165712D01*
X221430894Y-63165710D01*
X221642150Y-63109105D01*
X221642164Y-63109100D01*
X221840383Y-63016669D01*
X221840385Y-63016668D01*
X221902571Y-62973124D01*
X221345534Y-62416086D01*
X221355315Y-62414680D01*
X221486100Y-62354952D01*
X221594761Y-62260798D01*
X221672493Y-62139844D01*
X221696076Y-62059523D01*
X222256124Y-62619570D01*
X222299668Y-62557385D01*
X222299669Y-62557383D01*
X222333888Y-62484000D01*
X224138540Y-62484000D01*
X224158326Y-62672256D01*
X224158327Y-62672259D01*
X224216818Y-62852277D01*
X224216821Y-62852284D01*
X224311467Y-63016216D01*
X224395528Y-63109575D01*
X224438129Y-63156888D01*
X224591265Y-63268148D01*
X224591270Y-63268151D01*
X224764192Y-63345142D01*
X224764197Y-63345144D01*
X224949354Y-63384500D01*
X224949355Y-63384500D01*
X225138644Y-63384500D01*
X225138646Y-63384500D01*
X225300943Y-63350003D01*
X226643584Y-63350003D01*
X226663229Y-63687298D01*
X226663230Y-63687309D01*
X226721896Y-64020017D01*
X226721899Y-64020031D01*
X226818801Y-64343710D01*
X226952621Y-64653939D01*
X226952627Y-64653952D01*
X227121560Y-64946553D01*
X227323318Y-65217561D01*
X227323323Y-65217567D01*
X227443069Y-65344489D01*
X227555183Y-65463323D01*
X227555189Y-65463328D01*
X227555191Y-65463330D01*
X227814001Y-65680499D01*
X227814006Y-65680502D01*
X228096292Y-65866164D01*
X228398224Y-66017800D01*
X228715717Y-66133358D01*
X229044480Y-66211276D01*
X229380065Y-66250500D01*
X229380072Y-66250500D01*
X229717928Y-66250500D01*
X229717935Y-66250500D01*
X230053520Y-66211276D01*
X230382283Y-66133358D01*
X230699776Y-66017800D01*
X231001708Y-65866164D01*
X231283994Y-65680502D01*
X231542817Y-65463323D01*
X231774678Y-65217565D01*
X231976440Y-64946552D01*
X232145375Y-64653948D01*
X232279198Y-64343711D01*
X232376100Y-64020035D01*
X232434771Y-63687298D01*
X232454416Y-63350000D01*
X232434771Y-63012702D01*
X232376100Y-62679965D01*
X232279198Y-62356289D01*
X232145375Y-62046052D01*
X231976440Y-61753448D01*
X231976439Y-61753446D01*
X231774681Y-61482438D01*
X231774676Y-61482432D01*
X231605024Y-61302613D01*
X231542817Y-61236677D01*
X231542810Y-61236671D01*
X231542808Y-61236669D01*
X231283998Y-61019500D01*
X231142851Y-60926667D01*
X231001708Y-60833836D01*
X230836565Y-60750898D01*
X230699783Y-60682203D01*
X230699777Y-60682200D01*
X230382284Y-60566642D01*
X230382281Y-60566641D01*
X230155639Y-60512926D01*
X230053520Y-60488724D01*
X229717935Y-60449500D01*
X229380065Y-60449500D01*
X229044480Y-60488724D01*
X228715718Y-60566641D01*
X228715715Y-60566642D01*
X228398222Y-60682200D01*
X228398216Y-60682203D01*
X228096295Y-60833834D01*
X227814001Y-61019500D01*
X227555191Y-61236669D01*
X227555181Y-61236679D01*
X227323323Y-61482432D01*
X227323318Y-61482438D01*
X227121560Y-61753446D01*
X226952627Y-62046047D01*
X226952621Y-62046060D01*
X226818801Y-62356289D01*
X226721899Y-62679968D01*
X226721896Y-62679982D01*
X226663230Y-63012690D01*
X226663229Y-63012701D01*
X226643584Y-63349996D01*
X226643584Y-63350003D01*
X225300943Y-63350003D01*
X225323803Y-63345144D01*
X225496730Y-63268151D01*
X225649871Y-63156888D01*
X225776533Y-63016216D01*
X225871179Y-62852284D01*
X225929674Y-62672256D01*
X225949460Y-62484000D01*
X225929674Y-62295744D01*
X225871179Y-62115716D01*
X225826308Y-62037997D01*
X225809836Y-61970100D01*
X225826309Y-61914001D01*
X225871179Y-61836284D01*
X225929674Y-61656256D01*
X225949460Y-61468000D01*
X225929674Y-61279744D01*
X225871179Y-61099716D01*
X225776533Y-60935784D01*
X225649871Y-60795112D01*
X225649870Y-60795111D01*
X225496734Y-60683851D01*
X225496729Y-60683848D01*
X225323807Y-60606857D01*
X225323802Y-60606855D01*
X225178001Y-60575865D01*
X225138646Y-60567500D01*
X224949354Y-60567500D01*
X224916897Y-60574398D01*
X224764197Y-60606855D01*
X224764192Y-60606857D01*
X224591270Y-60683848D01*
X224591265Y-60683851D01*
X224438129Y-60795111D01*
X224311466Y-60935785D01*
X224216821Y-61099715D01*
X224216818Y-61099722D01*
X224158327Y-61279740D01*
X224158326Y-61279744D01*
X224138540Y-61468000D01*
X224158326Y-61656256D01*
X224158327Y-61656259D01*
X224216820Y-61836283D01*
X224261690Y-61914001D01*
X224278162Y-61981901D01*
X224261690Y-62037999D01*
X224216820Y-62115716D01*
X224162287Y-62283553D01*
X224158326Y-62295744D01*
X224138540Y-62484000D01*
X222333888Y-62484000D01*
X222392100Y-62359164D01*
X222392105Y-62359150D01*
X222448710Y-62147894D01*
X222448712Y-62147884D01*
X222467775Y-61930000D01*
X222467775Y-61929999D01*
X222448712Y-61712115D01*
X222448710Y-61712105D01*
X222392105Y-61500849D01*
X222392101Y-61500840D01*
X222299667Y-61302614D01*
X222299666Y-61302612D01*
X222256124Y-61240428D01*
X222256124Y-61240427D01*
X221696076Y-61800475D01*
X221672493Y-61720156D01*
X221594761Y-61599202D01*
X221486100Y-61505048D01*
X221355315Y-61445320D01*
X221345533Y-61443913D01*
X221902571Y-60886874D01*
X221840387Y-60843333D01*
X221642159Y-60750898D01*
X221642150Y-60750894D01*
X221430894Y-60694289D01*
X221430884Y-60694287D01*
X221213001Y-60675225D01*
X221212999Y-60675225D01*
X220995115Y-60694287D01*
X220995105Y-60694289D01*
X220783849Y-60750894D01*
X220783840Y-60750898D01*
X220585613Y-60843333D01*
X220523428Y-60886874D01*
X221080467Y-61443913D01*
X221070685Y-61445320D01*
X220939900Y-61505048D01*
X220831239Y-61599202D01*
X220753507Y-61720156D01*
X220729923Y-61800476D01*
X220169874Y-61240428D01*
X220126333Y-61302613D01*
X220033898Y-61500840D01*
X220033894Y-61500849D01*
X219977289Y-61712105D01*
X219977287Y-61712115D01*
X219958225Y-61929999D01*
X219958225Y-61930000D01*
X219695277Y-61930000D01*
X219676207Y-61712023D01*
X219619575Y-61500670D01*
X219527102Y-61302362D01*
X219527100Y-61302359D01*
X219527099Y-61302357D01*
X219401599Y-61123124D01*
X219378190Y-61099715D01*
X219246877Y-60968402D01*
X219108978Y-60871844D01*
X219067638Y-60842897D01*
X218965159Y-60795111D01*
X218869330Y-60750425D01*
X218869326Y-60750424D01*
X218869322Y-60750422D01*
X218657977Y-60693793D01*
X218440002Y-60674723D01*
X218439998Y-60674723D01*
X218294682Y-60687436D01*
X218222023Y-60693793D01*
X218222020Y-60693793D01*
X218010677Y-60750422D01*
X218010668Y-60750426D01*
X217812361Y-60842898D01*
X217812357Y-60842900D01*
X217633121Y-60968402D01*
X217478402Y-61123121D01*
X217352900Y-61302357D01*
X217352898Y-61302361D01*
X217260426Y-61500668D01*
X217260422Y-61500677D01*
X217203793Y-61712020D01*
X217203793Y-61712023D01*
X217200169Y-61753446D01*
X217186123Y-61914001D01*
X217184723Y-61930000D01*
X216923277Y-61930000D01*
X216904207Y-61712023D01*
X216847575Y-61500670D01*
X216755102Y-61302362D01*
X216755100Y-61302359D01*
X216755099Y-61302357D01*
X216629599Y-61123124D01*
X216606190Y-61099715D01*
X216474877Y-60968402D01*
X216336978Y-60871844D01*
X216295638Y-60842897D01*
X216193159Y-60795111D01*
X216097330Y-60750425D01*
X216097326Y-60750424D01*
X216097322Y-60750422D01*
X215885977Y-60693793D01*
X215668002Y-60674723D01*
X215667998Y-60674723D01*
X215522682Y-60687436D01*
X215450023Y-60693793D01*
X215450020Y-60693793D01*
X215238677Y-60750422D01*
X215238668Y-60750426D01*
X215040361Y-60842898D01*
X215040357Y-60842900D01*
X214861121Y-60968402D01*
X214706402Y-61123121D01*
X214580900Y-61302357D01*
X214580898Y-61302361D01*
X214488426Y-61500668D01*
X214488422Y-61500677D01*
X214431793Y-61712020D01*
X214431793Y-61712023D01*
X214428169Y-61753446D01*
X214414123Y-61914001D01*
X214412723Y-61930000D01*
X214149775Y-61930000D01*
X214149775Y-61929999D01*
X214130712Y-61712115D01*
X214130710Y-61712105D01*
X214074105Y-61500849D01*
X214074101Y-61500840D01*
X213981667Y-61302614D01*
X213981666Y-61302612D01*
X213938124Y-61240428D01*
X213938124Y-61240427D01*
X213378076Y-61800475D01*
X213354493Y-61720156D01*
X213276761Y-61599202D01*
X213168100Y-61505048D01*
X213037315Y-61445320D01*
X213027533Y-61443913D01*
X213584571Y-60886874D01*
X213522387Y-60843333D01*
X213324159Y-60750898D01*
X213324150Y-60750894D01*
X213112894Y-60694289D01*
X213112884Y-60694287D01*
X212895001Y-60675225D01*
X212894999Y-60675225D01*
X212677115Y-60694287D01*
X212677105Y-60694289D01*
X212465849Y-60750894D01*
X212465840Y-60750898D01*
X212267613Y-60843333D01*
X212205428Y-60886874D01*
X212762467Y-61443913D01*
X212752685Y-61445320D01*
X212621900Y-61505048D01*
X212513239Y-61599202D01*
X212435507Y-61720156D01*
X212411922Y-61800476D01*
X211851874Y-61240428D01*
X211808333Y-61302613D01*
X211715898Y-61500840D01*
X211715894Y-61500849D01*
X211659289Y-61712105D01*
X211659287Y-61712115D01*
X211640225Y-61929999D01*
X211640225Y-61930000D01*
X207088372Y-61930000D01*
X206986440Y-61753448D01*
X206986439Y-61753446D01*
X206784681Y-61482438D01*
X206784676Y-61482432D01*
X206615024Y-61302613D01*
X206552817Y-61236677D01*
X206552810Y-61236671D01*
X206552808Y-61236669D01*
X206293998Y-61019500D01*
X206152851Y-60926667D01*
X206011708Y-60833836D01*
X205846565Y-60750898D01*
X205709783Y-60682203D01*
X205709777Y-60682200D01*
X205392284Y-60566642D01*
X205392281Y-60566641D01*
X205165639Y-60512926D01*
X205063520Y-60488724D01*
X204727935Y-60449500D01*
X204390065Y-60449500D01*
X204054480Y-60488724D01*
X203725718Y-60566641D01*
X203725715Y-60566642D01*
X203408222Y-60682200D01*
X203408216Y-60682203D01*
X203106295Y-60833834D01*
X202824001Y-61019500D01*
X202565191Y-61236669D01*
X202565181Y-61236679D01*
X202333323Y-61482432D01*
X202333318Y-61482438D01*
X202131560Y-61753446D01*
X201962627Y-62046047D01*
X201962621Y-62046060D01*
X201828801Y-62356289D01*
X201731899Y-62679968D01*
X201731896Y-62679982D01*
X201673230Y-63012690D01*
X201673229Y-63012701D01*
X201653584Y-63349996D01*
X201653584Y-63350003D01*
X198755000Y-63350003D01*
X198755000Y-57401000D01*
X198774685Y-57333961D01*
X198827489Y-57288206D01*
X198879000Y-57277000D01*
X235334000Y-57277000D01*
X235401039Y-57296685D01*
G37*
G04 #@! TD.AperFunction*
M02*
