G04 #@! TF.GenerationSoftware,KiCad,Pcbnew,7.0.10-7.0.10~ubuntu23.10.1*
G04 #@! TF.CreationDate,2024-03-11T19:26:56+01:00*
G04 #@! TF.ProjectId,peripherialModule,70657269-7068-4657-9269-616c4d6f6475,rev?*
G04 #@! TF.SameCoordinates,Original*
G04 #@! TF.FileFunction,Legend,Bot*
G04 #@! TF.FilePolarity,Positive*
%FSLAX46Y46*%
G04 Gerber Fmt 4.6, Leading zero omitted, Abs format (unit mm)*
G04 Created by KiCad (PCBNEW 7.0.10-7.0.10~ubuntu23.10.1) date 2024-03-11 19:26:56*
%MOMM*%
%LPD*%
G01*
G04 APERTURE LIST*
%ADD10C,0.150000*%
%ADD11C,0.120000*%
%ADD12R,1.700000X1.700000*%
%ADD13O,1.700000X1.700000*%
%ADD14R,1.500000X1.500000*%
%ADD15C,1.500000*%
%ADD16C,4.800000*%
%ADD17R,0.900000X1.700000*%
G04 APERTURE END LIST*
D10*
X221983106Y-105295819D02*
X221983106Y-106010104D01*
X221983106Y-106010104D02*
X222030725Y-106152961D01*
X222030725Y-106152961D02*
X222125963Y-106248200D01*
X222125963Y-106248200D02*
X222268820Y-106295819D01*
X222268820Y-106295819D02*
X222364058Y-106295819D01*
X221030725Y-106295819D02*
X221506915Y-106295819D01*
X221506915Y-106295819D02*
X221506915Y-105295819D01*
X220125963Y-106200580D02*
X220173582Y-106248200D01*
X220173582Y-106248200D02*
X220316439Y-106295819D01*
X220316439Y-106295819D02*
X220411677Y-106295819D01*
X220411677Y-106295819D02*
X220554534Y-106248200D01*
X220554534Y-106248200D02*
X220649772Y-106152961D01*
X220649772Y-106152961D02*
X220697391Y-106057723D01*
X220697391Y-106057723D02*
X220745010Y-105867247D01*
X220745010Y-105867247D02*
X220745010Y-105724390D01*
X220745010Y-105724390D02*
X220697391Y-105533914D01*
X220697391Y-105533914D02*
X220649772Y-105438676D01*
X220649772Y-105438676D02*
X220554534Y-105343438D01*
X220554534Y-105343438D02*
X220411677Y-105295819D01*
X220411677Y-105295819D02*
X220316439Y-105295819D01*
X220316439Y-105295819D02*
X220173582Y-105343438D01*
X220173582Y-105343438D02*
X220125963Y-105391057D01*
X219411677Y-105295819D02*
X219411677Y-106010104D01*
X219411677Y-106010104D02*
X219459296Y-106152961D01*
X219459296Y-106152961D02*
X219554534Y-106248200D01*
X219554534Y-106248200D02*
X219697391Y-106295819D01*
X219697391Y-106295819D02*
X219792629Y-106295819D01*
X218459296Y-106295819D02*
X218935486Y-106295819D01*
X218935486Y-106295819D02*
X218935486Y-105295819D01*
X217554534Y-106200580D02*
X217602153Y-106248200D01*
X217602153Y-106248200D02*
X217745010Y-106295819D01*
X217745010Y-106295819D02*
X217840248Y-106295819D01*
X217840248Y-106295819D02*
X217983105Y-106248200D01*
X217983105Y-106248200D02*
X218078343Y-106152961D01*
X218078343Y-106152961D02*
X218125962Y-106057723D01*
X218125962Y-106057723D02*
X218173581Y-105867247D01*
X218173581Y-105867247D02*
X218173581Y-105724390D01*
X218173581Y-105724390D02*
X218125962Y-105533914D01*
X218125962Y-105533914D02*
X218078343Y-105438676D01*
X218078343Y-105438676D02*
X217983105Y-105343438D01*
X217983105Y-105343438D02*
X217840248Y-105295819D01*
X217840248Y-105295819D02*
X217745010Y-105295819D01*
X217745010Y-105295819D02*
X217602153Y-105343438D01*
X217602153Y-105343438D02*
X217554534Y-105391057D01*
X216840248Y-105295819D02*
X216840248Y-106010104D01*
X216840248Y-106010104D02*
X216887867Y-106152961D01*
X216887867Y-106152961D02*
X216983105Y-106248200D01*
X216983105Y-106248200D02*
X217125962Y-106295819D01*
X217125962Y-106295819D02*
X217221200Y-106295819D01*
X215887867Y-106295819D02*
X216364057Y-106295819D01*
X216364057Y-106295819D02*
X216364057Y-105295819D01*
X214983105Y-106200580D02*
X215030724Y-106248200D01*
X215030724Y-106248200D02*
X215173581Y-106295819D01*
X215173581Y-106295819D02*
X215268819Y-106295819D01*
X215268819Y-106295819D02*
X215411676Y-106248200D01*
X215411676Y-106248200D02*
X215506914Y-106152961D01*
X215506914Y-106152961D02*
X215554533Y-106057723D01*
X215554533Y-106057723D02*
X215602152Y-105867247D01*
X215602152Y-105867247D02*
X215602152Y-105724390D01*
X215602152Y-105724390D02*
X215554533Y-105533914D01*
X215554533Y-105533914D02*
X215506914Y-105438676D01*
X215506914Y-105438676D02*
X215411676Y-105343438D01*
X215411676Y-105343438D02*
X215268819Y-105295819D01*
X215268819Y-105295819D02*
X215173581Y-105295819D01*
X215173581Y-105295819D02*
X215030724Y-105343438D01*
X215030724Y-105343438D02*
X214983105Y-105391057D01*
X214268819Y-105295819D02*
X214268819Y-106010104D01*
X214268819Y-106010104D02*
X214316438Y-106152961D01*
X214316438Y-106152961D02*
X214411676Y-106248200D01*
X214411676Y-106248200D02*
X214554533Y-106295819D01*
X214554533Y-106295819D02*
X214649771Y-106295819D01*
X213316438Y-106295819D02*
X213792628Y-106295819D01*
X213792628Y-106295819D02*
X213792628Y-105295819D01*
X212411676Y-106200580D02*
X212459295Y-106248200D01*
X212459295Y-106248200D02*
X212602152Y-106295819D01*
X212602152Y-106295819D02*
X212697390Y-106295819D01*
X212697390Y-106295819D02*
X212840247Y-106248200D01*
X212840247Y-106248200D02*
X212935485Y-106152961D01*
X212935485Y-106152961D02*
X212983104Y-106057723D01*
X212983104Y-106057723D02*
X213030723Y-105867247D01*
X213030723Y-105867247D02*
X213030723Y-105724390D01*
X213030723Y-105724390D02*
X212983104Y-105533914D01*
X212983104Y-105533914D02*
X212935485Y-105438676D01*
X212935485Y-105438676D02*
X212840247Y-105343438D01*
X212840247Y-105343438D02*
X212697390Y-105295819D01*
X212697390Y-105295819D02*
X212602152Y-105295819D01*
X212602152Y-105295819D02*
X212459295Y-105343438D01*
X212459295Y-105343438D02*
X212411676Y-105391057D01*
D11*
X211504800Y-69929200D02*
X208204800Y-69929200D01*
X211504800Y-69629200D02*
X211504800Y-69929200D01*
X211504800Y-67429200D02*
X211504800Y-67129200D01*
X211504800Y-67129200D02*
X208204800Y-67129200D01*
X208204800Y-69929200D02*
X208204800Y-69629200D01*
X208204800Y-67129200D02*
X208204800Y-67429200D01*
%LPC*%
D12*
X203200000Y-70000000D03*
D13*
X200660000Y-70000000D03*
X203200000Y-72540000D03*
X200660000Y-72540000D03*
X203200000Y-75080000D03*
X200660000Y-75080000D03*
X203200000Y-77620000D03*
X200660000Y-77620000D03*
X203200000Y-80160000D03*
X200660000Y-80160000D03*
X203200000Y-82700000D03*
X200660000Y-82700000D03*
X203200000Y-85240000D03*
X200660000Y-85240000D03*
X203200000Y-87780000D03*
X200660000Y-87780000D03*
X203200000Y-90320000D03*
X200660000Y-90320000D03*
X203200000Y-92860000D03*
X200660000Y-92860000D03*
X203200000Y-95400000D03*
X200660000Y-95400000D03*
D14*
X211509000Y-64770000D03*
D15*
X214281000Y-64770000D03*
X217054000Y-64770000D03*
X219826000Y-64770000D03*
X222599000Y-64770000D03*
X212895000Y-61930000D03*
X215668000Y-61930000D03*
X218440000Y-61930000D03*
X221213000Y-61930000D03*
D16*
X204559000Y-63350000D03*
X229549000Y-63350000D03*
D14*
X222599000Y-100330000D03*
D15*
X219827000Y-100330000D03*
X217054000Y-100330000D03*
X214282000Y-100330000D03*
X211509000Y-100330000D03*
X221213000Y-103170000D03*
X218440000Y-103170000D03*
X215668000Y-103170000D03*
X212895000Y-103170000D03*
D16*
X229549000Y-101750000D03*
X204559000Y-101750000D03*
D12*
X233680000Y-70000000D03*
D13*
X233680000Y-72540000D03*
X233680000Y-75080000D03*
X233680000Y-77620000D03*
X233680000Y-80160000D03*
D12*
X218440000Y-90297000D03*
D13*
X218440000Y-92837000D03*
X218440000Y-95377000D03*
D12*
X223520000Y-90297000D03*
D13*
X223520000Y-92837000D03*
X223520000Y-95377000D03*
D12*
X231140000Y-75080000D03*
D13*
X231140000Y-77620000D03*
X231140000Y-80160000D03*
D17*
X211554800Y-68529200D03*
X208154800Y-68529200D03*
%LPD*%
M02*
