G04 #@! TF.GenerationSoftware,KiCad,Pcbnew,7.0.10-7.0.10~ubuntu23.10.1*
G04 #@! TF.CreationDate,2024-03-11T19:26:56+01:00*
G04 #@! TF.ProjectId,peripherialModule,70657269-7068-4657-9269-616c4d6f6475,rev?*
G04 #@! TF.SameCoordinates,Original*
G04 #@! TF.FileFunction,Paste,Top*
G04 #@! TF.FilePolarity,Positive*
%FSLAX46Y46*%
G04 Gerber Fmt 4.6, Leading zero omitted, Abs format (unit mm)*
G04 Created by KiCad (PCBNEW 7.0.10-7.0.10~ubuntu23.10.1) date 2024-03-11 19:26:56*
%MOMM*%
%LPD*%
G01*
G04 APERTURE LIST*
G04 Aperture macros list*
%AMRoundRect*
0 Rectangle with rounded corners*
0 $1 Rounding radius*
0 $2 $3 $4 $5 $6 $7 $8 $9 X,Y pos of 4 corners*
0 Add a 4 corners polygon primitive as box body*
4,1,4,$2,$3,$4,$5,$6,$7,$8,$9,$2,$3,0*
0 Add four circle primitives for the rounded corners*
1,1,$1+$1,$2,$3*
1,1,$1+$1,$4,$5*
1,1,$1+$1,$6,$7*
1,1,$1+$1,$8,$9*
0 Add four rect primitives between the rounded corners*
20,1,$1+$1,$2,$3,$4,$5,0*
20,1,$1+$1,$4,$5,$6,$7,0*
20,1,$1+$1,$6,$7,$8,$9,0*
20,1,$1+$1,$8,$9,$2,$3,0*%
G04 Aperture macros list end*
%ADD10R,1.473200X0.889000*%
%ADD11R,1.473200X3.149600*%
%ADD12RoundRect,0.250000X-0.412500X-0.650000X0.412500X-0.650000X0.412500X0.650000X-0.412500X0.650000X0*%
%ADD13R,0.650000X1.500000*%
%ADD14RoundRect,0.250000X-0.450000X0.350000X-0.450000X-0.350000X0.450000X-0.350000X0.450000X0.350000X0*%
%ADD15R,1.750000X0.450000*%
%ADD16RoundRect,0.250000X0.650000X-0.412500X0.650000X0.412500X-0.650000X0.412500X-0.650000X-0.412500X0*%
%ADD17RoundRect,0.250000X-0.475000X0.337500X-0.475000X-0.337500X0.475000X-0.337500X0.475000X0.337500X0*%
G04 APERTURE END LIST*
D10*
X221449900Y-73674000D03*
X221449900Y-71374000D03*
X221449900Y-69074000D03*
D11*
X214922100Y-71374000D03*
D12*
X211543500Y-88900000D03*
X214668500Y-88900000D03*
D13*
X215011000Y-91362750D03*
X213741000Y-91362750D03*
X212471000Y-91362750D03*
X211201000Y-91362750D03*
X211201000Y-96762750D03*
X212471000Y-96762750D03*
X213741000Y-96762750D03*
X215011000Y-96762750D03*
D14*
X211429600Y-70628000D03*
X211429600Y-72628000D03*
D15*
X214078000Y-77944000D03*
X214078000Y-78594000D03*
X214078000Y-79244000D03*
X214078000Y-79894000D03*
X214078000Y-80544000D03*
X214078000Y-81194000D03*
X214078000Y-81844000D03*
X214078000Y-82494000D03*
X214078000Y-83144000D03*
X214078000Y-83794000D03*
X214078000Y-84444000D03*
X214078000Y-85094000D03*
X214078000Y-85744000D03*
X214078000Y-86394000D03*
X221278000Y-86394000D03*
X221278000Y-85744000D03*
X221278000Y-85094000D03*
X221278000Y-84444000D03*
X221278000Y-83794000D03*
X221278000Y-83144000D03*
X221278000Y-82494000D03*
X221278000Y-81844000D03*
X221278000Y-81194000D03*
X221278000Y-80544000D03*
X221278000Y-79894000D03*
X221278000Y-79244000D03*
X221278000Y-78594000D03*
X221278000Y-77944000D03*
D12*
X223989500Y-82423000D03*
X227114500Y-82423000D03*
X208330400Y-68340000D03*
X211455400Y-68340000D03*
X223570400Y-68975000D03*
X226695400Y-68975000D03*
D16*
X209080500Y-96768250D03*
X209080500Y-93643250D03*
D17*
X223608900Y-71493500D03*
X223608900Y-73568500D03*
D14*
X208330800Y-70577200D03*
X208330800Y-72577200D03*
M02*
