G04 #@! TF.GenerationSoftware,KiCad,Pcbnew,7.0.10-7.0.10~ubuntu23.10.1*
G04 #@! TF.CreationDate,2024-03-11T19:26:55+01:00*
G04 #@! TF.ProjectId,peripherialModule,70657269-7068-4657-9269-616c4d6f6475,rev?*
G04 #@! TF.SameCoordinates,Original*
G04 #@! TF.FileFunction,Copper,L3,Inr*
G04 #@! TF.FilePolarity,Positive*
%FSLAX46Y46*%
G04 Gerber Fmt 4.6, Leading zero omitted, Abs format (unit mm)*
G04 Created by KiCad (PCBNEW 7.0.10-7.0.10~ubuntu23.10.1) date 2024-03-11 19:26:55*
%MOMM*%
%LPD*%
G01*
G04 APERTURE LIST*
G04 #@! TA.AperFunction,ComponentPad*
%ADD10R,1.700000X1.700000*%
G04 #@! TD*
G04 #@! TA.AperFunction,ComponentPad*
%ADD11O,1.700000X1.700000*%
G04 #@! TD*
G04 #@! TA.AperFunction,ComponentPad*
%ADD12R,1.500000X1.500000*%
G04 #@! TD*
G04 #@! TA.AperFunction,ComponentPad*
%ADD13C,1.500000*%
G04 #@! TD*
G04 #@! TA.AperFunction,ComponentPad*
%ADD14C,4.800000*%
G04 #@! TD*
G04 #@! TA.AperFunction,ViaPad*
%ADD15C,0.800000*%
G04 #@! TD*
G04 APERTURE END LIST*
D10*
X203200000Y-70000000D03*
D11*
X200660000Y-70000000D03*
X203200000Y-72540000D03*
X200660000Y-72540000D03*
X203200000Y-75080000D03*
X200660000Y-75080000D03*
X203200000Y-77620000D03*
X200660000Y-77620000D03*
X203200000Y-80160000D03*
X200660000Y-80160000D03*
X203200000Y-82700000D03*
X200660000Y-82700000D03*
X203200000Y-85240000D03*
X200660000Y-85240000D03*
X203200000Y-87780000D03*
X200660000Y-87780000D03*
X203200000Y-90320000D03*
X200660000Y-90320000D03*
X203200000Y-92860000D03*
X200660000Y-92860000D03*
X203200000Y-95400000D03*
X200660000Y-95400000D03*
D12*
X211509000Y-64770000D03*
D13*
X214281000Y-64770000D03*
X217054000Y-64770000D03*
X219826000Y-64770000D03*
X222599000Y-64770000D03*
X212895000Y-61930000D03*
X215668000Y-61930000D03*
X218440000Y-61930000D03*
X221213000Y-61930000D03*
D14*
X204559000Y-63350000D03*
X229549000Y-63350000D03*
D12*
X222599000Y-100330000D03*
D13*
X219827000Y-100330000D03*
X217054000Y-100330000D03*
X214282000Y-100330000D03*
X211509000Y-100330000D03*
X221213000Y-103170000D03*
X218440000Y-103170000D03*
X215668000Y-103170000D03*
X212895000Y-103170000D03*
D14*
X229549000Y-101750000D03*
X204559000Y-101750000D03*
D10*
X233680000Y-70000000D03*
D11*
X233680000Y-72540000D03*
X233680000Y-75080000D03*
X233680000Y-77620000D03*
X233680000Y-80160000D03*
D10*
X218440000Y-90297000D03*
D11*
X218440000Y-92837000D03*
X218440000Y-95377000D03*
D10*
X223520000Y-90297000D03*
D11*
X223520000Y-92837000D03*
X223520000Y-95377000D03*
D10*
X231140000Y-75080000D03*
D11*
X231140000Y-77620000D03*
X231140000Y-80160000D03*
D15*
X211416900Y-66308000D03*
X213360000Y-88900000D03*
X234137200Y-101041200D03*
X209042000Y-92202000D03*
X234442000Y-60858400D03*
X225132900Y-73293000D03*
X234391200Y-64922400D03*
X228053900Y-70245000D03*
X215575000Y-82494000D03*
X231851200Y-94234000D03*
X214274400Y-92811600D03*
X200406000Y-100939600D03*
X200406000Y-104648000D03*
X234137200Y-105054400D03*
X229971600Y-86512400D03*
X227076000Y-80645000D03*
X219684000Y-83794000D03*
X218592400Y-78282800D03*
X207365600Y-88341200D03*
X225044000Y-61468000D03*
X225044000Y-62484000D03*
X207365600Y-89204800D03*
X224790000Y-86360000D03*
X227076000Y-73914000D03*
X209693842Y-75835842D03*
X226656900Y-75071000D03*
X209092800Y-75234800D03*
X225298000Y-81788000D03*
X225298000Y-82804000D03*
X209550000Y-95504000D03*
X207010000Y-68529200D03*
X224028000Y-77063600D03*
X208330800Y-73964800D03*
X212471000Y-77851000D03*
X210491310Y-84888310D03*
X211198419Y-85595419D03*
X211890083Y-86397834D03*
X212584180Y-87117664D03*
X218440552Y-86985203D03*
X218435845Y-85985211D03*
X218478340Y-84985296D03*
X218437396Y-83986132D03*
X223888681Y-80694000D03*
X224586800Y-79969000D03*
X218186000Y-69088000D03*
X218186000Y-73406000D03*
X218186000Y-71374000D03*
G04 #@! TA.AperFunction,Conductor*
G36*
X222408939Y-67724685D02*
G01*
X222454694Y-67777489D01*
X222465900Y-67829000D01*
X222465900Y-74947000D01*
X222446215Y-75014039D01*
X222393411Y-75059794D01*
X222341900Y-75071000D01*
X213953900Y-75071000D01*
X213886861Y-75051315D01*
X213841106Y-74998511D01*
X213829900Y-74947000D01*
X213829900Y-67829000D01*
X213849585Y-67761961D01*
X213902389Y-67716206D01*
X213953900Y-67705000D01*
X222341900Y-67705000D01*
X222408939Y-67724685D01*
G37*
G04 #@! TD.AperFunction*
G04 #@! TA.AperFunction,Conductor*
G36*
X226439530Y-73187865D02*
G01*
X227670912Y-73539689D01*
X227978757Y-73627645D01*
X228037810Y-73664989D01*
X228067298Y-73728332D01*
X228065517Y-73774757D01*
X226678964Y-79783152D01*
X226644709Y-79844048D01*
X226628187Y-79856561D01*
X226628527Y-79857029D01*
X226470129Y-79972111D01*
X226343466Y-80112785D01*
X226248821Y-80276715D01*
X226248818Y-80276722D01*
X226190327Y-80456740D01*
X226190326Y-80456744D01*
X226170540Y-80645000D01*
X226190326Y-80833256D01*
X226190327Y-80833259D01*
X226248818Y-81013277D01*
X226248821Y-81013284D01*
X226328899Y-81151984D01*
X226345372Y-81219885D01*
X226342337Y-81241867D01*
X225835356Y-83438787D01*
X225801101Y-83499683D01*
X225739360Y-83532393D01*
X225680466Y-83530133D01*
X224141242Y-83090354D01*
X224082189Y-83053010D01*
X224052701Y-82989667D01*
X224054482Y-82943243D01*
X224392462Y-81478660D01*
X224426715Y-81417769D01*
X224440383Y-81406243D01*
X224494552Y-81366888D01*
X224621214Y-81226216D01*
X224715860Y-81062284D01*
X224763577Y-80915426D01*
X224803013Y-80857753D01*
X224855724Y-80832456D01*
X224866603Y-80830144D01*
X224866607Y-80830142D01*
X224866608Y-80830142D01*
X224924858Y-80804206D01*
X225039530Y-80753151D01*
X225192671Y-80641888D01*
X225319333Y-80501216D01*
X225413979Y-80337284D01*
X225472474Y-80157256D01*
X225492260Y-79969000D01*
X225472474Y-79780744D01*
X225413979Y-79600716D01*
X225319333Y-79436784D01*
X225192671Y-79296112D01*
X225192670Y-79296111D01*
X225039534Y-79184851D01*
X225039530Y-79184849D01*
X225026140Y-79178887D01*
X224972904Y-79133635D01*
X224952585Y-79066785D01*
X224955752Y-79037738D01*
X226284643Y-73279210D01*
X226318898Y-73218316D01*
X226380639Y-73185606D01*
X226439530Y-73187865D01*
G37*
G04 #@! TD.AperFunction*
G04 #@! TA.AperFunction,Conductor*
G36*
X218690000Y-94941498D02*
G01*
X218582315Y-94892320D01*
X218475763Y-94877000D01*
X218404237Y-94877000D01*
X218297685Y-94892320D01*
X218190000Y-94941498D01*
X218190000Y-93272501D01*
X218297685Y-93321680D01*
X218404237Y-93337000D01*
X218475763Y-93337000D01*
X218582315Y-93321680D01*
X218690000Y-93272501D01*
X218690000Y-94941498D01*
G37*
G04 #@! TD.AperFunction*
G04 #@! TA.AperFunction,Conductor*
G36*
X218690000Y-92401498D02*
G01*
X218582315Y-92352320D01*
X218475763Y-92337000D01*
X218404237Y-92337000D01*
X218297685Y-92352320D01*
X218190000Y-92401498D01*
X218190000Y-90732501D01*
X218297685Y-90781680D01*
X218404237Y-90797000D01*
X218475763Y-90797000D01*
X218582315Y-90781680D01*
X218690000Y-90732501D01*
X218690000Y-92401498D01*
G37*
G04 #@! TD.AperFunction*
G04 #@! TA.AperFunction,Conductor*
G36*
X216353539Y-60215185D02*
G01*
X216399294Y-60267989D01*
X216410500Y-60319500D01*
X216410500Y-60702369D01*
X216390815Y-60769408D01*
X216338011Y-60815163D01*
X216268853Y-60825107D01*
X216234096Y-60814751D01*
X216097164Y-60750899D01*
X216097150Y-60750894D01*
X215885894Y-60694289D01*
X215885884Y-60694287D01*
X215668001Y-60675225D01*
X215667999Y-60675225D01*
X215450115Y-60694287D01*
X215450105Y-60694289D01*
X215238849Y-60750894D01*
X215238840Y-60750898D01*
X215040613Y-60843333D01*
X214978427Y-60886874D01*
X215535466Y-61443913D01*
X215525685Y-61445320D01*
X215394900Y-61505048D01*
X215286239Y-61599202D01*
X215208507Y-61720156D01*
X215184923Y-61800476D01*
X214624874Y-61240428D01*
X214581333Y-61302613D01*
X214488898Y-61500840D01*
X214488894Y-61500849D01*
X214432289Y-61712105D01*
X214432287Y-61712115D01*
X214413225Y-61929999D01*
X214413225Y-61930000D01*
X214432287Y-62147884D01*
X214432289Y-62147894D01*
X214488894Y-62359150D01*
X214488898Y-62359159D01*
X214581333Y-62557387D01*
X214624874Y-62619571D01*
X215184922Y-62059523D01*
X215208507Y-62139844D01*
X215286239Y-62260798D01*
X215394900Y-62354952D01*
X215525685Y-62414680D01*
X215535464Y-62416086D01*
X214978427Y-62973124D01*
X215040612Y-63016666D01*
X215238840Y-63109101D01*
X215238849Y-63109105D01*
X215450105Y-63165710D01*
X215450115Y-63165712D01*
X215667999Y-63184775D01*
X215668001Y-63184775D01*
X215885884Y-63165712D01*
X215885894Y-63165710D01*
X216097150Y-63109105D01*
X216097159Y-63109101D01*
X216234095Y-63045248D01*
X216303173Y-63034756D01*
X216366957Y-63063276D01*
X216405196Y-63121752D01*
X216410500Y-63157630D01*
X216410500Y-63376000D01*
X216410501Y-63376009D01*
X216422052Y-63483450D01*
X216422054Y-63483462D01*
X216433259Y-63534969D01*
X216442692Y-63563309D01*
X216445186Y-63633135D01*
X216409534Y-63693224D01*
X216396161Y-63704044D01*
X216247121Y-63808402D01*
X216092402Y-63963121D01*
X215966900Y-64142357D01*
X215966898Y-64142361D01*
X215874426Y-64340668D01*
X215874422Y-64340677D01*
X215817793Y-64552020D01*
X215817793Y-64552023D01*
X215798723Y-64770000D01*
X215817081Y-64979844D01*
X215817793Y-64987975D01*
X215817793Y-64987979D01*
X215874422Y-65199322D01*
X215874424Y-65199326D01*
X215874425Y-65199330D01*
X215907379Y-65270000D01*
X215966897Y-65397638D01*
X215966898Y-65397639D01*
X216092402Y-65576877D01*
X216247123Y-65731598D01*
X216426361Y-65857102D01*
X216624670Y-65949575D01*
X216836023Y-66006207D01*
X217018926Y-66022208D01*
X217053998Y-66025277D01*
X217054000Y-66025277D01*
X217054002Y-66025277D01*
X217082254Y-66022805D01*
X217271977Y-66006207D01*
X217483330Y-65949575D01*
X217681639Y-65857102D01*
X217860877Y-65731598D01*
X218015598Y-65576877D01*
X218141102Y-65397639D01*
X218233575Y-65199330D01*
X218290207Y-64987977D01*
X218309277Y-64770000D01*
X218290207Y-64552023D01*
X218233575Y-64340670D01*
X218159540Y-64181904D01*
X218149049Y-64112828D01*
X218177569Y-64049044D01*
X218236045Y-64010804D01*
X218271923Y-64005500D01*
X218608077Y-64005500D01*
X218675116Y-64025185D01*
X218720871Y-64077989D01*
X218730815Y-64147147D01*
X218720459Y-64181903D01*
X218679379Y-64270000D01*
X218646426Y-64340668D01*
X218646422Y-64340677D01*
X218589793Y-64552020D01*
X218589793Y-64552023D01*
X218570723Y-64770000D01*
X218589081Y-64979844D01*
X218589793Y-64987975D01*
X218589793Y-64987979D01*
X218646422Y-65199322D01*
X218646424Y-65199326D01*
X218646425Y-65199330D01*
X218679379Y-65270000D01*
X218738897Y-65397638D01*
X218738898Y-65397639D01*
X218864402Y-65576877D01*
X219019123Y-65731598D01*
X219198361Y-65857102D01*
X219396670Y-65949575D01*
X219608023Y-66006207D01*
X219790926Y-66022208D01*
X219825998Y-66025277D01*
X219826000Y-66025277D01*
X219826002Y-66025277D01*
X219854254Y-66022805D01*
X220043977Y-66006207D01*
X220255330Y-65949575D01*
X220453639Y-65857102D01*
X220632877Y-65731598D01*
X220787598Y-65576877D01*
X220913102Y-65397639D01*
X221005575Y-65199330D01*
X221062207Y-64987977D01*
X221081277Y-64770000D01*
X221062207Y-64552023D01*
X221005575Y-64340670D01*
X220931540Y-64181904D01*
X220921049Y-64112828D01*
X220949569Y-64049044D01*
X221008045Y-64010804D01*
X221043923Y-64005500D01*
X221381077Y-64005500D01*
X221448116Y-64025185D01*
X221493871Y-64077989D01*
X221503815Y-64147147D01*
X221493459Y-64181903D01*
X221452379Y-64270000D01*
X221419426Y-64340668D01*
X221419422Y-64340677D01*
X221362793Y-64552020D01*
X221362793Y-64552023D01*
X221343723Y-64770000D01*
X221362081Y-64979844D01*
X221362793Y-64987975D01*
X221362793Y-64987979D01*
X221419422Y-65199322D01*
X221419424Y-65199326D01*
X221419425Y-65199330D01*
X221452379Y-65270000D01*
X221511897Y-65397638D01*
X221511898Y-65397639D01*
X221637402Y-65576877D01*
X221792123Y-65731598D01*
X221971361Y-65857102D01*
X222169670Y-65949575D01*
X222381023Y-66006207D01*
X222563926Y-66022208D01*
X222598998Y-66025277D01*
X222599000Y-66025277D01*
X222599002Y-66025277D01*
X222627254Y-66022805D01*
X222816977Y-66006207D01*
X223028330Y-65949575D01*
X223226639Y-65857102D01*
X223405877Y-65731598D01*
X223560598Y-65576877D01*
X223686102Y-65397639D01*
X223778575Y-65199330D01*
X223835207Y-64987977D01*
X223854277Y-64770000D01*
X223835207Y-64552023D01*
X223778575Y-64340670D01*
X223704540Y-64181904D01*
X223694049Y-64112828D01*
X223722569Y-64049044D01*
X223781045Y-64010804D01*
X223816923Y-64005500D01*
X226520881Y-64005500D01*
X226520888Y-64005500D01*
X226606773Y-63995000D01*
X226675701Y-64006404D01*
X226727526Y-64053266D01*
X226740606Y-64082518D01*
X226757291Y-64138249D01*
X226818802Y-64343712D01*
X226952621Y-64653939D01*
X226952627Y-64653952D01*
X227121560Y-64946553D01*
X227323318Y-65217561D01*
X227323323Y-65217567D01*
X227392306Y-65290684D01*
X227555183Y-65463323D01*
X227555189Y-65463328D01*
X227555191Y-65463330D01*
X227814001Y-65680499D01*
X227814006Y-65680502D01*
X228096292Y-65866164D01*
X228398224Y-66017800D01*
X228715717Y-66133358D01*
X229044480Y-66211276D01*
X229380065Y-66250500D01*
X229380072Y-66250500D01*
X229717928Y-66250500D01*
X229717935Y-66250500D01*
X230053520Y-66211276D01*
X230382283Y-66133358D01*
X230699776Y-66017800D01*
X231001708Y-65866164D01*
X231283994Y-65680502D01*
X231347180Y-65627483D01*
X231418216Y-65567876D01*
X231542817Y-65463323D01*
X231774678Y-65217565D01*
X231976440Y-64946552D01*
X232145375Y-64653948D01*
X232279198Y-64343711D01*
X232357915Y-64080774D01*
X232396000Y-64022198D01*
X232459708Y-63993510D01*
X232494351Y-63993600D01*
X232577112Y-64005500D01*
X232577115Y-64005500D01*
X233739550Y-64005500D01*
X233806589Y-64025185D01*
X233852344Y-64077989D01*
X233862288Y-64147147D01*
X233833263Y-64210703D01*
X233812436Y-64229818D01*
X233785327Y-64249513D01*
X233658666Y-64390185D01*
X233564021Y-64554115D01*
X233564018Y-64554122D01*
X233505527Y-64734140D01*
X233505526Y-64734144D01*
X233485740Y-64922400D01*
X233505526Y-65110656D01*
X233505527Y-65110659D01*
X233564018Y-65290677D01*
X233564021Y-65290684D01*
X233658667Y-65454616D01*
X233768752Y-65576877D01*
X233785329Y-65595288D01*
X233938465Y-65706548D01*
X233938470Y-65706551D01*
X234111392Y-65783542D01*
X234111397Y-65783544D01*
X234296554Y-65822900D01*
X234296555Y-65822900D01*
X234485844Y-65822900D01*
X234485846Y-65822900D01*
X234671003Y-65783544D01*
X234843930Y-65706551D01*
X234997071Y-65595288D01*
X235123733Y-65454616D01*
X235205904Y-65312290D01*
X235256468Y-65264078D01*
X235325075Y-65250854D01*
X235389940Y-65276822D01*
X235430469Y-65333736D01*
X235437289Y-65374610D01*
X235331316Y-106810317D01*
X235311460Y-106877306D01*
X235258539Y-106922926D01*
X235207316Y-106934000D01*
X217545500Y-106934000D01*
X217478461Y-106914315D01*
X217432706Y-106861511D01*
X217421500Y-106810000D01*
X217421500Y-105054400D01*
X233231740Y-105054400D01*
X233251526Y-105242656D01*
X233251527Y-105242659D01*
X233310018Y-105422677D01*
X233310021Y-105422684D01*
X233404667Y-105586616D01*
X233531329Y-105727288D01*
X233684465Y-105838548D01*
X233684470Y-105838551D01*
X233857392Y-105915542D01*
X233857397Y-105915544D01*
X234042554Y-105954900D01*
X234042555Y-105954900D01*
X234231844Y-105954900D01*
X234231846Y-105954900D01*
X234417003Y-105915544D01*
X234589930Y-105838551D01*
X234743071Y-105727288D01*
X234869733Y-105586616D01*
X234964379Y-105422684D01*
X235022874Y-105242656D01*
X235042660Y-105054400D01*
X235022874Y-104866144D01*
X234964379Y-104686116D01*
X234869733Y-104522184D01*
X234743071Y-104381512D01*
X234743070Y-104381511D01*
X234589934Y-104270251D01*
X234589929Y-104270248D01*
X234417007Y-104193257D01*
X234417002Y-104193255D01*
X234271201Y-104162265D01*
X234231846Y-104153900D01*
X234042554Y-104153900D01*
X234010097Y-104160798D01*
X233857397Y-104193255D01*
X233857392Y-104193257D01*
X233684470Y-104270248D01*
X233684465Y-104270251D01*
X233531329Y-104381511D01*
X233404666Y-104522185D01*
X233310021Y-104686115D01*
X233310018Y-104686122D01*
X233251527Y-104866140D01*
X233251526Y-104866144D01*
X233231740Y-105054400D01*
X217421500Y-105054400D01*
X217421500Y-104218629D01*
X217441185Y-104151590D01*
X217493989Y-104105835D01*
X217563147Y-104095891D01*
X217626703Y-104124916D01*
X217633181Y-104130948D01*
X217633445Y-104131212D01*
X217812612Y-104256666D01*
X218010840Y-104349101D01*
X218010849Y-104349105D01*
X218222105Y-104405710D01*
X218222115Y-104405712D01*
X218439999Y-104424775D01*
X218440001Y-104424775D01*
X218657884Y-104405712D01*
X218657894Y-104405710D01*
X218869150Y-104349105D01*
X218869164Y-104349100D01*
X219067383Y-104256669D01*
X219067385Y-104256668D01*
X219129570Y-104213124D01*
X218572532Y-103656086D01*
X218582315Y-103654680D01*
X218713100Y-103594952D01*
X218821761Y-103500798D01*
X218899493Y-103379844D01*
X218923076Y-103299523D01*
X219483124Y-103859570D01*
X219526668Y-103797385D01*
X219526669Y-103797383D01*
X219619100Y-103599164D01*
X219619105Y-103599150D01*
X219675710Y-103387894D01*
X219675712Y-103387884D01*
X219694775Y-103170000D01*
X219957723Y-103170000D01*
X219976081Y-103379844D01*
X219976793Y-103387975D01*
X219976793Y-103387979D01*
X220033422Y-103599322D01*
X220033424Y-103599326D01*
X220033425Y-103599330D01*
X220041929Y-103617567D01*
X220125897Y-103797638D01*
X220125898Y-103797639D01*
X220251402Y-103976877D01*
X220406123Y-104131598D01*
X220585361Y-104257102D01*
X220783670Y-104349575D01*
X220995023Y-104406207D01*
X221177926Y-104422208D01*
X221212998Y-104425277D01*
X221213000Y-104425277D01*
X221213002Y-104425277D01*
X221241254Y-104422805D01*
X221430977Y-104406207D01*
X221642330Y-104349575D01*
X221840639Y-104257102D01*
X222019877Y-104131598D01*
X222174598Y-103976877D01*
X222300102Y-103797639D01*
X222392575Y-103599330D01*
X222449207Y-103387977D01*
X222468277Y-103170000D01*
X222449207Y-102952023D01*
X222392575Y-102740670D01*
X222300102Y-102542362D01*
X222300100Y-102542359D01*
X222300099Y-102542357D01*
X222174599Y-102363124D01*
X222174596Y-102363121D01*
X222019877Y-102208402D01*
X221846923Y-102087298D01*
X221840638Y-102082897D01*
X221741484Y-102036661D01*
X221642330Y-101990425D01*
X221642326Y-101990424D01*
X221642322Y-101990422D01*
X221430977Y-101933793D01*
X221213002Y-101914723D01*
X221212998Y-101914723D01*
X221067682Y-101927436D01*
X220995023Y-101933793D01*
X220995020Y-101933793D01*
X220783677Y-101990422D01*
X220783668Y-101990426D01*
X220585361Y-102082898D01*
X220585357Y-102082900D01*
X220406121Y-102208402D01*
X220251402Y-102363121D01*
X220125900Y-102542357D01*
X220125898Y-102542361D01*
X220033426Y-102740668D01*
X220033422Y-102740677D01*
X219976793Y-102952020D01*
X219976793Y-102952023D01*
X219957723Y-103170000D01*
X219694775Y-103170000D01*
X219694775Y-103169999D01*
X219675712Y-102952115D01*
X219675710Y-102952105D01*
X219619105Y-102740849D01*
X219619101Y-102740840D01*
X219526667Y-102542614D01*
X219526666Y-102542612D01*
X219483124Y-102480428D01*
X219483124Y-102480427D01*
X218923076Y-103040475D01*
X218899493Y-102960156D01*
X218821761Y-102839202D01*
X218713100Y-102745048D01*
X218582315Y-102685320D01*
X218572533Y-102683913D01*
X219129571Y-102126874D01*
X219067387Y-102083333D01*
X218869159Y-101990898D01*
X218869150Y-101990894D01*
X218657894Y-101934289D01*
X218657884Y-101934287D01*
X218440001Y-101915225D01*
X218439999Y-101915225D01*
X218222115Y-101934287D01*
X218222105Y-101934289D01*
X218010849Y-101990894D01*
X218010840Y-101990898D01*
X217812612Y-102083333D01*
X217812608Y-102083335D01*
X217633450Y-102208783D01*
X217633441Y-102208791D01*
X217629814Y-102212418D01*
X217568489Y-102245899D01*
X217498798Y-102240910D01*
X217442867Y-102199035D01*
X217418597Y-102135378D01*
X217414045Y-102082560D01*
X217414045Y-102082559D01*
X217406784Y-102040751D01*
X217384640Y-101956814D01*
X217317346Y-101829640D01*
X217276211Y-101773163D01*
X217259342Y-101750003D01*
X226643584Y-101750003D01*
X226663229Y-102087298D01*
X226663230Y-102087309D01*
X226721896Y-102420017D01*
X226721899Y-102420031D01*
X226818801Y-102743710D01*
X226952621Y-103053939D01*
X226952627Y-103053952D01*
X227121560Y-103346553D01*
X227323318Y-103617561D01*
X227323323Y-103617567D01*
X227443069Y-103744489D01*
X227555183Y-103863323D01*
X227555189Y-103863328D01*
X227555191Y-103863330D01*
X227814001Y-104080499D01*
X227814006Y-104080502D01*
X228096292Y-104266164D01*
X228398224Y-104417800D01*
X228715717Y-104533358D01*
X229044480Y-104611276D01*
X229380065Y-104650500D01*
X229380072Y-104650500D01*
X229717928Y-104650500D01*
X229717935Y-104650500D01*
X230053520Y-104611276D01*
X230382283Y-104533358D01*
X230699776Y-104417800D01*
X231001708Y-104266164D01*
X231283994Y-104080502D01*
X231542817Y-103863323D01*
X231774678Y-103617565D01*
X231976440Y-103346552D01*
X232145375Y-103053948D01*
X232279198Y-102743711D01*
X232376100Y-102420035D01*
X232434771Y-102087298D01*
X232454416Y-101750000D01*
X232454365Y-101749131D01*
X232450519Y-101683104D01*
X232434771Y-101412702D01*
X232418835Y-101322328D01*
X232376103Y-101079982D01*
X232376102Y-101079981D01*
X232376100Y-101079965D01*
X232364495Y-101041200D01*
X233231740Y-101041200D01*
X233251526Y-101229456D01*
X233251527Y-101229459D01*
X233310018Y-101409477D01*
X233310021Y-101409484D01*
X233404667Y-101573416D01*
X233489564Y-101667703D01*
X233531329Y-101714088D01*
X233684465Y-101825348D01*
X233684470Y-101825351D01*
X233857392Y-101902342D01*
X233857397Y-101902344D01*
X234042554Y-101941700D01*
X234042555Y-101941700D01*
X234231844Y-101941700D01*
X234231846Y-101941700D01*
X234417003Y-101902344D01*
X234589930Y-101825351D01*
X234743071Y-101714088D01*
X234869733Y-101573416D01*
X234964379Y-101409484D01*
X235022874Y-101229456D01*
X235042660Y-101041200D01*
X235022874Y-100852944D01*
X234964379Y-100672916D01*
X234869733Y-100508984D01*
X234743071Y-100368312D01*
X234743070Y-100368311D01*
X234589934Y-100257051D01*
X234589929Y-100257048D01*
X234417007Y-100180057D01*
X234417002Y-100180055D01*
X234271201Y-100149065D01*
X234231846Y-100140700D01*
X234042554Y-100140700D01*
X234010097Y-100147598D01*
X233857397Y-100180055D01*
X233857392Y-100180057D01*
X233684470Y-100257048D01*
X233684465Y-100257051D01*
X233531329Y-100368311D01*
X233404666Y-100508985D01*
X233310021Y-100672915D01*
X233310018Y-100672922D01*
X233258981Y-100830000D01*
X233251526Y-100852944D01*
X233231740Y-101041200D01*
X232364495Y-101041200D01*
X232279198Y-100756289D01*
X232145375Y-100446052D01*
X232036254Y-100257049D01*
X231976439Y-100153446D01*
X231774681Y-99882438D01*
X231774676Y-99882432D01*
X231605024Y-99702613D01*
X231542817Y-99636677D01*
X231542810Y-99636671D01*
X231542808Y-99636669D01*
X231283998Y-99419500D01*
X231142851Y-99326667D01*
X231001708Y-99233836D01*
X230836565Y-99150898D01*
X230699783Y-99082203D01*
X230699777Y-99082200D01*
X230382284Y-98966642D01*
X230382281Y-98966641D01*
X230155639Y-98912926D01*
X230053520Y-98888724D01*
X229717935Y-98849500D01*
X229380065Y-98849500D01*
X229044480Y-98888724D01*
X228715718Y-98966641D01*
X228715715Y-98966642D01*
X228398222Y-99082200D01*
X228398216Y-99082203D01*
X228096295Y-99233834D01*
X227814001Y-99419500D01*
X227555191Y-99636669D01*
X227555181Y-99636679D01*
X227323323Y-99882432D01*
X227323318Y-99882438D01*
X227121560Y-100153446D01*
X226952627Y-100446047D01*
X226952621Y-100446060D01*
X226818801Y-100756289D01*
X226721899Y-101079968D01*
X226721896Y-101079982D01*
X226663230Y-101412690D01*
X226663229Y-101412701D01*
X226643584Y-101749996D01*
X226643584Y-101750003D01*
X217259342Y-101750003D01*
X217258707Y-101749131D01*
X217259476Y-101748570D01*
X217245639Y-101735515D01*
X217228809Y-101667703D01*
X217251313Y-101601556D01*
X217306007Y-101558077D01*
X217320588Y-101553181D01*
X217483330Y-101509575D01*
X217681639Y-101417102D01*
X217860877Y-101291598D01*
X218015598Y-101136877D01*
X218141102Y-100957639D01*
X218233575Y-100759330D01*
X218290207Y-100547977D01*
X218309277Y-100330000D01*
X218572225Y-100330000D01*
X218591287Y-100547884D01*
X218591289Y-100547894D01*
X218647894Y-100759150D01*
X218647898Y-100759159D01*
X218740333Y-100957387D01*
X218783874Y-101019571D01*
X219343922Y-100459523D01*
X219367507Y-100539844D01*
X219445239Y-100660798D01*
X219553900Y-100754952D01*
X219684685Y-100814680D01*
X219694466Y-100816086D01*
X219137427Y-101373124D01*
X219199612Y-101416666D01*
X219397840Y-101509101D01*
X219397849Y-101509105D01*
X219609105Y-101565710D01*
X219609115Y-101565712D01*
X219826999Y-101584775D01*
X219827001Y-101584775D01*
X220044884Y-101565712D01*
X220044894Y-101565710D01*
X220256150Y-101509105D01*
X220256164Y-101509100D01*
X220454383Y-101416669D01*
X220454385Y-101416668D01*
X220516571Y-101373124D01*
X220271317Y-101127870D01*
X221348500Y-101127870D01*
X221348501Y-101127876D01*
X221354908Y-101187483D01*
X221405202Y-101322328D01*
X221405206Y-101322335D01*
X221491452Y-101437544D01*
X221491455Y-101437547D01*
X221606664Y-101523793D01*
X221606671Y-101523797D01*
X221741517Y-101574091D01*
X221741516Y-101574091D01*
X221748444Y-101574835D01*
X221801127Y-101580500D01*
X223396872Y-101580499D01*
X223456483Y-101574091D01*
X223591331Y-101523796D01*
X223706546Y-101437546D01*
X223792796Y-101322331D01*
X223843091Y-101187483D01*
X223849500Y-101127873D01*
X223849499Y-99532128D01*
X223843091Y-99472517D01*
X223823316Y-99419498D01*
X223792797Y-99337671D01*
X223792793Y-99337664D01*
X223706547Y-99222455D01*
X223706544Y-99222452D01*
X223591335Y-99136206D01*
X223591328Y-99136202D01*
X223456482Y-99085908D01*
X223456483Y-99085908D01*
X223396883Y-99079501D01*
X223396881Y-99079500D01*
X223396873Y-99079500D01*
X223396864Y-99079500D01*
X221801129Y-99079500D01*
X221801123Y-99079501D01*
X221741516Y-99085908D01*
X221606671Y-99136202D01*
X221606664Y-99136206D01*
X221491455Y-99222452D01*
X221491452Y-99222455D01*
X221405206Y-99337664D01*
X221405202Y-99337671D01*
X221354908Y-99472517D01*
X221349468Y-99523121D01*
X221348501Y-99532123D01*
X221348500Y-99532135D01*
X221348500Y-101127870D01*
X220271317Y-101127870D01*
X219959534Y-100816086D01*
X219969315Y-100814680D01*
X220100100Y-100754952D01*
X220208761Y-100660798D01*
X220286493Y-100539844D01*
X220310076Y-100459523D01*
X220870124Y-101019570D01*
X220913668Y-100957385D01*
X220913669Y-100957383D01*
X221006100Y-100759164D01*
X221006105Y-100759150D01*
X221062710Y-100547894D01*
X221062712Y-100547884D01*
X221081775Y-100330000D01*
X221081775Y-100329999D01*
X221062712Y-100112115D01*
X221062710Y-100112105D01*
X221006105Y-99900849D01*
X221006101Y-99900840D01*
X220913667Y-99702614D01*
X220913666Y-99702612D01*
X220870124Y-99640428D01*
X220870124Y-99640427D01*
X220310076Y-100200475D01*
X220286493Y-100120156D01*
X220208761Y-99999202D01*
X220100100Y-99905048D01*
X219969315Y-99845320D01*
X219959533Y-99843913D01*
X220516571Y-99286874D01*
X220454387Y-99243333D01*
X220256159Y-99150898D01*
X220256150Y-99150894D01*
X220044894Y-99094289D01*
X220044884Y-99094287D01*
X219827001Y-99075225D01*
X219826999Y-99075225D01*
X219609115Y-99094287D01*
X219609105Y-99094289D01*
X219397849Y-99150894D01*
X219397840Y-99150898D01*
X219199613Y-99243333D01*
X219137428Y-99286874D01*
X219694467Y-99843913D01*
X219684685Y-99845320D01*
X219553900Y-99905048D01*
X219445239Y-99999202D01*
X219367507Y-100120156D01*
X219343923Y-100200476D01*
X218783874Y-99640428D01*
X218740333Y-99702613D01*
X218647898Y-99900840D01*
X218647894Y-99900849D01*
X218591289Y-100112105D01*
X218591287Y-100112115D01*
X218572225Y-100329999D01*
X218572225Y-100330000D01*
X218309277Y-100330000D01*
X218290207Y-100112023D01*
X218233575Y-99900670D01*
X218141102Y-99702362D01*
X218141100Y-99702359D01*
X218141099Y-99702357D01*
X218015599Y-99523124D01*
X217964991Y-99472516D01*
X217860877Y-99368402D01*
X217722978Y-99271844D01*
X217681638Y-99242897D01*
X217582484Y-99196661D01*
X217483330Y-99150425D01*
X217483326Y-99150424D01*
X217483322Y-99150422D01*
X217271977Y-99093793D01*
X217054002Y-99074723D01*
X217053998Y-99074723D01*
X216926151Y-99085908D01*
X216836023Y-99093793D01*
X216836020Y-99093793D01*
X216624677Y-99150422D01*
X216624668Y-99150426D01*
X216426361Y-99242898D01*
X216426357Y-99242900D01*
X216247121Y-99368402D01*
X216092402Y-99523121D01*
X215966900Y-99702357D01*
X215966898Y-99702361D01*
X215874426Y-99900668D01*
X215874422Y-99900677D01*
X215817793Y-100112020D01*
X215817793Y-100112023D01*
X215815284Y-100140700D01*
X215798723Y-100329997D01*
X215798723Y-100330003D01*
X215804576Y-100396910D01*
X215790809Y-100465410D01*
X215742193Y-100515592D01*
X215674164Y-100531525D01*
X215644313Y-100526150D01*
X215618905Y-100518269D01*
X215560706Y-100479607D01*
X215532649Y-100415618D01*
X215532112Y-100389035D01*
X215537277Y-100330000D01*
X215518207Y-100112023D01*
X215461575Y-99900670D01*
X215369102Y-99702362D01*
X215369100Y-99702359D01*
X215369099Y-99702357D01*
X215243599Y-99523124D01*
X215192991Y-99472516D01*
X215088877Y-99368402D01*
X214950978Y-99271844D01*
X214909638Y-99242897D01*
X214810484Y-99196661D01*
X214711330Y-99150425D01*
X214711326Y-99150424D01*
X214711322Y-99150422D01*
X214499977Y-99093793D01*
X214282002Y-99074723D01*
X214281998Y-99074723D01*
X214154151Y-99085908D01*
X214064023Y-99093793D01*
X214064020Y-99093793D01*
X213887901Y-99140984D01*
X213818051Y-99139321D01*
X213760189Y-99100158D01*
X213755718Y-99094030D01*
X213755622Y-99094102D01*
X213749500Y-99085909D01*
X213711151Y-99034584D01*
X213711149Y-99034581D01*
X213609506Y-98932755D01*
X210676195Y-96732771D01*
X210634374Y-96676800D01*
X210629453Y-96607104D01*
X210656881Y-96552369D01*
X210717567Y-96482336D01*
X210777338Y-96351459D01*
X210797023Y-96284420D01*
X210797024Y-96284416D01*
X210817500Y-96142000D01*
X210817500Y-92811600D01*
X213368940Y-92811600D01*
X213388726Y-92999856D01*
X213388727Y-92999859D01*
X213447218Y-93179877D01*
X213447221Y-93179884D01*
X213541867Y-93343816D01*
X213568015Y-93372856D01*
X213668529Y-93484488D01*
X213821665Y-93595748D01*
X213821670Y-93595751D01*
X213994592Y-93672742D01*
X213994597Y-93672744D01*
X214179754Y-93712100D01*
X214179755Y-93712100D01*
X214369044Y-93712100D01*
X214369046Y-93712100D01*
X214554203Y-93672744D01*
X214727130Y-93595751D01*
X214880271Y-93484488D01*
X215006933Y-93343816D01*
X215101579Y-93179884D01*
X215160074Y-92999856D01*
X215179860Y-92811600D01*
X215160074Y-92623344D01*
X215101579Y-92443316D01*
X215006933Y-92279384D01*
X214880271Y-92138712D01*
X214880270Y-92138711D01*
X214727134Y-92027451D01*
X214727129Y-92027448D01*
X214554207Y-91950457D01*
X214554202Y-91950455D01*
X214408401Y-91919465D01*
X214369046Y-91911100D01*
X214179754Y-91911100D01*
X214147297Y-91917998D01*
X213994597Y-91950455D01*
X213994592Y-91950457D01*
X213821670Y-92027448D01*
X213821665Y-92027451D01*
X213668529Y-92138711D01*
X213541866Y-92279385D01*
X213447221Y-92443315D01*
X213447218Y-92443322D01*
X213395792Y-92601596D01*
X213388726Y-92623344D01*
X213368940Y-92811600D01*
X210817500Y-92811600D01*
X210817500Y-91194844D01*
X217090000Y-91194844D01*
X217096401Y-91254372D01*
X217096403Y-91254379D01*
X217146645Y-91389086D01*
X217146649Y-91389093D01*
X217232809Y-91504187D01*
X217232812Y-91504190D01*
X217347906Y-91590350D01*
X217347913Y-91590354D01*
X217479986Y-91639614D01*
X217535920Y-91681485D01*
X217560337Y-91746949D01*
X217545486Y-91815222D01*
X217524335Y-91843477D01*
X217401886Y-91965926D01*
X217266400Y-92159420D01*
X217266399Y-92159422D01*
X217166570Y-92373507D01*
X217166567Y-92373513D01*
X217109364Y-92586999D01*
X217109364Y-92587000D01*
X218006314Y-92587000D01*
X217980507Y-92627156D01*
X217940000Y-92765111D01*
X217940000Y-92908889D01*
X217980507Y-93046844D01*
X218006314Y-93087000D01*
X217109364Y-93087000D01*
X217166567Y-93300486D01*
X217166570Y-93300492D01*
X217266399Y-93514578D01*
X217401894Y-93708082D01*
X217568917Y-93875105D01*
X217755031Y-94005425D01*
X217798656Y-94060003D01*
X217805848Y-94129501D01*
X217774326Y-94191856D01*
X217755031Y-94208575D01*
X217568922Y-94338890D01*
X217568920Y-94338891D01*
X217401891Y-94505920D01*
X217401886Y-94505926D01*
X217266400Y-94699420D01*
X217266399Y-94699422D01*
X217166570Y-94913507D01*
X217166567Y-94913513D01*
X217109364Y-95126999D01*
X217109364Y-95127000D01*
X218006314Y-95127000D01*
X217980507Y-95167156D01*
X217940000Y-95305111D01*
X217940000Y-95448889D01*
X217980507Y-95586844D01*
X218006314Y-95627000D01*
X217109364Y-95627000D01*
X217166567Y-95840486D01*
X217166570Y-95840492D01*
X217266399Y-96054578D01*
X217401894Y-96248082D01*
X217568917Y-96415105D01*
X217762421Y-96550600D01*
X217976507Y-96650429D01*
X217976516Y-96650433D01*
X218190000Y-96707634D01*
X218190000Y-95812501D01*
X218297685Y-95861680D01*
X218404237Y-95877000D01*
X218475763Y-95877000D01*
X218582315Y-95861680D01*
X218690000Y-95812501D01*
X218690000Y-96707633D01*
X218903483Y-96650433D01*
X218903492Y-96650429D01*
X219117578Y-96550600D01*
X219311082Y-96415105D01*
X219478105Y-96248082D01*
X219613600Y-96054578D01*
X219713429Y-95840492D01*
X219713432Y-95840486D01*
X219770636Y-95627000D01*
X218873686Y-95627000D01*
X218899493Y-95586844D01*
X218940000Y-95448889D01*
X218940000Y-95377000D01*
X222164341Y-95377000D01*
X222184936Y-95612403D01*
X222184938Y-95612413D01*
X222246094Y-95840655D01*
X222246096Y-95840659D01*
X222246097Y-95840663D01*
X222345847Y-96054578D01*
X222345965Y-96054830D01*
X222345967Y-96054834D01*
X222407002Y-96142000D01*
X222481505Y-96248401D01*
X222648599Y-96415495D01*
X222744051Y-96482331D01*
X222842165Y-96551032D01*
X222842167Y-96551033D01*
X222842170Y-96551035D01*
X223056337Y-96650903D01*
X223284592Y-96712063D01*
X223472918Y-96728539D01*
X223519999Y-96732659D01*
X223520000Y-96732659D01*
X223520001Y-96732659D01*
X223559234Y-96729226D01*
X223755408Y-96712063D01*
X223983663Y-96650903D01*
X224197830Y-96551035D01*
X224391401Y-96415495D01*
X224558495Y-96248401D01*
X224694035Y-96054830D01*
X224793903Y-95840663D01*
X224855063Y-95612408D01*
X224875659Y-95377000D01*
X224855063Y-95141592D01*
X224793903Y-94913337D01*
X224694035Y-94699171D01*
X224626195Y-94602284D01*
X224558494Y-94505597D01*
X224391402Y-94338506D01*
X224391396Y-94338501D01*
X224242153Y-94234000D01*
X230945740Y-94234000D01*
X230965526Y-94422256D01*
X230965527Y-94422259D01*
X231024018Y-94602277D01*
X231024021Y-94602284D01*
X231118667Y-94766216D01*
X231218418Y-94877000D01*
X231245329Y-94906888D01*
X231398465Y-95018148D01*
X231398470Y-95018151D01*
X231571392Y-95095142D01*
X231571397Y-95095144D01*
X231756554Y-95134500D01*
X231756555Y-95134500D01*
X231945844Y-95134500D01*
X231945846Y-95134500D01*
X232131003Y-95095144D01*
X232303930Y-95018151D01*
X232457071Y-94906888D01*
X232583733Y-94766216D01*
X232678379Y-94602284D01*
X232736874Y-94422256D01*
X232756660Y-94234000D01*
X232736874Y-94045744D01*
X232678379Y-93865716D01*
X232583733Y-93701784D01*
X232457071Y-93561112D01*
X232393375Y-93514834D01*
X232303934Y-93449851D01*
X232303929Y-93449848D01*
X232131007Y-93372857D01*
X232131002Y-93372855D01*
X231962312Y-93337000D01*
X231945846Y-93333500D01*
X231756554Y-93333500D01*
X231740088Y-93337000D01*
X231571397Y-93372855D01*
X231571392Y-93372857D01*
X231398470Y-93449848D01*
X231398465Y-93449851D01*
X231245329Y-93561111D01*
X231118666Y-93701785D01*
X231024021Y-93865715D01*
X231024018Y-93865722D01*
X230965527Y-94045740D01*
X230965526Y-94045744D01*
X230945740Y-94234000D01*
X224242153Y-94234000D01*
X224205842Y-94208575D01*
X224162217Y-94153998D01*
X224155023Y-94084500D01*
X224186546Y-94022145D01*
X224205842Y-94005425D01*
X224228026Y-93989891D01*
X224391401Y-93875495D01*
X224558495Y-93708401D01*
X224694035Y-93514830D01*
X224793903Y-93300663D01*
X224855063Y-93072408D01*
X224875659Y-92837000D01*
X224855063Y-92601592D01*
X224793903Y-92373337D01*
X224694035Y-92159171D01*
X224558495Y-91965599D01*
X224436567Y-91843671D01*
X224403084Y-91782351D01*
X224408068Y-91712659D01*
X224449939Y-91656725D01*
X224480915Y-91639810D01*
X224612331Y-91590796D01*
X224727546Y-91504546D01*
X224813796Y-91389331D01*
X224864091Y-91254483D01*
X224870500Y-91194873D01*
X224870499Y-89399128D01*
X224864091Y-89339517D01*
X224837520Y-89268277D01*
X224813797Y-89204671D01*
X224813793Y-89204664D01*
X224727547Y-89089455D01*
X224727544Y-89089452D01*
X224612335Y-89003206D01*
X224612328Y-89003202D01*
X224477482Y-88952908D01*
X224477483Y-88952908D01*
X224417883Y-88946501D01*
X224417881Y-88946500D01*
X224417873Y-88946500D01*
X224417864Y-88946500D01*
X222622129Y-88946500D01*
X222622123Y-88946501D01*
X222562516Y-88952908D01*
X222427671Y-89003202D01*
X222427664Y-89003206D01*
X222312455Y-89089452D01*
X222312452Y-89089455D01*
X222226206Y-89204664D01*
X222226202Y-89204671D01*
X222175908Y-89339517D01*
X222169501Y-89399116D01*
X222169501Y-89399123D01*
X222169500Y-89399135D01*
X222169500Y-91194870D01*
X222169501Y-91194876D01*
X222175908Y-91254483D01*
X222226202Y-91389328D01*
X222226206Y-91389335D01*
X222312452Y-91504544D01*
X222312455Y-91504547D01*
X222427664Y-91590793D01*
X222427671Y-91590797D01*
X222559081Y-91639810D01*
X222615015Y-91681681D01*
X222639432Y-91747145D01*
X222624580Y-91815418D01*
X222603430Y-91843673D01*
X222481503Y-91965600D01*
X222345965Y-92159169D01*
X222345964Y-92159171D01*
X222246098Y-92373335D01*
X222246094Y-92373344D01*
X222184938Y-92601586D01*
X222184936Y-92601596D01*
X222164341Y-92836999D01*
X222164341Y-92837000D01*
X222184936Y-93072403D01*
X222184938Y-93072413D01*
X222246094Y-93300655D01*
X222246096Y-93300659D01*
X222246097Y-93300663D01*
X222279762Y-93372857D01*
X222345965Y-93514830D01*
X222345967Y-93514834D01*
X222454281Y-93669521D01*
X222476872Y-93701785D01*
X222481501Y-93708395D01*
X222481506Y-93708402D01*
X222648597Y-93875493D01*
X222648603Y-93875498D01*
X222834158Y-94005425D01*
X222877783Y-94060002D01*
X222884977Y-94129500D01*
X222853454Y-94191855D01*
X222834158Y-94208575D01*
X222648597Y-94338505D01*
X222481505Y-94505597D01*
X222345965Y-94699169D01*
X222345964Y-94699171D01*
X222246098Y-94913335D01*
X222246094Y-94913344D01*
X222184938Y-95141586D01*
X222184936Y-95141596D01*
X222164341Y-95376999D01*
X222164341Y-95377000D01*
X218940000Y-95377000D01*
X218940000Y-95305111D01*
X218899493Y-95167156D01*
X218873686Y-95127000D01*
X219770636Y-95127000D01*
X219770635Y-95126999D01*
X219713432Y-94913513D01*
X219713429Y-94913507D01*
X219613600Y-94699422D01*
X219613599Y-94699420D01*
X219478113Y-94505926D01*
X219478108Y-94505920D01*
X219311082Y-94338894D01*
X219124968Y-94208575D01*
X219081344Y-94153998D01*
X219074151Y-94084499D01*
X219105673Y-94022145D01*
X219124968Y-94005425D01*
X219311082Y-93875105D01*
X219478105Y-93708082D01*
X219613600Y-93514578D01*
X219713429Y-93300492D01*
X219713432Y-93300486D01*
X219770636Y-93087000D01*
X218873686Y-93087000D01*
X218899493Y-93046844D01*
X218940000Y-92908889D01*
X218940000Y-92765111D01*
X218899493Y-92627156D01*
X218873686Y-92587000D01*
X219770636Y-92587000D01*
X219770635Y-92586999D01*
X219713432Y-92373513D01*
X219713429Y-92373507D01*
X219613600Y-92159422D01*
X219613599Y-92159420D01*
X219478113Y-91965926D01*
X219478108Y-91965920D01*
X219355665Y-91843477D01*
X219322180Y-91782154D01*
X219327164Y-91712462D01*
X219369036Y-91656529D01*
X219400013Y-91639614D01*
X219532086Y-91590354D01*
X219532093Y-91590350D01*
X219647187Y-91504190D01*
X219647190Y-91504187D01*
X219733350Y-91389093D01*
X219733354Y-91389086D01*
X219783596Y-91254379D01*
X219783598Y-91254372D01*
X219789999Y-91194844D01*
X219790000Y-91194827D01*
X219790000Y-90547000D01*
X218873686Y-90547000D01*
X218899493Y-90506844D01*
X218940000Y-90368889D01*
X218940000Y-90225111D01*
X218899493Y-90087156D01*
X218873686Y-90047000D01*
X219790000Y-90047000D01*
X219790000Y-89399172D01*
X219789999Y-89399155D01*
X219783598Y-89339627D01*
X219783596Y-89339620D01*
X219733354Y-89204913D01*
X219733350Y-89204906D01*
X219647190Y-89089812D01*
X219647187Y-89089809D01*
X219532093Y-89003649D01*
X219532086Y-89003645D01*
X219397379Y-88953403D01*
X219397372Y-88953401D01*
X219337844Y-88947000D01*
X218690000Y-88947000D01*
X218690000Y-89861498D01*
X218582315Y-89812320D01*
X218475763Y-89797000D01*
X218404237Y-89797000D01*
X218297685Y-89812320D01*
X218190000Y-89861498D01*
X218190000Y-88947000D01*
X217542155Y-88947000D01*
X217482627Y-88953401D01*
X217482620Y-88953403D01*
X217347913Y-89003645D01*
X217347906Y-89003649D01*
X217232812Y-89089809D01*
X217232809Y-89089812D01*
X217146649Y-89204906D01*
X217146645Y-89204913D01*
X217096403Y-89339620D01*
X217096401Y-89339627D01*
X217090000Y-89399155D01*
X217090000Y-90047000D01*
X218006314Y-90047000D01*
X217980507Y-90087156D01*
X217940000Y-90225111D01*
X217940000Y-90368889D01*
X217980507Y-90506844D01*
X218006314Y-90547000D01*
X217090000Y-90547000D01*
X217090000Y-91194844D01*
X210817500Y-91194844D01*
X210817500Y-86793748D01*
X210837185Y-86726709D01*
X210889989Y-86680954D01*
X210959147Y-86671010D01*
X211022703Y-86700035D01*
X211059431Y-86755430D01*
X211062901Y-86766112D01*
X211062904Y-86766118D01*
X211157550Y-86930050D01*
X211250146Y-87032888D01*
X211284212Y-87070722D01*
X211437348Y-87181982D01*
X211437353Y-87181985D01*
X211610274Y-87258976D01*
X211610280Y-87258978D01*
X211618640Y-87260755D01*
X211680122Y-87293947D01*
X211710790Y-87343727D01*
X211756998Y-87485941D01*
X211757001Y-87485948D01*
X211851647Y-87649880D01*
X211959222Y-87769354D01*
X211978309Y-87790552D01*
X212131445Y-87901812D01*
X212131450Y-87901815D01*
X212304372Y-87978806D01*
X212304377Y-87978808D01*
X212489534Y-88018164D01*
X212489535Y-88018164D01*
X212663758Y-88018164D01*
X212730797Y-88037849D01*
X212776552Y-88090653D01*
X212786496Y-88159811D01*
X212757471Y-88223367D01*
X212755908Y-88225136D01*
X212627466Y-88367785D01*
X212532821Y-88531715D01*
X212532818Y-88531722D01*
X212474327Y-88711740D01*
X212474326Y-88711744D01*
X212454540Y-88900000D01*
X212474326Y-89088256D01*
X212474327Y-89088259D01*
X212532818Y-89268277D01*
X212532821Y-89268284D01*
X212627467Y-89432216D01*
X212754129Y-89572888D01*
X212907265Y-89684148D01*
X212907270Y-89684151D01*
X213080192Y-89761142D01*
X213080197Y-89761144D01*
X213265354Y-89800500D01*
X213265355Y-89800500D01*
X213454644Y-89800500D01*
X213454646Y-89800500D01*
X213639803Y-89761144D01*
X213812730Y-89684151D01*
X213965871Y-89572888D01*
X214092533Y-89432216D01*
X214187179Y-89268284D01*
X214245674Y-89088256D01*
X214265460Y-88900000D01*
X214245674Y-88711744D01*
X214187179Y-88531716D01*
X214092533Y-88367784D01*
X213965871Y-88227112D01*
X213965870Y-88227111D01*
X213812734Y-88115851D01*
X213812729Y-88115848D01*
X213639807Y-88038857D01*
X213639802Y-88038855D01*
X213494001Y-88007865D01*
X213454646Y-87999500D01*
X213280422Y-87999500D01*
X213213383Y-87979815D01*
X213167628Y-87927011D01*
X213157684Y-87857853D01*
X213186709Y-87794297D01*
X213188272Y-87792528D01*
X213209138Y-87769354D01*
X213316713Y-87649880D01*
X213411359Y-87485948D01*
X213469854Y-87305920D01*
X213489640Y-87117664D01*
X213469854Y-86929408D01*
X213411359Y-86749380D01*
X213316713Y-86585448D01*
X213190051Y-86444776D01*
X213190050Y-86444775D01*
X213036914Y-86333515D01*
X213036909Y-86333512D01*
X212863987Y-86256521D01*
X212863980Y-86256519D01*
X212855617Y-86254741D01*
X212794137Y-86221546D01*
X212763472Y-86171770D01*
X212763462Y-86171740D01*
X212717262Y-86029550D01*
X212691663Y-85985211D01*
X217530385Y-85985211D01*
X217550171Y-86173467D01*
X217550172Y-86173470D01*
X217608663Y-86353488D01*
X217608666Y-86353495D01*
X217651267Y-86427282D01*
X217667740Y-86495182D01*
X217651268Y-86551281D01*
X217613372Y-86616919D01*
X217564897Y-86766112D01*
X217554878Y-86796947D01*
X217535092Y-86985203D01*
X217554878Y-87173459D01*
X217554879Y-87173462D01*
X217613370Y-87353480D01*
X217613373Y-87353487D01*
X217708019Y-87517419D01*
X217827286Y-87649878D01*
X217834681Y-87658091D01*
X217987817Y-87769351D01*
X217987822Y-87769354D01*
X218160744Y-87846345D01*
X218160749Y-87846347D01*
X218345906Y-87885703D01*
X218345907Y-87885703D01*
X218535196Y-87885703D01*
X218535198Y-87885703D01*
X218720355Y-87846347D01*
X218893282Y-87769354D01*
X219046423Y-87658091D01*
X219173085Y-87517419D01*
X219267731Y-87353487D01*
X219326226Y-87173459D01*
X219346012Y-86985203D01*
X219326226Y-86796947D01*
X219267731Y-86616919D01*
X219225129Y-86543130D01*
X219208656Y-86475229D01*
X219225128Y-86419131D01*
X219259268Y-86360000D01*
X223884540Y-86360000D01*
X223904326Y-86548256D01*
X223904327Y-86548259D01*
X223962818Y-86728277D01*
X223962821Y-86728284D01*
X224057467Y-86892216D01*
X224141193Y-86985203D01*
X224184129Y-87032888D01*
X224337265Y-87144148D01*
X224337270Y-87144151D01*
X224510192Y-87221142D01*
X224510197Y-87221144D01*
X224695354Y-87260500D01*
X224695355Y-87260500D01*
X224884644Y-87260500D01*
X224884646Y-87260500D01*
X225069803Y-87221144D01*
X225242730Y-87144151D01*
X225395871Y-87032888D01*
X225522533Y-86892216D01*
X225617179Y-86728284D01*
X225675674Y-86548256D01*
X225679443Y-86512400D01*
X229066140Y-86512400D01*
X229085926Y-86700656D01*
X229085927Y-86700659D01*
X229144418Y-86880677D01*
X229144421Y-86880684D01*
X229239067Y-87044616D01*
X229328689Y-87144151D01*
X229365729Y-87185288D01*
X229518865Y-87296548D01*
X229518870Y-87296551D01*
X229691792Y-87373542D01*
X229691797Y-87373544D01*
X229876954Y-87412900D01*
X229876955Y-87412900D01*
X230066244Y-87412900D01*
X230066246Y-87412900D01*
X230251403Y-87373544D01*
X230424330Y-87296551D01*
X230577471Y-87185288D01*
X230704133Y-87044616D01*
X230798779Y-86880684D01*
X230857274Y-86700656D01*
X230877060Y-86512400D01*
X230857274Y-86324144D01*
X230798779Y-86144116D01*
X230704133Y-85980184D01*
X230577471Y-85839512D01*
X230577470Y-85839511D01*
X230424334Y-85728251D01*
X230424329Y-85728248D01*
X230251407Y-85651257D01*
X230251402Y-85651255D01*
X230105601Y-85620265D01*
X230066246Y-85611900D01*
X229876954Y-85611900D01*
X229844497Y-85618798D01*
X229691797Y-85651255D01*
X229691792Y-85651257D01*
X229518870Y-85728248D01*
X229518865Y-85728251D01*
X229365729Y-85839511D01*
X229239066Y-85980185D01*
X229144421Y-86144115D01*
X229144418Y-86144122D01*
X229107898Y-86256521D01*
X229085926Y-86324144D01*
X229066140Y-86512400D01*
X225679443Y-86512400D01*
X225695460Y-86360000D01*
X225675674Y-86171744D01*
X225617179Y-85991716D01*
X225522533Y-85827784D01*
X225395871Y-85687112D01*
X225346521Y-85651257D01*
X225242734Y-85575851D01*
X225242729Y-85575848D01*
X225069807Y-85498857D01*
X225069802Y-85498855D01*
X224924001Y-85467865D01*
X224884646Y-85459500D01*
X224695354Y-85459500D01*
X224662897Y-85466398D01*
X224510197Y-85498855D01*
X224510192Y-85498857D01*
X224337270Y-85575848D01*
X224337265Y-85575851D01*
X224184129Y-85687111D01*
X224057466Y-85827785D01*
X223962825Y-85991709D01*
X223962818Y-85991722D01*
X223913303Y-86144115D01*
X223904326Y-86171744D01*
X223884540Y-86360000D01*
X219259268Y-86360000D01*
X219263024Y-86353495D01*
X219321519Y-86173467D01*
X219341305Y-85985211D01*
X219321519Y-85796955D01*
X219263024Y-85616927D01*
X219244044Y-85584054D01*
X219227572Y-85516155D01*
X219244044Y-85460057D01*
X219305519Y-85353580D01*
X219364014Y-85173552D01*
X219383800Y-84985296D01*
X219365680Y-84812897D01*
X219378249Y-84744171D01*
X219425981Y-84693147D01*
X219493722Y-84676029D01*
X219514777Y-84678648D01*
X219589354Y-84694500D01*
X219589355Y-84694500D01*
X219778644Y-84694500D01*
X219778646Y-84694500D01*
X219963803Y-84655144D01*
X220136730Y-84578151D01*
X220289871Y-84466888D01*
X220416533Y-84326216D01*
X220511179Y-84162284D01*
X220569674Y-83982256D01*
X220589460Y-83794000D01*
X220569674Y-83605744D01*
X220511179Y-83425716D01*
X220416533Y-83261784D01*
X220289871Y-83121112D01*
X220241037Y-83085632D01*
X220136734Y-83009851D01*
X220136729Y-83009848D01*
X219963807Y-82932857D01*
X219963802Y-82932855D01*
X219818001Y-82901865D01*
X219778646Y-82893500D01*
X219589354Y-82893500D01*
X219556897Y-82900398D01*
X219404197Y-82932855D01*
X219404192Y-82932857D01*
X219231270Y-83009848D01*
X219231265Y-83009851D01*
X219078135Y-83121106D01*
X219078128Y-83121112D01*
X219032632Y-83171640D01*
X218973145Y-83208288D01*
X218903288Y-83206957D01*
X218890047Y-83201946D01*
X218717202Y-83124989D01*
X218717198Y-83124987D01*
X218571397Y-83093997D01*
X218532042Y-83085632D01*
X218342750Y-83085632D01*
X218310293Y-83092530D01*
X218157593Y-83124987D01*
X218157588Y-83124989D01*
X217984666Y-83201980D01*
X217984661Y-83201983D01*
X217831525Y-83313243D01*
X217704862Y-83453917D01*
X217610217Y-83617847D01*
X217610214Y-83617854D01*
X217587864Y-83686642D01*
X217551722Y-83797876D01*
X217531936Y-83986132D01*
X217551722Y-84174388D01*
X217551723Y-84174391D01*
X217610214Y-84354409D01*
X217610216Y-84354413D01*
X217610217Y-84354416D01*
X217650598Y-84424359D01*
X217670698Y-84459173D01*
X217687170Y-84527073D01*
X217670698Y-84583170D01*
X217651161Y-84617009D01*
X217613059Y-84734276D01*
X217592666Y-84797040D01*
X217572880Y-84985296D01*
X217592666Y-85173552D01*
X217592667Y-85173555D01*
X217651158Y-85353573D01*
X217651160Y-85353577D01*
X217651161Y-85353580D01*
X217670140Y-85386452D01*
X217686612Y-85454352D01*
X217670140Y-85510450D01*
X217632383Y-85575848D01*
X217610540Y-85613682D01*
X217608665Y-85616929D01*
X217608663Y-85616933D01*
X217572494Y-85728251D01*
X217550171Y-85796955D01*
X217530385Y-85985211D01*
X212691663Y-85985211D01*
X212622616Y-85865618D01*
X212495954Y-85724946D01*
X212443880Y-85687112D01*
X212342817Y-85613685D01*
X212342812Y-85613682D01*
X212163949Y-85534046D01*
X212164659Y-85532449D01*
X212114068Y-85497860D01*
X212086866Y-85433502D01*
X212086758Y-85432527D01*
X212084093Y-85407163D01*
X212025598Y-85227135D01*
X211930952Y-85063203D01*
X211804290Y-84922531D01*
X211804289Y-84922530D01*
X211651153Y-84811270D01*
X211651148Y-84811267D01*
X211478226Y-84734276D01*
X211478221Y-84734274D01*
X211451444Y-84728583D01*
X211389962Y-84695391D01*
X211359294Y-84645611D01*
X211318491Y-84520031D01*
X211318488Y-84520025D01*
X211317520Y-84518348D01*
X211223843Y-84356094D01*
X211097181Y-84215422D01*
X211097180Y-84215421D01*
X210944044Y-84104161D01*
X210944039Y-84104158D01*
X210883897Y-84077381D01*
X210830660Y-84032131D01*
X210810339Y-83965281D01*
X210811593Y-83946469D01*
X210817500Y-83905392D01*
X210817500Y-82494000D01*
X214669540Y-82494000D01*
X214689326Y-82682256D01*
X214689327Y-82682259D01*
X214747818Y-82862277D01*
X214747821Y-82862284D01*
X214842467Y-83026216D01*
X214895966Y-83085632D01*
X214969129Y-83166888D01*
X215122265Y-83278148D01*
X215122270Y-83278151D01*
X215295192Y-83355142D01*
X215295197Y-83355144D01*
X215480354Y-83394500D01*
X215480355Y-83394500D01*
X215669644Y-83394500D01*
X215669646Y-83394500D01*
X215854803Y-83355144D01*
X216027730Y-83278151D01*
X216180871Y-83166888D01*
X216307533Y-83026216D01*
X216402179Y-82862284D01*
X216460674Y-82682256D01*
X216480460Y-82494000D01*
X216460674Y-82305744D01*
X216402179Y-82125716D01*
X216307533Y-81961784D01*
X216180871Y-81821112D01*
X216180870Y-81821111D01*
X216027734Y-81709851D01*
X216027729Y-81709848D01*
X215854807Y-81632857D01*
X215854802Y-81632855D01*
X215709001Y-81601865D01*
X215669646Y-81593500D01*
X215480354Y-81593500D01*
X215447897Y-81600398D01*
X215295197Y-81632855D01*
X215295192Y-81632857D01*
X215122270Y-81709848D01*
X215122265Y-81709851D01*
X214969129Y-81821111D01*
X214842466Y-81961785D01*
X214747821Y-82125715D01*
X214747818Y-82125722D01*
X214689327Y-82305740D01*
X214689326Y-82305744D01*
X214669540Y-82494000D01*
X210817500Y-82494000D01*
X210817500Y-80694000D01*
X222983221Y-80694000D01*
X223003007Y-80882256D01*
X223003008Y-80882259D01*
X223061499Y-81062277D01*
X223061502Y-81062284D01*
X223156148Y-81226216D01*
X223238690Y-81317888D01*
X223282810Y-81366888D01*
X223435946Y-81478148D01*
X223435951Y-81478151D01*
X223608872Y-81555142D01*
X223608874Y-81555142D01*
X223608878Y-81555144D01*
X223721058Y-81578988D01*
X223782536Y-81612179D01*
X223816313Y-81673341D01*
X223816099Y-81728159D01*
X223561926Y-82829576D01*
X223549354Y-82923864D01*
X223549353Y-82923866D01*
X223547573Y-82970286D01*
X223547573Y-82970288D01*
X223549786Y-83009851D01*
X223552884Y-83065255D01*
X223594427Y-83203010D01*
X223594428Y-83203012D01*
X223621900Y-83262026D01*
X223622757Y-83264069D01*
X223623913Y-83266351D01*
X223623916Y-83266355D01*
X223623917Y-83266358D01*
X223702587Y-83386826D01*
X223702588Y-83386827D01*
X223702589Y-83386828D01*
X223812005Y-83480246D01*
X223812008Y-83480248D01*
X223812011Y-83480250D01*
X223871064Y-83517594D01*
X224002370Y-83576404D01*
X225541594Y-84016183D01*
X225661082Y-84035261D01*
X225719976Y-84037521D01*
X225840579Y-84027656D01*
X225976011Y-83979077D01*
X226037752Y-83946367D01*
X226154010Y-83861602D01*
X226241679Y-83747516D01*
X226275934Y-83686620D01*
X226275935Y-83686618D01*
X226327911Y-83552453D01*
X226772549Y-81625684D01*
X226806803Y-81564790D01*
X226868543Y-81532080D01*
X226919153Y-81532278D01*
X226981354Y-81545500D01*
X226981355Y-81545500D01*
X227170644Y-81545500D01*
X227170646Y-81545500D01*
X227355803Y-81506144D01*
X227528730Y-81429151D01*
X227681871Y-81317888D01*
X227808533Y-81177216D01*
X227903179Y-81013284D01*
X227961674Y-80833256D01*
X227981460Y-80645000D01*
X227961674Y-80456744D01*
X227903179Y-80276716D01*
X227835793Y-80160000D01*
X229784341Y-80160000D01*
X229804936Y-80395403D01*
X229804938Y-80395413D01*
X229866094Y-80623655D01*
X229866096Y-80623659D01*
X229866097Y-80623663D01*
X229870000Y-80632032D01*
X229965965Y-80837830D01*
X229965967Y-80837834D01*
X230074281Y-80992521D01*
X230101505Y-81031401D01*
X230268599Y-81198495D01*
X230308186Y-81226214D01*
X230462165Y-81334032D01*
X230462167Y-81334033D01*
X230462170Y-81334035D01*
X230676337Y-81433903D01*
X230904592Y-81495063D01*
X231092918Y-81511539D01*
X231139999Y-81515659D01*
X231140000Y-81515659D01*
X231140001Y-81515659D01*
X231179234Y-81512226D01*
X231375408Y-81495063D01*
X231603663Y-81433903D01*
X231817830Y-81334035D01*
X232011401Y-81198495D01*
X232178495Y-81031401D01*
X232308425Y-80845842D01*
X232363002Y-80802217D01*
X232432500Y-80795023D01*
X232494855Y-80826546D01*
X232511575Y-80845842D01*
X232641500Y-81031395D01*
X232641505Y-81031401D01*
X232808599Y-81198495D01*
X232848186Y-81226214D01*
X233002165Y-81334032D01*
X233002167Y-81334033D01*
X233002170Y-81334035D01*
X233216337Y-81433903D01*
X233444592Y-81495063D01*
X233632918Y-81511539D01*
X233679999Y-81515659D01*
X233680000Y-81515659D01*
X233680001Y-81515659D01*
X233719234Y-81512226D01*
X233915408Y-81495063D01*
X234143663Y-81433903D01*
X234357830Y-81334035D01*
X234551401Y-81198495D01*
X234718495Y-81031401D01*
X234854035Y-80837830D01*
X234953903Y-80623663D01*
X235015063Y-80395408D01*
X235035659Y-80160000D01*
X235015063Y-79924592D01*
X234953903Y-79696337D01*
X234854035Y-79482171D01*
X234848425Y-79474158D01*
X234718494Y-79288597D01*
X234551402Y-79121506D01*
X234551396Y-79121501D01*
X234365842Y-78991575D01*
X234322217Y-78936998D01*
X234315023Y-78867500D01*
X234346546Y-78805145D01*
X234365842Y-78788425D01*
X234474785Y-78712142D01*
X234551401Y-78658495D01*
X234718495Y-78491401D01*
X234854035Y-78297830D01*
X234953903Y-78083663D01*
X235015063Y-77855408D01*
X235035659Y-77620000D01*
X235015063Y-77384592D01*
X234953903Y-77156337D01*
X234854035Y-76942171D01*
X234853746Y-76941757D01*
X234718494Y-76748597D01*
X234551402Y-76581506D01*
X234551396Y-76581501D01*
X234365842Y-76451575D01*
X234322217Y-76396998D01*
X234315023Y-76327500D01*
X234346546Y-76265145D01*
X234365842Y-76248425D01*
X234431494Y-76202455D01*
X234551401Y-76118495D01*
X234718495Y-75951401D01*
X234854035Y-75757830D01*
X234953903Y-75543663D01*
X235015063Y-75315408D01*
X235035659Y-75080000D01*
X235015063Y-74844592D01*
X234953903Y-74616337D01*
X234854035Y-74402171D01*
X234834100Y-74373700D01*
X234718494Y-74208597D01*
X234551402Y-74041506D01*
X234551396Y-74041501D01*
X234365842Y-73911575D01*
X234322217Y-73856998D01*
X234315023Y-73787500D01*
X234346546Y-73725145D01*
X234365842Y-73708425D01*
X234433176Y-73661277D01*
X234551401Y-73578495D01*
X234718495Y-73411401D01*
X234854035Y-73217830D01*
X234953903Y-73003663D01*
X235015063Y-72775408D01*
X235035659Y-72540000D01*
X235032933Y-72508848D01*
X235015063Y-72304596D01*
X235015063Y-72304592D01*
X234953903Y-72076337D01*
X234854035Y-71862171D01*
X234718495Y-71668599D01*
X234596567Y-71546671D01*
X234563084Y-71485351D01*
X234568068Y-71415659D01*
X234609939Y-71359725D01*
X234640915Y-71342810D01*
X234772331Y-71293796D01*
X234887546Y-71207546D01*
X234973796Y-71092331D01*
X235024091Y-70957483D01*
X235030500Y-70897873D01*
X235030499Y-69102128D01*
X235024091Y-69042517D01*
X234973796Y-68907669D01*
X234973795Y-68907668D01*
X234973793Y-68907664D01*
X234887547Y-68792455D01*
X234887544Y-68792452D01*
X234772335Y-68706206D01*
X234772328Y-68706202D01*
X234637482Y-68655908D01*
X234637483Y-68655908D01*
X234577883Y-68649501D01*
X234577881Y-68649500D01*
X234577873Y-68649500D01*
X234577864Y-68649500D01*
X232782129Y-68649500D01*
X232782123Y-68649501D01*
X232722516Y-68655908D01*
X232587671Y-68706202D01*
X232587664Y-68706206D01*
X232472455Y-68792452D01*
X232472452Y-68792455D01*
X232386206Y-68907664D01*
X232386202Y-68907671D01*
X232335908Y-69042517D01*
X232329501Y-69102116D01*
X232329501Y-69102123D01*
X232329500Y-69102135D01*
X232329500Y-70897870D01*
X232329501Y-70897876D01*
X232335908Y-70957483D01*
X232386202Y-71092328D01*
X232386206Y-71092335D01*
X232472452Y-71207544D01*
X232472455Y-71207547D01*
X232587664Y-71293793D01*
X232587671Y-71293797D01*
X232719081Y-71342810D01*
X232775015Y-71384681D01*
X232799432Y-71450145D01*
X232784580Y-71518418D01*
X232763430Y-71546673D01*
X232641503Y-71668600D01*
X232505965Y-71862169D01*
X232505964Y-71862171D01*
X232406098Y-72076335D01*
X232406094Y-72076344D01*
X232344938Y-72304586D01*
X232344936Y-72304596D01*
X232324341Y-72539999D01*
X232324341Y-72540000D01*
X232344936Y-72775403D01*
X232344938Y-72775413D01*
X232406094Y-73003655D01*
X232406096Y-73003659D01*
X232406097Y-73003663D01*
X232505221Y-73216235D01*
X232505965Y-73217830D01*
X232505967Y-73217834D01*
X232641501Y-73411395D01*
X232641506Y-73411402D01*
X232808597Y-73578493D01*
X232808603Y-73578498D01*
X232994158Y-73708425D01*
X233037783Y-73763002D01*
X233044977Y-73832500D01*
X233013454Y-73894855D01*
X232994158Y-73911575D01*
X232808600Y-74041503D01*
X232686673Y-74163430D01*
X232625350Y-74196914D01*
X232555658Y-74191930D01*
X232499725Y-74150058D01*
X232482810Y-74119081D01*
X232433797Y-73987671D01*
X232433793Y-73987664D01*
X232347547Y-73872455D01*
X232347544Y-73872452D01*
X232232335Y-73786206D01*
X232232328Y-73786202D01*
X232097482Y-73735908D01*
X232097483Y-73735908D01*
X232037883Y-73729501D01*
X232037881Y-73729500D01*
X232037873Y-73729500D01*
X232037864Y-73729500D01*
X230242129Y-73729500D01*
X230242123Y-73729501D01*
X230182516Y-73735908D01*
X230047671Y-73786202D01*
X230047664Y-73786206D01*
X229932455Y-73872452D01*
X229932452Y-73872455D01*
X229846206Y-73987664D01*
X229846202Y-73987671D01*
X229795908Y-74122517D01*
X229789501Y-74182116D01*
X229789500Y-74182135D01*
X229789500Y-75977870D01*
X229789501Y-75977876D01*
X229795908Y-76037483D01*
X229846202Y-76172328D01*
X229846206Y-76172335D01*
X229932452Y-76287544D01*
X229932455Y-76287547D01*
X230047664Y-76373793D01*
X230047671Y-76373797D01*
X230179081Y-76422810D01*
X230235015Y-76464681D01*
X230259432Y-76530145D01*
X230244580Y-76598418D01*
X230223430Y-76626673D01*
X230101503Y-76748600D01*
X229965965Y-76942169D01*
X229965964Y-76942171D01*
X229866098Y-77156335D01*
X229866094Y-77156344D01*
X229804938Y-77384586D01*
X229804936Y-77384596D01*
X229784341Y-77619999D01*
X229784341Y-77620000D01*
X229804936Y-77855403D01*
X229804938Y-77855413D01*
X229866094Y-78083655D01*
X229866096Y-78083659D01*
X229866097Y-78083663D01*
X229871171Y-78094544D01*
X229965965Y-78297830D01*
X229965967Y-78297834D01*
X230025753Y-78383216D01*
X230101501Y-78491396D01*
X230101506Y-78491402D01*
X230268597Y-78658493D01*
X230268603Y-78658498D01*
X230454158Y-78788425D01*
X230497783Y-78843002D01*
X230504977Y-78912500D01*
X230473454Y-78974855D01*
X230454158Y-78991575D01*
X230268597Y-79121505D01*
X230101505Y-79288597D01*
X229965965Y-79482169D01*
X229965964Y-79482171D01*
X229866098Y-79696335D01*
X229866094Y-79696344D01*
X229804938Y-79924586D01*
X229804936Y-79924596D01*
X229784341Y-80159999D01*
X229784341Y-80160000D01*
X227835793Y-80160000D01*
X227808533Y-80112784D01*
X227681871Y-79972112D01*
X227616471Y-79924596D01*
X227528734Y-79860851D01*
X227528729Y-79860848D01*
X227355807Y-79783857D01*
X227355806Y-79783856D01*
X227328396Y-79778030D01*
X227266915Y-79744835D01*
X227233140Y-79683672D01*
X227233354Y-79628861D01*
X228558072Y-73888424D01*
X228570645Y-73794135D01*
X228572426Y-73747710D01*
X228567115Y-73652744D01*
X228525573Y-73514992D01*
X228498098Y-73455973D01*
X228497238Y-73453923D01*
X228496085Y-73451647D01*
X228496083Y-73451644D01*
X228496082Y-73451641D01*
X228417412Y-73331173D01*
X228417409Y-73331170D01*
X228307993Y-73237752D01*
X228307986Y-73237748D01*
X228276489Y-73217830D01*
X228248935Y-73200405D01*
X228117629Y-73141595D01*
X228117627Y-73141594D01*
X226578397Y-72701813D01*
X226458915Y-72682737D01*
X226458909Y-72682736D01*
X226423571Y-72681380D01*
X226400015Y-72680477D01*
X226400014Y-72680477D01*
X226400013Y-72680477D01*
X226400011Y-72680477D01*
X226279422Y-72690342D01*
X226279414Y-72690344D01*
X226143986Y-72738922D01*
X226082247Y-72771631D01*
X226045535Y-72798398D01*
X225979768Y-72821987D01*
X225911687Y-72806275D01*
X225870266Y-72765309D01*
X225869255Y-72766044D01*
X225865434Y-72760785D01*
X225738770Y-72620111D01*
X225585634Y-72508851D01*
X225585629Y-72508848D01*
X225412707Y-72431857D01*
X225412702Y-72431855D01*
X225266901Y-72400865D01*
X225227546Y-72392500D01*
X225038254Y-72392500D01*
X225005797Y-72399398D01*
X224853097Y-72431855D01*
X224853092Y-72431857D01*
X224680170Y-72508848D01*
X224680165Y-72508851D01*
X224527029Y-72620111D01*
X224400366Y-72760785D01*
X224305721Y-72924715D01*
X224305718Y-72924722D01*
X224254383Y-73082716D01*
X224247226Y-73104744D01*
X224227440Y-73293000D01*
X224247226Y-73481256D01*
X224247227Y-73481259D01*
X224305718Y-73661277D01*
X224305721Y-73661284D01*
X224400367Y-73825216D01*
X224526049Y-73964800D01*
X224527029Y-73965888D01*
X224680165Y-74077148D01*
X224680170Y-74077151D01*
X224853092Y-74154142D01*
X224853097Y-74154144D01*
X225038254Y-74193500D01*
X225038255Y-74193500D01*
X225227544Y-74193500D01*
X225227546Y-74193500D01*
X225381383Y-74160801D01*
X225451049Y-74166117D01*
X225506783Y-74208254D01*
X225530888Y-74273834D01*
X225527988Y-74309974D01*
X225013381Y-76539938D01*
X224979126Y-76600834D01*
X224917385Y-76633544D01*
X224847762Y-76627682D01*
X224792361Y-76585109D01*
X224785168Y-76574054D01*
X224780143Y-76565351D01*
X224760533Y-76531384D01*
X224633871Y-76390712D01*
X224633870Y-76390711D01*
X224480734Y-76279451D01*
X224480729Y-76279448D01*
X224307807Y-76202457D01*
X224307802Y-76202455D01*
X224162001Y-76171465D01*
X224122646Y-76163100D01*
X223933354Y-76163100D01*
X223900897Y-76169998D01*
X223748197Y-76202455D01*
X223748192Y-76202457D01*
X223575270Y-76279448D01*
X223575265Y-76279451D01*
X223422129Y-76390711D01*
X223295466Y-76531385D01*
X223200821Y-76695315D01*
X223200818Y-76695322D01*
X223142327Y-76875340D01*
X223142326Y-76875344D01*
X223122540Y-77063600D01*
X223142326Y-77251856D01*
X223142327Y-77251859D01*
X223200818Y-77431877D01*
X223200821Y-77431884D01*
X223295467Y-77595816D01*
X223422129Y-77736488D01*
X223575265Y-77847748D01*
X223575270Y-77847751D01*
X223748192Y-77924742D01*
X223748197Y-77924744D01*
X223933354Y-77964100D01*
X223933355Y-77964100D01*
X224122644Y-77964100D01*
X224122646Y-77964100D01*
X224307803Y-77924744D01*
X224480730Y-77847751D01*
X224484107Y-77845296D01*
X224489804Y-77841159D01*
X224555610Y-77817678D01*
X224623664Y-77833503D01*
X224672359Y-77883608D01*
X224686235Y-77952086D01*
X224683515Y-77969359D01*
X224463196Y-78924075D01*
X224453228Y-78982959D01*
X224452480Y-78989818D01*
X224425637Y-79054326D01*
X224368180Y-79094081D01*
X224354995Y-79097653D01*
X224306994Y-79107856D01*
X224306992Y-79107857D01*
X224134070Y-79184848D01*
X224134065Y-79184851D01*
X223980929Y-79296111D01*
X223854266Y-79436785D01*
X223759621Y-79600715D01*
X223759619Y-79600719D01*
X223711904Y-79747572D01*
X223672466Y-79805247D01*
X223619759Y-79830542D01*
X223608881Y-79832854D01*
X223608875Y-79832856D01*
X223435951Y-79909848D01*
X223435946Y-79909851D01*
X223282810Y-80021111D01*
X223156147Y-80161785D01*
X223061502Y-80325715D01*
X223061499Y-80325722D01*
X223018929Y-80456740D01*
X223003007Y-80505744D01*
X222983221Y-80694000D01*
X210817500Y-80694000D01*
X210817500Y-77851000D01*
X211565540Y-77851000D01*
X211585326Y-78039256D01*
X211585327Y-78039259D01*
X211643818Y-78219277D01*
X211643821Y-78219284D01*
X211738467Y-78383216D01*
X211865129Y-78523888D01*
X212018265Y-78635148D01*
X212018270Y-78635151D01*
X212191192Y-78712142D01*
X212191197Y-78712144D01*
X212376354Y-78751500D01*
X212376355Y-78751500D01*
X212565644Y-78751500D01*
X212565646Y-78751500D01*
X212750803Y-78712144D01*
X212923730Y-78635151D01*
X213076871Y-78523888D01*
X213203533Y-78383216D01*
X213261508Y-78282800D01*
X217686940Y-78282800D01*
X217706726Y-78471056D01*
X217706727Y-78471059D01*
X217765218Y-78651077D01*
X217765221Y-78651084D01*
X217859867Y-78815016D01*
X217986529Y-78955688D01*
X218139665Y-79066948D01*
X218139670Y-79066951D01*
X218312592Y-79143942D01*
X218312597Y-79143944D01*
X218497754Y-79183300D01*
X218497755Y-79183300D01*
X218687044Y-79183300D01*
X218687046Y-79183300D01*
X218872203Y-79143944D01*
X219045130Y-79066951D01*
X219198271Y-78955688D01*
X219324933Y-78815016D01*
X219419579Y-78651084D01*
X219478074Y-78471056D01*
X219497860Y-78282800D01*
X219478074Y-78094544D01*
X219419579Y-77914516D01*
X219324933Y-77750584D01*
X219198271Y-77609912D01*
X219198270Y-77609911D01*
X219045134Y-77498651D01*
X219045129Y-77498648D01*
X218872207Y-77421657D01*
X218872202Y-77421655D01*
X218726401Y-77390665D01*
X218687046Y-77382300D01*
X218497754Y-77382300D01*
X218465297Y-77389198D01*
X218312597Y-77421655D01*
X218312592Y-77421657D01*
X218139670Y-77498648D01*
X218139665Y-77498651D01*
X217986529Y-77609911D01*
X217859866Y-77750585D01*
X217765221Y-77914515D01*
X217765218Y-77914522D01*
X217724690Y-78039256D01*
X217706726Y-78094544D01*
X217686940Y-78282800D01*
X213261508Y-78282800D01*
X213298179Y-78219284D01*
X213356674Y-78039256D01*
X213376460Y-77851000D01*
X213356674Y-77662744D01*
X213298179Y-77482716D01*
X213203533Y-77318784D01*
X213076871Y-77178112D01*
X213046910Y-77156344D01*
X212923734Y-77066851D01*
X212923729Y-77066848D01*
X212750807Y-76989857D01*
X212750802Y-76989855D01*
X212605001Y-76958865D01*
X212565646Y-76950500D01*
X212376354Y-76950500D01*
X212343897Y-76957398D01*
X212191197Y-76989855D01*
X212191192Y-76989857D01*
X212018270Y-77066848D01*
X212018265Y-77066851D01*
X211865129Y-77178111D01*
X211738466Y-77318785D01*
X211643821Y-77482715D01*
X211643818Y-77482722D01*
X211599214Y-77620000D01*
X211585326Y-77662744D01*
X211565540Y-77851000D01*
X210817500Y-77851000D01*
X210817500Y-75003200D01*
X210811458Y-74947000D01*
X213324400Y-74947000D01*
X213324401Y-74947009D01*
X213335952Y-75054450D01*
X213335954Y-75054462D01*
X213347160Y-75105972D01*
X213381283Y-75208497D01*
X213381286Y-75208503D01*
X213459071Y-75329537D01*
X213459079Y-75329548D01*
X213504823Y-75382340D01*
X213504826Y-75382343D01*
X213504830Y-75382347D01*
X213613564Y-75476567D01*
X213613567Y-75476568D01*
X213613568Y-75476569D01*
X213707825Y-75519616D01*
X213744441Y-75536338D01*
X213811480Y-75556023D01*
X213811484Y-75556024D01*
X213953900Y-75576500D01*
X213953903Y-75576500D01*
X222341890Y-75576500D01*
X222341900Y-75576500D01*
X222449356Y-75564947D01*
X222500867Y-75553741D01*
X222535097Y-75542347D01*
X222603397Y-75519616D01*
X222603401Y-75519613D01*
X222603404Y-75519613D01*
X222724443Y-75441825D01*
X222777247Y-75396070D01*
X222871467Y-75287336D01*
X222931238Y-75156459D01*
X222950923Y-75089420D01*
X222950924Y-75089416D01*
X222971400Y-74947000D01*
X222971400Y-70245000D01*
X227148440Y-70245000D01*
X227168226Y-70433256D01*
X227168227Y-70433259D01*
X227226718Y-70613277D01*
X227226721Y-70613284D01*
X227321367Y-70777216D01*
X227430007Y-70897873D01*
X227448029Y-70917888D01*
X227601165Y-71029148D01*
X227601170Y-71029151D01*
X227774092Y-71106142D01*
X227774097Y-71106144D01*
X227959254Y-71145500D01*
X227959255Y-71145500D01*
X228148544Y-71145500D01*
X228148546Y-71145500D01*
X228333703Y-71106144D01*
X228506630Y-71029151D01*
X228659771Y-70917888D01*
X228786433Y-70777216D01*
X228881079Y-70613284D01*
X228939574Y-70433256D01*
X228959360Y-70245000D01*
X228939574Y-70056744D01*
X228881079Y-69876716D01*
X228786433Y-69712784D01*
X228659771Y-69572112D01*
X228659770Y-69572111D01*
X228506634Y-69460851D01*
X228506629Y-69460848D01*
X228333707Y-69383857D01*
X228333702Y-69383855D01*
X228187901Y-69352865D01*
X228148546Y-69344500D01*
X227959254Y-69344500D01*
X227926797Y-69351398D01*
X227774097Y-69383855D01*
X227774092Y-69383857D01*
X227601170Y-69460848D01*
X227601165Y-69460851D01*
X227448029Y-69572111D01*
X227321366Y-69712785D01*
X227226721Y-69876715D01*
X227226718Y-69876722D01*
X227186664Y-69999997D01*
X227168226Y-70056744D01*
X227148440Y-70245000D01*
X222971400Y-70245000D01*
X222971400Y-67829000D01*
X222959847Y-67721544D01*
X222948641Y-67670033D01*
X222948537Y-67669722D01*
X222914516Y-67567502D01*
X222914513Y-67567496D01*
X222836728Y-67446462D01*
X222836725Y-67446457D01*
X222836720Y-67446451D01*
X222790976Y-67393659D01*
X222790972Y-67393656D01*
X222790970Y-67393653D01*
X222682236Y-67299433D01*
X222682233Y-67299431D01*
X222682231Y-67299430D01*
X222551365Y-67239664D01*
X222551360Y-67239662D01*
X222551359Y-67239662D01*
X222484320Y-67219977D01*
X222484322Y-67219977D01*
X222484317Y-67219976D01*
X222404497Y-67208500D01*
X222341900Y-67199500D01*
X213953900Y-67199500D01*
X213953891Y-67199500D01*
X213953890Y-67199501D01*
X213846449Y-67211052D01*
X213846437Y-67211054D01*
X213794927Y-67222260D01*
X213692402Y-67256383D01*
X213692396Y-67256386D01*
X213571362Y-67334171D01*
X213571351Y-67334179D01*
X213518559Y-67379923D01*
X213424333Y-67488664D01*
X213424330Y-67488668D01*
X213364564Y-67619534D01*
X213344876Y-67686582D01*
X213339849Y-67721549D01*
X213324400Y-67829000D01*
X213324400Y-74947000D01*
X210811458Y-74947000D01*
X210805947Y-74895744D01*
X210794741Y-74844233D01*
X210794637Y-74843922D01*
X210760616Y-74741702D01*
X210760613Y-74741696D01*
X210682828Y-74620662D01*
X210682825Y-74620657D01*
X210679080Y-74616335D01*
X210637076Y-74567859D01*
X210637072Y-74567856D01*
X210637070Y-74567853D01*
X210528336Y-74473633D01*
X210528333Y-74473631D01*
X210528331Y-74473630D01*
X210397465Y-74413864D01*
X210397460Y-74413862D01*
X210397459Y-74413862D01*
X210330420Y-74394177D01*
X210330422Y-74394177D01*
X210330417Y-74394176D01*
X210282944Y-74387350D01*
X210188000Y-74373700D01*
X210187998Y-74373700D01*
X209385841Y-74373700D01*
X209360060Y-74370990D01*
X209294219Y-74356995D01*
X209232737Y-74323803D01*
X209198961Y-74262639D01*
X209202069Y-74197386D01*
X209216474Y-74153056D01*
X209236260Y-73964800D01*
X209216474Y-73776544D01*
X209157979Y-73596516D01*
X209063333Y-73432584D01*
X208989621Y-73350719D01*
X208959392Y-73287729D01*
X208968017Y-73218394D01*
X208968979Y-73216235D01*
X208999334Y-73149768D01*
X208999334Y-73149767D01*
X208999338Y-73149759D01*
X209019023Y-73082720D01*
X209019024Y-73082716D01*
X209039500Y-72940300D01*
X209039500Y-65567870D01*
X210258500Y-65567870D01*
X210258501Y-65567876D01*
X210264908Y-65627483D01*
X210315202Y-65762328D01*
X210315206Y-65762335D01*
X210360546Y-65822900D01*
X210401454Y-65877546D01*
X210498091Y-65949889D01*
X210539962Y-66005822D01*
X210544946Y-66075514D01*
X210541712Y-66087471D01*
X210531226Y-66119742D01*
X210531226Y-66119743D01*
X210531226Y-66119744D01*
X210511440Y-66308000D01*
X210531226Y-66496256D01*
X210531227Y-66496259D01*
X210589718Y-66676277D01*
X210589721Y-66676284D01*
X210684367Y-66840216D01*
X210811029Y-66980888D01*
X210964165Y-67092148D01*
X210964170Y-67092151D01*
X211137092Y-67169142D01*
X211137097Y-67169144D01*
X211322254Y-67208500D01*
X211322255Y-67208500D01*
X211511544Y-67208500D01*
X211511546Y-67208500D01*
X211696703Y-67169144D01*
X211869630Y-67092151D01*
X212022771Y-66980888D01*
X212149433Y-66840216D01*
X212244079Y-66676284D01*
X212302574Y-66496256D01*
X212322360Y-66308000D01*
X212304342Y-66136573D01*
X212316911Y-66067848D01*
X212364643Y-66016824D01*
X212384331Y-66007434D01*
X212387624Y-66006206D01*
X212501331Y-65963796D01*
X212616546Y-65877546D01*
X212702796Y-65762331D01*
X212753091Y-65627483D01*
X212759500Y-65567873D01*
X212759499Y-64770000D01*
X213026225Y-64770000D01*
X213045287Y-64987884D01*
X213045289Y-64987894D01*
X213101894Y-65199150D01*
X213101898Y-65199159D01*
X213194333Y-65397387D01*
X213237874Y-65459571D01*
X213797922Y-64899523D01*
X213821507Y-64979844D01*
X213899239Y-65100798D01*
X214007900Y-65194952D01*
X214138685Y-65254680D01*
X214148466Y-65256086D01*
X213591427Y-65813124D01*
X213653612Y-65856666D01*
X213851840Y-65949101D01*
X213851849Y-65949105D01*
X214063105Y-66005710D01*
X214063115Y-66005712D01*
X214280999Y-66024775D01*
X214281001Y-66024775D01*
X214498884Y-66005712D01*
X214498894Y-66005710D01*
X214710150Y-65949105D01*
X214710164Y-65949100D01*
X214908383Y-65856669D01*
X214908385Y-65856668D01*
X214970571Y-65813124D01*
X214413534Y-65256086D01*
X214423315Y-65254680D01*
X214554100Y-65194952D01*
X214662761Y-65100798D01*
X214740493Y-64979844D01*
X214764076Y-64899523D01*
X215324124Y-65459570D01*
X215367668Y-65397385D01*
X215367669Y-65397383D01*
X215460100Y-65199164D01*
X215460105Y-65199150D01*
X215516710Y-64987894D01*
X215516712Y-64987884D01*
X215535775Y-64770000D01*
X215535775Y-64769999D01*
X215516712Y-64552115D01*
X215516710Y-64552105D01*
X215460105Y-64340849D01*
X215460101Y-64340840D01*
X215367667Y-64142614D01*
X215367666Y-64142612D01*
X215324124Y-64080428D01*
X215324124Y-64080427D01*
X214764076Y-64640475D01*
X214740493Y-64560156D01*
X214662761Y-64439202D01*
X214554100Y-64345048D01*
X214423315Y-64285320D01*
X214413533Y-64283913D01*
X214970571Y-63726874D01*
X214908387Y-63683333D01*
X214710159Y-63590898D01*
X214710150Y-63590894D01*
X214498894Y-63534289D01*
X214498884Y-63534287D01*
X214281001Y-63515225D01*
X214280999Y-63515225D01*
X214063115Y-63534287D01*
X214063105Y-63534289D01*
X213851849Y-63590894D01*
X213851840Y-63590898D01*
X213653613Y-63683333D01*
X213591428Y-63726874D01*
X214148467Y-64283913D01*
X214138685Y-64285320D01*
X214007900Y-64345048D01*
X213899239Y-64439202D01*
X213821507Y-64560156D01*
X213797923Y-64640476D01*
X213237874Y-64080428D01*
X213194333Y-64142613D01*
X213101898Y-64340840D01*
X213101894Y-64340849D01*
X213045289Y-64552105D01*
X213045287Y-64552115D01*
X213026225Y-64769999D01*
X213026225Y-64770000D01*
X212759499Y-64770000D01*
X212759499Y-63972128D01*
X212753091Y-63912517D01*
X212720475Y-63825070D01*
X212702797Y-63777671D01*
X212702793Y-63777664D01*
X212616547Y-63662455D01*
X212616544Y-63662452D01*
X212501335Y-63576206D01*
X212501328Y-63576202D01*
X212366482Y-63525908D01*
X212366483Y-63525908D01*
X212306883Y-63519501D01*
X212306881Y-63519500D01*
X212306873Y-63519500D01*
X212306864Y-63519500D01*
X210711129Y-63519500D01*
X210711123Y-63519501D01*
X210651516Y-63525908D01*
X210516671Y-63576202D01*
X210516664Y-63576206D01*
X210401455Y-63662452D01*
X210401452Y-63662455D01*
X210315206Y-63777664D01*
X210315202Y-63777671D01*
X210264908Y-63912517D01*
X210258501Y-63972116D01*
X210258501Y-63972123D01*
X210258500Y-63972135D01*
X210258500Y-65567870D01*
X209039500Y-65567870D01*
X209039500Y-61930000D01*
X211639723Y-61930000D01*
X211658081Y-62139844D01*
X211658793Y-62147975D01*
X211658793Y-62147979D01*
X211715422Y-62359322D01*
X211715424Y-62359326D01*
X211715425Y-62359330D01*
X211741235Y-62414680D01*
X211807897Y-62557638D01*
X211807898Y-62557639D01*
X211933402Y-62736877D01*
X212088123Y-62891598D01*
X212267361Y-63017102D01*
X212465670Y-63109575D01*
X212677023Y-63166207D01*
X212859926Y-63182208D01*
X212894998Y-63185277D01*
X212895000Y-63185277D01*
X212895002Y-63185277D01*
X212923254Y-63182805D01*
X213112977Y-63166207D01*
X213324330Y-63109575D01*
X213522639Y-63017102D01*
X213701877Y-62891598D01*
X213856598Y-62736877D01*
X213982102Y-62557639D01*
X214074575Y-62359330D01*
X214131207Y-62147977D01*
X214150277Y-61930000D01*
X214131207Y-61712023D01*
X214074575Y-61500670D01*
X213982102Y-61302362D01*
X213982100Y-61302359D01*
X213982099Y-61302357D01*
X213856599Y-61123124D01*
X213780131Y-61046656D01*
X213701877Y-60968402D01*
X213544778Y-60858400D01*
X213522638Y-60842897D01*
X213365039Y-60769408D01*
X213324330Y-60750425D01*
X213324326Y-60750424D01*
X213324322Y-60750422D01*
X213112977Y-60693793D01*
X212895002Y-60674723D01*
X212894998Y-60674723D01*
X212749682Y-60687436D01*
X212677023Y-60693793D01*
X212677020Y-60693793D01*
X212465677Y-60750422D01*
X212465668Y-60750426D01*
X212267361Y-60842898D01*
X212267357Y-60842900D01*
X212088121Y-60968402D01*
X211933402Y-61123121D01*
X211807900Y-61302357D01*
X211807898Y-61302361D01*
X211715426Y-61500668D01*
X211715422Y-61500677D01*
X211658793Y-61712020D01*
X211658793Y-61712023D01*
X211639723Y-61930000D01*
X209039500Y-61930000D01*
X209039500Y-60319500D01*
X209059185Y-60252461D01*
X209111989Y-60206706D01*
X209163500Y-60195500D01*
X216286500Y-60195500D01*
X216353539Y-60215185D01*
G37*
G04 #@! TD.AperFunction*
G04 #@! TA.AperFunction,Conductor*
G36*
X210255039Y-74898885D02*
G01*
X210300794Y-74951689D01*
X210312000Y-75003200D01*
X210312000Y-83905392D01*
X210292315Y-83972431D01*
X210239511Y-84018186D01*
X210213787Y-84026681D01*
X210211508Y-84027165D01*
X210211502Y-84027167D01*
X210038580Y-84104158D01*
X210038575Y-84104161D01*
X209885439Y-84215421D01*
X209758776Y-84356095D01*
X209664131Y-84520025D01*
X209664128Y-84520032D01*
X209605637Y-84700050D01*
X209605636Y-84700054D01*
X209585850Y-84888310D01*
X209605636Y-85076566D01*
X209605637Y-85076569D01*
X209664128Y-85256587D01*
X209664131Y-85256594D01*
X209758777Y-85420526D01*
X209885439Y-85561198D01*
X210038575Y-85672458D01*
X210038580Y-85672461D01*
X210211501Y-85749452D01*
X210211504Y-85749452D01*
X210211507Y-85749454D01*
X210213776Y-85749936D01*
X210214962Y-85750576D01*
X210217682Y-85751460D01*
X210217520Y-85751957D01*
X210275259Y-85783126D01*
X210309038Y-85844288D01*
X210312000Y-85871227D01*
X210312000Y-96142000D01*
X210292315Y-96209039D01*
X210239511Y-96254794D01*
X210188000Y-96266000D01*
X208912000Y-96266000D01*
X208844961Y-96246315D01*
X208799206Y-96193511D01*
X208788000Y-96142000D01*
X208788000Y-93221755D01*
X208807685Y-93154716D01*
X208860489Y-93108961D01*
X208929647Y-93099017D01*
X208937769Y-93100462D01*
X208947354Y-93102500D01*
X208947355Y-93102500D01*
X209136644Y-93102500D01*
X209136646Y-93102500D01*
X209321803Y-93063144D01*
X209494730Y-92986151D01*
X209647871Y-92874888D01*
X209774533Y-92734216D01*
X209869179Y-92570284D01*
X209927674Y-92390256D01*
X209947460Y-92202000D01*
X209927674Y-92013744D01*
X209869179Y-91833716D01*
X209774533Y-91669784D01*
X209647871Y-91529112D01*
X209647870Y-91529111D01*
X209494734Y-91417851D01*
X209494729Y-91417848D01*
X209321807Y-91340857D01*
X209321802Y-91340855D01*
X209176001Y-91309865D01*
X209136646Y-91301500D01*
X208947354Y-91301500D01*
X208941533Y-91302737D01*
X208937774Y-91303536D01*
X208868107Y-91298215D01*
X208812376Y-91256075D01*
X208788275Y-91190494D01*
X208788000Y-91182244D01*
X208788000Y-75003200D01*
X208807685Y-74936161D01*
X208860489Y-74890406D01*
X208912000Y-74879200D01*
X210188000Y-74879200D01*
X210255039Y-74898885D01*
G37*
G04 #@! TD.AperFunction*
G04 #@! TA.AperFunction,Conductor*
G36*
X235147039Y-57423685D02*
G01*
X235192794Y-57476489D01*
X235204000Y-57528000D01*
X235204000Y-60055582D01*
X235184315Y-60122621D01*
X235131511Y-60168376D01*
X235062353Y-60178320D01*
X235007115Y-60155900D01*
X234894734Y-60074251D01*
X234894729Y-60074248D01*
X234721807Y-59997257D01*
X234721802Y-59997255D01*
X234576001Y-59966265D01*
X234536646Y-59957900D01*
X234347354Y-59957900D01*
X234314897Y-59964798D01*
X234162197Y-59997255D01*
X234162192Y-59997257D01*
X233989270Y-60074248D01*
X233989265Y-60074251D01*
X233836129Y-60185511D01*
X233709466Y-60326185D01*
X233614821Y-60490115D01*
X233614818Y-60490122D01*
X233556327Y-60670140D01*
X233556326Y-60670144D01*
X233536540Y-60858400D01*
X233556326Y-61046656D01*
X233556327Y-61046659D01*
X233614818Y-61226677D01*
X233614821Y-61226684D01*
X233709467Y-61390616D01*
X233808567Y-61500677D01*
X233836129Y-61531288D01*
X233989265Y-61642548D01*
X233989270Y-61642551D01*
X234162192Y-61719542D01*
X234162197Y-61719544D01*
X234347354Y-61758900D01*
X234347355Y-61758900D01*
X234536644Y-61758900D01*
X234536646Y-61758900D01*
X234721803Y-61719544D01*
X234894730Y-61642551D01*
X235007115Y-61560899D01*
X235072921Y-61537419D01*
X235140975Y-61553244D01*
X235189670Y-61603350D01*
X235204000Y-61661217D01*
X235204000Y-63376000D01*
X235184315Y-63443039D01*
X235131511Y-63488794D01*
X235080000Y-63500000D01*
X232577112Y-63500000D01*
X232510073Y-63480315D01*
X232464318Y-63427511D01*
X232453322Y-63368791D01*
X232454416Y-63350005D01*
X232454416Y-63349996D01*
X232440413Y-63109577D01*
X232434771Y-63012702D01*
X232376100Y-62679965D01*
X232279198Y-62356289D01*
X232145375Y-62046052D01*
X231976440Y-61753448D01*
X231976439Y-61753446D01*
X231774681Y-61482438D01*
X231774676Y-61482432D01*
X231662564Y-61363601D01*
X231542817Y-61236677D01*
X231542810Y-61236671D01*
X231542808Y-61236669D01*
X231283998Y-61019500D01*
X231142851Y-60926667D01*
X231001708Y-60833836D01*
X230996593Y-60831267D01*
X230699783Y-60682203D01*
X230699777Y-60682200D01*
X230382284Y-60566642D01*
X230382281Y-60566641D01*
X230155639Y-60512926D01*
X230053520Y-60488724D01*
X229717935Y-60449500D01*
X229380065Y-60449500D01*
X229044480Y-60488724D01*
X228715718Y-60566641D01*
X228715715Y-60566642D01*
X228398222Y-60682200D01*
X228398216Y-60682203D01*
X228096295Y-60833834D01*
X227814001Y-61019500D01*
X227555191Y-61236669D01*
X227555181Y-61236679D01*
X227323323Y-61482432D01*
X227323318Y-61482438D01*
X227121560Y-61753446D01*
X226952627Y-62046047D01*
X226952621Y-62046060D01*
X226818801Y-62356289D01*
X226721899Y-62679968D01*
X226721896Y-62679982D01*
X226663230Y-63012690D01*
X226663229Y-63012701D01*
X226643584Y-63349996D01*
X226643584Y-63350005D01*
X226644678Y-63368791D01*
X226628924Y-63436862D01*
X226578870Y-63485609D01*
X226520888Y-63500000D01*
X217040000Y-63500000D01*
X216972961Y-63480315D01*
X216927206Y-63427511D01*
X216916000Y-63376000D01*
X216916000Y-62018590D01*
X216916472Y-62007783D01*
X216923277Y-61930002D01*
X219957723Y-61930002D01*
X219976793Y-62147975D01*
X219976793Y-62147979D01*
X220033422Y-62359322D01*
X220033424Y-62359326D01*
X220033425Y-62359330D01*
X220079661Y-62458484D01*
X220125897Y-62557638D01*
X220125898Y-62557639D01*
X220251402Y-62736877D01*
X220406123Y-62891598D01*
X220585361Y-63017102D01*
X220783670Y-63109575D01*
X220995023Y-63166207D01*
X221177926Y-63182208D01*
X221212998Y-63185277D01*
X221213000Y-63185277D01*
X221213002Y-63185277D01*
X221241254Y-63182805D01*
X221430977Y-63166207D01*
X221642330Y-63109575D01*
X221840639Y-63017102D01*
X222019877Y-62891598D01*
X222174598Y-62736877D01*
X222300102Y-62557639D01*
X222392575Y-62359330D01*
X222449207Y-62147977D01*
X222468277Y-61930000D01*
X222449207Y-61712023D01*
X222392575Y-61500670D01*
X222300102Y-61302362D01*
X222300100Y-61302359D01*
X222300099Y-61302357D01*
X222174599Y-61123124D01*
X222098131Y-61046656D01*
X222019877Y-60968402D01*
X221840639Y-60842898D01*
X221840640Y-60842898D01*
X221840638Y-60842897D01*
X221741484Y-60796661D01*
X221642330Y-60750425D01*
X221642326Y-60750424D01*
X221642322Y-60750422D01*
X221430977Y-60693793D01*
X221213002Y-60674723D01*
X221212998Y-60674723D01*
X221067682Y-60687436D01*
X220995023Y-60693793D01*
X220995020Y-60693793D01*
X220783677Y-60750422D01*
X220783668Y-60750426D01*
X220585361Y-60842898D01*
X220585357Y-60842900D01*
X220406121Y-60968402D01*
X220251402Y-61123121D01*
X220125900Y-61302357D01*
X220125898Y-61302361D01*
X220033426Y-61500668D01*
X220033422Y-61500677D01*
X219976793Y-61712020D01*
X219976793Y-61712024D01*
X219957723Y-61929997D01*
X219957723Y-61930002D01*
X216923277Y-61930002D01*
X216923277Y-61930001D01*
X216923277Y-61929997D01*
X216916472Y-61852216D01*
X216916000Y-61841409D01*
X216916000Y-59690000D01*
X208534000Y-59690000D01*
X208534000Y-72940300D01*
X208514315Y-73007339D01*
X208461511Y-73053094D01*
X208410000Y-73064300D01*
X208236154Y-73064300D01*
X208203697Y-73071198D01*
X208050997Y-73103655D01*
X208050992Y-73103657D01*
X207878070Y-73180648D01*
X207878065Y-73180651D01*
X207724929Y-73291911D01*
X207598266Y-73432585D01*
X207503621Y-73596515D01*
X207503618Y-73596522D01*
X207455395Y-73744938D01*
X207445126Y-73776544D01*
X207425340Y-73964800D01*
X207445126Y-74153056D01*
X207445127Y-74153059D01*
X207503618Y-74333077D01*
X207503621Y-74333084D01*
X207598267Y-74497016D01*
X207705711Y-74616344D01*
X207724929Y-74637688D01*
X207878065Y-74748948D01*
X207878070Y-74748951D01*
X208050991Y-74825942D01*
X208050993Y-74825942D01*
X208050997Y-74825944D01*
X208129383Y-74842605D01*
X208190861Y-74875795D01*
X208224638Y-74936958D01*
X208221530Y-75002211D01*
X208207127Y-75046539D01*
X208207126Y-75046541D01*
X208207126Y-75046544D01*
X208187340Y-75234800D01*
X208207126Y-75423056D01*
X208207127Y-75423059D01*
X208265618Y-75603077D01*
X208265622Y-75603087D01*
X208265886Y-75603543D01*
X208265976Y-75603882D01*
X208268262Y-75609014D01*
X208267449Y-75609376D01*
X208282500Y-75665544D01*
X208282500Y-91182232D01*
X208282781Y-91199099D01*
X208283054Y-91207304D01*
X208283056Y-91207335D01*
X208283895Y-91224125D01*
X208312448Y-91358498D01*
X208313802Y-91364867D01*
X208337900Y-91430440D01*
X208366497Y-91483417D01*
X208381019Y-91551761D01*
X208356286Y-91617106D01*
X208349536Y-91625281D01*
X208329532Y-91647500D01*
X208309464Y-91669787D01*
X208214821Y-91833715D01*
X208214818Y-91833722D01*
X208164496Y-91988599D01*
X208156326Y-92013744D01*
X208136540Y-92202000D01*
X208156326Y-92390256D01*
X208156327Y-92390259D01*
X208214818Y-92570277D01*
X208214821Y-92570284D01*
X208309467Y-92734216D01*
X208348035Y-92777050D01*
X208378265Y-92840041D01*
X208369640Y-92909377D01*
X208368679Y-92911534D01*
X208322664Y-93012289D01*
X208302976Y-93079337D01*
X208300665Y-93095413D01*
X208282500Y-93221755D01*
X208282500Y-96142000D01*
X208282501Y-96142009D01*
X208294052Y-96249450D01*
X208294054Y-96249462D01*
X208305260Y-96300972D01*
X208339383Y-96403497D01*
X208339386Y-96403503D01*
X208417171Y-96524537D01*
X208417179Y-96524548D01*
X208462923Y-96577340D01*
X208462926Y-96577343D01*
X208462930Y-96577347D01*
X208571664Y-96671567D01*
X208571667Y-96671568D01*
X208571668Y-96671569D01*
X208660335Y-96712063D01*
X208702541Y-96731338D01*
X208769580Y-96751023D01*
X208769584Y-96751024D01*
X208912000Y-96771500D01*
X208912003Y-96771500D01*
X209844000Y-96771500D01*
X209911039Y-96791185D01*
X209918400Y-96796300D01*
X213306206Y-99337155D01*
X213348027Y-99393126D01*
X213352948Y-99462822D01*
X213322770Y-99518039D01*
X213323883Y-99518973D01*
X213320405Y-99523118D01*
X213194900Y-99702357D01*
X213194898Y-99702361D01*
X213102426Y-99900668D01*
X213102422Y-99900677D01*
X213045793Y-100112020D01*
X213045793Y-100112024D01*
X213026723Y-100329997D01*
X213026723Y-100330002D01*
X213045793Y-100547975D01*
X213045793Y-100547979D01*
X213102422Y-100759322D01*
X213102424Y-100759326D01*
X213102425Y-100759330D01*
X213146078Y-100852944D01*
X213194897Y-100957638D01*
X213194898Y-100957639D01*
X213320402Y-101136877D01*
X213475123Y-101291598D01*
X213654361Y-101417102D01*
X213852670Y-101509575D01*
X214064023Y-101566207D01*
X214246926Y-101582208D01*
X214281998Y-101585277D01*
X214282000Y-101585277D01*
X214282002Y-101585277D01*
X214310254Y-101582805D01*
X214499977Y-101566207D01*
X214711330Y-101509575D01*
X214909639Y-101417102D01*
X215088877Y-101291598D01*
X215243598Y-101136877D01*
X215312722Y-101038157D01*
X215367295Y-100994535D01*
X215436794Y-100987341D01*
X215489896Y-101010997D01*
X216567730Y-101840100D01*
X216867604Y-102070772D01*
X216908739Y-102127249D01*
X216916000Y-102169057D01*
X216916000Y-106810000D01*
X216896315Y-106877039D01*
X216843511Y-106922794D01*
X216792000Y-106934000D01*
X199133000Y-106934000D01*
X199065961Y-106914315D01*
X199020206Y-106861511D01*
X199009000Y-106810000D01*
X199009000Y-104648000D01*
X199500540Y-104648000D01*
X199520326Y-104836256D01*
X199520327Y-104836259D01*
X199578818Y-105016277D01*
X199578821Y-105016284D01*
X199673467Y-105180216D01*
X199800129Y-105320888D01*
X199953265Y-105432148D01*
X199953270Y-105432151D01*
X200126192Y-105509142D01*
X200126197Y-105509144D01*
X200311354Y-105548500D01*
X200311355Y-105548500D01*
X200500644Y-105548500D01*
X200500646Y-105548500D01*
X200685803Y-105509144D01*
X200858730Y-105432151D01*
X201011871Y-105320888D01*
X201138533Y-105180216D01*
X201233179Y-105016284D01*
X201291674Y-104836256D01*
X201311460Y-104648000D01*
X201291674Y-104459744D01*
X201233179Y-104279716D01*
X201138533Y-104115784D01*
X201011871Y-103975112D01*
X201011870Y-103975111D01*
X200858734Y-103863851D01*
X200858729Y-103863848D01*
X200685807Y-103786857D01*
X200685802Y-103786855D01*
X200540001Y-103755865D01*
X200500646Y-103747500D01*
X200311354Y-103747500D01*
X200278897Y-103754398D01*
X200126197Y-103786855D01*
X200126192Y-103786857D01*
X199953270Y-103863848D01*
X199953265Y-103863851D01*
X199800129Y-103975111D01*
X199673466Y-104115785D01*
X199578821Y-104279715D01*
X199578818Y-104279722D01*
X199531525Y-104425277D01*
X199520326Y-104459744D01*
X199500540Y-104648000D01*
X199009000Y-104648000D01*
X199009000Y-100939600D01*
X199500540Y-100939600D01*
X199520326Y-101127856D01*
X199520327Y-101127859D01*
X199578818Y-101307877D01*
X199578821Y-101307884D01*
X199673467Y-101471816D01*
X199765556Y-101574091D01*
X199800129Y-101612488D01*
X199953265Y-101723748D01*
X199953270Y-101723751D01*
X200126192Y-101800742D01*
X200126197Y-101800744D01*
X200311354Y-101840100D01*
X200311355Y-101840100D01*
X200500644Y-101840100D01*
X200500646Y-101840100D01*
X200685803Y-101800744D01*
X200799768Y-101750003D01*
X201653584Y-101750003D01*
X201673229Y-102087298D01*
X201673230Y-102087309D01*
X201731896Y-102420017D01*
X201731899Y-102420031D01*
X201828801Y-102743710D01*
X201962621Y-103053939D01*
X201962627Y-103053952D01*
X202131560Y-103346553D01*
X202333318Y-103617561D01*
X202333323Y-103617567D01*
X202453069Y-103744489D01*
X202565183Y-103863323D01*
X202565189Y-103863328D01*
X202565191Y-103863330D01*
X202824001Y-104080499D01*
X202824006Y-104080502D01*
X203106292Y-104266164D01*
X203408224Y-104417800D01*
X203725717Y-104533358D01*
X204054480Y-104611276D01*
X204390065Y-104650500D01*
X204390072Y-104650500D01*
X204727928Y-104650500D01*
X204727935Y-104650500D01*
X205063520Y-104611276D01*
X205392283Y-104533358D01*
X205709776Y-104417800D01*
X206011708Y-104266164D01*
X206293994Y-104080502D01*
X206552817Y-103863323D01*
X206784678Y-103617565D01*
X206986440Y-103346552D01*
X207088371Y-103170002D01*
X211639723Y-103170002D01*
X211658793Y-103387975D01*
X211658793Y-103387979D01*
X211715422Y-103599322D01*
X211715424Y-103599326D01*
X211715425Y-103599330D01*
X211723929Y-103617567D01*
X211807897Y-103797638D01*
X211807898Y-103797639D01*
X211933402Y-103976877D01*
X212088123Y-104131598D01*
X212267361Y-104257102D01*
X212465670Y-104349575D01*
X212677023Y-104406207D01*
X212859926Y-104422208D01*
X212894998Y-104425277D01*
X212895000Y-104425277D01*
X212895002Y-104425277D01*
X212923254Y-104422805D01*
X213112977Y-104406207D01*
X213324330Y-104349575D01*
X213522639Y-104257102D01*
X213701877Y-104131598D01*
X213856598Y-103976877D01*
X213982102Y-103797639D01*
X214074575Y-103599330D01*
X214131207Y-103387977D01*
X214150277Y-103170000D01*
X214131207Y-102952023D01*
X214074575Y-102740670D01*
X213982102Y-102542362D01*
X213982100Y-102542359D01*
X213982099Y-102542357D01*
X213856599Y-102363124D01*
X213856596Y-102363121D01*
X213701877Y-102208402D01*
X213522639Y-102082898D01*
X213522640Y-102082898D01*
X213522638Y-102082897D01*
X213423484Y-102036661D01*
X213324330Y-101990425D01*
X213324326Y-101990424D01*
X213324322Y-101990422D01*
X213112977Y-101933793D01*
X212895002Y-101914723D01*
X212894998Y-101914723D01*
X212749682Y-101927436D01*
X212677023Y-101933793D01*
X212677020Y-101933793D01*
X212465677Y-101990422D01*
X212465668Y-101990426D01*
X212267361Y-102082898D01*
X212267357Y-102082900D01*
X212088121Y-102208402D01*
X211933402Y-102363121D01*
X211807900Y-102542357D01*
X211807898Y-102542361D01*
X211715426Y-102740668D01*
X211715422Y-102740677D01*
X211658793Y-102952020D01*
X211658793Y-102952024D01*
X211639723Y-103169997D01*
X211639723Y-103170002D01*
X207088371Y-103170002D01*
X207155375Y-103053948D01*
X207289198Y-102743711D01*
X207386100Y-102420035D01*
X207444771Y-102087298D01*
X207464416Y-101750000D01*
X207462324Y-101714088D01*
X207454544Y-101580499D01*
X207444771Y-101412702D01*
X207405058Y-101187483D01*
X207386103Y-101079982D01*
X207386102Y-101079981D01*
X207386100Y-101079965D01*
X207289198Y-100756289D01*
X207155375Y-100446052D01*
X207088373Y-100330002D01*
X210253723Y-100330002D01*
X210272793Y-100547975D01*
X210272793Y-100547979D01*
X210329422Y-100759322D01*
X210329424Y-100759326D01*
X210329425Y-100759330D01*
X210373078Y-100852944D01*
X210421897Y-100957638D01*
X210421898Y-100957639D01*
X210547402Y-101136877D01*
X210702123Y-101291598D01*
X210881361Y-101417102D01*
X211079670Y-101509575D01*
X211291023Y-101566207D01*
X211473926Y-101582208D01*
X211508998Y-101585277D01*
X211509000Y-101585277D01*
X211509002Y-101585277D01*
X211537254Y-101582805D01*
X211726977Y-101566207D01*
X211938330Y-101509575D01*
X212136639Y-101417102D01*
X212315877Y-101291598D01*
X212470598Y-101136877D01*
X212596102Y-100957639D01*
X212688575Y-100759330D01*
X212745207Y-100547977D01*
X212764277Y-100330000D01*
X212745207Y-100112023D01*
X212688575Y-99900670D01*
X212596102Y-99702362D01*
X212596100Y-99702359D01*
X212596099Y-99702357D01*
X212470599Y-99523124D01*
X212410297Y-99462822D01*
X212315877Y-99368402D01*
X212136639Y-99242898D01*
X212136640Y-99242898D01*
X212136638Y-99242897D01*
X212037484Y-99196661D01*
X211938330Y-99150425D01*
X211938326Y-99150424D01*
X211938322Y-99150422D01*
X211726977Y-99093793D01*
X211509002Y-99074723D01*
X211508998Y-99074723D01*
X211381140Y-99085909D01*
X211291023Y-99093793D01*
X211291020Y-99093793D01*
X211079677Y-99150422D01*
X211079668Y-99150426D01*
X210881361Y-99242898D01*
X210881357Y-99242900D01*
X210702121Y-99368402D01*
X210547402Y-99523121D01*
X210421900Y-99702357D01*
X210421898Y-99702361D01*
X210329426Y-99900668D01*
X210329422Y-99900677D01*
X210272793Y-100112020D01*
X210272793Y-100112024D01*
X210253723Y-100329997D01*
X210253723Y-100330002D01*
X207088373Y-100330002D01*
X207001802Y-100180056D01*
X206986439Y-100153446D01*
X206784681Y-99882438D01*
X206784676Y-99882432D01*
X206672564Y-99763601D01*
X206552817Y-99636677D01*
X206552810Y-99636671D01*
X206552808Y-99636669D01*
X206293998Y-99419500D01*
X206152851Y-99326667D01*
X206011708Y-99233836D01*
X205989045Y-99222454D01*
X205709783Y-99082203D01*
X205709777Y-99082200D01*
X205392284Y-98966642D01*
X205392281Y-98966641D01*
X205165639Y-98912926D01*
X205063520Y-98888724D01*
X204727935Y-98849500D01*
X204390065Y-98849500D01*
X204054480Y-98888724D01*
X203725718Y-98966641D01*
X203725715Y-98966642D01*
X203408222Y-99082200D01*
X203408216Y-99082203D01*
X203106295Y-99233834D01*
X202824001Y-99419500D01*
X202565191Y-99636669D01*
X202565181Y-99636679D01*
X202333323Y-99882432D01*
X202333318Y-99882438D01*
X202131560Y-100153446D01*
X201962627Y-100446047D01*
X201962621Y-100446060D01*
X201828801Y-100756289D01*
X201731899Y-101079968D01*
X201731896Y-101079982D01*
X201673230Y-101412690D01*
X201673229Y-101412701D01*
X201653584Y-101749996D01*
X201653584Y-101750003D01*
X200799768Y-101750003D01*
X200858730Y-101723751D01*
X201011871Y-101612488D01*
X201138533Y-101471816D01*
X201233179Y-101307884D01*
X201291674Y-101127856D01*
X201311460Y-100939600D01*
X201291674Y-100751344D01*
X201233179Y-100571316D01*
X201138533Y-100407384D01*
X201011871Y-100266712D01*
X200998571Y-100257049D01*
X200858734Y-100155451D01*
X200858729Y-100155448D01*
X200685807Y-100078457D01*
X200685802Y-100078455D01*
X200540001Y-100047465D01*
X200500646Y-100039100D01*
X200311354Y-100039100D01*
X200278897Y-100045998D01*
X200126197Y-100078455D01*
X200126192Y-100078457D01*
X199953270Y-100155448D01*
X199953265Y-100155451D01*
X199800129Y-100266711D01*
X199673466Y-100407385D01*
X199578821Y-100571315D01*
X199578818Y-100571322D01*
X199520327Y-100751340D01*
X199520326Y-100751344D01*
X199500540Y-100939600D01*
X199009000Y-100939600D01*
X199009000Y-95400000D01*
X199304341Y-95400000D01*
X199324936Y-95635403D01*
X199324938Y-95635413D01*
X199386094Y-95863655D01*
X199386096Y-95863659D01*
X199386097Y-95863663D01*
X199390000Y-95872032D01*
X199485965Y-96077830D01*
X199485967Y-96077834D01*
X199594281Y-96232521D01*
X199621505Y-96271401D01*
X199788599Y-96438495D01*
X199885384Y-96506265D01*
X199982165Y-96574032D01*
X199982167Y-96574033D01*
X199982170Y-96574035D01*
X200196337Y-96673903D01*
X200424592Y-96735063D01*
X200607023Y-96751024D01*
X200659999Y-96755659D01*
X200660000Y-96755659D01*
X200660001Y-96755659D01*
X200712977Y-96751024D01*
X200895408Y-96735063D01*
X201123663Y-96673903D01*
X201337830Y-96574035D01*
X201531401Y-96438495D01*
X201698495Y-96271401D01*
X201828425Y-96085842D01*
X201883002Y-96042217D01*
X201952500Y-96035023D01*
X202014855Y-96066546D01*
X202031575Y-96085842D01*
X202161500Y-96271395D01*
X202161505Y-96271401D01*
X202328599Y-96438495D01*
X202425384Y-96506265D01*
X202522165Y-96574032D01*
X202522167Y-96574033D01*
X202522170Y-96574035D01*
X202736337Y-96673903D01*
X202964592Y-96735063D01*
X203147023Y-96751024D01*
X203199999Y-96755659D01*
X203200000Y-96755659D01*
X203200001Y-96755659D01*
X203252977Y-96751024D01*
X203435408Y-96735063D01*
X203663663Y-96673903D01*
X203877830Y-96574035D01*
X204071401Y-96438495D01*
X204238495Y-96271401D01*
X204374035Y-96077830D01*
X204473903Y-95863663D01*
X204535063Y-95635408D01*
X204555659Y-95400000D01*
X204535063Y-95164592D01*
X204473903Y-94936337D01*
X204374035Y-94722171D01*
X204368425Y-94714158D01*
X204238494Y-94528597D01*
X204071402Y-94361506D01*
X204071396Y-94361501D01*
X203885842Y-94231575D01*
X203842217Y-94176998D01*
X203835023Y-94107500D01*
X203866546Y-94045145D01*
X203885842Y-94028425D01*
X203910677Y-94011035D01*
X204071401Y-93898495D01*
X204238495Y-93731401D01*
X204374035Y-93537830D01*
X204473903Y-93323663D01*
X204535063Y-93095408D01*
X204555659Y-92860000D01*
X204535063Y-92624592D01*
X204473903Y-92396337D01*
X204374035Y-92182171D01*
X204368425Y-92174158D01*
X204238494Y-91988597D01*
X204071402Y-91821506D01*
X204071396Y-91821501D01*
X203885842Y-91691575D01*
X203842217Y-91636998D01*
X203835023Y-91567500D01*
X203866546Y-91505145D01*
X203885842Y-91488425D01*
X203968653Y-91430440D01*
X204071401Y-91358495D01*
X204238495Y-91191401D01*
X204374035Y-90997830D01*
X204473903Y-90783663D01*
X204535063Y-90555408D01*
X204555659Y-90320000D01*
X204535063Y-90084592D01*
X204473903Y-89856337D01*
X204374035Y-89642171D01*
X204368425Y-89634158D01*
X204238494Y-89448597D01*
X204071402Y-89281506D01*
X204071396Y-89281501D01*
X203885842Y-89151575D01*
X203842217Y-89096998D01*
X203835023Y-89027500D01*
X203866546Y-88965145D01*
X203885842Y-88948425D01*
X203955000Y-88900000D01*
X204071401Y-88818495D01*
X204238495Y-88651401D01*
X204374035Y-88457830D01*
X204473903Y-88243663D01*
X204535063Y-88015408D01*
X204555659Y-87780000D01*
X204535063Y-87544592D01*
X204473903Y-87316337D01*
X204374035Y-87102171D01*
X204368425Y-87094158D01*
X204238494Y-86908597D01*
X204071402Y-86741506D01*
X204071396Y-86741501D01*
X203885842Y-86611575D01*
X203842217Y-86556998D01*
X203835023Y-86487500D01*
X203866546Y-86425145D01*
X203885842Y-86408425D01*
X203992827Y-86333513D01*
X204071401Y-86278495D01*
X204238495Y-86111401D01*
X204374035Y-85917830D01*
X204473903Y-85703663D01*
X204535063Y-85475408D01*
X204555659Y-85240000D01*
X204535063Y-85004592D01*
X204473903Y-84776337D01*
X204374035Y-84562171D01*
X204368425Y-84554158D01*
X204238494Y-84368597D01*
X204071402Y-84201506D01*
X204071396Y-84201501D01*
X203885842Y-84071575D01*
X203842217Y-84016998D01*
X203835023Y-83947500D01*
X203866546Y-83885145D01*
X203885842Y-83868425D01*
X203986596Y-83797876D01*
X204071401Y-83738495D01*
X204238495Y-83571401D01*
X204374035Y-83377830D01*
X204473903Y-83163663D01*
X204535063Y-82935408D01*
X204555659Y-82700000D01*
X204535063Y-82464592D01*
X204473903Y-82236337D01*
X204374035Y-82022171D01*
X204368425Y-82014158D01*
X204238494Y-81828597D01*
X204071402Y-81661506D01*
X204071396Y-81661501D01*
X203885842Y-81531575D01*
X203842217Y-81476998D01*
X203835023Y-81407500D01*
X203866546Y-81345145D01*
X203885842Y-81328425D01*
X204031811Y-81226216D01*
X204071401Y-81198495D01*
X204238495Y-81031401D01*
X204374035Y-80837830D01*
X204473903Y-80623663D01*
X204535063Y-80395408D01*
X204555659Y-80160000D01*
X204535063Y-79924592D01*
X204473903Y-79696337D01*
X204374035Y-79482171D01*
X204368425Y-79474158D01*
X204238494Y-79288597D01*
X204071402Y-79121506D01*
X204071396Y-79121501D01*
X203885842Y-78991575D01*
X203842217Y-78936998D01*
X203835023Y-78867500D01*
X203866546Y-78805145D01*
X203885842Y-78788425D01*
X203994782Y-78712144D01*
X204071401Y-78658495D01*
X204238495Y-78491401D01*
X204374035Y-78297830D01*
X204473903Y-78083663D01*
X204535063Y-77855408D01*
X204555659Y-77620000D01*
X204535063Y-77384592D01*
X204473903Y-77156337D01*
X204374035Y-76942171D01*
X204368425Y-76934158D01*
X204238494Y-76748597D01*
X204071402Y-76581506D01*
X204071396Y-76581501D01*
X203885842Y-76451575D01*
X203842217Y-76396998D01*
X203835023Y-76327500D01*
X203866546Y-76265145D01*
X203885842Y-76248425D01*
X203994515Y-76172331D01*
X204071401Y-76118495D01*
X204238495Y-75951401D01*
X204374035Y-75757830D01*
X204473903Y-75543663D01*
X204535063Y-75315408D01*
X204555659Y-75080000D01*
X204552731Y-75046539D01*
X204536981Y-74866516D01*
X204535063Y-74844592D01*
X204473903Y-74616337D01*
X204374035Y-74402171D01*
X204368425Y-74394158D01*
X204238494Y-74208597D01*
X204071402Y-74041506D01*
X204071395Y-74041501D01*
X203877834Y-73905967D01*
X203877830Y-73905965D01*
X203877828Y-73905964D01*
X203663663Y-73806097D01*
X203663659Y-73806096D01*
X203663655Y-73806094D01*
X203435413Y-73744938D01*
X203435403Y-73744936D01*
X203200001Y-73724341D01*
X203199999Y-73724341D01*
X202964596Y-73744936D01*
X202964586Y-73744938D01*
X202736344Y-73806094D01*
X202736335Y-73806098D01*
X202522171Y-73905964D01*
X202522169Y-73905965D01*
X202328597Y-74041505D01*
X202161505Y-74208597D01*
X202031575Y-74394158D01*
X201976998Y-74437783D01*
X201907500Y-74444977D01*
X201845145Y-74413454D01*
X201828425Y-74394158D01*
X201698494Y-74208597D01*
X201531402Y-74041506D01*
X201531395Y-74041501D01*
X201337834Y-73905967D01*
X201337830Y-73905965D01*
X201337828Y-73905964D01*
X201123663Y-73806097D01*
X201123659Y-73806096D01*
X201123655Y-73806094D01*
X200895413Y-73744938D01*
X200895403Y-73744936D01*
X200660001Y-73724341D01*
X200659999Y-73724341D01*
X200424596Y-73744936D01*
X200424586Y-73744938D01*
X200196344Y-73806094D01*
X200196335Y-73806098D01*
X199982171Y-73905964D01*
X199982169Y-73905965D01*
X199788597Y-74041505D01*
X199621505Y-74208597D01*
X199485965Y-74402169D01*
X199485964Y-74402171D01*
X199386098Y-74616335D01*
X199386094Y-74616344D01*
X199324938Y-74844586D01*
X199324936Y-74844596D01*
X199304341Y-75079999D01*
X199304341Y-75080000D01*
X199324936Y-75315403D01*
X199324938Y-75315413D01*
X199386094Y-75543655D01*
X199386096Y-75543659D01*
X199386097Y-75543663D01*
X199413806Y-75603084D01*
X199485965Y-75757830D01*
X199485967Y-75757834D01*
X199554110Y-75855151D01*
X199621501Y-75951396D01*
X199621506Y-75951402D01*
X199788597Y-76118493D01*
X199788603Y-76118498D01*
X199974158Y-76248425D01*
X200017783Y-76303002D01*
X200024977Y-76372500D01*
X199993454Y-76434855D01*
X199974158Y-76451575D01*
X199788597Y-76581505D01*
X199621505Y-76748597D01*
X199485965Y-76942169D01*
X199485964Y-76942171D01*
X199386098Y-77156335D01*
X199386094Y-77156344D01*
X199324938Y-77384586D01*
X199324936Y-77384596D01*
X199304341Y-77619999D01*
X199304341Y-77620000D01*
X199324936Y-77855403D01*
X199324938Y-77855413D01*
X199386094Y-78083655D01*
X199386096Y-78083659D01*
X199386097Y-78083663D01*
X199390000Y-78092032D01*
X199485965Y-78297830D01*
X199485967Y-78297834D01*
X199545753Y-78383216D01*
X199621501Y-78491396D01*
X199621506Y-78491402D01*
X199788597Y-78658493D01*
X199788603Y-78658498D01*
X199974158Y-78788425D01*
X200017783Y-78843002D01*
X200024977Y-78912500D01*
X199993454Y-78974855D01*
X199974158Y-78991575D01*
X199788597Y-79121505D01*
X199621505Y-79288597D01*
X199485965Y-79482169D01*
X199485964Y-79482171D01*
X199386098Y-79696335D01*
X199386094Y-79696344D01*
X199324938Y-79924586D01*
X199324936Y-79924596D01*
X199304341Y-80159999D01*
X199304341Y-80160000D01*
X199324936Y-80395403D01*
X199324938Y-80395413D01*
X199386094Y-80623655D01*
X199386096Y-80623659D01*
X199386097Y-80623663D01*
X199466004Y-80795023D01*
X199485965Y-80837830D01*
X199485967Y-80837834D01*
X199594281Y-80992521D01*
X199621501Y-81031396D01*
X199621506Y-81031402D01*
X199788597Y-81198493D01*
X199788603Y-81198498D01*
X199974158Y-81328425D01*
X200017783Y-81383002D01*
X200024977Y-81452500D01*
X199993454Y-81514855D01*
X199974158Y-81531575D01*
X199788597Y-81661505D01*
X199621505Y-81828597D01*
X199485965Y-82022169D01*
X199485964Y-82022171D01*
X199386098Y-82236335D01*
X199386094Y-82236344D01*
X199324938Y-82464586D01*
X199324936Y-82464596D01*
X199304341Y-82699999D01*
X199304341Y-82700000D01*
X199324936Y-82935403D01*
X199324938Y-82935413D01*
X199386094Y-83163655D01*
X199386096Y-83163659D01*
X199386097Y-83163663D01*
X199403965Y-83201981D01*
X199485965Y-83377830D01*
X199485967Y-83377834D01*
X199497637Y-83394500D01*
X199621501Y-83571396D01*
X199621506Y-83571402D01*
X199788597Y-83738493D01*
X199788603Y-83738498D01*
X199974158Y-83868425D01*
X200017783Y-83923002D01*
X200024977Y-83992500D01*
X199993454Y-84054855D01*
X199974158Y-84071575D01*
X199788597Y-84201505D01*
X199621505Y-84368597D01*
X199485965Y-84562169D01*
X199485964Y-84562171D01*
X199386098Y-84776335D01*
X199386094Y-84776344D01*
X199324938Y-85004586D01*
X199324936Y-85004596D01*
X199304341Y-85239999D01*
X199304341Y-85240000D01*
X199324936Y-85475403D01*
X199324938Y-85475413D01*
X199386094Y-85703655D01*
X199386096Y-85703659D01*
X199386097Y-85703663D01*
X199397562Y-85728249D01*
X199485965Y-85917830D01*
X199485967Y-85917834D01*
X199564192Y-86029550D01*
X199621501Y-86111396D01*
X199621506Y-86111402D01*
X199788597Y-86278493D01*
X199788603Y-86278498D01*
X199974158Y-86408425D01*
X200017783Y-86463002D01*
X200024977Y-86532500D01*
X199993454Y-86594855D01*
X199974158Y-86611575D01*
X199788597Y-86741505D01*
X199621505Y-86908597D01*
X199485965Y-87102169D01*
X199485964Y-87102171D01*
X199386098Y-87316335D01*
X199386094Y-87316344D01*
X199324938Y-87544586D01*
X199324936Y-87544596D01*
X199304341Y-87779999D01*
X199304341Y-87780000D01*
X199324936Y-88015403D01*
X199324938Y-88015413D01*
X199386094Y-88243655D01*
X199386096Y-88243659D01*
X199386097Y-88243663D01*
X199390000Y-88252032D01*
X199485965Y-88457830D01*
X199485967Y-88457834D01*
X199594281Y-88612521D01*
X199621501Y-88651396D01*
X199621506Y-88651402D01*
X199788597Y-88818493D01*
X199788603Y-88818498D01*
X199974158Y-88948425D01*
X200017783Y-89003002D01*
X200024977Y-89072500D01*
X199993454Y-89134855D01*
X199974158Y-89151575D01*
X199788597Y-89281505D01*
X199621505Y-89448597D01*
X199485965Y-89642169D01*
X199485964Y-89642171D01*
X199386098Y-89856335D01*
X199386094Y-89856344D01*
X199324938Y-90084586D01*
X199324936Y-90084596D01*
X199304341Y-90319999D01*
X199304341Y-90320000D01*
X199324936Y-90555403D01*
X199324938Y-90555413D01*
X199386094Y-90783655D01*
X199386096Y-90783659D01*
X199386097Y-90783663D01*
X199390000Y-90792032D01*
X199485965Y-90997830D01*
X199485967Y-90997834D01*
X199594281Y-91152521D01*
X199621501Y-91191396D01*
X199621506Y-91191402D01*
X199788597Y-91358493D01*
X199788603Y-91358498D01*
X199974158Y-91488425D01*
X200017783Y-91543002D01*
X200024977Y-91612500D01*
X199993454Y-91674855D01*
X199974158Y-91691575D01*
X199788597Y-91821505D01*
X199621505Y-91988597D01*
X199485965Y-92182169D01*
X199485964Y-92182171D01*
X199386098Y-92396335D01*
X199386094Y-92396344D01*
X199324938Y-92624586D01*
X199324936Y-92624596D01*
X199304341Y-92859999D01*
X199304341Y-92860000D01*
X199324936Y-93095403D01*
X199324938Y-93095413D01*
X199386094Y-93323655D01*
X199386096Y-93323659D01*
X199386097Y-93323663D01*
X199444939Y-93449849D01*
X199485965Y-93537830D01*
X199485967Y-93537834D01*
X199580433Y-93672744D01*
X199621501Y-93731396D01*
X199621506Y-93731402D01*
X199788597Y-93898493D01*
X199788603Y-93898498D01*
X199974158Y-94028425D01*
X200017783Y-94083002D01*
X200024977Y-94152500D01*
X199993454Y-94214855D01*
X199974158Y-94231575D01*
X199788597Y-94361505D01*
X199621505Y-94528597D01*
X199485965Y-94722169D01*
X199485964Y-94722171D01*
X199386098Y-94936335D01*
X199386094Y-94936344D01*
X199324938Y-95164586D01*
X199324936Y-95164596D01*
X199304341Y-95399999D01*
X199304341Y-95400000D01*
X199009000Y-95400000D01*
X199009000Y-70000000D01*
X199304341Y-70000000D01*
X199324936Y-70235403D01*
X199324938Y-70235413D01*
X199386094Y-70463655D01*
X199386096Y-70463659D01*
X199386097Y-70463663D01*
X199444939Y-70589849D01*
X199485965Y-70677830D01*
X199485967Y-70677834D01*
X199502267Y-70701112D01*
X199621505Y-70871401D01*
X199788599Y-71038495D01*
X199885212Y-71106144D01*
X199982165Y-71174032D01*
X199982167Y-71174033D01*
X199982170Y-71174035D01*
X200196337Y-71273903D01*
X200424592Y-71335063D01*
X200601034Y-71350500D01*
X200659999Y-71355659D01*
X200660000Y-71355659D01*
X200660001Y-71355659D01*
X200718966Y-71350500D01*
X200895408Y-71335063D01*
X201123663Y-71273903D01*
X201337830Y-71174035D01*
X201531401Y-71038495D01*
X201653329Y-70916566D01*
X201714648Y-70883084D01*
X201784340Y-70888068D01*
X201840274Y-70929939D01*
X201857189Y-70960917D01*
X201906202Y-71092328D01*
X201906206Y-71092335D01*
X201992452Y-71207544D01*
X201992455Y-71207547D01*
X202107664Y-71293793D01*
X202107671Y-71293797D01*
X202242517Y-71344091D01*
X202242516Y-71344091D01*
X202249444Y-71344835D01*
X202302127Y-71350500D01*
X204097872Y-71350499D01*
X204157483Y-71344091D01*
X204292331Y-71293796D01*
X204407546Y-71207546D01*
X204493796Y-71092331D01*
X204544091Y-70957483D01*
X204550500Y-70897873D01*
X204550499Y-69102128D01*
X204544091Y-69042517D01*
X204542810Y-69039083D01*
X204493797Y-68907671D01*
X204493793Y-68907664D01*
X204407547Y-68792455D01*
X204407544Y-68792452D01*
X204292335Y-68706206D01*
X204292328Y-68706202D01*
X204157482Y-68655908D01*
X204157483Y-68655908D01*
X204097883Y-68649501D01*
X204097881Y-68649500D01*
X204097873Y-68649500D01*
X204097864Y-68649500D01*
X202302129Y-68649500D01*
X202302123Y-68649501D01*
X202242516Y-68655908D01*
X202107671Y-68706202D01*
X202107664Y-68706206D01*
X201992455Y-68792452D01*
X201992452Y-68792455D01*
X201906206Y-68907664D01*
X201906203Y-68907669D01*
X201857189Y-69039083D01*
X201815317Y-69095016D01*
X201749853Y-69119433D01*
X201681580Y-69104581D01*
X201653326Y-69083430D01*
X201531402Y-68961506D01*
X201531395Y-68961501D01*
X201337834Y-68825967D01*
X201337830Y-68825965D01*
X201337828Y-68825964D01*
X201123663Y-68726097D01*
X201123659Y-68726096D01*
X201123655Y-68726094D01*
X200895413Y-68664938D01*
X200895403Y-68664936D01*
X200660001Y-68644341D01*
X200659999Y-68644341D01*
X200424596Y-68664936D01*
X200424586Y-68664938D01*
X200196344Y-68726094D01*
X200196335Y-68726098D01*
X199982171Y-68825964D01*
X199982169Y-68825965D01*
X199788597Y-68961505D01*
X199621505Y-69128597D01*
X199485965Y-69322169D01*
X199485964Y-69322171D01*
X199386098Y-69536335D01*
X199386094Y-69536344D01*
X199324938Y-69764586D01*
X199324936Y-69764596D01*
X199304341Y-69999999D01*
X199304341Y-70000000D01*
X199009000Y-70000000D01*
X199009000Y-68529200D01*
X206104540Y-68529200D01*
X206124326Y-68717456D01*
X206124327Y-68717459D01*
X206182818Y-68897477D01*
X206182821Y-68897484D01*
X206277467Y-69061416D01*
X206337959Y-69128599D01*
X206404129Y-69202088D01*
X206557265Y-69313348D01*
X206557270Y-69313351D01*
X206730192Y-69390342D01*
X206730197Y-69390344D01*
X206915354Y-69429700D01*
X206915355Y-69429700D01*
X207104644Y-69429700D01*
X207104646Y-69429700D01*
X207289803Y-69390344D01*
X207462730Y-69313351D01*
X207615871Y-69202088D01*
X207742533Y-69061416D01*
X207837179Y-68897484D01*
X207895674Y-68717456D01*
X207915460Y-68529200D01*
X207895674Y-68340944D01*
X207837179Y-68160916D01*
X207742533Y-67996984D01*
X207615871Y-67856312D01*
X207615870Y-67856311D01*
X207462734Y-67745051D01*
X207462729Y-67745048D01*
X207289807Y-67668057D01*
X207289802Y-67668055D01*
X207144001Y-67637065D01*
X207104646Y-67628700D01*
X206915354Y-67628700D01*
X206882897Y-67635598D01*
X206730197Y-67668055D01*
X206730192Y-67668057D01*
X206557270Y-67745048D01*
X206557265Y-67745051D01*
X206404129Y-67856311D01*
X206277466Y-67996985D01*
X206182821Y-68160915D01*
X206182818Y-68160922D01*
X206136379Y-68303849D01*
X206124326Y-68340944D01*
X206104540Y-68529200D01*
X199009000Y-68529200D01*
X199009000Y-63350003D01*
X201653584Y-63350003D01*
X201673229Y-63687298D01*
X201673230Y-63687309D01*
X201731896Y-64020017D01*
X201731899Y-64020031D01*
X201731900Y-64020035D01*
X201744241Y-64061256D01*
X201828801Y-64343710D01*
X201962621Y-64653939D01*
X201962627Y-64653952D01*
X202131560Y-64946553D01*
X202333318Y-65217561D01*
X202333323Y-65217567D01*
X202402306Y-65290684D01*
X202565183Y-65463323D01*
X202565189Y-65463328D01*
X202565191Y-65463330D01*
X202824001Y-65680499D01*
X202824006Y-65680502D01*
X203106292Y-65866164D01*
X203408224Y-66017800D01*
X203725717Y-66133358D01*
X204054480Y-66211276D01*
X204390065Y-66250500D01*
X204390072Y-66250500D01*
X204727928Y-66250500D01*
X204727935Y-66250500D01*
X205063520Y-66211276D01*
X205392283Y-66133358D01*
X205709776Y-66017800D01*
X206011708Y-65866164D01*
X206293994Y-65680502D01*
X206357180Y-65627483D01*
X206417489Y-65576877D01*
X206552817Y-65463323D01*
X206784678Y-65217565D01*
X206986440Y-64946552D01*
X207155375Y-64653948D01*
X207289198Y-64343711D01*
X207386100Y-64020035D01*
X207444771Y-63687298D01*
X207464416Y-63350000D01*
X207444771Y-63012702D01*
X207386100Y-62679965D01*
X207289198Y-62356289D01*
X207155375Y-62046052D01*
X206986440Y-61753448D01*
X206986439Y-61753446D01*
X206784681Y-61482438D01*
X206784676Y-61482432D01*
X206672564Y-61363601D01*
X206552817Y-61236677D01*
X206552810Y-61236671D01*
X206552808Y-61236669D01*
X206293998Y-61019500D01*
X206152851Y-60926667D01*
X206011708Y-60833836D01*
X206006593Y-60831267D01*
X205709783Y-60682203D01*
X205709777Y-60682200D01*
X205392284Y-60566642D01*
X205392281Y-60566641D01*
X205165639Y-60512926D01*
X205063520Y-60488724D01*
X204727935Y-60449500D01*
X204390065Y-60449500D01*
X204054480Y-60488724D01*
X203725718Y-60566641D01*
X203725715Y-60566642D01*
X203408222Y-60682200D01*
X203408216Y-60682203D01*
X203106295Y-60833834D01*
X202824001Y-61019500D01*
X202565191Y-61236669D01*
X202565181Y-61236679D01*
X202333323Y-61482432D01*
X202333318Y-61482438D01*
X202131560Y-61753446D01*
X201962627Y-62046047D01*
X201962621Y-62046060D01*
X201828801Y-62356289D01*
X201731899Y-62679968D01*
X201731896Y-62679982D01*
X201673230Y-63012690D01*
X201673229Y-63012701D01*
X201653584Y-63349996D01*
X201653584Y-63350003D01*
X199009000Y-63350003D01*
X199009000Y-57528000D01*
X199028685Y-57460961D01*
X199081489Y-57415206D01*
X199133000Y-57404000D01*
X235080000Y-57404000D01*
X235147039Y-57423685D01*
G37*
G04 #@! TD.AperFunction*
M02*
