%TF.GenerationSoftware,KiCad,Pcbnew,7.0.10-7.0.10~ubuntu23.10.1*%
%TF.CreationDate,2024-03-11T19:26:47+01:00*%
%TF.ProjectId,peripherialModule,70657269-7068-4657-9269-616c4d6f6475,rev?*%
%TF.SameCoordinates,Original*%
%TF.FileFunction,Drillmap*%
%TF.FilePolarity,Positive*%
%FSLAX45Y45*%
G04 Gerber Fmt 4.5, Leading zero omitted, Abs format (unit mm)*
G04 Created by KiCad (PCBNEW 7.0.10-7.0.10~ubuntu23.10.1) date 2024-03-11 19:26:47*
%MOMM*%
%LPD*%
G01*
G04 APERTURE LIST*
%ADD10C,0.100000*%
%ADD11C,0.200000*%
G04 APERTURE END LIST*
D10*
X19860300Y-5715000D02*
X23558500Y-5715000D01*
X23558500Y-10715000D01*
X19860300Y-10715000D01*
X19860300Y-5715000D01*
D11*
X20116077Y-11031484D02*
X20116077Y-10831484D01*
X20116077Y-10831484D02*
X20163696Y-10831484D01*
X20163696Y-10831484D02*
X20192267Y-10841008D01*
X20192267Y-10841008D02*
X20211315Y-10860055D01*
X20211315Y-10860055D02*
X20220839Y-10879103D01*
X20220839Y-10879103D02*
X20230363Y-10917198D01*
X20230363Y-10917198D02*
X20230363Y-10945770D01*
X20230363Y-10945770D02*
X20220839Y-10983865D01*
X20220839Y-10983865D02*
X20211315Y-11002912D01*
X20211315Y-11002912D02*
X20192267Y-11021960D01*
X20192267Y-11021960D02*
X20163696Y-11031484D01*
X20163696Y-11031484D02*
X20116077Y-11031484D01*
X20316077Y-11031484D02*
X20316077Y-10898150D01*
X20316077Y-10936246D02*
X20325601Y-10917198D01*
X20325601Y-10917198D02*
X20335124Y-10907674D01*
X20335124Y-10907674D02*
X20354172Y-10898150D01*
X20354172Y-10898150D02*
X20373220Y-10898150D01*
X20439886Y-11031484D02*
X20439886Y-10898150D01*
X20439886Y-10831484D02*
X20430363Y-10841008D01*
X20430363Y-10841008D02*
X20439886Y-10850531D01*
X20439886Y-10850531D02*
X20449410Y-10841008D01*
X20449410Y-10841008D02*
X20439886Y-10831484D01*
X20439886Y-10831484D02*
X20439886Y-10850531D01*
X20563696Y-11031484D02*
X20544648Y-11021960D01*
X20544648Y-11021960D02*
X20535124Y-11002912D01*
X20535124Y-11002912D02*
X20535124Y-10831484D01*
X20668458Y-11031484D02*
X20649410Y-11021960D01*
X20649410Y-11021960D02*
X20639886Y-11002912D01*
X20639886Y-11002912D02*
X20639886Y-10831484D01*
X20897029Y-11031484D02*
X20897029Y-10831484D01*
X20897029Y-10831484D02*
X20963696Y-10974341D01*
X20963696Y-10974341D02*
X21030363Y-10831484D01*
X21030363Y-10831484D02*
X21030363Y-11031484D01*
X21211315Y-11031484D02*
X21211315Y-10926722D01*
X21211315Y-10926722D02*
X21201791Y-10907674D01*
X21201791Y-10907674D02*
X21182744Y-10898150D01*
X21182744Y-10898150D02*
X21144648Y-10898150D01*
X21144648Y-10898150D02*
X21125601Y-10907674D01*
X21211315Y-11021960D02*
X21192267Y-11031484D01*
X21192267Y-11031484D02*
X21144648Y-11031484D01*
X21144648Y-11031484D02*
X21125601Y-11021960D01*
X21125601Y-11021960D02*
X21116077Y-11002912D01*
X21116077Y-11002912D02*
X21116077Y-10983865D01*
X21116077Y-10983865D02*
X21125601Y-10964817D01*
X21125601Y-10964817D02*
X21144648Y-10955293D01*
X21144648Y-10955293D02*
X21192267Y-10955293D01*
X21192267Y-10955293D02*
X21211315Y-10945770D01*
X21306553Y-10898150D02*
X21306553Y-11098150D01*
X21306553Y-10907674D02*
X21325601Y-10898150D01*
X21325601Y-10898150D02*
X21363696Y-10898150D01*
X21363696Y-10898150D02*
X21382744Y-10907674D01*
X21382744Y-10907674D02*
X21392267Y-10917198D01*
X21392267Y-10917198D02*
X21401791Y-10936246D01*
X21401791Y-10936246D02*
X21401791Y-10993389D01*
X21401791Y-10993389D02*
X21392267Y-11012436D01*
X21392267Y-11012436D02*
X21382744Y-11021960D01*
X21382744Y-11021960D02*
X21363696Y-11031484D01*
X21363696Y-11031484D02*
X21325601Y-11031484D01*
X21325601Y-11031484D02*
X21306553Y-11021960D01*
X21487505Y-11012436D02*
X21497029Y-11021960D01*
X21497029Y-11021960D02*
X21487505Y-11031484D01*
X21487505Y-11031484D02*
X21477982Y-11021960D01*
X21477982Y-11021960D02*
X21487505Y-11012436D01*
X21487505Y-11012436D02*
X21487505Y-11031484D01*
X21487505Y-10907674D02*
X21497029Y-10917198D01*
X21497029Y-10917198D02*
X21487505Y-10926722D01*
X21487505Y-10926722D02*
X21477982Y-10917198D01*
X21477982Y-10917198D02*
X21487505Y-10907674D01*
X21487505Y-10907674D02*
X21487505Y-10926722D01*
M02*
