M48
; DRILL file {KiCad 7.0.10-7.0.10~ubuntu23.10.1} date Mon 11 Mar 2024 19:26:48 CET
; FORMAT={-:-/ absolute / metric / decimal}
; #@! TF.CreationDate,2024-03-11T19:26:48+01:00
; #@! TF.GenerationSoftware,Kicad,Pcbnew,7.0.10-7.0.10~ubuntu23.10.1
; #@! TF.FileFunction,Plated,1,4,PTH
FMAT,2
METRIC
; #@! TA.AperFunction,Plated,PTH,ViaDrill
T1C0.400
; #@! TA.AperFunction,Plated,PTH,ComponentDrill
T2C1.000
; #@! TA.AperFunction,Plated,PTH,ComponentDrill
T3C3.200
%
G90
G05
T1
X200.406Y-100.94
X200.406Y-104.648
X207.01Y-68.529
X207.366Y-88.341
X207.366Y-89.205
X208.331Y-73.965
X209.042Y-92.202
X209.093Y-75.235
X209.55Y-95.504
X209.694Y-75.836
X210.491Y-84.888
X211.198Y-85.595
X211.417Y-66.308
X211.89Y-86.398
X212.471Y-77.851
X212.584Y-87.118
X213.36Y-88.9
X214.274Y-92.812
X215.575Y-82.494
X218.186Y-69.088
X218.186Y-71.374
X218.186Y-73.406
X218.436Y-85.985
X218.437Y-83.986
X218.441Y-86.985
X218.478Y-84.985
X218.592Y-78.283
X219.684Y-83.794
X223.889Y-80.694
X224.028Y-77.064
X224.587Y-79.969
X224.79Y-86.36
X225.044Y-61.468
X225.044Y-62.484
X225.133Y-73.293
X225.298Y-81.788
X225.298Y-82.804
X226.657Y-75.071
X227.076Y-73.914
X227.076Y-80.645
X228.054Y-70.245
X229.972Y-86.512
X231.851Y-94.234
X234.137Y-101.041
X234.137Y-105.054
X234.391Y-64.922
X234.442Y-60.858
T2
X200.66Y-70.0
X200.66Y-72.54
X200.66Y-75.08
X200.66Y-77.62
X200.66Y-80.16
X200.66Y-82.7
X200.66Y-85.24
X200.66Y-87.78
X200.66Y-90.32
X200.66Y-92.86
X200.66Y-95.4
X203.2Y-70.0
X203.2Y-72.54
X203.2Y-75.08
X203.2Y-77.62
X203.2Y-80.16
X203.2Y-82.7
X203.2Y-85.24
X203.2Y-87.78
X203.2Y-90.32
X203.2Y-92.86
X203.2Y-95.4
X211.509Y-64.77
X211.509Y-100.33
X212.895Y-61.93
X212.895Y-103.17
X214.281Y-64.77
X214.282Y-100.33
X215.668Y-61.93
X215.668Y-103.17
X217.054Y-64.77
X217.054Y-100.33
X218.44Y-61.93
X218.44Y-90.297
X218.44Y-92.837
X218.44Y-95.377
X218.44Y-103.17
X219.826Y-64.77
X219.827Y-100.33
X221.213Y-61.93
X221.213Y-103.17
X222.599Y-64.77
X222.599Y-100.33
X223.52Y-90.297
X223.52Y-92.837
X223.52Y-95.377
X231.14Y-75.08
X231.14Y-77.62
X231.14Y-80.16
X233.68Y-70.0
X233.68Y-72.54
X233.68Y-75.08
X233.68Y-77.62
X233.68Y-80.16
T3
X204.559Y-63.35
X204.559Y-101.75
X229.549Y-63.35
X229.549Y-101.75
M30
