G04 #@! TF.GenerationSoftware,KiCad,Pcbnew,7.0.10-7.0.10~ubuntu23.10.1*
G04 #@! TF.CreationDate,2024-03-11T19:26:56+01:00*
G04 #@! TF.ProjectId,peripherialModule,70657269-7068-4657-9269-616c4d6f6475,rev?*
G04 #@! TF.SameCoordinates,Original*
G04 #@! TF.FileFunction,Soldermask,Bot*
G04 #@! TF.FilePolarity,Negative*
%FSLAX46Y46*%
G04 Gerber Fmt 4.6, Leading zero omitted, Abs format (unit mm)*
G04 Created by KiCad (PCBNEW 7.0.10-7.0.10~ubuntu23.10.1) date 2024-03-11 19:26:56*
%MOMM*%
%LPD*%
G01*
G04 APERTURE LIST*
%ADD10R,1.700000X1.700000*%
%ADD11O,1.700000X1.700000*%
%ADD12R,1.500000X1.500000*%
%ADD13C,1.500000*%
%ADD14C,4.800000*%
%ADD15R,0.900000X1.700000*%
G04 APERTURE END LIST*
D10*
X203200000Y-70000000D03*
D11*
X200660000Y-70000000D03*
X203200000Y-72540000D03*
X200660000Y-72540000D03*
X203200000Y-75080000D03*
X200660000Y-75080000D03*
X203200000Y-77620000D03*
X200660000Y-77620000D03*
X203200000Y-80160000D03*
X200660000Y-80160000D03*
X203200000Y-82700000D03*
X200660000Y-82700000D03*
X203200000Y-85240000D03*
X200660000Y-85240000D03*
X203200000Y-87780000D03*
X200660000Y-87780000D03*
X203200000Y-90320000D03*
X200660000Y-90320000D03*
X203200000Y-92860000D03*
X200660000Y-92860000D03*
X203200000Y-95400000D03*
X200660000Y-95400000D03*
D12*
X211509000Y-64770000D03*
D13*
X214281000Y-64770000D03*
X217054000Y-64770000D03*
X219826000Y-64770000D03*
X222599000Y-64770000D03*
X212895000Y-61930000D03*
X215668000Y-61930000D03*
X218440000Y-61930000D03*
X221213000Y-61930000D03*
D14*
X204559000Y-63350000D03*
X229549000Y-63350000D03*
D12*
X222599000Y-100330000D03*
D13*
X219827000Y-100330000D03*
X217054000Y-100330000D03*
X214282000Y-100330000D03*
X211509000Y-100330000D03*
X221213000Y-103170000D03*
X218440000Y-103170000D03*
X215668000Y-103170000D03*
X212895000Y-103170000D03*
D14*
X229549000Y-101750000D03*
X204559000Y-101750000D03*
D10*
X233680000Y-70000000D03*
D11*
X233680000Y-72540000D03*
X233680000Y-75080000D03*
X233680000Y-77620000D03*
X233680000Y-80160000D03*
D10*
X218440000Y-90297000D03*
D11*
X218440000Y-92837000D03*
X218440000Y-95377000D03*
D10*
X223520000Y-90297000D03*
D11*
X223520000Y-92837000D03*
X223520000Y-95377000D03*
D10*
X231140000Y-75080000D03*
D11*
X231140000Y-77620000D03*
X231140000Y-80160000D03*
D15*
X211554800Y-68529200D03*
X208154800Y-68529200D03*
M02*
