G04 #@! TF.GenerationSoftware,KiCad,Pcbnew,7.0.10-7.0.10~ubuntu23.10.1*
G04 #@! TF.CreationDate,2024-03-29T23:33:31+01:00*
G04 #@! TF.ProjectId,ledBoard,6c656442-6f61-4726-942e-6b696361645f,rev?*
G04 #@! TF.SameCoordinates,Original*
G04 #@! TF.FileFunction,Soldermask,Top*
G04 #@! TF.FilePolarity,Negative*
%FSLAX46Y46*%
G04 Gerber Fmt 4.6, Leading zero omitted, Abs format (unit mm)*
G04 Created by KiCad (PCBNEW 7.0.10-7.0.10~ubuntu23.10.1) date 2024-03-29 23:33:31*
%MOMM*%
%LPD*%
G01*
G04 APERTURE LIST*
G04 Aperture macros list*
%AMRoundRect*
0 Rectangle with rounded corners*
0 $1 Rounding radius*
0 $2 $3 $4 $5 $6 $7 $8 $9 X,Y pos of 4 corners*
0 Add a 4 corners polygon primitive as box body*
4,1,4,$2,$3,$4,$5,$6,$7,$8,$9,$2,$3,0*
0 Add four circle primitives for the rounded corners*
1,1,$1+$1,$2,$3*
1,1,$1+$1,$4,$5*
1,1,$1+$1,$6,$7*
1,1,$1+$1,$8,$9*
0 Add four rect primitives between the rounded corners*
20,1,$1+$1,$2,$3,$4,$5,0*
20,1,$1+$1,$4,$5,$6,$7,0*
20,1,$1+$1,$6,$7,$8,$9,0*
20,1,$1+$1,$8,$9,$2,$3,0*%
G04 Aperture macros list end*
%ADD10R,0.800000X1.450000*%
%ADD11R,0.600000X0.300000*%
%ADD12R,0.800000X1.458994*%
%ADD13R,0.300000X1.725000*%
%ADD14RoundRect,0.250000X0.475000X-0.337500X0.475000X0.337500X-0.475000X0.337500X-0.475000X-0.337500X0*%
%ADD15O,1.700000X1.700000*%
%ADD16R,1.700000X1.700000*%
%ADD17RoundRect,0.250000X-0.337500X-0.475000X0.337500X-0.475000X0.337500X0.475000X-0.337500X0.475000X0*%
%ADD18RoundRect,0.150000X-0.512500X-0.150000X0.512500X-0.150000X0.512500X0.150000X-0.512500X0.150000X0*%
%ADD19RoundRect,0.250000X-0.412500X-1.100000X0.412500X-1.100000X0.412500X1.100000X-0.412500X1.100000X0*%
%ADD20RoundRect,0.150000X-0.150000X0.512500X-0.150000X-0.512500X0.150000X-0.512500X0.150000X0.512500X0*%
%ADD21RoundRect,0.250000X-0.450000X0.350000X-0.450000X-0.350000X0.450000X-0.350000X0.450000X0.350000X0*%
%ADD22R,1.700000X5.700000*%
%ADD23RoundRect,0.250000X0.450000X-0.350000X0.450000X0.350000X-0.450000X0.350000X-0.450000X-0.350000X0*%
%ADD24RoundRect,0.250000X-0.600000X-0.750000X0.600000X-0.750000X0.600000X0.750000X-0.600000X0.750000X0*%
%ADD25O,1.700000X2.000000*%
%ADD26RoundRect,0.250000X0.337500X0.475000X-0.337500X0.475000X-0.337500X-0.475000X0.337500X-0.475000X0*%
%ADD27RoundRect,0.250000X0.350000X1.775000X-0.350000X1.775000X-0.350000X-1.775000X0.350000X-1.775000X0*%
%ADD28RoundRect,0.250000X0.350000X0.450000X-0.350000X0.450000X-0.350000X-0.450000X0.350000X-0.450000X0*%
%ADD29RoundRect,0.250000X-0.475000X0.337500X-0.475000X-0.337500X0.475000X-0.337500X0.475000X0.337500X0*%
%ADD30RoundRect,0.250000X-0.350000X-0.450000X0.350000X-0.450000X0.350000X0.450000X-0.350000X0.450000X0*%
%ADD31RoundRect,0.150000X-0.200000X0.150000X-0.200000X-0.150000X0.200000X-0.150000X0.200000X0.150000X0*%
G04 APERTURE END LIST*
D10*
X211396100Y-86940900D03*
D11*
X211296100Y-87990900D03*
X211296100Y-88465900D03*
X211296100Y-88940900D03*
X212996100Y-88940900D03*
X212996100Y-88465900D03*
X212996100Y-87990900D03*
D12*
X212896100Y-86945397D03*
D13*
X212146100Y-86803400D03*
D10*
X209433600Y-75336400D03*
D11*
X209333600Y-76386400D03*
X209333600Y-76861400D03*
X209333600Y-77336400D03*
X211033600Y-77336400D03*
X211033600Y-76861400D03*
X211033600Y-76386400D03*
D12*
X210933600Y-75340897D03*
D13*
X210183600Y-75198900D03*
D14*
X221310200Y-71547900D03*
X221310200Y-69472900D03*
X223393000Y-82952500D03*
X223393000Y-80877500D03*
D15*
X200660000Y-87780000D03*
D16*
X203200000Y-70000000D03*
D15*
X200660000Y-70000000D03*
X203200000Y-72540000D03*
X200660000Y-72540000D03*
X203200000Y-75080000D03*
X200660000Y-75080000D03*
X200660000Y-77620000D03*
X200660000Y-80160000D03*
X200660000Y-82700000D03*
X200660000Y-85240000D03*
D17*
X210015000Y-94361000D03*
X212090000Y-94361000D03*
D18*
X226065500Y-80203000D03*
X226065500Y-81153000D03*
X226065500Y-82103000D03*
X228340500Y-82103000D03*
X228340500Y-80203000D03*
D17*
X211147700Y-81330800D03*
X213222700Y-81330800D03*
D14*
X210058000Y-92456000D03*
X210058000Y-90381000D03*
D19*
X208633100Y-72440800D03*
X211758100Y-72440800D03*
D17*
X209056500Y-69799200D03*
X211131500Y-69799200D03*
D20*
X228661000Y-69474500D03*
X227711000Y-69474500D03*
X226761000Y-69474500D03*
X226761000Y-71749500D03*
X228661000Y-71749500D03*
D21*
X212039200Y-90418500D03*
X212039200Y-92418500D03*
D22*
X221212800Y-85090000D03*
X216712800Y-85090000D03*
D14*
X212598000Y-77724000D03*
X212598000Y-75649000D03*
D23*
X203250000Y-85400000D03*
X203250000Y-83400000D03*
D24*
X230017000Y-93582000D03*
D25*
X232517000Y-93582000D03*
D14*
X214558000Y-89327900D03*
X214558000Y-87252900D03*
D26*
X228367500Y-78359000D03*
X226292500Y-78359000D03*
D27*
X223351200Y-74701400D03*
X221301200Y-74701400D03*
D24*
X230017000Y-86724000D03*
D25*
X232517000Y-86724000D03*
D19*
X210622700Y-84074000D03*
X213747700Y-84074000D03*
D22*
X219202000Y-73406000D03*
X214702000Y-73406000D03*
D28*
X208153000Y-94361000D03*
X206153000Y-94361000D03*
D29*
X228219000Y-73511500D03*
X228219000Y-75586500D03*
D30*
X206153000Y-90424000D03*
X208153000Y-90424000D03*
D31*
X204600000Y-91850000D03*
X204600000Y-90450000D03*
D27*
X225434000Y-86106000D03*
X223384000Y-86106000D03*
D28*
X208153000Y-92390000D03*
X206153000Y-92390000D03*
D17*
X205189000Y-78105000D03*
X207264000Y-78105000D03*
D29*
X203305500Y-78083500D03*
X203305500Y-80158500D03*
D16*
X233680000Y-70000000D03*
D15*
X233680000Y-72540000D03*
X233680000Y-75080000D03*
X233680000Y-77620000D03*
X233680000Y-80160000D03*
D16*
X218440000Y-90297000D03*
D15*
X218440000Y-92837000D03*
X218440000Y-95377000D03*
D16*
X223520000Y-90297000D03*
D15*
X223520000Y-92837000D03*
X223520000Y-95377000D03*
D28*
X207226500Y-80137000D03*
X205226500Y-80137000D03*
D16*
X231140000Y-75080000D03*
D15*
X231140000Y-77620000D03*
X231140000Y-80160000D03*
M02*
