M48
; DRILL file {KiCad 7.0.10-7.0.10~ubuntu23.10.1} date Fri 29 Mar 2024 23:34:14 CET
; FORMAT={-:-/ absolute / metric / decimal}
; #@! TF.CreationDate,2024-03-29T23:34:14+01:00
; #@! TF.GenerationSoftware,Kicad,Pcbnew,7.0.10-7.0.10~ubuntu23.10.1
; #@! TF.FileFunction,Plated,1,4,PTH
FMAT,2
METRIC
; #@! TA.AperFunction,Plated,PTH,ViaDrill
T1C0.300
; #@! TA.AperFunction,Plated,PTH,ViaDrill
T2C0.400
; #@! TA.AperFunction,Plated,PTH,ComponentDrill
T3C1.000
%
G90
G05
T1
X209.398Y-74.981
X209.398Y-75.692
X210.922Y-74.981
X210.922Y-75.692
X211.379Y-86.563
X211.379Y-87.274
X212.903Y-86.563
X212.903Y-87.274
T2
X200.0Y-91.0
X200.0Y-93.0
X200.0Y-95.0
X202.0Y-91.0
X202.0Y-93.0
X202.0Y-95.0
X202.74Y-82.34
X203.79Y-82.34
X204.0Y-87.5
X204.21Y-77.1
X204.95Y-94.375
X205.16Y-77.048
X206.0Y-83.0
X206.0Y-85.0
X206.15Y-89.225
X206.15Y-95.575
X206.157Y-76.974
X207.467Y-71.526
X207.467Y-72.441
X207.467Y-73.406
X207.772Y-69.494
X207.772Y-70.358
X208.28Y-75.286
X209.499Y-83.058
X209.499Y-83.972
X209.499Y-84.938
X209.804Y-81.026
X209.804Y-81.89
X210.025Y-95.525
X210.076Y-93.316
X210.312Y-86.817
X211.75Y-79.26
X212.395Y-69.698
X212.395Y-70.587
X212.877Y-71.45
X212.877Y-72.415
X212.877Y-73.381
X213.25Y-91.45
X214.503Y-81.153
X214.503Y-82.042
X214.986Y-82.906
X214.986Y-83.871
X214.986Y-84.836
X217.1Y-72.35
X217.15Y-71.3
X217.15Y-74.45
X217.2Y-73.45
X219.0Y-78.0
X219.0Y-81.0
X219.25Y-82.35
X219.25Y-83.3
X219.3Y-84.65
X219.3Y-85.6
X220.39Y-69.43
X221.75Y-80.3
X221.75Y-81.15
X222.292Y-69.541
X223.35Y-73.35
X223.35Y-74.6
X223.35Y-75.95
X223.35Y-77.35
X224.7Y-73.3
X224.7Y-74.65
X224.7Y-76.0
X224.7Y-77.35
X226.5Y-75.1
X226.5Y-76.05
X226.5Y-77.0
X227.0Y-73.51
X227.711Y-69.474
X228.65Y-81.15
X229.35Y-77.95
X229.35Y-79.1
X229.42Y-73.5
X231.0Y-69.0
X232.0Y-84.0
X232.0Y-89.0
X232.0Y-91.0
X232.0Y-96.0
X234.0Y-84.0
X234.0Y-89.0
X234.0Y-91.0
X234.0Y-96.0
T3
X200.66Y-70.0
X200.66Y-72.54
X200.66Y-75.08
X200.66Y-77.62
X200.66Y-80.16
X200.66Y-82.7
X200.66Y-85.24
X200.66Y-87.78
X203.2Y-70.0
X203.2Y-72.54
X203.2Y-75.08
X218.44Y-90.297
X218.44Y-92.837
X218.44Y-95.377
X223.52Y-90.297
X223.52Y-92.837
X223.52Y-95.377
X230.017Y-86.724
X230.017Y-93.582
X231.14Y-75.08
X231.14Y-77.62
X231.14Y-80.16
X232.517Y-86.724
X232.517Y-93.582
X233.68Y-70.0
X233.68Y-72.54
X233.68Y-75.08
X233.68Y-77.62
X233.68Y-80.16
M30
