%TF.GenerationSoftware,KiCad,Pcbnew,7.0.10-7.0.10~ubuntu23.10.1*%
%TF.CreationDate,2024-03-29T23:34:19+01:00*%
%TF.ProjectId,ledBoard,6c656442-6f61-4726-942e-6b696361645f,rev?*%
%TF.SameCoordinates,Original*%
%TF.FileFunction,Drillmap*%
%TF.FilePolarity,Positive*%
%FSLAX45Y45*%
G04 Gerber Fmt 4.5, Leading zero omitted, Abs format (unit mm)*
G04 Created by KiCad (PCBNEW 7.0.10-7.0.10~ubuntu23.10.1) date 2024-03-29 23:34:19*
%MOMM*%
%LPD*%
G01*
G04 APERTURE LIST*
%ADD10C,0.100000*%
%ADD11C,0.200000*%
G04 APERTURE END LIST*
D10*
X19860300Y-6794500D02*
X23558500Y-6794500D01*
X23558500Y-9762500D01*
X19860300Y-9762500D01*
X19860300Y-6794500D01*
D11*
X20116077Y-10078984D02*
X20116077Y-9878984D01*
X20116077Y-9878984D02*
X20163696Y-9878984D01*
X20163696Y-9878984D02*
X20192267Y-9888508D01*
X20192267Y-9888508D02*
X20211315Y-9907555D01*
X20211315Y-9907555D02*
X20220839Y-9926603D01*
X20220839Y-9926603D02*
X20230363Y-9964698D01*
X20230363Y-9964698D02*
X20230363Y-9993270D01*
X20230363Y-9993270D02*
X20220839Y-10031365D01*
X20220839Y-10031365D02*
X20211315Y-10050412D01*
X20211315Y-10050412D02*
X20192267Y-10069460D01*
X20192267Y-10069460D02*
X20163696Y-10078984D01*
X20163696Y-10078984D02*
X20116077Y-10078984D01*
X20316077Y-10078984D02*
X20316077Y-9945650D01*
X20316077Y-9983746D02*
X20325601Y-9964698D01*
X20325601Y-9964698D02*
X20335124Y-9955174D01*
X20335124Y-9955174D02*
X20354172Y-9945650D01*
X20354172Y-9945650D02*
X20373220Y-9945650D01*
X20439886Y-10078984D02*
X20439886Y-9945650D01*
X20439886Y-9878984D02*
X20430363Y-9888508D01*
X20430363Y-9888508D02*
X20439886Y-9898031D01*
X20439886Y-9898031D02*
X20449410Y-9888508D01*
X20449410Y-9888508D02*
X20439886Y-9878984D01*
X20439886Y-9878984D02*
X20439886Y-9898031D01*
X20563696Y-10078984D02*
X20544648Y-10069460D01*
X20544648Y-10069460D02*
X20535124Y-10050412D01*
X20535124Y-10050412D02*
X20535124Y-9878984D01*
X20668458Y-10078984D02*
X20649410Y-10069460D01*
X20649410Y-10069460D02*
X20639886Y-10050412D01*
X20639886Y-10050412D02*
X20639886Y-9878984D01*
X20897029Y-10078984D02*
X20897029Y-9878984D01*
X20897029Y-9878984D02*
X20963696Y-10021841D01*
X20963696Y-10021841D02*
X21030363Y-9878984D01*
X21030363Y-9878984D02*
X21030363Y-10078984D01*
X21211315Y-10078984D02*
X21211315Y-9974222D01*
X21211315Y-9974222D02*
X21201791Y-9955174D01*
X21201791Y-9955174D02*
X21182744Y-9945650D01*
X21182744Y-9945650D02*
X21144648Y-9945650D01*
X21144648Y-9945650D02*
X21125601Y-9955174D01*
X21211315Y-10069460D02*
X21192267Y-10078984D01*
X21192267Y-10078984D02*
X21144648Y-10078984D01*
X21144648Y-10078984D02*
X21125601Y-10069460D01*
X21125601Y-10069460D02*
X21116077Y-10050412D01*
X21116077Y-10050412D02*
X21116077Y-10031365D01*
X21116077Y-10031365D02*
X21125601Y-10012317D01*
X21125601Y-10012317D02*
X21144648Y-10002793D01*
X21144648Y-10002793D02*
X21192267Y-10002793D01*
X21192267Y-10002793D02*
X21211315Y-9993270D01*
X21306553Y-9945650D02*
X21306553Y-10145650D01*
X21306553Y-9955174D02*
X21325601Y-9945650D01*
X21325601Y-9945650D02*
X21363696Y-9945650D01*
X21363696Y-9945650D02*
X21382744Y-9955174D01*
X21382744Y-9955174D02*
X21392267Y-9964698D01*
X21392267Y-9964698D02*
X21401791Y-9983746D01*
X21401791Y-9983746D02*
X21401791Y-10040889D01*
X21401791Y-10040889D02*
X21392267Y-10059936D01*
X21392267Y-10059936D02*
X21382744Y-10069460D01*
X21382744Y-10069460D02*
X21363696Y-10078984D01*
X21363696Y-10078984D02*
X21325601Y-10078984D01*
X21325601Y-10078984D02*
X21306553Y-10069460D01*
X21487505Y-10059936D02*
X21497029Y-10069460D01*
X21497029Y-10069460D02*
X21487505Y-10078984D01*
X21487505Y-10078984D02*
X21477982Y-10069460D01*
X21477982Y-10069460D02*
X21487505Y-10059936D01*
X21487505Y-10059936D02*
X21487505Y-10078984D01*
X21487505Y-9955174D02*
X21497029Y-9964698D01*
X21497029Y-9964698D02*
X21487505Y-9974222D01*
X21487505Y-9974222D02*
X21477982Y-9964698D01*
X21477982Y-9964698D02*
X21487505Y-9955174D01*
X21487505Y-9955174D02*
X21487505Y-9974222D01*
M02*
